<?xml version="1.0" encoding="UTF-8" standalone="no"?>
<!-- Created with Inkscape (http://www.inkscape.org/) -->

<svg
   xmlns:dc="http://purl.org/dc/elements/1.1/"
   xmlns:cc="http://creativecommons.org/ns#"
   xmlns:rdf="http://www.w3.org/1999/02/22-rdf-syntax-ns#"
   xmlns:svg="http://www.w3.org/2000/svg"
   xmlns="http://www.w3.org/2000/svg"
   xmlns:sodipodi="http://sodipodi.sourceforge.net/DTD/sodipodi-0.dtd"
   xmlns:inkscape="http://www.inkscape.org/namespaces/inkscape"
   width="1920"
   height="1080"
   viewBox="0 0 1920 1080"
   version="1.1"
   id="svg8"
   inkscape:version="0.92.4 (5da689c313, 2019-01-14)"
   sodipodi:docname="Perkedel Intro Ending.svg"
   inkscape:export-filename="C:\Users\joelr\Documents\starring codes\Godot Projects\HexagonEngine\Inkscape\Logo Setup\Perkedel Intro Ending render\Perkedel Intro End Just Text Transparent.png"
   inkscape:export-xdpi="96"
   inkscape:export-ydpi="96">
  <defs
     id="defs2" />
  <sodipodi:namedview
     id="base"
     pagecolor="#ffffff"
     bordercolor="#666666"
     borderopacity="1.0"
     inkscape:pageopacity="0.0"
     inkscape:pageshadow="2"
     inkscape:zoom="0.49497475"
     inkscape:cx="759.51051"
     inkscape:cy="593.63824"
     inkscape:document-units="px"
     inkscape:current-layer="layer8"
     showgrid="true"
     units="px"
     inkscape:snap-bbox="true"
     inkscape:bbox-paths="true"
     inkscape:bbox-nodes="true"
     inkscape:snap-bbox-edge-midpoints="true"
     inkscape:snap-bbox-midpoints="true"
     inkscape:window-width="1920"
     inkscape:window-height="1051"
     inkscape:window-x="-9"
     inkscape:window-y="-9"
     inkscape:window-maximized="1">
    <inkscape:grid
       type="xygrid"
       id="grid4747" />
  </sodipodi:namedview>
  <metadata
     id="metadata5">
    <rdf:RDF>
      <cc:Work
         rdf:about="">
        <dc:format>image/svg+xml</dc:format>
        <dc:type
           rdf:resource="http://purl.org/dc/dcmitype/StillImage" />
        <dc:title></dc:title>
        <cc:license
           rdf:resource="http://creativecommons.org/licenses/by-sa/4.0/" />
      </cc:Work>
      <cc:License
         rdf:about="http://creativecommons.org/licenses/by-sa/4.0/">
        <cc:permits
           rdf:resource="http://creativecommons.org/ns#Reproduction" />
        <cc:permits
           rdf:resource="http://creativecommons.org/ns#Distribution" />
        <cc:requires
           rdf:resource="http://creativecommons.org/ns#Notice" />
        <cc:requires
           rdf:resource="http://creativecommons.org/ns#Attribution" />
        <cc:permits
           rdf:resource="http://creativecommons.org/ns#DerivativeWorks" />
        <cc:requires
           rdf:resource="http://creativecommons.org/ns#ShareAlike" />
      </cc:License>
    </rdf:RDF>
  </metadata>
  <g
     inkscape:label="Dot"
     inkscape:groupmode="layer"
     id="layer1"
     transform="translate(0,-11.249981)"
     sodipodi:insensitive="true"
     style="display:inline">
    <g
       id="g4763">
      <rect
         ry="1.6613799e-07"
         y="-308.75003"
         x="960"
         height="280"
         width="240"
         id="rect4751"
         style="opacity:1;fill:#00ffff;fill-opacity:1;stroke:none;stroke-width:1.04999995;stroke-linecap:round;stroke-linejoin:round;stroke-miterlimit:4;stroke-dasharray:none;stroke-dashoffset:9.44881916;stroke-opacity:1" />
      <rect
         ry="1.6613799e-07"
         y="-308.75003"
         x="720"
         height="280"
         width="240"
         id="rect4753"
         style="opacity:1;fill:#ff00ff;fill-opacity:1;stroke:none;stroke-width:1.04999995;stroke-linecap:round;stroke-linejoin:round;stroke-miterlimit:4;stroke-dasharray:none;stroke-dashoffset:9.44881916;stroke-opacity:1" />
      <rect
         style="opacity:1;fill:#0000ff;fill-opacity:1;stroke:none;stroke-width:1.04999995;stroke-linecap:round;stroke-linejoin:round;stroke-miterlimit:4;stroke-dasharray:none;stroke-dashoffset:9.44881916;stroke-opacity:1"
         id="rect4755"
         width="240"
         height="280"
         x="960"
         y="-588.75"
         ry="1.6613799e-07" />
      <rect
         style="opacity:1;fill:#00ff00;fill-opacity:1;stroke:none;stroke-width:1.04999995;stroke-linecap:round;stroke-linejoin:round;stroke-miterlimit:4;stroke-dasharray:none;stroke-dashoffset:9.44881916;stroke-opacity:1"
         id="rect4757"
         width="240"
         height="280"
         x="720"
         y="-588.75"
         ry="1.6613799e-07" />
    </g>
    <g
       id="g4773"
       transform="translate(-1280,859.99998)">
      <rect
         style="opacity:1;fill:#00ffff;fill-opacity:1;stroke:none;stroke-width:1.04999995;stroke-linecap:round;stroke-linejoin:round;stroke-miterlimit:4;stroke-dasharray:none;stroke-dashoffset:9.44881916;stroke-opacity:1"
         id="rect4765"
         width="240"
         height="280"
         x="960"
         y="-308.75003"
         ry="1.6613799e-07" />
      <rect
         style="opacity:1;fill:#ff00ff;fill-opacity:1;stroke:none;stroke-width:1.04999995;stroke-linecap:round;stroke-linejoin:round;stroke-miterlimit:4;stroke-dasharray:none;stroke-dashoffset:9.44881916;stroke-opacity:1"
         id="rect4767"
         width="240"
         height="280"
         x="720"
         y="-308.75003"
         ry="1.6613799e-07" />
      <rect
         ry="1.6613799e-07"
         y="-588.75"
         x="960"
         height="280"
         width="240"
         id="rect4769"
         style="opacity:1;fill:#0000ff;fill-opacity:1;stroke:none;stroke-width:1.04999995;stroke-linecap:round;stroke-linejoin:round;stroke-miterlimit:4;stroke-dasharray:none;stroke-dashoffset:9.44881916;stroke-opacity:1" />
      <rect
         ry="1.6613799e-07"
         y="-588.75"
         x="720"
         height="280"
         width="240"
         id="rect4771"
         style="opacity:1;fill:#00ff00;fill-opacity:1;stroke:none;stroke-width:1.04999995;stroke-linecap:round;stroke-linejoin:round;stroke-miterlimit:4;stroke-dasharray:none;stroke-dashoffset:9.44881916;stroke-opacity:1" />
    </g>
  </g>
  <g
     inkscape:groupmode="layer"
     id="layer2"
     inkscape:label="Bekgron"
     style="display:none"
     sodipodi:insensitive="true">
    <rect
       style="opacity:1;fill:#000000;fill-opacity:1;stroke:none;stroke-width:1.04999995;stroke-linecap:round;stroke-linejoin:round;stroke-miterlimit:4;stroke-dasharray:none;stroke-dashoffset:9.44881916;stroke-opacity:1"
       id="rect4749"
       width="1920"
       height="1080"
       x="0"
       y="0"
       ry="1.6613799e-07" />
  </g>
  <g
     inkscape:groupmode="layer"
     id="layer3"
     inkscape:label="Perkedel Logo"
     style="display:none"
     sodipodi:insensitive="true">
    <g
       transform="translate(598.22175,97.5)"
       id="g1536-6-4-0"
       inkscape:export-xdpi="300"
       inkscape:export-ydpi="300">
      <g
         transform="translate(-128,64)"
         id="g1492-8-7-8">
        <path
           inkscape:connector-curvature="0"
           style="opacity:1;fill:#ffc800;fill-opacity:1;fill-rule:nonzero;stroke:none;stroke-opacity:1"
           d="m 256,208 a 64,64 0 0 0 -64,64 64,64 0 0 0 64,64 h 64 a 64,64 0 0 0 64,-64 64,64 0 0 0 -64,-64 z"
           transform="translate(0,106.5)"
           id="path1451-5-8-0" />
        <path
           inkscape:connector-curvature="0"
           style="opacity:1;fill:#fffe00;fill-opacity:1;fill-rule:nonzero;stroke:none;stroke-width:1.0444659;stroke-opacity:1"
           d="m 288,224 a 4,4 0 0 0 -4,4 v 40 h -40 a 4,4 0 0 0 -4,4 4,4 0 0 0 4,4 h 40 v 40 a 4,4 0 0 0 4,4 4,4 0 0 0 4,-4 v -40 h 40 a 4,4 0 0 0 4,-4 4,4 0 0 0 -4,-4 h -40 v -40 a 4,4 0 0 0 -4,-4 z"
           transform="translate(0,106.5)"
           id="rect1461-3-4-1" />
      </g>
      <flowRoot
         transform="translate(-108.256,129.20475)"
         style="font-style:normal;font-weight:normal;font-size:40px;line-height:0;font-family:sans-serif;letter-spacing:0px;word-spacing:0px;fill:#fffff6;fill-opacity:1;stroke:none;stroke-opacity:1"
         id="flowRoot1482-6-4-6"
         xml:space="preserve"><flowRegion
           style="line-height:0;fill:#fffff6;fill-opacity:1;stroke:none;stroke-opacity:1"
           id="flowRegion1484-4-7-0"><rect
             style="line-height:0;fill:#fffff6;fill-opacity:1;stroke:none;stroke-opacity:1"
             y="272"
             x="384"
             height="128"
             width="1024"
             id="rect1486-8-8-8" /></flowRegion><flowPara
           style="font-style:normal;font-variant:normal;font-weight:normal;font-stretch:normal;font-size:96px;line-height:1;font-family:Ubuntu;-inkscape-font-specification:Ubuntu;fill:#fffff6;fill-opacity:1;stroke:none;stroke-opacity:1"
           id="flowPara1488-6-3-8">Perkedel </flowPara></flowRoot>    </g>
  </g>
  <g
     inkscape:groupmode="layer"
     id="layer7"
     inkscape:label="Perkedel Slide off"
     sodipodi:insensitive="true"
     style="display:none">
    <g
       transform="translate(470.22175,161.5)"
       id="g9468">
      <path
         inkscape:connector-curvature="0"
         style="opacity:1;fill:#ffc800;fill-opacity:1;fill-rule:nonzero;stroke:none;stroke-opacity:1"
         d="m 256,208 a 64,64 0 0 0 -64,64 64,64 0 0 0 64,64 h 64 a 64,64 0 0 0 64,-64 64,64 0 0 0 -64,-64 z"
         transform="translate(0,106.5)"
         id="path9464" />
      <path
         inkscape:connector-curvature="0"
         style="opacity:1;fill:#fffe00;fill-opacity:1;fill-rule:nonzero;stroke:none;stroke-width:1.0444659;stroke-opacity:1"
         d="m 288,224 a 4,4 0 0 0 -4,4 v 40 h -40 a 4,4 0 0 0 -4,4 4,4 0 0 0 4,4 h 40 v 40 a 4,4 0 0 0 4,4 4,4 0 0 0 4,-4 v -40 h 40 a 4,4 0 0 0 4,-4 4,4 0 0 0 -4,-4 h -40 v -40 a 4,4 0 0 0 -4,-4 z"
         transform="translate(0,106.5)"
         id="path9466" />
    </g>
  </g>
  <g
     inkscape:groupmode="layer"
     id="layer8"
     inkscape:label="Perkedel Just Text"
     style="display:inline">
    <flowRoot
       transform="translate(489.96575,226.70475)"
       style="font-style:normal;font-weight:normal;font-size:40px;line-height:0;font-family:sans-serif;letter-spacing:0px;word-spacing:0px;fill:#fffff6;fill-opacity:1;stroke:none;stroke-opacity:1"
       id="flowRoot9509"
       xml:space="preserve"><flowRegion
         style="line-height:0;fill:#fffff6;fill-opacity:1;stroke:none;stroke-opacity:1"
         id="flowRegion9505"><rect
           style="line-height:0;fill:#fffff6;fill-opacity:1;stroke:none;stroke-opacity:1"
           y="272"
           x="384"
           height="128"
           width="1024"
           id="rect9503" /></flowRegion><flowPara
         style="font-style:normal;font-variant:normal;font-weight:normal;font-stretch:normal;font-size:96px;line-height:1;font-family:Ubuntu;-inkscape-font-specification:Ubuntu;fill:#fffff6;fill-opacity:1;stroke:none;stroke-opacity:1"
         id="flowPara9507">Perkedel </flowPara></flowRoot>  </g>
  <g
     inkscape:groupmode="layer"
     id="layer4"
     inkscape:label="Perkedel Symbol"
     sodipodi:insensitive="true"
     style="display:none">
    <g
       id="g1492-8-9"
       transform="translate(672,169.5)"
       inkscape:export-xdpi="300"
       inkscape:export-ydpi="300">
      <g
         id="g9393"
         transform="translate(0,-8)">
        <path
           inkscape:connector-curvature="0"
           style="opacity:1;fill:#ffc800;fill-opacity:1;fill-rule:nonzero;stroke:none;stroke-opacity:1"
           d="m 256,208 a 64,64 0 0 0 -64,64 64,64 0 0 0 64,64 h 64 a 64,64 0 0 0 64,-64 64,64 0 0 0 -64,-64 z"
           transform="translate(0,106.5)"
           id="path1451-5-4" />
        <path
           inkscape:connector-curvature="0"
           style="opacity:1;fill:#fffe00;fill-opacity:1;fill-rule:nonzero;stroke:none;stroke-width:1.0444659;stroke-opacity:1"
           d="m 288,224 a 4,4 0 0 0 -4,4 v 40 h -40 a 4,4 0 0 0 -4,4 4,4 0 0 0 4,4 h 40 v 40 a 4,4 0 0 0 4,4 4,4 0 0 0 4,-4 v -40 h 40 a 4,4 0 0 0 4,-4 4,4 0 0 0 -4,-4 h -40 v -40 a 4,4 0 0 0 -4,-4 z"
           transform="translate(0,106.5)"
           id="rect1461-3-1" />
      </g>
    </g>
  </g>
  <g
     inkscape:groupmode="layer"
     id="layer6"
     inkscape:label="Bekgron Bolong"
     style="display:none"
     sodipodi:insensitive="true">
    <path
       style="display:inline;opacity:1;fill:#000000;fill-opacity:1;stroke:none;stroke-width:1.04999995;stroke-linecap:round;stroke-linejoin:round;stroke-miterlimit:4;stroke-dasharray:none;stroke-dashoffset:9.44881916;stroke-opacity:1"
       d="M 0,0 V 1080 H 1920 V 0 Z m 928,476 h 64 a 64,64 0 0 1 64,64 64,64 0 0 1 -64,64 h -64 a 64,64 0 0 1 -64,-64 64,64 0 0 1 64,-64 z"
       id="rect4749-2"
       inkscape:connector-curvature="0" />
    <path
       id="path9457"
       d="m -36,1156 a 64,64 0 0 0 -64,64 64,64 0 0 0 64,64 h 64 a 64,64 0 0 0 64,-64 64,64 0 0 0 -64,-64 z"
       style="display:inline;opacity:1;fill:#ffc800;fill-opacity:1;fill-rule:nonzero;stroke:none;stroke-opacity:1"
       inkscape:connector-curvature="0" />
  </g>
  <g
     inkscape:groupmode="layer"
     id="layer5"
     inkscape:label="Perkedel Hollow"
     style="display:none"
     sodipodi:insensitive="true">
    <path
       style="opacity:1;fill:#ffc800;fill-opacity:1;fill-rule:nonzero;stroke:none;stroke-opacity:1"
       d="m 928,476 a 64,64 0 0 0 -64,64 64,64 0 0 0 64,64 h 64 a 64,64 0 0 0 64,-64 64,64 0 0 0 -64,-64 z m 32,16 a 4,4 0 0 1 4,4 v 40 h 40 a 4,4 0 0 1 4,4 4,4 0 0 1 -4,4 h -40 v 40 a 4,4 0 0 1 -4,4 4,4 0 0 1 -4,-4 v -40 h -40 a 4,4 0 0 1 -4,-4 4,4 0 0 1 4,-4 h 40 v -40 a 4,4 0 0 1 4,-4 z"
       id="path1451-5-4-9"
       inkscape:connector-curvature="0" />
    <path
       inkscape:connector-curvature="0"
       id="path9460"
       d="m 444,1140 a 64,64 0 0 0 -64,64 64,64 0 0 0 64,64 h 64 a 64,64 0 0 0 64,-64 64,64 0 0 0 -64,-64 z m 32,16 a 4,4 0 0 1 4,4 v 40 h 40 a 4,4 0 0 1 4,4 4,4 0 0 1 -4,4 h -40 v 40 a 4,4 0 0 1 -4,4 4,4 0 0 1 -4,-4 v -40 h -40 a 4,4 0 0 1 -4,-4 4,4 0 0 1 4,-4 h 40 v -40 a 4,4 0 0 1 4,-4 z"
       style="opacity:1;fill:#ffc800;fill-opacity:1;fill-rule:nonzero;stroke:none;stroke-opacity:1" />
    <rect
       ry="1.6613799e-07"
       y="1154"
       x="426"
       height="100"
       width="100"
       id="rect9462"
       style="opacity:1;fill:#ffffff;fill-opacity:1;stroke:none;stroke-width:1.04999995;stroke-linecap:round;stroke-linejoin:round;stroke-miterlimit:4;stroke-dasharray:none;stroke-dashoffset:9.44881916;stroke-opacity:1" />
  </g>
</svg>
