<?xml version="1.0" encoding="UTF-8" standalone="no"?>
<!-- Created with Inkscape (http://www.inkscape.org/) -->

<svg
   xmlns:dc="http://purl.org/dc/elements/1.1/"
   xmlns:cc="http://creativecommons.org/ns#"
   xmlns:rdf="http://www.w3.org/1999/02/22-rdf-syntax-ns#"
   xmlns:svg="http://www.w3.org/2000/svg"
   xmlns="http://www.w3.org/2000/svg"
   xmlns:xlink="http://www.w3.org/1999/xlink"
   xmlns:sodipodi="http://sodipodi.sourceforge.net/DTD/sodipodi-0.dtd"
   xmlns:inkscape="http://www.inkscape.org/namespaces/inkscape"
   width="2048"
   height="2048"
   viewBox="0 0 2048 2048"
   version="1.1"
   id="svg8"
   inkscape:version="0.92.4 (5da689c313, 2019-01-14)"
   sodipodi:docname="SOSIG_Logo_Surreal.svg"
   inkscape:export-filename="C:\Users\ASUS\Documents\starring codes\Godot Projects\HexagonEngine\Inkscape\Logo Setup\SOSIG_Logo_Surreal.png"
   inkscape:export-xdpi="96.000008"
   inkscape:export-ydpi="96.000008">
  <defs
     id="defs2">
    <linearGradient
       inkscape:collect="always"
       id="linearGradient893">
      <stop
         style="stop-color:#ff9955;stop-opacity:1;"
         offset="0"
         id="stop889" />
      <stop
         id="stop901"
         offset="0.25"
         style="stop-color:#eec9df;stop-opacity:1" />
      <stop
         id="stop897"
         offset="0.5"
         style="stop-color:#a8f3c0;stop-opacity:1" />
      <stop
         style="stop-color:#9cdeed;stop-opacity:1"
         offset="0.75"
         id="stop899" />
      <stop
         style="stop-color:#ff7455;stop-opacity:1"
         offset="1"
         id="stop891" />
    </linearGradient>
    <linearGradient
       inkscape:collect="always"
       xlink:href="#linearGradient893"
       id="linearGradient895"
       x1="1024"
       y1="0"
       x2="1024"
       y2="2048"
       gradientUnits="userSpaceOnUse" />
  </defs>
  <sodipodi:namedview
     id="base"
     pagecolor="#ffffff"
     bordercolor="#666666"
     borderopacity="1.0"
     inkscape:pageopacity="0.0"
     inkscape:pageshadow="2"
     inkscape:zoom="0.35355339"
     inkscape:cx="933.09535"
     inkscape:cy="845.77389"
     inkscape:document-units="px"
     inkscape:current-layer="layer3"
     showgrid="true"
     units="px"
     inkscape:window-width="1920"
     inkscape:window-height="1051"
     inkscape:window-x="-9"
     inkscape:window-y="-9"
     inkscape:window-maximized="1"
     inkscape:snap-bbox="true"
     inkscape:bbox-paths="true"
     inkscape:bbox-nodes="true"
     inkscape:snap-bbox-edge-midpoints="true"
     inkscape:snap-bbox-midpoints="true">
    <inkscape:grid
       type="xygrid"
       id="grid815"
       empspacing="4"
       color="#3fff00"
       opacity="0.1254902"
       empcolor="#ff0000"
       empopacity="0.25098039" />
    <inkscape:grid
       type="xygrid"
       id="grid817"
       color="#ff3fff"
       opacity="0.1254902"
       empcolor="#ff3fff"
       empopacity="0.25098039"
       empspacing="64" />
    <inkscape:grid
       type="xygrid"
       id="grid819"
       empspacing="128" />
    <inkscape:grid
       type="xygrid"
       id="grid849"
       empspacing="32"
       empcolor="#ffa800"
       empopacity="0.25098039"
       color="#ffff00"
       opacity="0.1254902"
       enabled="false" />
  </sodipodi:namedview>
  <metadata
     id="metadata5">
    <rdf:RDF>
      <cc:Work
         rdf:about="">
        <dc:format>image/svg+xml</dc:format>
        <dc:type
           rdf:resource="http://purl.org/dc/dcmitype/StillImage" />
        <dc:title />
        <cc:license
           rdf:resource="http://creativecommons.org/licenses/by-sa/4.0/" />
      </cc:Work>
      <cc:License
         rdf:about="http://creativecommons.org/licenses/by-sa/4.0/">
        <cc:permits
           rdf:resource="http://creativecommons.org/ns#Reproduction" />
        <cc:permits
           rdf:resource="http://creativecommons.org/ns#Distribution" />
        <cc:requires
           rdf:resource="http://creativecommons.org/ns#Notice" />
        <cc:requires
           rdf:resource="http://creativecommons.org/ns#Attribution" />
        <cc:permits
           rdf:resource="http://creativecommons.org/ns#DerivativeWorks" />
        <cc:requires
           rdf:resource="http://creativecommons.org/ns#ShareAlike" />
      </cc:License>
    </rdf:RDF>
  </metadata>
  <g
     inkscape:groupmode="layer"
     id="layer3"
     inkscape:label="bekgron"
     style="display:inline">
    <rect
       style="fill:url(#linearGradient895);fill-opacity:1;stroke:none;stroke-width:10;stroke-linecap:round;stroke-linejoin:round;stroke-miterlimit:4;stroke-dasharray:none;stroke-dashoffset:25;stroke-opacity:1"
       id="rect1009"
       width="2048"
       height="2048"
       x="0"
       y="0" />
  </g>
  <g
     inkscape:label="Main"
     inkscape:groupmode="layer"
     id="layer1"
     transform="translate(0,244.86667)">
    <path
       style="fill:#edf2f0;fill-opacity:1;stroke:#000000;stroke-width:3.37555885;stroke-miterlimit:4;stroke-dasharray:none;stroke-dashoffset:25;stroke-opacity:1"
       d="m 412.83499,779.25683 a 432.07154,432.07154 0 0 0 0,611.04147 432.07154,432.07154 0 0 0 611.04141,0 l 611.0413,-611.04147 a 432.07154,432.07154 0 0 0 0,-611.04141 432.07154,432.07154 0 0 0 -611.0413,0 z m 0,611.04147 H 260.07465 l 152.76034,152.7604 z M 1635.1648,15.208011 V 167.96836 h 152.7606 z"
       id="path821"
       inkscape:connector-curvature="0" />
    <path
       id="path839"
       d="m 639.94825,-756.86667 a 128,128 0 0 0 -128,128 128,128 0 0 0 128,128 h 256 a 128,128 0 0 0 128.00005,-128 128,128 0 0 0 -128.00005,-128 z m -128,128 -32,-32 v 64 z m 544.10355,-32 -32,32 32,32 z"
       style="fill:#edf2f0;fill-opacity:1;stroke:#000000;stroke-width:1;stroke-miterlimit:4;stroke-dasharray:none;stroke-dashoffset:25;stroke-opacity:1"
       inkscape:connector-curvature="0" />
    <path
       style="fill:none;stroke:#000000;stroke-width:10;stroke-linecap:round;stroke-linejoin:round;stroke-opacity:1;stroke-miterlimit:4;stroke-dasharray:none"
       d="m 1408,-628.86667 h -224 c 0,0 -32,0 -32,32 0,32 0,64 0,64 0,0 0,32 32,32 32,0 96,0 96,0 h 64 32 c 0,0 32,0 32,32 0,32 0,64 0,64 0,0 0,32 -32,32 -32,0 -96,0 -96,0 h -128"
       id="path845"
       inkscape:connector-curvature="0" />
    <path
       style="fill:none;stroke:#000000;stroke-width:10;stroke-linecap:round;stroke-linejoin:round;stroke-opacity:1;stroke-miterlimit:4;stroke-dasharray:none"
       d="m 1792,-628.86667 h -96 c 0,0 -32,0 -32,32 0,32 0,192 0,192 0,0 0,32 32,32 32,0 192,0 192,0 0,0 32,0 32,-32 0,-32 0,-192 0,-192 0,0 0,-32 -32,-32 -32,0 -96,0 -96,0 z"
       id="path851"
       inkscape:connector-curvature="0" />
    <path
       style="fill:none;stroke:#000000;stroke-width:10;stroke-linecap:round;stroke-linejoin:round;stroke-opacity:1;stroke-miterlimit:4;stroke-dasharray:none"
       d="m 2048,-628.86667 v 256"
       id="path853"
       inkscape:connector-curvature="0" />
    <path
       style="fill:none;stroke:#000000;stroke-width:10;stroke-linecap:round;stroke-linejoin:round;stroke-opacity:1;stroke-miterlimit:4;stroke-dasharray:none"
       d="m 2560,-596.86667 c 0,0 0,-32 -32,-32 -32,0 -192,0 -192,0 0,0 -32,0 -32,32 0,32 0,192 0,192 0,0 0,32 32,32 32,0 192,0 192,0 0,0 32,0 32,-32 0,-32 0,-64 0,-64 0,0 0,-32 -32,-32 -32,0 -96,0 -96,0"
       id="path855"
       inkscape:connector-curvature="0" />
    <g
       id="g872">
      <path
         style="fill:none;stroke:#000000;stroke-width:10;stroke-linecap:round;stroke-linejoin:round;stroke-miterlimit:4;stroke-dasharray:none;stroke-opacity:1"
         d="m 1408,-1012.8667 h -224 c 0,0 -32,0 -32,32.00004 0,32 0,64 0,64 0,0 0,32 32,32 32,0 96,0 96,0 h 64 32 c 0,0 32,0 32,32 0,32 0,64 0,64 0,0 0,32 -32,32 -32,0 -96,0 -96,0 h -128"
         id="path857"
         inkscape:connector-curvature="0" />
      <path
         style="fill:none;stroke:#000000;stroke-width:10;stroke-linecap:round;stroke-linejoin:round;stroke-miterlimit:4;stroke-dasharray:none;stroke-opacity:1"
         d="m 1605.0001,-1007.8666 h -96 c 0,0 -32,0 -32,31.99999 0,32 0,192 0,192 0,0 0,32 32,32 32,0 192,0 192,0 0,0 32,0 32,-32 0,-32 0,-192 0,-192 0,0 0,-31.99999 -32,-31.99999 -32,0 -96,0 -96,0 z"
         id="path859"
         inkscape:connector-curvature="0" />
      <path
         style="fill:none;stroke:#000000;stroke-width:10;stroke-linecap:round;stroke-linejoin:round;stroke-miterlimit:4;stroke-dasharray:none;stroke-opacity:1"
         d="m 2112,-1012.8667 v 256.00004"
         id="path861"
         inkscape:connector-curvature="0" />
      <path
         style="fill:none;stroke:#000000;stroke-width:10;stroke-linecap:round;stroke-linejoin:round;stroke-miterlimit:4;stroke-dasharray:none;stroke-opacity:1"
         d="m 2048,-1012.8667 h -224 c 0,0 -32,0 -32,32.00003 0,32 0,64 0,64 0,0 0,32 32,32 32,0 96,0 96,0 h 64 32 c 0,0 32,0 32,32 0,32 0,64 0,64 0,0 0,32 -32,32 -32,0 -96,0 -96,0 h -128"
         id="path863"
         inkscape:connector-curvature="0" />
      <path
         style="fill:none;stroke:#000000;stroke-width:10;stroke-linecap:round;stroke-linejoin:round;stroke-miterlimit:4;stroke-dasharray:none;stroke-opacity:1"
         d="m 2432,-980.86667 c 0,0 0,-32.00003 -32,-32.00003 -32,0 -192,0 -192,0 0,0 -32,0 -32,32.00003 0,32 0,192 0,192 0,0 0,32 32,32 32,0 192,0 192,0 0,0 32,0 32,-32 0,-32 0,-64 0,-64 0,0 0,-32 -32,-32 -32,0 -96,0 -96,0"
         id="path865"
         inkscape:connector-curvature="0" />
    </g>
    <g
       id="g884"
       transform="matrix(0.39687715,0,0,0.39687715,296.81018,1129.3386)"
       style="fill:none;fill-opacity:1;stroke:#ff0000;stroke-opacity:1">
      <path
         inkscape:connector-curvature="0"
         id="path874"
         d="m 1408,-1012.8667 h -224 c 0,0 -32,0 -32,32.00004 0,32 0,64 0,64 0,0 0,32 32,32 32,0 96,0 96,0 h 64 32 c 0,0 32,0 32,32 0,32 0,64 0,64 0,0 0,32 -32,32 -32,0 -96,0 -96,0 h -128"
         style="fill:none;stroke:#ff0000;stroke-width:10;stroke-linecap:round;stroke-linejoin:round;stroke-miterlimit:4;stroke-dasharray:none;stroke-opacity:1;fill-opacity:1" />
      <path
         inkscape:connector-curvature="0"
         id="path876"
         d="m 1605.0001,-1007.8666 h -96 c 0,0 -32,0 -32,31.99999 0,32 0,192 0,192 0,0 0,32 32,32 32,0 192,0 192,0 0,0 32,0 32,-32 0,-32 0,-192 0,-192 0,0 0,-31.99999 -32,-31.99999 -32,0 -96,0 -96,0 z"
         style="fill:none;stroke:#ff0000;stroke-width:10;stroke-linecap:round;stroke-linejoin:round;stroke-miterlimit:4;stroke-dasharray:none;stroke-opacity:1;fill-opacity:1" />
      <path
         inkscape:connector-curvature="0"
         id="path878"
         d="m 2112,-1012.8667 v 256.00004"
         style="fill:none;stroke:#ff0000;stroke-width:10;stroke-linecap:round;stroke-linejoin:round;stroke-miterlimit:4;stroke-dasharray:none;stroke-opacity:1;fill-opacity:1" />
      <path
         inkscape:connector-curvature="0"
         id="path880"
         d="m 2048,-1012.8667 h -224 c 0,0 -32,0 -32,32.00003 0,32 0,64 0,64 0,0 0,32 32,32 32,0 96,0 96,0 h 64 32 c 0,0 32,0 32,32 0,32 0,64 0,64 0,0 0,32 -32,32 -32,0 -96,0 -96,0 h -128"
         style="fill:none;stroke:#ff0000;stroke-width:10;stroke-linecap:round;stroke-linejoin:round;stroke-miterlimit:4;stroke-dasharray:none;stroke-opacity:1;fill-opacity:1" />
      <path
         inkscape:connector-curvature="0"
         id="path882"
         d="m 2432,-980.86667 c 0,0 0,-32.00003 -32,-32.00003 -32,0 -192,0 -192,0 0,0 -32,0 -32,32.00003 0,32 0,192 0,192 0,0 0,32 32,32 32,0 192,0 192,0 0,0 32,0 32,-32 0,-32 0,-64 0,-64 0,0 0,-32 -32,-32 -32,0 -96,0 -96,0"
         style="fill:none;stroke:#ff0000;stroke-width:10;stroke-linecap:round;stroke-linejoin:round;stroke-miterlimit:4;stroke-dasharray:none;stroke-opacity:1;fill-opacity:1" />
    </g>
    <text
       xml:space="preserve"
       style="font-style:normal;font-weight:normal;font-size:40px;line-height:1.25;font-family:sans-serif;text-align:center;letter-spacing:0px;word-spacing:0px;text-anchor:middle;fill:#000000;fill-opacity:1;stroke:none"
       x="-545.25"
       y="1766.3052"
       id="text888"><tspan
         sodipodi:role="line"
         id="tspan886"
         x="-545.25"
         y="1766.3052">https://www.youtube.com/watch?v=vooFDHLES9c</tspan></text>
    <text
       xml:space="preserve"
       style="font-style:normal;font-weight:normal;font-size:40px;line-height:1.25;font-family:sans-serif;text-align:center;letter-spacing:0px;word-spacing:0px;text-anchor:middle;fill:#000000;fill-opacity:1;stroke:none"
       x="-1600.4883"
       y="1846.2954"
       id="text892"><tspan
         sodipodi:role="line"
         id="tspan890"
         x="-1600.4883"
         y="1846.2954">https://external-preview.redd.it/GoZ3pJMspa1W9upuy7yjN4KZG8Gk7aGRrk0IHmaKkzQ.jpg?auto=webp&amp;s=70dd52b9d26b4f898f6933a90fe8a3faaaa15922</tspan></text>
    <text
       xml:space="preserve"
       style="font-style:normal;font-weight:normal;font-size:25.52668571px;line-height:1.25;font-family:sans-serif;text-align:center;letter-spacing:0px;word-spacing:0px;text-anchor:middle;fill:#000000;fill-opacity:1;stroke:none;stroke-width:0.63816714"
       x="1008.014"
       y="862.63818"
       id="text896"><tspan
         sodipodi:role="line"
         id="tspan894"
         x="1008.014"
         y="862.63818"
         style="font-style:normal;font-variant:normal;font-weight:normal;font-stretch:normal;font-family:Ubuntu;-inkscape-font-specification:Ubuntu;stroke-width:0.63816714">The Happiness Solution Company</tspan></text>
    <text
       xml:space="preserve"
       style="font-style:normal;font-weight:normal;font-size:40px;line-height:1.25;font-family:sans-serif;text-align:center;letter-spacing:0px;word-spacing:0px;text-anchor:middle;fill:#000000;fill-opacity:1;stroke:none"
       x="1023.7719"
       y="1610.1733"
       id="text900"><tspan
         sodipodi:role="line"
         id="tspan898"
         x="1023.7719"
         y="1610.1733"
         style="font-style:normal;font-variant:normal;font-weight:normal;font-stretch:normal;font-family:Ubuntu;-inkscape-font-specification:Ubuntu">© Sarah's Mood Positive Alliance</tspan><tspan
         sodipodi:role="line"
         x="1023.7719"
         y="1660.9799"
         id="tspan902"
         style="font-style:normal;font-variant:normal;font-weight:normal;font-stretch:normal;font-family:Ubuntu;-inkscape-font-specification:Ubuntu">© Perkedel Technologies</tspan><tspan
         sodipodi:role="line"
         x="1023.7719"
         y="1711.7863"
         style="font-style:normal;font-variant:normal;font-weight:normal;font-stretch:normal;font-family:Ubuntu;-inkscape-font-specification:Ubuntu"
         id="tspan962">CC4.0-BY-SA</tspan><tspan
         sodipodi:role="line"
         x="1023.7719"
         y="1762.5928"
         id="tspan904"
         style="font-style:normal;font-variant:normal;font-weight:normal;font-stretch:normal;font-family:Ubuntu;-inkscape-font-specification:Ubuntu">Some Rights Reserved</tspan></text>
    <text
       xml:space="preserve"
       style="font-style:normal;font-weight:normal;font-size:40px;line-height:1.25;font-family:sans-serif;text-align:center;letter-spacing:0px;word-spacing:0px;text-anchor:middle;fill:#000000;fill-opacity:1;stroke:none"
       x="400"
       y="1979.1333"
       id="text908"><tspan
         sodipodi:role="line"
         id="tspan906"
         x="400"
         y="1979.1333">fake registered trademark</tspan><tspan
         sodipodi:role="line"
         x="400"
         y="2029.1333"
         id="tspan910" /></text>
    <path
       style="fill:none;stroke:#000000;stroke-width:10;stroke-linecap:round;stroke-linejoin:round;stroke-opacity:1;stroke-miterlimit:4;stroke-dasharray:none"
       d="m 2176,-244.86667 h 128 -64 v 128"
       id="path912"
       inkscape:connector-curvature="0" />
    <path
       style="fill:none;stroke:#000000;stroke-width:10;stroke-linecap:round;stroke-linejoin:round;stroke-opacity:1;stroke-miterlimit:4;stroke-dasharray:none"
       d="m 2432,-116.86667 v -128 l 64,64 64,-64 v 128"
       id="path914"
       inkscape:connector-curvature="0" />
    <g
       id="g922">
      <path
         style="fill:none;stroke:#000000;stroke-width:10;stroke-linecap:round;stroke-linejoin:round;stroke-miterlimit:4;stroke-dasharray:none;stroke-opacity:1"
         d="m 2176,11.13333 h 128 -64 v 128"
         id="path916"
         inkscape:connector-curvature="0" />
      <path
         style="fill:none;stroke:#000000;stroke-width:10;stroke-linecap:round;stroke-linejoin:round;stroke-miterlimit:4;stroke-dasharray:none;stroke-opacity:1"
         d="m 2332,139.13333 v -128 l 64,64 64,-64 v 128"
         id="path918"
         inkscape:connector-curvature="0" />
    </g>
    <g
       transform="matrix(0.18047031,0,0,0.18047031,1999.5931,781.57399)"
       id="g934">
      <path
         style="fill:none;stroke:#000000;stroke-width:10;stroke-linecap:round;stroke-linejoin:round;stroke-miterlimit:4;stroke-dasharray:none;stroke-opacity:1"
         d="m 2176,11.13333 h 128 -64 v 128"
         id="path930"
         inkscape:connector-curvature="0" />
      <path
         style="fill:none;stroke:#000000;stroke-width:10;stroke-linecap:round;stroke-linejoin:round;stroke-miterlimit:4;stroke-dasharray:none;stroke-opacity:1"
         d="m 2332,139.13333 v -128 l 64,64 64,-64 v 128"
         id="path932"
         inkscape:connector-curvature="0" />
    </g>
    <g
       id="g942">
      <path
         inkscape:connector-curvature="0"
         id="path936"
         d="m 2176,523.13333 v -256 h 192 32 c 0,0 32,0 32,32 0,32 0,64 0,64 0,0 0,32 -32,32 -32,0 -96,0 -96,0 l 128,128 -128,-128 h -64 -64"
         style="fill:none;stroke:#000000;stroke-width:10;stroke-linecap:round;stroke-linejoin:round;stroke-opacity:1;stroke-miterlimit:4;stroke-dasharray:none" />
      <circle
         r="224"
         cy="395.13333"
         cx="2304"
         id="path938"
         style="fill:none;fill-opacity:1;stroke:#000000;stroke-width:10;stroke-linecap:round;stroke-linejoin:round;stroke-miterlimit:4;stroke-dasharray:none;stroke-dashoffset:25;stroke-opacity:1" />
    </g>
    <g
       id="g948"
       transform="matrix(0.13973796,0,0,0.13973796,1854.0438,723.91821)">
      <path
         style="fill:none;stroke:#000000;stroke-width:10;stroke-linecap:round;stroke-linejoin:round;stroke-miterlimit:4;stroke-dasharray:none;stroke-opacity:1"
         d="m 2176,523.13333 v -256 h 192 32 c 0,0 32,0 32,32 0,32 0,64 0,64 0,0 0,32 -32,32 -32,0 -96,0 -96,0 l 128,128 -128,-128 h -64 -64"
         id="path944"
         inkscape:connector-curvature="0" />
      <circle
         style="fill:none;fill-opacity:1;stroke:#000000;stroke-width:10;stroke-linecap:round;stroke-linejoin:round;stroke-miterlimit:4;stroke-dasharray:none;stroke-dashoffset:25;stroke-opacity:1"
         id="circle946"
         cx="2304"
         cy="395.13333"
         r="224" />
    </g>
    <g
       id="g973">
      <g
         id="g968">
        <circle
           style="fill:#ffffff;fill-opacity:1;stroke:#000000;stroke-width:0.69869;stroke-linecap:round;stroke-linejoin:round;stroke-miterlimit:4;stroke-dasharray:none;stroke-dashoffset:25;stroke-opacity:1"
           id="circle952"
           cx="1296"
           cy="747.1333"
           r="15.650656" />
        <path
           style="fill:#ffffff;fill-opacity:1;stroke:#000000;stroke-width:0.69869;stroke-linecap:round;stroke-linejoin:round;stroke-miterlimit:4;stroke-dasharray:none;stroke-opacity:1"
           d="M 1287.0567,756.07656 V 738.1901 h 13.4149 2.2358 c 0,0 2.2358,0 2.2358,2.23581 0,2.2358 0,4.47161 0,4.47161 0,0 0,2.23581 -2.2358,2.23581 -2.2358,0 -6.7074,0 -6.7074,0 l 8.9432,8.94323 -8.9432,-8.94323 h -4.4716 -4.4717"
           id="path950"
           inkscape:connector-curvature="0" />
      </g>
    </g>
    <g
       id="g981"
       transform="translate(496,-224)">
      <g
         id="g979">
        <circle
           r="15.650656"
           cy="747.1333"
           cx="1296"
           id="circle975"
           style="fill:#ffffff;fill-opacity:1;stroke:#000000;stroke-width:0.69869;stroke-linecap:round;stroke-linejoin:round;stroke-miterlimit:4;stroke-dasharray:none;stroke-dashoffset:25;stroke-opacity:1" />
        <path
           inkscape:connector-curvature="0"
           id="path977"
           d="M 1287.0567,756.07656 V 738.1901 h 13.4149 2.2358 c 0,0 2.2358,0 2.2358,2.23581 0,2.2358 0,4.47161 0,4.47161 0,0 0,2.23581 -2.2358,2.23581 -2.2358,0 -6.7074,0 -6.7074,0 l 8.9432,8.94323 -8.9432,-8.94323 h -4.4716 -4.4717"
           style="fill:#ffffff;fill-opacity:1;stroke:#000000;stroke-width:0.69869;stroke-linecap:round;stroke-linejoin:round;stroke-miterlimit:4;stroke-dasharray:none;stroke-opacity:1" />
      </g>
    </g>
  </g>
  <g
     inkscape:groupmode="layer"
     id="layer2"
     inkscape:label="TexteFact"
     style="display:inline"
     sodipodi:insensitive="true">
    <text
       transform="translate(0,244.86667)"
       xml:space="preserve"
       style="font-style:normal;font-weight:normal;font-size:40px;line-height:1.25;font-family:sans-serif;text-align:end;letter-spacing:0px;word-spacing:0px;text-anchor:end;fill:#000000;fill-opacity:1;stroke:none"
       x="2031.735"
       y="1187.9653"
       id="text985"><tspan
         sodipodi:role="line"
         id="tspan983"
         x="2039.11"
         y="1187.9653"
         style="font-style:normal;font-variant:normal;font-weight:normal;font-stretch:normal;font-size:32px;font-family:Ubuntu;-inkscape-font-specification:'Ubuntu, Normal';font-variant-ligatures:normal;font-variant-caps:normal;font-variant-numeric:normal;font-feature-settings:normal;text-align:end;writing-mode:lr-tb;text-anchor:end">Since 1919, Sosig has served over trillions of </tspan><tspan
         sodipodi:role="line"
         x="2039.11"
         y="1237.9653"
         style="font-style:normal;font-variant:normal;font-weight:normal;font-stretch:normal;font-size:32px;font-family:Ubuntu;-inkscape-font-specification:'Ubuntu, Normal';font-variant-ligatures:normal;font-variant-caps:normal;font-variant-numeric:normal;font-feature-settings:normal;text-align:end;writing-mode:lr-tb;text-anchor:end"
         id="tspan987">SADD children all around the world </tspan><tspan
         sodipodi:role="line"
         x="2031.735"
         y="1287.9653"
         style="font-style:normal;font-variant:normal;font-weight:normal;font-stretch:normal;font-size:32px;font-family:Ubuntu;-inkscape-font-specification:'Ubuntu, Normal';font-variant-ligatures:normal;font-variant-caps:normal;font-variant-numeric:normal;font-feature-settings:normal;text-align:end;writing-mode:lr-tb;text-anchor:end"
         id="tspan989">by giving them SOSIG to invert their frown into smile.</tspan><tspan
         sodipodi:role="line"
         x="2031.735"
         y="1337.9653"
         style="font-style:normal;font-variant:normal;font-weight:normal;font-stretch:normal;font-size:32px;font-family:Ubuntu;-inkscape-font-specification:'Ubuntu, Normal';font-variant-ligatures:normal;font-variant-caps:normal;font-variant-numeric:normal;font-feature-settings:normal;text-align:end;writing-mode:lr-tb;text-anchor:end"
         id="tspan991">SOSIG is a generation by generation company whose leadership</tspan><tspan
         sodipodi:role="line"
         x="2031.735"
         y="1387.9653"
         style="font-style:normal;font-variant:normal;font-weight:normal;font-stretch:normal;font-size:32px;font-family:Ubuntu;-inkscape-font-specification:'Ubuntu, Normal';font-variant-ligatures:normal;font-variant-caps:normal;font-variant-numeric:normal;font-feature-settings:normal;text-align:end;writing-mode:lr-tb;text-anchor:end"
         id="tspan993">has been handed over child by child.</tspan><tspan
         sodipodi:role="line"
         x="2031.735"
         y="1437.9653"
         style="font-style:normal;font-variant:normal;font-weight:normal;font-stretch:normal;font-size:32px;font-family:Ubuntu;-inkscape-font-specification:'Ubuntu, Normal';font-variant-ligatures:normal;font-variant-caps:normal;font-variant-numeric:normal;font-feature-settings:normal;text-align:end;writing-mode:lr-tb;text-anchor:end"
         id="tspan995">SOSIG as of 2019 annual report now has over 50k branches in</tspan><tspan
         sodipodi:role="line"
         x="2031.735"
         y="1487.9653"
         style="font-style:normal;font-variant:normal;font-weight:normal;font-stretch:normal;font-size:32px;font-family:Ubuntu;-inkscape-font-specification:'Ubuntu, Normal';font-variant-ligatures:normal;font-variant-caps:normal;font-variant-numeric:normal;font-feature-settings:normal;text-align:end;writing-mode:lr-tb;text-anchor:end"
         id="tspan997">123 different countries</tspan></text>
  </g>
</svg>
