<?xml version="1.0" encoding="utf-8"?>
<!-- Generator: Adobe Illustrator 14.0.0, SVG Export Plug-In . SVG Version: 6.00 Build 43363)  -->
<!DOCTYPE svg PUBLIC "-//W3C//DTD SVG 1.1//EN" "http://www.w3.org/Graphics/SVG/1.1/DTD/svg11.dtd">
<svg version="1.1" id="Layer_1" xmlns="http://www.w3.org/2000/svg" xmlns:xlink="http://www.w3.org/1999/xlink" x="0px" y="0px"
	 width="602.736px" height="200.706px" viewBox="0 0 602.736 200.706" enable-background="new 0 0 602.736 200.706"
	 xml:space="preserve">
<g>
	<rect x="-0.211" y="0.522" fill="#FFFFFF" width="601.924" height="200.842"/>
	<g>
		<rect x="36.617" y="147.547" fill="#ED9A22" width="9.67" height="48.766"/>
		<rect x="4.422" y="147.547" fill="#ED9A22" width="13.471" height="48.766"/>
	</g>
	<g>
		<polygon fill="#AF2D23" points="97.375,196.313 75.297,168.916 75.297,196.313 		"/>
		<polygon fill="#AF2D23" points="76.683,147.547 98.107,174.191 98.107,147.547 		"/>
		<rect x="115.849" y="147.547" fill="#AF2D23" width="8.662" height="48.766"/>
		<rect x="46.288" y="147.547" fill="#AF2D23" width="11.31" height="48.766"/>
	</g>
	<g>
		<polygon fill="#ED9A22" points="300.541,147.547 322.469,174.191 322.469,147.547 		"/>
		<polygon fill="#ED9A22" points="321.72,196.313 299.123,168.916 299.123,196.313 		"/>
		<rect x="340.627" y="147.547" fill="#ED9A22" width="9.596" height="48.766"/>
		<rect x="272" y="147.547" fill="#ED9A22" width="9.007" height="48.766"/>
	</g>
	<g>
		<rect x="483.979" y="147.547" fill="#3777BC" width="7.999" height="48.766"/>
		<rect x="511.284" y="147.547" fill="#3777BC" width="7.925" height="48.766"/>
	</g>
	<g>
		<rect x="350.223" y="147.547" fill="#3777BC" width="7.001" height="48.766"/>
		<polygon fill="#3777BC" points="410.831,147.547 410.831,156.676 377.271,156.676 377.271,164.87 408.401,164.87 408.401,175.384 
			377.271,175.384 377.271,185.547 411.802,185.547 411.802,196.313 415.906,196.313 415.906,147.547 		"/>
	</g>
	<g>
		<path fill="#ED9A22" d="M428.427,193.038c-4.211-3.376-6.595-7.666-7.15-12.871l18.906-0.95c0.409,2.462,1.242,4.337,2.5,5.626
			c2.047,2.087,4.971,3.13,8.773,3.13c2.836,0,5.022-0.533,6.558-1.6c1.535-1.066,2.303-2.303,2.303-3.71
			c0-1.336-0.731-2.532-2.193-3.587c-1.463-1.055-4.854-2.051-10.177-2.989c-8.715-1.571-14.929-3.657-18.643-6.26
			c-3.743-2.602-5.614-5.919-5.614-9.952c0-2.649,0.957-5.152,2.873-7.508c1.59-1.957,3.856-3.56,6.778-4.821h-17.435v48.766h19.335
			C432.417,195.499,430.139,194.411,428.427,193.038z"/>
		<path fill="#ED9A22" d="M467.96,147.547c0.651,0.285,1.273,0.588,1.854,0.918c4.313,2.45,6.879,6.347,7.698,11.692l-18.73,0.879
			c-0.498-2.321-1.543-4.009-3.137-5.063c-1.594-1.055-3.794-1.583-6.602-1.583c-2.311,0-4.051,0.393-5.22,1.178
			c-1.17,0.786-1.755,1.741-1.755,2.866c0,0.821,0.482,1.56,1.447,2.215c0.936,0.68,3.159,1.313,6.668,1.899
			c8.686,1.5,14.906,3.019,18.664,4.554c3.758,1.536,6.492,3.44,8.203,5.714s2.566,4.817,2.566,7.631
			c0,3.306-1.141,6.354-3.422,9.143c-2.281,2.79-5.469,4.906-9.563,6.347c-0.379,0.133-0.776,0.254-1.173,0.375h18.519v-48.766
			H467.96z"/>
	</g>
	<g>
		<polygon fill="#ED9A22" points="543.918,196.313 572.15,196.313 569.276,188.712 546.717,188.712 		"/>
		<polygon fill="#ED9A22" points="551.033,177.564 565.154,177.564 558.057,159.032 		"/>
		<polygon fill="#ED9A22" points="546.582,147.547 519.209,147.547 519.209,196.313 523.72,196.313 		"/>
		<polygon fill="#ED9A22" points="570.018,147.547 592.876,196.313 596.545,196.313 596.545,147.547 		"/>
	</g>
	<g>
		<rect x="124.511" y="147.547" fill="#ED9A22" width="9.505" height="48.766"/>
		<path fill="#ED9A22" d="M167.652,160.369c-2.083-2.016-5.538-3.024-10.362-3.024h-4.647v28.168h4.564
			c3.893,0,6.662-0.37,8.306-1.108c1.645-0.738,2.933-2.027,3.865-3.868c0.932-1.84,1.398-4.823,1.398-8.95
			C170.778,166.125,169.735,162.385,167.652,160.369z"/>
		<path fill="#ED9A22" d="M174.849,147.547c0.02,0.007,0.042,0.014,0.062,0.021c3.358,1.266,6.133,3.083,8.327,5.451
			c2.193,2.368,3.783,5.123,4.77,8.264c0.987,3.142,1.48,6.471,1.48,9.987c0,5.509-0.734,9.782-2.2,12.818
			c-1.467,3.036-3.502,5.58-6.106,7.631c-2.605,2.052-5.401,3.417-8.389,4.097c-0.826,0.19-1.626,0.347-2.42,0.498h25.196v-48.766
			H174.849z"/>
	</g>
	<g>
		<path fill="#AF2D23" d="M234.848,156.852c-3.952,0-7.124,1.137-9.517,3.411c-2.394,2.274-3.59,6.037-3.59,11.288
			c0,5.205,1.189,8.944,3.569,11.218c2.379,2.274,5.616,3.411,9.712,3.411c4.21,0,7.469-1.113,9.776-3.341
			c2.307-2.227,3.461-6.224,3.461-11.991c0-4.853-1.205-8.398-3.612-10.638C242.238,157.972,238.972,156.852,234.848,156.852z"/>
		<path fill="#AF2D23" d="M217.912,195.323c-4.687-1.852-8.486-4.783-11.399-8.792c-2.914-4.009-4.37-9.025-4.37-15.051
			c0-8.416,2.884-14.968,8.652-19.658c2.157-1.753,4.632-3.178,7.422-4.276h-22.649v48.766h25.319
			C219.851,196.017,218.85,195.694,217.912,195.323z"/>
		<path fill="#AF2D23" d="M251.984,147.547c2.763,1.072,5.2,2.455,7.305,4.153c5.71,4.607,8.565,11.06,8.565,19.359
			c0,6.025-1.248,10.966-3.742,14.822c-2.495,3.856-6.1,6.857-10.815,9.002c-1.202,0.547-2.482,1.022-3.835,1.43H272v-48.766
			H251.984z"/>
	</g>
	<g>
		<path fill="#CB202C" d="M434.745,52.338c-4.115-14.855,1.483-34.314,12.425-46.748h-22.631v131.437h60.915
			C470.729,115.704,439.397,69.129,434.745,52.338z"/>
		<path fill="#CB202C" d="M499.755,5.59c9.056,6.874,15.355,14.09,15.355,14.09s33.875-18.746,53.607-7.235
			s23.351,47.03,10.195,65.776c-9.536,13.589-49.138,43.419-70.208,58.806h88.083V5.59H499.755z"/>
	</g>
	<g>
		<path fill="#3777BC" d="M180.78,5.708c6.715,2.232,12.194,5.135,16.436,8.711c4.241,3.577,7.583,7.336,10.02,11.279
			c2.439,3.943,4.401,8.544,5.887,13.801c0.608,2.104,1.137,4.23,1.618,6.372c2.491-12.405,7.065-21.805,13.727-28.196
			c5.763-5.53,13.174-9.549,22.205-12.084h-70.282C180.516,5.631,180.654,5.666,180.78,5.708z"/>
		<path fill="#3777BC" d="M224.383,120.101c-3.748-4.952-6.664-11.722-8.748-20.311c-0.195-0.802-0.371-1.62-0.548-2.438
			c-2.303,11.316-6.271,20.349-11.933,27.059c-4.715,5.588-11.119,9.79-19.199,12.617h62.861c-0.893-0.336-1.765-0.688-2.604-1.063
			C236.153,132.358,229.542,127.07,224.383,120.101z"/>
		<path fill="#3777BC" d="M275.598,27.211c-7.141,0-12.299,3.134-15.48,9.399c-3.182,6.267-4.771,17.867-4.771,34.799
			c0,17.118,1.749,28.809,5.249,35.075c3.5,6.267,8.571,9.399,15.216,9.399c4.382,0,8.181-1.33,11.398-3.989
			c3.216-2.66,5.583-6.862,7.104-12.608c1.519-5.746,2.279-14.702,2.279-26.868c0-17.85-1.749-29.847-5.248-35.991
			C287.845,30.283,282.597,27.211,275.598,27.211z"/>
		<path fill="#3777BC" d="M124.747,137.027c-0.893-0.336-1.765-0.688-2.604-1.063c-8.059-3.606-14.67-8.895-19.829-15.864
			c-3.748-4.952-6.664-11.722-8.748-20.311c-0.181-0.747-0.345-1.51-0.51-2.271v39.508H124.747z"/>
		<path fill="#3777BC" d="M50.229,49.494C43.298,54.14,36.593,57.9,30.115,60.772c-3.274,1.452-6.97,2.872-11.083,4.261V34.041
			c8.195-3.101,14.961-6.568,20.283-10.406C46.244,18.639,51.86,12.622,56.171,5.59H4.422v131.437h45.807V49.494z"/>
		<path fill="#3777BC" d="M302.458,5.59c0.127,0.041,0.265,0.076,0.391,0.118c6.715,2.232,12.194,5.135,16.436,8.711
			c4.241,3.577,7.583,7.336,10.02,11.279c0.905,1.464,1.745,3.02,2.519,4.665c0-0.029-0.002-0.057-0.002-0.086
			c0-3.29,0.683-6.418,2.049-9.386c1.365-2.967,3.453-5.25,6.262-6.846s6.131-2.395,9.969-2.395c5.647,0,10.099,1.693,13.353,5.08
			c3.253,3.387,4.881,7.903,4.881,13.547c0,5.677-1.628,10.208-4.881,13.595c-3.254,3.387-7.705,5.08-13.353,5.08
			c-3.838,0-7.16-0.798-9.969-2.395c-1.511-0.858-2.805-1.922-3.898-3.177c2.202,8.835,3.305,17.995,3.305,27.479
			c0,24.392-4.772,42.243-14.314,53.551c-4.715,5.588-11.119,9.79-19.199,12.617h118.516V5.59H302.458z M350.237,87.416
			l38.891-75.767h9.731l-38.995,75.767H350.237z M412.12,82.215c-3.254,3.402-7.721,5.104-13.398,5.104
			c-3.807,0-7.122-0.807-9.946-2.419s-4.911-3.895-6.262-6.846s-2.025-6.088-2.025-9.41c0-3.322,0.675-6.459,2.025-9.411
			c1.351-2.951,3.438-5.233,6.262-6.846c2.824-1.612,6.14-2.419,9.946-2.419c5.678,0,10.145,1.702,13.398,5.104
			c3.253,3.403,4.881,7.927,4.881,13.571C417.001,74.288,415.373,78.812,412.12,82.215z"/>
		<path fill="#3777BC" d="M350.1,40.872c1.534,0,2.686-0.597,3.453-1.791c1.228-1.806,1.842-4.709,1.842-8.708
			c0-3.967-0.614-6.871-1.842-8.709c-0.768-1.161-1.919-1.742-3.453-1.742c-1.535,0-2.702,0.581-3.5,1.742
			c-1.228,1.807-1.842,4.71-1.842,8.709c0,4,0.614,6.903,1.842,8.708C347.397,40.275,348.564,40.872,350.1,40.872z"/>
		<path fill="#3777BC" d="M128.602,5.59H93.056v38.546c2.561-11.54,6.998-20.375,13.341-26.462
			C112.16,12.144,119.571,8.125,128.602,5.59z"/>
		<path fill="#3777BC" d="M398.722,58.241c-1.536,0-2.687,0.597-3.454,1.79c-1.228,1.807-1.842,4.71-1.842,8.709
			c0,4,0.614,6.903,1.842,8.709c0.768,1.161,1.918,1.742,3.454,1.742c1.534,0,2.7-0.581,3.499-1.742
			c1.228-1.806,1.842-4.709,1.842-8.709c0-3.999-0.614-6.919-1.842-8.757C401.422,58.822,400.256,58.241,398.722,58.241z"/>
		<path fill="#3777BC" d="M153.529,27.211c-7.141,0-12.299,3.134-15.48,9.399c-3.182,6.267-4.771,17.867-4.771,34.799
			c0,17.118,1.749,28.809,5.249,35.075c3.5,6.267,8.571,9.399,15.216,9.399c4.382,0,8.181-1.33,11.398-3.989
			c3.216-2.66,5.583-6.862,7.104-12.608c1.519-5.746,2.279-14.702,2.279-26.868c0-17.85-1.749-29.847-5.248-35.991
			C165.776,30.283,160.528,27.211,153.529,27.211z"/>
	</g>
</g>
</svg>
