<?xml version="1.0" encoding="UTF-8"?>
<svg id="Ebene_1" data-name="Ebene 1" xmlns="http://www.w3.org/2000/svg" xmlns:xlink="http://www.w3.org/1999/xlink" viewBox="0 0 283.46 283.46">
  <defs>
    <style>
      .cls-1 {
        fill: #9fafdb;
      }

      .cls-1, .cls-2, .cls-3, .cls-4, .cls-5 {
        stroke-width: 0px;
      }

      .cls-2 {
        fill: none;
      }

      .cls-3 {
        fill: #899bcf;
      }

      .cls-6 {
        filter: url(#drop-shadow-2);
      }

      .cls-7 {
        clip-path: url(#clippath);
      }

      .cls-4 {
        fill: #7888b8;
      }

      .cls-5 {
        fill: #dce3f4;
      }
    </style>
    <clipPath id="clippath">
      <rect class="cls-2" x="0" y="0" width="283.46" height="283.46"/>
    </clipPath>
    <filter id="drop-shadow-2" filterUnits="userSpaceOnUse">
      <feOffset dx="2.83" dy="2.83"/>
      <feGaussianBlur result="blur" stdDeviation="0"/>
      <feFlood flood-color="#1d1d1b" flood-opacity=".75"/>
      <feComposite in2="blur" operator="in"/>
      <feComposite in="SourceGraphic"/>
    </filter>
  </defs>
  <g class="cls-7">
    <rect class="cls-3" x="22.37" y="90.13" width="182.48" height="170.96"/>
    <polygon class="cls-4" points="261.1 193.33 204.85 261.1 204.85 90.13 261.1 22.37 261.1 193.33"/>
    <polygon class="cls-1" points="261.1 22.37 78.62 22.37 22.37 90.13 204.85 90.13 261.1 22.37"/>
  </g>
  <g class="cls-6">
    <path class="cls-5" d="m45.67,194.64v-25.59c4.64,3.89,9.68,6.81,15.12,8.76,5.44,1.95,10.93,2.92,16.48,2.92,3.25,0,6.09-.29,8.52-.88,2.43-.59,4.45-1.4,6.08-2.44,1.63-1.04,2.84-2.27,3.64-3.68.8-1.41,1.2-2.95,1.2-4.6,0-2.24-.64-4.24-1.92-6-1.28-1.76-3.03-3.39-5.24-4.88-2.21-1.49-4.84-2.93-7.88-4.32-3.04-1.39-6.32-2.8-9.84-4.24-8.96-3.73-15.64-8.29-20.04-13.68-4.4-5.39-6.6-11.89-6.6-19.52,0-5.97,1.2-11.1,3.6-15.4,2.4-4.29,5.67-7.83,9.8-10.6,4.13-2.77,8.92-4.81,14.36-6.12,5.44-1.31,11.2-1.96,17.28-1.96s11.26.36,15.88,1.08c4.61.72,8.86,1.83,12.76,3.32v23.92c-1.92-1.33-4.01-2.51-6.28-3.52-2.27-1.01-4.6-1.85-7-2.52-2.4-.67-4.79-1.16-7.16-1.48-2.37-.32-4.63-.48-6.76-.48-2.93,0-5.6.28-8,.84s-4.43,1.35-6.08,2.36c-1.65,1.01-2.93,2.23-3.84,3.64-.91,1.41-1.36,3-1.36,4.76,0,1.92.51,3.64,1.52,5.16,1.01,1.52,2.45,2.96,4.32,4.32,1.87,1.36,4.13,2.69,6.8,4,2.67,1.31,5.68,2.65,9.04,4.04,4.59,1.92,8.7,3.96,12.36,6.12,3.65,2.16,6.79,4.6,9.4,7.32,2.61,2.72,4.61,5.83,6,9.32,1.39,3.49,2.08,7.56,2.08,12.2,0,6.4-1.21,11.77-3.64,16.12-2.43,4.35-5.72,7.87-9.88,10.56-4.16,2.69-9,4.63-14.52,5.8s-11.35,1.76-17.48,1.76-12.28-.53-17.96-1.6c-5.68-1.07-10.6-2.67-14.76-4.8Z"/>
    <path class="cls-5" d="m238.28,84.34l-39.51,114.7h-29.28l-39.03-114.7h27.84l23.92,79.83c1.28,4.32,2.05,8.13,2.32,11.44h.48c.37-3.57,1.2-7.49,2.48-11.76l23.76-79.51h27.04Z"/>
  </g>
</svg>