<?xml version="1.0" encoding="UTF-8" standalone="no"?>
<svg
   height="16"
   viewBox="0 0 16 16"
   width="16"
   version="1.1"
   id="svg4"
   sodipodi:docname="icon.svg"
   xml:space="preserve"
   xmlns:inkscape="http://www.inkscape.org/namespaces/inkscape"
   xmlns:sodipodi="http://sodipodi.sourceforge.net/DTD/sodipodi-0.dtd"
   xmlns="http://www.w3.org/2000/svg"
   xmlns:svg="http://www.w3.org/2000/svg"><defs
     id="defs8"><inkscape:path-effect
       effect="powermask"
       id="path-effect450"
       is_visible="true"
       lpeversion="1"
       uri="#mask-powermask-path-effect450"
       invert="false"
       hide_mask="false"
       background="true"
       background_color="#ffffffff" /><mask
       maskUnits="userSpaceOnUse"
       id="mask-powermask-path-effect450"><path
         id="mask-powermask-path-effect450_box"
         style="fill:#ffffff;fill-opacity:1"
         d="M 0.99998733,0 H 14.999992 V 16.000127 H 0.99998733 Z" /><path
         style="fill:#000000;stroke-width:0.0140519"
         d="m 9.9110588,14.627574 c -0.02705,-0.0085 -0.081013,-0.0474 -0.1199172,-0.08639 -0.099192,-0.09941 -0.1265873,-0.204006 -0.088064,-0.336244 0.013141,-0.04511 0.05982,-0.101645 0.2121236,-0.256913 l 0.1952748,-0.199074 -0.5388306,-0.006 C 9.0755712,13.737483 9.0234899,13.73459 8.9152977,13.70652 8.3869987,13.569454 7.9626603,13.199823 7.6968048,12.645119 7.6032635,12.449946 7.5506993,12.293088 7.488909,12.024733 7.4622833,11.909098 7.4211659,11.761702 7.3975369,11.697188 7.2480166,11.288951 6.9669902,10.980906 6.6369654,10.863493 c -0.090224,-0.0321 -0.1008453,-0.03258 -0.871218,-0.03959 -0.880131,-0.008 -0.835337,-0.0023 -0.9393736,-0.120458 -0.081898,-0.09304 -0.1049996,-0.199882 -0.069327,-0.320619 0.024045,-0.08138 0.1395191,-0.194604 0.2218994,-0.217572 0.048472,-0.01351 0.2463727,-0.01641 0.8431141,-0.01234 0.7409331,0.0051 0.7854287,0.0068 0.8932797,0.03521 0.5320274,0.140093 0.9416316,0.491299 1.2084776,1.036182 0.1064256,0.217315 0.1568492,0.364302 0.2219236,0.64692 0.026626,0.115635 0.067743,0.26303 0.091372,0.327545 0.1495507,0.40832 0.4311588,0.71694 0.7605715,0.833526 0.087805,0.03108 0.11117,0.03251 0.6041602,0.03704 l 0.5128231,0.0047 -0.1973711,-0.201202 c -0.1541276,-0.15712 -0.2010621,-0.213874 -0.2142197,-0.25904 -0.03851,-0.132192 -0.011131,-0.236775 0.088064,-0.336393 0.1066503,-0.107106 0.2436198,-0.133199 0.3741208,-0.07127 0.02785,0.01322 0.269711,0.245032 0.555593,0.532518 0.540542,0.543578 0.539394,0.542131 0.539049,0.679366 -3.03e-4,0.120446 -0.03813,0.166502 -0.570894,0.695042 -0.425072,0.421703 -0.512991,0.502522 -0.561777,0.516407 -0.0696,0.01981 -0.1495087,0.0191 -0.2161746,-0.0019 z m -4.9462699,-0.89889 c -0.02705,-0.0088 -0.081013,-0.04783 -0.1199173,-0.08682 -0.099311,-0.09952 -0.1267388,-0.204536 -0.087824,-0.336244 0.022805,-0.07719 0.1392132,-0.193593 0.216398,-0.216398 0.042037,-0.01242 0.2531752,-0.01716 0.7728547,-0.01733 0.7971211,-2.72e-4 0.8317194,-0.0034 1.0100491,-0.09152 0.1942991,-0.096 0.381763,-0.282534 0.5144931,-0.511927 l 0.064775,-0.111948 0.053019,0.143529 c 0.059019,0.159771 0.1468963,0.341792 0.2326654,0.481922 l 0.056724,0.09268 -0.093278,0.104221 c -0.2299746,0.256956 -0.5297982,0.439907 -0.8653949,0.528059 -0.1134968,0.02981 -0.1446786,0.03098 -0.9114497,0.03429 -0.5621213,0.0024 -0.8082925,-0.0012 -0.8431142,-0.01251 z m 4.9462699,-2.023905 c -0.02705,-0.0085 -0.081013,-0.0474 -0.1199172,-0.08639 -0.099192,-0.09941 -0.1265873,-0.204006 -0.088064,-0.336244 0.01315,-0.04514 0.059969,-0.101796 0.2132715,-0.258078 l 0.1964229,-0.200239 -0.4697194,2.44e-4 c -0.5289319,2.76e-4 -0.5964306,0.0084 -0.764751,0.09152 -0.1943796,0.09604 -0.3817641,0.282533 -0.5146343,0.512172 L 8.2987516,11.53996 8.2534661,11.413362 C 8.2004626,11.265187 8.0988214,11.053345 8.0155216,10.917435 l -0.058896,-0.09609 0.093278,-0.104221 c 0.2302417,-0.257254 0.5317937,-0.441128 0.8653949,-0.527679 0.1081922,-0.02807 0.1602735,-0.03096 0.6563477,-0.03646 l 0.5388308,-0.006 L 9.9152012,9.9479322 C 9.7628975,9.7926646 9.7162191,9.7361302 9.7030776,9.6910197 9.6645678,9.5588281 9.6919467,9.4542445 9.7911416,9.3546264 9.8977919,9.2475211 10.034761,9.221428 10.165262,9.283355 c 0.02785,0.013216 0.269711,0.2450312 0.555593,0.5325177 0.540542,0.5435773 0.539394,0.5421313 0.539049,0.6793663 -3.03e-4,0.120446 -0.03813,0.166502 -0.570894,0.695041 -0.425072,0.421703 -0.512991,0.502522 -0.561777,0.516408 -0.0696,0.01981 -0.1495083,0.0191 -0.2161742,-0.0019 z"
         id="path448" /></mask></defs><sodipodi:namedview
     id="namedview6"
     pagecolor="#ffffff"
     bordercolor="#000000"
     borderopacity="0.25"
     inkscape:showpageshadow="2"
     inkscape:pageopacity="0.0"
     inkscape:pagecheckerboard="0"
     inkscape:deskcolor="#d1d1d1"
     showgrid="false" /><path
     d="m 3,1 a 1.0001,1.0001 0 0 0 -0.38672,0.078125 1.0001,1.0001 0 0 0 -0.00195,0 C 2.60905,1.0790795 2.60774,1.081065 2.60547,1.082035 A 1.0001,1.0001 0 0 0 2.29492,1.291015 C 2.29363,1.292295 2.29229,1.293635 2.29101,1.294925 A 1.0001,1.0001 0 0 0 2.08593,1.599615 C 2.08294,1.606465 2.07901,1.612216 2.07616,1.619146 a 1.0001,1.0001 0 0 0 -0.076172,0.38086 c 0,1.5 0.96697,2.6247 1.873,3.6602 0.76081,0.8695 1.4161,1.6425 1.875,2.3398 -0.45889,0.6974 -1.1141,1.4723 -1.875,2.3418 -0.90608,1.035501 -1.873,2.158201 -1.873,3.658201 a 1.0001,1.0001 0 0 0 0.078125,0.38867 v 0.002 c 9.292e-4,0.0022 0.00296,0.0037 0.00391,0.0059 a 1.0001,1.0001 0 0 0 0.20898,0.30664 c 0.00102,10e-4 0.00288,0.0048 0.00391,0.0059 a 1.0001,1.0001 0 0 0 0.30078,0.20312 c 0.00932,0.0041 0.017877,0.0079 0.027344,0.01172 a 1.0001,1.0001 0 0 0 0.37695,0.07617 h 10 a 1.0001,1.0001 0 0 0 0.375,-0.07422 c 0.01017,-0.0041 0.01929,-0.0093 0.0293,-0.01367 a 1.0001,1.0001 0 0 0 0.29297,-0.19922 c 0.0048,-0.0047 0.009,-0.0089 0.01367,-0.01367 a 1.0001,1.0001 0 0 0 0.20117,-0.29492 c 0.0041,-0.0093 0.0079,-0.01788 0.01172,-0.02734 a 1.0001,1.0001 0 0 0 0.07617,-0.37695 c 0,-1.5 -0.96697,-2.6227 -1.873,-3.6582 -0.76087,-0.8695 -1.4161,-1.6444 -1.875,-2.3418 0.4589,-0.6973 1.1142,-1.4703 1.875,-2.3398 0.90608,-1.0355 1.873,-2.1602 1.873,-3.6602 a 1.0001,1.0001 0 0 0 -0.07813,-0.39062 1.0001,1.0001 0 0 0 -0.21484,-0.31641 1.0001,1.0001 0 0 0 -0.31055,-0.21094 1.0001,1.0001 0 0 0 -0.01172,-0.00586 1.0001,1.0001 0 0 0 -0.38477,-0.076172 H 2.9999822 Z m 1.5879,2 h 6.8242 C 11.1743,3.4408 11.1066,3.7892 10.62304,4.3418 9.77912,5.3063 8.72474,6.3141 8.10544,7.5527 A 1.0001,1.0001 0 0 0 7.99997,7.99997 1.0001,1.0001 0 0 0 7.8945,7.5527 C 7.27524,6.3141 6.2208,5.3063 5.3769,4.3418 4.89334,3.7892 4.82564,3.4408 4.58784,3 Z"
     fill="#e0e0e0"
     id="path2"
     mask="url(#mask-powermask-path-effect450)"
     inkscape:path-effect="#path-effect450"
     inkscape:original-d="m 3,1 a 1.0001,1.0001 0 0 0 -0.38672,0.078125 1.0001,1.0001 0 0 0 -0.00195,0 C 2.60905,1.0790795 2.60774,1.081065 2.60547,1.082035 A 1.0001,1.0001 0 0 0 2.29492,1.291015 C 2.29363,1.292295 2.29229,1.293635 2.29101,1.294925 A 1.0001,1.0001 0 0 0 2.08593,1.599615 C 2.08294,1.606465 2.07901,1.612216 2.07616,1.619146 a 1.0001,1.0001 0 0 0 -0.076172,0.38086 c 0,1.5 0.96697,2.6247 1.873,3.6602 0.76081,0.8695 1.4161,1.6425 1.875,2.3398 -0.45889,0.6974 -1.1141,1.4723 -1.875,2.3418 -0.90608,1.035501 -1.873,2.158201 -1.873,3.658201 a 1.0001,1.0001 0 0 0 0.078125,0.38867 v 0.002 c 9.292e-4,0.0022 0.00296,0.0037 0.00391,0.0059 a 1.0001,1.0001 0 0 0 0.20898,0.30664 c 0.00102,10e-4 0.00288,0.0048 0.00391,0.0059 a 1.0001,1.0001 0 0 0 0.30078,0.20312 c 0.00932,0.0041 0.017877,0.0079 0.027344,0.01172 a 1.0001,1.0001 0 0 0 0.37695,0.07617 h 10 a 1.0001,1.0001 0 0 0 0.375,-0.07422 c 0.01017,-0.0041 0.01929,-0.0093 0.0293,-0.01367 a 1.0001,1.0001 0 0 0 0.29297,-0.19922 c 0.0048,-0.0047 0.009,-0.0089 0.01367,-0.01367 a 1.0001,1.0001 0 0 0 0.20117,-0.29492 c 0.0041,-0.0093 0.0079,-0.01788 0.01172,-0.02734 a 1.0001,1.0001 0 0 0 0.07617,-0.37695 c 0,-1.5 -0.96697,-2.6227 -1.873,-3.6582 -0.76087,-0.8695 -1.4161,-1.6444 -1.875,-2.3418 0.4589,-0.6973 1.1142,-1.4703 1.875,-2.3398 0.90608,-1.0355 1.873,-2.1602 1.873,-3.6602 a 1.0001,1.0001 0 0 0 -0.07813,-0.39062 1.0001,1.0001 0 0 0 -0.21484,-0.31641 1.0001,1.0001 0 0 0 -0.31055,-0.21094 1.0001,1.0001 0 0 0 -0.01172,-0.00586 1.0001,1.0001 0 0 0 -0.38477,-0.076172 H 2.9999822 Z m 1.5879,2 h 6.8242 C 11.1743,3.4408 11.1066,3.7892 10.62304,4.3418 9.77912,5.3063 8.72474,6.3141 8.10544,7.5527 A 1.0001,1.0001 0 0 0 7.99997,7.99997 1.0001,1.0001 0 0 0 7.8945,7.5527 C 7.27524,6.3141 6.2208,5.3063 5.3769,4.3418 4.89334,3.7892 4.82564,3.4408 4.58784,3 Z" /></svg>
