{
    "asset" : {
        "generator" : "Khronos glTF Blender I/O v3.4.50",
        "version" : "2.0"
    },
    "scene" : 0,
    "scenes" : [
        {
            "name" : "Scene",
            "nodes" : [
                1
            ]
        }
    ],
    "nodes" : [
        {
            "mesh" : 0,
            "name" : "windturbine_low_fan",
            "translation" : [
                -3.0517578125e-05,
                0.8899917602539062,
                0
            ]
        },
        {
            "children" : [
                0
            ],
            "mesh" : 1,
            "name" : "windturbine_low"
        }
    ],
    "materials" : [
        {
            "name" : "spacebits_texture",
            "pbrMetallicRoughness" : {
                "baseColorTexture" : {
                    "index" : 0
                },
                "metallicFactor" : 0,
                "roughnessFactor" : 0.6000000238418579
            }
        }
    ],
    "meshes" : [
        {
            "name" : "Cylinder.2740",
            "primitives" : [
                {
                    "attributes" : {
                        "POSITION" : 0,
                        "TEXCOORD_0" : 1,
                        "NORMAL" : 2
                    },
                    "indices" : 3,
                    "material" : 0
                }
            ]
        },
        {
            "name" : "Cylinder.2723",
            "primitives" : [
                {
                    "attributes" : {
                        "POSITION" : 4,
                        "TEXCOORD_0" : 5,
                        "NORMAL" : 6
                    },
                    "indices" : 7,
                    "material" : 0
                }
            ]
        }
    ],
    "textures" : [
        {
            "sampler" : 0,
            "source" : 0
        }
    ],
    "images" : [
        {
            "mimeType" : "image/png",
            "name" : "spacebits_texture",
            "uri" : "spacebits_texture.png"
        }
    ],
    "accessors" : [
        {
            "bufferView" : 0,
            "componentType" : 5126,
            "count" : 746,
            "max" : [
                0.4980449676513672,
                0.5749848484992981,
                0.6452035307884216
            ],
            "min" : [
                -0.4980064034461975,
                -0.5750458836555481,
                -0.6452035307884216
            ],
            "type" : "VEC3"
        },
        {
            "bufferView" : 1,
            "componentType" : 5126,
            "count" : 746,
            "type" : "VEC2"
        },
        {
            "bufferView" : 2,
            "componentType" : 5126,
            "count" : 746,
            "type" : "VEC3"
        },
        {
            "bufferView" : 3,
            "componentType" : 5123,
            "count" : 1716,
            "type" : "SCALAR"
        },
        {
            "bufferView" : 4,
            "componentType" : 5126,
            "count" : 478,
            "max" : [
                0.5717515349388123,
                0.4999985694885254,
                0.571751594543457
            ],
            "min" : [
                -0.5717513561248779,
                0,
                -0.5717513561248779
            ],
            "type" : "VEC3"
        },
        {
            "bufferView" : 5,
            "componentType" : 5126,
            "count" : 478,
            "type" : "VEC2"
        },
        {
            "bufferView" : 6,
            "componentType" : 5126,
            "count" : 478,
            "type" : "VEC3"
        },
        {
            "bufferView" : 7,
            "componentType" : 5123,
            "count" : 762,
            "type" : "SCALAR"
        }
    ],
    "bufferViews" : [
        {
            "buffer" : 0,
            "byteLength" : 8952,
            "byteOffset" : 0,
            "target" : 34962
        },
        {
            "buffer" : 0,
            "byteLength" : 5968,
            "byteOffset" : 8952,
            "target" : 34962
        },
        {
            "buffer" : 0,
            "byteLength" : 8952,
            "byteOffset" : 14920,
            "target" : 34962
        },
        {
            "buffer" : 0,
            "byteLength" : 3432,
            "byteOffset" : 23872,
            "target" : 34963
        },
        {
            "buffer" : 0,
            "byteLength" : 5736,
            "byteOffset" : 27304,
            "target" : 34962
        },
        {
            "buffer" : 0,
            "byteLength" : 3824,
            "byteOffset" : 33040,
            "target" : 34962
        },
        {
            "buffer" : 0,
            "byteLength" : 5736,
            "byteOffset" : 36864,
            "target" : 34962
        },
        {
            "buffer" : 0,
            "byteLength" : 1524,
            "byteOffset" : 42600,
            "target" : 34963
        }
    ],
    "samplers" : [
        {
            "magFilter" : 9729,
            "minFilter" : 9987
        }
    ],
    "buffers" : [
        {
            "byteLength" : 44124,
            "uri" : "windturbine_low.bin"
        }
    ]
}
