# Blender v3.4.1 OBJ File: 'Furniture_export.blend'
# www.blender.org
mtllib book_single.mtl
o book_single_Cube.008
v -0.060000 -0.250000 -0.115147
v -0.060000 0.250000 -0.115147
v 0.060000 -0.250000 -0.115147
v 0.060000 0.250000 -0.115147
v -0.060000 -0.250000 0.187543
v -0.060000 0.250000 0.187543
v 0.060000 -0.250000 0.187543
v 0.060000 0.250000 0.187543
v 0.050000 0.225000 0.160122
v -0.050000 0.225000 0.160122
v -0.050000 -0.225000 0.160122
v 0.050000 -0.225000 0.160122
v -0.050000 -0.225000 -0.105147
v 0.050000 -0.225000 -0.105147
v -0.050000 0.225000 -0.105147
v 0.050000 0.225000 -0.105147
v -0.109503 0.250000 0.187543
v -0.129999 0.230000 0.167543
v -0.129999 -0.230000 0.167543
v -0.109503 -0.250000 0.187543
v 0.109504 -0.250000 0.187543
v 0.130001 -0.230000 0.167543
v 0.130001 0.230000 0.167543
v 0.109504 0.250000 0.187543
v -0.109999 0.230000 -0.177457
v -0.129999 0.230000 -0.157457
v -0.109463 0.250000 -0.159176
v -0.109999 -0.230000 -0.177457
v -0.109463 -0.250000 -0.159176
v -0.129999 -0.230000 -0.157457
v 0.110001 0.230000 -0.177457
v 0.109464 0.250000 -0.159176
v 0.130001 0.230000 -0.157457
v 0.110001 -0.230000 -0.177457
v 0.130001 -0.230000 -0.157457
v 0.109464 -0.250000 -0.159176
vt 0.040307 0.508622
vt 0.040307 0.508622
vt 0.040307 0.511155
vt 0.040307 0.514182
vt 0.040307 0.668164
vt 0.040307 0.668164
vt 0.040307 0.662604
vt 0.040307 0.665631
vt 0.033625 0.683789
vt 0.033625 0.683789
vt 0.031723 0.683789
vt 0.031721 0.683789
vt 0.040307 0.524247
vt 0.040307 0.524247
vt 0.042210 0.524247
vt 0.042211 0.524247
vt 0.033625 0.668164
vt 0.033625 0.662604
vt 0.030933 0.559379
vt 0.030933 0.648657
vt 0.030933 0.648657
vt 0.030933 0.559379
vt 0.042999 0.559379
vt 0.042999 0.648657
vt 0.042999 0.648657
vt 0.042999 0.559379
vt 0.040307 0.652539
vt 0.040307 0.555497
vt 0.042211 0.555497
vt 0.042211 0.652539
vt 0.040307 0.683789
vt 0.040307 0.683789
vt 0.042211 0.683789
vt 0.042210 0.683789
vt 0.033625 0.524247
vt 0.033625 0.524247
vt 0.031721 0.524247
vt 0.031723 0.524247
vt 0.031861 0.558802
vt 0.031861 0.662455
vt 0.042071 0.649234
vt 0.042071 0.545580
vt 0.926627 0.920988
vt 0.926627 0.829012
vt 0.948373 0.829012
vt 0.948373 0.920988
vt 0.948373 0.964836
vt 0.926627 0.964836
vt 0.926627 0.967863
vt 0.948373 0.967863
vt 0.926627 0.800789
vt 0.948373 0.800789
vt 0.948373 0.797762
vt 0.926627 0.797762
vt 0.040307 0.539872
vt 0.040307 0.636914
vt 0.040307 0.634381
vt 0.040307 0.542405
vt 0.033625 0.508622
vt 0.033625 0.514182
vt 0.033625 0.668164
vt 0.033625 0.665631
vt 0.033625 0.508622
vt 0.033625 0.511155
vt 0.033625 0.636914
vt 0.033625 0.539872
vt 0.033625 0.542405
vt 0.033625 0.634381
vt 0.030933 0.648657
vt 0.030933 0.652539
vt 0.031861 0.524247
vt 0.031315 0.524247
vt 0.042071 0.683789
vt 0.042617 0.683789
vt 0.042999 0.559379
vt 0.042999 0.555497
vt 0.042999 0.555497
vt 0.030933 0.559379
vt 0.042999 0.648657
vt 0.031721 0.555497
vt 0.031721 0.652539
vt 0.030933 0.555497
vt 0.030933 0.555497
vt 0.042999 0.555497
vt 0.030933 0.652539
vt 0.042999 0.652539
vt 0.042999 0.652539
vt 0.042071 0.524247
vt 0.031861 0.683789
vt 0.033625 0.555497
vt 0.033625 0.652539
vn -0.9285 -0.3714 0.0000
vn -0.9655 -0.1818 0.1864
vn -0.9652 -0.1955 0.1738
vn -0.9655 0.1818 0.1864
vn -0.9285 0.3714 0.0000
vn -0.9652 0.1955 0.1738
vn 0.0000 1.0000 0.0000
vn -0.3382 0.8686 -0.3622
vn -0.2847 0.9586 -0.0000
vn 0.0000 -1.0000 -0.0000
vn 0.3381 -0.8686 -0.3622
vn 0.2847 -0.9586 -0.0000
vn 0.0000 0.3714 0.9285
vn -1.0000 0.0000 0.0000
vn -0.8771 0.3419 -0.3374
vn -0.8771 -0.3419 -0.3374
vn 0.8771 -0.3419 -0.3374
vn 0.8771 0.3419 -0.3374
vn 1.0000 0.0000 0.0000
vn 0.0000 0.0000 1.0000
vn 0.2849 0.0000 0.9586
vn 0.2847 0.9586 -0.0000
vn 0.3381 0.8686 -0.3622
vn -0.2847 -0.9586 -0.0000
vn -0.3382 -0.8686 -0.3622
vn -0.3453 -0.3251 -0.8804
vn -0.3453 0.3251 -0.8804
vn 0.3453 0.3251 -0.8804
vn 0.3453 -0.3251 -0.8804
vn 0.0000 -0.3714 0.9285
vn 0.9285 0.3714 0.0000
vn 0.9655 0.1818 0.1864
vn 0.9652 0.1955 0.1738
vn 0.9655 -0.1818 0.1864
vn 0.9285 -0.3714 0.0000
vn 0.9652 -0.1955 0.1738
vn -0.6984 0.0000 0.7157
vn -0.2849 0.0000 0.9586
vn 0.6984 0.0000 0.7157
vn -0.6980 -0.7161 -0.0000
vn 0.6980 -0.7161 -0.0000
vn -0.6980 0.7161 -0.0000
vn 0.6980 0.7161 -0.0000
usemtl furniture_texture
s 1
f 3/1/1 7/2/2 12/3/3 14/4/1
f 8/5/4 4/6/5 16/7/5 9/8/6
f 6/9/7 2/10/7 27/11/8 17/12/9
f 7/13/10 3/14/10 36/15/11 21/16/12
f 4/6/13 2/17/13 15/18/13 16/7/13
f 19/19/14 18/20/14 26/21/15 30/22/16
f 35/23/17 33/24/18 23/25/19 22/26/19
f 8/27/20 7/28/20 21/29/21 24/30/21
f 4/31/7 8/32/7 24/33/22 32/34/23
f 1/35/10 5/36/10 20/37/24 29/38/25
f 28/39/26 25/40/27 31/41/28 34/42/29
f 3/14/10 1/35/10 29/38/25 36/15/11
f 10/43/20 11/44/20 12/45/20 9/46/20
f 16/47/7 15/48/7 10/49/7 9/50/7
f 13/51/10 14/52/10 12/53/10 11/54/10
f 7/55/2 8/56/4 9/57/6 12/58/3
f 1/59/30 3/1/30 14/4/30 13/60/30
f 2/17/31 6/61/32 10/62/33 15/18/31
f 5/63/34 1/59/35 13/60/35 11/64/36
f 6/65/32 5/66/34 11/67/36 10/68/33
f 2/10/7 4/31/7 32/34/23 27/11/8
f 25/69/27 26/21/15 27/70/8
f 28/71/26 29/38/25 30/72/16
f 31/73/28 32/34/23 33/74/18
f 34/75/29 35/76/17 36/77/11
f 25/69/27 28/78/26 30/22/16 26/21/15
f 33/24/18 35/23/17 34/75/29 31/79/28
f 18/20/37 19/19/37 20/80/38 17/81/38
f 22/26/39 23/25/39 24/30/21 21/29/21
f 19/19/40 30/22/16 29/82/25 20/83/24
f 35/23/17 22/26/41 21/84/12 36/77/11
f 17/85/9 27/70/8 26/21/15 18/20/42
f 23/25/43 33/24/18 32/86/23 24/87/22
f 36/15/11 29/38/25 28/71/26 34/88/29
f 27/11/8 32/34/23 31/73/28 25/89/27
f 5/90/20 6/91/20 17/81/38 20/80/38
