# Blender v3.4.1 OBJ File: 'Furniture_export.blend'
# www.blender.org
mtllib chair_stool_wood.mtl
o chair_stool_wood_Cube.035
v -0.374985 0.350000 0.325000
v -0.324985 0.300000 0.325000
v -0.324985 0.350000 0.375000
v -0.360340 0.314645 0.325000
v -0.353852 0.321132 0.353867
v -0.324985 0.314645 0.360355
v -0.360340 0.350000 0.360355
v -0.374985 0.450000 0.325000
v -0.324985 0.450000 0.375000
v -0.324985 0.500000 0.325000
v -0.360340 0.450000 0.360355
v -0.353852 0.478868 0.353867
v -0.324985 0.485355 0.360355
v -0.360340 0.485355 0.325000
v -0.374985 0.350000 -0.325000
v -0.324985 0.350000 -0.375000
v -0.324985 0.300000 -0.325000
v -0.360340 0.350000 -0.360355
v -0.353852 0.321132 -0.353868
v -0.324985 0.314645 -0.360355
v -0.360340 0.314645 -0.325000
v -0.374985 0.450000 -0.325000
v -0.324985 0.500000 -0.325000
v -0.324985 0.450000 -0.375000
v -0.360340 0.485355 -0.325000
v -0.353852 0.478868 -0.353868
v -0.324985 0.485355 -0.360355
v -0.360340 0.450000 -0.360355
v 0.375015 0.350000 0.325000
v 0.325015 0.350000 0.375000
v 0.325015 0.300000 0.325000
v 0.360371 0.350000 0.360355
v 0.353883 0.321132 0.353867
v 0.325015 0.314645 0.360355
v 0.360371 0.314645 0.325000
v 0.375015 0.450000 0.325000
v 0.325015 0.500000 0.325000
v 0.325015 0.450000 0.375000
v 0.360371 0.485355 0.325000
v 0.353883 0.478868 0.353867
v 0.325015 0.485355 0.360355
v 0.360371 0.450000 0.360355
v 0.375015 0.350000 -0.325000
v 0.325015 0.300000 -0.325000
v 0.325015 0.350000 -0.375000
v 0.360371 0.314645 -0.325000
v 0.353883 0.321132 -0.353868
v 0.325015 0.314645 -0.360355
v 0.360371 0.350000 -0.360355
v 0.375015 0.450000 -0.325000
v 0.325015 0.450000 -0.375000
v 0.325015 0.500000 -0.325000
v 0.360371 0.450000 -0.360355
v 0.353883 0.478868 -0.353868
v 0.325015 0.485355 -0.360355
v 0.360371 0.485355 -0.325000
v 0.310000 -0.000000 0.310000
v 0.330000 0.020000 0.310000
v 0.310000 0.020000 0.330000
v 0.279003 0.300001 0.297000
v 0.297003 0.300001 0.279000
v 0.310000 -0.000000 0.150000
v 0.310000 0.020000 0.130000
v 0.330000 0.020000 0.150000
v 0.297003 0.300001 0.135000
v 0.279003 0.300001 0.117000
v 0.150000 -0.000000 0.310000
v 0.150000 0.020000 0.330000
v 0.130000 0.020000 0.310000
v 0.117003 0.300001 0.279000
v 0.135003 0.300001 0.297000
v 0.150000 -0.000000 0.150000
v 0.140000 0.020000 0.140000
v 0.126003 0.300001 0.126000
v -0.310000 -0.000000 0.310000
v -0.330000 0.020000 0.310000
v -0.310000 0.020000 0.330000
v -0.278997 0.300001 0.297000
v -0.296997 0.300001 0.279000
v -0.310000 -0.000000 0.150000
v -0.310000 0.020000 0.130000
v -0.330000 0.020000 0.150000
v -0.296997 0.300001 0.135000
v -0.278997 0.300001 0.117000
v -0.150000 -0.000000 0.310000
v -0.150000 0.020000 0.330000
v -0.130000 0.020000 0.310000
v -0.116997 0.300001 0.279000
v -0.134997 0.300001 0.297000
v -0.150000 -0.000000 0.150000
v -0.140000 0.020000 0.140000
v -0.125997 0.300001 0.126000
v -0.310000 -0.000000 -0.310000
v -0.330000 0.020000 -0.310000
v -0.310000 0.020000 -0.330000
v -0.278997 0.300001 -0.297000
v -0.296997 0.300001 -0.279000
v -0.310000 -0.000000 -0.150000
v -0.310000 0.020000 -0.130000
v -0.330000 0.020000 -0.150000
v -0.296997 0.300001 -0.135000
v -0.278997 0.300001 -0.117000
v -0.150000 -0.000000 -0.310000
v -0.150000 0.020000 -0.330000
v -0.130000 0.020000 -0.310000
v -0.116997 0.300001 -0.279000
v -0.134997 0.300001 -0.297000
v -0.150000 -0.000000 -0.150000
v -0.140000 0.020000 -0.140000
v -0.125997 0.300001 -0.126000
v 0.310000 -0.000000 -0.310000
v 0.330000 0.020000 -0.310000
v 0.310000 0.020000 -0.330000
v 0.279003 0.300001 -0.297000
v 0.297003 0.300001 -0.279000
v 0.310000 -0.000000 -0.150000
v 0.310000 0.020000 -0.130000
v 0.330000 0.020000 -0.150000
v 0.297003 0.300001 -0.135000
v 0.279003 0.300001 -0.117000
v 0.150000 -0.000000 -0.310000
v 0.150000 0.020000 -0.330000
v 0.130000 0.020000 -0.310000
v 0.117003 0.300001 -0.279000
v 0.135003 0.300001 -0.297000
v 0.150000 -0.000000 -0.150000
v 0.140000 0.020000 -0.140000
v 0.126003 0.300001 -0.126000
vt 0.165213 0.893026
vt 0.165213 0.893026
vt 0.179639 0.893026
vt 0.179639 0.893026
vt 0.179639 0.812489
vt 0.179639 0.812489
vt 0.165213 0.812489
vt 0.165213 0.812489
vt 0.165213 0.848248
vt 0.165213 0.857267
vt 0.179639 0.857267
vt 0.179639 0.848248
vt 0.180749 0.848248
vt 0.180749 0.857267
vt 0.180749 0.857267
vt 0.180749 0.848248
vt 0.164103 0.857267
vt 0.164103 0.857267
vt 0.164103 0.848248
vt 0.164103 0.848248
vt 0.164103 0.816998
vt 0.164428 0.813809
vt 0.164572 0.814395
vt 0.164428 0.816998
vt 0.165213 0.813809
vt 0.165213 0.816998
vt 0.164103 0.888517
vt 0.164428 0.888517
vt 0.164572 0.891120
vt 0.164428 0.891705
vt 0.165213 0.888517
vt 0.165213 0.891705
vt 0.164103 0.816998
vt 0.164428 0.816998
vt 0.164572 0.814395
vt 0.164428 0.813809
vt 0.165213 0.816998
vt 0.165213 0.813809
vt 0.164103 0.888517
vt 0.164428 0.891705
vt 0.164572 0.891120
vt 0.164428 0.888517
vt 0.165213 0.891705
vt 0.165213 0.888517
vt 0.180749 0.816998
vt 0.180423 0.816998
vt 0.180280 0.814395
vt 0.180423 0.813809
vt 0.179639 0.816998
vt 0.179639 0.813809
vt 0.180749 0.888517
vt 0.180423 0.891705
vt 0.180280 0.891120
vt 0.180423 0.888517
vt 0.179639 0.891705
vt 0.179639 0.888517
vt 0.180749 0.816998
vt 0.180423 0.813809
vt 0.180280 0.814395
vt 0.180423 0.816998
vt 0.179639 0.813809
vt 0.179639 0.816998
vt 0.180749 0.888517
vt 0.180423 0.888517
vt 0.180280 0.891120
vt 0.180423 0.891705
vt 0.179639 0.888517
vt 0.179639 0.891705
vt 0.165213 0.848248
vt 0.165213 0.857267
vt 0.164428 0.857267
vt 0.164428 0.848248
vt 0.164428 0.848248
vt 0.164428 0.857267
vt 0.180423 0.848248
vt 0.180423 0.857267
vt 0.179639 0.857267
vt 0.179639 0.848248
vt 0.180423 0.848248
vt 0.180423 0.857267
vt 0.028949 0.785433
vt 0.028949 0.785433
vt 0.030421 0.785433
vt 0.033179 0.785433
vt 0.034650 0.785433
vt 0.033179 0.785433
vt 0.034650 0.785433
vt 0.034650 0.785433
vt 0.033179 0.785433
vt 0.030421 0.785433
vt 0.028949 0.785433
vt 0.030421 0.785433
vt 0.033179 0.818486
vt 0.034650 0.818486
vt 0.034365 0.843739
vt 0.033041 0.843739
vt 0.033087 0.802861
vt 0.032995 0.802861
vt 0.032876 0.828114
vt 0.032959 0.828114
vt 0.034650 0.818486
vt 0.033087 0.818486
vt 0.032959 0.843739
vt 0.034365 0.843739
vt 0.034834 0.802861
vt 0.034834 0.802861
vt 0.034531 0.828114
vt 0.034531 0.828114
vt 0.080824 0.816683
vt 0.080963 0.818486
vt 0.080824 0.818486
vt 0.080824 0.816683
vt 0.080824 0.818486
vt 0.080963 0.818486
vt 0.079715 0.816683
vt 0.079715 0.818486
vt 0.079576 0.818486
vt 0.080963 0.849736
vt 0.080734 0.874989
vt 0.080609 0.874989
vt 0.080824 0.849736
vt 0.080734 0.874989
vt 0.080963 0.849736
vt 0.080824 0.849736
vt 0.080609 0.874989
vt 0.079646 0.818486
vt 0.079715 0.816683
vt 0.079486 0.874989
vt 0.079576 0.849736
vt 0.079715 0.849736
vt 0.079611 0.874989
vt 0.034650 0.785433
vt 0.030421 0.818486
vt 0.030559 0.843739
vt 0.029235 0.843739
vt 0.028949 0.818486
vt 0.030513 0.802861
vt 0.030641 0.828114
vt 0.030724 0.828114
vt 0.030605 0.802861
vt 0.028949 0.818486
vt 0.029235 0.843739
vt 0.030641 0.843739
vt 0.030513 0.818486
vt 0.028765 0.802861
vt 0.029069 0.828114
vt 0.029069 0.828114
vt 0.028765 0.802861
vt 0.076526 0.816683
vt 0.076526 0.818486
vt 0.076387 0.818486
vt 0.076526 0.816683
vt 0.076387 0.818486
vt 0.076526 0.818486
vt 0.077635 0.816683
vt 0.077774 0.818486
vt 0.077635 0.818486
vt 0.076387 0.849736
vt 0.076526 0.849736
vt 0.076741 0.874989
vt 0.076616 0.874989
vt 0.076616 0.874989
vt 0.076741 0.874989
vt 0.076526 0.849736
vt 0.076387 0.849736
vt 0.077704 0.818486
vt 0.077635 0.816683
vt 0.077864 0.874989
vt 0.077739 0.874989
vt 0.077635 0.849736
vt 0.077774 0.849736
vt 0.030421 0.785433
vt 0.030421 0.818486
vt 0.028949 0.818486
vt 0.029235 0.843739
vt 0.030559 0.843739
vt 0.030513 0.802861
vt 0.030605 0.802861
vt 0.030724 0.828114
vt 0.030641 0.828114
vt 0.028949 0.818486
vt 0.030513 0.818486
vt 0.030641 0.843739
vt 0.029235 0.843739
vt 0.028765 0.802861
vt 0.028765 0.802861
vt 0.029069 0.828114
vt 0.029069 0.828114
vt 0.076526 0.816683
vt 0.076387 0.818486
vt 0.076526 0.818486
vt 0.076526 0.816683
vt 0.076526 0.818486
vt 0.076387 0.818486
vt 0.077635 0.816683
vt 0.077635 0.818486
vt 0.077774 0.818486
vt 0.076387 0.849736
vt 0.076616 0.874989
vt 0.076741 0.874989
vt 0.076526 0.849736
vt 0.076616 0.874989
vt 0.076387 0.849736
vt 0.076526 0.849736
vt 0.076741 0.874989
vt 0.077704 0.818486
vt 0.077635 0.816683
vt 0.077864 0.874989
vt 0.077774 0.849736
vt 0.077635 0.849736
vt 0.077739 0.874989
vt 0.028949 0.785433
vt 0.033179 0.818486
vt 0.033041 0.843739
vt 0.034365 0.843739
vt 0.034650 0.818486
vt 0.033087 0.802861
vt 0.032959 0.828114
vt 0.032876 0.828114
vt 0.032995 0.802861
vt 0.034650 0.818486
vt 0.034365 0.843739
vt 0.032959 0.843739
vt 0.033087 0.818486
vt 0.034834 0.802861
vt 0.034531 0.828114
vt 0.034531 0.828114
vt 0.034834 0.802861
vt 0.080824 0.816683
vt 0.080824 0.818486
vt 0.080963 0.818486
vt 0.080824 0.816683
vt 0.080963 0.818486
vt 0.080824 0.818486
vt 0.079715 0.816683
vt 0.079576 0.818486
vt 0.079715 0.818486
vt 0.080963 0.849736
vt 0.080824 0.849736
vt 0.080609 0.874989
vt 0.080734 0.874989
vt 0.080734 0.874989
vt 0.080609 0.874989
vt 0.080824 0.849736
vt 0.080963 0.849736
vt 0.079646 0.818486
vt 0.079715 0.816683
vt 0.079486 0.874989
vt 0.079611 0.874989
vt 0.079715 0.849736
vt 0.079576 0.849736
vt 0.033179 0.785433
vn -0.1794 0.9673 -0.1794
vn -0.1794 0.9673 0.1794
vn 0.1794 0.9673 0.1794
vn 0.1794 0.9673 -0.1794
vn 0.1794 -0.9673 -0.1794
vn 0.1794 -0.9673 0.1794
vn -0.1794 -0.9673 0.1794
vn -0.1794 -0.9673 -0.1794
vn -0.1794 -0.1794 -0.9673
vn -0.1794 0.1794 -0.9673
vn 0.1794 0.1794 -0.9673
vn 0.1794 -0.1794 -0.9673
vn 0.9673 -0.1794 -0.1794
vn 0.9673 0.1794 -0.1794
vn 0.9673 0.1794 0.1794
vn 0.9673 -0.1794 0.1794
vn -0.9673 0.1794 0.1794
vn -0.9673 0.1794 -0.1794
vn -0.9673 -0.1794 -0.1794
vn -0.9673 -0.1794 0.1794
vn -0.9194 -0.3600 0.1585
vn -0.8881 -0.3251 0.3251
vn -0.9194 -0.1585 0.3600
vn -0.1585 -0.9194 0.3600
vn -0.3251 -0.8881 0.3251
vn -0.3600 -0.9194 0.1585
vn -0.1794 -0.1794 0.9673
vn -0.3600 -0.1585 0.9194
vn -0.3251 -0.3251 0.8881
vn -0.1585 -0.3600 0.9194
vn -0.9194 0.1585 0.3600
vn -0.8881 0.3251 0.3251
vn -0.9194 0.3600 0.1585
vn -0.1794 0.1794 0.9673
vn -0.1585 0.3600 0.9194
vn -0.3251 0.3251 0.8881
vn -0.3600 0.1585 0.9194
vn -0.3600 0.9194 0.1585
vn -0.3251 0.8881 0.3251
vn -0.1585 0.9194 0.3600
vn -0.6965 -0.1726 -0.6965
vn -0.8881 -0.3251 -0.3251
vn -0.9194 -0.3600 -0.1585
vn -0.1585 -0.3600 -0.9194
vn -0.3251 -0.3251 -0.8881
vn -0.3600 -0.9194 -0.1585
vn -0.3251 -0.8881 -0.3251
vn -0.1585 -0.9194 -0.3600
vn -0.9194 0.3600 -0.1585
vn -0.8881 0.3251 -0.3251
vn -0.6965 0.1726 -0.6965
vn -0.1585 0.9194 -0.3600
vn -0.3251 0.8881 -0.3251
vn -0.3600 0.9194 -0.1585
vn -0.3251 0.3251 -0.8881
vn -0.1585 0.3600 -0.9194
vn 0.9194 -0.1585 0.3600
vn 0.8881 -0.3251 0.3251
vn 0.9194 -0.3600 0.1585
vn 0.1794 -0.1794 0.9673
vn 0.1585 -0.3600 0.9194
vn 0.3251 -0.3251 0.8881
vn 0.3600 -0.1585 0.9194
vn 0.3600 -0.9194 0.1585
vn 0.3251 -0.8881 0.3251
vn 0.1585 -0.9194 0.3600
vn 0.9194 0.3600 0.1585
vn 0.8881 0.3251 0.3251
vn 0.9194 0.1585 0.3600
vn 0.1585 0.9194 0.3600
vn 0.3251 0.8881 0.3251
vn 0.3600 0.9194 0.1585
vn 0.1794 0.1794 0.9673
vn 0.3600 0.1585 0.9194
vn 0.3251 0.3251 0.8881
vn 0.1585 0.3600 0.9194
vn 0.9194 -0.3600 -0.1585
vn 0.8881 -0.3251 -0.3251
vn 0.6965 -0.1726 -0.6965
vn 0.1585 -0.9194 -0.3600
vn 0.3251 -0.8881 -0.3251
vn 0.3600 -0.9194 -0.1585
vn 0.3251 -0.3251 -0.8881
vn 0.1585 -0.3600 -0.9194
vn 0.6965 0.1726 -0.6965
vn 0.8881 0.3251 -0.3251
vn 0.9194 0.3600 -0.1585
vn 0.1585 0.3600 -0.9194
vn 0.3251 0.3251 -0.8881
vn 0.3600 0.9194 -0.1585
vn 0.3251 0.8881 -0.3251
vn 0.1585 0.9194 -0.3600
vn -0.3416 -0.8756 0.3416
vn -0.3411 -0.8609 -0.3774
vn 0.3774 -0.8609 0.3411
vn 0.0000 -1.0000 0.0000
vn 0.3411 -0.8609 -0.3774
vn -0.3774 -0.8609 0.3411
vn 0.3416 -0.8756 -0.3416
vn 0.3411 -0.8609 0.3774
vn -0.3774 -0.8609 -0.3411
vn -0.3411 -0.8609 0.3774
vn 0.3774 -0.8609 -0.3411
vn 0.0000 0.1170 0.9931
vn 0.3563 -0.2717 0.8940
vn 0.3651 0.1487 0.9190
vn -0.9536 -0.2976 -0.0461
vn -0.8921 -0.3051 0.3332
vn -0.9969 -0.0528 -0.0586
vn 0.3332 -0.3051 -0.8921
vn -0.0461 -0.2976 -0.9536
vn -0.0586 -0.0528 -0.9969
vn 0.8940 -0.2717 0.3563
vn 0.9931 0.1170 0.0000
vn 0.9190 0.1487 0.3651
vn 0.3416 -0.8756 0.3416
vn 0.7634 -0.4596 -0.4539
vn -0.4539 -0.4596 0.7634
vn 0.7064 0.0454 -0.7064
vn -0.0241 -0.6037 -0.7969
vn -0.7969 -0.6037 -0.0241
vn -0.7064 0.0454 0.7064
vn -0.3651 0.1487 0.9190
vn -0.3563 -0.2717 0.8940
vn 0.9536 -0.2976 -0.0461
vn 0.9969 -0.0528 -0.0586
vn 0.8921 -0.3051 0.3332
vn -0.3332 -0.3051 -0.8921
vn 0.0586 -0.0528 -0.9969
vn 0.0461 -0.2976 -0.9536
vn -0.8940 -0.2717 0.3563
vn -0.9190 0.1487 0.3651
vn -0.9931 0.1171 0.0000
vn -0.7634 -0.4596 -0.4539
vn 0.4539 -0.4596 0.7634
vn -0.7064 0.0454 -0.7064
vn 0.0241 -0.6037 -0.7969
vn 0.7969 -0.6037 -0.0241
vn 0.7064 0.0454 0.7064
vn 0.0000 0.1170 -0.9931
vn -0.3563 -0.2717 -0.8940
vn -0.3651 0.1487 -0.9190
vn 0.9536 -0.2976 0.0461
vn 0.8921 -0.3051 -0.3332
vn 0.9969 -0.0528 0.0586
vn -0.3332 -0.3051 0.8921
vn 0.0461 -0.2976 0.9536
vn 0.0586 -0.0528 0.9969
vn -0.8940 -0.2717 -0.3563
vn -0.9190 0.1487 -0.3651
vn -0.3416 -0.8756 -0.3416
vn -0.7634 -0.4596 0.4539
vn 0.4539 -0.4596 -0.7634
vn 0.0241 -0.6037 0.7969
vn 0.7969 -0.6037 0.0241
vn 0.3651 0.1487 -0.9190
vn 0.3563 -0.2717 -0.8940
vn -0.9536 -0.2976 0.0461
vn -0.9969 -0.0528 0.0586
vn -0.8921 -0.3051 -0.3332
vn 0.3332 -0.3051 0.8921
vn -0.0586 -0.0528 0.9969
vn -0.0461 -0.2976 0.9536
vn 0.8940 -0.2717 -0.3563
vn 0.9190 0.1487 -0.3651
vn 0.7634 -0.4596 0.4539
vn -0.4539 -0.4596 -0.7634
vn -0.0241 -0.6037 0.7969
vn -0.7969 -0.6037 0.0241
usemtl furniture_texture
s 1
f 23/1/1 10/2/2 37/3/3 52/4/4
f 44/5/5 31/6/6 2/7/7 17/8/8
f 16/9/9 24/10/10 51/11/11 45/12/12
f 43/13/13 50/14/14 36/15/15 29/16/16
f 8/17/17 22/18/18 15/19/19 1/20/20
f 1/21/20 4/22/21 5/23/22 7/24/23
f 2/7/7 6/25/24 5/23/25 4/22/26
f 3/26/27 7/24/28 5/23/29 6/25/30
f 8/27/17 11/28/31 12/29/32 14/30/33
f 9/31/34 13/32/35 12/29/36 11/28/37
f 10/2/2 14/30/38 12/29/39 13/32/40
f 15/33/19 18/34/41 19/35/42 21/36/43
f 16/37/9 20/38/44 19/35/45 18/34/41
f 17/8/8 21/36/46 19/35/47 20/38/48
f 22/39/18 25/40/49 26/41/50 28/42/51
f 23/1/1 27/43/52 26/41/53 25/40/54
f 24/44/10 28/42/51 26/41/55 27/43/56
f 29/45/16 32/46/57 33/47/58 35/48/59
f 30/49/60 34/50/61 33/47/62 32/46/63
f 31/6/6 35/48/64 33/47/65 34/50/66
f 36/51/15 39/52/67 40/53/68 42/54/69
f 37/3/3 41/55/70 40/53/71 39/52/72
f 38/56/73 42/54/74 40/53/75 41/55/76
f 43/57/13 46/58/77 47/59/78 49/60/79
f 44/5/5 48/61/80 47/59/81 46/58/82
f 45/62/12 49/60/79 47/59/83 48/61/84
f 50/63/14 53/64/85 54/65/86 56/66/87
f 51/67/11 55/68/88 54/65/89 53/64/85
f 52/4/4 56/66/90 54/65/91 55/68/92
f 3/69/27 9/70/34 11/71/37 7/72/28
f 7/72/23 11/71/31 8/17/17 1/20/20
f 24/10/10 16/9/9 18/73/41 28/74/51
f 28/74/51 18/73/41 15/19/19 22/18/18
f 50/14/14 43/13/13 49/75/79 53/76/85
f 53/76/85 49/75/79 45/12/12 51/11/11
f 38/77/73 30/78/60 32/79/63 42/80/74
f 42/80/69 32/79/57 29/16/16 36/15/15
f 44/5/5 17/8/8 20/38/48 48/61/80
f 48/61/84 20/38/44 16/37/9 45/62/12
f 23/1/1 52/4/4 55/68/92 27/43/52
f 27/43/56 55/68/88 51/67/11 24/44/10
f 2/7/7 31/6/6 34/50/66 6/25/24
f 6/25/30 34/50/61 30/49/60 3/26/27
f 37/3/3 10/2/2 13/32/40 41/55/70
f 41/55/76 13/32/35 9/31/34 38/56/73
f 17/8/8 2/7/7 4/22/26 21/36/46
f 21/36/43 4/22/21 1/21/20 15/33/19
f 10/2/2 23/1/1 25/40/54 14/30/38
f 14/30/33 25/40/49 22/39/18 8/27/17
f 31/6/6 44/5/5 46/58/82 35/48/64
f 35/48/59 46/58/77 43/57/13 29/45/16
f 52/4/4 37/3/3 39/52/72 56/66/90
f 56/66/87 39/52/67 36/51/15 50/63/14
f 38/77/73 9/70/34 3/69/27 30/78/60
f 75/81/93 80/82/94 85/83/95
f 72/84/96 62/85/97 67/86/98
f 111/87/99 116/88/100 121/89/101
f 108/90/96 98/91/102 103/92/103
f 68/93/104 59/94/105 60/95/106 71/96/104
f 73/97/107 69/98/108 70/99/109 74/100/109
f 63/101/110 73/102/111 74/103/112 66/104/112
f 58/105/113 64/106/114 65/107/114 61/108/115
f 57/109/116 58/110/113 59/111/105
f 62/112/97 63/113/110 64/114/117
f 67/115/98 68/116/118 69/117/108
f 64/114/117 58/110/113 57/109/116 62/112/97
f 58/118/113 61/119/115 60/120/106 59/121/105
f 65/122/119 64/123/117 63/124/110 66/125/119
f 73/126/111 63/113/110 62/112/97 72/127/120
f 69/117/108 73/126/107 72/127/121 67/115/98
f 70/128/122 69/129/108 68/130/118 71/131/122
f 59/111/105 68/116/118 67/115/98 57/109/116
f 62/85/97 57/132/116 67/86/98
f 86/133/104 89/134/104 78/135/123 77/136/124
f 91/137/125 92/138/126 88/139/126 87/140/127
f 81/141/128 84/142/129 92/143/129 91/144/130
f 76/145/131 79/146/132 83/147/133 82/148/133
f 75/149/93 77/150/124 76/151/131
f 80/152/94 82/153/134 81/154/128
f 85/155/95 87/156/127 86/157/135
f 82/153/134 80/152/94 75/149/93 76/151/131
f 76/158/131 77/159/124 78/160/123 79/161/132
f 83/162/136 84/163/136 81/164/128 82/165/134
f 91/166/130 90/167/137 80/152/94 81/154/128
f 87/156/127 85/155/95 90/167/138 91/166/125
f 88/168/139 89/169/139 86/170/135 87/171/127
f 77/150/124 75/149/93 85/155/95 86/157/135
f 80/82/94 90/172/96 85/83/95
f 104/173/140 95/174/141 96/175/142 107/176/140
f 109/177/143 105/178/144 106/179/145 110/180/145
f 99/181/146 109/182/147 110/183/148 102/184/148
f 94/185/149 100/186/133 101/187/133 97/188/150
f 93/189/151 94/190/149 95/191/141
f 98/192/102 99/193/146 100/194/152
f 103/195/103 104/196/153 105/197/144
f 100/194/152 94/190/149 93/189/151 98/192/102
f 94/198/149 97/199/150 96/200/142 95/201/141
f 101/202/122 100/203/152 99/204/146 102/205/122
f 109/206/147 99/193/146 98/192/102 108/207/154
f 105/197/144 109/206/143 108/207/155 103/195/103
f 106/208/119 105/209/144 104/210/153 107/211/119
f 95/191/141 104/196/153 103/195/103 93/189/151
f 98/91/102 93/212/151 103/92/103
f 122/213/140 125/214/140 114/215/156 113/216/157
f 127/217/158 128/218/159 124/219/159 123/220/160
f 117/221/161 120/222/162 128/223/162 127/224/163
f 112/225/164 115/226/165 119/227/114 118/228/114
f 111/229/99 113/230/157 112/231/164
f 116/232/100 118/233/166 117/234/161
f 121/235/101 123/236/160 122/237/167
f 118/233/166 116/232/100 111/229/99 112/231/164
f 112/238/164 113/239/157 114/240/156 115/241/165
f 119/242/139 120/243/139 117/244/161 118/245/166
f 127/246/163 126/247/168 116/232/100 117/234/161
f 123/236/160 121/235/101 126/247/169 127/246/158
f 124/248/136 125/249/136 122/250/167 123/251/160
f 113/230/157 111/229/99 121/235/101 122/237/167
f 116/88/100 126/252/96 121/89/101
