# Blender v3.4.1 OBJ File: 'Furniture_export.blend'
# www.blender.org
mtllib chair_C.mtl
o chair_C_Cube.031
v 0.310000 -0.000000 0.310000
v 0.330000 0.020000 0.310000
v 0.310000 0.020000 0.330000
v 0.279003 0.300001 0.297000
v 0.297003 0.300001 0.279000
v 0.310000 -0.000000 0.150000
v 0.310000 0.020000 0.130000
v 0.330000 0.020000 0.150000
v 0.297003 0.300001 0.135000
v 0.279003 0.300001 0.117000
v 0.150000 -0.000000 0.310000
v 0.150000 0.020000 0.330000
v 0.130000 0.020000 0.310000
v 0.117003 0.300001 0.279000
v 0.135003 0.300001 0.297000
v 0.150000 -0.000000 0.150000
v 0.140000 0.020000 0.140000
v 0.126003 0.300001 0.126000
v -0.310000 -0.000000 0.310000
v -0.330000 0.020000 0.310000
v -0.310000 0.020000 0.330000
v -0.278997 0.300001 0.297000
v -0.296997 0.300001 0.279000
v -0.310000 -0.000000 0.150000
v -0.310000 0.020000 0.130000
v -0.330000 0.020000 0.150000
v -0.296997 0.300001 0.135000
v -0.278997 0.300001 0.117000
v -0.150000 -0.000000 0.310000
v -0.150000 0.020000 0.330000
v -0.130000 0.020000 0.310000
v -0.116997 0.300001 0.279000
v -0.134997 0.300001 0.297000
v -0.150000 -0.000000 0.150000
v -0.140000 0.020000 0.140000
v -0.125997 0.300001 0.126000
v -0.310000 -0.000000 -0.310000
v -0.330000 0.020000 -0.310000
v -0.310000 0.020000 -0.330000
v -0.278997 0.300001 -0.297000
v -0.296997 0.300001 -0.279000
v -0.310000 -0.000000 -0.150000
v -0.310000 0.020000 -0.130000
v -0.330000 0.020000 -0.150000
v -0.296997 0.300001 -0.135000
v -0.278997 0.300001 -0.117000
v -0.150000 -0.000000 -0.310000
v -0.150000 0.020000 -0.330000
v -0.130000 0.020000 -0.310000
v -0.116997 0.300001 -0.279000
v -0.134997 0.300001 -0.297000
v -0.150000 -0.000000 -0.150000
v -0.140000 0.020000 -0.140000
v -0.125997 0.300001 -0.126000
v 0.310000 -0.000000 -0.310000
v 0.330000 0.020000 -0.310000
v 0.310000 0.020000 -0.330000
v 0.279003 0.300001 -0.297000
v 0.297003 0.300001 -0.279000
v 0.310000 -0.000000 -0.150000
v 0.310000 0.020000 -0.130000
v 0.330000 0.020000 -0.150000
v 0.297003 0.300001 -0.135000
v 0.279003 0.300001 -0.117000
v 0.150000 -0.000000 -0.310000
v 0.150000 0.020000 -0.330000
v 0.130000 0.020000 -0.310000
v 0.117003 0.300001 -0.279000
v 0.135003 0.300001 -0.297000
v 0.150000 -0.000000 -0.150000
v 0.140000 0.020000 -0.140000
v 0.126003 0.300001 -0.126000
v -0.375015 0.340002 0.325000
v -0.325015 0.290002 0.325000
v -0.325015 0.340002 0.375000
v -0.360371 0.304646 0.325000
v -0.353883 0.311134 0.353868
v -0.325015 0.304646 0.360355
v -0.360371 0.340002 0.360355
v -0.375015 0.440002 0.325000
v -0.325015 0.440002 0.375000
v -0.325015 0.490002 0.325000
v -0.360371 0.440002 0.360355
v -0.353883 0.468869 0.353868
v -0.325015 0.475357 0.360355
v -0.360371 0.475357 0.325000
v -0.325015 0.338783 -0.385971
v -0.325015 0.290002 -0.325000
v -0.375015 0.340002 -0.254289
v -0.375015 0.389568 -0.346144
v -0.325015 0.304289 -0.363569
v -0.360465 0.319872 -0.346750
v -0.360371 0.304646 -0.289645
v -0.375015 0.354758 -0.314936
v -0.360371 0.361904 -0.376161
v 0.374985 0.340002 0.325000
v 0.324985 0.340002 0.375000
v 0.324985 0.290002 0.325000
v 0.360340 0.340002 0.360355
v 0.353852 0.311134 0.353868
v 0.324985 0.304646 0.360355
v 0.360340 0.304646 0.325000
v 0.324985 0.490002 0.325000
v 0.324985 0.440002 0.375000
v 0.374985 0.440002 0.325000
v 0.324985 0.475357 0.360355
v 0.353852 0.468869 0.353868
v 0.360340 0.440002 0.360355
v 0.360340 0.475357 0.325000
v 0.324985 0.338783 -0.385971
v 0.374985 0.389568 -0.346144
v 0.374985 0.340002 -0.254289
v 0.324985 0.290002 -0.325000
v 0.360340 0.361904 -0.376161
v 0.360435 0.319872 -0.346751
v 0.374985 0.354758 -0.314936
v 0.360340 0.304646 -0.289645
v 0.324985 0.304289 -0.363569
v -0.375015 0.440002 -0.154289
v -0.325015 0.490002 -0.125000
v -0.325015 0.538147 -0.188491
v -0.375015 0.504675 -0.231038
v -0.360371 0.475357 -0.139645
v -0.360465 0.490922 -0.175545
v -0.325015 0.504103 -0.164307
v -0.360371 0.524205 -0.199793
v -0.375015 0.458888 -0.200959
v 0.374985 0.440002 -0.154289
v 0.374985 0.504675 -0.231038
v 0.324985 0.538147 -0.188491
v 0.324985 0.490002 -0.125000
v 0.374985 0.458888 -0.200959
v 0.360435 0.490922 -0.175545
v 0.360340 0.524205 -0.199793
v 0.324985 0.504103 -0.164307
v 0.360340 0.475357 -0.139645
v -0.345015 1.154793 -0.413215
v -0.295015 1.167738 -0.364916
v -0.295015 1.202943 -0.426704
v -0.330371 1.163946 -0.379063
v -0.323883 1.190065 -0.393118
v -0.295015 1.197993 -0.388601
v -0.330371 1.188839 -0.422753
v -0.345015 1.128250 -0.512276
v -0.295015 1.177061 -0.523296
v -0.295015 1.115338 -0.560621
v -0.330371 1.162758 -0.520059
v -0.323883 1.148965 -0.546533
v -0.295015 1.153628 -0.554244
v -0.330371 1.119114 -0.546451
v 0.294985 1.115338 -0.560621
v 0.294985 1.177061 -0.523296
v 0.344985 1.128250 -0.512276
v 0.294985 1.153628 -0.554244
v 0.323852 1.148965 -0.546533
v 0.330340 1.162758 -0.520059
v 0.330340 1.119114 -0.546451
v 0.344985 1.154793 -0.413215
v 0.294985 1.202943 -0.426704
v 0.294985 1.167738 -0.364916
v 0.330340 1.188839 -0.422753
v 0.323852 1.190065 -0.393118
v 0.294985 1.197993 -0.388601
v 0.330340 1.163946 -0.379063
vt 0.028949 0.785433
vt 0.028949 0.785433
vt 0.030421 0.785433
vt 0.033179 0.785433
vt 0.034650 0.785433
vt 0.033179 0.785433
vt 0.034650 0.785433
vt 0.034650 0.785433
vt 0.033179 0.785433
vt 0.030421 0.785433
vt 0.028949 0.785433
vt 0.030421 0.785433
vt 0.033179 0.818486
vt 0.034650 0.818486
vt 0.034365 0.843739
vt 0.033041 0.843739
vt 0.033087 0.802861
vt 0.032995 0.802861
vt 0.032876 0.828114
vt 0.032959 0.828114
vt 0.034650 0.818486
vt 0.033087 0.818486
vt 0.032959 0.843739
vt 0.034365 0.843739
vt 0.034834 0.802861
vt 0.034834 0.802861
vt 0.034531 0.828114
vt 0.034531 0.828114
vt 0.080824 0.816683
vt 0.080963 0.818486
vt 0.080824 0.818486
vt 0.080824 0.816683
vt 0.080824 0.818486
vt 0.080963 0.818486
vt 0.079715 0.816683
vt 0.079715 0.818486
vt 0.079576 0.818486
vt 0.080963 0.849736
vt 0.080734 0.874989
vt 0.080609 0.874989
vt 0.080824 0.849736
vt 0.080734 0.874989
vt 0.080963 0.849736
vt 0.080824 0.849736
vt 0.080609 0.874989
vt 0.079646 0.818486
vt 0.079715 0.816683
vt 0.079486 0.874989
vt 0.079576 0.849736
vt 0.079715 0.849736
vt 0.079611 0.874989
vt 0.034650 0.785433
vt 0.030421 0.818486
vt 0.030559 0.843739
vt 0.029235 0.843739
vt 0.028949 0.818486
vt 0.030513 0.802861
vt 0.030641 0.828114
vt 0.030724 0.828114
vt 0.030605 0.802861
vt 0.028949 0.818486
vt 0.029235 0.843739
vt 0.030641 0.843739
vt 0.030513 0.818486
vt 0.028765 0.802861
vt 0.029069 0.828114
vt 0.029069 0.828114
vt 0.028765 0.802861
vt 0.076526 0.816683
vt 0.076526 0.818486
vt 0.076387 0.818486
vt 0.076526 0.816683
vt 0.076387 0.818486
vt 0.076526 0.818486
vt 0.077635 0.816683
vt 0.077774 0.818486
vt 0.077635 0.818486
vt 0.076387 0.849736
vt 0.076526 0.849736
vt 0.076741 0.874989
vt 0.076616 0.874989
vt 0.076616 0.874989
vt 0.076741 0.874989
vt 0.076526 0.849736
vt 0.076387 0.849736
vt 0.077704 0.818486
vt 0.077635 0.816683
vt 0.077864 0.874989
vt 0.077739 0.874989
vt 0.077635 0.849736
vt 0.077774 0.849736
vt 0.030421 0.785433
vt 0.030421 0.818486
vt 0.028949 0.818486
vt 0.029235 0.843739
vt 0.030559 0.843739
vt 0.030513 0.802861
vt 0.030605 0.802861
vt 0.030724 0.828114
vt 0.030641 0.828114
vt 0.028949 0.818486
vt 0.030513 0.818486
vt 0.030641 0.843739
vt 0.029235 0.843739
vt 0.028765 0.802861
vt 0.028765 0.802861
vt 0.029069 0.828114
vt 0.029069 0.828114
vt 0.076526 0.816683
vt 0.076387 0.818486
vt 0.076526 0.818486
vt 0.076526 0.816683
vt 0.076526 0.818486
vt 0.076387 0.818486
vt 0.077635 0.816683
vt 0.077635 0.818486
vt 0.077774 0.818486
vt 0.076387 0.849736
vt 0.076616 0.874989
vt 0.076741 0.874989
vt 0.076526 0.849736
vt 0.076616 0.874989
vt 0.076387 0.849736
vt 0.076526 0.849736
vt 0.076741 0.874989
vt 0.077704 0.818486
vt 0.077635 0.816683
vt 0.077864 0.874989
vt 0.077774 0.849736
vt 0.077635 0.849736
vt 0.077739 0.874989
vt 0.028949 0.785433
vt 0.033179 0.818486
vt 0.033041 0.843739
vt 0.034365 0.843739
vt 0.034650 0.818486
vt 0.033087 0.802861
vt 0.032959 0.828114
vt 0.032876 0.828114
vt 0.032995 0.802861
vt 0.034650 0.818486
vt 0.034365 0.843739
vt 0.032959 0.843739
vt 0.033087 0.818486
vt 0.034834 0.802861
vt 0.034531 0.828114
vt 0.034531 0.828114
vt 0.034834 0.802861
vt 0.080824 0.816683
vt 0.080824 0.818486
vt 0.080963 0.818486
vt 0.080824 0.816683
vt 0.080963 0.818486
vt 0.080824 0.818486
vt 0.079715 0.816683
vt 0.079576 0.818486
vt 0.079715 0.818486
vt 0.080963 0.849736
vt 0.080824 0.849736
vt 0.080609 0.874989
vt 0.080734 0.874989
vt 0.080734 0.874989
vt 0.080609 0.874989
vt 0.080824 0.849736
vt 0.080963 0.849736
vt 0.079646 0.818486
vt 0.079715 0.816683
vt 0.079486 0.874989
vt 0.079611 0.874989
vt 0.079715 0.849736
vt 0.079576 0.849736
vt 0.033179 0.785433
vt 0.294133 0.591441
vt 0.294887 0.696025
vt 0.294887 0.691755
vt 0.294133 0.572924
vt 0.295390 0.628076
vt 0.311734 0.628076
vt 0.310979 0.729358
vt 0.296145 0.729358
vt 0.311734 0.620330
vt 0.295390 0.620330
vt 0.295390 0.620330
vt 0.311734 0.620330
vt 0.295390 0.525656
vt 0.311734 0.525656
vt 0.311734 0.525656
vt 0.295390 0.525656
vt 0.312991 0.572924
vt 0.312236 0.691755
vt 0.312236 0.696025
vt 0.312991 0.591441
vt 0.295390 0.533504
vt 0.296145 0.658428
vt 0.310979 0.658428
vt 0.311734 0.533504
vt 0.294133 0.564949
vt 0.294133 0.581037
vt 0.294133 0.581037
vt 0.294133 0.564949
vt 0.310979 0.699607
vt 0.296145 0.699607
vt 0.296145 0.703771
vt 0.310979 0.703771
vt 0.312991 0.564949
vt 0.312991 0.581037
vt 0.312991 0.581037
vt 0.312991 0.564949
vt 0.294133 0.533699
vt 0.294501 0.528012
vt 0.294664 0.529056
vt 0.294501 0.533699
vt 0.295390 0.528012
vt 0.295390 0.533699
vt 0.294133 0.612287
vt 0.294501 0.612287
vt 0.294664 0.616930
vt 0.294501 0.617974
vt 0.295390 0.612287
vt 0.295390 0.617974
vt 0.295390 0.527955
vt 0.294499 0.530462
vt 0.294501 0.537223
vt 0.294501 0.528012
vt 0.294133 0.533699
vt 0.294133 0.536074
vt 0.294133 0.541674
vt 0.312991 0.533699
vt 0.312622 0.533699
vt 0.312459 0.529056
vt 0.312622 0.528012
vt 0.311734 0.533699
vt 0.311734 0.528012
vt 0.311734 0.617974
vt 0.312459 0.616930
vt 0.312622 0.617974
vt 0.311734 0.612287
vt 0.312622 0.612287
vt 0.312991 0.612287
vt 0.312622 0.537223
vt 0.312625 0.530462
vt 0.311734 0.527955
vt 0.312991 0.541674
vt 0.312991 0.536074
vt 0.312991 0.533699
vt 0.312622 0.528012
vt 0.294133 0.612287
vt 0.294501 0.617974
vt 0.294499 0.620479
vt 0.294133 0.615325
vt 0.295390 0.622599
vt 0.294501 0.625833
vt 0.295390 0.606974
vt 0.294133 0.622691
vt 0.312991 0.612287
vt 0.312991 0.615325
vt 0.312625 0.620479
vt 0.312622 0.617974
vt 0.312991 0.622691
vt 0.312622 0.625833
vt 0.311734 0.606974
vt 0.311734 0.622599
vt 0.294887 0.727275
vt 0.295256 0.728747
vt 0.295419 0.732949
vt 0.295256 0.732753
vt 0.296145 0.734225
vt 0.296145 0.735021
vt 0.294887 0.660505
vt 0.295256 0.666056
vt 0.295419 0.663838
vt 0.295256 0.659036
vt 0.296145 0.668357
vt 0.296145 0.664588
vt 0.310979 0.664588
vt 0.311705 0.663838
vt 0.311868 0.659036
vt 0.310979 0.668357
vt 0.311868 0.666056
vt 0.312236 0.660505
vt 0.312236 0.727275
vt 0.311868 0.732753
vt 0.311705 0.732949
vt 0.311868 0.728747
vt 0.310979 0.735021
vt 0.310979 0.734225
vt 0.295390 0.564949
vt 0.295390 0.581037
vt 0.294501 0.581037
vt 0.294501 0.564949
vt 0.311734 0.581037
vt 0.311734 0.564949
vt 0.312622 0.564949
vt 0.312622 0.581037
vt 0.295256 0.697306
vt 0.295256 0.701503
vt 0.311868 0.701503
vt 0.311868 0.697306
vt 0.312991 0.584075
vt 0.312991 0.567324
vt 0.294133 0.567324
vt 0.294133 0.584075
vn -0.3416 -0.8756 0.3416
vn -0.3411 -0.8609 -0.3774
vn 0.3774 -0.8609 0.3411
vn 0.0000 -1.0000 0.0000
vn 0.3411 -0.8609 -0.3774
vn -0.3774 -0.8609 0.3411
vn 0.3416 -0.8756 -0.3416
vn 0.3411 -0.8609 0.3774
vn -0.3774 -0.8609 -0.3411
vn -0.3411 -0.8609 0.3774
vn 0.3774 -0.8609 -0.3411
vn 0.0000 0.1170 0.9931
vn 0.3563 -0.2717 0.8940
vn 0.3651 0.1487 0.9190
vn -0.9536 -0.2976 -0.0461
vn -0.8921 -0.3051 0.3332
vn -0.9969 -0.0528 -0.0586
vn 0.3332 -0.3051 -0.8921
vn -0.0461 -0.2976 -0.9536
vn -0.0586 -0.0528 -0.9969
vn 0.8940 -0.2717 0.3563
vn 0.9931 0.1170 0.0000
vn 0.9190 0.1487 0.3651
vn 0.3416 -0.8756 0.3416
vn 0.7634 -0.4596 -0.4539
vn -0.4539 -0.4596 0.7634
vn 0.7064 0.0454 -0.7064
vn -0.0241 -0.6037 -0.7969
vn -0.7969 -0.6037 -0.0241
vn -0.7064 0.0454 0.7064
vn -0.3651 0.1487 0.9190
vn -0.3563 -0.2717 0.8940
vn 0.9536 -0.2976 -0.0461
vn 0.9969 -0.0528 -0.0586
vn 0.8921 -0.3051 0.3332
vn -0.3332 -0.3051 -0.8921
vn 0.0586 -0.0528 -0.9969
vn 0.0461 -0.2976 -0.9536
vn -0.8940 -0.2717 0.3563
vn -0.9190 0.1487 0.3651
vn -0.9931 0.1171 0.0000
vn -0.7634 -0.4596 -0.4539
vn 0.4539 -0.4596 0.7634
vn -0.7064 0.0454 -0.7064
vn 0.0241 -0.6037 -0.7969
vn 0.7969 -0.6037 -0.0241
vn 0.7064 0.0454 0.7064
vn 0.0000 0.1170 -0.9931
vn -0.3563 -0.2717 -0.8940
vn -0.3651 0.1487 -0.9190
vn 0.9536 -0.2976 0.0461
vn 0.8921 -0.3051 -0.3332
vn 0.9969 -0.0528 0.0586
vn -0.3332 -0.3051 0.8921
vn 0.0461 -0.2976 0.9536
vn 0.0586 -0.0528 0.9969
vn -0.8940 -0.2717 -0.3563
vn -0.9190 0.1487 -0.3651
vn -0.3416 -0.8756 -0.3416
vn -0.7634 -0.4596 0.4539
vn 0.4539 -0.4596 -0.7634
vn 0.0241 -0.6037 0.7969
vn 0.7969 -0.6037 0.0241
vn 0.3651 0.1487 -0.9190
vn 0.3563 -0.2717 -0.8940
vn -0.9536 -0.2976 0.0461
vn -0.9969 -0.0528 0.0586
vn -0.8921 -0.3051 -0.3332
vn 0.3332 -0.3051 0.8921
vn -0.0586 -0.0528 0.9969
vn -0.0461 -0.2976 0.9536
vn 0.8940 -0.2717 -0.3563
vn 0.9190 0.1487 -0.3651
vn 0.7634 -0.4596 0.4539
vn -0.4539 -0.4596 -0.7634
vn -0.0241 -0.6037 0.7969
vn -0.7969 -0.6037 0.0241
vn -0.9858 0.0933 0.1394
vn -0.9638 0.2403 0.1156
vn -0.9613 0.1507 -0.2308
vn -0.9783 -0.0607 -0.1980
vn -0.2182 0.4169 0.8824
vn 0.2182 0.4169 0.8824
vn 0.1767 0.4369 0.8820
vn -0.1767 0.4369 0.8820
vn 0.2174 0.9633 0.1575
vn -0.2174 0.9633 0.1575
vn -0.1794 0.9673 0.1794
vn 0.1794 0.9673 0.1794
vn -0.2487 -0.9507 -0.1852
vn 0.2487 -0.9507 -0.1852
vn 0.1794 -0.9673 0.1794
vn -0.1794 -0.9673 0.1794
vn 0.9783 -0.0607 -0.1980
vn 0.9613 0.1507 -0.2308
vn 0.9638 0.2403 0.1156
vn 0.9858 0.0933 0.1394
vn -0.2438 -0.3958 -0.8854
vn -0.1753 -0.0373 -0.9838
vn 0.1753 -0.0373 -0.9838
vn 0.2438 -0.3958 -0.8854
vn -0.9673 -0.1794 0.1794
vn -0.9673 0.1794 0.1794
vn -0.9870 0.1570 0.0347
vn -0.9801 -0.1979 -0.0136
vn 0.1787 0.8895 -0.4205
vn -0.1787 0.8895 -0.4205
vn -0.1792 0.9807 -0.0781
vn 0.1792 0.9807 -0.0781
vn 0.9801 -0.1979 -0.0136
vn 0.9870 0.1570 0.0347
vn 0.9673 0.1794 0.1794
vn 0.9673 -0.1794 0.1794
vn -0.9194 -0.3600 0.1585
vn -0.8881 -0.3251 0.3251
vn -0.9194 -0.1585 0.3600
vn -0.1585 -0.9194 0.3600
vn -0.3251 -0.8881 0.3251
vn -0.3600 -0.9194 0.1585
vn -0.1794 -0.1794 0.9673
vn -0.3600 -0.1585 0.9194
vn -0.3251 -0.3251 0.8881
vn -0.1585 -0.3600 0.9194
vn -0.9194 0.1585 0.3600
vn -0.8881 0.3251 0.3251
vn -0.6965 0.6965 0.1726
vn -0.1794 0.1794 0.9673
vn -0.1726 0.6965 0.6965
vn -0.3251 0.3251 0.8881
vn -0.3600 0.1585 0.9194
vn -0.3251 0.8881 0.3251
vn -0.2721 -0.7558 -0.5956
vn -0.7622 -0.5292 -0.3728
vn -0.7264 -0.2461 -0.6416
vn -0.7252 -0.6848 -0.0710
vn -0.9829 -0.1581 -0.0941
vn 0.9194 -0.1585 0.3600
vn 0.8881 -0.3251 0.3251
vn 0.9194 -0.3600 0.1585
vn 0.1794 -0.1794 0.9673
vn 0.1585 -0.3600 0.9194
vn 0.3251 -0.3251 0.8881
vn 0.3600 -0.1585 0.9194
vn 0.3600 -0.9194 0.1585
vn 0.3251 -0.8881 0.3251
vn 0.1585 -0.9194 0.3600
vn 0.1726 0.6965 0.6965
vn 0.3251 0.8881 0.3251
vn 0.3600 0.9194 0.1585
vn 0.1794 0.1794 0.9673
vn 0.3600 0.1585 0.9194
vn 0.3251 0.3251 0.8881
vn 0.9194 0.3600 0.1585
vn 0.8881 0.3251 0.3251
vn 0.9194 0.1585 0.3600
vn 0.7264 -0.2461 -0.6416
vn 0.7622 -0.5292 -0.3728
vn 0.2721 -0.7558 -0.5956
vn 0.9829 -0.1581 -0.0941
vn 0.7252 -0.6848 -0.0710
vn -0.7560 0.6409 0.1329
vn -0.7811 0.4887 0.3887
vn -0.9900 0.1097 0.0890
vn -0.2454 0.7697 0.5894
vn -0.7499 0.3063 0.5863
vn 0.9900 0.1097 0.0890
vn 0.7811 0.4887 0.3887
vn 0.7560 0.6409 0.1329
vn 0.7499 0.3063 0.5863
vn 0.2454 0.7697 0.5894
vn -0.9165 0.2692 0.2960
vn -0.8870 0.4012 0.2286
vn -0.6958 0.7181 -0.0146
vn -0.1718 0.8559 0.4877
vn -0.3240 0.5518 0.7685
vn -0.3603 0.4069 0.8394
vn -0.3240 0.9424 0.0829
vn -0.6941 0.6319 -0.3449
vn -0.8843 0.2416 -0.3995
vn -0.6872 0.0243 -0.7261
vn -0.1701 0.5099 -0.8432
vn -0.3217 0.7775 -0.5404
vn -0.3217 0.1174 -0.9395
vn 0.1701 0.5099 -0.8432
vn 0.3217 0.1174 -0.9395
vn 0.6872 0.0243 -0.7261
vn 0.6941 0.6319 -0.3449
vn 0.3217 0.7775 -0.5404
vn 0.8844 0.2416 -0.3995
vn 0.6958 0.7181 -0.0146
vn 0.8870 0.4012 0.2286
vn 0.9165 0.2692 0.2960
vn 0.1718 0.8559 0.4877
vn 0.3240 0.9424 0.0829
vn 0.3603 0.4069 0.8394
vn 0.3240 0.5518 0.7685
usemtl furniture_texture
s 1
f 19/1/1 24/2/2 29/3/3
f 16/4/4 6/5/5 11/6/6
f 55/7/7 60/8/8 65/9/9
f 52/10/4 42/11/10 47/12/11
f 12/13/12 3/14/13 4/15/14 15/16/12
f 17/17/15 13/18/16 14/19/17 18/20/17
f 7/21/18 17/22/19 18/23/20 10/24/20
f 2/25/21 8/26/22 9/27/22 5/28/23
f 1/29/24 2/30/21 3/31/13
f 6/32/5 7/33/18 8/34/25
f 11/35/6 12/36/26 13/37/16
f 8/34/25 2/30/21 1/29/24 6/32/5
f 2/38/21 5/39/23 4/40/14 3/41/13
f 9/42/27 8/43/25 7/44/18 10/45/27
f 17/46/19 7/33/18 6/32/5 16/47/28
f 13/37/16 17/46/15 16/47/29 11/35/6
f 14/48/30 13/49/16 12/50/26 15/51/30
f 3/31/13 12/36/26 11/35/6 1/29/24
f 6/5/5 1/52/24 11/6/6
f 30/53/12 33/54/12 22/55/31 21/56/32
f 35/57/33 36/58/34 32/59/34 31/60/35
f 25/61/36 28/62/37 36/63/37 35/64/38
f 20/65/39 23/66/40 27/67/41 26/68/41
f 19/69/1 21/70/32 20/71/39
f 24/72/2 26/73/42 25/74/36
f 29/75/3 31/76/35 30/77/43
f 26/73/42 24/72/2 19/69/1 20/71/39
f 20/78/39 21/79/32 22/80/31 23/81/40
f 27/82/44 28/83/44 25/84/36 26/85/42
f 35/86/38 34/87/45 24/72/2 25/74/36
f 31/76/35 29/75/3 34/87/46 35/86/33
f 32/88/47 33/89/47 30/90/43 31/91/35
f 21/70/32 19/69/1 29/75/3 30/77/43
f 24/2/2 34/92/4 29/3/3
f 48/93/48 39/94/49 40/95/50 51/96/48
f 53/97/51 49/98/52 50/99/53 54/100/53
f 43/101/54 53/102/55 54/103/56 46/104/56
f 38/105/57 44/106/41 45/107/41 41/108/58
f 37/109/59 38/110/57 39/111/49
f 42/112/10 43/113/54 44/114/60
f 47/115/11 48/116/61 49/117/52
f 44/114/60 38/110/57 37/109/59 42/112/10
f 38/118/57 41/119/58 40/120/50 39/121/49
f 45/122/30 44/123/60 43/124/54 46/125/30
f 53/126/55 43/113/54 42/112/10 52/127/62
f 49/117/52 53/126/51 52/127/63 47/115/11
f 50/128/27 49/129/52 48/130/61 51/131/27
f 39/111/49 48/116/61 47/115/11 37/109/59
f 42/11/10 37/132/59 47/12/11
f 66/133/48 69/134/48 58/135/64 57/136/65
f 71/137/66 72/138/67 68/139/67 67/140/68
f 61/141/69 64/142/70 72/143/70 71/144/71
f 56/145/72 59/146/73 63/147/22 62/148/22
f 55/149/7 57/150/65 56/151/72
f 60/152/8 62/153/74 61/154/69
f 65/155/9 67/156/68 66/157/75
f 62/153/74 60/152/8 55/149/7 56/151/72
f 56/158/72 57/159/65 58/160/64 59/161/73
f 63/162/47 64/163/47 61/164/69 62/165/74
f 71/166/71 70/167/76 60/152/8 61/154/69
f 67/156/68 65/155/9 70/167/77 71/166/66
f 68/168/44 69/169/44 66/170/75 67/171/68
f 57/150/65 55/149/7 65/155/9 66/157/75
f 60/8/8 70/172/4 65/9/9
f 122/173/78 137/174/79 144/175/80 90/176/81
f 121/177/82 130/178/83 160/179/84 138/180/85
f 131/181/86 120/182/87 82/183/88 103/184/89
f 88/185/90 113/186/91 98/187/92 74/188/93
f 111/189/94 153/190/95 158/191/96 129/192/97
f 87/193/98 146/194/99 151/195/100 110/196/101
f 73/197/102 80/198/103 119/199/104 89/200/105
f 152/201/106 145/202/107 139/203/108 159/204/109
f 112/205/110 128/206/111 105/207/112 96/208/113
f 73/209/102 76/210/114 77/211/115 79/212/116
f 74/188/93 78/213/117 77/211/118 76/210/119
f 75/214/120 79/212/121 77/211/122 78/213/123
f 80/215/103 83/216/124 84/217/125 86/218/126
f 81/219/127 85/220/128 84/217/129 83/216/130
f 82/183/88 86/218/126 84/217/131 85/220/128
f 87/193/98 91/221/132 92/222/133 95/223/134
f 88/185/90 93/224/135 92/222/133 91/221/132
f 89/225/105 94/226/136 92/222/133 93/224/135
f 90/227/81 95/223/134 92/222/133 94/226/136
f 96/228/113 99/229/137 100/230/138 102/231/139
f 97/232/140 101/233/141 100/230/142 99/229/143
f 98/187/92 102/231/144 100/230/145 101/233/146
f 103/184/89 106/234/147 107/235/148 109/236/149
f 104/237/150 108/238/151 107/235/152 106/234/147
f 105/239/112 109/236/153 107/235/154 108/238/155
f 110/196/101 114/240/156 115/241/157 118/242/158
f 111/243/94 116/244/159 115/241/157 114/240/156
f 112/245/110 117/246/160 115/241/157 116/244/159
f 113/186/91 118/242/158 115/241/157 117/246/160
f 119/247/104 123/248/161 124/249/162 127/250/163
f 120/182/87 125/251/164 124/249/162 123/248/161
f 121/177/82 126/252/165 124/249/162 125/253/164
f 122/254/78 127/250/163 124/249/162 126/252/165
f 128/255/111 132/256/166 133/257/167 136/258/168
f 129/259/97 134/260/169 133/257/167 132/256/166
f 130/178/83 135/261/170 133/257/167 134/260/169
f 131/181/86 136/258/168 133/257/167 135/262/170
f 137/263/79 140/264/171 141/265/172 143/266/173
f 138/180/85 142/267/174 141/265/175 140/264/176
f 139/268/108 143/266/173 141/265/177 142/267/174
f 144/269/80 147/270/178 148/271/179 150/272/180
f 145/273/107 149/274/181 148/271/182 147/270/178
f 146/194/99 150/272/180 148/271/183 149/274/181
f 151/195/100 154/275/184 155/276/185 157/277/186
f 152/278/106 156/279/187 155/276/188 154/275/184
f 153/280/95 157/277/186 155/276/189 156/279/187
f 158/281/96 161/282/190 162/283/191 164/284/192
f 159/285/109 163/286/193 162/283/194 161/282/190
f 160/179/84 164/284/195 162/283/196 163/286/193
f 75/287/120 81/288/127 83/289/130 79/290/121
f 79/290/116 83/289/124 80/198/103 73/197/102
f 113/186/91 88/185/90 91/221/132 118/242/158
f 118/242/158 91/221/132 87/193/98 110/196/101
f 131/181/86 103/184/89 109/236/149 136/258/168
f 136/258/168 109/236/153 105/239/112 128/255/111
f 104/291/150 97/292/140 99/293/143 108/294/151
f 108/294/155 99/293/137 96/208/113 105/207/112
f 74/188/93 98/187/92 101/233/146 78/213/117
f 78/213/123 101/233/141 97/232/140 75/214/120
f 103/184/89 82/183/88 85/220/128 106/234/147
f 106/234/147 85/220/128 81/219/127 104/237/150
f 88/185/90 74/188/93 76/210/119 93/224/135
f 93/224/135 76/210/114 73/209/102 89/225/105
f 82/183/88 120/182/87 123/248/161 86/218/126
f 86/218/126 123/248/161 119/247/104 80/215/103
f 98/187/92 113/186/91 117/246/160 102/231/144
f 102/231/139 117/246/160 112/245/110 96/228/113
f 120/182/87 131/181/86 135/262/170 125/251/164
f 125/253/164 135/261/170 130/178/83 121/177/82
f 139/203/108 145/202/107 147/295/178 143/296/173
f 143/296/173 147/295/178 144/175/80 137/174/79
f 145/273/107 152/278/106 154/275/184 149/274/181
f 149/274/181 154/275/184 151/195/100 146/194/99
f 152/201/106 159/204/109 161/297/190 156/298/187
f 156/298/187 161/297/190 158/191/96 153/190/95
f 138/180/85 160/179/84 163/286/193 142/267/174
f 142/267/174 163/286/193 159/285/109 139/268/108
f 110/196/101 151/195/100 157/277/186 114/240/156
f 114/240/156 157/277/186 153/280/95 111/243/94
f 160/179/84 130/178/83 134/260/169 164/284/195
f 164/284/192 134/260/169 129/259/97 158/281/96
f 121/177/82 138/180/85 140/264/176 126/252/165
f 126/252/165 140/264/171 137/263/79 122/254/78
f 146/194/99 87/193/98 95/223/134 150/272/180
f 150/272/180 95/223/134 90/227/81 144/269/80
f 111/189/94 129/192/97 132/299/166 116/300/159
f 116/300/159 132/299/166 128/206/111 112/205/110
f 122/173/78 90/176/81 94/301/136 127/302/163
f 127/302/163 94/301/136 89/200/105 119/199/104
f 97/292/140 104/291/150 81/288/127 75/287/120
