# Blender v3.4.1 OBJ File: 'Furniture_export.blend'
# www.blender.org
mtllib lamp_standing.mtl
o lamp_standing_Sphere.002
v -0.000000 2.212345 -0.064862
v -0.000000 2.164863 -0.112344
v -0.000000 2.100000 -0.129724
v -0.000000 2.035138 -0.112344
v -0.000000 1.987656 -0.064862
v 0.045864 2.212345 -0.045864
v 0.079439 2.164863 -0.079440
v 0.091729 2.100000 -0.091729
v 0.079439 2.035138 -0.079440
v 0.045864 1.987656 -0.045864
v 0.064862 2.212345 0.000000
v 0.112344 2.164863 0.000000
v 0.129724 2.100000 0.000000
v 0.112344 2.035138 0.000000
v 0.064862 1.987656 0.000000
v 0.045864 2.212345 0.045864
v 0.079439 2.164863 0.079439
v 0.091729 2.100000 0.091729
v 0.079439 2.035138 0.079439
v 0.045864 1.987656 0.045864
v -0.000000 2.212345 0.064862
v -0.000000 2.164863 0.112344
v -0.000000 2.100000 0.129724
v -0.000000 2.035138 0.112344
v -0.000000 1.987656 0.064862
v -0.000000 2.229725 0.000000
v -0.045864 2.212345 0.045864
v -0.079440 2.164863 0.079439
v -0.091729 2.100000 0.091729
v -0.079440 2.035138 0.079439
v -0.045864 1.987656 0.045864
v -0.064862 2.212345 0.000000
v -0.112344 2.164863 0.000000
v -0.129724 2.100000 0.000000
v -0.112344 2.035138 0.000000
v -0.064862 1.987656 0.000000
v -0.045864 2.212345 -0.045864
v -0.079440 2.164863 -0.079440
v -0.091729 2.100000 -0.091729
v -0.079440 2.035138 -0.079440
v -0.045864 1.987656 -0.045864
v 0.045864 1.917656 -0.045864
v -0.000000 1.900276 0.000000
v -0.000000 1.917656 -0.064862
v 0.064862 1.917656 0.000000
v 0.045864 1.917656 0.045864
v -0.000000 1.917656 0.064862
v -0.045864 1.917656 0.045864
v -0.064862 1.917656 0.000000
v -0.045864 1.917656 -0.045864
v -0.000000 1.867656 -0.064862
v 0.045864 1.867656 -0.045864
v 0.064862 1.867656 0.000000
v 0.045864 1.867656 0.045864
v -0.000000 1.867656 0.064862
v -0.045864 1.867656 0.045864
v -0.064862 1.867656 0.000000
v -0.045864 1.867656 -0.045864
v 0.045864 0.100000 -0.045864
v -0.000000 0.100000 -0.064862
v 0.064862 0.100000 0.000000
v 0.045864 0.100000 0.045864
v -0.000000 0.100000 0.064862
v -0.045864 0.100000 0.045864
v -0.064862 0.100000 0.000000
v -0.045864 0.100000 -0.045864
v -0.000000 -0.000000 0.000000
v 0.183458 -0.000000 -0.183458
v -0.000000 -0.000000 -0.259448
v 0.259448 -0.000000 0.000000
v 0.183458 -0.000000 0.183458
v -0.000000 -0.000000 0.259448
v -0.183458 -0.000000 0.183458
v -0.259448 -0.000000 0.000000
v -0.183458 -0.000000 -0.183458
v 0.145189 0.100000 -0.145189
v 0.183458 0.050000 -0.183458
v 0.172249 0.085355 -0.172249
v -0.000000 0.050000 -0.259448
v -0.000000 0.100000 -0.205329
v -0.000000 0.085355 -0.243597
v 0.205329 0.100000 0.000000
v 0.259448 0.050000 0.000000
v 0.243597 0.085355 0.000000
v 0.145189 0.100000 0.145189
v 0.183458 0.050000 0.183458
v 0.172249 0.085355 0.172249
v -0.000000 0.100000 0.205329
v -0.000000 0.050000 0.259448
v -0.000000 0.085355 0.243597
v -0.145189 0.100000 0.145189
v -0.183458 0.050000 0.183458
v -0.172249 0.085355 0.172249
v -0.205329 0.100000 0.000000
v -0.259448 0.050000 0.000000
v -0.243597 0.085355 0.000000
v -0.145189 0.100000 -0.145189
v -0.183458 0.050000 -0.183458
v -0.172249 0.085355 -0.172249
v -0.000000 1.887656 0.000000
v -0.296471 1.800000 0.500000
v -0.500000 1.800000 0.296471
v -0.440388 1.800000 0.440388
v -0.250000 2.500000 0.046471
v -0.046471 2.500000 0.250000
v -0.190388 2.500000 0.190388
v -0.500000 1.800000 -0.296471
v -0.296471 1.800000 -0.500000
v -0.440388 1.800000 -0.440388
v -0.046471 2.500000 -0.250000
v -0.250000 2.500000 -0.046471
v -0.190388 2.500000 -0.190388
v 0.500000 1.800000 0.296471
v 0.296471 1.800000 0.500000
v 0.440388 1.800000 0.440388
v 0.046471 2.500000 0.250000
v 0.250000 2.500000 0.046471
v 0.190388 2.500000 0.190388
v 0.296471 1.800000 -0.500000
v 0.500000 1.800000 -0.296471
v 0.440388 1.800000 -0.440388
v 0.250000 2.500000 -0.046471
v 0.046471 2.500000 -0.250000
v 0.190388 2.500000 -0.190388
v 0.181024 2.500000 -0.032751
v 0.137596 2.500000 -0.137596
v 0.032751 2.500000 -0.181024
v -0.032751 2.500000 -0.181024
v -0.137596 2.500000 -0.137596
v -0.181024 2.500000 -0.032751
v -0.181024 2.500000 0.032751
v -0.137596 2.500000 0.137596
v -0.032751 2.500000 0.181024
v 0.032751 2.500000 0.181024
v 0.137596 2.500000 0.137596
v 0.181024 2.500000 0.032751
v -0.372311 1.815848 -0.372311
v 0.372311 1.815848 -0.372311
v 0.372311 1.815848 0.372311
v -0.372311 1.815848 0.372311
v 0.215512 2.520000 -0.039611
v 0.163992 2.520000 -0.163992
v 0.039611 2.520000 -0.215512
v -0.039611 2.520000 -0.215512
v -0.163992 2.520000 -0.163992
v -0.215512 2.520000 -0.039611
v -0.215512 2.520000 0.039611
v -0.163992 2.520000 0.163992
v -0.039611 2.520000 0.215512
v 0.039611 2.520000 0.215512
v 0.163992 2.520000 0.163992
v 0.215512 2.520000 0.039611
v -0.465512 1.780000 -0.289611
v -0.413992 1.780000 -0.413992
v -0.289611 1.780000 -0.465512
v 0.289611 1.780000 -0.465512
v 0.413992 1.780000 -0.413992
v 0.465512 1.780000 -0.289611
v 0.465512 1.780000 0.289611
v 0.413992 1.780000 0.413992
v 0.289611 1.780000 0.465512
v -0.289611 1.780000 0.465512
v -0.413992 1.780000 0.413992
v -0.465512 1.780000 0.289611
vt 0.046875 0.373823
vt 0.046875 0.381537
vt 0.059778 0.381537
vt 0.054326 0.373823
vt 0.046875 0.392074
vt 0.046875 0.402612
vt 0.059778 0.402612
vt 0.061774 0.392074
vt 0.046875 0.433762
vt 0.046875 0.444398
vt 0.054326 0.433762
vt 0.057411 0.342573
vt 0.054326 0.342573
vt 0.054326 0.331202
vt 0.057411 0.331202
vt 0.046875 0.418137
vt 0.054326 0.418137
vt 0.065124 0.381537
vt 0.057411 0.373823
vt 0.065124 0.402612
vt 0.067949 0.392074
vt 0.057411 0.433762
vt 0.039424 0.342573
vt 0.046875 0.342573
vt 0.046875 0.331202
vt 0.039424 0.331202
vt 0.057411 0.418137
vt 0.059778 0.402612
vt 0.061774 0.392074
vt 0.054326 0.433762
vt 0.054326 0.342573
vt 0.054326 0.331202
vt 0.059778 0.381537
vt 0.054326 0.418137
vt 0.054326 0.373823
vt 0.046875 0.433762
vt 0.046875 0.392074
vt 0.046875 0.381537
vt 0.046875 0.418137
vt 0.046875 0.402612
vt 0.046875 0.373823
vt 0.036337 0.342573
vt 0.036337 0.331202
vt 0.031973 0.392074
vt 0.033969 0.381537
vt 0.039424 0.418137
vt 0.033969 0.402612
vt 0.039424 0.373823
vt 0.039424 0.433762
vt 0.039424 0.342573
vt 0.039424 0.331202
vt 0.025801 0.392074
vt 0.028623 0.381537
vt 0.036337 0.418137
vt 0.028623 0.402612
vt 0.036337 0.373823
vt 0.036337 0.433762
vt 0.046875 0.342573
vt 0.046875 0.331202
vt 0.031973 0.392074
vt 0.033969 0.381537
vt 0.039424 0.418137
vt 0.033969 0.402612
vt 0.039424 0.373823
vt 0.039424 0.433762
vt 0.046875 0.328379
vt 0.800928 0.927874
vt 0.799741 0.927874
vt 0.799741 0.833019
vt 0.800928 0.833019
vt 0.794008 0.927874
vt 0.796874 0.927874
vt 0.796874 0.833019
vt 0.794008 0.833019
vt 0.799741 0.927874
vt 0.799741 0.833019
vt 0.792820 0.927874
vt 0.792820 0.833019
vt 0.794008 0.927874
vt 0.794008 0.833019
vt 0.796874 0.927874
vt 0.796874 0.833019
vt 0.794921 0.772081
vt 0.783455 0.772081
vt 0.778706 0.772081
vt 0.785408 0.818175
vt 0.780659 0.818175
vt 0.780659 0.803331
vt 0.785408 0.803331
vt 0.794921 0.772081
vt 0.796874 0.818175
vt 0.796874 0.803331
vt 0.806387 0.772081
vt 0.808340 0.818175
vt 0.808340 0.803331
vt 0.811136 0.772081
vt 0.813089 0.818175
vt 0.813089 0.803331
vt 0.796874 0.818175
vt 0.808340 0.818175
vt 0.808340 0.803331
vt 0.796874 0.803331
vt 0.794008 0.864269
vt 0.792820 0.864269
vt 0.784041 0.856456
vt 0.787800 0.856456
vt 0.799741 0.864269
vt 0.796874 0.864269
vt 0.796874 0.856456
vt 0.805949 0.856456
vt 0.799741 0.864269
vt 0.800928 0.864269
vt 0.809707 0.856456
vt 0.805949 0.856456
vt 0.794008 0.864269
vt 0.787800 0.856456
vt 0.785408 0.818175
vt 0.785408 0.803331
vt 0.783455 0.772081
vt 0.794921 0.772081
vt 0.806387 0.772081
vt 0.796874 0.864269
vt 0.796874 0.856456
vt 0.796874 0.832103
vt 0.807640 0.832103
vt 0.796874 0.840831
vt 0.805949 0.840831
vt 0.812099 0.832103
vt 0.809707 0.840831
vt 0.805949 0.840831
vt 0.807640 0.832103
vt 0.796874 0.840831
vt 0.796874 0.832103
vt 0.787800 0.840831
vt 0.786108 0.832103
vt 0.784041 0.840831
vt 0.781649 0.832103
vt 0.787800 0.840831
vt 0.786108 0.832103
vt 0.796874 0.929124
vt 0.213548 0.332433
vt 0.191582 0.427054
vt 0.183416 0.427054
vt 0.161450 0.332433
vt 0.231431 0.332433
vt 0.209465 0.427054
vt 0.209465 0.427054
vt 0.231431 0.332433
vt 0.220212 0.334575
vt 0.199589 0.427054
vt 0.203404 0.427054
vt 0.143567 0.332433
vt 0.165533 0.427054
vt 0.165533 0.427054
vt 0.143567 0.332433
vt 0.161450 0.332433
vt 0.183416 0.427054
vt 0.191582 0.427054
vt 0.213548 0.332433
vt 0.170770 0.427054
vt 0.148804 0.332433
vt 0.148804 0.332433
vt 0.170770 0.427054
vt 0.226193 0.332433
vt 0.204228 0.427054
vt 0.226193 0.332433
vt 0.204228 0.427054
vt 0.220212 0.334575
vt 0.203404 0.427054
vt 0.206434 0.477833
vt 0.201908 0.477833
vt 0.199589 0.475129
vt 0.203404 0.475129
vt 0.190979 0.477833
vt 0.190376 0.475129
vt 0.184018 0.477833
vt 0.184621 0.475129
vt 0.173089 0.477833
vt 0.175409 0.475129
vt 0.168563 0.477833
vt 0.171593 0.475129
vt 0.168563 0.477833
vt 0.171593 0.475129
vt 0.173089 0.477833
vt 0.175409 0.475129
vt 0.184018 0.477833
vt 0.184621 0.475129
vt 0.190979 0.477833
vt 0.190376 0.475129
vt 0.201908 0.477833
vt 0.199589 0.475129
vt 0.206434 0.477833
vt 0.203404 0.475129
vt 0.146597 0.281653
vt 0.151123 0.281653
vt 0.154785 0.286499
vt 0.162052 0.281653
vt 0.212945 0.281653
vt 0.220212 0.286499
vt 0.223874 0.281653
vt 0.228401 0.281653
vt 0.228401 0.281653
vt 0.220212 0.286499
vt 0.223874 0.281653
vt 0.212945 0.281653
vt 0.162052 0.281653
vt 0.154785 0.286499
vt 0.151123 0.281653
vt 0.146597 0.281653
vt 0.190376 0.427054
vt 0.154785 0.334575
vt 0.184621 0.427054
vt 0.175409 0.427054
vt 0.171593 0.427054
vt 0.154785 0.334575
vt 0.171593 0.427054
vt 0.175409 0.427054
vt 0.184621 0.427054
vt 0.190376 0.427054
vt 0.199589 0.427054
vt 0.209465 0.475129
vt 0.209465 0.475129
vt 0.204228 0.475129
vt 0.191582 0.475129
vt 0.183416 0.475129
vt 0.170770 0.475129
vt 0.165533 0.475129
vt 0.165533 0.475129
vt 0.170770 0.475129
vt 0.183416 0.475129
vt 0.191582 0.475129
vt 0.204228 0.475129
vt 0.143567 0.284357
vt 0.143567 0.284357
vt 0.148804 0.284357
vt 0.161450 0.284357
vt 0.213548 0.284357
vt 0.226193 0.284357
vt 0.231431 0.284357
vt 0.231431 0.284357
vt 0.226193 0.284357
vt 0.213548 0.284357
vt 0.161450 0.284357
vt 0.148804 0.284357
vn 0.0000 -0.4202 -0.9074
vn -0.0000 -0.4744 -0.8803
vn 0.6225 -0.4744 -0.6225
vn 0.6416 -0.4202 -0.6416
vn -0.0000 -0.0000 -1.0000
vn -0.0000 0.4744 -0.8803
vn 0.6225 0.4744 -0.6225
vn 0.7071 -0.0000 -0.7071
vn -0.0000 0.8383 -0.5452
vn -0.0000 1.0000 -0.0000
vn 0.3855 0.8383 -0.3855
vn 0.9074 -0.4202 0.0000
vn 0.6416 -0.4202 0.6416
vn 0.7071 -0.0000 0.7071
vn 0.9239 0.0000 0.3827
vn 0.8803 -0.4744 0.0000
vn 0.8803 0.4744 -0.0000
vn 1.0000 -0.0000 0.0000
vn 0.5452 0.8383 -0.0000
vn -0.6416 -0.4202 -0.6416
vn -0.3827 0.0000 -0.9239
vn -0.7071 0.0000 -0.7071
vn 0.6225 0.4744 0.6225
vn 0.3855 0.8383 0.3855
vn 0.9239 0.0000 -0.3827
vn 0.6225 -0.4744 0.6225
vn 0.0000 0.8383 0.5452
vn 0.3827 -0.0000 -0.9239
vn 0.0000 -0.0000 1.0000
vn 0.0000 -0.4744 0.8803
vn -0.0000 0.4744 0.8803
vn -0.0000 -0.4202 0.9074
vn -0.9074 -0.4202 0.0000
vn -0.9239 0.0000 -0.3827
vn -0.7071 -0.0000 0.7071
vn -0.6225 -0.4744 0.6225
vn -0.3855 0.8383 0.3855
vn -0.6225 0.4744 0.6225
vn -0.6416 -0.4202 0.6416
vn -0.9239 -0.0000 0.3827
vn -1.0000 -0.0000 -0.0000
vn -0.8803 -0.4744 -0.0000
vn -0.5452 0.8383 -0.0000
vn -0.8803 0.4744 -0.0000
vn -0.3827 0.0000 0.9239
vn -0.6225 -0.4744 -0.6225
vn -0.3855 0.8383 -0.3855
vn -0.6225 0.4744 -0.6225
vn 0.3827 -0.0000 0.9239
vn -0.0000 -1.0000 0.0000
vn -0.0000 -0.9659 -0.2588
vn 0.1830 -0.9659 -0.1830
vn 0.2588 -0.9659 0.0000
vn 0.1830 -0.9659 0.1830
vn -0.0000 -0.9659 0.2588
vn -0.1830 -0.9659 0.1830
vn -0.2588 -0.9659 0.0000
vn -0.1830 -0.9659 -0.1830
vn -0.6929 0.1994 0.6929
vn -0.9799 0.1994 0.0000
vn -0.0000 0.1994 0.9799
vn 0.6929 0.1994 0.6929
vn 0.9799 0.1994 0.0000
vn -0.0000 0.1994 -0.9799
vn 0.6929 0.1994 -0.6929
vn -0.2248 0.9744 0.0000
vn -0.1590 0.9744 0.1590
vn -0.0000 0.9744 0.2248
vn 0.1590 0.9744 0.1590
vn 0.2248 0.9744 0.0000
vn 0.1590 0.9744 -0.1590
vn -0.1590 0.9744 -0.1590
vn -0.6929 0.1994 -0.6929
vn -0.0000 0.9744 -0.2248
vn -0.0000 0.4091 -0.9125
vn 0.6452 0.4091 -0.6452
vn 0.2527 0.9339 -0.2527
vn -0.0000 0.9339 -0.3574
vn 0.9125 0.4091 0.0000
vn 0.3574 0.9339 0.0000
vn 0.2527 0.9339 0.2527
vn 0.6452 0.4091 0.6452
vn -0.0000 0.6824 0.7310
vn -0.5169 0.6824 0.5169
vn -0.3574 0.9339 0.0000
vn -0.9125 0.4091 0.0000
vn -0.2527 0.9339 -0.2527
vn -0.6452 0.4091 -0.6452
vn -0.0000 0.9556 -0.2947
vn -0.2084 0.9556 -0.2084
vn -0.2947 0.9556 0.0000
vn -0.2084 0.9556 0.2084
vn -0.0000 0.9556 0.2947
vn 0.2084 0.9556 0.2084
vn 0.2947 0.9556 0.0000
vn 0.2084 0.9556 -0.2084
vn 0.2058 0.3935 0.8960
vn 0.1323 0.6410 0.7560
vn -0.1323 0.6410 0.7560
vn -0.2058 0.3935 0.8960
vn 0.8960 0.3935 -0.2058
vn 0.7560 0.6410 -0.1323
vn 0.7560 0.6410 0.1323
vn 0.8960 0.3935 0.2058
vn -0.6548 -0.3774 -0.6548
vn -0.6362 -0.4365 -0.6362
vn -0.9343 -0.3292 -0.1369
vn -0.8960 0.3935 0.2058
vn -0.7560 0.6410 0.1323
vn -0.7560 0.6410 -0.1323
vn -0.8960 0.3935 -0.2058
vn -0.2058 0.3935 -0.8960
vn -0.1323 0.6410 -0.7560
vn 0.1323 0.6410 -0.7560
vn 0.2058 0.3935 -0.8960
vn -0.5291 0.6634 0.5291
vn -0.6312 0.4508 0.6312
vn -0.6312 0.4508 -0.6312
vn -0.5291 0.6634 -0.5291
vn 0.6312 0.4508 -0.6312
vn 0.5291 0.6634 -0.5291
vn 0.6312 0.4508 0.6312
vn 0.5291 0.6634 0.5291
vn -0.6548 -0.3774 0.6548
vn -0.9343 -0.3292 0.1369
vn -0.4849 0.8692 0.0965
vn -0.3339 0.8815 0.3339
vn -0.0965 0.8692 0.4849
vn 0.0965 0.8692 0.4849
vn 0.3339 0.8815 0.3339
vn 0.4849 0.8692 0.0965
vn 0.4849 0.8692 -0.0965
vn 0.3339 0.8815 -0.3339
vn 0.0965 0.8692 -0.4849
vn -0.0965 0.8692 -0.4849
vn -0.3339 0.8815 -0.3339
vn -0.4849 0.8692 -0.0965
vn 0.3894 -0.9202 0.0400
vn 0.3674 -0.8544 0.3674
vn 0.2998 -0.9057 0.2998
vn 0.0400 -0.9202 0.3894
vn -0.0400 -0.9202 0.3894
vn -0.2998 -0.9057 0.2998
vn -0.3674 -0.8544 0.3674
vn -0.3894 -0.9202 0.0400
vn -0.3894 -0.9202 -0.0400
vn -0.2998 -0.9057 -0.2998
vn -0.3674 -0.8544 -0.3674
vn -0.0400 -0.9202 -0.3894
vn 0.0400 -0.9202 -0.3894
vn 0.2998 -0.9057 -0.2998
vn 0.3674 -0.8544 -0.3674
vn 0.3894 -0.9202 -0.0400
vn -0.1369 -0.3292 -0.9343
vn 0.6548 -0.3774 -0.6548
vn 0.1369 -0.3292 -0.9343
vn 0.6362 -0.4365 -0.6362
vn 0.9343 -0.3292 -0.1369
vn 0.6548 -0.3774 0.6548
vn 0.9343 -0.3292 0.1369
vn 0.6362 -0.4365 0.6362
vn 0.1369 -0.3292 0.9343
vn -0.1369 -0.3292 0.9343
vn -0.6362 -0.4365 0.6362
vn -0.4849 -0.8692 0.0965
vn -0.4849 -0.8692 -0.0965
vn -0.3339 -0.8815 0.3339
vn -0.0965 -0.8692 0.4849
vn 0.0965 -0.8692 0.4849
vn 0.3339 -0.8815 0.3339
vn 0.4849 -0.8692 0.0965
vn 0.4849 -0.8692 -0.0965
vn 0.3339 -0.8815 -0.3339
vn 0.0965 -0.8692 -0.4849
vn -0.0965 -0.8692 -0.4849
vn -0.3339 -0.8815 -0.3339
usemtl furniture_texture
s 1
f 5/1/1 4/2/2 9/3/3 10/4/4
f 3/5/5 2/6/6 7/7/7 8/8/8
f 1/9/9 26/10/10 6/11/11
f 15/12/12 20/13/13 46/14/14 45/15/15
f 4/2/2 3/5/5 8/8/8 9/3/3
f 2/6/6 1/16/9 6/17/11 7/7/7
f 10/4/4 9/3/3 14/18/16 15/19/12
f 8/8/8 7/7/7 12/20/17 13/21/18
f 6/11/11 26/10/10 11/22/19
f 41/23/20 5/24/1 44/25/21 50/26/22
f 9/3/3 8/8/8 13/21/18 14/18/16
f 7/7/7 6/17/11 11/27/19 12/20/17
f 13/21/18 12/20/17 17/28/23 18/29/14
f 11/22/19 26/10/10 16/30/24
f 10/31/4 15/12/12 45/15/25 42/32/8
f 14/18/16 13/21/18 18/29/14 19/33/26
f 12/20/17 11/27/19 16/34/24 17/28/23
f 15/19/12 14/18/16 19/33/26 20/35/13
f 16/30/24 26/10/10 21/36/27
f 5/24/1 10/31/4 42/32/8 44/25/28
f 19/33/26 18/29/14 23/37/29 24/38/30
f 17/28/23 16/34/24 21/39/27 22/40/31
f 20/35/13 19/33/26 24/38/30 25/41/32
f 18/29/14 17/28/23 22/40/31 23/37/29
f 36/42/33 41/23/20 50/26/22 49/43/34
f 24/38/30 23/37/29 29/44/35 30/45/36
f 22/40/31 21/39/27 27/46/37 28/47/38
f 25/41/32 24/38/30 30/45/36 31/48/39
f 23/37/29 22/40/31 28/47/38 29/44/35
f 21/36/27 26/10/10 27/49/37
f 31/50/39 36/42/33 49/43/40 48/51/35
f 30/45/36 29/44/35 34/52/41 35/53/42
f 28/47/38 27/46/37 32/54/43 33/55/44
f 31/48/39 30/45/36 35/53/42 36/56/33
f 29/44/35 28/47/38 33/55/44 34/52/41
f 27/49/37 26/10/10 32/57/43
f 25/58/32 31/50/39 48/51/35 47/59/45
f 35/53/42 34/52/41 39/60/22 40/61/46
f 33/55/44 32/54/43 37/62/47 38/63/48
f 36/56/33 35/53/42 40/61/46 41/64/20
f 34/52/41 33/55/44 38/63/48 39/60/22
f 32/57/43 26/10/10 37/65/47
f 40/61/46 39/60/22 3/5/5 4/2/2
f 38/63/48 37/62/47 1/16/9 2/6/6
f 41/64/20 40/61/46 4/2/2 5/1/1
f 39/60/22 38/63/48 2/6/6 3/5/5
f 37/65/47 26/10/10 1/9/9
f 20/13/13 25/58/32 47/59/49 46/14/14
f 43/66/50 44/25/51 42/32/52
f 43/66/50 42/32/52 45/15/53
f 43/66/50 45/15/53 46/14/54
f 43/66/50 46/14/54 47/59/55
f 43/66/50 47/59/55 48/51/56
f 43/66/50 48/51/56 49/43/57
f 43/66/50 49/43/57 50/26/58
f 43/66/50 50/26/58 44/25/51
f 53/67/15 54/68/14 62/69/14 61/70/15
f 58/71/22 51/72/21 60/73/21 66/74/22
f 52/75/8 53/67/25 61/70/25 59/76/8
f 51/72/28 52/75/8 59/76/8 60/73/28
f 57/77/34 58/71/22 66/74/22 65/78/34
f 56/79/35 57/77/40 65/78/40 64/80/35
f 55/81/45 56/79/35 64/80/35 63/82/45
f 54/68/14 55/81/49 63/82/49 62/69/14
f 67/83/50 73/84/50 74/85/50
f 92/86/59 95/87/60 74/88/40 73/89/35
f 67/83/50 72/90/50 73/84/50
f 89/91/61 92/86/59 73/89/35 72/92/45
f 67/83/50 71/93/50 72/90/50
f 86/94/62 89/91/61 72/92/49 71/95/14
f 67/83/50 70/96/50 71/93/50
f 83/97/63 86/94/62 71/95/14 70/98/15
f 79/99/64 77/100/65 68/101/8 69/102/28
f 64/103/10 65/104/10 94/105/66 91/106/67
f 62/107/10 63/108/10 88/109/68 85/110/69
f 59/111/10 61/112/10 82/113/70 76/114/71
f 61/112/10 62/107/10 85/110/69 82/113/70
f 65/104/10 66/115/10 97/116/72 94/105/66
f 63/108/10 64/103/10 91/106/67 88/109/68
f 95/87/60 98/117/73 75/118/22 74/88/34
f 67/83/50 74/85/50 75/119/50
f 98/117/73 79/99/64 69/102/21 75/118/22
f 77/100/65 83/97/63 70/98/25 68/101/8
f 67/83/50 75/119/50 69/120/50
f 67/83/50 69/120/50 68/121/50
f 66/115/10 60/122/10 80/123/74 97/116/72
f 67/83/50 68/121/50 70/96/50
f 77/100/65 79/99/64 81/124/75 78/125/76
f 78/125/77 81/124/78 80/126/74 76/127/71
f 83/97/63 77/100/65 78/125/76 84/128/79
f 84/128/80 78/125/77 76/127/71 82/129/70
f 82/129/70 85/130/69 87/131/81 84/128/80
f 84/128/79 87/131/82 86/94/62 83/97/63
f 85/130/69 88/132/68 90/133/83 87/131/81
f 87/131/82 90/133/83 89/91/61 86/94/62
f 88/132/68 91/134/67 93/135/84 90/133/83
f 90/133/83 93/135/84 92/86/59 89/91/61
f 91/134/67 94/136/66 96/137/85 93/135/84
f 93/135/84 96/137/86 95/87/60 92/86/59
f 94/136/66 97/138/72 99/139/87 96/137/85
f 96/137/86 99/139/88 98/117/73 95/87/60
f 79/99/64 98/117/73 99/139/88 81/124/75
f 81/124/78 99/139/87 97/138/72 80/126/74
f 60/122/10 59/111/10 76/114/71 80/123/74
f 51/72/89 58/71/90 100/140/10
f 58/71/90 57/77/91 100/140/10
f 57/77/91 56/79/92 100/140/10
f 56/79/92 55/81/93 100/140/10
f 55/81/93 54/68/94 100/140/10
f 54/68/94 53/67/95 100/140/10
f 53/67/95 52/75/96 100/140/10
f 52/75/96 51/72/89 100/140/10
f 114/141/97 116/142/98 105/143/99 101/144/100
f 120/145/101 122/146/102 117/147/103 113/148/104
f 139/149/105 135/150/106 136/151/107
f 102/152/108 104/153/109 111/154/110 107/155/111
f 108/156/112 110/157/113 123/158/114 119/159/115
f 101/144/100 105/143/99 106/160/116 103/161/117
f 103/161/117 106/160/116 104/153/109 102/152/108
f 110/157/113 108/156/112 109/162/118 112/163/119
f 112/163/119 109/162/118 107/155/111 111/154/110
f 122/146/102 120/145/101 121/164/120 124/165/121
f 124/165/121 121/164/120 119/159/115 123/158/114
f 116/142/98 114/141/97 115/166/122 118/167/123
f 118/167/123 115/166/122 113/148/104 117/147/103
f 138/168/124 139/149/105 136/151/107 125/169/125
f 141/170/126 142/171/127 126/172/127 125/173/126
f 142/171/127 143/174/128 127/175/128 126/172/127
f 143/174/128 144/176/129 128/177/129 127/175/128
f 144/176/129 145/178/130 129/179/130 128/177/129
f 145/178/130 146/180/131 130/181/131 129/179/130
f 146/180/131 147/182/132 131/183/132 130/181/131
f 147/182/132 148/184/133 132/185/133 131/183/132
f 148/184/133 149/186/134 133/187/134 132/185/133
f 149/186/134 150/188/135 134/189/135 133/187/134
f 150/188/135 151/190/136 135/191/136 134/189/135
f 151/190/136 152/192/137 136/193/137 135/191/136
f 152/192/137 141/170/126 125/173/126 136/193/137
f 153/194/138 154/195/139 137/196/140
f 154/195/139 155/197/141 137/196/140
f 155/197/141 156/198/142 138/199/143 137/196/140
f 156/198/142 157/200/144 138/199/143
f 157/200/144 158/201/145 138/199/143
f 158/201/145 159/202/146 139/203/147 138/199/143
f 159/202/146 160/204/148 139/203/147
f 160/204/148 161/205/149 139/203/147
f 161/205/149 162/206/150 140/207/151 139/203/147
f 162/206/150 163/208/152 140/207/151
f 163/208/152 164/209/153 140/207/151
f 164/209/153 153/194/138 137/196/140 140/207/151
f 139/149/105 134/210/154 135/150/106
f 139/149/105 140/211/155 133/212/156 134/210/154
f 140/211/155 132/213/157 133/212/156
f 140/211/155 131/214/158 132/213/157
f 140/211/155 137/215/159 130/216/160 131/214/158
f 137/215/159 129/217/161 130/216/160
f 137/215/159 128/218/162 129/217/161
f 137/215/159 138/168/124 127/219/163 128/218/162
f 138/168/124 126/220/164 127/219/163
f 138/168/124 125/169/125 126/220/164
f 117/221/103 122/222/102 141/170/132 152/192/131
f 118/223/123 117/221/103 152/192/131 151/190/130
f 116/224/98 118/223/123 151/190/130 150/188/129
f 105/225/99 116/224/98 150/188/129 149/186/128
f 106/226/116 105/225/99 149/186/128 148/184/127
f 104/227/109 106/226/116 148/184/127 147/182/126
f 111/228/110 104/227/109 147/182/126 146/180/137
f 112/229/119 111/228/110 146/180/137 145/178/136
f 110/230/113 112/229/119 145/178/136 144/176/135
f 123/231/114 110/230/113 144/176/135 143/174/134
f 124/232/121 123/231/114 143/174/134 142/171/133
f 122/222/102 124/232/121 142/171/133 141/170/132
f 102/233/165 107/234/166 153/194/166 164/209/165
f 103/235/167 102/233/165 164/209/165 163/208/167
f 101/236/168 103/235/167 163/208/167 162/206/168
f 114/237/169 101/236/168 162/206/168 161/205/169
f 115/238/170 114/237/169 161/205/169 160/204/170
f 113/239/171 115/238/170 160/204/170 159/202/171
f 120/240/172 113/239/171 159/202/171 158/201/172
f 121/241/173 120/240/172 158/201/172 157/200/173
f 119/242/174 121/241/173 157/200/173 156/198/174
f 108/243/175 119/242/174 156/198/174 155/197/175
f 109/244/176 108/243/175 155/197/175 154/195/176
f 107/234/166 109/244/176 154/195/176 153/194/166
