# Blender v3.4.1 OBJ File: 'Furniture_export.blend'
# www.blender.org
mtllib pictureframe_small_A.mtl
o pictureframe_small_A_Cube.014
v -0.250000 0.280000 0.180000
v -0.230000 0.280000 0.200000
v -0.230000 0.300000 0.180000
v 0.230000 0.280000 0.200000
v 0.250000 0.280000 0.180000
v 0.230000 0.300000 0.180000
v -0.250000 0.280000 0.020000
v -0.230000 0.300000 0.020000
v -0.230000 0.280000 0.000000
v 0.250000 0.280000 0.020000
v 0.230000 0.280000 -0.000000
v 0.230000 0.300000 0.020000
v -0.250000 -0.280000 0.180000
v -0.230000 -0.300000 0.180000
v -0.230000 -0.280000 0.200000
v 0.250000 -0.280000 0.180000
v 0.230000 -0.280000 0.200000
v 0.230000 -0.300000 0.180000
v -0.250000 -0.280000 0.020000
v -0.230000 -0.280000 0.000000
v -0.230000 -0.300000 0.020000
v 0.250000 -0.280000 0.020000
v 0.230000 -0.300000 0.020000
v 0.230000 -0.280000 -0.000000
v -0.132732 -0.181893 0.150000
v -0.161440 -0.211440 0.200000
v 0.161440 -0.211440 0.200000
v 0.132732 -0.181893 0.150000
v 0.161440 0.211440 0.200000
v 0.132732 0.181893 0.150000
v -0.132732 0.181893 0.150000
v -0.161440 0.211440 0.200000
vt 0.401546 0.892169
vt 0.401546 0.848968
vt 0.402791 0.855406
vt 0.402791 0.885730
vt 0.401546 0.815839
vt 0.409901 0.815839
vt 0.409901 0.815839
vt 0.401546 0.815839
vt 0.409901 0.848968
vt 0.408655 0.855406
vt 0.923588 0.913558
vt 0.923588 0.941558
vt 0.917995 0.941558
vt 0.917995 0.913558
vt 0.401546 0.925298
vt 0.409901 0.925298
vt 0.409901 0.925298
vt 0.401546 0.925298
vt 0.409901 0.892169
vt 0.408655 0.885730
vt 0.401546 0.892169
vt 0.409901 0.892169
vt 0.409901 0.848968
vt 0.401546 0.848968
vt 0.410264 0.833343
vt 0.410264 0.876544
vt 0.410264 0.876544
vt 0.410264 0.833343
vt 0.448634 0.954669
vt 0.448943 0.954669
vt 0.448943 0.956548
vt 0.456058 0.954669
vt 0.456367 0.954669
vt 0.456058 0.956548
vt 0.448634 0.954669
vt 0.448943 0.956548
vt 0.448943 0.954669
vt 0.456367 0.954669
vt 0.456058 0.954669
vt 0.456058 0.956548
vt 0.448634 0.848968
vt 0.448943 0.847089
vt 0.448943 0.848968
vt 0.456367 0.848968
vt 0.456058 0.848968
vt 0.456058 0.847089
vt 0.448634 0.848968
vt 0.448943 0.848968
vt 0.448943 0.847089
vt 0.456367 0.848968
vt 0.456058 0.847089
vt 0.456058 0.848968
vt 0.448634 0.880218
vt 0.448634 0.923419
vt 0.448943 0.923419
vt 0.448943 0.880218
vt 0.456367 0.923419
vt 0.456367 0.880218
vt 0.456058 0.880218
vt 0.456058 0.923419
vt 0.448634 0.923419
vt 0.448634 0.880218
vt 0.448943 0.880218
vt 0.448943 0.923419
vt 0.456367 0.880218
vt 0.456367 0.923419
vt 0.456058 0.923419
vt 0.456058 0.880218
vt 0.408134 0.889432
vt 0.403313 0.889432
vt 0.402791 0.886656
vt 0.408655 0.886656
vt 0.402791 0.870105
vt 0.402791 0.839781
vt 0.403313 0.842557
vt 0.403313 0.867330
vt 0.408655 0.839781
vt 0.408655 0.870105
vt 0.408134 0.867330
vt 0.408134 0.842557
vt 0.403313 0.851705
vt 0.408134 0.851705
vt 0.408655 0.854480
vt 0.402791 0.854480
vt 0.401183 0.876544
vt 0.401183 0.833343
vt 0.401183 0.833343
vt 0.401183 0.876544
vn 0.0000 0.0000 1.0000
vn 0.0000 -1.0000 0.0000
vn -0.3416 0.8756 0.3416
vn -0.0000 1.0000 0.0000
vn -0.3416 0.8756 -0.3416
vn -0.0000 -0.0000 -1.0000
vn 0.8756 -0.3416 -0.3416
vn 0.8756 0.3416 -0.3416
vn 0.8756 0.3416 0.3416
vn 0.8756 -0.3416 0.3416
vn -0.7588 0.4606 0.4606
vn -0.4606 0.4606 0.7588
vn 0.4606 0.4606 0.7588
vn 0.4606 0.7588 0.4606
vn -0.8756 0.3416 -0.3416
vn -0.4606 0.4606 -0.7588
vn 0.4606 0.4606 -0.7588
vn 0.4606 0.7588 -0.4606
vn -0.8756 -0.3416 0.3416
vn -0.4606 -0.7588 0.4606
vn -0.4606 -0.4606 0.7588
vn 0.4606 -0.4606 0.7588
vn 0.4606 -0.7588 0.4606
vn -0.8756 -0.3416 -0.3416
vn -0.4606 -0.4606 -0.7588
vn -0.4606 -0.7588 -0.4606
vn 0.4606 -0.7588 -0.4606
vn 0.4606 -0.4606 -0.7588
vn -0.0000 0.8609 0.5088
vn 0.8672 0.0000 0.4979
vn -0.8672 -0.0000 0.4979
vn 0.0000 -0.8609 0.5088
vn -1.0000 -0.0000 0.0000
usemtl furniture_texture
s 1
f 2/1/1 15/2/1 26/3/1 32/4/1
f 21/5/2 23/6/2 18/7/2 14/8/2
f 15/2/1 17/9/1 27/10/1 26/3/1
f 28/11/1 30/12/1 31/13/1 25/14/1
f 3/15/3 6/16/4 12/17/4 8/18/5
f 17/9/1 4/19/1 29/20/1 27/10/1
f 9/21/6 11/22/6 24/23/6 20/24/6
f 22/25/7 10/26/8 5/27/9 16/28/10
f 4/19/1 2/1/1 32/4/1 29/20/1
f 1/29/11 2/30/12 3/31/3
f 4/32/13 5/33/9 6/34/14
f 7/35/15 8/36/5 9/37/16
f 10/38/8 11/39/17 12/40/18
f 13/41/19 14/42/20 15/43/21
f 16/44/10 17/45/22 18/46/23
f 19/47/24 20/48/25 21/49/26
f 22/50/7 23/51/27 24/52/28
f 7/35/15 1/29/11 3/31/3 8/36/5
f 2/30/12 4/32/13 6/34/14 3/31/3
f 5/33/9 10/38/8 12/40/18 6/34/14
f 11/39/17 9/37/16 8/36/5 12/40/18
f 19/53/24 7/54/15 9/55/16 20/56/25
f 10/57/8 22/58/7 24/59/28 11/60/17
f 23/51/27 21/49/26 20/48/25 24/52/28
f 13/41/19 19/47/24 21/49/26 14/42/20
f 22/50/7 16/44/10 18/46/23 23/51/27
f 17/45/22 15/43/21 14/42/20 18/46/23
f 1/61/11 13/62/19 15/63/21 2/64/12
f 16/65/10 5/66/9 4/67/13 17/68/22
f 28/69/29 25/70/29 26/71/29 27/72/29
f 32/73/30 26/74/30 25/75/30 31/76/30
f 27/77/31 29/78/31 30/79/31 28/80/31
f 31/81/32 30/82/32 29/83/32 32/84/32
f 7/85/15 19/86/24 13/87/19 1/88/33
