# Blender v3.4.1 OBJ File: 'Furniture_export.blend'
# www.blender.org
mtllib pictureframe_standing_B.mtl
o pictureframe_standing_B_Cube.023
v -0.350000 0.449181 0.015727
v -0.330000 0.456022 0.034521
v -0.330000 0.467975 0.008886
v 0.330000 0.456022 0.034520
v 0.350000 0.449181 0.015727
v 0.330000 0.467975 0.008886
v -0.350000 0.394458 -0.134624
v -0.330000 0.413252 -0.141465
v -0.330000 0.387618 -0.153418
v 0.350000 0.394458 -0.134624
v 0.330000 0.387618 -0.153418
v 0.330000 0.413252 -0.141465
v -0.350000 0.073304 0.152535
v -0.330000 0.054511 0.159375
v -0.330000 0.080145 0.171329
v 0.350000 0.073304 0.152535
v 0.330000 0.080145 0.171328
v 0.330000 0.054511 0.159375
v -0.350000 0.018581 0.002184
v -0.330000 0.011741 -0.016610
v -0.330000 -0.000213 0.009024
v 0.350000 0.018581 0.002184
v 0.330000 -0.000213 0.009024
v 0.330000 0.011741 -0.016610
v -0.232732 0.155235 0.090789
v -0.261440 0.144570 0.147880
v 0.261440 0.144570 0.147880
v 0.232732 0.155235 0.090789
v 0.261440 0.391597 0.057969
v 0.232732 0.346730 0.021090
v -0.232732 0.346730 0.021091
v -0.261440 0.391597 0.057969
v -0.039092 0.314506 -0.013229
v -0.039092 0.340766 -0.085378
v 0.038972 0.314506 -0.013229
v 0.038972 0.340766 -0.085378
v -0.106484 0.038905 -0.113540
v -0.062263 -0.000152 -0.168608
v -0.106484 0.065165 -0.185689
v 0.062148 -0.000152 -0.168608
v 0.106369 0.038904 -0.113540
v 0.106369 0.065164 -0.185689
vt 0.399730 0.883237
vt 0.399730 0.847935
vt 0.400975 0.853986
vt 0.400975 0.877187
vt 0.399730 0.809139
vt 0.411717 0.809139
vt 0.411717 0.814278
vt 0.399730 0.814278
vt 0.411717 0.847935
vt 0.410472 0.853986
vt 0.925695 0.909948
vt 0.925695 0.930276
vt 0.915889 0.930276
vt 0.915889 0.909948
vt 0.399730 0.915610
vt 0.411717 0.915610
vt 0.411717 0.910470
vt 0.399730 0.910470
vt 0.411717 0.883237
vt 0.410471 0.877187
vt 0.399730 0.876813
vt 0.411717 0.876813
vt 0.411717 0.841512
vt 0.399730 0.841512
vt 0.412080 0.826529
vt 0.412080 0.861830
vt 0.412080 0.866970
vt 0.412080 0.831668
vt 0.447087 0.945095
vt 0.447397 0.945737
vt 0.447397 0.946860
vt 0.457604 0.945737
vt 0.457913 0.945095
vt 0.457604 0.946860
vt 0.447087 0.939955
vt 0.447397 0.941720
vt 0.447397 0.939313
vt 0.457913 0.939955
vt 0.457604 0.939313
vt 0.457604 0.941720
vt 0.447087 0.847293
vt 0.447397 0.845528
vt 0.447397 0.847935
vt 0.457913 0.847293
vt 0.457604 0.847935
vt 0.457604 0.845528
vt 0.447087 0.842154
vt 0.447397 0.841512
vt 0.447397 0.840389
vt 0.412080 0.842154
vt 0.411717 0.840389
vt 0.447087 0.873404
vt 0.447087 0.908705
vt 0.447397 0.908063
vt 0.447397 0.872762
vt 0.457913 0.908705
vt 0.457913 0.873404
vt 0.457604 0.872762
vt 0.457604 0.908063
vt 0.457604 0.840389
vt 0.457604 0.841512
vt 0.457913 0.842154
vt 0.447087 0.913845
vt 0.447087 0.878543
vt 0.447397 0.879185
vt 0.447397 0.914487
vt 0.457913 0.878543
vt 0.457913 0.913845
vt 0.457604 0.914487
vt 0.457604 0.879185
vt 0.409950 0.886238
vt 0.401496 0.886238
vt 0.400975 0.885236
vt 0.410472 0.885236
vt 0.400975 0.861562
vt 0.400975 0.838361
vt 0.401496 0.839363
vt 0.401496 0.857348
vt 0.410472 0.838361
vt 0.410471 0.861562
vt 0.409950 0.857348
vt 0.409950 0.839363
vt 0.401496 0.841723
vt 0.409950 0.841723
vt 0.410471 0.845937
vt 0.400975 0.845937
vt 0.399366 0.861830
vt 0.399366 0.826529
vt 0.399366 0.831668
vt 0.399366 0.866970
vt 0.407655 0.797188
vt 0.406431 0.823071
vt 0.405013 0.823071
vt 0.403789 0.797188
vt 0.407655 0.815279
vt 0.406431 0.841162
vt 0.406431 0.838696
vt 0.407655 0.812813
vt 0.403789 0.830904
vt 0.405013 0.856787
vt 0.406431 0.856787
vt 0.407655 0.830904
vt 0.403789 0.812813
vt 0.405013 0.838696
vt 0.405013 0.841162
vt 0.403789 0.815279
vt 0.404592 0.809145
vt 0.406852 0.809145
vt 0.404592 0.824770
vt 0.406852 0.824770
vt 0.406852 0.793520
vt 0.404592 0.793520
vn 0.0000 0.3420 0.9397
vn -0.3416 -0.9396 -0.0215
vn 0.3416 -0.9396 -0.0215
vn 0.0000 -0.9397 0.3420
vn -0.3416 -0.7059 0.6205
vn -0.3416 0.9396 0.0215
vn -0.0000 0.9397 -0.3420
vn -0.3416 0.7059 -0.6205
vn -0.0000 -0.3420 -0.9397
vn 0.8756 -0.4378 -0.2042
vn 0.8756 0.2042 -0.4378
vn 0.8756 0.4378 0.2042
vn 0.8756 -0.2042 0.4378
vn -0.7588 0.5903 0.2753
vn -0.4606 0.6923 0.5555
vn 0.4606 0.6923 0.5555
vn 0.4606 0.8706 0.1733
vn -0.7588 0.2753 -0.5903
vn -0.4606 0.1733 -0.8706
vn 0.4606 0.1733 -0.8706
vn 0.4606 0.5555 -0.6923
vn -0.7588 -0.2753 0.5903
vn -0.4606 -0.1733 0.8706
vn 0.4606 -0.1733 0.8706
vn 0.4606 -0.5555 0.6923
vn -0.7588 -0.5903 -0.2753
vn -0.4606 -0.6923 -0.5555
vn 0.4606 -0.6923 -0.5555
vn -0.0000 0.9830 0.1836
vn 0.8672 0.1703 0.4679
vn -0.8672 0.1703 0.4679
vn 0.0000 -0.6350 0.7725
vn -1.0000 -0.0000 0.0000
vn -0.0000 -0.5681 0.8229
vn 0.0000 -0.3420 0.9397
vn 0.9746 0.2105 0.0766
vn -0.0000 0.0938 -0.9956
vn 0.0000 0.3420 -0.9397
vn -0.9746 0.2104 0.0766
vn -0.7823 -0.5854 -0.2131
vn 0.7823 -0.5853 -0.2130
vn -0.0000 -0.2530 -0.9675
vn -0.0000 -0.8157 0.5785
usemtl furniture_texture
s 1
f 2/1/1 15/2/1 26/3/1 32/4/1
f 21/5/2 23/6/3 18/7/4 14/8/5
f 15/2/1 17/9/1 27/10/1 26/3/1
f 28/11/1 30/12/1 31/13/1 25/14/1
f 3/15/6 6/16/7 12/17/7 8/18/8
f 17/9/1 4/19/1 29/20/1 27/10/1
f 9/21/9 11/22/9 24/23/9 20/24/9
f 22/25/10 10/26/11 5/27/12 16/28/13
f 4/19/1 2/1/1 32/4/1 29/20/1
f 1/29/14 2/30/15 3/31/6
f 4/32/16 5/33/12 6/34/17
f 7/35/18 8/36/8 9/37/19
f 10/38/11 11/39/20 12/40/21
f 13/41/22 14/42/5 15/43/23
f 16/44/13 17/45/24 18/46/25
f 19/47/26 20/48/27 21/49/2
f 22/50/10 23/51/3 24/23/28
f 7/35/18 1/29/14 3/31/6 8/36/8
f 2/30/15 4/32/16 6/34/17 3/31/6
f 5/33/12 10/38/11 12/40/21 6/34/17
f 11/39/20 9/37/19 8/36/8 12/40/21
f 19/52/26 7/53/18 9/54/19 20/55/27
f 10/56/11 22/57/10 24/58/28 11/59/20
f 23/60/3 21/49/2 20/48/27 24/61/28
f 13/41/22 19/47/26 21/49/2 14/42/5
f 22/62/10 16/44/13 18/46/25 23/60/3
f 17/45/24 15/43/23 14/42/5 18/46/25
f 1/63/14 13/64/22 15/65/23 2/66/15
f 16/67/13 5/68/12 4/69/16 17/70/24
f 28/71/29 25/72/29 26/73/29 27/74/29
f 32/75/30 26/76/30 25/77/30 31/78/30
f 27/79/31 29/80/31 30/81/31 28/82/31
f 31/83/32 30/84/32 29/85/32 32/86/32
f 7/87/33 19/88/33 13/89/33 1/90/33
f 41/91/34 35/92/35 33/93/35 37/94/34
f 42/95/36 36/96/36 35/97/36 41/98/36
f 39/99/37 34/100/38 36/101/38 42/102/37
f 37/103/39 33/104/39 34/105/39 39/106/39
f 38/107/40 37/103/40 39/106/40
f 40/108/41 42/95/41 41/98/41
f 38/109/42 39/99/37 42/102/37 40/110/42
f 40/111/43 41/91/34 37/94/34 38/112/43
