# Blender v3.4.1 OBJ File: 'Furniture_export.blend'
# www.blender.org
mtllib pillow_A.mtl
o pillow_A_Cube.006
v -0.194124 -0.100000 0.121103
v -0.194124 -0.081589 0.212247
v -0.269685 -0.073433 0.195522
v -0.286667 -0.081589 0.121103
v -0.000000 0.077857 -0.000000
v -0.194124 0.081589 0.212247
v -0.269685 0.073433 0.195522
v -0.286667 0.081589 0.121103
v -0.194124 -0.100000 -0.121103
v -0.286667 -0.081589 -0.121103
v -0.269685 -0.073433 -0.195522
v -0.194124 -0.081589 -0.212247
v -0.194124 0.081589 -0.212247
v -0.269685 0.073433 -0.195522
v -0.286667 0.081589 -0.121103
v 0.194124 -0.100000 0.121103
v 0.286667 -0.081589 0.121103
v 0.269685 -0.073433 0.195522
v 0.194124 -0.081589 0.212247
v 0.194124 0.081589 0.212247
v 0.269685 0.073433 0.195522
v 0.286667 0.081589 0.121103
v 0.194124 -0.100000 -0.121103
v 0.194124 -0.081589 -0.212247
v 0.269685 -0.073433 -0.195522
v 0.286667 -0.081589 -0.121103
v 0.286667 0.081589 -0.121103
v 0.269685 0.073433 -0.195522
v 0.194124 0.081589 -0.212247
v -0.194124 -0.000000 0.250000
v -0.286667 -0.000000 0.212247
v -0.325000 -0.000000 0.121103
v -0.194124 0.000000 -0.250000
v -0.286667 0.000000 -0.212247
v -0.325000 0.000000 -0.121103
v 0.325000 -0.000000 -0.121103
v 0.286667 -0.000000 -0.212247
v 0.194124 -0.000000 -0.250000
v 0.194124 0.000000 0.250000
v 0.286667 0.000000 0.212247
v 0.325000 0.000000 0.121103
v -0.194124 0.100000 0.121103
v -0.194124 0.100000 -0.121103
v 0.194124 0.100000 -0.121103
v 0.194124 0.100000 0.121103
vt 0.050287 0.612936
vt 0.074101 0.612936
vt 0.074101 0.628069
vt 0.050287 0.628069
vt 0.074101 0.612936
vt 0.050287 0.612936
vt 0.050287 0.628069
vt 0.074101 0.628069
vt 0.079777 0.612936
vt 0.079777 0.612936
vt 0.082127 0.628069
vt 0.082127 0.628069
vt 0.050287 0.586840
vt 0.050287 0.597311
vt 0.045653 0.597718
vt 0.044611 0.597311
vt 0.045653 0.613343
vt 0.044611 0.628069
vt 0.042260 0.628069
vt 0.044611 0.612936
vt 0.050287 0.643203
vt 0.045653 0.642796
vt 0.044611 0.643203
vt 0.050287 0.669299
vt 0.044611 0.658828
vt 0.045653 0.658421
vt 0.050287 0.658828
vt 0.044611 0.628069
vt 0.045653 0.613343
vt 0.044611 0.612936
vt 0.042260 0.628069
vt 0.050287 0.586840
vt 0.044611 0.597311
vt 0.045653 0.597718
vt 0.050287 0.597311
vt 0.050287 0.643203
vt 0.045653 0.642796
vt 0.050287 0.669299
vt 0.050287 0.658828
vt 0.045653 0.658421
vt 0.044611 0.658828
vt 0.044611 0.643203
vt 0.079777 0.628069
vt 0.078735 0.613343
vt 0.074101 0.586840
vt 0.079777 0.597311
vt 0.078735 0.597718
vt 0.074101 0.597311
vt 0.074101 0.643203
vt 0.078735 0.642796
vt 0.074101 0.669299
vt 0.074101 0.658828
vt 0.078735 0.658421
vt 0.079777 0.658828
vt 0.079777 0.643203
vt 0.079777 0.628069
vt 0.078735 0.613343
vt 0.074101 0.586840
vt 0.074101 0.597311
vt 0.078735 0.597718
vt 0.079777 0.597311
vt 0.079777 0.643203
vt 0.078735 0.642796
vt 0.074101 0.669299
vt 0.079777 0.658828
vt 0.078735 0.658421
vt 0.074101 0.658828
vt 0.074101 0.643203
vt 0.062194 0.620214
vn -0.1334 -0.7644 0.6308
vn 0.1334 -0.7644 0.6308
vn 0.1584 0.0000 0.9874
vn -0.1584 -0.0000 0.9874
vn 0.1334 -0.7644 -0.6308
vn -0.1334 -0.7644 -0.6308
vn -0.1584 -0.0000 -0.9874
vn 0.1584 -0.0000 -0.9874
vn 0.6277 -0.7664 0.1364
vn 0.6277 -0.7664 -0.1364
vn 0.9867 -0.0000 -0.1626
vn 0.9867 0.0000 0.1626
vn -0.0917 -0.9914 0.0931
vn -0.5238 -0.6668 0.5301
vn -0.6277 -0.7664 0.1364
vn -0.7044 -0.0000 0.7098
vn -0.9867 0.0000 0.1626
vn -0.1334 0.7644 0.6308
vn -0.5238 0.6668 0.5301
vn -0.6277 0.7664 0.1364
vn -0.0734 0.9943 0.0770
vn -0.7044 0.0000 -0.7098
vn -0.5238 -0.6668 -0.5301
vn -0.6277 -0.7664 -0.1364
vn -0.9867 0.0000 -0.1626
vn -0.0917 -0.9914 -0.0931
vn -0.1334 0.7644 -0.6308
vn -0.5238 0.6668 -0.5301
vn -0.0734 0.9943 -0.0770
vn -0.6277 0.7664 -0.1364
vn 0.7044 0.0000 0.7098
vn 0.5238 -0.6668 0.5301
vn 0.0917 -0.9914 0.0931
vn 0.1334 0.7644 0.6308
vn 0.5238 0.6668 0.5301
vn 0.0734 0.9943 0.0770
vn 0.6277 0.7664 0.1364
vn 0.7044 -0.0000 -0.7098
vn 0.5238 -0.6668 -0.5301
vn 0.0917 -0.9914 -0.0931
vn 0.6277 0.7664 -0.1364
vn 0.5238 0.6668 -0.5301
vn 0.0734 0.9943 -0.0770
vn 0.1334 0.7644 -0.6308
vn 0.0000 1.0000 -0.0000
usemtl furniture_texture
s 1
f 2/1/1 19/2/2 39/3/3 30/4/4
f 24/5/5 12/6/6 33/7/7 38/8/8
f 17/9/9 26/10/10 36/11/11 41/12/12
f 1/13/13 2/14/1 3/15/14 4/16/15
f 3/17/14 31/18/16 32/19/17 4/20/15
f 30/4/4 6/21/18 7/22/19 31/18/16
f 31/18/16 7/22/19 8/23/20 32/19/17
f 42/24/21 8/25/20 7/26/19 6/27/18
f 34/28/22 11/29/23 10/30/24 35/31/25
f 9/32/26 10/33/24 11/34/23 12/35/6
f 33/7/7 12/6/6 11/29/23 34/28/22
f 13/36/27 33/7/7 34/28/22 14/37/28
f 43/38/29 13/39/27 14/40/28 15/41/30
f 14/37/28 34/28/22 35/31/25 15/42/30
f 40/43/31 18/44/32 17/9/9 41/12/12
f 16/45/33 17/46/9 18/47/32 19/48/2
f 39/3/3 19/2/2 18/44/32 40/43/31
f 20/49/34 39/3/3 40/43/31 21/50/35
f 45/51/36 20/52/34 21/53/35 22/54/37
f 21/50/35 40/43/31 41/12/12 22/55/37
f 37/56/38 25/57/39 24/5/5 38/8/8
f 23/58/40 24/59/5 25/60/39 26/61/10
f 36/11/11 26/10/10 25/57/39 37/56/38
f 27/62/41 36/11/11 37/56/38 28/63/42
f 44/64/43 27/65/41 28/66/42 29/67/44
f 28/63/42 37/56/38 38/8/8 29/68/44
f 10/30/24 4/20/15 32/19/17 35/31/25
f 9/32/26 1/13/13 4/16/15 10/33/24
f 42/24/21 43/38/29 15/41/30 8/25/20
f 23/58/40 9/32/26 12/35/6 24/59/5
f 43/38/29 44/64/43 29/67/44 13/39/27
f 16/45/33 23/58/40 26/61/10 17/46/9
f 44/64/43 45/51/36 22/54/37 27/65/41
f 1/13/13 16/45/33 19/48/2 2/14/1
f 45/51/36 42/24/21 6/27/18 20/52/34
f 9/32/26 23/58/40 16/45/33 1/13/13
f 13/36/27 29/68/44 38/8/8 33/7/7
f 8/23/20 15/42/30 35/31/25 32/19/17
f 27/62/41 22/55/37 41/12/12 36/11/11
f 20/49/34 6/21/18 30/4/4 39/3/3
f 2/1/1 30/4/4 31/18/16 3/17/14
f 5/69/45 43/38/29 42/24/21
f 5/69/45 44/64/43 43/38/29
f 5/69/45 45/51/36 44/64/43
f 5/69/45 42/24/21 45/51/36
