# Blender v3.4.1 OBJ File: 'Furniture_export.blend'
# www.blender.org
mtllib rug_rectangle_stripes_A.mtl
o rug_rectangle_stripes_A_Cube.022
v -1.470000 0.000000 0.970000
v -1.470000 0.030000 1.000000
v -1.500000 0.030000 0.970000
v -1.470000 0.070000 1.000000
v -0.694641 0.100000 0.194641
v -1.500000 0.070000 0.970000
v -1.470000 0.000000 -0.970000
v -1.500000 0.030000 -0.970000
v -1.470000 0.030000 -1.000000
v -0.694641 0.100000 -0.194641
v -1.470000 0.070000 -1.000000
v -1.500000 0.070000 -0.970000
v 1.470000 0.000000 0.970000
v 1.500000 0.030000 0.970000
v 1.470000 0.030000 1.000000
v 0.694641 0.100000 0.194641
v 1.470000 0.070000 1.000000
v 1.500000 0.070000 0.970000
v 1.470000 0.000000 -0.970000
v 1.470000 0.030000 -1.000000
v 1.500000 0.030000 -0.970000
v 0.694641 0.100000 -0.194641
v 1.500000 0.070000 -0.970000
v 1.470000 0.070000 -1.000000
v -1.470000 0.100000 0.970000
v -1.470000 0.100000 -0.970000
v 1.470000 0.100000 -0.970000
v 1.470000 0.100000 0.970000
v -1.226255 0.100000 0.726255
v -1.226255 0.100000 -0.726255
v 1.226255 0.100000 -0.726255
v 1.226255 0.100000 0.726255
v -0.964489 0.100000 0.464489
v -0.964489 0.100000 -0.464489
v 0.964489 0.100000 -0.464489
v 0.964489 0.100000 0.464489
vt 0.078315 0.603245
vt 0.078315 0.615504
vt 0.034029 0.615504
vt 0.034029 0.603245
vt 0.078767 0.603245
vt 0.078767 0.615504
vt 0.078767 0.615504
vt 0.078767 0.603245
vt 0.066636 0.667416
vt 0.045709 0.667416
vt 0.045709 0.667416
vt 0.066636 0.667416
vt 0.033577 0.603245
vt 0.033577 0.615504
vt 0.033577 0.615504
vt 0.033577 0.603245
vt 0.034029 0.603245
vt 0.034029 0.615504
vt 0.078315 0.615504
vt 0.078315 0.603245
vt 0.034029 0.587792
vt 0.034029 0.594900
vt 0.033577 0.594900
vt 0.034029 0.623849
vt 0.034029 0.630957
vt 0.033577 0.623849
vt 0.034029 0.587792
vt 0.033577 0.594900
vt 0.034029 0.594900
vt 0.034029 0.630957
vt 0.034029 0.623849
vt 0.033577 0.623849
vt 0.078315 0.587792
vt 0.078767 0.594900
vt 0.078315 0.594900
vt 0.078315 0.630957
vt 0.078315 0.623849
vt 0.078767 0.623849
vt 0.078315 0.587792
vt 0.078315 0.594900
vt 0.078767 0.594900
vt 0.078315 0.630957
vt 0.078767 0.623849
vt 0.078315 0.623849
vt 0.034029 0.572167
vt 0.078315 0.572167
vt 0.078315 0.572167
vt 0.034029 0.572167
vt 0.037701 0.654395
vt 0.037701 0.654395
vt 0.034029 0.646582
vt 0.034029 0.646582
vt 0.074643 0.654395
vt 0.078315 0.646582
vt 0.074643 0.654395
vt 0.078315 0.646582
vt 0.041644 0.670020
vt 0.041644 0.670020
vt 0.037701 0.670020
vt 0.037701 0.670020
vt 0.070700 0.670020
vt 0.074643 0.670020
vt 0.070700 0.670020
vt 0.074643 0.670020
vt 0.045709 0.651791
vt 0.045709 0.651791
vt 0.041644 0.654395
vt 0.041644 0.654395
vt 0.066636 0.651791
vt 0.070700 0.654395
vt 0.066636 0.651791
vt 0.070700 0.654395
vn 0.3416 -0.3416 0.8756
vn 0.3416 0.3416 0.8756
vn -0.3416 0.3416 0.8756
vn -0.3416 -0.3416 0.8756
vn 0.8756 -0.3416 -0.3416
vn 0.8756 0.3416 -0.3416
vn 0.8756 0.3416 0.3416
vn 0.8756 -0.3416 0.3416
vn 0.0000 1.0000 0.0000
vn -0.8756 -0.3416 0.3416
vn -0.8756 0.3416 0.3416
vn -0.8756 0.3416 -0.3416
vn -0.8756 -0.3416 -0.3416
vn -0.3416 -0.3416 -0.8756
vn -0.3416 0.3416 -0.8756
vn 0.3416 0.3416 -0.8756
vn 0.3416 -0.3416 -0.8756
vn -0.4606 -0.7588 0.4606
vn -0.4606 0.7588 0.4606
vn -0.4606 -0.7588 -0.4606
vn -0.4606 0.7588 -0.4606
vn 0.4606 -0.7588 0.4606
vn 0.4606 0.7588 0.4606
vn 0.4606 -0.7588 -0.4606
vn 0.4606 0.7588 -0.4606
vn 0.0000 -1.0000 0.0000
usemtl furniture_texture
s 1
f 15/1/1 17/2/2 4/3/3 2/4/4
f 21/5/5 23/6/6 18/7/7 14/8/8
f 22/9/9 10/10/9 5/11/9 16/12/9
f 3/13/10 6/14/11 12/15/12 8/16/13
f 9/17/14 11/18/15 24/19/16 20/20/17
f 1/21/18 2/22/4 3/23/10
f 4/24/3 25/25/19 6/26/11
f 7/27/20 8/28/13 9/29/14
f 26/30/21 11/31/15 12/32/12
f 13/33/22 14/34/8 15/35/1
f 28/36/23 17/37/2 18/38/7
f 19/39/24 20/40/17 21/41/5
f 27/42/25 23/43/6 24/44/16
f 7/27/20 1/21/18 3/23/10 8/28/13
f 2/4/4 4/3/3 6/14/11 3/13/10
f 25/25/19 26/30/21 12/32/12 6/26/11
f 11/18/15 9/17/14 8/16/13 12/15/12
f 19/39/24 7/27/20 9/29/14 20/40/17
f 26/30/21 27/42/25 24/44/16 11/31/15
f 23/6/6 21/5/5 20/20/17 24/19/16
f 13/33/22 19/39/24 21/41/5 14/34/8
f 27/42/25 28/36/23 18/38/7 23/43/6
f 17/2/2 15/1/1 14/8/8 18/7/7
f 1/21/18 13/33/22 15/35/1 2/22/4
f 28/36/23 25/25/19 4/24/3 17/37/2
f 7/45/26 19/46/26 13/47/26 1/48/26
f 29/49/9 30/50/9 26/51/9 25/52/9
f 30/50/9 31/53/9 27/54/9 26/51/9
f 31/53/9 32/55/9 28/56/9 27/54/9
f 32/55/9 29/49/9 25/52/9 28/56/9
f 33/57/9 34/58/9 30/59/9 29/60/9
f 34/58/9 35/61/9 31/62/9 30/59/9
f 35/61/9 36/63/9 32/64/9 31/62/9
f 36/63/9 33/57/9 29/60/9 32/64/9
f 5/65/9 10/66/9 34/67/9 33/68/9
f 10/66/9 22/69/9 35/70/9 34/67/9
f 22/69/9 16/71/9 36/72/9 35/70/9
f 16/71/9 5/65/9 33/68/9 36/72/9
