# Blender v3.4.1 OBJ File: 'Furniture_export.blend'
# www.blender.org
mtllib rug_rectangle_B.mtl
o rug_rectangle_B_Cube.009
v -1.470000 0.000000 0.970000
v -1.470000 0.030000 1.000000
v -1.500000 0.030000 0.970000
v -1.470000 0.070000 1.000000
v -1.470000 0.100000 0.970000
v -1.500000 0.070000 0.970000
v -1.470000 0.000000 -0.970000
v -1.500000 0.030000 -0.970000
v -1.470000 0.030000 -1.000000
v -1.470000 0.100000 -0.970000
v -1.470000 0.070000 -1.000000
v -1.500000 0.070000 -0.970000
v 1.470000 0.000000 0.970000
v 1.500000 0.030000 0.970000
v 1.470000 0.030000 1.000000
v 1.470000 0.100000 0.970000
v 1.470000 0.070000 1.000000
v 1.500000 0.070000 0.970000
v 1.470000 0.000000 -0.970000
v 1.470000 0.030000 -1.000000
v 1.500000 0.030000 -0.970000
v 1.470000 0.100000 -0.970000
v 1.500000 0.070000 -0.970000
v 1.470000 0.070000 -1.000000
vt 0.341119 0.618870
vt 0.341119 0.631129
vt 0.280276 0.631129
vt 0.280276 0.618870
vt 0.341740 0.618870
vt 0.341740 0.631129
vt 0.341740 0.631129
vt 0.341740 0.618870
vt 0.341119 0.662207
vt 0.280276 0.662207
vt 0.280276 0.662207
vt 0.341119 0.662207
vt 0.279656 0.618870
vt 0.279656 0.631129
vt 0.279656 0.631129
vt 0.279656 0.618870
vt 0.280276 0.618870
vt 0.280276 0.631129
vt 0.341119 0.631129
vt 0.341119 0.618870
vt 0.280276 0.603417
vt 0.280276 0.610525
vt 0.279656 0.610525
vt 0.280276 0.639474
vt 0.280276 0.646582
vt 0.279656 0.639474
vt 0.280276 0.603417
vt 0.279656 0.610525
vt 0.280276 0.610525
vt 0.280276 0.646582
vt 0.280276 0.639474
vt 0.279656 0.639474
vt 0.341119 0.603417
vt 0.341740 0.610525
vt 0.341119 0.610525
vt 0.341119 0.646582
vt 0.341119 0.639474
vt 0.341740 0.639474
vt 0.341119 0.603417
vt 0.341119 0.610525
vt 0.341740 0.610525
vt 0.341119 0.646582
vt 0.341740 0.639474
vt 0.341119 0.639474
vt 0.280276 0.587792
vt 0.341119 0.587792
vt 0.341119 0.587792
vt 0.280276 0.587792
vn 0.3416 -0.3416 0.8756
vn 0.3416 0.3416 0.8756
vn -0.3416 0.3416 0.8756
vn -0.3416 -0.3416 0.8756
vn 0.8756 -0.3416 -0.3416
vn 0.8756 0.3416 -0.3416
vn 0.8756 0.3416 0.3416
vn 0.8756 -0.3416 0.3416
vn 0.0000 1.0000 0.0000
vn -0.8756 -0.3416 0.3416
vn -0.8756 0.3416 0.3416
vn -0.8756 0.3416 -0.3416
vn -0.8756 -0.3416 -0.3416
vn -0.3416 -0.3416 -0.8756
vn -0.3416 0.3416 -0.8756
vn 0.3416 0.3416 -0.8756
vn 0.3416 -0.3416 -0.8756
vn -0.4606 -0.7588 0.4606
vn -0.4606 0.7588 0.4606
vn -0.4606 -0.7588 -0.4606
vn -0.4606 0.7588 -0.4606
vn 0.4606 -0.7588 0.4606
vn 0.4606 0.7588 0.4606
vn 0.4606 -0.7588 -0.4606
vn 0.4606 0.7588 -0.4606
vn 0.0000 -1.0000 0.0000
usemtl furniture_texture
s 1
f 15/1/1 17/2/2 4/3/3 2/4/4
f 21/5/5 23/6/6 18/7/7 14/8/8
f 22/9/9 10/10/9 5/11/9 16/12/9
f 3/13/10 6/14/11 12/15/12 8/16/13
f 9/17/14 11/18/15 24/19/16 20/20/17
f 1/21/18 2/22/4 3/23/10
f 4/24/3 5/25/19 6/26/11
f 7/27/20 8/28/13 9/29/14
f 10/30/21 11/31/15 12/32/12
f 13/33/22 14/34/8 15/35/1
f 16/36/23 17/37/2 18/38/7
f 19/39/24 20/40/17 21/41/5
f 22/42/25 23/43/6 24/44/16
f 7/27/20 1/21/18 3/23/10 8/28/13
f 2/4/4 4/3/3 6/14/11 3/13/10
f 5/25/19 10/30/21 12/32/12 6/26/11
f 11/18/15 9/17/14 8/16/13 12/15/12
f 19/39/24 7/27/20 9/29/14 20/40/17
f 10/30/21 22/42/25 24/44/16 11/31/15
f 23/6/6 21/5/5 20/20/17 24/19/16
f 13/33/22 19/39/24 21/41/5 14/34/8
f 22/42/25 16/36/23 18/38/7 23/43/6
f 17/2/2 15/1/1 14/8/8 18/7/7
f 1/21/18 13/33/22 15/35/1 2/22/4
f 16/36/23 5/25/19 4/24/3 17/37/2
f 7/45/26 19/46/26 13/47/26 1/48/26
