# Blender v3.4.1 OBJ File: 'Furniture_export.blend'
# www.blender.org
mtllib shelf_A_small.mtl
o shelf_A_small_Cube.026
v -0.280000 -0.100000 0.480000
v -0.280000 -0.080000 0.500000
v -0.300000 -0.080000 0.480000
v -0.280000 0.080000 0.500000
v -0.280000 0.100000 0.480000
v -0.300000 0.080000 0.480000
v -0.280000 -0.100000 0.020000
v -0.300000 -0.080000 0.020000
v -0.280000 -0.080000 0.000000
v -0.280000 0.100000 0.020000
v -0.280000 0.080000 0.000000
v -0.300000 0.080000 0.020000
v 0.280000 -0.100000 0.480000
v 0.300000 -0.080000 0.480000
v 0.280000 -0.080000 0.500000
v 0.280000 0.100000 0.480000
v 0.280000 0.080000 0.500000
v 0.300000 0.080000 0.480000
v 0.280000 -0.100000 0.020000
v 0.280000 -0.080000 0.000000
v 0.300000 -0.080000 0.020000
v 0.280000 0.100000 0.020000
v 0.300000 0.080000 0.020000
v 0.280000 0.080000 0.000000
v -0.500000 -0.280000 0.185011
v -0.480000 -0.300000 0.180000
v -0.480000 -0.280000 0.200000
v -0.500000 -0.280000 0.020000
v -0.480000 -0.280000 0.000000
v -0.480000 -0.300000 0.020000
v -0.300000 -0.280000 0.185011
v -0.320000 -0.280000 0.200000
v -0.320000 -0.300000 0.180000
v -0.320000 -0.280000 0.000000
v -0.300000 -0.280000 0.020000
v -0.320000 -0.300000 0.020000
v -0.500000 0.080000 0.020000
v -0.480000 0.100000 0.000000
v -0.320000 0.100000 0.000000
v -0.300000 0.080000 0.020000
v -0.320000 -0.100000 0.480000
v -0.300000 -0.085010 0.480000
v -0.320000 -0.080000 0.500000
v -0.480000 -0.100000 0.480000
v -0.480000 -0.080000 0.500000
v -0.500000 -0.085010 0.480000
v -0.320000 0.100000 0.480000
v -0.320000 0.080000 0.500000
v -0.300000 0.080000 0.480000
v -0.480000 0.100000 0.480000
v -0.500000 0.080000 0.480000
v -0.480000 0.080000 0.500000
v -0.500000 -0.209824 0.185211
v -0.480000 -0.234564 0.200000
v -0.480000 -0.100000 0.334564
v -0.500000 -0.085211 0.309825
v -0.480000 -0.167282 0.218028
v -0.500000 -0.147770 0.202112
v -0.480000 -0.118028 0.267282
v -0.500000 -0.102112 0.247771
v -0.300000 -0.085211 0.309825
v -0.320000 -0.100000 0.334564
v -0.320000 -0.234564 0.200000
v -0.300000 -0.209824 0.185211
v -0.320000 -0.118028 0.267282
v -0.300000 -0.102112 0.247771
v -0.320000 -0.167282 0.218028
v -0.300000 -0.147770 0.202112
v 0.300000 -0.280000 0.185011
v 0.320000 -0.300000 0.180000
v 0.320000 -0.280000 0.200000
v 0.300000 -0.280000 0.020000
v 0.320000 -0.280000 0.000000
v 0.320000 -0.300000 0.020000
v 0.500000 -0.280000 0.185011
v 0.480000 -0.280000 0.200000
v 0.480000 -0.300000 0.180000
v 0.480000 -0.280000 0.000000
v 0.500000 -0.280000 0.020000
v 0.480000 -0.300000 0.020000
v 0.300000 0.080000 0.020000
v 0.320000 0.100000 0.000000
v 0.480000 0.100000 0.000000
v 0.500000 0.080000 0.020000
v 0.480000 -0.100000 0.480000
v 0.500000 -0.085010 0.480000
v 0.480000 -0.080000 0.500000
v 0.320000 -0.100000 0.480000
v 0.320000 -0.080000 0.500000
v 0.300000 -0.085010 0.480000
v 0.480000 0.100000 0.480000
v 0.480000 0.080000 0.500000
v 0.500000 0.080000 0.480000
v 0.320000 0.100000 0.480000
v 0.300000 0.080000 0.480000
v 0.320000 0.080000 0.500000
v 0.300000 -0.209824 0.185211
v 0.320000 -0.234564 0.200000
v 0.320000 -0.100000 0.334564
v 0.300000 -0.085211 0.309825
v 0.320000 -0.167282 0.218028
v 0.300000 -0.147770 0.202112
v 0.320000 -0.118028 0.267282
v 0.300000 -0.102112 0.247771
v 0.500000 -0.085211 0.309825
v 0.480000 -0.100000 0.334564
v 0.480000 -0.234564 0.200000
v 0.500000 -0.209824 0.185211
v 0.480000 -0.118028 0.267282
v 0.500000 -0.102112 0.247771
v 0.480000 -0.167282 0.218028
v 0.500000 -0.147770 0.202112
vt 0.035552 0.897873
vt 0.035552 0.912303
vt 0.028051 0.912303
vt 0.028051 0.897873
vt 0.035648 0.882248
vt 0.035648 0.896678
vt 0.035648 0.896678
vt 0.035648 0.882248
vt 0.035552 0.945356
vt 0.028051 0.945356
vt 0.028051 0.945356
vt 0.035552 0.945356
vt 0.027955 0.882248
vt 0.027955 0.896678
vt 0.027955 0.896678
vt 0.027955 0.882248
vt 0.028051 0.897873
vt 0.028051 0.912303
vt 0.035552 0.912303
vt 0.035552 0.897873
vt 0.072883 0.896069
vt 0.072883 0.897873
vt 0.072734 0.897873
vt 0.072883 0.974802
vt 0.072883 0.976606
vt 0.072734 0.974802
vt 0.072883 0.896069
vt 0.072734 0.897873
vt 0.072883 0.897873
vt 0.072883 0.976606
vt 0.072883 0.974802
vt 0.072734 0.974802
vt 0.084470 0.896069
vt 0.084618 0.897873
vt 0.084470 0.897873
vt 0.084470 0.976606
vt 0.084470 0.974802
vt 0.084618 0.974802
vt 0.084470 0.896069
vt 0.084470 0.897873
vt 0.084618 0.897873
vt 0.084470 0.976606
vt 0.084618 0.974802
vt 0.084470 0.974802
vt 0.072883 0.929123
vt 0.072883 0.943553
vt 0.072734 0.943553
vt 0.072734 0.929123
vt 0.072883 0.943553
vt 0.072883 0.929123
vt 0.072734 0.929123
vt 0.072734 0.943553
vt 0.084618 0.943553
vt 0.084618 0.929123
vt 0.084470 0.929123
vt 0.084470 0.943553
vt 0.084470 0.943553
vt 0.084470 0.929123
vt 0.084618 0.929123
vt 0.084618 0.943553
vt 0.028051 0.864819
vt 0.035552 0.864819
vt 0.035552 0.864819
vt 0.028051 0.864819
vt 0.416436 0.829820
vt 0.416436 0.863630
vt 0.416436 0.836411
vt 0.416436 0.829820
vt 0.416436 0.842239
vt 0.410983 0.863630
vt 0.410983 0.848115
vt 0.410983 0.848133
vt 0.410983 0.863630
vt 0.415891 0.856031
vt 0.411528 0.856031
vt 0.411528 0.849712
vt 0.415891 0.849712
vt 0.415891 0.845445
vt 0.411528 0.845445
vt 0.410983 0.842239
vt 0.410983 0.846527
vt 0.411528 0.862351
vt 0.415891 0.862351
vt 0.415891 0.862351
vt 0.411528 0.862351
vt 0.411528 0.845445
vt 0.411528 0.881134
vt 0.415891 0.881134
vt 0.415891 0.845445
vt 0.416436 0.848115
vt 0.416436 0.863630
vt 0.416436 0.848133
vt 0.411528 0.912384
vt 0.411528 0.912384
vt 0.415891 0.912384
vt 0.415891 0.912384
vt 0.410983 0.836411
vt 0.411528 0.864229
vt 0.415891 0.864229
vt 0.415891 0.879255
vt 0.411528 0.879255
vt 0.416436 0.846527
vt 0.415891 0.860657
vt 0.411528 0.860657
vt 0.411528 0.812317
vt 0.415891 0.812317
vt 0.415891 0.812317
vt 0.411528 0.812317
vt 0.442233 0.845445
vt 0.442778 0.843567
vt 0.442778 0.845445
vt 0.442233 0.845445
vt 0.442778 0.845445
vt 0.442778 0.843567
vt 0.447686 0.845445
vt 0.447141 0.845445
vt 0.447141 0.843567
vt 0.447141 0.845445
vt 0.447686 0.845445
vt 0.447141 0.843567
vt 0.447141 0.893601
vt 0.447686 0.895008
vt 0.447141 0.895479
vt 0.442778 0.893601
vt 0.442778 0.895479
vt 0.442233 0.895008
vt 0.447141 0.943634
vt 0.447141 0.941755
vt 0.447686 0.941755
vt 0.442778 0.943634
vt 0.442233 0.941755
vt 0.442778 0.941755
vt 0.442778 0.912384
vt 0.442778 0.876695
vt 0.442233 0.876695
vt 0.442233 0.910505
vt 0.447686 0.910505
vt 0.447686 0.876695
vt 0.447141 0.876695
vt 0.447141 0.912384
vt 0.442778 0.910505
vt 0.442233 0.910505
vt 0.447686 0.910505
vt 0.447141 0.910505
vt 0.442233 0.941755
vt 0.442778 0.943634
vt 0.447686 0.941755
vt 0.447141 0.943634
vt 0.442778 0.880962
vt 0.442778 0.887281
vt 0.442233 0.889114
vt 0.442233 0.883286
vt 0.442778 0.891907
vt 0.442233 0.893402
vt 0.442778 0.893601
vt 0.442233 0.894990
vt 0.447141 0.893601
vt 0.447141 0.891907
vt 0.447686 0.893402
vt 0.447686 0.894990
vt 0.447141 0.887281
vt 0.447686 0.889114
vt 0.447141 0.880962
vt 0.447686 0.883286
vt 0.442778 0.876695
vt 0.442233 0.876695
vt 0.447686 0.876695
vt 0.447141 0.876695
vt 0.410983 0.829820
vt 0.410983 0.829820
vt 0.416436 0.829820
vt 0.416436 0.863630
vt 0.416436 0.836411
vt 0.416436 0.829820
vt 0.416436 0.842239
vt 0.410983 0.863630
vt 0.410983 0.848115
vt 0.410983 0.848133
vt 0.410983 0.863630
vt 0.415891 0.856031
vt 0.411528 0.856031
vt 0.411528 0.849712
vt 0.415891 0.849712
vt 0.415891 0.845445
vt 0.411528 0.845445
vt 0.410983 0.842239
vt 0.410983 0.846527
vt 0.411528 0.862351
vt 0.415891 0.862351
vt 0.415891 0.862351
vt 0.411528 0.862351
vt 0.411528 0.845445
vt 0.411528 0.881134
vt 0.415891 0.881134
vt 0.415891 0.845445
vt 0.416436 0.848115
vt 0.416436 0.863630
vt 0.416436 0.848133
vt 0.411528 0.912384
vt 0.411528 0.912384
vt 0.415891 0.912384
vt 0.415891 0.912384
vt 0.410983 0.836411
vt 0.411528 0.864229
vt 0.415891 0.864229
vt 0.415891 0.879255
vt 0.411528 0.879255
vt 0.416436 0.846527
vt 0.415891 0.860657
vt 0.411528 0.860657
vt 0.411528 0.812317
vt 0.415891 0.812317
vt 0.415891 0.812317
vt 0.411528 0.812317
vt 0.442233 0.845445
vt 0.442778 0.843567
vt 0.442778 0.845445
vt 0.442233 0.845445
vt 0.442778 0.845445
vt 0.442778 0.843567
vt 0.447686 0.845445
vt 0.447141 0.845445
vt 0.447141 0.843567
vt 0.447141 0.845445
vt 0.447686 0.845445
vt 0.447141 0.843567
vt 0.447141 0.893601
vt 0.447686 0.895008
vt 0.447141 0.895479
vt 0.442778 0.893601
vt 0.442778 0.895479
vt 0.442233 0.895008
vt 0.447141 0.943634
vt 0.447141 0.941755
vt 0.447686 0.941755
vt 0.442778 0.943634
vt 0.442233 0.941755
vt 0.442778 0.941755
vt 0.442778 0.912384
vt 0.442778 0.876695
vt 0.442233 0.876695
vt 0.442233 0.910505
vt 0.447686 0.910505
vt 0.447686 0.876695
vt 0.447141 0.876695
vt 0.447141 0.912384
vt 0.442778 0.910505
vt 0.442233 0.910505
vt 0.447686 0.910505
vt 0.447141 0.910505
vt 0.442233 0.941755
vt 0.442778 0.943634
vt 0.447686 0.941755
vt 0.447141 0.943634
vt 0.442778 0.880962
vt 0.442778 0.887281
vt 0.442233 0.889114
vt 0.442233 0.883286
vt 0.442778 0.891907
vt 0.442233 0.893402
vt 0.442778 0.893601
vt 0.442233 0.894990
vt 0.447141 0.893601
vt 0.447141 0.891907
vt 0.447686 0.893402
vt 0.447686 0.894990
vt 0.447141 0.887281
vt 0.447686 0.889114
vt 0.447141 0.880962
vt 0.447686 0.883286
vt 0.442778 0.876695
vt 0.442233 0.876695
vt 0.447686 0.876695
vt 0.447141 0.876695
vt 0.410983 0.829820
vt 0.410983 0.829820
vn 0.0000 0.0000 1.0000
vn 0.8756 -0.3416 -0.3416
vn 0.8756 0.3416 -0.3416
vn 0.8756 0.3416 0.3416
vn 0.8756 -0.3416 0.3416
vn 0.0000 1.0000 0.0000
vn -0.3416 0.8756 0.3416
vn 0.3416 0.8756 0.3416
vn -0.8756 -0.3416 0.3416
vn -0.8756 0.3416 0.3416
vn -0.8756 0.3416 -0.3416
vn -0.8756 -0.3416 -0.3416
vn -0.3416 -0.3416 -0.8756
vn -0.3416 0.3416 -0.8756
vn 0.3416 0.3416 -0.8756
vn 0.3416 -0.3416 -0.8756
vn -0.3416 -0.8756 0.3416
vn -0.4606 -0.4606 0.7588
vn -0.4606 0.4606 0.7588
vn -0.4606 -0.7588 -0.4606
vn -0.4606 0.7588 -0.4606
vn 0.3416 -0.8756 0.3416
vn 0.4606 -0.4606 0.7588
vn 0.4606 0.4606 0.7588
vn 0.4606 -0.7588 -0.4606
vn 0.4606 0.7588 -0.4606
vn 0.0000 -1.0000 0.0000
vn 0.9054 0.3002 -0.3002
vn 0.9309 -0.0679 0.3590
vn 0.8423 -0.3519 0.4083
vn 0.9572 -0.1547 0.2446
vn -0.8959 0.0000 -0.4444
vn -0.9309 -0.3589 0.0678
vn -0.8422 -0.4087 0.3517
vn 0.0000 -0.5000 0.8660
vn -0.3478 -0.0970 0.9325
vn 0.3478 -0.0970 0.9325
vn 0.2823 -0.3499 0.8932
vn -0.2823 -0.3499 0.8932
vn -0.9572 -0.1547 0.2446
vn -0.9572 -0.2446 0.1547
vn -0.3476 -0.9326 0.0966
vn 0.3476 -0.9326 0.0966
vn 0.2822 -0.8934 0.3496
vn -0.2822 -0.8934 0.3496
vn 0.0000 0.0000 -1.0000
vn 0.9309 -0.3589 0.0678
vn 0.8422 -0.4087 0.3517
vn -0.2880 0.9576 0.0000
vn -0.9309 -0.0679 0.3590
vn 0.3416 0.3416 0.8756
vn -0.3416 0.3416 0.8756
vn 0.9572 -0.2446 0.1547
vn 0.0000 -0.8660 0.5000
vn -0.8423 -0.3519 0.4083
vn -0.4427 -0.7770 0.4476
vn 0.4427 -0.7770 0.4476
vn 0.4427 -0.4476 0.7770
vn -0.4427 -0.4476 0.7770
vn 0.4606 0.7588 0.4606
vn -0.7071 0.0000 -0.7071
vn 0.7071 0.0000 -0.7071
vn -0.7071 0.7071 0.0000
vn 0.7071 0.7071 0.0000
vn -0.7560 -0.2956 0.5840
vn -0.7560 -0.5840 0.2956
vn 0.7560 -0.5840 0.2956
vn 0.7560 -0.2956 0.5840
vn 0.8959 0.0000 -0.4444
vn -0.9054 0.3002 -0.3002
vn 0.2880 0.9576 0.0000
vn -0.4606 0.7588 0.4606
usemtl furniture_texture
s 1
f 15/1/1 17/2/1 4/3/1 2/4/1
f 21/5/2 23/6/3 18/7/4 14/8/5
f 22/9/6 10/10/6 5/11/7 16/12/8
f 3/13/9 6/14/10 12/15/11 8/16/12
f 9/17/13 11/18/14 24/19/15 20/20/16
f 1/21/17 2/22/18 3/23/9
f 4/24/19 5/25/7 6/26/10
f 7/27/20 8/28/12 9/29/13
f 10/30/21 11/31/14 12/32/11
f 13/33/22 14/34/5 15/35/23
f 16/36/8 17/37/24 18/38/4
f 19/39/25 20/40/16 21/41/2
f 22/42/26 23/43/3 24/44/15
f 7/27/20 1/21/17 3/23/9 8/28/12
f 2/45/18 4/46/19 6/47/10 3/48/9
f 5/25/7 10/30/21 12/32/11 6/26/10
f 11/49/14 9/50/13 8/51/12 12/52/11
f 19/39/25 7/27/20 9/29/13 20/40/16
f 10/30/21 22/42/26 24/44/15 11/31/14
f 23/53/3 21/54/2 20/55/16 24/56/15
f 13/33/22 19/39/25 21/41/2 14/34/5
f 22/42/26 16/36/8 18/38/4 23/43/3
f 17/57/24 15/58/23 14/59/5 18/60/4
f 1/21/17 13/33/22 15/35/23 2/22/18
f 16/36/8 5/25/7 4/24/19 17/37/24
f 7/61/27 19/62/27 13/63/22 1/64/17
f 35/65/2 40/66/28 64/67/29 31/68/30
f 68/69/31 64/67/29 40/66/28
f 37/70/32 56/71/33 46/72/34 51/73/10
f 67/74/35 57/75/35 54/76/36 63/77/37
f 32/78/38 63/77/37 54/76/36 27/79/39
f 58/80/40 60/81/41 37/70/32
f 55/82/42 62/83/43 41/84/44 44/85/45
f 60/81/41 56/71/33 37/70/32
f 29/86/13 38/87/46 39/88/46 34/89/16
f 61/90/47 40/66/28 49/91/4 42/92/48
f 38/93/49 50/94/7 47/95/6 39/96/6
f 53/97/50 58/80/40 37/70/32
f 45/98/1 43/99/1 48/100/51 52/101/52
f 61/90/47 66/102/53 40/66/28
f 66/102/53 68/69/31 40/66/28
f 65/103/54 59/104/54 57/75/35 67/74/35
f 62/83/43 55/82/42 59/104/54 65/103/54
f 30/105/27 36/106/27 33/107/27 26/108/27
f 25/109/55 26/110/56 27/111/39
f 28/112/12 29/113/13 30/114/20
f 31/115/30 32/116/38 33/117/57
f 34/118/16 35/119/2 36/120/25
f 41/121/44 42/122/48 43/123/58
f 44/124/45 45/125/59 46/126/34
f 47/127/60 48/128/51 49/129/4
f 50/130/7 51/131/10 52/132/52
f 30/114/20 26/110/56 25/109/55 28/112/12
f 36/120/25 30/114/20 29/113/13 34/118/16
f 33/117/57 36/120/25 35/119/2 31/115/30
f 26/110/56 33/117/57 32/116/38 27/111/39
f 38/133/61 29/134/13 28/135/12 37/136/32
f 40/137/28 35/138/2 34/139/16 39/140/62
f 43/123/58 45/125/59 44/124/45 41/121/44
f 47/127/60 50/130/7 52/132/52 48/128/51
f 45/125/59 52/141/52 51/142/10 46/126/34
f 42/122/48 49/143/4 48/144/51 43/123/58
f 37/145/63 51/131/10 50/130/7 38/146/49
f 49/129/4 40/147/28 39/148/64 47/127/60
f 54/149/36 57/150/65 58/151/40 53/152/50
f 57/150/65 59/153/66 60/154/41 58/151/40
f 59/153/66 55/155/42 56/156/33 60/154/41
f 62/157/43 65/158/67 66/159/53 61/160/47
f 65/158/67 67/161/68 68/162/31 66/159/53
f 67/161/68 63/163/37 64/164/29 68/162/31
f 27/165/39 54/149/36 53/152/50 25/166/55
f 31/167/30 64/164/29 63/163/37 32/168/38
f 46/126/34 56/156/33 55/155/42 44/124/45
f 61/160/47 42/122/48 41/121/44 62/157/43
f 53/97/50 37/70/32 28/169/12 25/170/55
f 79/171/2 84/172/69 108/173/29 75/174/30
f 112/175/31 108/173/29 84/172/69
f 81/176/70 100/177/33 90/178/34 95/179/10
f 111/180/35 101/181/35 98/182/36 107/183/37
f 76/184/38 107/183/37 98/182/36 71/185/39
f 102/186/40 104/187/41 81/176/70
f 99/188/42 106/189/43 85/190/44 88/191/45
f 104/187/41 100/177/33 81/176/70
f 73/192/13 82/193/46 83/194/46 78/195/16
f 105/196/47 84/172/69 93/197/4 86/198/48
f 82/199/6 94/200/6 91/201/8 83/202/71
f 97/203/50 102/186/40 81/176/70
f 89/204/1 87/205/1 92/206/51 96/207/52
f 105/196/47 110/208/53 84/172/69
f 110/208/53 112/175/31 84/172/69
f 109/209/54 103/210/54 101/181/35 111/180/35
f 106/189/43 99/188/42 103/210/54 109/209/54
f 74/211/27 80/212/27 77/213/27 70/214/27
f 69/215/55 70/216/56 71/217/39
f 72/218/12 73/219/13 74/220/20
f 75/221/30 76/222/38 77/223/57
f 78/224/16 79/225/2 80/226/25
f 85/227/44 86/228/48 87/229/58
f 88/230/45 89/231/59 90/232/34
f 91/233/8 92/234/51 93/235/4
f 94/236/72 95/237/10 96/238/52
f 74/220/20 70/216/56 69/215/55 72/218/12
f 80/226/25 74/220/20 73/219/13 78/224/16
f 77/223/57 80/226/25 79/225/2 75/221/30
f 70/216/56 77/223/57 76/222/38 71/217/39
f 82/239/61 73/240/13 72/241/12 81/242/70
f 84/243/69 79/244/2 78/245/16 83/246/62
f 87/229/58 89/231/59 88/230/45 85/227/44
f 91/233/8 94/236/72 96/238/52 92/234/51
f 89/231/59 96/247/52 95/248/10 90/232/34
f 86/228/48 93/249/4 92/250/51 87/229/58
f 81/251/70 95/237/10 94/236/72 82/252/63
f 93/235/4 84/253/64 83/254/71 91/233/8
f 98/255/36 101/256/65 102/257/40 97/258/50
f 101/256/65 103/259/66 104/260/41 102/257/40
f 103/259/66 99/261/42 100/262/33 104/260/41
f 106/263/43 109/264/67 110/265/53 105/266/47
f 109/264/67 111/267/68 112/268/31 110/265/53
f 111/267/68 107/269/37 108/270/29 112/268/31
f 71/271/39 98/255/36 97/258/50 69/272/55
f 75/273/30 108/270/29 107/269/37 76/274/38
f 90/232/34 100/262/33 99/261/42 88/230/45
f 105/266/47 86/228/48 85/227/44 106/263/43
f 97/203/50 81/176/70 72/275/12 69/276/55
