# Blender v3.4.1 OBJ File: 'Furniture_export.blend'
# www.blender.org
mtllib shelf_B_large.mtl
o shelf_B_large_Cube.029
v 0.780000 0.100000 0.480000
v 0.780000 0.080000 0.500000
v 0.800000 0.080000 0.480000
v 0.780000 -0.080000 0.500000
v 0.780000 -0.100000 0.480000
v 0.800000 -0.080000 0.480000
v 0.780000 0.100000 0.020000
v 0.800000 0.080000 0.020000
v 0.780000 0.080000 0.000000
v 0.780000 -0.100000 0.020000
v 0.780000 -0.080000 -0.000000
v 0.800000 -0.080000 0.020000
v -0.780000 0.100000 0.480000
v -0.800000 0.080000 0.480000
v -0.780000 0.080000 0.500000
v -0.780000 -0.100000 0.480000
v -0.780000 -0.080000 0.500000
v -0.800000 -0.080000 0.480000
v -0.780000 0.100000 0.020000
v -0.780000 0.080000 0.000000
v -0.800000 0.080000 0.020000
v -0.780000 -0.100000 0.020000
v -0.800000 -0.080000 0.020000
v -0.780000 -0.080000 -0.000000
v -1.000000 0.280000 0.185011
v -0.980000 0.300000 0.180000
v -0.980000 0.280000 0.200000
v -1.000000 0.280000 0.020000
v -0.980000 0.280000 0.000000
v -0.980000 0.300000 0.020000
v -0.800000 0.280000 0.185011
v -0.820000 0.280000 0.200000
v -0.820000 0.300000 0.180000
v -0.820000 0.280000 0.000000
v -0.800000 0.280000 0.020000
v -0.820000 0.300000 0.020000
v -1.000000 -0.080000 0.020000
v -0.980000 -0.100000 -0.000000
v -0.820000 -0.100000 -0.000000
v -0.800000 -0.080000 0.020000
v -0.820000 0.100000 0.480000
v -0.800000 0.085011 0.480000
v -0.820000 0.080000 0.500000
v -0.980000 0.100000 0.480000
v -0.980000 0.080000 0.500000
v -1.000000 0.085011 0.480000
v -0.820000 -0.100000 0.480000
v -0.820000 -0.080000 0.500000
v -0.800000 -0.080000 0.480000
v -0.980000 -0.100000 0.480000
v -1.000000 -0.080000 0.480000
v -0.980000 -0.080000 0.500000
v -1.000000 0.209825 0.185211
v -0.980000 0.234564 0.200000
v -0.980000 0.100000 0.334564
v -1.000000 0.085211 0.309825
v -0.980000 0.167282 0.218028
v -1.000000 0.147771 0.202112
v -0.980000 0.118028 0.267282
v -1.000000 0.102113 0.247771
v -0.800000 0.085211 0.309825
v -0.820000 0.100000 0.334564
v -0.820000 0.234564 0.200000
v -0.800000 0.209825 0.185211
v -0.820000 0.118028 0.267282
v -0.800000 0.102112 0.247771
v -0.820000 0.167282 0.218028
v -0.800000 0.147771 0.202112
v 0.800000 0.280000 0.185011
v 0.820000 0.300000 0.180000
v 0.820000 0.280000 0.200000
v 0.800000 0.280000 0.020000
v 0.820000 0.280000 0.000000
v 0.820000 0.300000 0.020000
v 1.000000 0.280000 0.185011
v 0.980000 0.280000 0.200000
v 0.980000 0.300000 0.180000
v 0.980000 0.280000 0.000000
v 1.000000 0.280000 0.020000
v 0.980000 0.300000 0.020000
v 0.800000 -0.080000 0.020000
v 0.820000 -0.100000 -0.000000
v 0.980000 -0.100000 -0.000000
v 1.000000 -0.080000 0.020000
v 0.980000 0.100000 0.480000
v 1.000000 0.085011 0.480000
v 0.980000 0.080000 0.500000
v 0.820000 0.100000 0.480000
v 0.820000 0.080000 0.500000
v 0.800000 0.085011 0.480000
v 0.980000 -0.100000 0.480000
v 0.980000 -0.080000 0.500000
v 1.000000 -0.080000 0.480000
v 0.820000 -0.100000 0.480000
v 0.800000 -0.080000 0.480000
v 0.820000 -0.080000 0.500000
v 0.800000 0.209825 0.185211
v 0.820000 0.234564 0.200000
v 0.820000 0.100000 0.334564
v 0.800000 0.085211 0.309825
v 0.820000 0.167282 0.218028
v 0.800000 0.147771 0.202112
v 0.820000 0.118028 0.267282
v 0.800000 0.102113 0.247771
v 1.000000 0.085211 0.309825
v 0.980000 0.100000 0.334564
v 0.980000 0.234564 0.200000
v 1.000000 0.209825 0.185211
v 0.980000 0.118028 0.267282
v 1.000000 0.102112 0.247771
v 0.980000 0.167282 0.218028
v 1.000000 0.147771 0.202112
vt 0.022833 0.912303
vt 0.022833 0.897873
vt 0.040770 0.897873
vt 0.040770 0.912302
vt 0.022603 0.896678
vt 0.022603 0.882248
vt 0.022603 0.882248
vt 0.022603 0.896678
vt 0.022833 0.864819
vt 0.040770 0.864819
vt 0.040770 0.864819
vt 0.022833 0.864819
vt 0.041000 0.896677
vt 0.041000 0.882248
vt 0.041000 0.882248
vt 0.041000 0.896677
vt 0.040770 0.912302
vt 0.040770 0.897873
vt 0.022833 0.897873
vt 0.022833 0.912303
vt 0.087447 0.976606
vt 0.087447 0.974802
vt 0.087672 0.974802
vt 0.087447 0.897873
vt 0.087447 0.896069
vt 0.087672 0.897873
vt 0.087447 0.976606
vt 0.087672 0.974802
vt 0.087447 0.974802
vt 0.087447 0.896069
vt 0.087447 0.897873
vt 0.087672 0.897873
vt 0.069906 0.976606
vt 0.069681 0.974803
vt 0.069906 0.974803
vt 0.069906 0.896069
vt 0.069906 0.897873
vt 0.069681 0.897873
vt 0.069906 0.976606
vt 0.069906 0.974803
vt 0.069681 0.974803
vt 0.069906 0.896069
vt 0.069681 0.897873
vt 0.069906 0.897873
vt 0.087447 0.943552
vt 0.087447 0.929123
vt 0.087672 0.929123
vt 0.087672 0.943552
vt 0.087447 0.929123
vt 0.087447 0.943552
vt 0.087672 0.943552
vt 0.087672 0.929123
vt 0.069681 0.929123
vt 0.069681 0.943553
vt 0.069906 0.943553
vt 0.069906 0.929123
vt 0.069906 0.929123
vt 0.069906 0.943553
vt 0.069681 0.943553
vt 0.069681 0.929123
vt 0.040770 0.945356
vt 0.022833 0.945356
vt 0.022833 0.945356
vt 0.040770 0.945356
vt 0.416436 0.866789
vt 0.416436 0.866789
vt 0.416436 0.860198
vt 0.416436 0.832979
vt 0.416436 0.854370
vt 0.410983 0.832979
vt 0.410983 0.832979
vt 0.410983 0.848476
vt 0.410983 0.848495
vt 0.415891 0.871828
vt 0.415891 0.878147
vt 0.411528 0.878147
vt 0.411528 0.871828
vt 0.415891 0.882414
vt 0.411528 0.882414
vt 0.410983 0.854370
vt 0.410983 0.850082
vt 0.411528 0.865509
vt 0.411528 0.865509
vt 0.415891 0.865509
vt 0.415891 0.865509
vt 0.411528 0.882414
vt 0.415891 0.882414
vt 0.415891 0.846726
vt 0.411528 0.846726
vt 0.416436 0.848495
vt 0.416436 0.848476
vt 0.416436 0.832979
vt 0.411528 0.815476
vt 0.415891 0.815476
vt 0.415891 0.815476
vt 0.411528 0.815476
vt 0.410983 0.860198
vt 0.411528 0.863630
vt 0.411528 0.848604
vt 0.415891 0.848604
vt 0.415891 0.863630
vt 0.416436 0.850082
vt 0.415891 0.867202
vt 0.411528 0.867202
vt 0.411528 0.915542
vt 0.411528 0.915542
vt 0.415891 0.915542
vt 0.415891 0.915542
vt 0.442233 0.944914
vt 0.442778 0.944914
vt 0.442778 0.946792
vt 0.442233 0.944914
vt 0.442778 0.946792
vt 0.442778 0.944914
vt 0.447686 0.944914
vt 0.447141 0.946792
vt 0.447141 0.944914
vt 0.447141 0.944914
vt 0.447141 0.946792
vt 0.447686 0.944914
vt 0.447141 0.896759
vt 0.447141 0.894880
vt 0.447686 0.895351
vt 0.442778 0.896759
vt 0.442233 0.895351
vt 0.442778 0.894880
vt 0.447141 0.846726
vt 0.447686 0.848604
vt 0.447141 0.848604
vt 0.442778 0.846726
vt 0.442778 0.848604
vt 0.442233 0.848604
vt 0.442778 0.877976
vt 0.442233 0.879854
vt 0.442233 0.913664
vt 0.442778 0.913664
vt 0.447686 0.879854
vt 0.447141 0.877976
vt 0.447141 0.913664
vt 0.447686 0.913664
vt 0.442233 0.879854
vt 0.442778 0.879854
vt 0.447141 0.879854
vt 0.447686 0.879854
vt 0.442233 0.848604
vt 0.442778 0.846726
vt 0.447141 0.846726
vt 0.447686 0.848604
vt 0.442778 0.909397
vt 0.442233 0.907073
vt 0.442233 0.901245
vt 0.442778 0.903078
vt 0.442233 0.896957
vt 0.442778 0.898452
vt 0.442233 0.895370
vt 0.442778 0.896759
vt 0.447141 0.896759
vt 0.447686 0.895370
vt 0.447686 0.896957
vt 0.447141 0.898452
vt 0.447686 0.901245
vt 0.447141 0.903078
vt 0.447686 0.907073
vt 0.447141 0.909397
vt 0.442778 0.913664
vt 0.442233 0.913664
vt 0.447686 0.913664
vt 0.447141 0.913664
vt 0.410983 0.866789
vt 0.410983 0.866789
vt 0.416436 0.866789
vt 0.416436 0.866789
vt 0.416436 0.860198
vt 0.416436 0.832979
vt 0.416436 0.854370
vt 0.410983 0.832979
vt 0.410983 0.832979
vt 0.410983 0.848476
vt 0.410983 0.848495
vt 0.415891 0.871828
vt 0.415891 0.878147
vt 0.411528 0.878147
vt 0.411528 0.871828
vt 0.415891 0.882414
vt 0.411528 0.882414
vt 0.410983 0.854370
vt 0.410983 0.850082
vt 0.411528 0.865509
vt 0.411528 0.865509
vt 0.415891 0.865509
vt 0.415891 0.865509
vt 0.411528 0.882414
vt 0.415891 0.882414
vt 0.415891 0.846726
vt 0.411528 0.846726
vt 0.416436 0.848495
vt 0.416436 0.848476
vt 0.416436 0.832979
vt 0.411528 0.815476
vt 0.415891 0.815476
vt 0.415891 0.815476
vt 0.411528 0.815476
vt 0.410983 0.860198
vt 0.411528 0.863630
vt 0.411528 0.848604
vt 0.415891 0.848604
vt 0.415891 0.863630
vt 0.416436 0.850082
vt 0.415891 0.867202
vt 0.411528 0.867202
vt 0.411528 0.915542
vt 0.411528 0.915542
vt 0.415891 0.915542
vt 0.415891 0.915542
vt 0.442233 0.944914
vt 0.442778 0.944914
vt 0.442778 0.946792
vt 0.442233 0.944914
vt 0.442778 0.946792
vt 0.442778 0.944914
vt 0.447686 0.944914
vt 0.447141 0.946792
vt 0.447141 0.944914
vt 0.447141 0.944914
vt 0.447141 0.946792
vt 0.447686 0.944914
vt 0.447141 0.896759
vt 0.447141 0.894880
vt 0.447686 0.895351
vt 0.442778 0.896759
vt 0.442233 0.895351
vt 0.442778 0.894880
vt 0.447141 0.846726
vt 0.447686 0.848604
vt 0.447141 0.848604
vt 0.442778 0.846726
vt 0.442778 0.848604
vt 0.442233 0.848604
vt 0.442778 0.877976
vt 0.442233 0.879854
vt 0.442233 0.913664
vt 0.442778 0.913664
vt 0.447686 0.879854
vt 0.447141 0.877976
vt 0.447141 0.913664
vt 0.447686 0.913664
vt 0.442233 0.879854
vt 0.442778 0.879854
vt 0.447141 0.879854
vt 0.447686 0.879854
vt 0.442233 0.848604
vt 0.442778 0.846726
vt 0.447141 0.846726
vt 0.447686 0.848604
vt 0.442778 0.909397
vt 0.442233 0.907073
vt 0.442233 0.901245
vt 0.442778 0.903078
vt 0.442233 0.896957
vt 0.442778 0.898452
vt 0.442233 0.895370
vt 0.442778 0.896759
vt 0.447141 0.896759
vt 0.447686 0.895370
vt 0.447686 0.896957
vt 0.447141 0.898452
vt 0.447686 0.901245
vt 0.447141 0.903078
vt 0.447686 0.907073
vt 0.447141 0.909397
vt 0.442778 0.913664
vt 0.442233 0.913664
vt 0.447686 0.913664
vt 0.447141 0.913664
vt 0.410983 0.866789
vt 0.410983 0.866789
vn -0.3416 0.3416 0.8756
vn 0.0000 -0.0000 1.0000
vn 0.3416 0.3416 0.8756
vn -0.8756 0.3416 -0.3416
vn -0.8756 -0.3416 -0.3416
vn -0.8756 -0.3416 0.3416
vn -0.8756 0.3416 0.3416
vn -0.3416 -0.8756 -0.3416
vn 0.3416 -0.8756 -0.3416
vn 0.3416 -0.8756 0.3416
vn -0.3416 -0.8756 0.3416
vn 0.8756 0.3416 0.3416
vn 0.8756 -0.3416 0.3416
vn 0.8756 -0.3416 -0.3416
vn 0.8756 0.3416 -0.3416
vn 0.3416 0.3416 -0.8756
vn 0.3416 -0.3416 -0.8756
vn -0.3416 -0.3416 -0.8756
vn -0.3416 0.3416 -0.8756
vn 0.4606 0.7588 0.4606
vn 0.4606 -0.4606 0.7588
vn 0.4606 0.7588 -0.4606
vn -0.3416 0.8756 0.3416
vn -0.4606 -0.4606 0.7588
vn -0.3416 0.8756 -0.3416
vn 0.0000 1.0000 0.0000
vn 0.8423 0.3519 0.4083
vn 0.9309 0.0679 0.3590
vn 1.0000 -0.0000 0.0000
vn 0.9572 0.1547 0.2446
vn -0.9054 -0.3002 -0.3002
vn -0.8422 0.4087 0.3517
vn -0.9309 0.3589 0.0678
vn 0.0000 0.5000 0.8660
vn 0.3478 0.0970 0.9325
vn -0.3478 0.0970 0.9325
vn 0.2823 0.3499 0.8932
vn -0.2823 0.3499 0.8932
vn -0.9572 0.1547 0.2446
vn -0.9572 0.2446 0.1547
vn -0.3476 0.9326 0.0966
vn -0.2822 0.8934 0.3496
vn 0.2822 0.8934 0.3496
vn 0.3476 0.9326 0.0966
vn 0.2880 0.0000 -0.9576
vn 0.0000 0.0000 -1.0000
vn 0.9309 0.3589 0.0678
vn 0.8422 0.4087 0.3517
vn -0.0000 -1.0000 -0.0000
vn 0.2880 -0.9576 -0.0000
vn -0.9309 0.0679 0.3590
vn -0.3276 0.3311 0.8849
vn 0.3276 0.3311 0.8849
vn 0.9572 0.2446 0.1547
vn 0.0000 0.8660 0.5000
vn -0.3276 0.8849 0.3311
vn 0.3276 0.8849 0.3311
vn -0.6887 0.4733 0.5492
vn -0.7071 0.0000 -0.7071
vn 0.7071 0.0000 -0.7071
vn -0.7071 -0.7071 -0.0000
vn 0.7071 -0.7071 -0.0000
vn -0.7560 0.2956 0.5840
vn -0.7560 0.5840 0.2956
vn 0.7560 0.5840 0.2956
vn 0.7560 0.2956 0.5840
vn -1.0000 0.0000 -0.0000
vn -0.8423 0.3519 0.4083
vn -0.4606 0.7588 -0.4606
usemtl furniture_texture
s 1
f 15/1/1 17/2/2 4/3/2 2/4/3
f 21/5/4 23/6/5 18/7/6 14/8/7
f 22/9/8 10/10/9 5/11/10 16/12/11
f 3/13/12 6/14/13 12/15/14 8/16/15
f 9/17/16 11/18/17 24/19/18 20/20/19
f 1/21/20 2/22/3 3/23/12
f 4/24/21 5/25/10 6/26/13
f 7/27/22 8/28/15 9/29/16
f 10/30/9 11/31/17 12/32/14
f 13/33/23 14/34/7 15/35/1
f 16/36/11 17/37/24 18/38/6
f 19/39/25 20/40/19 21/41/4
f 22/42/8 23/43/5 24/44/18
f 7/27/22 1/21/20 3/23/12 8/28/15
f 2/45/3 4/46/21 6/47/13 3/48/12
f 5/25/10 10/30/9 12/32/14 6/26/13
f 11/49/17 9/50/16 8/51/15 12/52/14
f 19/39/25 7/27/22 9/29/16 20/40/19
f 10/30/9 22/42/8 24/44/18 11/31/17
f 23/53/5 21/54/4 20/55/19 24/56/18
f 13/33/23 19/39/25 21/41/4 14/34/7
f 22/42/8 16/36/11 18/38/6 23/43/5
f 17/57/24 15/58/1 14/59/7 18/60/6
f 1/21/20 13/33/23 15/35/1 2/22/3
f 16/36/11 5/25/10 4/24/21 17/37/24
f 7/61/26 19/62/25 13/63/23 1/64/26
f 35/65/15 31/66/27 64/67/28 40/68/29
f 68/69/30 40/68/29 64/67/28
f 37/70/31 51/71/6 46/72/32 56/73/33
f 67/74/34 63/75/35 54/76/36 57/77/34
f 32/78/37 27/79/38 54/76/36 63/75/35
f 58/80/39 37/70/31 60/81/40
f 55/82/41 44/83/42 41/84/43 62/85/44
f 60/81/40 37/70/31 56/73/33
f 29/86/19 34/87/16 39/88/45 38/89/46
f 61/90/47 42/91/48 49/92/13 40/68/29
f 38/93/49 39/94/50 47/95/10 50/96/11
f 53/97/51 37/70/31 58/80/39
f 45/98/52 52/99/2 48/100/2 43/101/53
f 61/90/47 40/68/29 66/102/54
f 66/102/54 40/68/29 68/69/30
f 65/103/55 67/74/34 57/77/34 59/104/55
f 62/85/44 65/103/55 59/104/55 55/82/41
f 30/105/25 26/106/56 33/107/57 36/108/26
f 25/109/58 27/110/38 26/111/56
f 28/112/4 30/113/25 29/114/19
f 31/115/27 33/116/57 32/117/37
f 34/118/16 36/119/22 35/120/15
f 41/121/43 43/122/53 42/123/48
f 44/124/42 46/125/32 45/126/52
f 47/127/10 49/128/13 48/129/21
f 50/130/11 52/131/24 51/132/6
f 30/113/25 28/112/4 25/109/58 26/111/56
f 36/119/22 34/118/16 29/114/19 30/113/25
f 33/116/57 31/115/27 35/120/15 36/119/22
f 26/111/56 27/110/38 32/117/37 33/116/57
f 38/133/59 37/134/31 28/135/4 29/136/19
f 40/137/60 39/138/45 34/139/16 35/140/15
f 43/122/53 41/121/43 44/124/42 45/126/52
f 47/127/10 48/129/21 52/131/24 50/130/11
f 45/126/52 46/125/32 51/141/6 52/142/24
f 42/123/48 43/122/53 48/143/21 49/144/13
f 37/145/31 38/146/61 50/130/11 51/132/6
f 49/128/13 47/127/10 39/147/50 40/148/62
f 54/149/36 53/150/51 58/151/39 57/152/63
f 57/152/63 58/151/39 60/153/40 59/154/64
f 59/154/64 60/153/40 56/155/33 55/156/41
f 62/157/44 61/158/47 66/159/54 65/160/65
f 65/160/65 66/159/54 68/161/30 67/162/66
f 67/162/66 68/161/30 64/163/28 63/164/35
f 27/165/38 25/166/58 53/150/51 54/149/36
f 31/167/27 32/168/37 63/164/35 64/163/28
f 46/125/32 44/124/42 55/156/41 56/155/33
f 61/158/47 62/157/44 41/121/43 42/123/48
f 53/97/51 25/169/67 28/170/4 37/70/31
f 79/171/15 75/172/27 108/173/28 84/174/29
f 112/175/30 84/174/29 108/173/28
f 81/176/31 95/177/6 90/178/32 100/179/33
f 111/180/34 107/181/35 98/182/36 101/183/34
f 76/184/37 71/185/38 98/182/36 107/181/35
f 102/186/39 81/176/31 104/187/40
f 99/188/41 88/189/42 85/190/43 106/191/44
f 104/187/40 81/176/31 100/179/33
f 73/192/19 78/193/16 83/194/45 82/195/46
f 105/196/47 86/197/48 93/198/13 84/174/29
f 82/199/49 83/200/50 91/201/10 94/202/11
f 97/203/51 81/176/31 102/186/39
f 89/204/52 96/205/2 92/206/2 87/207/53
f 105/196/47 84/174/29 110/208/54
f 110/208/54 84/174/29 112/175/30
f 109/209/55 111/180/34 101/183/34 103/210/55
f 106/191/44 109/209/55 103/210/55 99/188/41
f 74/211/26 70/212/56 77/213/57 80/214/26
f 69/215/68 71/216/38 70/217/56
f 72/218/4 74/219/69 73/220/19
f 75/221/27 77/222/57 76/223/37
f 78/224/16 80/225/22 79/226/15
f 85/227/43 87/228/53 86/229/48
f 88/230/42 90/231/32 89/232/52
f 91/233/10 93/234/13 92/235/21
f 94/236/11 96/237/24 95/238/6
f 74/219/69 72/218/4 69/215/68 70/217/56
f 80/225/22 78/224/16 73/220/19 74/219/69
f 77/222/57 75/221/27 79/226/15 80/225/22
f 70/217/56 71/216/38 76/223/37 77/222/57
f 82/239/59 81/240/31 72/241/4 73/242/19
f 84/243/60 83/244/45 78/245/16 79/246/15
f 87/228/53 85/227/43 88/230/42 89/232/52
f 91/233/10 92/235/21 96/237/24 94/236/11
f 89/232/52 90/231/32 95/247/6 96/248/24
f 86/229/48 87/228/53 92/249/21 93/250/13
f 81/251/31 82/252/61 94/236/11 95/238/6
f 93/234/13 91/233/10 83/253/50 84/254/62
f 98/255/36 97/256/51 102/257/39 101/258/63
f 101/258/63 102/257/39 104/259/40 103/260/64
f 103/260/64 104/259/40 100/261/33 99/262/41
f 106/263/44 105/264/47 110/265/54 109/266/65
f 109/266/65 110/265/54 112/267/30 111/268/66
f 111/268/66 112/267/30 108/269/28 107/270/35
f 71/271/38 69/272/68 97/256/51 98/255/36
f 75/273/27 76/274/37 107/270/35 108/269/28
f 90/231/32 88/230/42 99/262/41 100/261/33
f 105/264/47 106/263/44 85/227/43 86/229/48
f 97/203/51 69/275/68 72/276/4 81/176/31
