# Blender v3.4.1 OBJ File: 'Furniture_export.blend'
# www.blender.org
mtllib table_medium_long.mtl
o table_medium_long_Cube.004
v 1.430000 -0.000000 0.930000
v 1.450000 0.020000 0.930000
v 1.430000 0.020000 0.950000
v 1.430000 0.800000 0.950000
v 1.450000 0.800000 0.930000
v 1.430000 -0.000000 0.770000
v 1.430000 0.020000 0.750000
v 1.450000 0.020000 0.770000
v 1.450000 0.800000 0.770000
v 1.430000 0.800000 0.750000
v 1.270000 -0.000000 0.930000
v 1.270000 0.020000 0.950000
v 1.250000 0.020000 0.930000
v 1.250000 0.800000 0.930000
v 1.270000 0.800000 0.950000
v 1.270000 -0.000000 0.770000
v 1.260000 0.020000 0.760000
v 1.260000 0.800000 0.760000
v -1.430000 -0.000000 0.930000
v -1.450000 0.020000 0.930000
v -1.430000 0.020000 0.950000
v -1.430000 0.800000 0.950000
v -1.450000 0.800000 0.930000
v -1.430000 -0.000000 0.770000
v -1.430000 0.020000 0.750000
v -1.450000 0.020000 0.770000
v -1.450000 0.800000 0.770000
v -1.430000 0.800000 0.750000
v -1.270000 -0.000000 0.930000
v -1.270000 0.020000 0.950000
v -1.250000 0.020000 0.930000
v -1.250000 0.800000 0.930000
v -1.270000 0.800000 0.950000
v -1.270000 -0.000000 0.770000
v -1.260000 0.020000 0.760000
v -1.260000 0.800000 0.760000
v -1.430000 -0.000000 -0.930000
v -1.450000 0.020000 -0.930000
v -1.430000 0.020000 -0.950000
v -1.430000 0.800000 -0.950000
v -1.450000 0.800000 -0.930000
v -1.430000 -0.000000 -0.770000
v -1.430000 0.020000 -0.750000
v -1.450000 0.020000 -0.770000
v -1.450000 0.800000 -0.770000
v -1.430000 0.800000 -0.750000
v -1.270000 -0.000000 -0.930000
v -1.270000 0.020000 -0.950000
v -1.250000 0.020000 -0.930000
v -1.250000 0.800000 -0.930000
v -1.270000 0.800000 -0.950000
v -1.270000 -0.000000 -0.770000
v -1.260000 0.020000 -0.760000
v -1.260000 0.800000 -0.760000
v 1.430000 -0.000000 -0.930000
v 1.450000 0.020000 -0.930000
v 1.430000 0.020000 -0.950000
v 1.430000 0.800000 -0.950000
v 1.450000 0.800000 -0.930000
v 1.430000 -0.000000 -0.770000
v 1.430000 0.020000 -0.750000
v 1.450000 0.020000 -0.770000
v 1.450000 0.800000 -0.770000
v 1.430000 0.800000 -0.750000
v 1.270000 -0.000000 -0.930000
v 1.270000 0.020000 -0.950000
v 1.250000 0.020000 -0.930000
v 1.250000 0.800000 -0.930000
v 1.270000 0.800000 -0.950000
v 1.270000 -0.000000 -0.770000
v 1.260000 0.020000 -0.760000
v 1.260000 0.800000 -0.760000
v -1.400000 0.800000 0.900000
v -1.480000 0.820000 1.000000
v -1.500000 0.820000 0.980000
v -1.480000 0.980000 1.000000
v -1.480000 1.000000 0.980000
v -1.500000 0.980000 0.980000
v -1.400000 0.800000 -0.900000
v -1.500000 0.820000 -0.980000
v -1.480000 0.820000 -1.000000
v -1.480000 1.000000 -0.980000
v -1.480000 0.980000 -1.000000
v -1.500000 0.980000 -0.980000
v 1.400000 0.800000 0.900000
v 1.500000 0.820000 0.980000
v 1.480000 0.820000 1.000000
v 1.480000 1.000000 0.980000
v 1.480000 0.980000 1.000000
v 1.500000 0.980000 0.980000
v 1.400000 0.800000 -0.900000
v 1.480000 0.820000 -1.000000
v 1.500000 0.820000 -0.980000
v 1.480000 1.000000 -0.980000
v 1.500000 0.980000 -0.980000
v 1.480000 0.980000 -1.000000
v -1.480000 0.800000 -0.980000
v -1.480000 0.800000 0.980000
v 1.480000 0.800000 -0.980000
v 1.480000 0.800000 0.980000
v -1.400000 0.600000 -0.900000
v -1.400000 0.600000 0.900000
v 1.400000 0.600000 -0.900000
v 1.400000 0.600000 0.900000
vt 0.027221 0.785433
vt 0.027221 0.785433
vt 0.029088 0.785433
vt 0.035387 0.785433
vt 0.037253 0.785433
vt 0.035387 0.785433
vt 0.037253 0.785433
vt 0.037253 0.785433
vt 0.035387 0.785433
vt 0.029088 0.785433
vt 0.027221 0.785433
vt 0.029088 0.785433
vt 0.035387 0.818486
vt 0.037253 0.818486
vt 0.037253 0.888832
vt 0.035387 0.888832
vt 0.035270 0.802861
vt 0.035154 0.802861
vt 0.035154 0.873207
vt 0.035270 0.873207
vt 0.037253 0.818486
vt 0.035270 0.818486
vt 0.035270 0.888832
vt 0.037253 0.888832
vt 0.037487 0.802861
vt 0.037487 0.802861
vt 0.037487 0.873207
vt 0.037487 0.873207
vt 0.083802 0.816683
vt 0.083980 0.818486
vt 0.083802 0.818486
vt 0.083802 0.816683
vt 0.083802 0.818486
vt 0.083980 0.818486
vt 0.082377 0.816683
vt 0.082377 0.818486
vt 0.082199 0.818486
vt 0.083980 0.849736
vt 0.083980 0.920082
vt 0.083802 0.920082
vt 0.083802 0.849736
vt 0.083980 0.920082
vt 0.083980 0.849736
vt 0.083802 0.849736
vt 0.083802 0.920082
vt 0.082289 0.818486
vt 0.082377 0.816683
vt 0.082199 0.920082
vt 0.082199 0.849736
vt 0.082377 0.849736
vt 0.082377 0.920082
vt 0.037253 0.785433
vt 0.029088 0.818486
vt 0.029088 0.888832
vt 0.027221 0.888832
vt 0.027221 0.818486
vt 0.029204 0.802861
vt 0.029204 0.873207
vt 0.029321 0.873207
vt 0.029321 0.802861
vt 0.027221 0.818486
vt 0.027221 0.888832
vt 0.029204 0.888832
vt 0.029204 0.818486
vt 0.026988 0.802861
vt 0.026988 0.873207
vt 0.026988 0.873207
vt 0.026988 0.802861
vt 0.076146 0.816683
vt 0.076146 0.818486
vt 0.075968 0.818486
vt 0.076146 0.816683
vt 0.075968 0.818486
vt 0.076146 0.818486
vt 0.077571 0.816683
vt 0.077749 0.818486
vt 0.077571 0.818486
vt 0.075968 0.849736
vt 0.076146 0.849736
vt 0.076146 0.920082
vt 0.075968 0.920082
vt 0.075968 0.920082
vt 0.076146 0.920082
vt 0.076146 0.849736
vt 0.075968 0.849736
vt 0.077660 0.818486
vt 0.077571 0.816683
vt 0.077749 0.920082
vt 0.077571 0.920082
vt 0.077571 0.849736
vt 0.077749 0.849736
vt 0.029088 0.785433
vt 0.029088 0.818486
vt 0.027221 0.818486
vt 0.027221 0.888832
vt 0.029088 0.888832
vt 0.029204 0.802861
vt 0.029321 0.802861
vt 0.029321 0.873207
vt 0.029204 0.873207
vt 0.027221 0.818486
vt 0.029204 0.818486
vt 0.029204 0.888832
vt 0.027221 0.888832
vt 0.026988 0.802861
vt 0.026988 0.802861
vt 0.026988 0.873207
vt 0.026988 0.873207
vt 0.076146 0.816683
vt 0.075968 0.818486
vt 0.076146 0.818486
vt 0.076146 0.816683
vt 0.076146 0.818486
vt 0.075968 0.818486
vt 0.077571 0.816683
vt 0.077571 0.818486
vt 0.077749 0.818486
vt 0.075968 0.849736
vt 0.075968 0.920082
vt 0.076146 0.920082
vt 0.076146 0.849736
vt 0.075968 0.920082
vt 0.075968 0.849736
vt 0.076146 0.849736
vt 0.076146 0.920082
vt 0.077660 0.818486
vt 0.077571 0.816683
vt 0.077749 0.920082
vt 0.077749 0.849736
vt 0.077571 0.849736
vt 0.077571 0.920082
vt 0.027221 0.785433
vt 0.035387 0.818486
vt 0.035387 0.888832
vt 0.037253 0.888832
vt 0.037253 0.818486
vt 0.035270 0.802861
vt 0.035270 0.873207
vt 0.035154 0.873207
vt 0.035154 0.802861
vt 0.037253 0.818486
vt 0.037253 0.888832
vt 0.035270 0.888832
vt 0.035270 0.818486
vt 0.037487 0.802861
vt 0.037487 0.873207
vt 0.037487 0.873207
vt 0.037487 0.802861
vt 0.083802 0.816683
vt 0.083802 0.818486
vt 0.083980 0.818486
vt 0.083802 0.816683
vt 0.083980 0.818486
vt 0.083802 0.818486
vt 0.082377 0.816683
vt 0.082199 0.818486
vt 0.082377 0.818486
vt 0.083980 0.849736
vt 0.083802 0.849736
vt 0.083802 0.920082
vt 0.083980 0.920082
vt 0.083980 0.920082
vt 0.083802 0.920082
vt 0.083802 0.849736
vt 0.083980 0.849736
vt 0.082289 0.818486
vt 0.082377 0.816683
vt 0.082199 0.920082
vt 0.082377 0.920082
vt 0.082377 0.849736
vt 0.082199 0.849736
vt 0.035387 0.785433
vt 0.168232 0.892167
vt 0.168232 0.917907
vt 0.153206 0.917907
vt 0.153206 0.892167
vt 0.168544 0.876542
vt 0.168544 0.902282
vt 0.168544 0.902282
vt 0.168544 0.876542
vt 0.168232 0.952374
vt 0.153206 0.952374
vt 0.153206 0.952374
vt 0.168232 0.952374
vt 0.152893 0.876542
vt 0.152893 0.902282
vt 0.152893 0.902282
vt 0.152893 0.876542
vt 0.153206 0.892167
vt 0.153206 0.917907
vt 0.168232 0.917907
vt 0.168232 0.892167
vt 0.201898 0.920199
vt 0.201898 0.923417
vt 0.201659 0.923417
vt 0.201898 0.980407
vt 0.201898 0.983624
vt 0.201659 0.980407
vt 0.201898 0.920199
vt 0.201659 0.923417
vt 0.201898 0.923417
vt 0.201898 0.983624
vt 0.201898 0.980407
vt 0.201659 0.980407
vt 0.213364 0.920199
vt 0.213602 0.923417
vt 0.213364 0.923417
vt 0.213364 0.983624
vt 0.213364 0.980407
vt 0.213602 0.980407
vt 0.213364 0.920199
vt 0.213364 0.923417
vt 0.213602 0.923417
vt 0.213364 0.983624
vt 0.213602 0.980407
vt 0.213364 0.980407
vt 0.201898 0.949157
vt 0.201659 0.949157
vt 0.201898 0.949157
vt 0.201659 0.949157
vt 0.213602 0.949157
vt 0.213364 0.949157
vt 0.213364 0.949157
vt 0.213602 0.949157
vt 0.036903 0.873207
vt 0.036903 0.873207
vt 0.036903 0.855170
vt 0.036903 0.855170
vt 0.152571 0.857582
vt 0.152571 0.857582
vt 0.151638 0.857582
vt 0.151638 0.857582
vt 0.161903 0.857582
vt 0.162837 0.857582
vt 0.161903 0.857582
vt 0.162837 0.857582
vt 0.027571 0.839545
vt 0.036903 0.839545
vt 0.036903 0.839545
vt 0.027571 0.839545
vt 0.027571 0.873207
vt 0.027571 0.873207
vt 0.027571 0.855170
vt 0.027571 0.855170
vt 0.036903 0.888832
vt 0.027571 0.888832
vt 0.027571 0.870795
vt 0.036903 0.870795
vt 0.027571 0.888832
vt 0.036903 0.888832
vt 0.036903 0.870795
vt 0.027571 0.870795
vn -0.3416 -0.8756 0.3416
vn -0.3411 -0.8609 -0.3774
vn 0.3774 -0.8609 0.3411
vn 0.0000 -1.0000 0.0000
vn 0.3411 -0.8609 -0.3774
vn -0.3774 -0.8609 0.3411
vn 0.3416 -0.8756 -0.3416
vn 0.3411 -0.8609 0.3774
vn -0.3774 -0.8609 -0.3411
vn -0.3411 -0.8609 0.3774
vn 0.3774 -0.8609 -0.3411
vn -0.3416 -0.3416 0.8756
vn 0.3416 -0.3416 0.8756
vn 0.3827 0.0000 0.9239
vn -0.3827 0.0000 0.9239
vn -0.9610 -0.2725 -0.0463
vn -0.8983 -0.3048 0.3165
vn -0.9983 0.0000 -0.0587
vn 0.3165 -0.3048 -0.8983
vn -0.0463 -0.2725 -0.9610
vn -0.0587 0.0000 -0.9983
vn 1.0000 0.0000 0.0000
vn 0.3416 -0.8756 0.3416
vn 0.7588 -0.4606 0.4606
vn 0.7588 -0.4606 -0.4606
vn 0.7071 0.0000 0.7071
vn 0.7071 0.0000 -0.7071
vn -0.0241 -0.6037 -0.7969
vn -0.7969 -0.6037 -0.0241
vn -0.7071 0.0000 0.7071
vn 0.9610 -0.2725 -0.0463
vn 0.9983 0.0000 -0.0587
vn 0.8983 -0.3048 0.3165
vn -0.3165 -0.3048 -0.8983
vn 0.0587 0.0000 -0.9983
vn 0.0463 -0.2725 -0.9610
vn -1.0000 0.0000 0.0000
vn -0.7588 -0.4606 0.4606
vn -0.7588 -0.4606 -0.4606
vn -0.7071 0.0000 -0.7071
vn 0.0241 -0.6037 -0.7969
vn 0.7969 -0.6037 -0.0241
vn 0.3416 -0.3416 -0.8756
vn -0.3416 -0.3416 -0.8756
vn -0.3827 0.0000 -0.9239
vn 0.3827 0.0000 -0.9239
vn 0.9610 -0.2725 0.0463
vn 0.8983 -0.3048 -0.3165
vn 0.9983 0.0000 0.0587
vn -0.3165 -0.3048 0.8983
vn 0.0463 -0.2725 0.9610
vn 0.0587 0.0000 0.9983
vn -0.3416 -0.8756 -0.3416
vn 0.0241 -0.6037 0.7969
vn 0.7969 -0.6037 0.0241
vn -0.9610 -0.2725 0.0463
vn -0.9983 0.0000 0.0587
vn -0.8983 -0.3048 -0.3165
vn 0.3165 -0.3048 0.8983
vn -0.0587 0.0000 0.9983
vn -0.0463 -0.2725 0.9610
vn -0.0241 -0.6037 0.7969
vn -0.7969 -0.6037 0.0241
vn 0.3416 0.3416 0.8756
vn -0.3416 0.3416 0.8756
vn 0.3416 0.8756 -0.3416
vn -0.3416 0.8756 -0.3416
vn -0.3416 0.8756 0.3416
vn 0.3416 0.8756 0.3416
vn -0.3416 0.3416 -0.8756
vn 0.3416 0.3416 -0.8756
vn -0.7588 0.4606 0.4606
vn -0.7588 0.4606 -0.4606
vn 0.7588 0.4606 0.4606
vn 0.7588 0.4606 -0.4606
vn 0.0000 0.0000 1.0000
vn 0.0000 0.0000 -1.0000
usemtl furniture_texture
s 1
f 19/1/1 24/2/2 29/3/3
f 16/4/4 6/5/5 11/6/6
f 55/7/7 60/8/8 65/9/9
f 52/10/4 42/11/10 47/12/11
f 12/13/12 3/14/13 4/15/14 15/16/15
f 17/17/16 13/18/17 14/19/18 18/20/18
f 7/21/19 17/22/20 18/23/21 10/24/21
f 2/25/22 8/26/22 9/27/22 5/28/22
f 1/29/23 2/30/24 3/31/13
f 6/32/5 7/33/19 8/34/25
f 11/35/6 12/36/12 13/37/17
f 8/34/25 2/30/24 1/29/23 6/32/5
f 2/38/24 5/39/26 4/40/14 3/41/13
f 9/42/27 8/43/25 7/44/19 10/45/27
f 17/46/20 7/33/19 6/32/5 16/47/28
f 13/37/17 17/46/16 16/47/29 11/35/6
f 14/48/30 13/49/17 12/50/12 15/51/15
f 3/31/13 12/36/12 11/35/6 1/29/23
f 6/5/5 1/52/23 11/6/6
f 30/53/13 33/54/14 22/55/15 21/56/12
f 35/57/31 36/58/32 32/59/32 31/60/33
f 25/61/34 28/62/35 36/63/35 35/64/36
f 20/65/37 23/66/37 27/67/37 26/68/37
f 19/69/1 21/70/12 20/71/38
f 24/72/2 26/73/39 25/74/34
f 29/75/3 31/76/33 30/77/13
f 26/73/39 24/72/2 19/69/1 20/71/38
f 20/78/38 21/79/12 22/80/15 23/81/30
f 27/82/40 28/83/40 25/84/34 26/85/39
f 35/86/36 34/87/41 24/72/2 25/74/34
f 31/76/33 29/75/3 34/87/42 35/86/31
f 32/88/26 33/89/14 30/90/13 31/91/33
f 21/70/12 19/69/1 29/75/3 30/77/13
f 24/2/2 34/92/4 29/3/3
f 48/93/43 39/94/44 40/95/45 51/96/46
f 53/97/47 49/98/48 50/99/49 54/100/49
f 43/101/50 53/102/51 54/103/52 46/104/52
f 38/105/37 44/106/37 45/107/37 41/108/37
f 37/109/53 38/110/39 39/111/44
f 42/112/10 43/113/50 44/114/38
f 47/115/11 48/116/43 49/117/48
f 44/114/38 38/110/39 37/109/53 42/112/10
f 38/118/39 41/119/40 40/120/45 39/121/44
f 45/122/30 44/123/38 43/124/50 46/125/30
f 53/126/51 43/113/50 42/112/10 52/127/54
f 49/117/48 53/126/47 52/127/55 47/115/11
f 50/128/27 49/129/48 48/130/43 51/131/46
f 39/111/44 48/116/43 47/115/11 37/109/53
f 42/11/10 37/132/53 47/12/11
f 66/133/44 69/134/45 58/135/46 57/136/43
f 71/137/56 72/138/57 68/139/57 67/140/58
f 61/141/59 64/142/60 72/143/60 71/144/61
f 56/145/22 59/146/22 63/147/22 62/148/22
f 55/149/7 57/150/43 56/151/25
f 60/152/8 62/153/24 61/154/59
f 65/155/9 67/156/58 66/157/44
f 62/153/24 60/152/8 55/149/7 56/151/25
f 56/158/25 57/159/43 58/160/46 59/161/27
f 63/162/26 64/163/26 61/164/59 62/165/24
f 71/166/61 70/167/62 60/152/8 61/154/59
f 67/156/58 65/155/9 70/167/63 71/166/56
f 68/168/40 69/169/45 66/170/44 67/171/58
f 57/150/43 55/149/7 65/155/9 66/157/44
f 60/8/8 70/172/4 65/9/9
f 87/173/13 89/174/64 76/175/65 74/176/12
f 93/177/22 95/178/22 90/179/22 86/180/22
f 94/181/66 82/182/67 77/183/68 88/184/69
f 75/185/37 78/186/37 84/187/37 80/188/37
f 81/189/44 83/190/70 96/191/71 92/192/43
f 98/193/1 74/194/12 75/195/38
f 76/196/65 77/197/68 78/198/72
f 97/199/53 80/200/39 81/201/44
f 82/202/67 83/203/70 84/204/73
f 100/205/23 86/206/24 87/207/13
f 88/208/69 89/209/64 90/210/74
f 99/211/7 92/212/43 93/213/25
f 94/214/66 95/215/75 96/216/71
f 97/199/53 98/193/1 75/195/38 80/200/39
f 74/194/12 76/217/65 78/218/72 75/195/38
f 77/197/68 82/202/67 84/204/73 78/198/72
f 83/219/70 81/201/44 80/200/39 84/220/73
f 99/211/7 97/199/53 81/201/44 92/212/43
f 82/202/67 94/214/66 96/216/71 83/203/70
f 95/221/75 93/213/25 92/212/43 96/222/71
f 100/205/23 99/211/7 93/213/25 86/206/24
f 94/214/66 88/208/69 90/210/74 95/215/75
f 89/223/64 87/207/13 86/206/24 90/224/74
f 98/193/1 100/205/23 87/207/13 74/194/12
f 88/208/69 77/197/68 76/196/65 89/209/64
f 91/225/22 85/226/22 104/227/22 103/228/22
f 79/229/4 73/230/4 98/231/1 97/232/53
f 91/233/4 79/229/4 97/232/53 99/234/7
f 85/235/4 91/233/4 99/234/7 100/236/23
f 73/230/4 85/235/4 100/236/23 98/231/1
f 101/237/4 103/238/4 104/239/4 102/240/4
f 73/241/37 79/242/37 101/243/37 102/244/37
f 85/245/76 73/246/76 102/247/76 104/248/76
f 79/249/77 91/250/77 103/251/77 101/252/77
