{
	"asset":{
		"generator":"Khronos glTF Blender I/O v3.5.30",
		"version":"2.0"
	},
	"scene":0,
	"scenes":[
		{
			"extras":{
				"sprytile_data":{
					"auto_reload":0,
					"world_pixels":32
				},
				"vr_landmarks":[
					{
						"type":0,
						"base_scale":1.0
					}
				],
				"collection_manager":{},
				"sun_pos_properties":{
					"show_surface":0,
					"show_analemmas":0,
					"show_north":0,
					"day_of_year":264,
					"sun_object":{},
					"object_collection":{}
				},
				"skinify":{
					"connect_mesh":0,
					"connect_parents":0,
					"generate_all":0,
					"thickness":0.800000011920929,
					"finger_thickness":0.25,
					"apply_mod":1,
					"parent_armature":1,
					"sub_level":1
				},
				"tension_props":{}
			},
			"name":"Scene",
			"nodes":[
				32
			]
		}
	],
	"nodes":[
		{
			"name":"Thumb_Tip_L",
			"rotation":[
				-0.07576871663331985,
				-0.01925703138113022,
				-0.033712420612573624,
				0.9963692426681519
			],
			"scale":[
				1.0000001192092896,
				1.000000238418579,
				1.0000001192092896
			],
			"translation":[
				-2.7939677238464355e-09,
				0.030749469995498657,
				-3.14321368932724e-09
			]
		},
		{
			"children":[
				0
			],
			"name":"Thumb_Distal_L",
			"rotation":[
				0.05564066767692566,
				0.010326134972274303,
				0.013984743505716324,
				0.9982995390892029
			],
			"scale":[
				0.9999999403953552,
				0.9999999403953552,
				1.0000001192092896
			],
			"translation":[
				-2.3283064365386963e-09,
				0.04214789345860481,
				1.5133991837501526e-09
			]
		},
		{
			"children":[
				1
			],
			"name":"Thumb_Proximal_L",
			"rotation":[
				-0.04595031216740608,
				-0.027135655283927917,
				-0.07525718212127686,
				0.9957351684570312
			],
			"scale":[
				1,
				1.0000001192092896,
				1
			],
			"translation":[
				2.3283064365386963e-10,
				0.044916488230228424,
				-2.473825588822365e-10
			]
		},
		{
			"children":[
				2
			],
			"name":"Thumb_Metacarpal_L",
			"rotation":[
				0.3235369920730591,
				-2.565749491623137e-05,
				-0.027220426127314568,
				0.9458239078521729
			],
			"scale":[
				1,
				0.9999998211860657,
				0.9999998807907104
			],
			"translation":[
				0.009999999776482582,
				0.02717285417020321,
				0.019999971613287926
			]
		},
		{
			"name":"Index_Tip_L",
			"rotation":[
				-0.052288394421339035,
				-0.0005572127993218601,
				0.10362062603235245,
				0.9932413697242737
			],
			"scale":[
				0.9999999403953552,
				0.9999999403953552,
				1
			],
			"translation":[
				8.149072527885437e-09,
				0.027394980192184448,
				1.367880031466484e-09
			]
		},
		{
			"children":[
				4
			],
			"name":"Index_Distal_L",
			"rotation":[
				0.014225997030735016,
				-0.011990753002464771,
				-0.13454149663448334,
				0.9907333254814148
			],
			"scale":[
				1,
				1.0000001192092896,
				1
			],
			"translation":[
				5.529727786779404e-09,
				0.0313456691801548,
				1.775333657860756e-09
			]
		},
		{
			"children":[
				5
			],
			"name":"Index_Intermediate_L",
			"rotation":[
				-0.013683198019862175,
				-0.02466820552945137,
				-0.23507095873355865,
				0.9715688228607178
			],
			"scale":[
				1,
				0.9999999403953552,
				1
			],
			"translation":[
				0,
				0.03811633586883545,
				-3.3178366720676422e-09
			]
		},
		{
			"children":[
				6
			],
			"name":"Index_Proximal_L",
			"rotation":[
				0.11122287809848785,
				-0.0027781203389167786,
				0.11757422238588333,
				0.9868121147155762
			],
			"scale":[
				1,
				1.0000001192092896,
				1
			],
			"translation":[
				5.336175945558352e-10,
				0.08036758005619049,
				2.584926050985814e-09
			]
		},
		{
			"children":[
				7
			],
			"name":"Index_Metacarpal_L",
			"rotation":[
				-0.0005887771840207279,
				2.1035881218267605e-05,
				0.02521963231265545,
				0.9996817708015442
			],
			"scale":[
				0.9999999403953552,
				0.9999999403953552,
				0.9999999403953552
			],
			"translation":[
				-0.009999999776482582,
				0.0271772351115942,
				0.022405147552490234
			]
		},
		{
			"name":"Middle_Tip_L",
			"rotation":[
				0.013688242062926292,
				7.992402970558032e-05,
				0.1684110313653946,
				0.9856218099594116
			],
			"scale":[
				1.0000001192092896,
				0.9999999403953552,
				1
			],
			"translation":[
				-2.0736479200422764e-09,
				0.023346584290266037,
				6.548361852765083e-11
			]
		},
		{
			"children":[
				9
			],
			"name":"Middle_Distal_L",
			"rotation":[
				-0.013931511901319027,
				-0.00014242221368476748,
				-0.16861224174499512,
				0.985584020614624
			],
			"scale":[
				1,
				1.0000001192092896,
				0.9999999403953552
			],
			"translation":[
				5.973561201244593e-09,
				0.0324166864156723,
				-5.820766091346741e-11
			]
		},
		{
			"children":[
				10
			],
			"name":"Middle_Intermediate_L",
			"rotation":[
				0.03945539891719818,
				0.004928736016154289,
				-0.13782717287540436,
				0.9896578788757324
			],
			"translation":[
				1.1295924196019769e-09,
				0.04500335454940796,
				6.621121428906918e-10
			]
		},
		{
			"children":[
				11
			],
			"name":"Middle_Proximal_L",
			"rotation":[
				-0.01194659061729908,
				0.000966736872214824,
				-0.010500849224627018,
				0.9998730421066284
			],
			"translation":[
				-7.057678885757923e-10,
				0.0804632380604744,
				3.4924596548080444e-10
			]
		},
		{
			"children":[
				12
			],
			"name":"Middle_Metacarpal_L",
			"rotation":[
				-0.035854633897542953,
				4.200500188744627e-05,
				0.049977611750364304,
				0.9981065392494202
			],
			"scale":[
				1,
				0.9999999403953552,
				1
			],
			"translation":[
				-0.009999999776482582,
				0.02714575082063675,
				0.0035275884438306093
			]
		},
		{
			"name":"Ring_Tip_L",
			"rotation":[
				0.03305169567465782,
				-0.0067197540774941444,
				0.12635111808776855,
				0.9914120435714722
			],
			"scale":[
				1,
				1,
				0.9999998211860657
			],
			"translation":[
				5.326000973582268e-09,
				0.027049388736486435,
				3.969034878537059e-09
			]
		},
		{
			"children":[
				14
			],
			"name":"Ring_Distal_L",
			"rotation":[
				-0.011351789347827435,
				0.012621401809155941,
				-0.13198411464691162,
				0.9911065101623535
			],
			"scale":[
				0.9999999403953552,
				1,
				1
			],
			"translation":[
				-2.3865140974521637e-09,
				0.027797557413578033,
				9.604264050722122e-10
			]
		},
		{
			"children":[
				15
			],
			"name":"Ring_Intermediate_L",
			"rotation":[
				0.01732625626027584,
				0.01860846020281315,
				-0.16082891821861267,
				0.9866547584533691
			],
			"scale":[
				1.0000001192092896,
				0.9999999403953552,
				1
			],
			"translation":[
				8.731149137020111e-11,
				0.04013120010495186,
				9.604264050722122e-10
			]
		},
		{
			"children":[
				16
			],
			"name":"Ring_Proximal_L",
			"rotation":[
				-0.05105672776699066,
				-0.002022986998781562,
				0.0418044850230217,
				0.9978184103965759
			],
			"scale":[
				0.9999999403953552,
				0.9999999403953552,
				0.9999999403953552
			],
			"translation":[
				6.075424607843161e-10,
				0.0739438384771347,
				1.331500243395567e-09
			]
		},
		{
			"children":[
				17
			],
			"name":"Ring_Metacarpal_L",
			"rotation":[
				-0.07119493186473846,
				1.573348527017515e-05,
				0.018085604533553123,
				0.9972984790802002
			],
			"scale":[
				1,
				0.9999999403953552,
				0.9999999403953552
			],
			"translation":[
				-0.009999999776482582,
				0.027118019759655,
				-0.01309998705983162
			]
		},
		{
			"name":"Little_Tip_L",
			"rotation":[
				0.015836291015148163,
				-0.01933973841369152,
				0.15377695858478546,
				0.9877893924713135
			],
			"scale":[
				1,
				1.0000001192092896,
				1
			],
			"translation":[
				-3.725290298461914e-09,
				0.019765090197324753,
				4.6566128730773926e-09
			]
		},
		{
			"children":[
				19
			],
			"name":"Little_Distal_L",
			"rotation":[
				-0.018054774031043053,
				0.011455278843641281,
				-0.10707500576972961,
				0.9940210580825806
			],
			"scale":[
				0.9999999403953552,
				0.9999998807907104,
				1
			],
			"translation":[
				2.6775524020195007e-09,
				0.01802438497543335,
				7.894414011389017e-10
			]
		},
		{
			"children":[
				20
			],
			"name":"Little_Intermediate_L",
			"rotation":[
				0.044925756752491,
				0.03280798718333244,
				-0.18505947291851044,
				0.9811515212059021
			],
			"scale":[
				0.9999999403953552,
				0.9999998807907104,
				1.0000001192092896
			],
			"translation":[
				-4.0745362639427185e-10,
				0.03312354534864426,
				2.6921043172478676e-10
			]
		},
		{
			"children":[
				21
			],
			"name":"Little_Proximal_L",
			"rotation":[
				-0.08928601443767548,
				0.0031680655665695667,
				-0.0067391167394816875,
				0.9959781765937805
			],
			"scale":[
				1,
				0.9999999403953552,
				1
			],
			"translation":[
				3.4924596548080444e-10,
				0.06571118533611298,
				-2.2009771782904863e-10
			]
		},
		{
			"children":[
				22
			],
			"name":"Little_Metacarpal_L",
			"rotation":[
				-0.09176954627037048,
				2.456200854794588e-05,
				0.02844771184027195,
				0.9953738451004028
			],
			"scale":[
				1,
				0.9999999403953552,
				1
			],
			"translation":[
				-4.4605644178297155e-10,
				0.02708965167403221,
				-0.029999956488609314
			]
		},
		{
			"name":"Palm_L",
			"rotation":[
				0.7065238952636719,
				-6.479929197666934e-06,
				-8.686721230333205e-06,
				0.7076891660690308
			],
			"translation":[
				0.030781937763094902,
				0.06705548614263535,
				-0.04206528514623642
			]
		},
		{
			"children":[
				3,
				8,
				13,
				18,
				23,
				24
			],
			"name":"Wrist_L",
			"rotation":[
				-0.7065169215202332,
				6.472751010733191e-06,
				6.472751465480542e-06,
				0.7076961994171143
			],
			"scale":[
				1,
				0.9999999403953552,
				1
			],
			"translation":[
				3.8642522071086205e-08,
				-1.8697472114581615e-05,
				0.027175573632121086
			]
		},
		{
			"mesh":0,
			"name":"mesh_Glove_L",
			"skin":0
		},
		{
			"mesh":1,
			"name":"mesh_Glove_low_L",
			"skin":0
		},
		{
			"mesh":2,
			"name":"mesh_Hand_L",
			"skin":0
		},
		{
			"mesh":3,
			"name":"mesh_Hand_low_L",
			"skin":0
		},
		{
			"mesh":4,
			"name":"mesh_Hand_Nails_L",
			"skin":0
		},
		{
			"mesh":5,
			"name":"mesh_Hand_Nails_low_L",
			"skin":0
		},
		{
			"children":[
				26,
				27,
				28,
				29,
				30,
				31,
				25
			],
			"name":"Armature"
		}
	],
	"meshes":[
		{
			"extras":{
				"tension_props":{}
			},
			"name":"mesh_Glove_L",
			"primitives":[
				{
					"attributes":{
						"POSITION":0,
						"TEXCOORD_0":1,
						"NORMAL":2,
						"TANGENT":3,
						"JOINTS_0":4,
						"JOINTS_1":5,
						"WEIGHTS_0":6,
						"WEIGHTS_1":7
					},
					"indices":8
				}
			]
		},
		{
			"extras":{
				"tension_props":{}
			},
			"name":"mesh_Glove_low_L",
			"primitives":[
				{
					"attributes":{
						"POSITION":10,
						"TEXCOORD_0":11,
						"NORMAL":12,
						"TANGENT":13,
						"JOINTS_0":14,
						"JOINTS_1":15,
						"WEIGHTS_0":16,
						"WEIGHTS_1":17
					},
					"indices":18
				}
			]
		},
		{
			"extras":{
				"tension_props":{}
			},
			"name":"mesh_Hand_L",
			"primitives":[
				{
					"attributes":{
						"POSITION":19,
						"TEXCOORD_0":20,
						"NORMAL":21,
						"TANGENT":22,
						"JOINTS_0":23,
						"JOINTS_1":24,
						"WEIGHTS_0":25,
						"WEIGHTS_1":26
					},
					"indices":27
				}
			]
		},
		{
			"extras":{
				"tension_props":{}
			},
			"name":"mesh_Hand_low_L",
			"primitives":[
				{
					"attributes":{
						"POSITION":28,
						"TEXCOORD_0":29,
						"NORMAL":30,
						"TANGENT":31,
						"JOINTS_0":32,
						"JOINTS_1":33,
						"WEIGHTS_0":34,
						"WEIGHTS_1":35
					},
					"indices":36
				}
			]
		},
		{
			"extras":{
				"tension_props":{}
			},
			"name":"mesh_Hand_Nails_L",
			"primitives":[
				{
					"attributes":{
						"POSITION":37,
						"TEXCOORD_0":38,
						"NORMAL":39,
						"TANGENT":40,
						"JOINTS_0":41,
						"JOINTS_1":42,
						"WEIGHTS_0":43,
						"WEIGHTS_1":44
					},
					"indices":45
				}
			]
		},
		{
			"extras":{
				"tension_props":{}
			},
			"name":"mesh_Hand_Nails_low_L",
			"primitives":[
				{
					"attributes":{
						"POSITION":46,
						"TEXCOORD_0":47,
						"NORMAL":48,
						"JOINTS_0":49,
						"JOINTS_1":50,
						"WEIGHTS_0":51,
						"WEIGHTS_1":52
					},
					"indices":53
				}
			]
		}
	],
	"skins":[
		{
			"inverseBindMatrices":9,
			"joints":[
				25,
				3,
				2,
				1,
				0,
				8,
				7,
				6,
				5,
				4,
				13,
				12,
				11,
				10,
				9,
				18,
				17,
				16,
				15,
				14,
				23,
				22,
				21,
				20,
				19,
				24
			],
			"name":"Armature"
		}
	],
	"accessors":[
		{
			"bufferView":0,
			"componentType":5126,
			"count":2170,
			"max":[
				0.03656641021370888,
				0.09075886756181717,
				0.02576880156993866
			],
			"min":[
				-0.03138250857591629,
				-0.06861073523759842,
				-0.18647876381874084
			],
			"type":"VEC3"
		},
		{
			"bufferView":1,
			"componentType":5126,
			"count":2170,
			"type":"VEC2"
		},
		{
			"bufferView":2,
			"componentType":5126,
			"count":2170,
			"type":"VEC3"
		},
		{
			"bufferView":3,
			"componentType":5126,
			"count":2170,
			"type":"VEC4"
		},
		{
			"bufferView":4,
			"componentType":5121,
			"count":2170,
			"type":"VEC4"
		},
		{
			"bufferView":5,
			"componentType":5121,
			"count":2170,
			"type":"VEC4"
		},
		{
			"bufferView":6,
			"componentType":5126,
			"count":2170,
			"type":"VEC4"
		},
		{
			"bufferView":7,
			"componentType":5126,
			"count":2170,
			"type":"VEC4"
		},
		{
			"bufferView":8,
			"componentType":5123,
			"count":10470,
			"type":"SCALAR"
		},
		{
			"bufferView":9,
			"componentType":5126,
			"count":26,
			"type":"MAT4"
		},
		{
			"bufferView":10,
			"componentType":5126,
			"count":816,
			"max":[
				0.03515050560235977,
				0.09175886958837509,
				0.02576880156993866
			],
			"min":[
				-0.029946306720376015,
				-0.06838366389274597,
				-0.18577708303928375
			],
			"type":"VEC3"
		},
		{
			"bufferView":11,
			"componentType":5126,
			"count":816,
			"type":"VEC2"
		},
		{
			"bufferView":12,
			"componentType":5126,
			"count":816,
			"type":"VEC3"
		},
		{
			"bufferView":13,
			"componentType":5126,
			"count":816,
			"type":"VEC4"
		},
		{
			"bufferView":14,
			"componentType":5121,
			"count":816,
			"type":"VEC4"
		},
		{
			"bufferView":15,
			"componentType":5121,
			"count":816,
			"type":"VEC4"
		},
		{
			"bufferView":16,
			"componentType":5126,
			"count":816,
			"type":"VEC4"
		},
		{
			"bufferView":17,
			"componentType":5126,
			"count":816,
			"type":"VEC4"
		},
		{
			"bufferView":18,
			"componentType":5123,
			"count":3480,
			"type":"SCALAR"
		},
		{
			"bufferView":19,
			"componentType":5126,
			"count":1770,
			"max":[
				0.03656641021370888,
				0.09001174569129944,
				0.02576880156993866
			],
			"min":[
				-0.03117927722632885,
				-0.06858222931623459,
				-0.18575307726860046
			],
			"type":"VEC3"
		},
		{
			"bufferView":20,
			"componentType":5126,
			"count":1770,
			"type":"VEC2"
		},
		{
			"bufferView":21,
			"componentType":5126,
			"count":1770,
			"type":"VEC3"
		},
		{
			"bufferView":22,
			"componentType":5126,
			"count":1770,
			"type":"VEC4"
		},
		{
			"bufferView":23,
			"componentType":5121,
			"count":1770,
			"type":"VEC4"
		},
		{
			"bufferView":24,
			"componentType":5121,
			"count":1770,
			"type":"VEC4"
		},
		{
			"bufferView":25,
			"componentType":5126,
			"count":1770,
			"type":"VEC4"
		},
		{
			"bufferView":26,
			"componentType":5126,
			"count":1770,
			"type":"VEC4"
		},
		{
			"bufferView":27,
			"componentType":5123,
			"count":9156,
			"type":"SCALAR"
		},
		{
			"bufferView":28,
			"componentType":5126,
			"count":607,
			"max":[
				0.03515051305294037,
				0.09001174569129944,
				0.02576880156993866
			],
			"min":[
				-0.029946302995085716,
				-0.06838366389274597,
				-0.18542321026325226
			],
			"type":"VEC3"
		},
		{
			"bufferView":29,
			"componentType":5126,
			"count":607,
			"type":"VEC2"
		},
		{
			"bufferView":30,
			"componentType":5126,
			"count":607,
			"type":"VEC3"
		},
		{
			"bufferView":31,
			"componentType":5126,
			"count":607,
			"type":"VEC4"
		},
		{
			"bufferView":32,
			"componentType":5121,
			"count":607,
			"type":"VEC4"
		},
		{
			"bufferView":33,
			"componentType":5121,
			"count":607,
			"type":"VEC4"
		},
		{
			"bufferView":34,
			"componentType":5126,
			"count":607,
			"type":"VEC4"
		},
		{
			"bufferView":35,
			"componentType":5126,
			"count":607,
			"type":"VEC4"
		},
		{
			"bufferView":36,
			"componentType":5123,
			"count":2814,
			"type":"SCALAR"
		},
		{
			"bufferView":37,
			"componentType":5126,
			"count":2000,
			"max":[
				0.03656641021370888,
				0.09075886756181717,
				0.02576880156993866
			],
			"min":[
				-0.03117927722632885,
				-0.06861073523759842,
				-0.18647876381874084
			],
			"type":"VEC3"
		},
		{
			"bufferView":38,
			"componentType":5126,
			"count":2000,
			"type":"VEC2"
		},
		{
			"bufferView":39,
			"componentType":5126,
			"count":2000,
			"type":"VEC3"
		},
		{
			"bufferView":40,
			"componentType":5126,
			"count":2000,
			"type":"VEC4"
		},
		{
			"bufferView":41,
			"componentType":5121,
			"count":2000,
			"type":"VEC4"
		},
		{
			"bufferView":42,
			"componentType":5121,
			"count":2000,
			"type":"VEC4"
		},
		{
			"bufferView":43,
			"componentType":5126,
			"count":2000,
			"type":"VEC4"
		},
		{
			"bufferView":44,
			"componentType":5126,
			"count":2000,
			"type":"VEC4"
		},
		{
			"bufferView":45,
			"componentType":5123,
			"count":10224,
			"type":"SCALAR"
		},
		{
			"bufferView":46,
			"componentType":5126,
			"count":642,
			"max":[
				0.03515050560235977,
				0.09175886958837509,
				0.02576880156993866
			],
			"min":[
				-0.029946306720376015,
				-0.06838366389274597,
				-0.18577708303928375
			],
			"type":"VEC3"
		},
		{
			"bufferView":47,
			"componentType":5126,
			"count":642,
			"type":"VEC2"
		},
		{
			"bufferView":48,
			"componentType":5126,
			"count":642,
			"type":"VEC3"
		},
		{
			"bufferView":49,
			"componentType":5121,
			"count":642,
			"type":"VEC4"
		},
		{
			"bufferView":50,
			"componentType":5121,
			"count":642,
			"type":"VEC4"
		},
		{
			"bufferView":51,
			"componentType":5126,
			"count":642,
			"type":"VEC4"
		},
		{
			"bufferView":52,
			"componentType":5126,
			"count":642,
			"type":"VEC4"
		},
		{
			"bufferView":53,
			"componentType":5123,
			"count":3018,
			"type":"SCALAR"
		}
	],
	"bufferViews":[
		{
			"buffer":0,
			"byteLength":26040,
			"byteOffset":0,
			"target":34962
		},
		{
			"buffer":0,
			"byteLength":17360,
			"byteOffset":26040,
			"target":34962
		},
		{
			"buffer":0,
			"byteLength":26040,
			"byteOffset":43400,
			"target":34962
		},
		{
			"buffer":0,
			"byteLength":34720,
			"byteOffset":69440,
			"target":34962
		},
		{
			"buffer":0,
			"byteLength":8680,
			"byteOffset":104160,
			"target":34962
		},
		{
			"buffer":0,
			"byteLength":8680,
			"byteOffset":112840,
			"target":34962
		},
		{
			"buffer":0,
			"byteLength":34720,
			"byteOffset":121520,
			"target":34962
		},
		{
			"buffer":0,
			"byteLength":34720,
			"byteOffset":156240,
			"target":34962
		},
		{
			"buffer":0,
			"byteLength":20940,
			"byteOffset":190960,
			"target":34963
		},
		{
			"buffer":0,
			"byteLength":1664,
			"byteOffset":211900
		},
		{
			"buffer":0,
			"byteLength":9792,
			"byteOffset":213564,
			"target":34962
		},
		{
			"buffer":0,
			"byteLength":6528,
			"byteOffset":223356,
			"target":34962
		},
		{
			"buffer":0,
			"byteLength":9792,
			"byteOffset":229884,
			"target":34962
		},
		{
			"buffer":0,
			"byteLength":13056,
			"byteOffset":239676,
			"target":34962
		},
		{
			"buffer":0,
			"byteLength":3264,
			"byteOffset":252732,
			"target":34962
		},
		{
			"buffer":0,
			"byteLength":3264,
			"byteOffset":255996,
			"target":34962
		},
		{
			"buffer":0,
			"byteLength":13056,
			"byteOffset":259260,
			"target":34962
		},
		{
			"buffer":0,
			"byteLength":13056,
			"byteOffset":272316,
			"target":34962
		},
		{
			"buffer":0,
			"byteLength":6960,
			"byteOffset":285372,
			"target":34963
		},
		{
			"buffer":0,
			"byteLength":21240,
			"byteOffset":292332,
			"target":34962
		},
		{
			"buffer":0,
			"byteLength":14160,
			"byteOffset":313572,
			"target":34962
		},
		{
			"buffer":0,
			"byteLength":21240,
			"byteOffset":327732,
			"target":34962
		},
		{
			"buffer":0,
			"byteLength":28320,
			"byteOffset":348972,
			"target":34962
		},
		{
			"buffer":0,
			"byteLength":7080,
			"byteOffset":377292,
			"target":34962
		},
		{
			"buffer":0,
			"byteLength":7080,
			"byteOffset":384372,
			"target":34962
		},
		{
			"buffer":0,
			"byteLength":28320,
			"byteOffset":391452,
			"target":34962
		},
		{
			"buffer":0,
			"byteLength":28320,
			"byteOffset":419772,
			"target":34962
		},
		{
			"buffer":0,
			"byteLength":18312,
			"byteOffset":448092,
			"target":34963
		},
		{
			"buffer":0,
			"byteLength":7284,
			"byteOffset":466404,
			"target":34962
		},
		{
			"buffer":0,
			"byteLength":4856,
			"byteOffset":473688,
			"target":34962
		},
		{
			"buffer":0,
			"byteLength":7284,
			"byteOffset":478544,
			"target":34962
		},
		{
			"buffer":0,
			"byteLength":9712,
			"byteOffset":485828,
			"target":34962
		},
		{
			"buffer":0,
			"byteLength":2428,
			"byteOffset":495540,
			"target":34962
		},
		{
			"buffer":0,
			"byteLength":2428,
			"byteOffset":497968,
			"target":34962
		},
		{
			"buffer":0,
			"byteLength":9712,
			"byteOffset":500396,
			"target":34962
		},
		{
			"buffer":0,
			"byteLength":9712,
			"byteOffset":510108,
			"target":34962
		},
		{
			"buffer":0,
			"byteLength":5628,
			"byteOffset":519820,
			"target":34963
		},
		{
			"buffer":0,
			"byteLength":24000,
			"byteOffset":525448,
			"target":34962
		},
		{
			"buffer":0,
			"byteLength":16000,
			"byteOffset":549448,
			"target":34962
		},
		{
			"buffer":0,
			"byteLength":24000,
			"byteOffset":565448,
			"target":34962
		},
		{
			"buffer":0,
			"byteLength":32000,
			"byteOffset":589448,
			"target":34962
		},
		{
			"buffer":0,
			"byteLength":8000,
			"byteOffset":621448,
			"target":34962
		},
		{
			"buffer":0,
			"byteLength":8000,
			"byteOffset":629448,
			"target":34962
		},
		{
			"buffer":0,
			"byteLength":32000,
			"byteOffset":637448,
			"target":34962
		},
		{
			"buffer":0,
			"byteLength":32000,
			"byteOffset":669448,
			"target":34962
		},
		{
			"buffer":0,
			"byteLength":20448,
			"byteOffset":701448,
			"target":34963
		},
		{
			"buffer":0,
			"byteLength":7704,
			"byteOffset":721896,
			"target":34962
		},
		{
			"buffer":0,
			"byteLength":5136,
			"byteOffset":729600,
			"target":34962
		},
		{
			"buffer":0,
			"byteLength":7704,
			"byteOffset":734736,
			"target":34962
		},
		{
			"buffer":0,
			"byteLength":2568,
			"byteOffset":742440,
			"target":34962
		},
		{
			"buffer":0,
			"byteLength":2568,
			"byteOffset":745008,
			"target":34962
		},
		{
			"buffer":0,
			"byteLength":10272,
			"byteOffset":747576,
			"target":34962
		},
		{
			"buffer":0,
			"byteLength":10272,
			"byteOffset":757848,
			"target":34962
		},
		{
			"buffer":0,
			"byteLength":6036,
			"byteOffset":768120,
			"target":34963
		}
	],
	"buffers":[
		{
			"byteLength":774156,
			"uri":"hand_l-fb737631d8c66d01870ff25125027eed.bin"
		}
	]
}
