{
	"asset":{
		"generator":"Khronos glTF Blender I/O v3.5.30",
		"version":"2.0"
	},
	"scene":0,
	"scenes":[
		{
			"extras":{
				"vr_landmarks":[
					{
						"type":0,
						"base_scale":1.0
					}
				],
				"collection_manager":{},
				"sun_pos_properties":{
					"show_surface":0,
					"show_analemmas":0,
					"show_north":0,
					"day_of_year":175,
					"sun_object":{},
					"object_collection":{}
				},
				"skinify":{
					"connect_mesh":0,
					"connect_parents":0,
					"generate_all":0,
					"thickness":0.800000011920929,
					"finger_thickness":0.25,
					"apply_mod":1,
					"parent_armature":1,
					"sub_level":1
				},
				"tension_props":{}
			},
			"name":"Scene",
			"nodes":[
				0
			]
		}
	],
	"nodes":[
		{
			"mesh":0,
			"name":"Plane",
			"scale":[
				15,
				15,
				15
			]
		}
	],
	"meshes":[
		{
			"extras":{
				"tension_props":{}
			},
			"name":"Plane",
			"primitives":[
				{
					"attributes":{
						"POSITION":0,
						"NORMAL":1
					},
					"indices":2
				}
			]
		}
	],
	"accessors":[
		{
			"bufferView":0,
			"componentType":5126,
			"count":4761,
			"max":[
				1.000132441520691,
				0,
				1.000049114227295
			],
			"min":[
				-1.000000238418579,
				-0.4368775486946106,
				-1.0000025033950806
			],
			"type":"VEC3"
		},
		{
			"bufferView":1,
			"componentType":5126,
			"count":4761,
			"type":"VEC3"
		},
		{
			"bufferView":2,
			"componentType":5123,
			"count":27744,
			"type":"SCALAR"
		}
	],
	"bufferViews":[
		{
			"buffer":0,
			"byteLength":57132,
			"byteOffset":0,
			"target":34962
		},
		{
			"buffer":0,
			"byteLength":57132,
			"byteOffset":57132,
			"target":34962
		},
		{
			"buffer":0,
			"byteLength":55488,
			"byteOffset":114264,
			"target":34963
		}
	],
	"buffers":[
		{
			"byteLength":169752,
			"uri":"terrain-66076b85a19b89d3e48612fe70b8cb5c.bin"
		}
	]
}
