<?xml version="1.0" encoding="utf-8"?>
<mlt LC_NUMERIC="C" version="6.17.0" title="Shotcut version 19.06.15" producer="main_bin">
  <profile description="HD 1080p 25 fps" width="3840" height="2160" progressive="1" sample_aspect_num="1" sample_aspect_den="1" display_aspect_num="16" display_aspect_den="9" frame_rate_num="60" frame_rate_den="1" colorspace="709"/>
  <producer id="producer0" title="Shotcut version 19.06.15" in="00:00:00.000" out="03:59:59.983">
    <property name="length">04:00:00:00</property>
    <property name="eof">pause</property>
    <property name="resource">#00000000</property>
    <property name="aspect_ratio">1</property>
    <property name="mlt_service">color</property>
    <property name="mlt_image_format">rgb24a</property>
    <property name="shotcut:caption">transparent</property>
    <property name="shotcut:detail">transparent</property>
    <property name="ignore_points">0</property>
    <property name="shotcut:projectAudioChannels">2</property>
    <property name="shotcut:projectFolder">1</property>
    <property name="global_feed">1</property>
    <property name="xml">was here</property>
    <property name="seekable">1</property>
    <filter id="filter0" out="00:00:03.983">
      <property name="argument">Oh Hi. sorry I cannot post video right now 
because Kdenlive lag on my Windows 
(Movit binary is unavailable on Windows)</property>
      <property name="geometry">-10 604 3837 897 1</property>
      <property name="family">Ubuntu</property>
      <property name="size">120</property>
      <property name="weight">750</property>
      <property name="style">normal</property>
      <property name="fgcolour">#ffffffff</property>
      <property name="bgcolour">#00000000</property>
      <property name="olcolour">#aa000000</property>
      <property name="pad">0</property>
      <property name="halign">center</property>
      <property name="valign">middle</property>
      <property name="outline">3</property>
      <property name="mlt_service">dynamictext</property>
      <property name="shotcut:filter">dynamicText</property>
      <property name="shotcut:usePointSize">1</property>
      <property name="shotcut:pointSize">72</property>
      <property name="disable">0</property>
    </filter>
  </producer>
  <producer id="producer1" title="Anonymous Submission" in="00:00:00.000" out="03:59:59.983">
    <property name="length">04:00:00:00</property>
    <property name="eof">pause</property>
    <property name="resource">#00000000</property>
    <property name="aspect_ratio">1</property>
    <property name="mlt_service">color</property>
    <property name="mlt_image_format">rgb24a</property>
    <property name="shotcut:caption">transparent</property>
    <property name="shotcut:detail">transparent</property>
    <property name="ignore_points">0</property>
    <property name="global_feed">1</property>
    <property name="xml">was here</property>
    <property name="seekable">1</property>
    <filter id="filter1" out="00:00:03.983">
      <property name="argument">Unsavory Test</property>
      <property name="geometry">210 653 3420 831 1</property>
      <property name="family">Ubuntu</property>
      <property name="size">2160</property>
      <property name="weight">750</property>
      <property name="style">normal</property>
      <property name="fgcolour">#ffffffff</property>
      <property name="bgcolour">#00000000</property>
      <property name="olcolour">#aa000000</property>
      <property name="pad">0</property>
      <property name="halign">center</property>
      <property name="valign">middle</property>
      <property name="outline">3</property>
      <property name="mlt_service">dynamictext</property>
      <property name="shotcut:filter">dynamicText</property>
      <property name="shotcut:usePointSize">0</property>
      <property name="shotcut:pointSize">72</property>
    </filter>
  </producer>
  <producer id="producer2" title="Anonymous Submission" in="00:00:00.000" out="00:03:48.267">
    <property name="length">13697</property>
    <property name="eof">pause</property>
    <property name="resource">D:/PRIVATE FOLDER/FILE JOEL ROBERT/MP3/YouTube Audio Library/Invisible.mp3</property>
    <property name="audio_index">0</property>
    <property name="video_index">-1</property>
    <property name="mute_on_pause">0</property>
    <property name="mlt_service">avformat-novalidate</property>
    <property name="seekable">1</property>
    <property name="creation_time">2018-12-23T07:47:24</property>
    <property name="global_feed">1</property>
    <property name="xml">was here</property>
    <property name="shotcut:hash">602359e6df75d27d7a814f72979f05d9</property>
  </producer>
  <producer id="producer3" title="Anonymous Submission" in="00:00:00.000" out="03:59:59.983">
    <property name="length">04:00:00:00</property>
    <property name="eof">pause</property>
    <property name="resource">#00000000</property>
    <property name="aspect_ratio">1</property>
    <property name="mlt_service">color</property>
    <property name="mlt_image_format">rgb24a</property>
    <property name="shotcut:caption">transparent</property>
    <property name="shotcut:detail">transparent</property>
    <property name="ignore_points">0</property>
    <property name="global_feed">1</property>
    <property name="xml">was here</property>
    <property name="seekable">1</property>
    <filter id="filter2" out="00:00:03.983">
      <property name="argument">Invisible</property>
      <property name="geometry">0 747 817 247 1</property>
      <property name="family">Ubuntu</property>
      <property name="size">2160</property>
      <property name="weight">750</property>
      <property name="style">normal</property>
      <property name="fgcolour">#0000ff</property>
      <property name="bgcolour">#00000000</property>
      <property name="olcolour">#aa000000</property>
      <property name="pad">0</property>
      <property name="halign">left</property>
      <property name="valign">middle</property>
      <property name="outline">10</property>
      <property name="mlt_service">dynamictext</property>
      <property name="shotcut:filter">dynamicText</property>
      <property name="shotcut:usePointSize">0</property>
      <property name="shotcut:pointSize">60</property>
    </filter>
    <filter id="filter3" out="00:00:03.983">
      <property name="argument">Vibe tracks</property>
      <property name="geometry">4 965 620 163 1</property>
      <property name="family">Ubuntu</property>
      <property name="size">2160</property>
      <property name="weight">500</property>
      <property name="style">normal</property>
      <property name="fgcolour">#00ff00</property>
      <property name="bgcolour">#00000000</property>
      <property name="olcolour">#aa000000</property>
      <property name="pad">0</property>
      <property name="halign">left</property>
      <property name="valign">middle</property>
      <property name="outline">10</property>
      <property name="mlt_service">dynamictext</property>
      <property name="shotcut:filter">dynamicText</property>
      <property name="shotcut:usePointSize">0</property>
      <property name="shotcut:animIn">00:00:00.000</property>
      <property name="shotcut:animOut">00:00:00.000</property>
    </filter>
  </producer>
  <producer id="producer4" title="Anonymous Submission" in="00:00:00.000" out="03:59:59.983">
    <property name="length">04:00:00:00</property>
    <property name="eof">pause</property>
    <property name="resource">#00000000</property>
    <property name="aspect_ratio">1</property>
    <property name="mlt_service">color</property>
    <property name="mlt_image_format">rgb24a</property>
    <property name="shotcut:caption">transparent</property>
    <property name="shotcut:detail">transparent</property>
    <property name="ignore_points">0</property>
    <property name="global_feed">1</property>
    <property name="xml">was here</property>
    <property name="seekable">1</property>
    <filter id="filter4" out="00:00:03.983">
      <property name="argument">Free to Use in Video
youtube.com/audiolibrary</property>
      <property name="geometry">4 1090 1170 191 1</property>
      <property name="family">Ubuntu</property>
      <property name="size">1080</property>
      <property name="weight">750</property>
      <property name="style">normal</property>
      <property name="fgcolour">#aaaa00</property>
      <property name="bgcolour">#00000000</property>
      <property name="olcolour">#aa000000</property>
      <property name="pad">0</property>
      <property name="halign">left</property>
      <property name="valign">top</property>
      <property name="outline">5</property>
      <property name="mlt_service">dynamictext</property>
      <property name="shotcut:filter">dynamicText</property>
      <property name="shotcut:usePointSize">0</property>
      <property name="shotcut:pointSize">60</property>
    </filter>
    <filter id="filter5" out="00:00:03.983">
      <property name="argument">You are free to use this in video</property>
      <property name="geometry">0 1339 1003 89 1</property>
      <property name="family">Ubuntu</property>
      <property name="size">2160</property>
      <property name="weight">500</property>
      <property name="style">normal</property>
      <property name="fgcolour">#005500</property>
      <property name="bgcolour">#00000000</property>
      <property name="olcolour">#aa000000</property>
      <property name="pad">0</property>
      <property name="halign">left</property>
      <property name="valign">middle</property>
      <property name="outline">5</property>
      <property name="mlt_service">dynamictext</property>
      <property name="shotcut:filter">dynamicText</property>
      <property name="shotcut:usePointSize">0</property>
      <property name="shotcut:animIn">00:00:00.000</property>
      <property name="shotcut:animOut">00:00:00.000</property>
    </filter>
  </producer>
  <producer id="producer5" title="Anonymous Submission" in="00:00:00.000" out="03:59:59.983">
    <property name="length">04:00:00:00</property>
    <property name="eof">pause</property>
    <property name="resource">#00000000</property>
    <property name="aspect_ratio">1</property>
    <property name="mlt_service">color</property>
    <property name="mlt_image_format">rgb24a</property>
    <property name="shotcut:caption">transparent</property>
    <property name="shotcut:detail">transparent</property>
    <property name="ignore_points">0</property>
    <property name="global_feed">1</property>
    <property name="xml">was here</property>
    <property name="seekable">1</property>
    <filter id="filter6" out="00:00:03.983">
      <property name="argument">I discovered LBRY, a decentralized media hosting.</property>
      <property name="geometry">668 1338 2529 158 1</property>
      <property name="family">Ubuntu</property>
      <property name="size">2160</property>
      <property name="weight">750</property>
      <property name="style">normal</property>
      <property name="fgcolour">#ffff00</property>
      <property name="bgcolour">#00000000</property>
      <property name="olcolour">#aa000000</property>
      <property name="pad">0</property>
      <property name="halign">center</property>
      <property name="valign">middle</property>
      <property name="outline">3</property>
      <property name="mlt_service">dynamictext</property>
      <property name="shotcut:filter">dynamicText</property>
      <property name="shotcut:usePointSize">0</property>
      <property name="shotcut:pointSize">60</property>
    </filter>
  </producer>
  <producer id="producer6" title="Anonymous Submission" in="00:00:00.000" out="03:59:59.983">
    <property name="length">04:00:00:00</property>
    <property name="eof">pause</property>
    <property name="resource">#00000000</property>
    <property name="aspect_ratio">1</property>
    <property name="mlt_service">color</property>
    <property name="mlt_image_format">rgb24a</property>
    <property name="shotcut:caption">transparent</property>
    <property name="shotcut:detail">transparent</property>
    <property name="ignore_points">0</property>
    <property name="global_feed">1</property>
    <property name="xml">was here</property>
    <property name="seekable">1</property>
    <filter id="filter7" out="00:00:03.983">
      <property name="argument">Can it be trusted?</property>
      <property name="geometry">1448 1453 973 161 1</property>
      <property name="family">Ubuntu</property>
      <property name="size">2160</property>
      <property name="weight">750</property>
      <property name="style">normal</property>
      <property name="fgcolour">#ff0000</property>
      <property name="bgcolour">#00000000</property>
      <property name="olcolour">#aa000000</property>
      <property name="pad">0</property>
      <property name="halign">center</property>
      <property name="valign">middle</property>
      <property name="outline">3</property>
      <property name="mlt_service">dynamictext</property>
      <property name="shotcut:filter">dynamicText</property>
      <property name="shotcut:usePointSize">0</property>
      <property name="shotcut:pointSize">60</property>
    </filter>
  </producer>
  <producer id="producer7" title="Anonymous Submission" in="00:00:00.000" out="03:59:59.983">
    <property name="length">04:00:00:00</property>
    <property name="eof">pause</property>
    <property name="resource">#00000000</property>
    <property name="aspect_ratio">1</property>
    <property name="mlt_service">color</property>
    <property name="mlt_image_format">rgb24a</property>
    <property name="shotcut:caption">transparent</property>
    <property name="shotcut:detail">transparent</property>
    <property name="ignore_points">0</property>
    <property name="global_feed">1</property>
    <property name="xml">was here</property>
    <property name="seekable">1</property>
    <filter id="filter8" out="00:00:03.983">
      <property name="argument">ADDING MORE TEXT LAGS SHOTCUT!!!</property>
      <property name="geometry">4 -2 3844 91 1</property>
      <property name="family">Ubuntu</property>
      <property name="size">2160</property>
      <property name="weight">750</property>
      <property name="style">normal</property>
      <property name="fgcolour">#ff0000</property>
      <property name="bgcolour">#00000000</property>
      <property name="olcolour">#aa000000</property>
      <property name="pad">0</property>
      <property name="halign">center</property>
      <property name="valign">top</property>
      <property name="outline">3</property>
      <property name="mlt_service">dynamictext</property>
      <property name="shotcut:filter">dynamicText</property>
      <property name="shotcut:usePointSize">0</property>
      <property name="shotcut:pointSize">60</property>
    </filter>
  </producer>
  <producer id="producer8" title="Anonymous Submission" in="00:00:00.000" out="03:59:59.983">
    <property name="length">04:00:00:00</property>
    <property name="eof">pause</property>
    <property name="resource">#00000000</property>
    <property name="aspect_ratio">1</property>
    <property name="mlt_service">color</property>
    <property name="mlt_image_format">rgb24a</property>
    <property name="shotcut:caption">transparent</property>
    <property name="shotcut:detail">transparent</property>
    <property name="ignore_points">0</property>
    <property name="global_feed">1</property>
    <property name="xml">was here</property>
    <property name="seekable">1</property>
    <filter id="filter9" out="00:00:03.983">
      <property name="argument">Lets find out!</property>
      <property name="geometry">1023 1620 1843 299 1</property>
      <property name="family">Ubuntu</property>
      <property name="size">2160</property>
      <property name="weight">750</property>
      <property name="style">normal</property>
      <property name="fgcolour">#00ff00</property>
      <property name="bgcolour">#00000000</property>
      <property name="olcolour">#aa000000</property>
      <property name="pad">0</property>
      <property name="halign">center</property>
      <property name="valign">middle</property>
      <property name="outline">3</property>
      <property name="mlt_service">dynamictext</property>
      <property name="shotcut:filter">dynamicText</property>
      <property name="shotcut:usePointSize">0</property>
      <property name="shotcut:pointSize">60</property>
    </filter>
  </producer>
  <producer id="producer9" title="Anonymous Submission" in="00:00:00.000" out="00:00:31.367">
    <property name="length">00:00:31:23</property>
    <property name="eof">pause</property>
    <property name="resource">C:/Users/ASUS/Videos/2019-08-17 19-02-04.mov</property>
    <property name="audio_index">1</property>
    <property name="video_index">0</property>
    <property name="mute_on_pause">0</property>
    <property name="mlt_service">avformat-novalidate</property>
    <property name="seekable">1</property>
    <property name="aspect_ratio">1</property>
    <property name="creation_time">2019-08-17T12:02:42</property>
    <property name="global_feed">1</property>
    <property name="xml">was here</property>
    <property name="shotcut:hash">d45c095ea68f3a1cd382073e4c451352</property>
    <property name="ignore_points">0</property>
    <property name="shotcut:caption">2019-08-17 19-02-04.mov</property>
  </producer>
  <producer id="producer10" title="Anonymous Submission" in="00:00:00.000" out="00:00:37.683">
    <property name="length">00:00:37:42</property>
    <property name="eof">pause</property>
    <property name="resource">C:/Users/ASUS/Videos/2019-08-17 19-04-50.mov</property>
    <property name="audio_index">1</property>
    <property name="video_index">0</property>
    <property name="mute_on_pause">0</property>
    <property name="mlt_service">avformat-novalidate</property>
    <property name="seekable">1</property>
    <property name="aspect_ratio">1</property>
    <property name="creation_time">2019-08-17T12:05:29</property>
    <property name="global_feed">1</property>
    <property name="xml">was here</property>
    <property name="shotcut:hash">4ffff7f3c814169f97ca76736a540c22</property>
    <property name="ignore_points">0</property>
    <property name="shotcut:caption">2019-08-17 19-04-50.mov</property>
  </producer>
  <producer id="producer11" title="Anonymous Submission" in="00:00:00.000" out="03:59:59.983">
    <property name="length">04:00:00:00</property>
    <property name="eof">pause</property>
    <property name="resource">#00000000</property>
    <property name="aspect_ratio">1</property>
    <property name="mlt_service">color</property>
    <property name="mlt_image_format">rgb24a</property>
    <property name="shotcut:caption">transparent</property>
    <property name="shotcut:detail">transparent</property>
    <property name="ignore_points">0</property>
    <property name="global_feed">1</property>
    <property name="xml">was here</property>
    <property name="seekable">1</property>
    <filter id="filter10" out="00:00:03.983">
      <property name="argument">We were supposed to Kdenlive on Linux Operating System!
because Movit binary (to get GPU processing)
is available for Linux only at the moment.
:(</property>
      <property name="geometry">-5 860 3840 540 1</property>
      <property name="family">Ubuntu</property>
      <property name="size">2160</property>
      <property name="weight">750</property>
      <property name="style">normal</property>
      <property name="fgcolour">#0055ff</property>
      <property name="bgcolour">#00000000</property>
      <property name="olcolour">#aa000000</property>
      <property name="pad">0</property>
      <property name="halign">center</property>
      <property name="valign">top</property>
      <property name="outline">3</property>
      <property name="mlt_service">dynamictext</property>
      <property name="shotcut:filter">dynamicText</property>
      <property name="shotcut:usePointSize">0</property>
      <property name="shotcut:pointSize">60</property>
    </filter>
  </producer>
  <producer id="producer12" title="Anonymous Submission" in="00:00:00.000" out="03:59:59.983">
    <property name="length">04:00:00:00</property>
    <property name="eof">pause</property>
    <property name="resource">#00000000</property>
    <property name="aspect_ratio">1</property>
    <property name="mlt_service">color</property>
    <property name="mlt_image_format">rgb24a</property>
    <property name="shotcut:caption">transparent</property>
    <property name="shotcut:detail">transparent</property>
    <property name="ignore_points">0</property>
    <property name="global_feed">1</property>
    <property name="xml">was here</property>
    <property name="seekable">1</property>
    <filter id="filter11" out="00:00:03.983">
      <property name="argument">To do this, we need to get any ways
to get Linux up and running
and have Kdenlive to it</property>
      <property name="geometry">0 1620 3840 540 1</property>
      <property name="family">Verdana</property>
      <property name="size">100</property>
      <property name="weight">750</property>
      <property name="style">normal</property>
      <property name="fgcolour">#0055ff</property>
      <property name="bgcolour">#00000000</property>
      <property name="olcolour">#aa000000</property>
      <property name="pad">0</property>
      <property name="halign">center</property>
      <property name="valign">top</property>
      <property name="outline">3</property>
      <property name="mlt_service">dynamictext</property>
      <property name="shotcut:filter">dynamicText</property>
      <property name="shotcut:usePointSize">1</property>
      <property name="shotcut:pointSize">60</property>
    </filter>
  </producer>
  <producer id="producer13" title="Anonymous Submission" in="00:00:00.000" out="03:59:59.983">
    <property name="length">864000</property>
    <property name="eof">pause</property>
    <property name="resource">C:/Users/ASUS/Pictures/20190820_161519.jpg</property>
    <property name="ttl">1</property>
    <property name="aspect_ratio">1</property>
    <property name="progressive">1</property>
    <property name="seekable">1</property>
    <property name="mlt_service">qimage</property>
    <property name="creation_time">2019-08-20T09:23:43</property>
    <property name="global_feed">1</property>
    <property name="xml">was here</property>
    <property name="shotcut:hash">1eb7b83e4640d93f34554cbea9e13428</property>
  </producer>
  <producer id="producer14" title="Anonymous Submission" in="00:00:00.000" out="03:59:59.983">
    <property name="length">04:00:00:00</property>
    <property name="eof">pause</property>
    <property name="resource">#00000000</property>
    <property name="aspect_ratio">1</property>
    <property name="mlt_service">color</property>
    <property name="mlt_image_format">rgb24a</property>
    <property name="shotcut:caption">transparent</property>
    <property name="shotcut:detail">transparent</property>
    <property name="ignore_points">0</property>
    <property name="global_feed">1</property>
    <property name="xml">was here</property>
    <property name="seekable">1</property>
    <filter id="filter12" out="00:00:03.983">
      <property name="argument">My laptop I have right now is
ASUS GL503GE (Windows)
a budget gaming laptop.
So this is a hypocrite should it say.</property>
      <property name="geometry">-5 7 3840 540 1</property>
      <property name="family">Verdana</property>
      <property name="size">100</property>
      <property name="weight">750</property>
      <property name="style">normal</property>
      <property name="fgcolour">#0055ff</property>
      <property name="bgcolour">#00000000</property>
      <property name="olcolour">#aa000000</property>
      <property name="pad">0</property>
      <property name="halign">center</property>
      <property name="valign">top</property>
      <property name="outline">3</property>
      <property name="mlt_service">dynamictext</property>
      <property name="shotcut:filter">dynamicText</property>
      <property name="shotcut:usePointSize">1</property>
      <property name="shotcut:pointSize">60</property>
    </filter>
  </producer>
  <producer id="producer15" title="Anonymous Submission" in="00:00:00.000" out="03:59:59.983">
    <property name="length">04:00:00:00</property>
    <property name="eof">pause</property>
    <property name="resource">C:/Users/ASUS/Pictures/20190820_161519.jpg</property>
    <property name="ttl">1</property>
    <property name="aspect_ratio">1</property>
    <property name="progressive">1</property>
    <property name="seekable">1</property>
    <property name="mlt_service">qimage</property>
    <property name="creation_time">2019-08-20T09:23:43</property>
    <property name="global_feed">1</property>
    <property name="xml">was here</property>
    <property name="shotcut:hash">1eb7b83e4640d93f34554cbea9e13428</property>
    <property name="ignore_points">0</property>
    <filter id="filter13" out="00:00:03.983">
      <property name="argument">My laptop I have right now is
ASUS GL503GE (Windows)
[RAM 8GB, Intel Core i7, Intel UDH 600 + Nvidia 1050 Ti (cheapskate setup)]
a budget gaming laptop.
So this is a hypocrite should it say.</property>
      <property name="geometry">28 1604 3840 540 1</property>
      <property name="family">Ubuntu</property>
      <property name="size">2160</property>
      <property name="weight">750</property>
      <property name="style">normal</property>
      <property name="fgcolour">#00aa00</property>
      <property name="bgcolour">#00000000</property>
      <property name="olcolour">#aa000000</property>
      <property name="pad">0</property>
      <property name="halign">center</property>
      <property name="valign">top</property>
      <property name="outline">3</property>
      <property name="mlt_service">dynamictext</property>
      <property name="shotcut:filter">dynamicText</property>
      <property name="shotcut:usePointSize">0</property>
      <property name="shotcut:pointSize">60</property>
    </filter>
  </producer>
  <producer id="producer16" title="Anonymous Submission" in="00:00:00.000" out="03:59:59.983">
    <property name="length">04:00:00:00</property>
    <property name="eof">pause</property>
    <property name="resource">&lt;producer&gt;</property>
    <property name="aspect_ratio">1</property>
    <property name="version">0.1</property>
    <property name="mlt_service">frei0r.test_pat_B</property>
    <property name="0">4</property>
    <property name="shotcut:caption">SMPTE color bars</property>
    <property name="shotcut:detail">SMPTE color bars</property>
    <property name="ignore_points">0</property>
    <property name="global_feed">1</property>
    <property name="xml">was here</property>
    <property name="seekable">1</property>
  </producer>
  <producer id="producer17" title="Anonymous Submission" in="00:00:00.000" out="03:59:59.983">
    <property name="length">04:00:00:00</property>
    <property name="eof">pause</property>
    <property name="resource">#32A0FFFF</property>
    <property name="aspect_ratio">1</property>
    <property name="mlt_service">color</property>
    <property name="mlt_image_format">rgb24a</property>
    <property name="shotcut:caption">#32A0FFFF</property>
    <property name="shotcut:detail">#32A0FFFF</property>
    <property name="ignore_points">0</property>
    <property name="global_feed">1</property>
    <property name="xml">was here</property>
    <property name="seekable">1</property>
    <filter id="filter14" out="00:00:03.983">
      <property name="argument">I am sadd
I have lagg because GPU processing (movit)
is unavailable on Windows
and the lag is too severe!!!</property>
      <property name="geometry">-5 7 3851 2148 1</property>
      <property name="family">Ubuntu</property>
      <property name="size">540</property>
      <property name="weight">750</property>
      <property name="style">normal</property>
      <property name="fgcolour">#00aa7f</property>
      <property name="bgcolour">#87aa0000</property>
      <property name="olcolour">#aa000000</property>
      <property name="pad">1</property>
      <property name="halign">center</property>
      <property name="valign">middle</property>
      <property name="outline">30</property>
      <property name="mlt_service">dynamictext</property>
      <property name="shotcut:filter">dynamicText</property>
      <property name="shotcut:usePointSize">0</property>
      <property name="shotcut:pointSize">60</property>
    </filter>
  </producer>
  <producer id="producer18" title="Anonymous Submission" in="00:00:00.000" out="00:04:09.983">
    <property name="length">00:04:10:00</property>
    <property name="eof">pause</property>
    <property name="resource">&lt;producer&gt;</property>
    <property name="aspect_ratio">1</property>
    <property name="version">0.9</property>
    <property name="mlt_service">frei0r.ising0r</property>
    <property name="0">0,00</property>
    <property name="1">1,00</property>
    <property name="2">1,00</property>
    <property name="shotcut:caption">Ising Model</property>
    <property name="shotcut:detail">Ising Model</property>
    <property name="ignore_points">0</property>
    <property name="global_feed">1</property>
    <property name="xml">was here</property>
    <property name="seekable">1</property>
  </producer>
  <producer id="producer19" title="Anonymous Submission" in="00:00:00.000" out="00:04:09.983">
    <property name="length">00:04:10:00</property>
    <property name="eof">pause</property>
    <property name="resource">&lt;producer&gt;</property>
    <property name="aspect_ratio">1</property>
    <property name="version">0.9</property>
    <property name="mlt_service">frei0r.ising0r</property>
    <property name="0">0</property>
    <property name="1">0.06</property>
    <property name="2">0.1</property>
    <property name="shotcut:caption">Ising Model</property>
    <property name="shotcut:detail">Ising Model</property>
    <property name="ignore_points">0</property>
    <property name="global_feed">1</property>
    <property name="xml">was here</property>
    <property name="seekable">1</property>
  </producer>
  <producer id="producer20" title="Anonymous Submission" in="00:00:00.000" out="00:04:09.983">
    <property name="length">00:04:10:00</property>
    <property name="eof">pause</property>
    <property name="resource">&lt;producer&gt;</property>
    <property name="aspect_ratio">1</property>
    <property name="version">0.3</property>
    <property name="mlt_service">frei0r.plasma</property>
    <property name="0">1,00</property>
    <property name="1">1,00</property>
    <property name="2">1,00</property>
    <property name="3">1,00</property>
    <property name="4">1,00</property>
    <property name="5">1,00</property>
    <property name="shotcut:caption">Plasma</property>
    <property name="shotcut:detail">Plasma</property>
    <property name="ignore_points">0</property>
    <property name="global_feed">1</property>
    <property name="xml">was here</property>
    <property name="seekable">1</property>
  </producer>
  <producer id="producer21" title="Anonymous Submission" in="00:00:00.000" out="03:59:59.983">
    <property name="length">04:00:00:00</property>
    <property name="eof">pause</property>
    <property name="resource">#00000000</property>
    <property name="aspect_ratio">1</property>
    <property name="mlt_service">color</property>
    <property name="mlt_image_format">rgb24a</property>
    <property name="shotcut:caption">transparent</property>
    <property name="shotcut:detail">transparent</property>
    <property name="ignore_points">0</property>
    <property name="global_feed">1</property>
    <property name="xml">was here</property>
    <property name="seekable">1</property>
    <filter id="filter15" out="00:00:03.983">
      <property name="argument">WARNING! FLASHING OBJECTS
INCOMING!
EPILEPSY ALERT!</property>
      <property name="geometry">0 1620 3840 540 1</property>
      <property name="family">Ubuntu</property>
      <property name="size">2160</property>
      <property name="weight">750</property>
      <property name="style">normal</property>
      <property name="fgcolour">#aa0000</property>
      <property name="bgcolour">#00000000</property>
      <property name="olcolour">#aa000000</property>
      <property name="pad">0</property>
      <property name="halign">center</property>
      <property name="valign">bottom</property>
      <property name="outline">3</property>
      <property name="mlt_service">dynamictext</property>
      <property name="shotcut:filter">dynamicText</property>
      <property name="shotcut:usePointSize">0</property>
      <property name="shotcut:pointSize">60</property>
    </filter>
  </producer>
  <producer id="producer22" title="Anonymous Submission" in="00:00:00.000" out="00:00:02.983">
    <property name="length">180</property>
    <property name="eof">pause</property>
    <property name="resource">&lt;producer&gt;</property>
    <property name="aspect_ratio">1</property>
    <property name="direction">down</property>
    <property name="style">frames</property>
    <property name="sound">2pop</property>
    <property name="background">clock</property>
    <property name="drop">1</property>
    <property name="mlt_service">count</property>
    <property name="shotcut:caption">Count</property>
    <property name="shotcut:detail">Count: Down Frames</property>
    <property name="ignore_points">0</property>
    <property name="global_feed">1</property>
    <property name="xml">was here</property>
    <property name="seekable">1</property>
  </producer>
  <producer id="producer23" title="Anonymous Submission" in="00:00:00.000" out="03:59:59.983">
    <property name="length">04:00:00:00</property>
    <property name="eof">pause</property>
    <property name="resource">#00000000</property>
    <property name="aspect_ratio">1</property>
    <property name="mlt_service">color</property>
    <property name="mlt_image_format">rgb24a</property>
    <property name="shotcut:caption">transparent</property>
    <property name="shotcut:detail">transparent</property>
    <property name="ignore_points">0</property>
    <property name="global_feed">1</property>
    <property name="xml">was here</property>
    <property name="seekable">1</property>
    <filter id="filter16" out="00:00:03.983">
      <property name="argument">WOEM</property>
      <property name="geometry">-4 4 3844 2156 1</property>
      <property name="family">Ubuntu</property>
      <property name="size">2160</property>
      <property name="weight">750</property>
      <property name="style">normal</property>
      <property name="fgcolour">#5555ff</property>
      <property name="bgcolour">#00000000</property>
      <property name="olcolour">#aa000000</property>
      <property name="pad">0</property>
      <property name="halign">center</property>
      <property name="valign">middle</property>
      <property name="outline">3</property>
      <property name="mlt_service">dynamictext</property>
      <property name="shotcut:filter">dynamicText</property>
      <property name="shotcut:usePointSize">0</property>
      <property name="shotcut:pointSize">60</property>
    </filter>
    <filter id="filter17" out="00:00:03.983">
      <property name="frequency_low">1045</property>
      <property name="frequency_high">20000</property>
      <property name="threshold">-41</property>
      <property name="osc">10</property>
      <property name="initial_zoom">6</property>
      <property name="zoom">100</property>
      <property name="left">0</property>
      <property name="right">0</property>
      <property name="up">0</property>
      <property name="down">0</property>
      <property name="clockwise">0</property>
      <property name="counterclockwise">0</property>
      <property name="window_size">2048</property>
      <property name="mlt_service">dance</property>
      <property name="shotcut:filter">audioDance</property>
    </filter>
  </producer>
  <producer id="producer24" title="Anonymous Submission" in="00:00:00.000" out="03:59:59.983">
    <property name="length">04:00:00:00</property>
    <property name="eof">pause</property>
    <property name="resource">#00000000</property>
    <property name="aspect_ratio">1</property>
    <property name="mlt_service">color</property>
    <property name="mlt_image_format">rgb24a</property>
    <property name="shotcut:caption">transparent</property>
    <property name="shotcut:detail">transparent</property>
    <property name="ignore_points">0</property>
    <property name="global_feed">1</property>
    <property name="xml">was here</property>
    <property name="seekable">1</property>
    <filter id="filter18" out="00:00:03.983">
      <property name="argument">#timecode#
#frame#</property>
      <property name="geometry">0 1620 3840 540 1</property>
      <property name="family">Ubuntu</property>
      <property name="size">2160</property>
      <property name="weight">750</property>
      <property name="style">normal</property>
      <property name="fgcolour">#ffffffff</property>
      <property name="bgcolour">#00000000</property>
      <property name="olcolour">#aa000000</property>
      <property name="pad">0</property>
      <property name="halign">center</property>
      <property name="valign">top</property>
      <property name="outline">3</property>
      <property name="mlt_service">dynamictext</property>
      <property name="shotcut:filter">dynamicText</property>
      <property name="shotcut:usePointSize">0</property>
      <property name="shotcut:pointSize">60</property>
    </filter>
  </producer>
  <producer id="producer25" title="Anonymous Submission" in="00:00:00.000" out="03:59:59.983">
    <property name="length">04:00:00:00</property>
    <property name="eof">pause</property>
    <property name="resource">#00000000</property>
    <property name="aspect_ratio">1</property>
    <property name="mlt_service">color</property>
    <property name="mlt_image_format">rgb24a</property>
    <property name="shotcut:caption">transparent</property>
    <property name="shotcut:detail">transparent</property>
    <property name="ignore_points">0</property>
    <property name="global_feed">1</property>
    <property name="xml">was here</property>
    <property name="seekable">1</property>
    <filter id="filter19" out="00:00:03.983">
      <property name="argument">I'm running out of idea
pls give me film making
advise!
my creativity is being hindered!
helep!</property>
      <property name="geometry">9 9 3840 540 1</property>
      <property name="family">Ubuntu</property>
      <property name="size">2160</property>
      <property name="weight">750</property>
      <property name="style">normal</property>
      <property name="fgcolour">#ffffffff</property>
      <property name="bgcolour">#00000000</property>
      <property name="olcolour">#aa000000</property>
      <property name="pad">0</property>
      <property name="halign">center</property>
      <property name="valign">top</property>
      <property name="outline">3</property>
      <property name="mlt_service">dynamictext</property>
      <property name="shotcut:filter">dynamicText</property>
      <property name="shotcut:usePointSize">0</property>
      <property name="shotcut:pointSize">60</property>
    </filter>
  </producer>
  <producer id="producer26" title="Anonymous Submission" in="00:00:00.000" out="03:59:59.983">
    <property name="length">04:00:00:00</property>
    <property name="eof">pause</property>
    <property name="resource">#00000000</property>
    <property name="aspect_ratio">1</property>
    <property name="mlt_service">color</property>
    <property name="mlt_image_format">rgb24a</property>
    <property name="shotcut:caption">transparent</property>
    <property name="shotcut:detail">transparent</property>
    <property name="ignore_points">0</property>
    <property name="global_feed">1</property>
    <property name="xml">was here</property>
    <property name="seekable">1</property>
    <filter id="filter20" out="00:00:03.983">
      <property name="argument">Sorry we've got to cut
We weren't suppose to Shotcut
but Kdenlive.
sorry for bad video / Pooppost video</property>
      <property name="geometry">-4 0 3844 2160 1</property>
      <property name="family">Ubuntu</property>
      <property name="size">2160</property>
      <property name="weight">750</property>
      <property name="style">normal</property>
      <property name="fgcolour">#ff0000</property>
      <property name="bgcolour">#00000000</property>
      <property name="olcolour">#aa000000</property>
      <property name="pad">0</property>
      <property name="halign">center</property>
      <property name="valign">middle</property>
      <property name="outline">3</property>
      <property name="mlt_service">dynamictext</property>
      <property name="shotcut:filter">dynamicText</property>
      <property name="shotcut:usePointSize">0</property>
      <property name="shotcut:pointSize">60</property>
    </filter>
  </producer>
  <producer id="producer27" title="Anonymous Submission" in="00:00:00.000" out="03:59:59.983">
    <property name="length">864000</property>
    <property name="eof">pause</property>
    <property name="resource">C:/Users/ASUS/Documents/starring codes/Godot Projects/HexagonEngine/Inkscape/Logo Setup/Perkedel_Ended.svg</property>
    <property name="ttl">1</property>
    <property name="aspect_ratio">1</property>
    <property name="progressive">1</property>
    <property name="seekable">1</property>
    <property name="mlt_service">qimage</property>
    <property name="creation_time">2019-08-20T12:04:03</property>
    <property name="global_feed">1</property>
    <property name="xml">was here</property>
    <property name="shotcut:hash">3524cca44f77aeac56c2f83cbc141d17</property>
  </producer>
  <producer id="producer28" title="Anonymous Submission" in="00:00:00.000" out="03:59:59.983">
    <property name="length">864000</property>
    <property name="eof">pause</property>
    <property name="resource">C:/Users/ASUS/Documents/starring codes/Godot Projects/HexagonEngine/Inkscape/Logo Setup/Perkedel_Ended_4K.png</property>
    <property name="ttl">1</property>
    <property name="aspect_ratio">1</property>
    <property name="progressive">1</property>
    <property name="seekable">1</property>
    <property name="mlt_service">qimage</property>
    <property name="creation_time">2019-08-20T12:05:21</property>
    <property name="global_feed">1</property>
    <property name="xml">was here</property>
    <property name="shotcut:hash">0d7e2154fab42cfc0e9fe638a4711c06</property>
  </producer>
  <playlist id="main_bin">
    <property name="xml_retain">1</property>
    <entry producer="producer0" in="00:00:00.000" out="00:00:03.983"/>
    <entry producer="producer1" in="00:00:00.000" out="00:00:03.983"/>
    <entry producer="producer2" in="00:00:00.000" out="00:03:48.267"/>
    <entry producer="producer3" in="00:00:00.000" out="00:00:03.983"/>
    <entry producer="producer4" in="00:00:00.000" out="00:00:03.983"/>
    <entry producer="producer5" in="00:00:00.000" out="00:00:03.983"/>
    <entry producer="producer6" in="00:00:00.000" out="00:00:03.983"/>
    <entry producer="producer7" in="00:00:00.000" out="00:00:03.983"/>
    <entry producer="producer8" in="00:00:00.000" out="00:00:03.983"/>
    <entry producer="producer9" in="00:00:07.050" out="00:00:12.683"/>
    <entry producer="producer10" in="00:00:00.000" out="00:00:01.567"/>
    <entry producer="producer11" in="00:00:00.000" out="00:00:03.983"/>
    <entry producer="producer12" in="00:00:00.000" out="00:00:03.983"/>
    <entry producer="producer13" in="00:00:00.000" out="00:00:03.983"/>
    <entry producer="producer14" in="00:00:00.000" out="00:00:03.983"/>
    <entry producer="producer15" in="00:00:00.000" out="00:00:03.983"/>
    <entry producer="producer16" in="00:00:00.000" out="00:00:03.983"/>
    <entry producer="producer17" in="00:00:00.000" out="00:00:03.983"/>
    <entry producer="producer18" in="00:00:00.000" out="00:00:05.017"/>
    <entry producer="producer19" in="00:00:00.000" out="00:00:04.767"/>
    <entry producer="producer20" in="00:00:00.000" out="00:04:09.983"/>
    <entry producer="producer21" in="00:00:00.000" out="00:00:03.983"/>
    <entry producer="producer22" in="00:00:00.000" out="00:00:02.983"/>
    <entry producer="producer23" in="00:00:00.000" out="00:00:03.983"/>
    <entry producer="producer24" in="00:00:00.000" out="00:00:03.983"/>
    <entry producer="producer25" in="00:00:00.000" out="00:00:03.983"/>
    <entry producer="producer26" in="00:00:00.000" out="00:00:03.983"/>
    <entry producer="producer27" in="00:00:00.000" out="00:00:03.983"/>
    <entry producer="producer28" in="00:00:00.000" out="00:00:03.983"/>
  </playlist>
  <producer id="black" in="00:00:00.000" out="00:01:22.400">
    <property name="length">4945</property>
    <property name="eof">pause</property>
    <property name="resource">0</property>
    <property name="aspect_ratio">1</property>
    <property name="mlt_service">color</property>
    <property name="mlt_image_format">rgb24a</property>
    <property name="set.test_audio">0</property>
  </producer>
  <playlist id="background">
    <entry producer="black" in="00:00:00.000" out="00:01:22.400"/>
  </playlist>
  <producer id="producer29" title="Shotcut version 19.06.15" in="00:00:00.000" out="03:59:59.983">
    <property name="length">04:00:00:00</property>
    <property name="eof">pause</property>
    <property name="resource">#00000000</property>
    <property name="aspect_ratio">1</property>
    <property name="mlt_service">color</property>
    <property name="mlt_image_format">rgb24a</property>
    <property name="shotcut:caption">transparent</property>
    <property name="shotcut:detail">transparent</property>
    <property name="ignore_points">0</property>
    <property name="shotcut:projectAudioChannels">2</property>
    <property name="shotcut:projectFolder">1</property>
    <property name="global_feed">1</property>
    <property name="xml">was here</property>
    <property name="seekable">1</property>
    <filter id="filter21" out="00:00:03.983">
      <property name="argument">Oh Hi. sorry I cannot post video right now 
because Kdenlive lag on my Windows 
(Movit binary is unavailable on Windows)</property>
      <property name="geometry">-10 604 3837 897 1</property>
      <property name="family">Ubuntu</property>
      <property name="size">120</property>
      <property name="weight">750</property>
      <property name="style">normal</property>
      <property name="fgcolour">#ffffffff</property>
      <property name="bgcolour">#00000000</property>
      <property name="olcolour">#aa000000</property>
      <property name="pad">0</property>
      <property name="halign">center</property>
      <property name="valign">middle</property>
      <property name="outline">3</property>
      <property name="mlt_service">dynamictext</property>
      <property name="shotcut:filter">dynamicText</property>
      <property name="shotcut:usePointSize">1</property>
      <property name="shotcut:pointSize">72</property>
      <property name="disable">0</property>
    </filter>
  </producer>
  <producer id="producer30" title="Anonymous Submission" in="00:00:00.000" out="03:59:59.983">
    <property name="length">04:00:00:00</property>
    <property name="eof">pause</property>
    <property name="resource">#00000000</property>
    <property name="aspect_ratio">1</property>
    <property name="mlt_service">color</property>
    <property name="mlt_image_format">rgb24a</property>
    <property name="shotcut:caption">transparent</property>
    <property name="shotcut:detail">transparent</property>
    <property name="ignore_points">0</property>
    <property name="global_feed">1</property>
    <property name="xml">was here</property>
    <property name="seekable">1</property>
    <filter id="filter22" out="00:00:22.383">
      <property name="argument">Unsavory Test</property>
      <property name="geometry">210 653 3420 831 1</property>
      <property name="family">Ubuntu</property>
      <property name="size">2160</property>
      <property name="weight">750</property>
      <property name="style">normal</property>
      <property name="fgcolour">#ffffffff</property>
      <property name="bgcolour">#00000000</property>
      <property name="olcolour">#aa000000</property>
      <property name="pad">0</property>
      <property name="halign">center</property>
      <property name="valign">middle</property>
      <property name="outline">3</property>
      <property name="mlt_service">dynamictext</property>
      <property name="shotcut:filter">dynamicText</property>
      <property name="shotcut:usePointSize">0</property>
      <property name="shotcut:pointSize">72</property>
    </filter>
  </producer>
  <producer id="producer31" title="Anonymous Submission" in="00:00:00.000" out="00:00:37.683">
    <property name="length">00:00:37:42</property>
    <property name="eof">pause</property>
    <property name="resource">C:/Users/ASUS/Videos/2019-08-17 19-04-50.mov</property>
    <property name="audio_index">1</property>
    <property name="video_index">0</property>
    <property name="mute_on_pause">0</property>
    <property name="mlt_service">avformat-novalidate</property>
    <property name="seekable">1</property>
    <property name="aspect_ratio">1</property>
    <property name="creation_time">2019-08-17T12:05:29</property>
    <property name="global_feed">1</property>
    <property name="xml">was here</property>
    <property name="shotcut:hash">4ffff7f3c814169f97ca76736a540c22</property>
    <property name="ignore_points">0</property>
    <property name="shotcut:caption">2019-08-17 19-04-50.mov</property>
  </producer>
  <producer id="producer32" title="Anonymous Submission" in="00:00:00.000" out="00:00:31.367">
    <property name="length">00:00:31:23</property>
    <property name="eof">pause</property>
    <property name="resource">C:/Users/ASUS/Videos/2019-08-17 19-02-04.mov</property>
    <property name="audio_index">1</property>
    <property name="video_index">0</property>
    <property name="mute_on_pause">0</property>
    <property name="mlt_service">avformat-novalidate</property>
    <property name="seekable">1</property>
    <property name="aspect_ratio">1</property>
    <property name="creation_time">2019-08-17T12:02:42</property>
    <property name="global_feed">1</property>
    <property name="xml">was here</property>
    <property name="shotcut:hash">d45c095ea68f3a1cd382073e4c451352</property>
    <property name="ignore_points">0</property>
    <property name="shotcut:caption">2019-08-17 19-02-04.mov</property>
  </producer>
  <producer id="producer33" title="Anonymous Submission" in="00:00:00.000" out="00:00:37.683">
    <property name="length">00:00:37:42</property>
    <property name="eof">pause</property>
    <property name="resource">C:/Users/ASUS/Videos/2019-08-17 19-04-50.mov</property>
    <property name="audio_index">1</property>
    <property name="video_index">0</property>
    <property name="mute_on_pause">0</property>
    <property name="mlt_service">avformat-novalidate</property>
    <property name="seekable">1</property>
    <property name="aspect_ratio">1</property>
    <property name="creation_time">2019-08-17T12:05:29</property>
    <property name="global_feed">1</property>
    <property name="xml">was here</property>
    <property name="shotcut:hash">4ffff7f3c814169f97ca76736a540c22</property>
    <property name="ignore_points">0</property>
    <property name="shotcut:caption">2019-08-17 19-04-50.mov</property>
  </producer>
  <producer id="producer34" title="Anonymous Submission" in="00:00:00.000" out="00:00:31.367">
    <property name="length">00:00:31:23</property>
    <property name="eof">pause</property>
    <property name="resource">C:/Users/ASUS/Videos/2019-08-17 19-02-04.mov</property>
    <property name="audio_index">1</property>
    <property name="video_index">0</property>
    <property name="mute_on_pause">0</property>
    <property name="mlt_service">avformat-novalidate</property>
    <property name="seekable">1</property>
    <property name="aspect_ratio">1</property>
    <property name="creation_time">2019-08-17T12:02:42</property>
    <property name="global_feed">1</property>
    <property name="xml">was here</property>
    <property name="shotcut:hash">d45c095ea68f3a1cd382073e4c451352</property>
    <property name="ignore_points">0</property>
    <property name="shotcut:caption">2019-08-17 19-02-04.mov</property>
  </producer>
  <producer id="producer35" title="Anonymous Submission" in="00:00:00.000" out="00:00:37.683">
    <property name="length">00:00:37:42</property>
    <property name="eof">pause</property>
    <property name="resource">C:/Users/ASUS/Videos/2019-08-17 19-04-50.mov</property>
    <property name="audio_index">1</property>
    <property name="video_index">0</property>
    <property name="mute_on_pause">0</property>
    <property name="mlt_service">avformat-novalidate</property>
    <property name="seekable">1</property>
    <property name="aspect_ratio">1</property>
    <property name="creation_time">2019-08-17T12:05:29</property>
    <property name="global_feed">1</property>
    <property name="xml">was here</property>
    <property name="shotcut:hash">4ffff7f3c814169f97ca76736a540c22</property>
    <property name="ignore_points">0</property>
    <property name="shotcut:caption">2019-08-17 19-04-50.mov</property>
  </producer>
  <producer id="producer36" title="Anonymous Submission" in="00:00:00.000" out="00:00:31.367">
    <property name="length">00:00:31:23</property>
    <property name="eof">pause</property>
    <property name="resource">C:/Users/ASUS/Videos/2019-08-17 19-02-04.mov</property>
    <property name="audio_index">1</property>
    <property name="video_index">0</property>
    <property name="mute_on_pause">0</property>
    <property name="mlt_service">avformat-novalidate</property>
    <property name="seekable">1</property>
    <property name="aspect_ratio">1</property>
    <property name="creation_time">2019-08-17T12:02:42</property>
    <property name="global_feed">1</property>
    <property name="xml">was here</property>
    <property name="shotcut:hash">d45c095ea68f3a1cd382073e4c451352</property>
    <property name="ignore_points">0</property>
    <property name="shotcut:caption">2019-08-17 19-02-04.mov</property>
  </producer>
  <producer id="producer37" title="Anonymous Submission" in="00:00:00.000" out="00:00:37.683">
    <property name="length">00:00:37:42</property>
    <property name="eof">pause</property>
    <property name="resource">C:/Users/ASUS/Videos/2019-08-17 19-04-50.mov</property>
    <property name="audio_index">1</property>
    <property name="video_index">0</property>
    <property name="mute_on_pause">0</property>
    <property name="mlt_service">avformat-novalidate</property>
    <property name="seekable">1</property>
    <property name="aspect_ratio">1</property>
    <property name="creation_time">2019-08-17T12:05:29</property>
    <property name="global_feed">1</property>
    <property name="xml">was here</property>
    <property name="shotcut:hash">4ffff7f3c814169f97ca76736a540c22</property>
    <property name="ignore_points">0</property>
    <property name="shotcut:caption">2019-08-17 19-04-50.mov</property>
  </producer>
  <producer id="producer38" title="Anonymous Submission" in="00:00:00.000" out="00:00:31.367">
    <property name="length">00:00:31:23</property>
    <property name="eof">pause</property>
    <property name="resource">C:/Users/ASUS/Videos/2019-08-17 19-02-04.mov</property>
    <property name="audio_index">1</property>
    <property name="video_index">0</property>
    <property name="mute_on_pause">0</property>
    <property name="mlt_service">avformat-novalidate</property>
    <property name="seekable">1</property>
    <property name="aspect_ratio">1</property>
    <property name="creation_time">2019-08-17T12:02:42</property>
    <property name="global_feed">1</property>
    <property name="xml">was here</property>
    <property name="shotcut:hash">d45c095ea68f3a1cd382073e4c451352</property>
    <property name="ignore_points">0</property>
    <property name="shotcut:caption">2019-08-17 19-02-04.mov</property>
  </producer>
  <producer id="producer39" title="Anonymous Submission" in="00:00:00.000" out="00:00:37.683">
    <property name="length">00:00:37:42</property>
    <property name="eof">pause</property>
    <property name="resource">C:/Users/ASUS/Videos/2019-08-17 19-04-50.mov</property>
    <property name="audio_index">1</property>
    <property name="video_index">0</property>
    <property name="mute_on_pause">0</property>
    <property name="mlt_service">avformat-novalidate</property>
    <property name="seekable">1</property>
    <property name="aspect_ratio">1</property>
    <property name="creation_time">2019-08-17T12:05:29</property>
    <property name="global_feed">1</property>
    <property name="xml">was here</property>
    <property name="shotcut:hash">4ffff7f3c814169f97ca76736a540c22</property>
    <property name="ignore_points">0</property>
    <property name="shotcut:caption">2019-08-17 19-04-50.mov</property>
  </producer>
  <producer id="producer40" title="Anonymous Submission" in="00:00:00.000" out="00:00:31.367">
    <property name="length">00:00:31:23</property>
    <property name="eof">pause</property>
    <property name="resource">C:/Users/ASUS/Videos/2019-08-17 19-02-04.mov</property>
    <property name="audio_index">1</property>
    <property name="video_index">0</property>
    <property name="mute_on_pause">0</property>
    <property name="mlt_service">avformat-novalidate</property>
    <property name="seekable">1</property>
    <property name="aspect_ratio">1</property>
    <property name="creation_time">2019-08-17T12:02:42</property>
    <property name="global_feed">1</property>
    <property name="xml">was here</property>
    <property name="shotcut:hash">d45c095ea68f3a1cd382073e4c451352</property>
    <property name="ignore_points">0</property>
    <property name="shotcut:caption">2019-08-17 19-02-04.mov</property>
  </producer>
  <producer id="producer41" title="Anonymous Submission" in="00:00:00.000" out="00:00:37.683">
    <property name="length">00:00:37:42</property>
    <property name="eof">pause</property>
    <property name="resource">C:/Users/ASUS/Videos/2019-08-17 19-04-50.mov</property>
    <property name="audio_index">1</property>
    <property name="video_index">0</property>
    <property name="mute_on_pause">0</property>
    <property name="mlt_service">avformat-novalidate</property>
    <property name="seekable">1</property>
    <property name="aspect_ratio">1</property>
    <property name="creation_time">2019-08-17T12:05:29</property>
    <property name="global_feed">1</property>
    <property name="xml">was here</property>
    <property name="shotcut:hash">4ffff7f3c814169f97ca76736a540c22</property>
    <property name="ignore_points">0</property>
    <property name="shotcut:caption">2019-08-17 19-04-50.mov</property>
  </producer>
  <producer id="producer42" title="Anonymous Submission" in="00:00:00.000" out="00:00:31.367">
    <property name="length">00:00:31:23</property>
    <property name="eof">pause</property>
    <property name="resource">C:/Users/ASUS/Videos/2019-08-17 19-02-04.mov</property>
    <property name="audio_index">1</property>
    <property name="video_index">0</property>
    <property name="mute_on_pause">0</property>
    <property name="mlt_service">avformat-novalidate</property>
    <property name="seekable">1</property>
    <property name="aspect_ratio">1</property>
    <property name="creation_time">2019-08-17T12:02:42</property>
    <property name="global_feed">1</property>
    <property name="xml">was here</property>
    <property name="shotcut:hash">d45c095ea68f3a1cd382073e4c451352</property>
    <property name="ignore_points">0</property>
    <property name="shotcut:caption">2019-08-17 19-02-04.mov</property>
  </producer>
  <producer id="producer43" title="Anonymous Submission" in="00:00:00.000" out="00:00:37.683">
    <property name="length">00:00:37:42</property>
    <property name="eof">pause</property>
    <property name="resource">C:/Users/ASUS/Videos/2019-08-17 19-04-50.mov</property>
    <property name="audio_index">1</property>
    <property name="video_index">0</property>
    <property name="mute_on_pause">0</property>
    <property name="mlt_service">avformat-novalidate</property>
    <property name="seekable">1</property>
    <property name="aspect_ratio">1</property>
    <property name="creation_time">2019-08-17T12:05:29</property>
    <property name="global_feed">1</property>
    <property name="xml">was here</property>
    <property name="shotcut:hash">4ffff7f3c814169f97ca76736a540c22</property>
    <property name="ignore_points">0</property>
    <property name="shotcut:caption">2019-08-17 19-04-50.mov</property>
  </producer>
  <producer id="producer44" title="Anonymous Submission" in="00:00:00.000" out="00:00:31.367">
    <property name="length">00:00:31:23</property>
    <property name="eof">pause</property>
    <property name="resource">C:/Users/ASUS/Videos/2019-08-17 19-02-04.mov</property>
    <property name="audio_index">1</property>
    <property name="video_index">0</property>
    <property name="mute_on_pause">0</property>
    <property name="mlt_service">avformat-novalidate</property>
    <property name="seekable">1</property>
    <property name="aspect_ratio">1</property>
    <property name="creation_time">2019-08-17T12:02:42</property>
    <property name="global_feed">1</property>
    <property name="xml">was here</property>
    <property name="shotcut:hash">d45c095ea68f3a1cd382073e4c451352</property>
    <property name="ignore_points">0</property>
    <property name="shotcut:caption">2019-08-17 19-02-04.mov</property>
  </producer>
  <producer id="producer45" title="Anonymous Submission" in="00:00:00.000" out="00:00:37.683">
    <property name="length">00:00:37:42</property>
    <property name="eof">pause</property>
    <property name="resource">C:/Users/ASUS/Videos/2019-08-17 19-04-50.mov</property>
    <property name="audio_index">1</property>
    <property name="video_index">0</property>
    <property name="mute_on_pause">0</property>
    <property name="mlt_service">avformat-novalidate</property>
    <property name="seekable">1</property>
    <property name="aspect_ratio">1</property>
    <property name="creation_time">2019-08-17T12:05:29</property>
    <property name="global_feed">1</property>
    <property name="xml">was here</property>
    <property name="shotcut:hash">4ffff7f3c814169f97ca76736a540c22</property>
    <property name="ignore_points">0</property>
    <property name="shotcut:caption">2019-08-17 19-04-50.mov</property>
  </producer>
  <producer id="producer46" title="Anonymous Submission" in="00:00:00.000" out="00:00:31.367">
    <property name="length">00:00:31:23</property>
    <property name="eof">pause</property>
    <property name="resource">C:/Users/ASUS/Videos/2019-08-17 19-02-04.mov</property>
    <property name="audio_index">1</property>
    <property name="video_index">0</property>
    <property name="mute_on_pause">0</property>
    <property name="mlt_service">avformat-novalidate</property>
    <property name="seekable">1</property>
    <property name="aspect_ratio">1</property>
    <property name="creation_time">2019-08-17T12:02:42</property>
    <property name="global_feed">1</property>
    <property name="xml">was here</property>
    <property name="shotcut:hash">d45c095ea68f3a1cd382073e4c451352</property>
    <property name="ignore_points">0</property>
    <property name="shotcut:caption">2019-08-17 19-02-04.mov</property>
  </producer>
  <producer id="producer47" title="Anonymous Submission" in="00:00:00.000" out="00:00:37.683">
    <property name="length">00:00:37:42</property>
    <property name="eof">pause</property>
    <property name="resource">C:/Users/ASUS/Videos/2019-08-17 19-04-50.mov</property>
    <property name="audio_index">1</property>
    <property name="video_index">0</property>
    <property name="mute_on_pause">0</property>
    <property name="mlt_service">avformat-novalidate</property>
    <property name="seekable">1</property>
    <property name="aspect_ratio">1</property>
    <property name="creation_time">2019-08-17T12:05:29</property>
    <property name="global_feed">1</property>
    <property name="xml">was here</property>
    <property name="shotcut:hash">4ffff7f3c814169f97ca76736a540c22</property>
    <property name="ignore_points">0</property>
    <property name="shotcut:caption">2019-08-17 19-04-50.mov</property>
  </producer>
  <producer id="producer48" title="Anonymous Submission" in="00:00:00.000" out="00:00:31.367">
    <property name="length">00:00:31:23</property>
    <property name="eof">pause</property>
    <property name="resource">C:/Users/ASUS/Videos/2019-08-17 19-02-04.mov</property>
    <property name="audio_index">1</property>
    <property name="video_index">0</property>
    <property name="mute_on_pause">0</property>
    <property name="mlt_service">avformat-novalidate</property>
    <property name="seekable">1</property>
    <property name="aspect_ratio">1</property>
    <property name="creation_time">2019-08-17T12:02:42</property>
    <property name="global_feed">1</property>
    <property name="xml">was here</property>
    <property name="shotcut:hash">d45c095ea68f3a1cd382073e4c451352</property>
    <property name="ignore_points">0</property>
    <property name="shotcut:caption">2019-08-17 19-02-04.mov</property>
  </producer>
  <producer id="producer49" title="Anonymous Submission" in="00:00:00.000" out="00:00:37.683">
    <property name="length">00:00:37:42</property>
    <property name="eof">pause</property>
    <property name="resource">C:/Users/ASUS/Videos/2019-08-17 19-04-50.mov</property>
    <property name="audio_index">1</property>
    <property name="video_index">0</property>
    <property name="mute_on_pause">0</property>
    <property name="mlt_service">avformat-novalidate</property>
    <property name="seekable">1</property>
    <property name="aspect_ratio">1</property>
    <property name="creation_time">2019-08-17T12:05:29</property>
    <property name="global_feed">1</property>
    <property name="xml">was here</property>
    <property name="shotcut:hash">4ffff7f3c814169f97ca76736a540c22</property>
    <property name="ignore_points">0</property>
    <property name="shotcut:caption">2019-08-17 19-04-50.mov</property>
  </producer>
  <producer id="producer50" title="Anonymous Submission" in="00:00:00.000" out="00:00:31.367">
    <property name="length">00:00:31:23</property>
    <property name="eof">pause</property>
    <property name="resource">C:/Users/ASUS/Videos/2019-08-17 19-02-04.mov</property>
    <property name="audio_index">1</property>
    <property name="video_index">0</property>
    <property name="mute_on_pause">0</property>
    <property name="mlt_service">avformat-novalidate</property>
    <property name="seekable">1</property>
    <property name="aspect_ratio">1</property>
    <property name="creation_time">2019-08-17T12:02:42</property>
    <property name="global_feed">1</property>
    <property name="xml">was here</property>
    <property name="shotcut:hash">d45c095ea68f3a1cd382073e4c451352</property>
    <property name="ignore_points">0</property>
    <property name="shotcut:caption">2019-08-17 19-02-04.mov</property>
  </producer>
  <producer id="producer51" title="Anonymous Submission" in="00:00:00.000" out="00:00:37.683">
    <property name="length">00:00:37:42</property>
    <property name="eof">pause</property>
    <property name="resource">C:/Users/ASUS/Videos/2019-08-17 19-04-50.mov</property>
    <property name="audio_index">1</property>
    <property name="video_index">0</property>
    <property name="mute_on_pause">0</property>
    <property name="mlt_service">avformat-novalidate</property>
    <property name="seekable">1</property>
    <property name="aspect_ratio">1</property>
    <property name="creation_time">2019-08-17T12:05:29</property>
    <property name="global_feed">1</property>
    <property name="xml">was here</property>
    <property name="shotcut:hash">4ffff7f3c814169f97ca76736a540c22</property>
    <property name="ignore_points">0</property>
    <property name="shotcut:caption">2019-08-17 19-04-50.mov</property>
  </producer>
  <producer id="producer52" title="Anonymous Submission" in="00:00:00.000" out="00:00:31.367">
    <property name="length">00:00:31:23</property>
    <property name="eof">pause</property>
    <property name="resource">C:/Users/ASUS/Videos/2019-08-17 19-02-04.mov</property>
    <property name="audio_index">1</property>
    <property name="video_index">0</property>
    <property name="mute_on_pause">0</property>
    <property name="mlt_service">avformat-novalidate</property>
    <property name="seekable">1</property>
    <property name="aspect_ratio">1</property>
    <property name="creation_time">2019-08-17T12:02:42</property>
    <property name="global_feed">1</property>
    <property name="xml">was here</property>
    <property name="shotcut:hash">d45c095ea68f3a1cd382073e4c451352</property>
    <property name="ignore_points">0</property>
    <property name="shotcut:caption">2019-08-17 19-02-04.mov</property>
  </producer>
  <producer id="producer53" title="Anonymous Submission" in="00:00:00.000" out="00:00:37.683">
    <property name="length">00:00:37:42</property>
    <property name="eof">pause</property>
    <property name="resource">C:/Users/ASUS/Videos/2019-08-17 19-04-50.mov</property>
    <property name="audio_index">1</property>
    <property name="video_index">0</property>
    <property name="mute_on_pause">0</property>
    <property name="mlt_service">avformat-novalidate</property>
    <property name="seekable">1</property>
    <property name="aspect_ratio">1</property>
    <property name="creation_time">2019-08-17T12:05:29</property>
    <property name="global_feed">1</property>
    <property name="xml">was here</property>
    <property name="shotcut:hash">4ffff7f3c814169f97ca76736a540c22</property>
    <property name="ignore_points">0</property>
    <property name="shotcut:caption">2019-08-17 19-04-50.mov</property>
  </producer>
  <producer id="producer54" title="Anonymous Submission" in="00:00:00.000" out="00:00:31.367">
    <property name="length">00:00:31:23</property>
    <property name="eof">pause</property>
    <property name="resource">C:/Users/ASUS/Videos/2019-08-17 19-02-04.mov</property>
    <property name="audio_index">1</property>
    <property name="video_index">0</property>
    <property name="mute_on_pause">0</property>
    <property name="mlt_service">avformat-novalidate</property>
    <property name="seekable">1</property>
    <property name="aspect_ratio">1</property>
    <property name="creation_time">2019-08-17T12:02:42</property>
    <property name="global_feed">1</property>
    <property name="xml">was here</property>
    <property name="shotcut:hash">d45c095ea68f3a1cd382073e4c451352</property>
    <property name="ignore_points">0</property>
    <property name="shotcut:caption">2019-08-17 19-02-04.mov</property>
  </producer>
  <producer id="producer55" title="Anonymous Submission" in="00:00:00.000" out="00:00:37.683">
    <property name="length">00:00:37:42</property>
    <property name="eof">pause</property>
    <property name="resource">C:/Users/ASUS/Videos/2019-08-17 19-04-50.mov</property>
    <property name="audio_index">1</property>
    <property name="video_index">0</property>
    <property name="mute_on_pause">0</property>
    <property name="mlt_service">avformat-novalidate</property>
    <property name="seekable">1</property>
    <property name="aspect_ratio">1</property>
    <property name="creation_time">2019-08-17T12:05:29</property>
    <property name="global_feed">1</property>
    <property name="xml">was here</property>
    <property name="shotcut:hash">4ffff7f3c814169f97ca76736a540c22</property>
    <property name="ignore_points">0</property>
    <property name="shotcut:caption">2019-08-17 19-04-50.mov</property>
  </producer>
  <producer id="producer56" title="Anonymous Submission" in="00:00:00.000" out="00:00:31.367">
    <property name="length">00:00:31:23</property>
    <property name="eof">pause</property>
    <property name="resource">C:/Users/ASUS/Videos/2019-08-17 19-02-04.mov</property>
    <property name="audio_index">1</property>
    <property name="video_index">0</property>
    <property name="mute_on_pause">0</property>
    <property name="mlt_service">avformat-novalidate</property>
    <property name="seekable">1</property>
    <property name="aspect_ratio">1</property>
    <property name="creation_time">2019-08-17T12:02:42</property>
    <property name="global_feed">1</property>
    <property name="xml">was here</property>
    <property name="shotcut:hash">d45c095ea68f3a1cd382073e4c451352</property>
    <property name="ignore_points">0</property>
    <property name="shotcut:caption">2019-08-17 19-02-04.mov</property>
  </producer>
  <producer id="producer57" title="Anonymous Submission" in="00:00:00.000" out="00:00:37.683">
    <property name="length">00:00:37:42</property>
    <property name="eof">pause</property>
    <property name="resource">C:/Users/ASUS/Videos/2019-08-17 19-04-50.mov</property>
    <property name="audio_index">1</property>
    <property name="video_index">0</property>
    <property name="mute_on_pause">0</property>
    <property name="mlt_service">avformat-novalidate</property>
    <property name="seekable">1</property>
    <property name="aspect_ratio">1</property>
    <property name="creation_time">2019-08-17T12:05:29</property>
    <property name="global_feed">1</property>
    <property name="xml">was here</property>
    <property name="shotcut:hash">4ffff7f3c814169f97ca76736a540c22</property>
    <property name="ignore_points">0</property>
    <property name="shotcut:caption">2019-08-17 19-04-50.mov</property>
  </producer>
  <producer id="producer58" title="Anonymous Submission" in="00:00:00.000" out="00:00:31.367">
    <property name="length">00:00:31:23</property>
    <property name="eof">pause</property>
    <property name="resource">C:/Users/ASUS/Videos/2019-08-17 19-02-04.mov</property>
    <property name="audio_index">1</property>
    <property name="video_index">0</property>
    <property name="mute_on_pause">0</property>
    <property name="mlt_service">avformat-novalidate</property>
    <property name="seekable">1</property>
    <property name="aspect_ratio">1</property>
    <property name="creation_time">2019-08-17T12:02:42</property>
    <property name="global_feed">1</property>
    <property name="xml">was here</property>
    <property name="shotcut:hash">d45c095ea68f3a1cd382073e4c451352</property>
    <property name="ignore_points">0</property>
    <property name="shotcut:caption">2019-08-17 19-02-04.mov</property>
  </producer>
  <producer id="producer59" title="Anonymous Submission" in="00:00:00.000" out="00:00:37.683">
    <property name="length">00:00:37:42</property>
    <property name="eof">pause</property>
    <property name="resource">C:/Users/ASUS/Videos/2019-08-17 19-04-50.mov</property>
    <property name="audio_index">1</property>
    <property name="video_index">0</property>
    <property name="mute_on_pause">0</property>
    <property name="mlt_service">avformat-novalidate</property>
    <property name="seekable">1</property>
    <property name="aspect_ratio">1</property>
    <property name="creation_time">2019-08-17T12:05:29</property>
    <property name="global_feed">1</property>
    <property name="xml">was here</property>
    <property name="shotcut:hash">4ffff7f3c814169f97ca76736a540c22</property>
    <property name="ignore_points">0</property>
    <property name="shotcut:caption">2019-08-17 19-04-50.mov</property>
  </producer>
  <producer id="producer60" title="Anonymous Submission" in="00:00:00.000" out="00:00:31.367">
    <property name="length">00:00:31:23</property>
    <property name="eof">pause</property>
    <property name="resource">C:/Users/ASUS/Videos/2019-08-17 19-02-04.mov</property>
    <property name="audio_index">1</property>
    <property name="video_index">0</property>
    <property name="mute_on_pause">0</property>
    <property name="mlt_service">avformat-novalidate</property>
    <property name="seekable">1</property>
    <property name="aspect_ratio">1</property>
    <property name="creation_time">2019-08-17T12:02:42</property>
    <property name="global_feed">1</property>
    <property name="xml">was here</property>
    <property name="shotcut:hash">d45c095ea68f3a1cd382073e4c451352</property>
    <property name="ignore_points">0</property>
    <property name="shotcut:caption">2019-08-17 19-02-04.mov</property>
  </producer>
  <producer id="producer61" title="Anonymous Submission" in="00:00:00.000" out="00:00:37.683">
    <property name="length">00:00:37:42</property>
    <property name="eof">pause</property>
    <property name="resource">C:/Users/ASUS/Videos/2019-08-17 19-04-50.mov</property>
    <property name="audio_index">1</property>
    <property name="video_index">0</property>
    <property name="mute_on_pause">0</property>
    <property name="mlt_service">avformat-novalidate</property>
    <property name="seekable">1</property>
    <property name="aspect_ratio">1</property>
    <property name="creation_time">2019-08-17T12:05:29</property>
    <property name="global_feed">1</property>
    <property name="xml">was here</property>
    <property name="shotcut:hash">4ffff7f3c814169f97ca76736a540c22</property>
    <property name="ignore_points">0</property>
    <property name="shotcut:caption">2019-08-17 19-04-50.mov</property>
  </producer>
  <producer id="producer62" title="Anonymous Submission" in="00:00:00.000" out="03:59:59.983">
    <property name="length">04:00:00:00</property>
    <property name="eof">pause</property>
    <property name="resource">#00000000</property>
    <property name="aspect_ratio">1</property>
    <property name="mlt_service">color</property>
    <property name="mlt_image_format">rgb24a</property>
    <property name="shotcut:caption">transparent</property>
    <property name="shotcut:detail">transparent</property>
    <property name="ignore_points">0</property>
    <property name="global_feed">1</property>
    <property name="xml">was here</property>
    <property name="seekable">1</property>
    <filter id="filter23" out="00:00:03.467">
      <property name="argument">We were supposed to Kdenlive on Linux Operating System!
because Movit binary (to get GPU processing)
is available for Linux only at the moment.
:(</property>
      <property name="geometry">-5 860 3840 540 1</property>
      <property name="family">Ubuntu</property>
      <property name="size">540</property>
      <property name="weight">750</property>
      <property name="style">normal</property>
      <property name="fgcolour">#0055ff</property>
      <property name="bgcolour">#00000000</property>
      <property name="olcolour">#aa000000</property>
      <property name="pad">0</property>
      <property name="halign">center</property>
      <property name="valign">top</property>
      <property name="outline">3</property>
      <property name="mlt_service">dynamictext</property>
      <property name="shotcut:filter">dynamicText</property>
      <property name="shotcut:usePointSize">0</property>
      <property name="shotcut:pointSize">60</property>
    </filter>
  </producer>
  <producer id="producer63" title="Anonymous Submission" in="00:00:00.000" out="03:59:59.983">
    <property name="length">04:00:00:00</property>
    <property name="eof">pause</property>
    <property name="resource">#00000000</property>
    <property name="aspect_ratio">1</property>
    <property name="mlt_service">color</property>
    <property name="mlt_image_format">rgb24a</property>
    <property name="shotcut:caption">transparent</property>
    <property name="shotcut:detail">transparent</property>
    <property name="ignore_points">0</property>
    <property name="global_feed">1</property>
    <property name="xml">was here</property>
    <property name="seekable">1</property>
    <filter id="filter24" out="00:00:03.983">
      <property name="argument">To do this, we need to get any ways
to get Linux up and running
and have Kdenlive to it</property>
      <property name="geometry">0 1620 3840 540 1</property>
      <property name="family">Verdana</property>
      <property name="size">100</property>
      <property name="weight">750</property>
      <property name="style">normal</property>
      <property name="fgcolour">#0055ff</property>
      <property name="bgcolour">#00000000</property>
      <property name="olcolour">#aa000000</property>
      <property name="pad">0</property>
      <property name="halign">center</property>
      <property name="valign">top</property>
      <property name="outline">3</property>
      <property name="mlt_service">dynamictext</property>
      <property name="shotcut:filter">dynamicText</property>
      <property name="shotcut:usePointSize">1</property>
      <property name="shotcut:pointSize">60</property>
    </filter>
  </producer>
  <producer id="producer64" title="Anonymous Submission" in="00:00:00.000" out="03:59:59.983">
    <property name="length">04:00:00:00</property>
    <property name="eof">pause</property>
    <property name="resource">C:/Users/ASUS/Pictures/20190820_161519.jpg</property>
    <property name="ttl">1</property>
    <property name="aspect_ratio">1</property>
    <property name="progressive">1</property>
    <property name="seekable">1</property>
    <property name="mlt_service">qimage</property>
    <property name="creation_time">2019-08-20T09:23:43</property>
    <property name="global_feed">1</property>
    <property name="xml">was here</property>
    <property name="shotcut:hash">1eb7b83e4640d93f34554cbea9e13428</property>
    <property name="ignore_points">0</property>
    <filter id="filter25" out="00:00:03.983">
      <property name="argument">My laptop I have right now is
ASUS GL503GE (Windows)
[RAM 8GB, Intel Core i7, Intel UDH 600 + Nvidia 1050 Ti (cheapskate setup)]
a budget gaming laptop.
So this is a hypocrite should it say.</property>
      <property name="geometry">28 1604 3840 540 1</property>
      <property name="family">Ubuntu</property>
      <property name="size">432</property>
      <property name="weight">750</property>
      <property name="style">normal</property>
      <property name="fgcolour">#00aa00</property>
      <property name="bgcolour">#00000000</property>
      <property name="olcolour">#aa000000</property>
      <property name="pad">0</property>
      <property name="halign">center</property>
      <property name="valign">top</property>
      <property name="outline">3</property>
      <property name="mlt_service">dynamictext</property>
      <property name="shotcut:filter">dynamicText</property>
      <property name="shotcut:usePointSize">0</property>
      <property name="shotcut:pointSize">60</property>
    </filter>
  </producer>
  <producer id="producer65" title="Anonymous Submission" in="00:00:00.000" out="03:59:59.983">
    <property name="length">04:00:00:00</property>
    <property name="eof">pause</property>
    <property name="resource">#32A0FFFF</property>
    <property name="aspect_ratio">1</property>
    <property name="mlt_service">color</property>
    <property name="mlt_image_format">rgb24a</property>
    <property name="shotcut:caption">#32A0FFFF</property>
    <property name="shotcut:detail">#32A0FFFF</property>
    <property name="ignore_points">0</property>
    <property name="global_feed">1</property>
    <property name="xml">was here</property>
    <property name="seekable">1</property>
    <filter id="filter26" out="00:00:02.933">
      <property name="argument">I am sadd
I have lagg because GPU processing (movit)
is unavailable on Windows
and the lag is too severe!!!</property>
      <property name="geometry">-5 7 3851 2148 1</property>
      <property name="family">Ubuntu</property>
      <property name="size">540</property>
      <property name="weight">750</property>
      <property name="style">normal</property>
      <property name="fgcolour">#00aa7f</property>
      <property name="bgcolour">#87aa0000</property>
      <property name="olcolour">#aa000000</property>
      <property name="pad">1</property>
      <property name="halign">center</property>
      <property name="valign">middle</property>
      <property name="outline">30</property>
      <property name="mlt_service">dynamictext</property>
      <property name="shotcut:filter">dynamicText</property>
      <property name="shotcut:usePointSize">0</property>
      <property name="shotcut:pointSize">60</property>
    </filter>
  </producer>
  <producer id="producer66" title="Anonymous Submission" in="00:00:00.000" out="00:04:09.983">
    <property name="length">00:04:10:00</property>
    <property name="eof">pause</property>
    <property name="resource">&lt;producer&gt;</property>
    <property name="aspect_ratio">1</property>
    <property name="version">0.9</property>
    <property name="mlt_service">frei0r.ising0r</property>
    <property name="0">0,00</property>
    <property name="1">1,00</property>
    <property name="2">1,00</property>
    <property name="shotcut:caption">Ising Model</property>
    <property name="shotcut:detail">Ising Model</property>
    <property name="ignore_points">0</property>
    <property name="global_feed">1</property>
    <property name="xml">was here</property>
    <property name="seekable">1</property>
  </producer>
  <producer id="producer67" title="Anonymous Submission" in="00:00:00.000" out="00:04:09.983">
    <property name="length">00:04:10:00</property>
    <property name="eof">pause</property>
    <property name="resource">&lt;producer&gt;</property>
    <property name="aspect_ratio">1</property>
    <property name="version">0.9</property>
    <property name="mlt_service">frei0r.ising0r</property>
    <property name="0">0</property>
    <property name="1">0.06</property>
    <property name="2">0.1</property>
    <property name="shotcut:caption">Ising Model</property>
    <property name="shotcut:detail">Ising Model</property>
    <property name="ignore_points">0</property>
    <property name="global_feed">1</property>
    <property name="xml">was here</property>
    <property name="seekable">1</property>
  </producer>
  <producer id="producer68" title="Anonymous Submission" in="00:00:00.000" out="03:59:59.983">
    <property name="length">04:00:00:00</property>
    <property name="eof">pause</property>
    <property name="resource">&lt;producer&gt;</property>
    <property name="aspect_ratio">1</property>
    <property name="version">0.1</property>
    <property name="mlt_service">frei0r.test_pat_B</property>
    <property name="0">4</property>
    <property name="shotcut:caption">SMPTE color bars</property>
    <property name="shotcut:detail">SMPTE color bars</property>
    <property name="ignore_points">0</property>
    <property name="global_feed">1</property>
    <property name="xml">was here</property>
    <property name="seekable">1</property>
  </producer>
  <producer id="producer69" title="Anonymous Submission" in="00:00:00.000" out="03:59:59.983">
    <property name="length">04:00:00:00</property>
    <property name="eof">pause</property>
    <property name="resource">&lt;producer&gt;</property>
    <property name="aspect_ratio">1</property>
    <property name="version">0.1</property>
    <property name="mlt_service">frei0r.test_pat_B</property>
    <property name="0">4</property>
    <property name="shotcut:caption">SMPTE color bars</property>
    <property name="shotcut:detail">SMPTE color bars</property>
    <property name="ignore_points">0</property>
    <property name="global_feed">1</property>
    <property name="xml">was here</property>
    <property name="seekable">1</property>
  </producer>
  <producer id="producer70" title="Anonymous Submission" in="00:00:00.000" out="03:59:59.983">
    <property name="length">04:00:00:00</property>
    <property name="eof">pause</property>
    <property name="resource">&lt;producer&gt;</property>
    <property name="aspect_ratio">1</property>
    <property name="version">0.1</property>
    <property name="mlt_service">frei0r.test_pat_B</property>
    <property name="0">4</property>
    <property name="shotcut:caption">SMPTE color bars</property>
    <property name="shotcut:detail">SMPTE color bars</property>
    <property name="ignore_points">0</property>
    <property name="global_feed">1</property>
    <property name="xml">was here</property>
    <property name="seekable">1</property>
  </producer>
  <producer id="producer71" title="Anonymous Submission" in="00:00:00.000" out="03:59:59.983">
    <property name="length">04:00:00:00</property>
    <property name="eof">pause</property>
    <property name="resource">&lt;producer&gt;</property>
    <property name="aspect_ratio">1</property>
    <property name="version">0.1</property>
    <property name="mlt_service">frei0r.test_pat_B</property>
    <property name="0">4</property>
    <property name="shotcut:caption">SMPTE color bars</property>
    <property name="shotcut:detail">SMPTE color bars</property>
    <property name="ignore_points">0</property>
    <property name="global_feed">1</property>
    <property name="xml">was here</property>
    <property name="seekable">1</property>
  </producer>
  <producer id="producer72" title="Anonymous Submission" in="00:00:00.000" out="03:59:59.983">
    <property name="length">04:00:00:00</property>
    <property name="eof">pause</property>
    <property name="resource">&lt;producer&gt;</property>
    <property name="aspect_ratio">1</property>
    <property name="version">0.1</property>
    <property name="mlt_service">frei0r.test_pat_B</property>
    <property name="0">4</property>
    <property name="shotcut:caption">SMPTE color bars</property>
    <property name="shotcut:detail">SMPTE color bars</property>
    <property name="ignore_points">0</property>
    <property name="global_feed">1</property>
    <property name="xml">was here</property>
    <property name="seekable">1</property>
  </producer>
  <producer id="producer73" title="Anonymous Submission" in="00:00:00.000" out="03:59:59.983">
    <property name="length">04:00:00:00</property>
    <property name="eof">pause</property>
    <property name="resource">&lt;producer&gt;</property>
    <property name="aspect_ratio">1</property>
    <property name="version">0.1</property>
    <property name="mlt_service">frei0r.test_pat_B</property>
    <property name="0">4</property>
    <property name="shotcut:caption">SMPTE color bars</property>
    <property name="shotcut:detail">SMPTE color bars</property>
    <property name="ignore_points">0</property>
    <property name="global_feed">1</property>
    <property name="xml">was here</property>
    <property name="seekable">1</property>
  </producer>
  <producer id="producer74" title="Anonymous Submission" in="00:00:00.000" out="03:59:59.983">
    <property name="length">04:00:00:00</property>
    <property name="eof">pause</property>
    <property name="resource">&lt;producer&gt;</property>
    <property name="aspect_ratio">1</property>
    <property name="version">0.1</property>
    <property name="mlt_service">frei0r.test_pat_B</property>
    <property name="0">4</property>
    <property name="shotcut:caption">SMPTE color bars</property>
    <property name="shotcut:detail">SMPTE color bars</property>
    <property name="ignore_points">0</property>
    <property name="global_feed">1</property>
    <property name="xml">was here</property>
    <property name="seekable">1</property>
  </producer>
  <producer id="producer75" title="Anonymous Submission" in="00:00:00.000" out="03:59:59.983">
    <property name="length">04:00:00:00</property>
    <property name="eof">pause</property>
    <property name="resource">&lt;producer&gt;</property>
    <property name="aspect_ratio">1</property>
    <property name="version">0.1</property>
    <property name="mlt_service">frei0r.test_pat_B</property>
    <property name="0">4</property>
    <property name="shotcut:caption">SMPTE color bars</property>
    <property name="shotcut:detail">SMPTE color bars</property>
    <property name="ignore_points">0</property>
    <property name="global_feed">1</property>
    <property name="xml">was here</property>
    <property name="seekable">1</property>
  </producer>
  <producer id="producer76" title="Anonymous Submission" in="00:00:00.000" out="00:04:09.983">
    <property name="length">00:04:10:00</property>
    <property name="eof">pause</property>
    <property name="resource">&lt;producer&gt;</property>
    <property name="aspect_ratio">1</property>
    <property name="version">0.3</property>
    <property name="mlt_service">frei0r.plasma</property>
    <property name="0">1,00</property>
    <property name="1">1,00</property>
    <property name="2">1,00</property>
    <property name="3">1,00</property>
    <property name="4">1,00</property>
    <property name="5">1,00</property>
    <property name="shotcut:caption">Plasma</property>
    <property name="shotcut:detail">Plasma</property>
    <property name="ignore_points">0</property>
    <property name="global_feed">1</property>
    <property name="xml">was here</property>
    <property name="seekable">1</property>
  </producer>
  <producer id="producer77" title="Anonymous Submission" in="00:00:00.000" out="00:04:09.983">
    <property name="length">00:04:10:00</property>
    <property name="eof">pause</property>
    <property name="resource">&lt;producer&gt;</property>
    <property name="aspect_ratio">1</property>
    <property name="version">0.3</property>
    <property name="mlt_service">frei0r.plasma</property>
    <property name="0">1,00</property>
    <property name="1">1,00</property>
    <property name="2">1,00</property>
    <property name="3">1,00</property>
    <property name="4">1,00</property>
    <property name="5">1,00</property>
    <property name="shotcut:caption">Plasma</property>
    <property name="shotcut:detail">Plasma</property>
    <property name="ignore_points">0</property>
    <property name="global_feed">1</property>
    <property name="xml">was here</property>
    <property name="seekable">1</property>
  </producer>
  <producer id="producer78" title="Anonymous Submission" in="00:00:00.000" out="00:04:09.983">
    <property name="length">00:04:10:00</property>
    <property name="eof">pause</property>
    <property name="resource">&lt;producer&gt;</property>
    <property name="aspect_ratio">1</property>
    <property name="version">0.3</property>
    <property name="mlt_service">frei0r.plasma</property>
    <property name="0">1,00</property>
    <property name="1">1,00</property>
    <property name="2">1,00</property>
    <property name="3">1,00</property>
    <property name="4">1,00</property>
    <property name="5">1,00</property>
    <property name="shotcut:caption">Plasma</property>
    <property name="shotcut:detail">Plasma</property>
    <property name="ignore_points">0</property>
    <property name="global_feed">1</property>
    <property name="xml">was here</property>
    <property name="seekable">1</property>
  </producer>
  <producer id="producer79" title="Anonymous Submission" in="00:00:00.000" out="00:04:09.983">
    <property name="length">00:04:10:00</property>
    <property name="eof">pause</property>
    <property name="resource">&lt;producer&gt;</property>
    <property name="aspect_ratio">1</property>
    <property name="version">0.3</property>
    <property name="mlt_service">frei0r.plasma</property>
    <property name="0">1,00</property>
    <property name="1">1,00</property>
    <property name="2">1,00</property>
    <property name="3">1,00</property>
    <property name="4">1,00</property>
    <property name="5">1,00</property>
    <property name="shotcut:caption">Plasma</property>
    <property name="shotcut:detail">Plasma</property>
    <property name="ignore_points">0</property>
    <property name="global_feed">1</property>
    <property name="xml">was here</property>
    <property name="seekable">1</property>
  </producer>
  <producer id="producer80" title="Anonymous Submission" in="00:00:00.000" out="00:04:09.983">
    <property name="length">00:04:10:00</property>
    <property name="eof">pause</property>
    <property name="resource">&lt;producer&gt;</property>
    <property name="aspect_ratio">1</property>
    <property name="version">0.3</property>
    <property name="mlt_service">frei0r.plasma</property>
    <property name="0">1,00</property>
    <property name="1">1,00</property>
    <property name="2">1,00</property>
    <property name="3">1,00</property>
    <property name="4">1,00</property>
    <property name="5">1,00</property>
    <property name="shotcut:caption">Plasma</property>
    <property name="shotcut:detail">Plasma</property>
    <property name="ignore_points">0</property>
    <property name="global_feed">1</property>
    <property name="xml">was here</property>
    <property name="seekable">1</property>
  </producer>
  <producer id="producer81" title="Anonymous Submission" in="00:00:00.000" out="00:00:02.983">
    <property name="length">180</property>
    <property name="eof">pause</property>
    <property name="resource">&lt;producer&gt;</property>
    <property name="aspect_ratio">1</property>
    <property name="direction">down</property>
    <property name="style">frames</property>
    <property name="sound">silent</property>
    <property name="background">clock</property>
    <property name="drop">1</property>
    <property name="mlt_service">count</property>
    <property name="shotcut:caption">Count</property>
    <property name="shotcut:detail">Count: Down Frames</property>
    <property name="ignore_points">0</property>
    <property name="global_feed">1</property>
    <property name="xml">was here</property>
    <property name="seekable">1</property>
  </producer>
  <producer id="producer82" title="Anonymous Submission" in="00:00:00.000" out="03:59:59.983">
    <property name="length">04:00:00:00</property>
    <property name="eof">pause</property>
    <property name="resource">#00000000</property>
    <property name="aspect_ratio">1</property>
    <property name="mlt_service">color</property>
    <property name="mlt_image_format">rgb24a</property>
    <property name="shotcut:caption">transparent</property>
    <property name="shotcut:detail">transparent</property>
    <property name="ignore_points">0</property>
    <property name="global_feed">1</property>
    <property name="xml">was here</property>
    <property name="seekable">1</property>
    <filter id="filter27" out="00:00:00.333">
      <property name="argument">WOEM</property>
      <property name="geometry">-4 4 3844 2156 1</property>
      <property name="family">Ubuntu</property>
      <property name="size">2160</property>
      <property name="weight">750</property>
      <property name="style">normal</property>
      <property name="fgcolour">#5555ff</property>
      <property name="bgcolour">#00000000</property>
      <property name="olcolour">#aa000000</property>
      <property name="pad">0</property>
      <property name="halign">center</property>
      <property name="valign">middle</property>
      <property name="outline">3</property>
      <property name="mlt_service">dynamictext</property>
      <property name="shotcut:filter">dynamicText</property>
      <property name="shotcut:usePointSize">0</property>
      <property name="shotcut:pointSize">60</property>
    </filter>
    <filter id="filter28" out="00:00:00.333">
      <property name="frequency_low">1045</property>
      <property name="frequency_high">20000</property>
      <property name="threshold">-41</property>
      <property name="osc">10</property>
      <property name="initial_zoom">6</property>
      <property name="zoom">100</property>
      <property name="left">0</property>
      <property name="right">0</property>
      <property name="up">0</property>
      <property name="down">0</property>
      <property name="clockwise">0</property>
      <property name="counterclockwise">0</property>
      <property name="window_size">2048</property>
      <property name="mlt_service">dance</property>
      <property name="shotcut:filter">audioDance</property>
    </filter>
  </producer>
  <producer id="producer83" title="Anonymous Submission" in="00:00:00.000" out="03:59:59.983">
    <property name="length">04:00:00:00</property>
    <property name="eof">pause</property>
    <property name="resource">#00000000</property>
    <property name="aspect_ratio">1</property>
    <property name="mlt_service">color</property>
    <property name="mlt_image_format">rgb24a</property>
    <property name="shotcut:caption">transparent</property>
    <property name="shotcut:detail">transparent</property>
    <property name="ignore_points">0</property>
    <property name="global_feed">1</property>
    <property name="xml">was here</property>
    <property name="seekable">1</property>
    <filter id="filter29" out="00:00:03.983">
      <property name="argument">#timecode#
#frame#</property>
      <property name="geometry">0 1620 3840 540 1</property>
      <property name="family">Ubuntu</property>
      <property name="size">1080</property>
      <property name="weight">750</property>
      <property name="style">normal</property>
      <property name="fgcolour">#ffffffff</property>
      <property name="bgcolour">#00000000</property>
      <property name="olcolour">#aa000000</property>
      <property name="pad">0</property>
      <property name="halign">center</property>
      <property name="valign">top</property>
      <property name="outline">3</property>
      <property name="mlt_service">dynamictext</property>
      <property name="shotcut:filter">dynamicText</property>
      <property name="shotcut:usePointSize">0</property>
      <property name="shotcut:pointSize">60</property>
    </filter>
  </producer>
  <producer id="producer84" title="Anonymous Submission" in="00:00:00.000" out="03:59:59.983">
    <property name="length">04:00:00:00</property>
    <property name="eof">pause</property>
    <property name="resource">#00000000</property>
    <property name="aspect_ratio">1</property>
    <property name="mlt_service">color</property>
    <property name="mlt_image_format">rgb24a</property>
    <property name="shotcut:caption">transparent</property>
    <property name="shotcut:detail">transparent</property>
    <property name="ignore_points">0</property>
    <property name="global_feed">1</property>
    <property name="xml">was here</property>
    <property name="seekable">1</property>
    <filter id="filter30" out="00:00:02.967">
      <property name="argument">Sorry we've got to cut
We weren't suppose to Shotcut
but Kdenlive.
sorry for bad video / Pooppost video</property>
      <property name="geometry">-4 0 3844 2160 1</property>
      <property name="family">Ubuntu</property>
      <property name="size">540</property>
      <property name="weight">750</property>
      <property name="style">normal</property>
      <property name="fgcolour">#ff0000</property>
      <property name="bgcolour">#00000000</property>
      <property name="olcolour">#aa000000</property>
      <property name="pad">0</property>
      <property name="halign">center</property>
      <property name="valign">middle</property>
      <property name="outline">3</property>
      <property name="mlt_service">dynamictext</property>
      <property name="shotcut:filter">dynamicText</property>
      <property name="shotcut:usePointSize">0</property>
      <property name="shotcut:pointSize">60</property>
    </filter>
  </producer>
  <producer id="producer85" title="Anonymous Submission" in="00:00:00.000" out="03:59:59.983">
    <property name="length">864000</property>
    <property name="eof">pause</property>
    <property name="resource">C:/Users/ASUS/Documents/starring codes/Godot Projects/HexagonEngine/Inkscape/Logo Setup/Perkedel_Ended_4K.png</property>
    <property name="ttl">1</property>
    <property name="aspect_ratio">1</property>
    <property name="progressive">1</property>
    <property name="seekable">1</property>
    <property name="mlt_service">qimage</property>
    <property name="creation_time">2019-08-20T12:05:21</property>
    <property name="global_feed">1</property>
    <property name="xml">was here</property>
    <property name="shotcut:hash">0d7e2154fab42cfc0e9fe638a4711c06</property>
  </producer>
  <playlist id="playlist0">
    <property name="shotcut:video">1</property>
    <property name="shotcut:name">V1</property>
    <entry producer="producer29" in="00:00:00.000" out="00:00:03.983"/>
    <entry producer="producer30" in="00:00:00.000" out="00:00:22.383"/>
    <blank length="00:00:00.183"/>
    <entry producer="producer31" in="00:00:00.000" out="00:00:00.450"/>
    <entry producer="producer32" in="00:00:07.050" out="00:00:07.550"/>
    <entry producer="producer33" in="00:00:00.000" out="00:00:00.450"/>
    <entry producer="producer34" in="00:00:07.050" out="00:00:07.467"/>
    <entry producer="producer35" in="00:00:00.000" out="00:00:00.450"/>
    <entry producer="producer36" in="00:00:07.050" out="00:00:07.550"/>
    <entry producer="producer37" in="00:00:00.000" out="00:00:00.450"/>
    <entry producer="producer38" in="00:00:07.050" out="00:00:07.550"/>
    <entry producer="producer39" in="00:00:00.000" out="00:00:00.450"/>
    <entry producer="producer40" in="00:00:07.050" out="00:00:07.550"/>
    <entry producer="producer41" in="00:00:00.000" out="00:00:00.450"/>
    <entry producer="producer42" in="00:00:07.050" out="00:00:07.550"/>
    <entry producer="producer43" in="00:00:00.000" out="00:00:00.450"/>
    <entry producer="producer44" in="00:00:07.050" out="00:00:07.533"/>
    <entry producer="producer45" in="00:00:00.000" out="00:00:00.450"/>
    <entry producer="producer46" in="00:00:07.050" out="00:00:07.550"/>
    <entry producer="producer47" in="00:00:00.000" out="00:00:00.450"/>
    <entry producer="producer48" in="00:00:07.050" out="00:00:07.550"/>
    <entry producer="producer49" in="00:00:00.000" out="00:00:00.450"/>
    <entry producer="producer50" in="00:00:07.050" out="00:00:07.550"/>
    <entry producer="producer51" in="00:00:00.000" out="00:00:00.450"/>
    <entry producer="producer52" in="00:00:07.050" out="00:00:07.550"/>
    <entry producer="producer53" in="00:00:00.000" out="00:00:00.450"/>
    <entry producer="producer54" in="00:00:07.050" out="00:00:07.550"/>
    <entry producer="producer55" in="00:00:00.000" out="00:00:00.450"/>
    <entry producer="producer56" in="00:00:07.050" out="00:00:07.550"/>
    <entry producer="producer57" in="00:00:00.000" out="00:00:00.450"/>
    <entry producer="producer58" in="00:00:07.050" out="00:00:07.550"/>
    <entry producer="producer59" in="00:00:00.000" out="00:00:00.450"/>
    <entry producer="producer60" in="00:00:07.050" out="00:00:07.550"/>
    <entry producer="producer61" in="00:00:00.000" out="00:00:00.450"/>
    <entry producer="producer62" in="00:00:00.000" out="00:00:03.467"/>
    <entry producer="producer63" in="00:00:00.000" out="00:00:03.983"/>
    <entry producer="producer64" in="00:00:00.000" out="00:00:03.983"/>
    <entry producer="producer65" in="00:00:00.000" out="00:00:02.933"/>
    <entry producer="producer66" in="00:00:00.000" out="00:00:03.750"/>
    <blank length="00:00:00.367"/>
    <entry producer="producer67" in="00:00:00.000" out="00:00:03.417"/>
    <blank length="00:00:00.067"/>
    <entry producer="producer68" in="00:00:00.000" out="00:00:00.000"/>
    <blank length="00:00:00.017"/>
    <entry producer="producer69" in="00:00:00.000" out="00:00:00.000"/>
    <blank length="00:00:00.017"/>
    <entry producer="producer70" in="00:00:00.000" out="00:00:00.000"/>
    <blank length="00:00:00.017"/>
    <entry producer="producer71" in="00:00:00.000" out="00:00:00.000"/>
    <blank length="00:00:00.017"/>
    <entry producer="producer72" in="00:00:00.000" out="00:00:00.000"/>
    <blank length="00:00:00.017"/>
    <entry producer="producer73" in="00:00:00.000" out="00:00:00.000"/>
    <blank length="00:00:00.017"/>
    <entry producer="producer74" in="00:00:00.000" out="00:00:00.000"/>
    <blank length="00:00:00.017"/>
    <entry producer="producer75" in="00:00:00.000" out="00:00:00.000"/>
    <blank length="00:00:00.017"/>
    <entry producer="producer76" in="00:00:00.000" out="00:00:03.350"/>
    <blank length="00:00:00.017"/>
    <entry producer="producer77" in="00:00:00.000" out="00:00:00.067"/>
    <blank length="00:00:00.017"/>
    <entry producer="producer78" in="00:00:03.367" out="00:00:03.433"/>
    <blank length="00:00:00.017"/>
    <entry producer="producer79" in="00:00:00.000" out="00:00:00.067"/>
    <blank length="00:00:00.017"/>
    <entry producer="producer80" in="00:00:00.000" out="00:00:00.033"/>
    <blank length="00:00:00.033"/>
    <entry producer="producer81" in="00:00:00.000" out="00:00:02.983"/>
    <blank length="00:00:00.283"/>
    <entry producer="producer82" in="00:00:00.000" out="00:00:00.333"/>
    <entry producer="producer83" in="00:00:00.000" out="00:00:03.983"/>
    <entry producer="producer84" in="00:00:00.000" out="00:00:02.967"/>
    <entry producer="producer85" in="00:00:00.000" out="00:00:03.983"/>
  </playlist>
  <producer id="producer86" title="Anonymous Submission" in="00:00:00.000" out="00:03:48.267">
    <property name="length">13697</property>
    <property name="eof">pause</property>
    <property name="resource">D:/PRIVATE FOLDER/FILE JOEL ROBERT/MP3/YouTube Audio Library/Invisible.mp3</property>
    <property name="audio_index">0</property>
    <property name="video_index">-1</property>
    <property name="mute_on_pause">0</property>
    <property name="mlt_service">avformat-novalidate</property>
    <property name="seekable">1</property>
    <property name="creation_time">2018-12-23T07:47:24</property>
    <property name="global_feed">1</property>
    <property name="xml">was here</property>
    <property name="shotcut:hash">602359e6df75d27d7a814f72979f05d9</property>
    <property name="shotcut:caption">Invisible.mp3</property>
  </producer>
  <playlist id="playlist1">
    <property name="shotcut:audio">1</property>
    <property name="shotcut:name">A1</property>
    <blank length="00:00:04.000"/>
    <entry producer="producer86" in="00:00:00.000" out="00:01:11.417"/>
  </playlist>
  <producer id="producer87" title="Anonymous Submission" in="00:00:00.000" out="03:59:59.983">
    <property name="length">04:00:00:00</property>
    <property name="eof">pause</property>
    <property name="resource">#00000000</property>
    <property name="aspect_ratio">1</property>
    <property name="mlt_service">color</property>
    <property name="mlt_image_format">rgb24a</property>
    <property name="shotcut:caption">transparent</property>
    <property name="shotcut:detail">transparent</property>
    <property name="ignore_points">0</property>
    <property name="global_feed">1</property>
    <property name="xml">was here</property>
    <property name="seekable">1</property>
    <filter id="filter31" out="00:00:03.983">
      <property name="argument">Invisible</property>
      <property name="geometry">0 747 817 247 1</property>
      <property name="family">Ubuntu</property>
      <property name="size">2160</property>
      <property name="weight">750</property>
      <property name="style">normal</property>
      <property name="fgcolour">#0000ff</property>
      <property name="bgcolour">#00000000</property>
      <property name="olcolour">#aa000000</property>
      <property name="pad">0</property>
      <property name="halign">left</property>
      <property name="valign">middle</property>
      <property name="outline">3</property>
      <property name="mlt_service">dynamictext</property>
      <property name="shotcut:filter">dynamicText</property>
      <property name="shotcut:usePointSize">0</property>
      <property name="shotcut:pointSize">60</property>
    </filter>
    <filter id="filter32" out="00:00:03.983">
      <property name="argument">Vibe tracks</property>
      <property name="geometry">4 965 620 163 1</property>
      <property name="family">Ubuntu</property>
      <property name="size">2160</property>
      <property name="weight">500</property>
      <property name="style">normal</property>
      <property name="fgcolour">#00ff00</property>
      <property name="bgcolour">#00000000</property>
      <property name="olcolour">#aa000000</property>
      <property name="pad">0</property>
      <property name="halign">left</property>
      <property name="valign">middle</property>
      <property name="outline">3</property>
      <property name="mlt_service">dynamictext</property>
      <property name="shotcut:filter">dynamicText</property>
      <property name="shotcut:usePointSize">0</property>
      <property name="shotcut:animIn">00:00:00.000</property>
      <property name="shotcut:animOut">00:00:00.000</property>
    </filter>
  </producer>
  <producer id="producer88" title="Anonymous Submission" in="00:00:00.000" out="03:59:59.983">
    <property name="length">04:00:00:00</property>
    <property name="eof">pause</property>
    <property name="resource">#00000000</property>
    <property name="aspect_ratio">1</property>
    <property name="mlt_service">color</property>
    <property name="mlt_image_format">rgb24a</property>
    <property name="shotcut:caption">transparent</property>
    <property name="shotcut:detail">transparent</property>
    <property name="ignore_points">0</property>
    <property name="global_feed">1</property>
    <property name="xml">was here</property>
    <property name="seekable">1</property>
    <filter id="filter33" out="00:00:14.717">
      <property name="argument">I discovered LBRY, a decentralized media hosting.</property>
      <property name="geometry">668 1338 2529 158 1</property>
      <property name="family">Ubuntu</property>
      <property name="size">2160</property>
      <property name="weight">750</property>
      <property name="style">normal</property>
      <property name="fgcolour">#ffff00</property>
      <property name="bgcolour">#00000000</property>
      <property name="olcolour">#aa000000</property>
      <property name="pad">0</property>
      <property name="halign">center</property>
      <property name="valign">middle</property>
      <property name="outline">3</property>
      <property name="mlt_service">dynamictext</property>
      <property name="shotcut:filter">dynamicText</property>
      <property name="shotcut:usePointSize">0</property>
      <property name="shotcut:pointSize">60</property>
    </filter>
  </producer>
  <producer id="producer89" title="Anonymous Submission" in="00:00:00.000" out="03:59:59.983">
    <property name="length">04:00:00:00</property>
    <property name="eof">pause</property>
    <property name="resource">#00000000</property>
    <property name="aspect_ratio">1</property>
    <property name="mlt_service">color</property>
    <property name="mlt_image_format">rgb24a</property>
    <property name="shotcut:caption">transparent</property>
    <property name="shotcut:detail">transparent</property>
    <property name="ignore_points">0</property>
    <property name="global_feed">1</property>
    <property name="xml">was here</property>
    <property name="seekable">1</property>
    <filter id="filter34" out="00:00:03.983">
      <property name="argument">I'm running out of idea
pls give me film making
advise!
my creativity is being hindered!
helep!</property>
      <property name="geometry">9 9 3840 540 1</property>
      <property name="family">Ubuntu</property>
      <property name="size">432</property>
      <property name="weight">750</property>
      <property name="style">normal</property>
      <property name="fgcolour">#ffffffff</property>
      <property name="bgcolour">#00000000</property>
      <property name="olcolour">#aa000000</property>
      <property name="pad">0</property>
      <property name="halign">center</property>
      <property name="valign">top</property>
      <property name="outline">3</property>
      <property name="mlt_service">dynamictext</property>
      <property name="shotcut:filter">dynamicText</property>
      <property name="shotcut:usePointSize">0</property>
      <property name="shotcut:pointSize">60</property>
    </filter>
  </producer>
  <playlist id="playlist2">
    <property name="shotcut:video">1</property>
    <property name="shotcut:name">V2</property>
    <blank length="00:00:04.000"/>
    <entry producer="producer87" in="00:00:00.000" out="00:00:03.983"/>
    <blank length="00:00:03.667"/>
    <entry producer="producer88" in="00:00:00.000" out="00:00:14.717"/>
    <blank length="00:00:45.033"/>
    <entry producer="producer89" in="00:00:00.000" out="00:00:03.983"/>
  </playlist>
  <producer id="producer90" title="Anonymous Submission" in="00:00:00.000" out="03:59:59.983">
    <property name="length">04:00:00:00</property>
    <property name="eof">pause</property>
    <property name="resource">#00000000</property>
    <property name="aspect_ratio">1</property>
    <property name="mlt_service">color</property>
    <property name="mlt_image_format">rgb24a</property>
    <property name="shotcut:caption">transparent</property>
    <property name="shotcut:detail">transparent</property>
    <property name="ignore_points">0</property>
    <property name="global_feed">1</property>
    <property name="xml">was here</property>
    <property name="seekable">1</property>
    <filter id="filter35" out="00:00:03.983">
      <property name="argument">Free to Use in Video
youtube.com/audiolibrary</property>
      <property name="geometry">0 1190 1170 191 1</property>
      <property name="family">Ubuntu</property>
      <property name="size">1080</property>
      <property name="weight">750</property>
      <property name="style">normal</property>
      <property name="fgcolour">#aaaa00</property>
      <property name="bgcolour">#00000000</property>
      <property name="olcolour">#aa000000</property>
      <property name="pad">0</property>
      <property name="halign">left</property>
      <property name="valign">top</property>
      <property name="outline">3</property>
      <property name="mlt_service">dynamictext</property>
      <property name="shotcut:filter">dynamicText</property>
      <property name="shotcut:usePointSize">0</property>
      <property name="shotcut:pointSize">60</property>
    </filter>
    <filter id="filter36" out="00:00:03.983">
      <property name="argument">You are free to use this in video</property>
      <property name="geometry">0 1384 1003 89 1</property>
      <property name="family">Ubuntu</property>
      <property name="size">2160</property>
      <property name="weight">500</property>
      <property name="style">normal</property>
      <property name="fgcolour">#005500</property>
      <property name="bgcolour">#00000000</property>
      <property name="olcolour">#aa000000</property>
      <property name="pad">0</property>
      <property name="halign">left</property>
      <property name="valign">middle</property>
      <property name="outline">3</property>
      <property name="mlt_service">dynamictext</property>
      <property name="shotcut:filter">dynamicText</property>
      <property name="shotcut:usePointSize">0</property>
      <property name="shotcut:animIn">00:00:00.000</property>
      <property name="shotcut:animOut">00:00:00.000</property>
    </filter>
  </producer>
  <producer id="producer91" title="Anonymous Submission" in="00:00:00.000" out="03:59:59.983">
    <property name="length">04:00:00:00</property>
    <property name="eof">pause</property>
    <property name="resource">#00000000</property>
    <property name="aspect_ratio">1</property>
    <property name="mlt_service">color</property>
    <property name="mlt_image_format">rgb24a</property>
    <property name="shotcut:caption">transparent</property>
    <property name="shotcut:detail">transparent</property>
    <property name="ignore_points">0</property>
    <property name="global_feed">1</property>
    <property name="xml">was here</property>
    <property name="seekable">1</property>
    <filter id="filter37" out="00:00:07.083">
      <property name="argument">Can it be trusted?</property>
      <property name="geometry">1448 1453 973 161 1</property>
      <property name="family">Ubuntu</property>
      <property name="size">2160</property>
      <property name="weight">750</property>
      <property name="style">normal</property>
      <property name="fgcolour">#ff0000</property>
      <property name="bgcolour">#00000000</property>
      <property name="olcolour">#aa000000</property>
      <property name="pad">0</property>
      <property name="halign">center</property>
      <property name="valign">middle</property>
      <property name="outline">3</property>
      <property name="mlt_service">dynamictext</property>
      <property name="shotcut:filter">dynamicText</property>
      <property name="shotcut:usePointSize">0</property>
      <property name="shotcut:pointSize">60</property>
    </filter>
  </producer>
  <playlist id="playlist3">
    <property name="shotcut:video">1</property>
    <property name="shotcut:name">V3</property>
    <blank length="00:00:04.000"/>
    <entry producer="producer90" in="00:00:00.000" out="00:00:03.983"/>
    <blank length="00:00:11.300"/>
    <entry producer="producer91" in="00:00:00.000" out="00:00:07.083"/>
  </playlist>
  <producer id="producer92" title="Anonymous Submission" in="00:00:00.000" out="03:59:59.983">
    <property name="length">04:00:00:00</property>
    <property name="eof">pause</property>
    <property name="resource">#00000000</property>
    <property name="aspect_ratio">1</property>
    <property name="mlt_service">color</property>
    <property name="mlt_image_format">rgb24a</property>
    <property name="shotcut:caption">transparent</property>
    <property name="shotcut:detail">transparent</property>
    <property name="ignore_points">0</property>
    <property name="global_feed">1</property>
    <property name="xml">was here</property>
    <property name="seekable">1</property>
    <filter id="filter38" out="00:00:04.633">
      <property name="argument">ADDING MORE TEXT LAGS SHOTCUT!!!</property>
      <property name="geometry">4 -2 3844 91 1</property>
      <property name="family">Ubuntu</property>
      <property name="size">2160</property>
      <property name="weight">750</property>
      <property name="style">normal</property>
      <property name="fgcolour">#ff0000</property>
      <property name="bgcolour">#00000000</property>
      <property name="olcolour">#aa000000</property>
      <property name="pad">0</property>
      <property name="halign">center</property>
      <property name="valign">top</property>
      <property name="outline">3</property>
      <property name="mlt_service">dynamictext</property>
      <property name="shotcut:filter">dynamicText</property>
      <property name="shotcut:usePointSize">0</property>
      <property name="shotcut:pointSize">60</property>
    </filter>
  </producer>
  <playlist id="playlist4">
    <property name="shotcut:video">1</property>
    <property name="shotcut:name">V4</property>
    <blank length="00:00:21.750"/>
    <entry producer="producer92" in="00:00:00.000" out="00:00:04.633"/>
  </playlist>
  <producer id="producer93" title="Anonymous Submission" in="00:00:00.000" out="03:59:59.983">
    <property name="length">04:00:00:00</property>
    <property name="eof">pause</property>
    <property name="resource">#00000000</property>
    <property name="aspect_ratio">1</property>
    <property name="mlt_service">color</property>
    <property name="mlt_image_format">rgb24a</property>
    <property name="shotcut:caption">transparent</property>
    <property name="shotcut:detail">transparent</property>
    <property name="ignore_points">0</property>
    <property name="global_feed">1</property>
    <property name="xml">was here</property>
    <property name="seekable">1</property>
    <filter id="filter39" out="00:00:03.983">
      <property name="argument">WARNING! FLASHING OBJECTS
INCOMING!
EPILEPSY ALERT!</property>
      <property name="geometry">0 1620 3840 540 1</property>
      <property name="family">Ubuntu</property>
      <property name="size">720</property>
      <property name="weight">750</property>
      <property name="style">normal</property>
      <property name="fgcolour">#aa0000</property>
      <property name="bgcolour">#00000000</property>
      <property name="olcolour">#aa000000</property>
      <property name="pad">0</property>
      <property name="halign">center</property>
      <property name="valign">bottom</property>
      <property name="outline">3</property>
      <property name="mlt_service">dynamictext</property>
      <property name="shotcut:filter">dynamicText</property>
      <property name="shotcut:usePointSize">0</property>
      <property name="shotcut:pointSize">60</property>
    </filter>
  </producer>
  <producer id="producer94" title="Anonymous Submission" in="00:00:00.000" out="03:59:59.983">
    <property name="length">04:00:00:00</property>
    <property name="eof">pause</property>
    <property name="resource">#00000000</property>
    <property name="aspect_ratio">1</property>
    <property name="mlt_service">color</property>
    <property name="mlt_image_format">rgb24a</property>
    <property name="shotcut:caption">transparent</property>
    <property name="shotcut:detail">transparent</property>
    <property name="ignore_points">0</property>
    <property name="global_feed">1</property>
    <property name="xml">was here</property>
    <property name="seekable">1</property>
    <filter id="filter40" out="00:00:01.900">
      <property name="argument">Lets find out!</property>
      <property name="geometry">1023 1620 1843 299 1</property>
      <property name="family">Ubuntu</property>
      <property name="size">2160</property>
      <property name="weight">750</property>
      <property name="style">normal</property>
      <property name="fgcolour">#00ff00</property>
      <property name="bgcolour">#00000000</property>
      <property name="olcolour">#aa000000</property>
      <property name="pad">0</property>
      <property name="halign">center</property>
      <property name="valign">middle</property>
      <property name="outline">3</property>
      <property name="mlt_service">dynamictext</property>
      <property name="shotcut:filter">dynamicText</property>
      <property name="shotcut:usePointSize">0</property>
      <property name="shotcut:pointSize">60</property>
    </filter>
  </producer>
  <playlist id="playlist5">
    <property name="shotcut:video">1</property>
    <property name="shotcut:name">V5</property>
    <entry producer="producer93" in="00:00:00.000" out="00:00:03.983"/>
    <blank length="00:00:20.483"/>
    <entry producer="producer94" in="00:00:00.000" out="00:00:01.900"/>
  </playlist>
  <tractor id="tractor0" title="Shotcut version 19.06.15" global_feed="1" in="00:00:00.000" out="00:01:22.400">
    <property name="shotcut">1</property>
    <property name="shotcut:projectAudioChannels">2</property>
    <property name="shotcut:projectFolder">1</property>
    <property name="shotcut:scaleFactor">1.01</property>
    <property name="shotcut:trackHeight">30</property>
    <track producer="background"/>
    <track producer="playlist0"/>
    <track producer="playlist1" hide="video"/>
    <track producer="playlist2"/>
    <track producer="playlist3"/>
    <track producer="playlist4"/>
    <track producer="playlist5"/>
    <transition id="transition0">
      <property name="a_track">0</property>
      <property name="b_track">1</property>
      <property name="mlt_service">mix</property>
      <property name="always_active">1</property>
      <property name="sum">1</property>
    </transition>
    <transition id="transition1">
      <property name="a_track">0</property>
      <property name="b_track">1</property>
      <property name="version">0.9</property>
      <property name="mlt_service">frei0r.cairoblend</property>
      <property name="disable">1</property>
    </transition>
    <transition id="transition2">
      <property name="a_track">0</property>
      <property name="b_track">2</property>
      <property name="mlt_service">mix</property>
      <property name="always_active">1</property>
      <property name="sum">1</property>
    </transition>
    <transition id="transition3">
      <property name="a_track">0</property>
      <property name="b_track">3</property>
      <property name="mlt_service">mix</property>
      <property name="always_active">1</property>
      <property name="sum">1</property>
    </transition>
    <transition id="transition4">
      <property name="a_track">1</property>
      <property name="b_track">3</property>
      <property name="version">0.9</property>
      <property name="mlt_service">frei0r.cairoblend</property>
      <property name="disable">0</property>
    </transition>
    <transition id="transition5">
      <property name="a_track">0</property>
      <property name="b_track">4</property>
      <property name="mlt_service">mix</property>
      <property name="always_active">1</property>
      <property name="sum">1</property>
    </transition>
    <transition id="transition6">
      <property name="a_track">1</property>
      <property name="b_track">4</property>
      <property name="version">0.9</property>
      <property name="mlt_service">frei0r.cairoblend</property>
      <property name="disable">0</property>
    </transition>
    <transition id="transition7">
      <property name="a_track">0</property>
      <property name="b_track">5</property>
      <property name="mlt_service">mix</property>
      <property name="always_active">1</property>
      <property name="sum">1</property>
    </transition>
    <transition id="transition8">
      <property name="a_track">1</property>
      <property name="b_track">5</property>
      <property name="version">0.9</property>
      <property name="mlt_service">frei0r.cairoblend</property>
      <property name="disable">0</property>
    </transition>
    <transition id="transition9">
      <property name="a_track">0</property>
      <property name="b_track">6</property>
      <property name="mlt_service">mix</property>
      <property name="always_active">1</property>
      <property name="sum">1</property>
    </transition>
    <transition id="transition10">
      <property name="a_track">1</property>
      <property name="b_track">6</property>
      <property name="version">0.9</property>
      <property name="mlt_service">frei0r.cairoblend</property>
      <property name="disable">0</property>
    </transition>
  </tractor>
</mlt>
