<?xml version="1.0" encoding="UTF-8" standalone="no"?>
<svg
   xmlns:dc="http://purl.org/dc/elements/1.1/"
   xmlns:cc="http://creativecommons.org/ns#"
   xmlns:rdf="http://www.w3.org/1999/02/22-rdf-syntax-ns#"
   xmlns:svg="http://www.w3.org/2000/svg"
   xmlns="http://www.w3.org/2000/svg"
   xmlns:xlink="http://www.w3.org/1999/xlink"
   xmlns:sodipodi="http://sodipodi.sourceforge.net/DTD/sodipodi-0.dtd"
   xmlns:inkscape="http://www.inkscape.org/namespaces/inkscape"
   inkscape:export-ydpi="96"
   inkscape:export-xdpi="96"
   inkscape:export-filename="C:\Users\joelr\Documents\starring codes\Godot Projects\HexagonEngine\Inkscape\PostingImage\JustAGolfImage.png"
   sodipodi:docname="JustAGolfImage.svg"
   inkscape:version="1.0 (4035a4fb49, 2020-05-01)"
   id="svg8"
   version="1.1"
   viewBox="0 0 1920.0001 1080"
   height="1080"
   width="1920">
  <defs
     id="defs2">
    <linearGradient
       id="linearGradient850"
       inkscape:collect="always">
      <stop
         id="stop846"
         offset="0"
         style="stop-color:#a2ffff;stop-opacity:1;" />
      <stop
         id="stop848"
         offset="1"
         style="stop-color:#ffffff;stop-opacity:1" />
    </linearGradient>
    <linearGradient
       gradientTransform="matrix(0.7499344,0,0,0.7499344,-0.04725652,-0.04725652)"
       gradientUnits="userSpaceOnUse"
       y2="1440"
       x2="1240"
       y1="0"
       x1="1240"
       id="linearGradient852"
       xlink:href="#linearGradient850"
       inkscape:collect="always" />
  </defs>
  <sodipodi:namedview
     inkscape:snap-bbox-midpoints="true"
     inkscape:snap-bbox-edge-midpoints="true"
     inkscape:bbox-nodes="true"
     inkscape:bbox-paths="true"
     inkscape:snap-bbox="true"
     inkscape:window-maximized="1"
     inkscape:window-y="-9"
     inkscape:window-x="-9"
     inkscape:window-height="1051"
     inkscape:window-width="1920"
     units="px"
     showgrid="true"
     inkscape:document-rotation="0"
     inkscape:current-layer="layer1"
     inkscape:document-units="px"
     inkscape:cy="504.42918"
     inkscape:cx="928.26286"
     inkscape:zoom="0.35"
     inkscape:pageshadow="2"
     inkscape:pageopacity="0.0"
     borderopacity="1.0"
     bordercolor="#666666"
     pagecolor="#ffffff"
     id="base">
    <inkscape:grid
       id="grid842"
       type="xygrid" />
  </sodipodi:namedview>
  <metadata
     id="metadata5">
    <rdf:RDF>
      <cc:Work
         rdf:about="">
        <dc:format>image/svg+xml</dc:format>
        <dc:type
           rdf:resource="http://purl.org/dc/dcmitype/StillImage" />
        <dc:title></dc:title>
        <cc:license
           rdf:resource="http://creativecommons.org/licenses/by-sa/4.0/" />
      </cc:Work>
      <cc:License
         rdf:about="http://creativecommons.org/licenses/by-sa/4.0/">
        <cc:permits
           rdf:resource="http://creativecommons.org/ns#Reproduction" />
        <cc:permits
           rdf:resource="http://creativecommons.org/ns#Distribution" />
        <cc:requires
           rdf:resource="http://creativecommons.org/ns#Notice" />
        <cc:requires
           rdf:resource="http://creativecommons.org/ns#Attribution" />
        <cc:permits
           rdf:resource="http://creativecommons.org/ns#DerivativeWorks" />
        <cc:requires
           rdf:resource="http://creativecommons.org/ns#ShareAlike" />
      </cc:License>
    </rdf:RDF>
  </metadata>
  <g
     id="layer1"
     inkscape:groupmode="layer"
     inkscape:label="Lapis 1">
    <rect
       y="-0.047256522"
       x="-0.047256522"
       height="1079.9055"
       width="1919.832"
       id="rect844"
       style="fill:url(#linearGradient852);fill-opacity:1;stroke:#ffffff;stroke-width:0.28344;stroke-linecap:round;stroke-linejoin:round;stroke-dashoffset:9.44882" />
    <rect
       y="809.8819"
       x="-0.047256522"
       height="269.97638"
       width="1919.832"
       id="rect854"
       style="fill:#00ff00;fill-opacity:1;stroke:#ffffff;stroke-width:0.28344;stroke-linecap:round;stroke-linejoin:round;stroke-dashoffset:9.44882" />
    <circle
       r="239.979"
       cy="719.88977"
       cx="959.86877"
       id="path856"
       style="fill:#ffffff;fill-opacity:1;stroke:#000000;stroke-width:7.49934;stroke-linecap:round;stroke-linejoin:round;stroke-miterlimit:4;stroke-dasharray:none;stroke-dashoffset:9.44882;stroke-opacity:1" />
    <text
       id="text860"
       y="296.26801"
       x="957.28412"
       style="font-weight:bold;font-size:333.315px;line-height:1.25;font-family:ubuntu;-inkscape-font-specification:'ubuntu Bold';text-align:center;letter-spacing:0px;word-spacing:0px;text-anchor:middle;stroke-width:3.47204"
       xml:space="preserve"><tspan
         style="stroke-width:3.47204"
         y="296.26801"
         x="957.28412"
         id="tspan858"
         sodipodi:role="line">GOLF</tspan></text>
    <text
       id="text864"
       y="389.91864"
       x="959.86877"
       style="font-weight:bold;font-size:71.9937px;line-height:1.25;font-family:ubuntu;-inkscape-font-specification:'ubuntu Bold';text-align:center;letter-spacing:0px;word-spacing:0px;text-anchor:middle;stroke-width:0.749934"
       xml:space="preserve"><tspan
         style="stroke-width:0.749934"
         y="389.91864"
         x="959.86877"
         id="tspan862"
         sodipodi:role="line">MINI GOLF PROTOTYPE</tspan></text>
    <g
       transform="matrix(0.7499344,0,0,0.7499344,-0.04725652,-0.04725652)"
       style="fill:none;stroke:#0000ff;stroke-width:10;stroke-miterlimit:4;stroke-dasharray:none;stroke-opacity:1"
       id="g890">
      <path
         style="fill:none;stroke:#0000ff;stroke-width:10;stroke-linecap:butt;stroke-linejoin:miter;stroke-miterlimit:4;stroke-dasharray:none;stroke-opacity:1"
         d="m 80,240 c 2.857143,-6.66667 3.795217,-14.54147 8.571429,-20 6.381832,-7.29352 13.190651,-0.1334 20.000001,-2.85714 2.50107,-1.00043 3.40442,-4.32837 5.71428,-5.71429 5.43919,-3.26351 36.60201,-6.79598 40,0 1.21612,2.43222 2.0725,97.4243 0,105.71429 -0.5165,2.066 -4.7619,0.95238 -5.71428,2.85714 -8.99249,17.98498 -12.06677,14.28571 -31.42857,14.28571 -17.7739,0 -19.314909,4.191 2.85714,-14.28571"
         id="path866" />
      <path
         style="fill:none;stroke:#0000ff;stroke-width:10;stroke-linecap:butt;stroke-linejoin:miter;stroke-miterlimit:4;stroke-dasharray:none;stroke-opacity:1"
         d="m 200,280 c 4.7619,15.2381 9.47821,30.49052 14.28571,45.71429 0.90692,2.87189 0.27464,7.02192 2.85715,8.57142 11.38164,6.82899 34.93534,-4.82706 42.85714,-11.42857 0.73164,-0.6097 -0.49,-2.04048 0,-2.85714 8.5029,-14.17149 8.25988,-12.72796 11.42857,-28.57143 0.3524,-1.762 -0.9646,-11.10704 0,-11.42857 2.71053,-0.90351 5.71429,0 8.57143,0"
         id="path868" />
      <path
         style="fill:none;stroke:#0000ff;stroke-width:10;stroke-linecap:butt;stroke-linejoin:miter;stroke-miterlimit:4;stroke-dasharray:none;stroke-opacity:1"
         d="m 360,280 c -48.34793,-22.31443 -28.75267,-28.28145 -42.85714,-5.71429 -2.52381,4.03809 -7.78858,6.73146 -8.57143,11.42858 -0.44285,2.65708 3.47296,4.22006 5.71428,5.71428 14.04634,9.36422 33.85507,-1.99585 22.85715,20 -3.72043,7.44086 -7.76893,5.31304 -14.28572,8.57143 C 297.82229,332.51743 304.5572,344.5572 280,320"
         id="path870" />
      <path
         style="fill:none;stroke:#0000ff;stroke-width:10;stroke-linecap:butt;stroke-linejoin:miter;stroke-miterlimit:4;stroke-dasharray:none;stroke-opacity:1"
         d="m 380,190 c -0.47619,-0.47619 -1.17846,-2.05384 -1.42857,-1.42857 -1.52216,3.80539 1.07042,13.56132 1.42857,17.14286 0.47442,4.74419 0.26225,9.53933 0.71429,14.28571 0.52115,5.47209 0.74677,10.97416 1.42857,16.42857 1.31985,10.55884 1.65757,6.23757 2.14285,16.42857 0.54136,11.36846 0,22.90777 0,34.28572 0,12.69275 0.92901,24.60994 2.85715,37.14285 0.0724,0.47066 -0.21296,1.00266 0,1.42858 1.46663,2.93327 6.32475,5.29129 9.28571,5.71428 1.17851,0.16836 2.40407,-0.23347 3.57143,0 1.25728,0.25146 2.30669,1.21778 3.57143,1.42857 3.05312,0.50886 6.19959,0.2374 9.28571,0 3.5534,-0.27333 6.63042,-2.14285 10,-2.14285 0.2381,0 -0.4833,0.0577 -0.71428,0 C 421.41241,330.53168 420.71429,330.2381 420,330"
         id="path878" />
      <path
         style="fill:none;stroke:#0000ff;stroke-width:10;stroke-linecap:butt;stroke-linejoin:miter;stroke-miterlimit:4;stroke-dasharray:none;stroke-opacity:1"
         d="m 390,300 c 15.98676,-12.2975 15.80603,-13.6173 31.42857,-21.42857 0.42592,-0.21296 1.76529,-0.33672 1.42857,0 C 422.10422,279.32435 420.95238,279.52381 420,280"
         id="path880" />
      <path
         style="fill:none;stroke:#0000ff;stroke-width:10;stroke-linecap:butt;stroke-linejoin:miter;stroke-miterlimit:4;stroke-dasharray:none;stroke-opacity:1"
         d="m 570,260 c -22.55734,15.03823 8.5174,-3.55616 -57.14286,-4.28571 -17.34719,-0.19275 -26.13353,31.43895 -25,44.28571 0.6468,7.33035 14.80117,13.59005 20.71429,14.28571 2.12818,0.25038 4.28571,0 6.42857,0 2.38095,0 5.05035,1.13594 7.14286,0 12.32747,-6.69205 17.81092,-12.47292 25,-22.85714 6.02049,-8.69627 9.75093,-18.80046 11.42857,-29.28571 0.37617,-2.35105 0,-4.76191 0,-7.14286 0,-0.0971 0,-3.66855 0,-3.57143 0,16.68407 0.274,-5.53854 -0.71429,9.28572 -0.77574,11.63617 0,24.23429 0,35.71428 0,3.57143 0,7.14286 0,10.71429 0,5 -1.41083,10.20317 0,15 3.65728,12.43474 5.16052,20.69312 15.71429,23.57143 4.18084,1.14023 14.5462,-1.68906 17.85714,-5 C 591.80503,340.33782 590.47619,340.2381 590,340"
         id="path882" />
    </g>
    <text
       id="text894"
       y="449.91339"
       x="959.86877"
       style="font-weight:bold;font-size:47.9958px;line-height:1.25;font-family:ubuntu;-inkscape-font-specification:'ubuntu Bold';text-align:center;letter-spacing:0px;word-spacing:0px;text-anchor:middle;fill:#ff0000;stroke-width:0.749934"
       xml:space="preserve"><tspan
         style="stroke-width:0.749934"
         y="449.91339"
         x="959.86877"
         id="tspan892"
         sodipodi:role="line">FIRST EVER IN GODOT &amp; IN 3D</tspan></text>
    <text
       id="text898"
       y="1019.8635"
       x="959.86877"
       style="font-weight:bold;font-size:47.9958px;line-height:1.25;font-family:ubuntu;-inkscape-font-specification:'ubuntu Bold';text-align:center;letter-spacing:0px;word-spacing:0px;text-anchor:middle;stroke-width:0.749934"
       xml:space="preserve"><tspan
         style="stroke-width:0.749934"
         y="1019.8635"
         x="959.86877"
         id="tspan896"
         sodipodi:role="line">Never exist before (ever in Unity, &amp; Neverball, etc. though, lol!)</tspan></text>
    <g
       transform="matrix(0.7499344,0,0,0.7499344,1376.8323,415.04143)"
       id="g1536-6-4"
       inkscape:export-xdpi="300"
       inkscape:export-ydpi="300">
      <g
         transform="translate(-128,64)"
         id="g1492-8-7">
        <path
           inkscape:connector-curvature="0"
           style="opacity:1;fill:#ffc800;fill-opacity:1;fill-rule:nonzero;stroke:none;stroke-opacity:1"
           d="m 256,208 a 64,64 0 0 0 -64,64 64,64 0 0 0 64,64 h 64 a 64,64 0 0 0 64,-64 64,64 0 0 0 -64,-64 z"
           transform="translate(0,106.5)"
           id="path1451-5-8" />
        <path
           inkscape:connector-curvature="0"
           style="opacity:1;fill:#fffe00;fill-opacity:1;fill-rule:nonzero;stroke:none;stroke-width:1.04447;stroke-opacity:1"
           d="m 288,224 a 4,4 0 0 0 -4,4 v 40 h -40 a 4,4 0 0 0 -4,4 4,4 0 0 0 4,4 h 40 v 40 a 4,4 0 0 0 4,4 4,4 0 0 0 4,-4 v -40 h 40 a 4,4 0 0 0 4,-4 4,4 0 0 0 -4,-4 h -40 v -40 a 4,4 0 0 0 -4,-4 z"
           transform="translate(0,106.5)"
           id="rect1461-3-4" />
      </g>
      <flowRoot
         transform="translate(-108.256,129.20475)"
         style="font-style:normal;font-weight:normal;font-size:40px;line-height:0;font-family:sans-serif;letter-spacing:0px;word-spacing:0px;fill:#fffff6;fill-opacity:1;stroke:#000000;stroke-opacity:1"
         id="flowRoot1482-6-4"
         xml:space="preserve"><flowRegion
           style="line-height:0;fill:#fffff6;fill-opacity:1;stroke:#000000;stroke-opacity:1"
           id="flowRegion1484-4-7"><rect
             style="line-height:0;fill:#fffff6;fill-opacity:1;stroke:#000000;stroke-opacity:1;"
             y="272"
             x="384"
             height="128"
             width="1024"
             id="rect1486-8-8" /></flowRegion><flowPara
           style="font-style:normal;font-variant:normal;font-weight:normal;font-stretch:normal;font-size:96px;line-height:1;font-family:Ubuntu;-inkscape-font-specification:Ubuntu;fill:#fffff6;fill-opacity:1;stroke:#000000;stroke-opacity:1"
           id="flowPara1488-6-3">Perkedel </flowPara></flowRoot>
    </g>
    <g
       transform="matrix(2.8343978,0,0,2.8343978,1229.8452,640.43773)"
       id="g956">
      <g
         id="g3553">
        <path
           sodipodi:type="star"
           style="opacity:1;fill:#ffff00;fill-opacity:1;fill-rule:nonzero;stroke:#000000;stroke-width:0.79375;stroke-linejoin:bevel;stroke-miterlimit:0;stroke-dasharray:none;stroke-opacity:1"
           id="path3440"
           sodipodi:sides="6"
           sodipodi:cx="33.866665"
           sodipodi:cy="76.866669"
           sodipodi:r1="16.933332"
           sodipodi:r2="14.664696"
           sodipodi:arg1="0"
           sodipodi:arg2="0.52359878"
           inkscape:flatsided="true"
           inkscape:rounded="0"
           inkscape:randomized="0"
           d="M 50.799997,76.866669 42.333331,91.531365 H 25.399999 l -8.466667,-14.664696 8.466667,-14.664696 16.933332,0 z" />
        <g
           id="g3541">
          <g
             id="g3526">
            <circle
               style="opacity:1;fill:#000000;fill-opacity:1;fill-rule:nonzero;stroke:none;stroke-width:0.79375;stroke-linejoin:bevel;stroke-miterlimit:0;stroke-dasharray:none;stroke-opacity:1"
               id="path3452"
               cx="26.458334"
               cy="71.574997"
               r="3.175" />
            <circle
               style="opacity:1;fill:#000000;fill-opacity:1;fill-rule:nonzero;stroke:none;stroke-width:0.79375;stroke-linejoin:bevel;stroke-miterlimit:0;stroke-dasharray:none;stroke-opacity:1"
               id="path3452-6"
               cx="33.866665"
               cy="71.574997"
               r="3.175" />
            <circle
               style="opacity:1;fill:#000000;fill-opacity:1;fill-rule:nonzero;stroke:none;stroke-width:0.79375;stroke-linejoin:bevel;stroke-miterlimit:0;stroke-dasharray:none;stroke-opacity:1"
               id="path3452-4"
               cx="41.275002"
               cy="71.574997"
               r="3.175" />
          </g>
          <g
             id="g3531">
            <circle
               style="opacity:1;fill:#000000;fill-opacity:1;fill-rule:nonzero;stroke:none;stroke-width:0.79375;stroke-linejoin:bevel;stroke-miterlimit:0;stroke-dasharray:none;stroke-opacity:1"
               id="path3452-9"
               cx="26.458334"
               cy="82.158333"
               r="3.175" />
            <circle
               style="opacity:1;fill:#000000;fill-opacity:1;fill-rule:nonzero;stroke:none;stroke-width:0.79375;stroke-linejoin:bevel;stroke-miterlimit:0;stroke-dasharray:none;stroke-opacity:1"
               id="path3452-69"
               cx="33.866665"
               cy="82.158333"
               r="3.175" />
            <circle
               style="opacity:1;fill:#000000;fill-opacity:1;fill-rule:nonzero;stroke:none;stroke-width:0.79375;stroke-linejoin:bevel;stroke-miterlimit:0;stroke-dasharray:none;stroke-opacity:1"
               id="path3452-60"
               cx="41.275002"
               cy="82.158333"
               r="3.175" />
          </g>
        </g>
      </g>
      <flowRoot
         transform="matrix(0.26458333,0,0,0.26458333,-0.06773267,1.3591397)"
         style="font-style:normal;font-variant:normal;font-weight:normal;font-stretch:normal;font-size:96px;line-height:1.25;font-family:Ubuntu;-inkscape-font-specification:Ubuntu;letter-spacing:0px;word-spacing:0px;fill:#000000;fill-opacity:1;stroke:none"
         id="flowRoot3493"
         xml:space="preserve"><flowRegion
           style="font-style:normal;font-variant:normal;font-weight:normal;font-stretch:normal;font-size:96px;font-family:Ubuntu;-inkscape-font-specification:Ubuntu"
           id="flowRegion3495"><rect
             style="font-style:normal;font-variant:normal;font-weight:normal;font-stretch:normal;font-size:96px;font-family:Ubuntu;-inkscape-font-specification:Ubuntu"
             y="226.51968"
             x="192"
             height="127.99999"
             width="768"
             id="rect3497" /></flowRegion><flowPara
           id="flowPara3499">Hexagon Engine</flowPara></flowRoot>
    </g>
    <path
       d="m 386.44546,716.41659 -28.83966,-1e-5 -26.01115,31.66814 -24.97587,-14.41984 -38.3604,14.41984 -14.41982,-24.97588 -40.43099,-6.69225 1e-5,-28.83966 -31.66814,-26.01115 14.41983,-24.97587 -14.41983,-38.3604 24.97588,-14.41982 6.69225,-40.43099 28.83965,10e-6 26.01116,-31.66814 24.97587,14.41983 38.36039,-14.41983 14.41982,24.97588 40.431,6.69225 -1e-5,28.83965 31.66814,26.01116 -14.41984,24.97587 14.41984,38.36039 -24.97588,14.41982 z"
       inkscape:randomized="0"
       inkscape:rounded="0"
       inkscape:flatsided="false"
       sodipodi:arg2="0.98279372"
       sodipodi:arg1="0.78539816"
       sodipodi:r2="103.98282"
       sodipodi:r1="122.35626"
       sodipodi:cy="629.89764"
       sodipodi:cx="299.92651"
       sodipodi:sides="12"
       id="path2478"
       style="fill:#ffff00;fill-opacity:1;stroke:#0000ff;stroke-width:3.60496;stroke-linecap:round;stroke-linejoin:round;stroke-miterlimit:4;stroke-dasharray:none;stroke-dashoffset:9.44882;stroke-opacity:1"
       sodipodi:type="star" />
    <text
       id="text2482"
       y="569.66846"
       x="300.41772"
       style="font-weight:bold;font-size:33.4978px;line-height:1.25;font-family:ubuntu;-inkscape-font-specification:'ubuntu Bold';text-align:center;letter-spacing:0px;word-spacing:0px;text-anchor:middle;stroke-width:0.523403"
       xml:space="preserve"><tspan
         style="stroke-width:0.523403"
         y="569.66846"
         x="300.41772"
         id="tspan2480"
         sodipodi:role="line">FIRST</tspan><tspan
         style="stroke-width:0.523403"
         id="tspan2484"
         y="611.54077"
         x="300.41772"
         sodipodi:role="line">IN THE</tspan><tspan
         style="stroke-width:0.523403"
         id="tspan2486"
         y="653.41309"
         x="300.41772"
         sodipodi:role="line">UNIVERSE</tspan></text>
    <text
       id="text2490"
       y="704.31018"
       x="300.00955"
       style="font-weight:bold;font-size:41.4901px;line-height:1.25;font-family:ubuntu;-inkscape-font-specification:'ubuntu Bold';text-align:center;letter-spacing:0px;word-spacing:0px;text-anchor:middle;fill:#0000ff;stroke-width:0.648283"
       xml:space="preserve"><tspan
         style="fill:#0000ff;stroke-width:0.648283"
         y="704.31018"
         x="300.00955"
         id="tspan2488"
         sodipodi:role="line">MADE WITH GODOT ENGINE</tspan></text>
    <ellipse
       ry="127.48885"
       rx="224.98032"
       cy="532.40619"
       cx="1634.8097"
       id="path2492"
       style="fill:#0000ff;fill-opacity:1;stroke:#0000ff;stroke-width:7.49934;stroke-linecap:round;stroke-linejoin:round;stroke-miterlimit:4;stroke-dasharray:none;stroke-dashoffset:9.44882;stroke-opacity:1" />
    <text
       id="text2496"
       y="488.60333"
       x="1635.4297"
       style="font-weight:bold;font-size:27.5764px;line-height:1.25;font-family:ubuntu;-inkscape-font-specification:'ubuntu Bold';text-align:center;letter-spacing:0px;word-spacing:0px;text-anchor:middle;fill:#ffffff;stroke-width:0.430882"
       xml:space="preserve"><tspan
         style="fill:#ffffff;stroke-width:0.430882"
         y="488.60333"
         x="1635.4297"
         id="tspan2494"
         sodipodi:role="line">ONE OF THE FEW</tspan><tspan
         style="fill:#ffffff;stroke-width:0.430882"
         id="tspan2498"
         y="523.07385"
         x="1635.4297"
         sodipodi:role="line">$0 (FREE)(0 Kvz)</tspan><tspan
         style="fill:#ffffff;stroke-width:0.430882"
         id="tspan2500"
         y="557.54431"
         x="1635.4297"
         sodipodi:role="line">OPEN SOURCE</tspan><tspan
         style="fill:#ffffff;stroke-width:0.430882"
         id="tspan2502"
         y="592.01483"
         x="1635.4297"
         sodipodi:role="line">NO PAYWALLED CONTENT</tspan></text>
    <text
       id="text2506"
       y="426.48746"
       x="1635.1609"
       style="font-weight:bold;font-size:30.4233px;line-height:1.25;font-family:ubuntu;-inkscape-font-specification:'ubuntu Bold';text-align:center;letter-spacing:0px;word-spacing:0px;text-anchor:middle;fill:#ff00ff;stroke-width:0.475363"
       xml:space="preserve"><tspan
         style="stroke-width:0.475363"
         y="426.48746"
         x="1635.1609"
         id="tspan2504"
         sodipodi:role="line">DASANDIM-KINDNESS CERTIFIED</tspan><tspan
         style="stroke-width:0.475363"
         id="tspan2508"
         y="464.51657"
         x="1635.1609"
         sodipodi:role="line">AWARD WINNING</tspan></text>
    <text
       id="text2512"
       y="1058.4514"
       x="1169.8881"
       style="font-weight:bold;font-size:34.6389px;line-height:1.25;font-family:ubuntu;-inkscape-font-specification:'ubuntu Bold';text-align:center;letter-spacing:0px;word-spacing:0px;text-anchor:middle;fill:#1a1a1a;stroke-width:0.541234"
       xml:space="preserve"><tspan
         style="fill:#1a1a1a;stroke-width:0.541234"
         y="1058.4514"
         x="1169.8881"
         id="tspan2510"
         sodipodi:role="line">as neverputt</tspan></text>
  </g>
</svg>
