<?xml version="1.0" encoding="UTF-8" standalone="no"?>
<!-- Created with Inkscape (http://www.inkscape.org/) -->

<svg
   xmlns:dc="http://purl.org/dc/elements/1.1/"
   xmlns:cc="http://creativecommons.org/ns#"
   xmlns:rdf="http://www.w3.org/1999/02/22-rdf-syntax-ns#"
   xmlns:svg="http://www.w3.org/2000/svg"
   xmlns="http://www.w3.org/2000/svg"
   xmlns:sodipodi="http://sodipodi.sourceforge.net/DTD/sodipodi-0.dtd"
   xmlns:inkscape="http://www.inkscape.org/namespaces/inkscape"
   width="1920"
   height="1080"
   viewBox="0 0 1920 1080"
   version="1.1"
   id="svg8"
   inkscape:version="0.92.4 (5da689c313, 2019-01-14)"
   sodipodi:docname="WhyDoIHaveToBeNotMySelfToPitchForBusiness_Grammarly.svg"
   inkscape:export-filename="C:\Users\ASUS\Documents\starring codes\Godot Projects\HexagonEngine\Inkscape\PostingImage\WhyDoIHaveToBeNotMySelfToPitchForBusiness_Grammarly.png"
   inkscape:export-xdpi="96"
   inkscape:export-ydpi="96">
  <defs
     id="defs2" />
  <sodipodi:namedview
     id="base"
     pagecolor="#ffffff"
     bordercolor="#666666"
     borderopacity="1.0"
     inkscape:pageopacity="0.0"
     inkscape:pageshadow="2"
     inkscape:zoom="0.49497475"
     inkscape:cx="1057.162"
     inkscape:cy="668.51514"
     inkscape:document-units="px"
     inkscape:current-layer="layer1"
     showgrid="true"
     units="px"
     inkscape:window-width="1920"
     inkscape:window-height="1051"
     inkscape:window-x="-9"
     inkscape:window-y="-9"
     inkscape:window-maximized="1"
     inkscape:snap-bbox="true"
     inkscape:bbox-paths="true"
     inkscape:bbox-nodes="true"
     inkscape:snap-bbox-edge-midpoints="true"
     inkscape:snap-bbox-midpoints="true">
    <inkscape:grid
       type="xygrid"
       id="grid4747" />
  </sodipodi:namedview>
  <metadata
     id="metadata5">
    <rdf:RDF>
      <cc:Work
         rdf:about="">
        <dc:format>image/svg+xml</dc:format>
        <dc:type
           rdf:resource="http://purl.org/dc/dcmitype/StillImage" />
        <dc:title></dc:title>
        <cc:license
           rdf:resource="http://creativecommons.org/licenses/by-sa/4.0/" />
      </cc:Work>
      <cc:License
         rdf:about="http://creativecommons.org/licenses/by-sa/4.0/">
        <cc:permits
           rdf:resource="http://creativecommons.org/ns#Reproduction" />
        <cc:permits
           rdf:resource="http://creativecommons.org/ns#Distribution" />
        <cc:requires
           rdf:resource="http://creativecommons.org/ns#Notice" />
        <cc:requires
           rdf:resource="http://creativecommons.org/ns#Attribution" />
        <cc:permits
           rdf:resource="http://creativecommons.org/ns#DerivativeWorks" />
        <cc:requires
           rdf:resource="http://creativecommons.org/ns#ShareAlike" />
      </cc:License>
    </rdf:RDF>
  </metadata>
  <g
     inkscape:label="Layer 1"
     inkscape:groupmode="layer"
     id="layer1"
     transform="translate(0,-11.250004)">
    <rect
       style="opacity:1;fill:#ffffff;fill-opacity:1;fill-rule:nonzero;stroke:#5b0039;stroke-width:0.05;stroke-linecap:round;stroke-linejoin:round;stroke-miterlimit:4;stroke-dasharray:none;stroke-dashoffset:25;stroke-opacity:1"
       id="rect4749"
       width="1920"
       height="1080"
       x="0"
       y="11.250004"
       ry="1.8530272e-07" />
    <text
       xml:space="preserve"
       style="font-style:normal;font-variant:normal;font-weight:normal;font-stretch:normal;font-size:192px;line-height:1.25;font-family:Ubuntu;-inkscape-font-specification:Ubuntu;text-align:center;letter-spacing:0px;word-spacing:0px;text-anchor:middle;fill:#000000;fill-opacity:1;stroke:none"
       x="959.6535"
       y="307.98599"
       id="text4753"><tspan
         sodipodi:role="line"
         id="tspan4751"
         x="959.6535"
         y="307.98599">Why do I have to be</tspan><tspan
         sodipodi:role="line"
         x="959.6535"
         y="547.98596"
         id="tspan4755">!myself</tspan><tspan
         sodipodi:role="line"
         x="959.6535"
         y="787.98596"
         id="tspan4757">to pitch for business?!</tspan></text>
    <text
       xml:space="preserve"
       style="font-style:normal;font-variant:normal;font-weight:normal;font-stretch:normal;font-size:32px;line-height:1.25;font-family:Ubuntu;-inkscape-font-specification:Ubuntu;text-align:center;letter-spacing:0px;word-spacing:0px;text-anchor:middle;fill:#000000;fill-opacity:1;stroke:none"
       x="980"
       y="891.25"
       id="text4761"><tspan
         sodipodi:role="line"
         id="tspan4759"
         x="980"
         y="891.25">Because investors expect that you speak fluently and correctly like a robot a.k.a. &quot;<tspan
   style="font-style:italic;font-variant:normal;font-weight:normal;font-stretch:normal;font-family:Ubuntu;-inkscape-font-specification:'Ubuntu Italic'"
   id="tspan4763">Professional speaking skill</tspan>&quot;! lol!!!</tspan></text>
    <g
       id="g4781"
       transform="translate(-6.8173561,-204.09132)">
      <path
         inkscape:connector-curvature="0"
         d="m 321.9864,1118.414 c -2.70343,0.481 -5.3263,1.2848 -7.94369,2.1028 -3.07219,1.127 -6.24942,1.9203 -9.35652,2.9361 -0.26842,0.088 -5.32375,1.8563 -5.47176,1.9081 -7.26901,2.5255 -14.44108,5.3397 -21.54131,8.3052 -5.02184,2.2102 -10.15183,4.2347 -14.95078,6.9167 -0.75199,0.4203 -1.47833,0.8849 -2.2175,1.3274 21.11018,-12.1749 12.00266,-7.1895 7.67251,-3.9755 -1.57861,1.1717 -3.02448,2.4585 -4.45276,3.8051 -1.55458,1.5413 -2.98526,3.2229 -4.06836,5.134 -0.55031,0.971 -0.71154,1.4404 -1.13618,2.4574 -0.74196,1.9358 -1.2868,3.9757 -1.37756,6.0573 -0.056,1.2855 0.0807,2.405 0.18842,3.6849 0.33547,3.5743 0.92632,7.1325 1.82459,10.6089 0.90239,3.059 2.65845,5.7439 4.70397,8.1546 1.60192,1.9352 3.526,3.5234 5.70044,4.7782 0.71262,0.4112 1.45308,0.7722 2.17962,1.1583 4.0301,1.925 8.33755,3.2435 12.70994,4.1299 2.85592,0.579 4.07666,0.6813 6.93966,1.0442 2.85526,0.2826 5.72599,0.4822 8.59665,0.4993 1.11515,0.01 2.87479,-0.034 4.01684,-0.1917 0.53759,-0.074 1.06366,-0.216 1.59549,-0.324 0.49272,-0.1837 0.99575,-0.3419 1.47816,-0.5513 0.53066,-0.2303 1.03273,-0.522 1.55725,-0.766 0.60928,-0.2834 1.23373,-0.5333 1.84347,-0.8157 2.50289,-1.1593 4.98658,-2.3677 7.47497,-3.5579 2.92744,-1.2571 5.81661,-2.615 8.77718,-3.7947 2.27051,-0.9048 4.59553,-1.6902 6.90901,-2.4765 4.9458,-1.6727 10.20951,-1.4877 15.35929,-1.4877 6.89008,0.023 13.7429,0.7712 20.54876,1.7842 1.40945,0.3779 3.22,0.4074 4.26974,1.6109 1.08887,1.2483 1.0775,2.8313 1.13375,4.3679 -0.42015,5.5089 -2.96363,10.4908 -5.50083,15.2918 -0.77634,1.1738 -1.472,2.4052 -2.32902,3.5216 -4.46512,5.816 -10.22289,10.5017 -15.88255,15.0819 -9.96746,8.0665 -10.13992,7.9599 -21.10007,15.9278 -4.44477,2.9941 -8.84334,6.0579 -13.33429,8.9822 -10.2001,6.6419 -18.26628,11.4483 -28.71242,17.6677 -13.40378,7.9803 -26.92389,15.7604 -40.47156,23.493 0,0 8.28674,-6.6855 8.28674,-6.6855 v 0 c 2.73266,-1.4565 5.46009,-2.9228 8.19798,-4.3695 1.43338,-0.7573 2.90299,-1.4471 4.31569,-2.2424 4.57955,-2.578 9.12888,-5.2099 13.65793,-7.8757 13.73961,-8.0868 27.34697,-16.4401 40.22689,-25.8576 10.00141,-7.6541 9.46952,-6.9513 18.27091,-14.7087 4.69532,-4.1383 9.52697,-8.4341 13.20622,-13.5501 0.74307,-1.0333 1.34394,-2.1617 2.01592,-3.2425 0.51239,-0.9778 1.06052,-1.9377 1.53718,-2.9334 1.66469,-3.4775 2.9563,-7.2493 3.23267,-11.1111 -0.029,-0.9676 0.0358,-2.1537 -0.68026,-2.9421 -0.79071,-0.8706 -2.18855,-1.0385 -3.19573,-1.4666 -1.85314,-0.476 -2.80986,-0.7555 -4.77088,-1.0973 -4.91354,-0.8564 -9.91913,-1.0144 -14.89595,-0.8954 -3.26539,0.1802 -6.54309,0.3069 -9.77204,0.8705 -1.51289,0.2641 -2.86739,0.6309 -4.33607,1.0436 -0.58541,0.1645 -1.16712,0.3418 -1.75067,0.5127 -5.13028,1.6757 -10.16794,3.6116 -15.01543,5.9981 -0.97952,0.4813 -1.95904,0.9626 -2.93856,1.444 -0.91946,0.4563 -1.8373,0.9158 -2.75837,1.3689 -1.97998,0.9739 -4.01482,2.0943 -6.13495,2.7482 -0.52698,0.1626 -1.07682,0.2387 -1.61522,0.3581 -0.54054,0.042 -1.07962,0.1124 -1.62161,0.1258 -0.94419,0.024 -2.87144,-0.1052 -3.75142,-0.1777 -2.73334,-0.2252 -5.45305,-0.5898 -8.16981,-0.9585 -6.91541,-1.1312 -13.80182,-2.6233 -20.31998,-5.259 -0.85419,-0.3554 -1.72297,-0.6776 -2.56257,-1.0662 -2.52115,-1.167 -4.69756,-2.8226 -6.28397,-5.1191 -1.65244,-2.1976 -3.42427,-4.6846 -4.49835,-7.2262 -0.21138,-0.5001 -0.35066,-1.0278 -0.52599,-1.5417 -0.8682,-3.5857 -1.2184,-7.2635 -1.73631,-10.9114 -0.43412,-3.4995 -0.65756,-6.8923 0.5247,-10.2871 0.39407,-1.0158 0.65242,-1.7529 1.14939,-2.7336 1.05223,-2.0765 2.48353,-3.9479 4.10247,-5.6118 1.22169,-1.2214 1.55825,-1.6046 2.88521,-2.7385 6.19042,-5.2896 13.83806,-8.7037 20.67084,-12.9228 0.73055,-0.4012 1.45176,-0.8198 2.19165,-1.2034 4.67301,-2.423 9.619,-4.2692 14.44233,-6.3587 7.29418,-2.9295 14.61082,-5.8078 21.97507,-8.5566 5.07994,-1.841 10.23972,-3.4319 15.35074,-5.1827 1.79321,-0.5785 2.23027,-0.7276 4.00219,-1.2684 1.60104,-0.4887 3.25171,-0.8866 4.74513,-1.6653 0,0 -13.28626,10.5003 -13.28626,10.5003 z"
         id="path4771"
         style="opacity:1;fill:#000000;fill-opacity:1;fill-rule:nonzero;stroke:#5b0039;stroke-width:0.05;stroke-linecap:round;stroke-linejoin:round;stroke-miterlimit:4;stroke-dasharray:none;stroke-dashoffset:25;stroke-opacity:1" />
      <g
         transform="matrix(0.54543386,0,0,0.54543386,166.82532,592.86607)"
         id="g4775">
        <circle
           style="opacity:1;fill:#00ff00;fill-opacity:1;fill-rule:nonzero;stroke:#5b0039;stroke-width:0.05;stroke-linecap:round;stroke-linejoin:round;stroke-miterlimit:4;stroke-dasharray:none;stroke-dashoffset:25;stroke-opacity:1"
           id="path4765"
           cx="345"
           cy="1216.25"
           r="55" />
        <path
           style="fill:#00ffff;fill-opacity:1;stroke:#000000;stroke-width:1px;stroke-linecap:butt;stroke-linejoin:miter;stroke-opacity:1"
           d="m 310,1221.25 -10,10 25,25 60,-60 -10,-10 -50,50 z"
           id="path4767"
           inkscape:connector-curvature="0"
           sodipodi:nodetypes="ccccccc" />
      </g>
    </g>
    <text
       xml:space="preserve"
       style="font-style:normal;font-variant:normal;font-weight:normal;font-stretch:normal;font-size:96px;line-height:1.25;font-family:Ubuntu;-inkscape-font-specification:Ubuntu;text-align:start;letter-spacing:0px;word-spacing:0px;text-anchor:start;fill:#000000;fill-opacity:1;stroke:none"
       x="432.88599"
       y="1027.778"
       id="text4785"><tspan
         sodipodi:role="line"
         id="tspan4783"
         x="432.88599"
         y="1027.778">SPEAK-korrect</tspan></text>
    <text
       xml:space="preserve"
       style="font-style:normal;font-variant:normal;font-weight:normal;font-stretch:normal;font-size:32px;line-height:1.25;font-family:Ubuntu;-inkscape-font-specification:Ubuntu;text-align:start;letter-spacing:0px;word-spacing:0px;text-anchor:start;fill:#000000;fill-opacity:1;stroke:none"
       x="1146.9709"
       y="1010.658"
       id="text4789"><tspan
         sodipodi:role="line"
         id="tspan4787"
         x="1146.9709"
         y="1010.658">Speak Professionally</tspan></text>
    <rect
       style="opacity:1;fill:#000000;fill-opacity:1;fill-rule:nonzero;stroke:#5b0039;stroke-width:0.05;stroke-linecap:round;stroke-linejoin:round;stroke-miterlimit:4;stroke-dasharray:none;stroke-dashoffset:25;stroke-opacity:1"
       id="rect4791"
       width="10"
       height="130"
       x="1098.027"
       y="931.25006"
       ry="1.8530299e-07" />
    <text
       xml:space="preserve"
       style="font-style:normal;font-variant:normal;font-weight:normal;font-stretch:normal;font-size:96px;line-height:1.25;font-family:Ubuntu;-inkscape-font-specification:Ubuntu;text-align:start;letter-spacing:0px;word-spacing:0px;text-anchor:start;fill:#000000;fill-opacity:1;stroke:none"
       x="1390"
       y="471.25"
       id="text4795"><tspan
         sodipodi:role="line"
         id="tspan4793"
         x="1390"
         y="471.25"
         style="fill:#ff0000;fill-opacity:1">Maybe</tspan></text>
    <rect
       style="opacity:1;fill:#00ff00;fill-opacity:1;fill-rule:nonzero;stroke:#5b0039;stroke-width:0.05;stroke-linecap:round;stroke-linejoin:round;stroke-miterlimit:4;stroke-dasharray:none;stroke-dashoffset:25;stroke-opacity:1"
       id="rect4801"
       width="370"
       height="110"
       x="1380"
       y="511.25"
       ry="1.8530299e-07" />
    <text
       xml:space="preserve"
       style="font-style:normal;font-variant:normal;font-weight:normal;font-stretch:normal;font-size:96px;line-height:1.25;font-family:Ubuntu;-inkscape-font-specification:Ubuntu;text-align:start;letter-spacing:0px;word-spacing:0px;text-anchor:start;fill:#ffffff;fill-opacity:1;stroke:none;"
       x="1390"
       y="591.25"
       id="text4799"><tspan
         sodipodi:role="line"
         id="tspan4797"
         x="1390"
         y="591.25">Perhaps</tspan></text>
    <rect
       style="opacity:1;fill:#ff0000;fill-opacity:1;fill-rule:nonzero;stroke:#5b0039;stroke-width:0.05;stroke-linecap:round;stroke-linejoin:round;stroke-miterlimit:4;stroke-dasharray:none;stroke-dashoffset:25;stroke-opacity:1"
       id="rect4803"
       width="340"
       height="10"
       x="1380"
       y="441.25"
       ry="1.8530299e-07" />
    <text
       xml:space="preserve"
       style="font-style:normal;font-variant:normal;font-weight:normal;font-stretch:normal;font-size:32px;line-height:1.25;font-family:Ubuntu;-inkscape-font-specification:Ubuntu;text-align:start;letter-spacing:0px;word-spacing:0px;text-anchor:start;fill:#000000;fill-opacity:1;stroke:none"
       x="1545"
       y="966.25"
       id="text4807"><tspan
         sodipodi:role="line"
         id="tspan4805"
         x="1545"
         y="1025.9294" /></text>
    <text
       xml:space="preserve"
       style="font-style:normal;font-variant:normal;font-weight:normal;font-stretch:normal;font-size:20.34982109px;line-height:1.25;font-family:Ubuntu;-inkscape-font-specification:Ubuntu;text-align:start;letter-spacing:0px;word-spacing:0px;text-anchor:start;fill:#000000;fill-opacity:1;stroke:none;stroke-width:0.63593191"
       x="1469.6338"
       y="959.0769"
       id="text4811"><tspan
         sodipodi:role="line"
         id="tspan4809"
         x="1469.6338"
         y="959.0769"
         style="stroke-width:0.63593191">it sounds like those investors enjoy</tspan><tspan
         sodipodi:role="line"
         x="1469.6338"
         y="984.51416"
         id="tspan4813"
         style="stroke-width:0.63593191">professional voices,</tspan><tspan
         sodipodi:role="line"
         x="1469.6338"
         y="1009.9515"
         id="tspan4815"
         style="stroke-width:0.63593191">which they presumed those startup-people as</tspan><tspan
         sodipodi:role="line"
         x="1469.6338"
         y="1035.3888"
         id="tspan4817"
         style="stroke-width:0.63593191">&quot;sounds like I could trust you.&quot;...</tspan></text>
    <g
       id="g1492-8-9"
       transform="matrix(0.375,0,0,0.375,16,353.3125)"
       inkscape:export-xdpi="300"
       inkscape:export-ydpi="300">
      <path
         id="path1451-5-4"
         transform="translate(0,106.5)"
         d="m 256,208 a 64,64 0 0 0 -64,64 64,64 0 0 0 64,64 h 64 a 64,64 0 0 0 64,-64 64,64 0 0 0 -64,-64 z"
         style="opacity:1;fill:#ffc800;fill-opacity:1;fill-rule:nonzero;stroke:none;stroke-opacity:1"
         inkscape:connector-curvature="0" />
      <path
         id="rect1461-3-1"
         transform="translate(0,106.5)"
         d="m 288,224 a 4,4 0 0 0 -4,4 v 40 h -40 a 4,4 0 0 0 -4,4 4,4 0 0 0 4,4 h 40 v 40 a 4,4 0 0 0 4,4 4,4 0 0 0 4,-4 v -40 h 40 a 4,4 0 0 0 4,-4 4,4 0 0 0 -4,-4 h -40 v -40 a 4,4 0 0 0 -4,-4 z"
         style="opacity:1;fill:#fffe00;fill-opacity:1;fill-rule:nonzero;stroke:none;stroke-width:1.0444659;stroke-opacity:1"
         inkscape:connector-curvature="0" />
    </g>
    <text
       xml:space="preserve"
       style="font-style:normal;font-variant:normal;font-weight:normal;font-stretch:normal;font-size:32px;line-height:1.25;font-family:Ubuntu;-inkscape-font-specification:Ubuntu;text-align:start;letter-spacing:0px;word-spacing:0px;text-anchor:start;fill:#000000;fill-opacity:1;stroke:none"
       x="188.144"
       y="468.42599"
       id="text9383"><tspan
         sodipodi:role="line"
         id="tspan9381"
         x="188.144"
         y="468.42599">by JOELwindows7</tspan><tspan
         sodipodi:role="line"
         x="188.144"
         y="508.42599"
         id="tspan9385">Perkedel Technologies</tspan><tspan
         sodipodi:role="line"
         x="188.144"
         y="548.42603"
         id="tspan9387">CC4.0-BY-SA</tspan></text>
    <text
       xml:space="preserve"
       style="font-style:normal;font-variant:normal;font-weight:normal;font-stretch:normal;font-size:19.70576668px;line-height:1.25;font-family:Ubuntu;-inkscape-font-specification:Ubuntu;text-align:start;letter-spacing:0px;word-spacing:0px;text-anchor:start;fill:#000000;fill-opacity:1;stroke:none;stroke-width:0.61580521"
       x="199.74323"
       y="571.54169"
       id="text9391"><tspan
         sodipodi:role="line"
         id="tspan9389"
         x="199.74323"
         y="571.54169"
         style="stroke-width:0.61580521">can you please find errors in my speaking,</tspan><tspan
         sodipodi:role="line"
         x="199.74323"
         y="596.17389"
         id="tspan9393"
         style="stroke-width:0.61580521">which actually shouldn't be matter anyway,</tspan><tspan
         sodipodi:role="line"
         x="199.74323"
         y="620.80609"
         id="tspan9395"
         style="stroke-width:0.61580521">for investors from future since Generation Z or perhaps since Alpha?</tspan></text>
    <text
       xml:space="preserve"
       style="font-style:normal;font-variant:normal;font-weight:normal;font-stretch:normal;font-size:20.74791336px;line-height:1.25;font-family:Ubuntu;-inkscape-font-specification:Ubuntu;text-align:center;letter-spacing:0px;word-spacing:0px;text-anchor:middle;fill:#000000;fill-opacity:1;stroke:none;stroke-width:0.86449635"
       x="939.97986"
       y="110.29389"
       id="text9399"><tspan
         sodipodi:role="line"
         id="tspan9397"
         x="939.9798"
         y="110.29389"
         style="stroke-width:0.86449635">OH MY GOD!!! You investors! Please! let me be myself, the true of myself, without any speaking filter and enchancer! let me speak my own style!!! I am <tspan
   style="font-style:italic;font-variant:normal;font-weight:normal;font-stretch:normal;font-family:Ubuntu;-inkscape-font-specification:'Ubuntu Italic';stroke-width:0.86449635"
   id="tspan9401">Homo sapiens</tspan>, not <tspan
   style="font-style:italic;font-variant:normal;font-weight:normal;font-stretch:normal;font-family:Ubuntu;-inkscape-font-specification:'Ubuntu Italic';stroke-width:0.86449635"
   id="tspan9403">Homo Deus</tspan> something!!!</tspan></text>
  </g>
</svg>
