{
    "asset" : {
        "copyright" : "(c) Perkedel Technologies, Some Rights Reserved",
        "generator" : "Khronos glTF Blender I/O v0.9.36",
        "version" : "2.0"
    },
    "scene" : 0,
    "scenes" : [
        {
            "name" : "Scene",
            "nodes" : [
                0
            ]
        }
    ],
    "nodes" : [
        {
            "mesh" : 0,
            "name" : "Zoblatos"
        }
    ],
    "materials" : [
        {
            "doubleSided" : true,
            "name" : "Redd",
            "pbrMetallicRoughness" : {
                "baseColorFactor" : [
                    1,
                    0.0003718277148436755,
                    0,
                    1
                ],
                "metallicFactor" : 0,
                "roughnessFactor" : 0
            }
        },
        {
            "doubleSided" : true,
            "name" : "Grenn",
            "pbrMetallicRoughness" : {
                "baseColorFactor" : [
                    0.004019693937152624,
                    1,
                    0,
                    1
                ],
                "metallicFactor" : 0,
                "roughnessFactor" : 0
            }
        },
        {
            "doubleSided" : true,
            "name" : "Bluu",
            "pbrMetallicRoughness" : {
                "baseColorFactor" : [
                    0,
                    0.00037182917003519833,
                    1,
                    1
                ],
                "metallicFactor" : 0,
                "roughnessFactor" : 0
            }
        },
        {
            "doubleSided" : true,
            "name" : "Whitt",
            "pbrMetallicRoughness" : {
                "baseColorFactor" : [
                    0.800000011920929,
                    0.800000011920929,
                    0.800000011920929,
                    1
                ],
                "metallicFactor" : 0,
                "roughnessFactor" : 0
            }
        },
        {
            "doubleSided" : true,
            "name" : "Cyann",
            "pbrMetallicRoughness" : {
                "baseColorFactor" : [
                    0,
                    1,
                    1,
                    1
                ],
                "metallicFactor" : 0,
                "roughnessFactor" : 0
            }
        },
        {
            "doubleSided" : true,
            "name" : "Magentt",
            "pbrMetallicRoughness" : {
                "baseColorFactor" : [
                    1,
                    0,
                    1,
                    1
                ],
                "metallicFactor" : 0,
                "roughnessFactor" : 0
            }
        },
        {
            "doubleSided" : true,
            "name" : "Yeloo",
            "pbrMetallicRoughness" : {
                "baseColorFactor" : [
                    1,
                    1,
                    0,
                    1
                ],
                "metallicFactor" : 0,
                "roughnessFactor" : 0
            }
        },
        {
            "doubleSided" : true,
            "name" : "Kee",
            "pbrMetallicRoughness" : {
                "baseColorFactor" : [
                    0,
                    0,
                    0,
                    1
                ],
                "metallicFactor" : 0,
                "roughnessFactor" : 0
            }
        }
    ],
    "meshes" : [
        {
            "name" : "Sphere.001",
            "primitives" : [
                {
                    "attributes" : {
                        "POSITION" : 0,
                        "NORMAL" : 1,
                        "TEXCOORD_0" : 2
                    },
                    "indices" : 3,
                    "material" : 0
                },
                {
                    "attributes" : {
                        "POSITION" : 4,
                        "NORMAL" : 5,
                        "TEXCOORD_0" : 6
                    },
                    "indices" : 7,
                    "material" : 1
                },
                {
                    "attributes" : {
                        "POSITION" : 8,
                        "NORMAL" : 9,
                        "TEXCOORD_0" : 10
                    },
                    "indices" : 11,
                    "material" : 2
                },
                {
                    "attributes" : {
                        "POSITION" : 12,
                        "NORMAL" : 13,
                        "TEXCOORD_0" : 14
                    },
                    "indices" : 15,
                    "material" : 3
                },
                {
                    "attributes" : {
                        "POSITION" : 16,
                        "NORMAL" : 17,
                        "TEXCOORD_0" : 18
                    },
                    "indices" : 19,
                    "material" : 4
                },
                {
                    "attributes" : {
                        "POSITION" : 20,
                        "NORMAL" : 21,
                        "TEXCOORD_0" : 22
                    },
                    "indices" : 23,
                    "material" : 5
                },
                {
                    "attributes" : {
                        "POSITION" : 24,
                        "NORMAL" : 25,
                        "TEXCOORD_0" : 26
                    },
                    "indices" : 27,
                    "material" : 6
                },
                {
                    "attributes" : {
                        "POSITION" : 28,
                        "NORMAL" : 29,
                        "TEXCOORD_0" : 30
                    },
                    "indices" : 31,
                    "material" : 7
                }
            ]
        }
    ],
    "accessors" : [
        {
            "bufferView" : 0,
            "componentType" : 5126,
            "count" : 2368,
            "max" : [
                0.7246705293655396,
                0.9957299828529358,
                0.7246707081794739
            ],
            "min" : [
                -0.72467041015625,
                7.415656000375748e-08,
                -0.7246701121330261
            ],
            "type" : "VEC3"
        },
        {
            "bufferView" : 1,
            "componentType" : 5126,
            "count" : 2368,
            "type" : "VEC3"
        },
        {
            "bufferView" : 2,
            "componentType" : 5126,
            "count" : 2368,
            "type" : "VEC2"
        },
        {
            "bufferView" : 3,
            "componentType" : 5123,
            "count" : 11904,
            "type" : "SCALAR"
        },
        {
            "bufferView" : 4,
            "componentType" : 5126,
            "count" : 2365,
            "max" : [
                0.7246703505516052,
                0.9957299828529358,
                0.7246705293655396
            ],
            "min" : [
                -0.7246699929237366,
                7.415656000375748e-08,
                -0.7246701121330261
            ],
            "type" : "VEC3"
        },
        {
            "bufferView" : 5,
            "componentType" : 5126,
            "count" : 2365,
            "type" : "VEC3"
        },
        {
            "bufferView" : 6,
            "componentType" : 5126,
            "count" : 2365,
            "type" : "VEC2"
        },
        {
            "bufferView" : 7,
            "componentType" : 5123,
            "count" : 11904,
            "type" : "SCALAR"
        },
        {
            "bufferView" : 8,
            "componentType" : 5126,
            "count" : 2376,
            "max" : [
                0.7843776345252991,
                0.9957299828529358,
                0.7843778133392334
            ],
            "min" : [
                -0.7843773365020752,
                7.415656000375748e-08,
                -0.7843772768974304
            ],
            "type" : "VEC3"
        },
        {
            "bufferView" : 9,
            "componentType" : 5126,
            "count" : 2376,
            "type" : "VEC3"
        },
        {
            "bufferView" : 10,
            "componentType" : 5126,
            "count" : 2376,
            "type" : "VEC2"
        },
        {
            "bufferView" : 11,
            "componentType" : 5123,
            "count" : 11904,
            "type" : "SCALAR"
        },
        {
            "bufferView" : 12,
            "componentType" : 5126,
            "count" : 2365,
            "max" : [
                0.7843776345252991,
                0.9957299828529358,
                0.7843778133392334
            ],
            "min" : [
                -0.7843773365020752,
                7.415656000375748e-08,
                -0.7843772768974304
            ],
            "type" : "VEC3"
        },
        {
            "bufferView" : 13,
            "componentType" : 5126,
            "count" : 2365,
            "type" : "VEC3"
        },
        {
            "bufferView" : 14,
            "componentType" : 5126,
            "count" : 2365,
            "type" : "VEC2"
        },
        {
            "bufferView" : 15,
            "componentType" : 5123,
            "count" : 11904,
            "type" : "SCALAR"
        },
        {
            "bufferView" : 16,
            "componentType" : 5126,
            "count" : 2380,
            "max" : [
                0.7246705293655396,
                7.60774128139019e-08,
                0.7246707081794739
            ],
            "min" : [
                -0.7246703505516052,
                -0.9957300424575806,
                -0.7246701121330261
            ],
            "type" : "VEC3"
        },
        {
            "bufferView" : 17,
            "componentType" : 5126,
            "count" : 2380,
            "type" : "VEC3"
        },
        {
            "bufferView" : 18,
            "componentType" : 5126,
            "count" : 2380,
            "type" : "VEC2"
        },
        {
            "bufferView" : 19,
            "componentType" : 5123,
            "count" : 11904,
            "type" : "SCALAR"
        },
        {
            "bufferView" : 20,
            "componentType" : 5126,
            "count" : 2383,
            "max" : [
                0.7246702909469604,
                7.60774128139019e-08,
                0.7246705293655396
            ],
            "min" : [
                -0.7246699929237366,
                -0.9957300424575806,
                -0.7246701717376709
            ],
            "type" : "VEC3"
        },
        {
            "bufferView" : 21,
            "componentType" : 5126,
            "count" : 2383,
            "type" : "VEC3"
        },
        {
            "bufferView" : 22,
            "componentType" : 5126,
            "count" : 2383,
            "type" : "VEC2"
        },
        {
            "bufferView" : 23,
            "componentType" : 5123,
            "count" : 11904,
            "type" : "SCALAR"
        },
        {
            "bufferView" : 24,
            "componentType" : 5126,
            "count" : 2379,
            "max" : [
                0.7843776345252991,
                7.60774128139019e-08,
                0.7843777537345886
            ],
            "min" : [
                -0.78437739610672,
                -0.9957300424575806,
                -0.78437739610672
            ],
            "type" : "VEC3"
        },
        {
            "bufferView" : 25,
            "componentType" : 5126,
            "count" : 2379,
            "type" : "VEC3"
        },
        {
            "bufferView" : 26,
            "componentType" : 5126,
            "count" : 2379,
            "type" : "VEC2"
        },
        {
            "bufferView" : 27,
            "componentType" : 5123,
            "count" : 11904,
            "type" : "SCALAR"
        },
        {
            "bufferView" : 28,
            "componentType" : 5126,
            "count" : 2380,
            "max" : [
                0.7843776345252991,
                7.60774128139019e-08,
                0.7843777537345886
            ],
            "min" : [
                -0.78437739610672,
                -0.9957300424575806,
                -0.78437739610672
            ],
            "type" : "VEC3"
        },
        {
            "bufferView" : 29,
            "componentType" : 5126,
            "count" : 2380,
            "type" : "VEC3"
        },
        {
            "bufferView" : 30,
            "componentType" : 5126,
            "count" : 2380,
            "type" : "VEC2"
        },
        {
            "bufferView" : 31,
            "componentType" : 5123,
            "count" : 11904,
            "type" : "SCALAR"
        }
    ],
    "bufferViews" : [
        {
            "buffer" : 0,
            "byteLength" : 28416,
            "byteOffset" : 0
        },
        {
            "buffer" : 0,
            "byteLength" : 28416,
            "byteOffset" : 28416
        },
        {
            "buffer" : 0,
            "byteLength" : 18944,
            "byteOffset" : 56832
        },
        {
            "buffer" : 0,
            "byteLength" : 23808,
            "byteOffset" : 75776
        },
        {
            "buffer" : 0,
            "byteLength" : 28380,
            "byteOffset" : 99584
        },
        {
            "buffer" : 0,
            "byteLength" : 28380,
            "byteOffset" : 127964
        },
        {
            "buffer" : 0,
            "byteLength" : 18920,
            "byteOffset" : 156344
        },
        {
            "buffer" : 0,
            "byteLength" : 23808,
            "byteOffset" : 175264
        },
        {
            "buffer" : 0,
            "byteLength" : 28512,
            "byteOffset" : 199072
        },
        {
            "buffer" : 0,
            "byteLength" : 28512,
            "byteOffset" : 227584
        },
        {
            "buffer" : 0,
            "byteLength" : 19008,
            "byteOffset" : 256096
        },
        {
            "buffer" : 0,
            "byteLength" : 23808,
            "byteOffset" : 275104
        },
        {
            "buffer" : 0,
            "byteLength" : 28380,
            "byteOffset" : 298912
        },
        {
            "buffer" : 0,
            "byteLength" : 28380,
            "byteOffset" : 327292
        },
        {
            "buffer" : 0,
            "byteLength" : 18920,
            "byteOffset" : 355672
        },
        {
            "buffer" : 0,
            "byteLength" : 23808,
            "byteOffset" : 374592
        },
        {
            "buffer" : 0,
            "byteLength" : 28560,
            "byteOffset" : 398400
        },
        {
            "buffer" : 0,
            "byteLength" : 28560,
            "byteOffset" : 426960
        },
        {
            "buffer" : 0,
            "byteLength" : 19040,
            "byteOffset" : 455520
        },
        {
            "buffer" : 0,
            "byteLength" : 23808,
            "byteOffset" : 474560
        },
        {
            "buffer" : 0,
            "byteLength" : 28596,
            "byteOffset" : 498368
        },
        {
            "buffer" : 0,
            "byteLength" : 28596,
            "byteOffset" : 526964
        },
        {
            "buffer" : 0,
            "byteLength" : 19064,
            "byteOffset" : 555560
        },
        {
            "buffer" : 0,
            "byteLength" : 23808,
            "byteOffset" : 574624
        },
        {
            "buffer" : 0,
            "byteLength" : 28548,
            "byteOffset" : 598432
        },
        {
            "buffer" : 0,
            "byteLength" : 28548,
            "byteOffset" : 626980
        },
        {
            "buffer" : 0,
            "byteLength" : 19032,
            "byteOffset" : 655528
        },
        {
            "buffer" : 0,
            "byteLength" : 23808,
            "byteOffset" : 674560
        },
        {
            "buffer" : 0,
            "byteLength" : 28560,
            "byteOffset" : 698368
        },
        {
            "buffer" : 0,
            "byteLength" : 28560,
            "byteOffset" : 726928
        },
        {
            "buffer" : 0,
            "byteLength" : 19040,
            "byteOffset" : 755488
        },
        {
            "buffer" : 0,
            "byteLength" : 23808,
            "byteOffset" : 774528
        }
    ],
    "buffers" : [
        {
            "byteLength" : 798336,
            "uri" : "data:application/octet-stream;base64,"
        }
    ]
}
