<svg xmlns="http://www.w3.org/2000/svg" xmlns:xlink="http://www.w3.org/1999/xlink" width="120" height="120" viewBox="0 0 120 120">
  <defs>
    <clipPath id="clip-button_xboxone_digital_analog_click_light_9">
      <rect width="120" height="120"/>
    </clipPath>
  </defs>
  <g id="button_xboxone_digital_analog_click_light_9" clip-path="url(#clip-button_xboxone_digital_analog_click_light_9)">
    <g id="Border_white_-_outer" data-name="Border white - outer" transform="translate(10 10)">
      <g id="Border_white_-_outer-2" data-name="Border white - outer" fill="none" stroke="#fff" stroke-width="4">
        <ellipse cx="50" cy="45" rx="50" ry="45" stroke="none"/>
        <ellipse cx="50" cy="45" rx="48" ry="43" fill="none"/>
      </g>
    </g>
    <g id="Border_white_-_inner" data-name="Border white - inner" transform="translate(18 17)">
      <g id="Border_white_-_inner-2" data-name="Border white - inner" fill="none" stroke="#fff" stroke-width="4">
        <circle cx="37.5" cy="37.5" r="37.5" stroke="none"/>
        <circle cx="37.5" cy="37.5" r="39.5" fill="none"/>
      </g>
    </g>
    <g id="Button_-_Base" data-name="Button - Base" transform="translate(40 77)">
      <g id="Button_-_Base-2" data-name="Button - Base" fill="#2a2a2a" stroke="#fff" stroke-width="4">
        <ellipse cx="20" cy="15.5" rx="20" ry="15.5" stroke="none"/>
        <ellipse cx="20" cy="15.5" rx="22" ry="17.5" fill="none"/>
      </g>
    </g>
    <g id="Button_-_Base-3" data-name="Button - Base" transform="translate(40 77)">
      <ellipse id="Button_-_Base-4" data-name="Button - Base" cx="20" cy="15.5" rx="20" ry="15.5" fill="#2a2a2a"/>
    </g>
    <rect id="Rectangle_215" data-name="Rectangle 215" width="40" height="26" transform="translate(40 67)" fill="#2a2a2a"/>
    <g id="Button_-_Base-5" data-name="Button - Base" transform="translate(14 14)">
      <ellipse id="Button_-_Base-6" data-name="Button - Base" cx="46" cy="41" rx="46" ry="41" fill="#404040"/>
    </g>
    <g id="Button_-_Top" data-name="Button - Top" transform="translate(18 14)">
      <path id="Button_-_Top-2" data-name="Button - Top" d="M42,0C65.2,0,84,16.156,84,36.086S65.2,72.173,42,72.173,0,56.016,0,36.086C0,26.2,4.626,17.244,12.3,10.569,19.734,4.1,30.309,0,42,0Z" fill="#404040"/>
    </g>
    <g id="Button_-_Top_Alt" data-name="Button - Top Alt" transform="translate(22 17)">
      <g id="Button_-_Top-3" data-name="Button - Top" fill="#5b5b5b" stroke="#404040" stroke-width="8">
        <ellipse cx="38" cy="34" rx="38" ry="34" stroke="none"/>
        <ellipse cx="38" cy="34" rx="34" ry="30" fill="none"/>
      </g>
    </g>
  </g>
</svg>
