<svg xmlns="http://www.w3.org/2000/svg" xmlns:xlink="http://www.w3.org/1999/xlink" width="120" height="120" viewBox="0 0 120 120">
  <defs>
    <clipPath id="clip-button_xbox_dpad_dark_2">
      <rect width="120" height="120"/>
    </clipPath>
  </defs>
  <g id="button_xbox_dpad_dark_2" clip-path="url(#clip-button_xbox_dpad_dark_2)">
    <circle id="Ellipse_45" data-name="Ellipse 45" cx="42" cy="42" r="42" transform="translate(8 18)" fill="#2a2a2a" stroke="#fff" stroke-width="4"/>
    <path id="Subtraction_45" data-name="Subtraction 45" d="M-3912-923a35.984,35.984,0,0,1-11-1.711V-944a4,4,0,0,0-4-4h-19.289A35.98,35.98,0,0,1-3948-959a35.987,35.987,0,0,1,1.712-11H-3927a4,4,0,0,0,4-4v-19.289A35.983,35.983,0,0,1-3912-995a35.99,35.99,0,0,1,11,1.712V-974a4,4,0,0,0,4,4h19.289A35.988,35.988,0,0,1-3876-959a35.993,35.993,0,0,1-1.712,11H-3897a4,4,0,0,0-4,4v19.288A35.988,35.988,0,0,1-3912-923Z" transform="translate(3962 1019)" fill="#2a2a2a"/>
    <path id="Subtraction_46" data-name="Subtraction 46" d="M-3912-927a37.932,37.932,0,0,1-11-1.616V-947a4,4,0,0,0-4-4h-19.418A32.272,32.272,0,0,1-3948-961a32.31,32.31,0,0,1,1.275-9H-3927a4,4,0,0,0,4-4v-19.384A37.927,37.927,0,0,1-3912-995a37.936,37.936,0,0,1,11,1.617V-974a4,4,0,0,0,4,4h19.726a32.312,32.312,0,0,1,1.275,9,32.278,32.278,0,0,1-1.582,10H-3897a4,4,0,0,0-4,4v18.384A37.934,37.934,0,0,1-3912-927Z" transform="translate(3962 1019)" fill="#404040"/>
    <path id="Polygon_6" data-name="Polygon 6" d="M16,0,32,16H0Z" transform="translate(114 44) rotate(90)" fill="#fff"/>
    <path id="Subtraction_48" data-name="Subtraction 48" d="M-4931.582-1022H-4951v-19h19.726a32.348,32.348,0,0,1,1.275,9,32.262,32.262,0,0,1-1.583,10Z" transform="translate(5016 1090)" fill="#5b5b5b"/>
    <rect id="Rectangle_197" data-name="Rectangle 197" width="19" height="2" rx="1" transform="translate(66 49) rotate(90)" fill="#5b5b5b"/>
  </g>
</svg>
