<svg xmlns="http://www.w3.org/2000/svg" xmlns:xlink="http://www.w3.org/1999/xlink" width="120" height="120" viewBox="0 0 120 120">
  <defs>
    <clipPath id="clip-button_xbox_digital_start_2">
      <rect width="120" height="120"/>
    </clipPath>
  </defs>
  <g id="button_xbox_digital_start_2" clip-path="url(#clip-button_xbox_digital_start_2)">
    <g id="Rectangle_57" data-name="Rectangle 57" transform="translate(30 47)" fill="#2a2a2a" stroke="#fff" stroke-width="4">
      <rect width="60" height="45" rx="21" stroke="none"/>
      <rect x="-2" y="-2" width="64" height="49" rx="23" fill="none"/>
    </g>
    <g id="Rectangle_58" data-name="Rectangle 58" transform="translate(82 84) rotate(180)" fill="#404040" stroke="#5b5b5b" stroke-width="4">
      <rect width="44" height="29" rx="14.5" stroke="none"/>
      <rect x="-2" y="-2" width="48" height="33" rx="16.5" fill="none"/>
    </g>
    <rect id="Rectangle_59" data-name="Rectangle 59" width="44" height="33" rx="16.5" transform="translate(82 84) rotate(180)" fill="#404040"/>
    <g id="Path_114" data-name="Path 114" transform="translate(60 39)" fill="#2a2a2a" stroke-linejoin="round">
      <path d="M -24.87792587280273 2.195315361022949 C -26.79113578796387 2.195315361022949 -28.41989517211914 1.874305367469788 -29.71895599365234 1.241215348243713 L -30.84277534484863 0.6935253143310547 L -30.84277534484863 -0.5566446781158447 L -30.84277534484863 -2.763674736022949 L -30.84277534484863 -5.913564682006836 L -27.99204635620117 -4.573724746704102 C -27.46686553955078 -4.326884746551514 -26.89786529541016 -4.129074573516846 -26.30083656311035 -3.98579478263855 C -25.72452545166016 -3.847474575042725 -25.19321632385254 -3.777344703674316 -24.72167587280273 -3.777344703674316 C -24.5365104675293 -3.777344703674316 -24.3884391784668 -3.787029027938843 -24.27181053161621 -3.800624370574951 C -24.53966522216797 -3.955309629440308 -25.02533149719238 -4.201989650726318 -25.86814498901367 -4.540854454040527 L -25.87048530578613 -4.541794776916504 L -25.87282562255859 -4.542744636535645 C -27.51778602600098 -5.208944797515869 -28.6867561340332 -6.001214504241943 -29.4465160369873 -6.96481466293335 C -30.26284599304199 -8.000164985656738 -30.67675590515137 -9.238194465637207 -30.67675590515137 -10.64453506469727 C -30.67675590515137 -12.43875503540039 -29.98072624206543 -13.94931507110596 -28.66390609741211 -15.01290512084961 C -27.45663642883301 -15.98801422119141 -25.88714599609375 -16.48242378234863 -23.99902534484863 -16.48242378234863 C -22.84285354614258 -16.48242378234863 -21.6845817565918 -16.30389213562012 -20.54003524780273 -15.95027923583984 L -20.54003524780273 -16.27734375 L -18.54003524780273 -16.27734375 L -7.807615756988525 -16.27734375 L -5.807615756988525 -16.27734375 L -5.807615756988525 -14.27734470367432 L -5.807615756988525 -12.27539443969727 L -5.807615756988525 -10.28296566009521 L -4.037206172943115 -15.03426456451416 L -3.552186012268066 -16.33593559265137 L -2.1630859375 -16.33593559265137 L 0.3759740591049194 -16.33593559265137 L 1.765074014663696 -16.33593559265137 L 2.250094175338745 -15.03426456451416 L 5.602543830871582 -6.0371994972229 L 5.602543830871582 -14.27734470367432 L 5.602543830871582 -16.27734375 L 7.602543830871582 -16.27734375 L 11.63574409484863 -16.27734375 C 13.85347557067871 -16.27734375 15.54068946838379 -15.84251689910889 16.78418350219727 -14.94900608062744 L 16.78418350219727 -16.27734375 L 18.78418350219727 -16.27734375 L 29.51660346984863 -16.27734375 L 31.51660346984863 -16.27734375 L 31.51660346984863 -14.27734470367432 L 31.51660346984863 -12.27539443969727 L 31.51660346984863 -10.27539443969727 L 29.51660346984863 -10.27539443969727 L 27.31738471984863 -10.27539443969727 L 27.31738471984863 5.3124999794818e-06 L 27.31738471984863 2.00000524520874 L 25.31738471984863 2.00000524520874 L 22.9834041595459 2.00000524520874 L 21.96483421325684 2.00000524520874 L 18.31543350219727 2.00000524520874 L 15.65918445587158 2.00000524520874 L 14.5261344909668 2.00000524520874 L 13.94368362426758 1.028135299682617 L 11.93652439117432 -2.320956230163574 L 11.93652439117432 5.3124999794818e-06 L 11.93652439117432 2.00000524520874 L 9.936524391174316 2.00000524520874 L 8.597333908081055 2.00000524520874 L 5.717773914337158 2.00000524520874 L 3.237303972244263 2.00000524520874 L 1.831124067306519 2.00000524520874 L 1.355294108390808 0.6767852902412415 L 0.4053506255149841 -1.964844703674316 L -2.231457233428955 -1.964844703674316 L -3.157536029815674 0.6644353270530701 L -3.627945899963379 2.00000524520874 L -5.043945789337158 2.00000524520874 L -7.504886150360107 2.00000524520874 L -10.0068359375 2.00000524520874 L -12.0068359375 2.00000524520874 L -14.34081554412842 2.00000524520874 L -16.34081649780273 2.00000524520874 L -16.34081649780273 5.3124999794818e-06 L -16.34081649780273 -10.27539443969727 L -18.54003524780273 -10.27539443969727 L -19.0599536895752 -10.27539443969727 L -19.54142570495605 -9.040014266967773 L -21.43445587158203 -9.836064338684082 C -22.39691925048828 -10.24079322814941 -23.23908233642578 -10.45667743682861 -23.9401683807373 -10.47860527038574 C -23.69642448425293 -10.35457515716553 -23.2987232208252 -10.16897296905518 -22.66005516052246 -9.905465126037598 L -22.65723609924316 -9.904304504394531 L -22.65442657470703 -9.903134346008301 C -21.43151664733887 -9.394214630126953 -20.52879524230957 -8.908434867858887 -19.89465522766113 -8.418034553527832 C -19.15983581542969 -7.849774837493896 -18.60328674316406 -7.177964687347412 -18.24050521850586 -6.421294689178467 C -17.88328552246094 -5.676234722137451 -17.70214653015137 -4.820184707641602 -17.70214653015137 -3.876954793930054 C -17.70214653015137 -1.995974659919739 -18.44208526611328 -0.4192446768283844 -19.84197616577148 0.6828052997589111 C -21.11685562133789 1.686435341835022 -22.81119537353516 2.195315361022949 -24.87792587280273 2.195315361022949 Z M -10.0068359375 -10.27539443969727 L -10.0068359375 5.3124999794818e-06 L -10.0068359375 0.9866018295288086 L -9.379006385803223 -0.6983246803283691 L -5.810436725616455 -10.27539443969727 L -7.807615756988525 -10.27539443969727 L -10.0068359375 -10.27539443969727 Z M 17.06363487243652 -5.67812967300415 L 20.00125312805176 -1.076104640960693 L 20.9834041595459 0.4625142812728882 L 20.9834041595459 5.3124999794818e-06 L 20.9834041595459 -10.27539443969727 L 19.05416488647461 -10.27539443969727 C 19.05516052246094 -10.22315311431885 19.0556640625 -10.17040348052979 19.0556640625 -10.11718463897705 C 19.0556640625 -8.314197540283203 18.36199569702148 -6.792769908905029 17.06363487243652 -5.67812967300415 Z M 11.93652439117432 -10.28888607025146 L 11.93652439117432 -9.64859676361084 C 12.35190582275391 -9.676456451416016 12.55401420593262 -9.746047019958496 12.62744045257568 -9.778057098388672 C 12.6381311416626 -9.818179130554199 12.65332412719727 -9.899717330932617 12.65332412719727 -10.03906440734863 C 12.65332412719727 -10.08835124969482 12.65119361877441 -10.12837791442871 12.64827156066895 -10.1600980758667 C 12.53299236297607 -10.20200634002686 12.31215381622314 -10.26099109649658 11.93652439117432 -10.28888607025146 Z" stroke="none"/>
      <path d="M -24.8779296875 0.1953119784593582 C -23.26334190368652 0.1953119784593582 -21.99707412719727 -0.166010245680809 -21.07909774780273 -0.8886768817901611 C -20.16113090515137 -1.611332416534424 -19.70215225219727 -2.607421398162842 -19.70215225219727 -3.876954793930054 C -19.70215225219727 -4.521488189697266 -19.81607437133789 -5.081377029418945 -20.04394149780273 -5.556643486022949 C -20.27180862426758 -6.031898975372314 -20.62988662719727 -6.458332538604736 -21.1181640625 -6.83593225479126 C -21.60644149780273 -7.21354341506958 -22.37467575073242 -7.620443344116211 -23.42285346984863 -8.056643486022949 C -24.35384178161621 -8.440754890441895 -24.99837493896484 -8.749999046325684 -25.35644149780273 -8.984376907348633 C -25.71451950073242 -9.218754768371582 -25.9716739654541 -9.467777252197266 -26.1279296875 -9.731443405151367 C -26.2841739654541 -9.995121002197266 -26.36230850219727 -10.31249904632568 -26.36230850219727 -10.6835880279541 C -26.36230850219727 -11.22395515441895 -26.1669864654541 -11.65853214263916 -25.77636337280273 -11.9872989654541 C -25.3857421875 -12.31607723236084 -24.81281852722168 -12.48046588897705 -24.05761909484863 -12.48046588897705 C -23.06151962280273 -12.48046588897705 -21.92870903015137 -12.21354389190674 -20.6591739654541 -11.67968845367432 L -19.9169864654541 -13.58398818969727 C -21.27115249633789 -14.18294334411621 -22.6318302154541 -14.48242092132568 -23.99901962280273 -14.48242092132568 C -25.42480850219727 -14.48242092132568 -26.56087493896484 -14.14062118530273 -27.40723037719727 -13.45703220367432 C -28.25357437133789 -12.77343273162842 -28.6767520904541 -11.83593273162842 -28.6767520904541 -10.64453220367432 C -28.6767520904541 -9.694009780883789 -28.40983009338379 -8.880209922790527 -27.87597465515137 -8.203121185302734 C -27.34211921691895 -7.52604341506958 -26.42415237426758 -6.923832416534424 -25.1220645904541 -6.396488189697266 C -23.85905265808105 -5.88867712020874 -23.02571868896484 -5.449221134185791 -22.62207412719727 -5.078121185302734 C -22.21842002868652 -4.707032680511475 -22.01659774780273 -4.254554748535156 -22.01659774780273 -3.720699071884155 C -22.01659774780273 -3.128254652023315 -22.23633003234863 -2.656254768371582 -22.67578506469727 -2.304687976837158 C -23.11523056030273 -1.953121304512024 -23.79719734191895 -1.77734363079071 -24.7216739654541 -1.77734363079071 C -25.35318565368652 -1.77734363079071 -26.03515243530273 -1.865232467651367 -26.76757431030273 -2.041010141372681 C -27.49999618530273 -2.216799020767212 -28.19173049926758 -2.457676887512207 -28.84277534484863 -2.763676881790161 L -28.84277534484863 -0.5566436052322388 C -27.81413078308105 -0.05534357577562332 -26.49250793457031 0.1953119784593582 -24.8779296875 0.1953119784593582 M 25.31738090515137 8.680555652063049e-07 L 25.31738090515137 -12.27538776397705 L 29.51660346984863 -12.27538776397705 L 29.51660346984863 -14.27734375 L 18.78418159484863 -14.27734375 L 18.78418159484863 -12.27538776397705 L 22.98340225219727 -12.27538776397705 L 22.98340225219727 8.680555652063049e-07 L 25.31738090515137 8.680555652063049e-07 M 18.31542587280273 8.680555652063049e-07 L 14.28222560882568 -6.318354606628418 C 16.13117980957031 -7.07356595993042 17.0556697845459 -8.33984375 17.0556697845459 -10.11718845367432 C 17.0556697845459 -11.51042175292969 16.61295890808105 -12.55208778381348 15.72753620147705 -13.24218845367432 C 14.84212493896484 -13.93228816986084 13.47819137573242 -14.27734375 11.63574695587158 -14.27734375 L 7.602536201477051 -14.27734375 L 7.602536201477051 8.680555652063049e-07 L 9.936525344848633 8.680555652063049e-07 L 9.936525344848633 -5.703121185302734 L 12.24121379852295 -5.703121185302734 L 15.65918064117432 8.680555652063049e-07 L 18.31542587280273 8.680555652063049e-07 M 9.936525344848633 -12.30468845367432 L 11.4794921875 -12.30468845367432 C 12.54069137573242 -12.30468845367432 13.33495807647705 -12.12891006469727 13.86230278015137 -11.77734375 C 14.38964748382568 -11.42577648162842 14.65332508087158 -10.84635448455811 14.65332508087158 -10.03906536102295 C 14.65332508087158 -9.24478816986084 14.40918064117432 -8.645832061767578 13.92090320587158 -8.242188453674316 C 13.43261432647705 -7.83854341506958 12.64485836029053 -7.636721134185791 11.55761432647705 -7.636721134185791 L 9.936525344848633 -7.636721134185791 L 9.936525344848633 -12.30468845367432 M 5.717769622802734 8.680555652063049e-07 L 0.3759807348251343 -14.33593273162842 L -2.1630859375 -14.33593273162842 L -7.504886150360107 8.680555652063049e-07 L -5.043941497802734 8.680555652063049e-07 L -3.647463798522949 -3.964843511581421 L 1.811525225639343 -3.964843511581421 L 3.237303018569946 8.680555652063049e-07 L 5.717769622802734 8.680555652063049e-07 M -0.9033192992210388 -12.32422161102295 C -0.8382192850112915 -12.06379890441895 -0.7193970680236816 -11.65364360809326 -0.5468748211860657 -11.09375476837158 C -0.3743526041507721 -10.53385448455811 -0.2392525970935822 -10.12369918823242 -0.1415970474481583 -9.863276481628418 L 1.19629180431366 -5.976565837860107 L -2.963863611221313 -5.976565837860107 L -1.674808144569397 -9.697265625 C -1.336263656616211 -10.64778804779053 -1.079097032546997 -11.52343273162842 -0.9033192992210388 -12.32422161102295 M -12.0068302154541 8.680555652063049e-07 L -12.0068302154541 -12.27538776397705 L -7.807619094848633 -12.27538776397705 L -7.807619094848633 -14.27734375 L -18.54004096984863 -14.27734375 L -18.54004096984863 -12.27538776397705 L -14.34081935882568 -12.27538776397705 L -14.34081935882568 8.680555652063049e-07 L -12.0068302154541 8.680555652063049e-07 M -24.8779296875 4.195312023162842 C -27.12855339050293 4.195312023162842 -28.9986629486084 3.817111968994141 -30.59511947631836 3.039089679718018 C -31.97027397155762 2.368923187255859 -32.8427734375 0.9731230735778809 -32.8427734375 -0.5566436052322388 L -32.8427734375 -2.763676881790161 C -32.8427734375 -4.041056156158447 -32.23324584960938 -5.235633850097656 -31.21282005310059 -5.985957145690918 C -32.17175674438477 -7.314753532409668 -32.67675399780273 -8.91812801361084 -32.67675399780273 -10.64453220367432 C -32.67675399780273 -13.02927684783936 -31.69793128967285 -15.13321018218994 -29.92060852050781 -16.56877708435059 C -28.34844207763672 -17.83858871459961 -26.35614204406738 -18.482421875 -23.99901962280273 -18.482421875 C -22.71745872497559 -18.482421875 -21.43746948242188 -18.29677581787109 -20.17509460449219 -17.92899322509766 C -19.67592811584473 -18.1528434753418 -19.12252998352051 -18.27734375 -18.54004096984863 -18.27734375 L -7.807619094848633 -18.27734375 C -6.721115112304688 -18.27734375 -5.735715866088867 -17.84408378601074 -5.014858245849609 -17.14099884033203 C -4.278117179870605 -17.88960075378418 -3.258397579193115 -18.3359317779541 -2.1630859375 -18.3359317779541 L 0.3759807348251343 -18.3359317779541 C 1.940696954727173 -18.3359317779541 3.35107159614563 -17.42513847351074 4.002707004547119 -16.02334785461426 C 4.651084899902344 -17.35757064819336 6.01943302154541 -18.27734375 7.602536201477051 -18.27734375 L 11.63574695587158 -18.27734375 C 13.47952365875244 -18.27734375 15.04203510284424 -18.00765609741211 16.3585262298584 -17.45820808410645 C 17.0313892364502 -17.97208976745605 17.87215423583984 -18.27734375 18.78418159484863 -18.27734375 L 29.51660346984863 -18.27734375 C 31.72574806213379 -18.27734375 33.5166015625 -16.48648834228516 33.5166015625 -14.27734375 L 33.5166015625 -12.27538776397705 C 33.5166015625 -10.06624317169189 31.72574806213379 -8.275387763977051 29.51660346984863 -8.275387763977051 L 29.31738090515137 -8.275387763977051 L 29.31738090515137 8.680555652063049e-07 C 29.31738090515137 2.209145307540894 27.52652549743652 4.000000953674316 25.31738090515137 4.000000953674316 L 22.98340225219727 4.000000953674316 C 22.11223030090332 4.000000953674316 21.30607414245605 3.721479415893555 20.64917182922363 3.248658895492554 C 19.98050880432129 3.728872776031494 19.16768836975098 4.000000953674316 18.31542587280273 4.000000953674316 L 15.65918064117432 4.000000953674316 C 14.56933403015137 4.000000953674316 13.54146003723145 3.556422710418701 12.79779434204102 2.795205354690552 C 12.07148838043213 3.538622856140137 11.05795192718506 4.000000953674316 9.936525344848633 4.000000953674316 L 7.602536201477051 4.000000953674316 C 7.277313232421875 4.000000953674316 6.96102237701416 3.961154937744141 6.658309459686279 3.887908458709717 C 6.353633880615234 3.961623430252075 6.038179397583008 4.000000953674316 5.717769622802734 4.000000953674316 L 3.237303018569946 4.000000953674316 C 1.550047397613525 4.000000953674316 0.04422517493367195 2.941278696060181 -0.5267192721366882 1.353567481040955 L -0.9071823358535767 0.295564740896225 L -1.271119236946106 1.328845262527466 C -1.83484148979187 2.929345369338989 -3.347063779830933 4.000000953674316 -5.043941497802734 4.000000953674316 L -7.504886150360107 4.000000953674316 C -8.318874359130859 4.000000953674316 -9.10074520111084 3.752377510070801 -9.755531311035156 3.306778430938721 C -10.39685249328613 3.744266033172607 -11.17192935943604 4.000000953674316 -12.0068302154541 4.000000953674316 L -14.34081935882568 4.000000953674316 C -15.94495677947998 4.000000953674316 -17.3286075592041 3.055591106414795 -17.96612358093262 1.692569732666016 C -18.16663360595703 1.889515161514282 -18.37967109680176 2.076997041702271 -18.6048526763916 2.254267454147339 C -20.24093055725098 3.542245388031006 -22.35149765014648 4.195312023162842 -24.8779296875 4.195312023162842 Z" stroke="none" fill="#fff"/>
    </g>
    <path id="Polygon_8" data-name="Polygon 8" d="M9.106,1.789a1,1,0,0,1,1.789,0l8.382,16.764A1,1,0,0,1,18.382,20H1.618a1,1,0,0,1-.894-1.447Z" transform="translate(74 58) rotate(90)" fill="#fff"/>
  </g>
</svg>
