<svg xmlns="http://www.w3.org/2000/svg" xmlns:xlink="http://www.w3.org/1999/xlink" width="120" height="120" viewBox="0 0 120 120">
  <defs>
    <clipPath id="clip-button_xboxone_analog_l_direction_11">
      <rect width="120" height="120"/>
    </clipPath>
  </defs>
  <g id="button_xboxone_analog_l_direction_11" clip-path="url(#clip-button_xboxone_analog_l_direction_11)">
    <g id="Border_white_-_outer" data-name="Border white - outer" transform="translate(110 110) rotate(180)">
      <g id="Border_white_-_outer-2" data-name="Border white - outer" fill="none" stroke="#fff" stroke-width="4">
        <circle cx="50" cy="50" r="50" stroke="none"/>
        <circle cx="50" cy="50" r="48" fill="none"/>
      </g>
    </g>
    <g id="Button_-_Base" data-name="Button - Base" transform="translate(106 106) rotate(180)">
      <g id="Button_-_Base-2" data-name="Button - Base" fill="#404040" stroke="#2a2a2a" stroke-width="8">
        <circle cx="46" cy="46" r="46" stroke="none"/>
        <circle cx="46" cy="46" r="42" fill="none"/>
      </g>
    </g>
    <g id="Button_-_Top" data-name="Button - Top" transform="translate(102 102) rotate(180)">
      <path id="Button_-_Top-2" data-name="Button - Top" d="M42,0A42,42,0,1,1,12.3,12.3,42,42,0,0,1,42,0Z" fill="#404040"/>
    </g>
    <g id="Button_-_Top_Alt" data-name="Button - Top Alt" transform="translate(98 98) rotate(180)">
      <g id="Button_-_Top-3" data-name="Button - Top" fill="#5b5b5b" stroke="#404040" stroke-width="8">
        <circle cx="38" cy="38" r="38" stroke="none"/>
        <circle cx="38" cy="38" r="34" fill="none"/>
      </g>
    </g>
    <g id="Component_12_51" data-name="Component 12 – 51" transform="translate(24 24)">
      <g id="Ellipse_41" data-name="Ellipse 41" transform="translate(30)" fill="#404040" stroke="#404040" stroke-width="4">
        <circle cx="6" cy="6" r="6" stroke="none"/>
        <circle cx="6" cy="6" r="4" fill="none"/>
      </g>
      <g id="Ellipse_44" data-name="Ellipse 44" transform="translate(30 60)" fill="#404040" stroke="#404040" stroke-width="4">
        <circle cx="6" cy="6" r="6" stroke="none"/>
        <circle cx="6" cy="6" r="4" fill="none"/>
      </g>
      <g id="Ellipse_42" data-name="Ellipse 42" transform="translate(0 30)" fill="#404040" stroke="#404040" stroke-width="4">
        <circle cx="6" cy="6" r="6" stroke="none"/>
        <circle cx="6" cy="6" r="4" fill="none"/>
      </g>
      <g id="Ellipse_43" data-name="Ellipse 43" transform="translate(60 30)" fill="#404040" stroke="#404040" stroke-width="4">
        <circle cx="6" cy="6" r="6" stroke="none"/>
        <circle cx="6" cy="6" r="4" fill="none"/>
      </g>
    </g>
    <g id="Group_5" data-name="Group 5" transform="translate(120 120) rotate(180)">
      <g id="Group_3" data-name="Group 3">
        <path id="Intersection_3" data-name="Intersection 3" d="M-37.837-401.411A37.869,37.869,0,0,1-22-404.858,37.852,37.852,0,0,1-6.163-401.41L-22-385.574Z" transform="translate(82 426.858)" fill="#fff"/>
        <circle id="Border_white_-_inner" data-name="Border white - inner" cx="50" cy="50" r="50" transform="translate(10 10)" fill="none"/>
      </g>
      <path id="Intersection_4" data-name="Intersection 4" d="M-28-408v-17.015A61.381,61.381,0,0,1-17-426a61.381,61.381,0,0,1,11,.984V-408Z" transform="translate(77 436)" fill="#fff"/>
    </g>
    <g id="Group_8" data-name="Group 8">
      <g id="Group_3-2" data-name="Group 3">
        <path id="Intersection_3-2" data-name="Intersection 3" d="M-37.837-401.411A37.869,37.869,0,0,1-22-404.858,37.852,37.852,0,0,1-6.163-401.41L-22-385.574Z" transform="translate(82 426.858)" fill="#fff"/>
        <circle id="Border_white_-_inner-2" data-name="Border white - inner" cx="50" cy="50" r="50" transform="translate(10 10)" fill="none"/>
      </g>
      <path id="Intersection_4-2" data-name="Intersection 4" d="M-28-408v-17.015A61.381,61.381,0,0,1-17-426a61.381,61.381,0,0,1,11,.984V-408Z" transform="translate(77 436)" fill="#fff"/>
    </g>
    <g id="Group_5-2" data-name="Group 5" transform="translate(0 120) rotate(-90)">
      <g id="Group_3-3" data-name="Group 3">
        <path id="Intersection_3-3" data-name="Intersection 3" d="M-37.837-401.411A37.869,37.869,0,0,1-22-404.858,37.852,37.852,0,0,1-6.163-401.41L-22-385.574Z" transform="translate(82 426.858)" fill="#fff"/>
        <circle id="Border_white_-_inner-3" data-name="Border white - inner" cx="50" cy="50" r="50" transform="translate(10 10)" fill="none"/>
      </g>
      <path id="Intersection_4-3" data-name="Intersection 4" d="M-28-408v-17.015A61.381,61.381,0,0,1-17-426a61.381,61.381,0,0,1,11,.984V-408Z" transform="translate(77 436)" fill="#fff"/>
    </g>
    <g id="Group_8-2" data-name="Group 8" transform="translate(120) rotate(90)">
      <g id="Group_3-4" data-name="Group 3">
        <path id="Intersection_3-4" data-name="Intersection 3" d="M-37.837-401.411A37.869,37.869,0,0,1-22-404.858,37.852,37.852,0,0,1-6.163-401.41L-22-385.574Z" transform="translate(82 426.858)" fill="#fff"/>
        <circle id="Border_white_-_inner-4" data-name="Border white - inner" cx="50" cy="50" r="50" transform="translate(10 10)" fill="none"/>
      </g>
      <path id="Intersection_4-4" data-name="Intersection 4" d="M-28-408v-17.015A61.381,61.381,0,0,1-17-426a61.381,61.381,0,0,1,11,.984V-408Z" transform="translate(77 436)" fill="#fff"/>
    </g>
    <path id="Path_68" data-name="Path 68" d="M-7.705,0V-28.555H-1.65V-5H9.932V0Z" transform="translate(60 74)" fill="#fff"/>
  </g>
</svg>
