<svg xmlns="http://www.w3.org/2000/svg" xmlns:xlink="http://www.w3.org/1999/xlink" width="120" height="120" viewBox="0 0 120 120">
  <defs>
    <clipPath id="clip-button_xbox_dpad_light_4">
      <rect width="120" height="120"/>
    </clipPath>
  </defs>
  <g id="button_xbox_dpad_light_4" clip-path="url(#clip-button_xbox_dpad_light_4)">
    <circle id="Ellipse_45" data-name="Ellipse 45" cx="42" cy="42" r="42" transform="translate(28 18)" fill="#2a2a2a" stroke="#fff" stroke-width="4"/>
    <g id="Subtraction_45" data-name="Subtraction 45" transform="translate(106 96) rotate(180)" fill="#404040">
      <path d="M 36 70 C 32.94032669067383 70 29.91949653625488 69.59556579589844 27.00020027160645 68.79650115966797 L 27.00020027160645 50.9994010925293 C 27.00020027160645 47.69121170043945 24.30878829956055 44.99980163574219 21.00060081481934 44.99980163574219 L 3.203489780426025 44.99980163574219 C 2.404428482055664 42.08047866821289 2 39.05964660644531 2 36 C 2 32.94018173217773 2.40438437461853 29.91939544677734 3.203395843505859 27.00020027160645 L 21.00060081481934 27.00020027160645 C 24.30878829956055 27.00020027160645 27.00020027160645 24.30838966369629 27.00020027160645 20.99970054626465 L 27.00020027160645 3.203421592712402 C 29.91948509216309 2.404400587081909 32.94028854370117 2 36 2 C 39.05985641479492 2 42.08062362670898 2.404358625411987 44.99980163574219 3.203330039978027 L 44.99980163574219 20.99970054626465 C 44.99980163574219 24.30838966369629 47.69161224365234 27.00020027160645 51.00030136108398 27.00020027160645 L 68.79666137695313 27.00020027160645 C 69.59564208984375 29.91940498352051 70 32.9401741027832 70 36 C 70 39.0597038269043 69.59558868408203 42.08052062988281 68.79656219482422 44.99980163574219 L 51.00030136108398 44.99980163574219 C 47.69161224365234 44.99980163574219 44.99980163574219 47.69121170043945 44.99980163574219 50.9994010925293 L 44.99980163574219 68.79659271240234 C 42.08058547973633 69.59560394287109 39.05978775024414 70 36 70 Z" stroke="none"/>
      <path d="M 36 68 C 38.36949920654297 68 40.71377944946289 67.74256134033203 42.99980163574219 67.23286437988281 L 42.99980163574219 50.9994010925293 C 42.99980163574219 46.58840179443359 46.58881378173828 42.99980163574219 51.00030517578125 42.99980163574219 L 67.23282623291016 42.99980163574219 C 67.74254608154297 40.7137336730957 68 38.36941528320313 68 36 C 68 33.6304817199707 67.74258422851563 31.28623199462891 67.23291015625 29.00020027160645 L 51.00030517578125 29.00020027160645 C 46.58881378173828 29.00020027160645 42.99980163574219 25.41119956970215 42.99980163574219 20.99970626831055 L 42.99980163574219 4.767080307006836 C 40.71379089355469 4.257407188415527 38.36955642700195 4 36 4 C 33.63056564331055 4 31.28625869750977 4.257446765899658 29.00020027160645 4.767156600952148 L 29.00020027160645 20.99970626831055 C 29.00020027160645 25.41119956970215 25.41160011291504 29.00020027160645 21.00060081481934 29.00020027160645 L 4.767130374908447 29.00020027160645 C 4.257429599761963 31.28622627258301 4 33.63050079345703 4 36 C 4 38.36957931518555 4.257388114929199 40.71354293823242 4.767212390899658 42.99980163574219 L 21.00060081481934 42.99980163574219 C 25.41160011291504 42.99980163574219 29.00020027160645 46.58840179443359 29.00020027160645 50.9994010925293 L 29.00020027160645 67.2327880859375 C 31.28644180297852 67.74261474609375 33.63040161132813 68 36 68 M 36 72 C 32.24454498291016 72 28.54368019104004 71.42414855957031 25.00020027160645 70.28841400146484 L 25.00020027160645 50.9994010925293 C 25.00020027160645 48.79401397705078 23.20598602294922 46.99980163574219 21.00060081481934 46.99980163574219 L 1.711586713790894 46.99980163574219 C 0.5755466818809509 43.4553337097168 0 39.75469207763672 0 36 C 0 32.2443733215332 0.5758266448974609 28.54350662231445 1.711466670036316 25.00020027160645 L 21.00060081481934 25.00020027160645 C 23.20598602294922 25.00020027160645 25.00020027160645 23.20558738708496 25.00020027160645 20.99970626831055 L 25.00020027160645 1.711493372917175 C 28.54462623596191 0.5755066871643066 32.24525451660156 0 36 0 C 39.75566482543945 0 43.4565315246582 0.5757866501808167 46.99980163574219 1.711386680603027 L 46.99980163574219 20.99970626831055 C 46.99980163574219 23.20558738708496 48.79441452026367 25.00020027160645 51.00030517578125 25.00020027160645 L 70.28859710693359 25.00020027160645 C 71.42452239990234 28.54449272155762 72 32.24512100219727 72 36 C 72 39.75546646118164 71.42417144775391 43.45633316040039 70.28849029541016 46.99980163574219 L 51.00030517578125 46.99980163574219 C 48.79441452026367 46.99980163574219 46.99980163574219 48.79401397705078 46.99980163574219 50.9994010925293 L 46.99980163574219 70.28852081298828 C 43.45549392700195 71.42449188232422 39.75486755371094 72 36 72 Z" stroke="none" fill="#404040"/>
    </g>
    <path id="Subtraction_46" data-name="Subtraction 46" d="M36,68a37.934,37.934,0,0,1-11-1.617V47a4,4,0,0,0-4-4H1.275a32.4,32.4,0,0,1,.308-19H21a4,4,0,0,0,4-4V1.616a38.235,38.235,0,0,1,22,0V20a4,4,0,0,0,4,4H70.418a32.4,32.4,0,0,1,.307,19H51a4.005,4.005,0,0,0-4,4V66.384A37.933,37.933,0,0,1,36,68Z" transform="translate(106 92) rotate(180)" fill="#5b5b5b"/>
    <path id="Polygon_6" data-name="Polygon 6" d="M16,0,32,16H0Z" transform="translate(6 76) rotate(-90)" fill="#fff"/>
    <path id="Subtraction_48" data-name="Subtraction 48" d="M23.726,25.873H4v-22H22.275a32.171,32.171,0,0,1,2.725,13,32.315,32.315,0,0,1-1.274,9Z" transform="translate(59 74.873) rotate(180)" fill="#404040"/>
    <rect id="Rectangle_198" data-name="Rectangle 198" width="19" height="2" rx="1" transform="translate(56 49) rotate(90)" fill="#5b5b5b"/>
  </g>
</svg>
