<svg xmlns="http://www.w3.org/2000/svg" xmlns:xlink="http://www.w3.org/1999/xlink" width="120" height="120" viewBox="0 0 120 120">
  <defs>
    <clipPath id="clip-button_xbox_analog_l">
      <rect width="120" height="120"/>
    </clipPath>
  </defs>
  <g id="button_xbox_analog_l" clip-path="url(#clip-button_xbox_analog_l)">
    <g id="Border_white_-_outer" data-name="Border white - outer" transform="translate(10 10)">
      <g id="Border_white_-_outer-2" data-name="Border white - outer" fill="none" stroke="#fff" stroke-width="4">
        <circle cx="50" cy="50" r="50" stroke="none"/>
        <circle cx="50" cy="50" r="48" fill="none"/>
      </g>
    </g>
    <g id="Border_white_-_inner" data-name="Border white - inner" transform="translate(18 18)">
      <g id="Border_white_-_inner-2" data-name="Border white - inner" fill="none" stroke="#fff" stroke-width="4">
        <circle cx="42" cy="42" r="42" stroke="none"/>
        <circle cx="42" cy="42" r="44" fill="none"/>
      </g>
    </g>
    <g id="Button_-_Base" data-name="Button - Base" transform="translate(14 14)">
      <g id="Button_-_Base-2" data-name="Button - Base" fill="#404040" stroke="#2a2a2a" stroke-width="8">
        <circle cx="46" cy="46" r="46" stroke="none"/>
        <circle cx="46" cy="46" r="42" fill="none"/>
      </g>
    </g>
    <g id="Button_-_Top" data-name="Button - Top" transform="translate(18 18)">
      <path id="Button_-_Top-2" data-name="Button - Top" d="M42,0A42,42,0,1,1,12.3,12.3,42,42,0,0,1,42,0Z" fill="#404040"/>
    </g>
    <g id="Button_-_Top_Alt" data-name="Button - Top Alt" transform="translate(22 22)">
      <g id="Button_-_Top-3" data-name="Button - Top" fill="#5b5b5b" stroke="#404040" stroke-width="8">
        <circle cx="38" cy="38" r="38" stroke="none"/>
        <circle cx="38" cy="38" r="34" fill="none"/>
      </g>
    </g>
    <g id="Component_12_3" data-name="Component 12 – 3" transform="translate(24 24)">
      <g id="Ellipse_41" data-name="Ellipse 41" transform="translate(30)" fill="#404040" stroke="#404040" stroke-width="4">
        <circle cx="6" cy="6" r="6" stroke="none"/>
        <circle cx="6" cy="6" r="4" fill="none"/>
      </g>
      <g id="Ellipse_44" data-name="Ellipse 44" transform="translate(30 60)" fill="#404040" stroke="#404040" stroke-width="4">
        <circle cx="6" cy="6" r="6" stroke="none"/>
        <circle cx="6" cy="6" r="4" fill="none"/>
      </g>
      <g id="Ellipse_42" data-name="Ellipse 42" transform="translate(0 30)" fill="#404040" stroke="#404040" stroke-width="4">
        <circle cx="6" cy="6" r="6" stroke="none"/>
        <circle cx="6" cy="6" r="4" fill="none"/>
      </g>
      <g id="Ellipse_43" data-name="Ellipse 43" transform="translate(60 30)" fill="#404040" stroke="#404040" stroke-width="4">
        <circle cx="6" cy="6" r="6" stroke="none"/>
        <circle cx="6" cy="6" r="4" fill="none"/>
      </g>
    </g>
    <path id="Path_61" data-name="Path 61" d="M-7.705,0V-28.555H-1.65V-5H9.932V0Z" transform="translate(60 74)" fill="#fff"/>
  </g>
</svg>
