<svg xmlns="http://www.w3.org/2000/svg" xmlns:xlink="http://www.w3.org/1999/xlink" width="120" height="120" viewBox="0 0 120 120">
  <defs>
    <clipPath id="clip-button_xbox_digital_back_1">
      <rect width="120" height="120"/>
    </clipPath>
  </defs>
  <g id="button_xbox_digital_back_1" clip-path="url(#clip-button_xbox_digital_back_1)">
    <g id="Rectangle_57" data-name="Rectangle 57" transform="translate(30 47)" fill="#2a2a2a" stroke="#fff" stroke-width="4">
      <rect width="60" height="45" rx="21" stroke="none"/>
      <rect x="-2" y="-2" width="64" height="49" rx="23" fill="none"/>
    </g>
    <g id="Rectangle_58" data-name="Rectangle 58" transform="translate(38 55)" fill="#404040" stroke="#5b5b5b" stroke-width="4">
      <rect width="44" height="29" rx="14.5" stroke="none"/>
      <rect x="-2" y="-2" width="48" height="33" rx="16.5" fill="none"/>
    </g>
    <rect id="Rectangle_59" data-name="Rectangle 59" width="44" height="33" rx="16.5" transform="translate(38 51)" fill="#404040"/>
    <path id="Path_115" data-name="Path 115" d="M-24.058-14.277h4.238a8.044,8.044,0,0,1,4.263.859A3.009,3.009,0,0,1-14.243-10.7a3.29,3.29,0,0,1-.645,2.08,2.882,2.882,0,0,1-1.855,1.045v.1a3.684,3.684,0,0,1,2.212,1.118A3.382,3.382,0,0,1-13.823-4.1a3.665,3.665,0,0,1-1.343,3.013A5.776,5.776,0,0,1-18.9,0h-5.156Zm2.334,5.9h2.246a3.846,3.846,0,0,0,2.139-.464,1.777,1.777,0,0,0,.674-1.577,1.58,1.58,0,0,0-.728-1.455,4.544,4.544,0,0,0-2.31-.449h-2.021Zm0,1.895v4.521h2.48a3.651,3.651,0,0,0,2.212-.562A2.073,2.073,0,0,0-16.284-4.3a1.882,1.882,0,0,0-.762-1.65,4.037,4.037,0,0,0-2.314-.537ZM-2,0-3.423-3.965H-8.882L-10.278,0h-2.461L-7.4-14.336h2.539L.483,0ZM-4.038-5.977-5.376-9.863q-.146-.391-.405-1.23t-.356-1.23A21.886,21.886,0,0,1-6.909-9.7L-8.2-5.977Zm12.48-6.5a3.847,3.847,0,0,0-3.164,1.426A6.1,6.1,0,0,0,4.126-7.119,6.136,6.136,0,0,0,5.234-3.145,3.915,3.915,0,0,0,8.442-1.8,8.429,8.429,0,0,0,10.2-1.978q.85-.181,1.768-.464v2A10.716,10.716,0,0,1,8.159.2,6.087,6.087,0,0,1,3.345-1.7a7.946,7.946,0,0,1-1.68-5.435,8.782,8.782,0,0,1,.815-3.9,5.82,5.82,0,0,1,2.358-2.559,7.133,7.133,0,0,1,3.623-.889,8.991,8.991,0,0,1,4.043.918l-.84,1.943a12.539,12.539,0,0,0-1.528-.6A5.506,5.506,0,0,0,8.442-12.48ZM25.942,0H23.237L18.755-6.465,17.378-5.342V0H15.044V-14.277h2.334v6.816q.957-1.172,1.9-2.256l3.857-4.561H25.8q-3.74,4.395-5.361,6.26Z" transform="translate(60 39)" fill="#fff"/>
    <path id="Polygon_8" data-name="Polygon 8" d="M9.106,1.789a1,1,0,0,1,1.789,0l8.382,16.764A1,1,0,0,1,18.382,20H1.618a1,1,0,0,1-.894-1.447Z" transform="translate(46 78) rotate(-90)" fill="#fff"/>
  </g>
</svg>
