<svg xmlns="http://www.w3.org/2000/svg" xmlns:xlink="http://www.w3.org/1999/xlink" width="120" height="120" viewBox="0 0 120 120">
  <defs>
    <clipPath id="clip-button_xbox_digital_bumper_light_4">
      <rect width="120" height="120"/>
    </clipPath>
  </defs>
  <g id="button_xbox_digital_bumper_light_4" clip-path="url(#clip-button_xbox_digital_bumper_light_4)">
    <g id="Rectangle_49" data-name="Rectangle 49" transform="translate(14 30)" fill="#2a2a2a" stroke="#fff" stroke-width="4">
      <path d="M10,0H60A34,34,0,0,1,94,34V56a4,4,0,0,1-4,4H4a4,4,0,0,1-4-4V10A10,10,0,0,1,10,0Z" stroke="none"/>
      <path d="M10-2H60A36,36,0,0,1,96,34V56a6,6,0,0,1-6,6H4a6,6,0,0,1-6-6V10A12,12,0,0,1,10-2Z" fill="none"/>
    </g>
    <path id="Rectangle_50" data-name="Rectangle 50" d="M10,0H56A34,34,0,0,1,90,34V52a4,4,0,0,1-4,4H4a4,4,0,0,1-4-4V10A10,10,0,0,1,10,0Z" transform="translate(18 30)" fill="#404040"/>
    <path id="Rectangle_52" data-name="Rectangle 52" d="M6,0H52A30,30,0,0,1,82,30V44a4,4,0,0,1-4,4H4a4,4,0,0,1-4-4V6A6,6,0,0,1,6,0Z" transform="translate(26 34)" fill="#5b5b5b"/>
  </g>
</svg>
