<svg xmlns="http://www.w3.org/2000/svg" xmlns:xlink="http://www.w3.org/1999/xlink" width="120" height="120" viewBox="0 0 120 120">
  <defs>
    <clipPath id="clip-button_xbox_digital_back_2">
      <rect width="120" height="120"/>
    </clipPath>
  </defs>
  <g id="button_xbox_digital_back_2" clip-path="url(#clip-button_xbox_digital_back_2)">
    <g id="Rectangle_57" data-name="Rectangle 57" transform="translate(30 47)" fill="#2a2a2a" stroke="#fff" stroke-width="4">
      <rect width="60" height="45" rx="21" stroke="none"/>
      <rect x="-2" y="-2" width="64" height="49" rx="23" fill="none"/>
    </g>
    <g id="Rectangle_58" data-name="Rectangle 58" transform="translate(38 55)" fill="#404040" stroke="#5b5b5b" stroke-width="4">
      <rect width="44" height="29" rx="14.5" stroke="none"/>
      <rect x="-2" y="-2" width="48" height="33" rx="16.5" fill="none"/>
    </g>
    <rect id="Rectangle_59" data-name="Rectangle 59" width="44" height="33" rx="16.5" transform="translate(38 51)" fill="#404040"/>
    <g id="Path_115" data-name="Path 115" transform="translate(60 39)" fill="#2a2a2a" stroke-linejoin="round">
      <path d="M 8.159182548522949 2.195315361022949 C 6.012836456298828 2.195315361022949 4.222450733184814 1.638934850692749 2.818406343460083 0.5385624170303345 L 3.36296272277832 2.00000524520874 L 0.483402818441391 2.00000524520874 L -1.997067213058472 2.00000524520874 L -3.403247117996216 2.00000524520874 L -3.879077196121216 0.6767852902412415 L -4.829020500183105 -1.964844703674316 L -7.465838432312012 -1.964844703674316 L -8.39190673828125 0.6644253134727478 L -8.862317085266113 2.00000524520874 L -10.27831745147705 2.00000524520874 L -12.73925685882568 2.00000524520874 L -15.61881732940674 2.00000524520874 L -15.37570571899414 1.347560048103333 C -16.38248634338379 1.781224846839905 -17.56195068359375 2.00000524520874 -18.9013671875 2.00000524520874 L -24.0576171875 2.00000524520874 L -26.0576171875 2.00000524520874 L -26.0576171875 5.3124999794818e-06 L -26.0576171875 -14.27734470367432 L -26.0576171875 -16.27734375 L -24.0576171875 -16.27734375 L -19.81933784484863 -16.27734375 C -17.43366813659668 -16.27734375 -15.68114757537842 -15.88947486877441 -14.46162700653076 -15.09157466888428 C -13.44958686828613 -14.42942428588867 -12.24316692352295 -13.13056468963623 -12.24316692352295 -10.703125 C -12.24316692352295 -9.571951866149902 -12.52118873596191 -8.57388973236084 -13.07033824920654 -7.730205535888672 C -13.04858684539795 -7.705655574798584 -13.02705001831055 -7.680811405181885 -13.00583744049072 -7.655794620513916 C -12.75769329071045 -7.363155364990234 -12.54827213287354 -7.043556690216064 -12.37784194946289 -6.697892665863037 L -9.271576881408691 -15.03426456451416 L -8.786557197570801 -16.33593559265137 L -7.397457122802734 -16.33593559265137 L -4.858397006988525 -16.33593559265137 L -3.469297170639038 -16.33593559265137 L -2.984277248382568 -15.03426456451416 L -0.315184473991394 -7.871144771575928 C -0.2334427088499069 -9.364389419555664 0.1014103293418884 -10.72109127044678 0.6832928061485291 -11.91272449493408 C 1.402592778205872 -13.3857946395874 2.464892864227295 -14.53446483612061 3.840692758560181 -15.32684421539307 C 5.172022819519043 -16.09363555908203 6.726832866668701 -16.48242378234863 8.461913108825684 -16.48242378234863 C 10.08945178985596 -16.48242378234863 11.62887573242188 -16.15933990478516 13.04394245147705 -15.52143669128418 L 13.04394245147705 -16.27734375 L 15.04394245147705 -16.27734375 L 17.37793350219727 -16.27734375 L 19.37793350219727 -16.27734375 L 19.37793350219727 -14.27734470367432 L 19.37793350219727 -12.92690086364746 L 21.61263275146484 -15.56893444061279 L 22.21182250976563 -16.27734375 L 23.13965225219727 -16.27734375 L 25.79590225219727 -16.27734375 L 30.12444305419922 -16.27734375 L 27.31894302368164 -12.98106479644775 C 25.49247360229492 -10.83507347106934 24.0319881439209 -9.126289367675781 22.95714378356934 -7.87765645980835 L 27.59087371826172 -1.132454633712769 L 29.74277305603027 2.00000524520874 L 25.9423828125 2.00000524520874 L 23.23730278015137 2.00000524520874 L 22.19029235839844 2.00000524520874 L 21.59372329711914 1.139585256576538 L 19.37793350219727 -2.056177139282227 L 19.37793350219727 5.3124999794818e-06 L 19.37793350219727 2.00000524520874 L 17.37793350219727 2.00000524520874 L 15.04394245147705 2.00000524520874 L 13.04394245147705 2.00000524520874 L 13.04394245147705 1.291899800300598 L 12.6747932434082 1.431405305862427 C 11.33348274230957 1.938295364379883 9.814212799072266 2.195315361022949 8.159182548522949 2.195315361022949 Z M 8.4423828125 -10.48046493530273 C 7.511312961578369 -10.48046493530273 7.106752872467041 -10.13522434234619 6.833802700042725 -9.797514915466309 C 6.364122867584229 -9.216384887695313 6.125972747802734 -8.315244674682617 6.125972747802734 -7.119144916534424 C 6.125972747802734 -5.869514465332031 6.351802825927734 -4.93443489074707 6.779032707214355 -4.414974689483643 C 7.015722751617432 -4.127194881439209 7.418673038482666 -3.796874761581421 8.4423828125 -3.796874761581421 C 8.905492782592773 -3.796874761581421 9.356943130493164 -3.842944622039795 9.784213066101074 -3.933794736862183 C 10.28971290588379 -4.041294574737549 10.826003074646 -4.182174682617188 11.37818241119385 -4.352524757385254 L 13.04394245147705 -4.866425514221191 L 13.04394245147705 -9.770219802856445 L 12.68020248413086 -8.928544998168945 L 10.80993270874023 -9.813115119934082 C 10.40906238555908 -10.00271511077881 9.97678279876709 -10.17241477966309 9.525102615356445 -10.31749439239502 C 9.183682441711426 -10.42715454101563 8.829543113708496 -10.48046493530273 8.4423828125 -10.48046493530273 Z M -19.7236270904541 -3.962894678115845 L -19.24316787719727 -3.962894678115845 C -18.69107627868652 -3.962894678115845 -18.41282081604004 -4.044216156005859 -18.29845428466797 -4.091023445129395 C -18.29121208190918 -4.134604454040527 -18.28417778015137 -4.201487064361572 -18.28417778015137 -4.296874523162842 C -18.28417778015137 -4.317607879638672 -18.28469085693359 -4.335939884185791 -18.28551483154297 -4.35199499130249 C -18.42296028137207 -4.40265941619873 -18.7407169342041 -4.484374523162842 -19.36034774780273 -4.484374523162842 L -19.7236270904541 -4.484374523162842 L -19.7236270904541 -3.962894678115845 Z" stroke="none"/>
      <path d="M 8.461912155151367 -14.48242473602295 C 7.075192928314209 -14.48242473602295 5.867512702941895 -14.18619441986084 4.838862895965576 -13.59375476837158 C 3.810222864151001 -13.00130462646484 3.024092674255371 -12.14843463897705 2.480472803115845 -11.03515434265137 C 1.936852812767029 -9.921875 1.665042877197266 -8.623044967651367 1.665042877197266 -7.138674736022949 C 1.665042877197266 -4.781904220581055 2.224932909011841 -2.970375061035156 3.344722747802734 -1.704104423522949 C 4.464522838592529 -0.4378242492675781 6.069332599639893 0.1953153610229492 8.159183502197266 0.1953153610229492 C 9.578453063964844 0.1953153610229492 10.84798240661621 -0.01627445220947266 11.96777248382568 -0.4394550323486328 L 11.96777248382568 -2.441404342651367 C 11.35579299926758 -2.252604484558105 10.76660251617432 -2.097984313964844 10.20019245147705 -1.977534294128418 C 9.633792877197266 -1.857094764709473 9.047853469848633 -1.796875 8.4423828125 -1.796875 C 7.042642593383789 -1.796875 5.973302841186523 -2.246094703674316 5.234373092651367 -3.144535064697266 C 4.495442867279053 -4.042964935302734 4.125972747802734 -5.36783504486084 4.125972747802734 -7.119144916534424 C 4.125972747802734 -8.792314529418945 4.510092735290527 -10.10416412353516 5.278322696685791 -11.05468463897705 C 6.046552658081055 -12.00520515441895 7.101233005523682 -12.48046493530273 8.4423828125 -12.48046493530273 C 9.034832954406738 -12.48046493530273 9.599613189697266 -12.39420509338379 10.13672256469727 -12.22168445587158 C 10.6738224029541 -12.04915428161621 11.18327236175537 -11.84895515441895 11.66504287719727 -11.62109470367432 L 12.5048828125 -13.56445503234863 C 11.26790237426758 -14.17643451690674 9.920243263244629 -14.48242473602295 8.461912155151367 -14.48242473602295 M -7.397457122802734 -14.33593463897705 L -12.73925685882568 -4.76837158203125e-06 L -10.27831745147705 -4.76837158203125e-06 L -8.881836891174316 -3.964844703674316 L -3.422847270965576 -3.964844703674316 L -1.997067213058472 -4.76837158203125e-06 L 0.4834028482437134 -4.76837158203125e-06 L -4.858397006988525 -14.33593463897705 L -7.397457122802734 -14.33593463897705 M -4.038087368011475 -5.976564407348633 L -8.198246955871582 -5.976564407348633 L -6.909176826477051 -9.697264671325684 C -6.570636749267578 -10.64778518676758 -6.313477516174316 -11.52343463897705 -6.137697219848633 -12.32421493530273 C -6.072587013244629 -12.06380462646484 -5.953777313232422 -11.65364456176758 -5.781247138977051 -11.09375476837158 C -5.608726978302002 -10.53385448455811 -5.473637104034424 -10.12369537353516 -5.375977039337158 -9.863285064697266 L -4.038087368011475 -5.976564407348633 M -24.0576171875 -14.27734470367432 L -24.0576171875 -4.76837158203125e-06 L -18.9013671875 -4.76837158203125e-06 C -17.30631637573242 -4.76837158203125e-06 -16.06119728088379 -0.3629550933837891 -15.16601753234863 -1.088864326477051 C -14.27083778381348 -1.814774513244629 -13.82324695587158 -2.819014549255371 -13.82324695587158 -4.101564407348633 C -13.82324695587158 -5.052084922790527 -14.05924701690674 -5.805665016174316 -14.53124809265137 -6.3623046875 C -15.00325775146484 -6.918944835662842 -15.74055671691895 -7.291664600372314 -16.74316787719727 -7.480464458465576 L -16.74316787719727 -7.578124523162842 C -15.93586730957031 -7.721354484558105 -15.31738662719727 -8.069664001464844 -14.88769721984863 -8.623044967651367 C -14.4580078125 -9.176434516906738 -14.24316787719727 -9.869794845581055 -14.24316787719727 -10.703125 C -14.24316787719727 -11.94010448455811 -14.68098640441895 -12.84505462646484 -15.55663681030273 -13.41796493530273 C -16.43228721618652 -13.99088478088379 -17.85318756103516 -14.27734470367432 -19.81933784484863 -14.27734470367432 L -24.0576171875 -14.27734470367432 M -19.47753715515137 -8.378904342651367 L -21.72363662719727 -8.378904342651367 L -21.72363662719727 -12.32421493530273 L -19.70214653015137 -12.32421493530273 C -18.64745712280273 -12.32421493530273 -17.87760734558105 -12.17447471618652 -17.392578125 -11.87500476837158 C -16.90755653381348 -11.57552433013916 -16.66503715515137 -11.09049415588379 -16.66503715515137 -10.41992473602295 C -16.66503715515137 -9.677734375 -16.88964653015137 -9.15201473236084 -17.3388671875 -8.842775344848633 C -17.78808784484863 -8.533524513244629 -18.5009765625 -8.378904342651367 -19.47753715515137 -8.378904342651367 M -19.24316787719727 -1.962894439697266 L -21.72363662719727 -1.962894439697266 L -21.72363662719727 -6.484374523162842 L -19.3603572845459 -6.484374523162842 C -18.32519721984863 -6.484374523162842 -17.55370712280273 -6.305334568023682 -17.04589653015137 -5.947264671325684 C -16.53808784484863 -5.589194297790527 -16.28417778015137 -5.039064407348633 -16.28417778015137 -4.296875 C -16.28417778015137 -3.489584922790527 -16.53320693969727 -2.898764610290527 -17.03124809265137 -2.524415016174316 C -17.529296875 -2.150064468383789 -18.2666072845459 -1.962894439697266 -19.24316787719727 -1.962894439697266 M 15.04394245147705 -14.27734470367432 L 15.04394245147705 -4.76837158203125e-06 L 17.37793350219727 -4.76837158203125e-06 L 17.37793350219727 -5.341794967651367 L 18.7548828125 -6.464844703674316 L 23.23730278015137 -4.76837158203125e-06 L 25.9423828125 -4.76837158203125e-06 L 20.43457221984863 -8.017574310302734 C 21.51530265808105 -9.261064529418945 23.30240249633789 -11.34765434265137 25.7958927154541 -14.27734470367432 L 23.1396427154541 -14.27734470367432 L 19.28222274780273 -9.716794967651367 C 18.65071296691895 -8.994144439697266 18.01595306396484 -8.242184638977051 17.37793350219727 -7.460934638977051 L 17.37793350219727 -14.27734470367432 L 15.04394245147705 -14.27734470367432 M 8.461912155151367 -18.48242568969727 C 10.04311370849609 -18.48242568969727 11.55740928649902 -18.22128486633301 12.98035430908203 -17.70464324951172 C 13.5828218460083 -18.06815147399902 14.28900051116943 -18.27734375 15.04394245147705 -18.27734375 L 17.37793350219727 -18.27734375 C 18.50946998596191 -18.27734375 19.53117370605469 -17.8076000213623 20.25878524780273 -17.0523624420166 C 21.01009750366211 -17.83240699768066 22.04925727844238 -18.27734375 23.1396427154541 -18.27734375 L 25.7958927154541 -18.27734375 C 27.35548210144043 -18.27734375 28.77286338806152 -17.37087440490723 29.42702293395996 -15.95510482788086 C 30.0811824798584 -14.53933429718018 29.85281372070313 -12.87245464324951 28.84198188781738 -11.68478488922119 C 27.52956008911133 -10.14277362823486 26.40537452697754 -8.825643539428711 25.47679901123047 -7.742001533508301 L 29.23937225341797 -2.264925003051758 C 30.080322265625 -1.040774345397949 30.17379188537598 0.5485353469848633 29.48213195800781 1.862825393676758 C 28.79047203063965 3.177125930786133 27.42756271362305 3.999996185302734 25.9423828125 3.999996185302734 L 23.23730278015137 3.999996185302734 C 22.11752891540527 3.999996185302734 21.0584659576416 3.531286239624023 20.30759620666504 2.72344970703125 C 19.57724189758301 3.508745193481445 18.53495407104492 3.999996185302734 17.37793350219727 3.999996185302734 L 15.04394245147705 3.999996185302734 C 14.29736042022705 3.999996185302734 13.59853076934814 3.795446395874023 13.0004711151123 3.439352035522461 C 11.53072261810303 3.941135406494141 9.904207229614258 4.195314407348633 8.159183502197266 4.195314407348633 C 6.039920330047607 4.195314407348633 4.368688106536865 3.718637466430664 3.068156242370605 3.052776336669922 C 2.354116439819336 3.657285690307617 1.440958261489868 3.999996185302734 0.4834028482437134 3.999996185302734 L -1.997067213058472 3.999996185302734 C -3.684317111968994 3.999996185302734 -5.190137386322021 2.941274642944336 -5.761087417602539 1.353555679321289 L -6.141552925109863 0.2955474853515625 L -6.505496978759766 1.328845024108887 C -7.069216728210449 2.929346084594727 -8.581437110900879 3.999996185302734 -10.27831745147705 3.999996185302734 L -12.73925685882568 3.999996185302734 C -13.53660678863525 3.999996185302734 -14.30314826965332 3.762382507324219 -14.94960403442383 3.333839416503906 C -16.11732864379883 3.776756286621094 -17.43833160400391 3.999996185302734 -18.9013671875 3.999996185302734 L -24.0576171875 3.999996185302734 C -26.26675796508789 3.999996185302734 -28.0576171875 2.209135055541992 -28.0576171875 -4.76837158203125e-06 L -28.0576171875 -14.27734470367432 C -28.0576171875 -16.48648452758789 -26.26675796508789 -18.27734375 -24.0576171875 -18.27734375 L -19.81933784484863 -18.27734375 C -17.03251647949219 -18.27734375 -14.92181777954102 -17.78271484375 -13.36662673950195 -16.76517486572266 C -12.59237384796143 -16.25860977172852 -11.95192527770996 -15.62878322601318 -11.45670604705811 -14.89795875549316 L -11.14570713043213 -15.73259449005127 C -10.5624475479126 -17.29789543151855 -9.067896842956543 -18.33593368530273 -7.397457122802734 -18.33593368530273 L -4.858397006988525 -18.33593368530273 C -3.187957286834717 -18.33593368530273 -1.693407297134399 -17.29789543151855 -1.11014723777771 -15.73259449005127 L -0.4493837356567383 -13.95928573608398 C 0.3968379497528076 -15.2468376159668 1.499964475631714 -16.28671264648438 2.842492818832397 -17.05994415283203 C 4.481372833251953 -18.00384521484375 6.372002601623535 -18.48242568969727 8.461912155151367 -18.48242568969727 Z M 11.04394245147705 -7.66959285736084 C 10.67013263702393 -7.728329658508301 10.30327129364014 -7.84033203125 9.954822540283203 -8.005134582519531 C 9.632652282714844 -8.157514572143555 9.282262802124023 -8.294855117797852 8.913393020629883 -8.413345336914063 C 8.772802352905273 -8.458504676818848 8.61871337890625 -8.480464935302734 8.4423828125 -8.480464935302734 C 8.405000686645508 -8.480464935302734 8.373858451843262 -8.479215621948242 8.348487854003906 -8.477444648742676 C 8.25147819519043 -8.29963493347168 8.125972747802734 -7.872115612030029 8.125972747802734 -7.119144916534424 C 8.125972747802734 -6.389802932739258 8.218349456787109 -5.990374565124512 8.281368255615234 -5.802766799926758 C 8.324741363525391 -5.79930591583252 8.378085136413574 -5.796875 8.4423828125 -5.796875 C 8.765953063964844 -5.796875 9.077452659606934 -5.828225135803223 9.368232727050781 -5.890054702758789 C 9.815433502197266 -5.98515510559082 10.29333305358887 -6.110855102539063 10.78858280181885 -6.263644218444824 C 10.87323951721191 -6.289761066436768 10.95839500427246 -6.312958717346191 11.04394245147705 -6.333273410797119 L 11.04394245147705 -7.66959285736084 Z" stroke="none" fill="#fff"/>
    </g>
    <path id="Polygon_8" data-name="Polygon 8" d="M9.106,1.789a1,1,0,0,1,1.789,0l8.382,16.764A1,1,0,0,1,18.382,20H1.618a1,1,0,0,1-.894-1.447Z" transform="translate(46 78) rotate(-90)" fill="#fff"/>
  </g>
</svg>
