<svg xmlns="http://www.w3.org/2000/svg" xmlns:xlink="http://www.w3.org/1999/xlink" width="120" height="120" viewBox="0 0 120 120">
  <defs>
    <clipPath id="clip-button_xbox_analog_trigger_dark_2">
      <rect width="120" height="120"/>
    </clipPath>
  </defs>
  <g id="button_xbox_analog_trigger_dark_2" clip-path="url(#clip-button_xbox_analog_trigger_dark_2)">
    <g id="Rectangle_49" data-name="Rectangle 49" transform="translate(30 105) rotate(-90)" fill="#2a2a2a" stroke="#fff" stroke-width="4">
      <path d="M20,0H82a4,4,0,0,1,4,4V56a4,4,0,0,1-4,4H20A20,20,0,0,1,0,40V20A20,20,0,0,1,20,0Z" stroke="none"/>
      <path d="M20-2H82a6,6,0,0,1,6,6V56a6,6,0,0,1-6,6H20A22,22,0,0,1-2,40V20A22,22,0,0,1,20-2Z" fill="none"/>
    </g>
    <path id="Rectangle_50" data-name="Rectangle 50" d="M20,0H78a4,4,0,0,1,4,4V52a4,4,0,0,1-4,4H20A20,20,0,0,1,0,36V20A20,20,0,0,1,20,0Z" transform="translate(34 101) rotate(-90)" fill="#404040"/>
    <path id="Path_147" data-name="Path 147" d="M-5.58,0l-4.59-8.01h-1.17V0h-5.13V-21.21h8.76a9.457,9.457,0,0,1,4.26.87A6.008,6.008,0,0,1-.84-17.955,6.832,6.832,0,0,1,.03-14.49a6.159,6.159,0,0,1-1.275,3.93,6.517,6.517,0,0,1-3.7,2.22L.09,0Zm-5.76-11.52h3.18A3.2,3.2,0,0,0-5.91-12.2a2.605,2.605,0,0,0,.72-1.995,2.645,2.645,0,0,0-.735-1.98,3.08,3.08,0,0,0-2.235-.72h-3.18Zm29.19-9.69v4.08H12.09V0H6.93V-17.13H1.23v-4.08Z" transform="translate(62 57)" fill="#fff" opacity="0.5"/>
  </g>
</svg>
