<svg xmlns="http://www.w3.org/2000/svg" xmlns:xlink="http://www.w3.org/1999/xlink" width="120" height="120" viewBox="0 0 120 120">
  <defs>
    <clipPath id="clip-button_xbox_digital_bumper_light_3">
      <rect width="120" height="120"/>
    </clipPath>
  </defs>
  <g id="button_xbox_digital_bumper_light_3" clip-path="url(#clip-button_xbox_digital_bumper_light_3)">
    <g id="Rectangle_49" data-name="Rectangle 49" transform="translate(14 30)" fill="#2a2a2a" stroke="#fff" stroke-width="4">
      <path d="M34,0H86a8,8,0,0,1,8,8V56a4,4,0,0,1-4,4H4a4,4,0,0,1-4-4V34A34,34,0,0,1,34,0Z" stroke="none"/>
      <path d="M34-2H86A10,10,0,0,1,96,8V56a6,6,0,0,1-6,6H4a6,6,0,0,1-6-6V34A36,36,0,0,1,34-2Z" fill="none"/>
    </g>
    <path id="Rectangle_50" data-name="Rectangle 50" d="M34,0H82a8,8,0,0,1,8,8V52a4,4,0,0,1-4,4H4a4,4,0,0,1-4-4V34A34,34,0,0,1,34,0Z" transform="translate(14 30)" fill="#404040"/>
    <path id="Rectangle_52" data-name="Rectangle 52" d="M30,0H76a6,6,0,0,1,6,6V44a4,4,0,0,1-4,4H4a4,4,0,0,1-4-4V30A30,30,0,0,1,30,0Z" transform="translate(14 34)" fill="#5b5b5b"/>
  </g>
</svg>
