<svg xmlns="http://www.w3.org/2000/svg" xmlns:xlink="http://www.w3.org/1999/xlink" width="120" height="120" viewBox="0 0 120 120">
  <defs>
    <clipPath id="clip-button_xboxone_dpad_light_3">
      <rect width="120" height="120"/>
    </clipPath>
  </defs>
  <g id="button_xboxone_dpad_light_3" clip-path="url(#clip-button_xboxone_dpad_light_3)">
    <g id="Subtraction_43" data-name="Subtraction 43" transform="translate(3972 1005)" fill="#2a2a2a">
      <path d="M -3912.00048828125 -913.0004272460938 C -3917.44580078125 -913.0004272460938 -3922.744873046875 -914.0277709960938 -3927.75048828125 -916.0540161132813 L -3929 -916.559814453125 L -3929 -917.9078979492188 L -3929 -937.9992065429688 C -3929.0009765625 -938.000244140625 -3929.002197265625 -938.0013427734375 -3929.0029296875 -938.0017700195313 L -3949.092529296875 -938.0004272460938 L -3950.440673828125 -938.0004272460938 L -3950.9462890625 -939.25 C -3952.97265625 -944.2555541992188 -3954 -949.5546264648438 -3954 -955.0000610351563 C -3954 -960.4456787109375 -3952.97265625 -965.7451171875 -3950.946044921875 -970.7510986328125 L -3950.4404296875 -972.0006713867188 L -3949.09228515625 -972.0006713867188 L -3929.00048828125 -972.0006713867188 C -3929.00048828125 -972.0008544921875 -3929.000244140625 -972.001220703125 -3929 -972.0016479492188 L -3929 -992.0930786132813 L -3929 -993.441162109375 L -3927.75048828125 -993.9469604492188 C -3922.74462890625 -995.9732666015625 -3917.445556640625 -997.0006713867188 -3912.00048828125 -997.0006713867188 C -3906.55517578125 -997.0006713867188 -3901.255859375 -995.97314453125 -3896.249267578125 -993.9465942382813 L -3894.999755859375 -993.4407958984375 L -3894.999755859375 -992.0927124023438 L -3894.999755859375 -972.0010375976563 C -3894.999755859375 -972.0010375976563 -3894.999755859375 -972.0010375976563 -3894.999755859375 -972.0010375976563 C -3894.99951171875 -972.0010375976563 -3894.999267578125 -972.0009155273438 -3894.9990234375 -972.000732421875 L -3874.90771484375 -972.0006713867188 L -3873.5595703125 -972.0006713867188 L -3873.053955078125 -970.7510986328125 C -3871.02734375 -965.7449340820313 -3869.999755859375 -960.4454956054688 -3869.999755859375 -955.0000610351563 C -3869.999755859375 -949.5549926757813 -3871.027099609375 -944.2559204101563 -3873.0537109375 -939.25 L -3873.559326171875 -938.0004272460938 L -3874.907470703125 -938.0004272460938 L -3894.998779296875 -938.0004272460938 C -3894.999755859375 -937.99951171875 -3895.000732421875 -937.9983520507813 -3895.001220703125 -937.99755859375 L -3894.999755859375 -917.908203125 L -3894.999755859375 -916.5601196289063 L -3896.249267578125 -916.0543212890625 C -3901.255859375 -914.0278930664063 -3906.555419921875 -913.0004272460938 -3912.00048828125 -913.0004272460938 Z" stroke="none"/>
      <path d="M -3912.00048828125 -915.0004272460938 C -3906.814453125 -915.0004272460938 -3901.767578125 -915.9783935546875 -3896.999755859375 -917.908203125 L -3896.999755859375 -938.0007934570313 C -3896.999755859375 -939.1033935546875 -3896.102783203125 -940.0004272460938 -3895.000244140625 -940.0004272460938 L -3874.907470703125 -940.0004272460938 C -3872.97802734375 -944.7669067382813 -3871.999755859375 -949.8134765625 -3871.999755859375 -955.0000610351563 C -3871.999755859375 -960.1864624023438 -3872.977783203125 -965.233154296875 -3874.90771484375 -970.0006713867188 L -3895.000244140625 -970.0006713867188 C -3896.102783203125 -970.0006713867188 -3896.999755859375 -970.897705078125 -3896.999755859375 -972.0003051757813 L -3896.999755859375 -992.0927124023438 C -3901.766845703125 -994.0223388671875 -3906.81396484375 -995.0006713867188 -3912.00048828125 -995.0006713867188 C -3917.1865234375 -995.0006713867188 -3922.23291015625 -994.0227661132813 -3927 -992.0930786132813 L -3927 -972.0003051757813 C -3927 -970.897705078125 -3927.897216796875 -970.0006713867188 -3928.999755859375 -970.0006713867188 L -3949.09228515625 -970.0006713867188 C -3951.021728515625 -965.234130859375 -3952 -960.1871948242188 -3952 -955.0000610351563 C -3952 -949.8139038085938 -3951.022216796875 -944.7675170898438 -3949.092529296875 -940.0004272460938 L -3928.999755859375 -940.0004272460938 C -3927.897216796875 -940.0004272460938 -3927 -939.1033935546875 -3927 -938.0007934570313 L -3927 -917.9078979492188 C -3922.23388671875 -915.9786376953125 -3917.187255859375 -915.0004272460938 -3912.00048828125 -915.0004272460938 M -3912.00048828125 -911.0004272460938 C -3917.7041015625 -911.0004272460938 -3923.255615234375 -912.0769653320313 -3928.500732421875 -914.2001342773438 L -3931 -915.2117919921875 L -3931 -917.9078979492188 L -3931 -936.0004272460938 L -3949.092529296875 -936.0004272460938 L -3951.78857421875 -936.0004272460938 L -3952.80029296875 -938.4995727539063 C -3954.92333984375 -943.7446899414063 -3956 -949.2962646484375 -3956 -955.0000610351563 C -3956 -960.7041015625 -3954.92333984375 -966.2559814453125 -3952.800048828125 -971.5015258789063 L -3951.788330078125 -974.0006713867188 L -3949.09228515625 -974.0006713867188 L -3931 -974.0006713867188 L -3931 -992.0930786132813 L -3931 -994.7891845703125 L -3928.5009765625 -995.8008422851563 C -3923.255615234375 -997.924072265625 -3917.7041015625 -999.0006713867188 -3912.00048828125 -999.0006713867188 C -3906.296875 -999.0006713867188 -3900.744873046875 -997.9239501953125 -3895.4990234375 -995.8004760742188 L -3892.999755859375 -994.7888793945313 L -3892.999755859375 -992.0927124023438 L -3892.999755859375 -974.0006713867188 L -3874.90771484375 -974.0006713867188 L -3872.211669921875 -974.0006713867188 L -3871.199951171875 -971.5015869140625 C -3869.076416015625 -966.255859375 -3867.999755859375 -960.7039184570313 -3867.999755859375 -955.0000610351563 C -3867.999755859375 -949.296630859375 -3869.076416015625 -943.7450561523438 -3871.19970703125 -938.4995727539063 L -3872.21142578125 -936.0004272460938 L -3874.907470703125 -936.0004272460938 L -3892.999755859375 -936.0004272460938 L -3892.999755859375 -917.908203125 L -3892.999755859375 -915.2120361328125 L -3895.4990234375 -914.200439453125 C -3900.744873046875 -912.0770263671875 -3906.296875 -911.0004272460938 -3912.00048828125 -911.0004272460938 Z" stroke="none" fill="#fff"/>
    </g>
    <g id="Subtraction_45" data-name="Subtraction 45" transform="translate(3972 1009)" fill="#404040">
      <path d="M -3912.00048828125 -925.0006713867188 C -3915.060302734375 -925.0006713867188 -3918.08056640625 -925.4049682617188 -3920.99951171875 -926.2039184570313 L -3920.99951171875 -944.0001220703125 C -3920.99951171875 -947.3087158203125 -3923.691162109375 -950.0004272460938 -3926.999755859375 -950.0004272460938 L -3944.796630859375 -950.0004272460938 C -3945.595703125 -952.9193725585938 -3946.000244140625 -955.9403076171875 -3946.000244140625 -959.0005493164063 C -3946.000244140625 -962.0603637695313 -3945.595703125 -965.0813598632813 -3944.796630859375 -968.000732421875 L -3926.999755859375 -968.000732421875 C -3923.691162109375 -968.000732421875 -3920.99951171875 -970.6920166015625 -3920.99951171875 -974.0000610351563 L -3920.99951171875 -991.7971801757813 C -3918.08056640625 -992.5961303710938 -3915.06005859375 -993.00048828125 -3912.00048828125 -993.00048828125 C -3908.940673828125 -993.00048828125 -3905.919677734375 -992.5960693359375 -3903.000244140625 -991.7969970703125 L -3903.000244140625 -974.0000610351563 C -3903.000244140625 -970.6920166015625 -3900.30859375 -968.000732421875 -3897 -968.000732421875 L -3879.203125 -968.000732421875 C -3878.404052734375 -965.0812377929688 -3877.99951171875 -962.0601806640625 -3877.99951171875 -959.0005493164063 C -3877.99951171875 -955.9411010742188 -3878.40380859375 -952.92041015625 -3879.203125 -950.0004272460938 L -3897 -950.0004272460938 C -3900.30859375 -950.0004272460938 -3903.000244140625 -947.3087158203125 -3903.000244140625 -944.0001220703125 L -3903.000244140625 -926.2041015625 C -3905.919677734375 -925.4050903320313 -3908.9404296875 -925.0006713867188 -3912.00048828125 -925.0006713867188 Z" stroke="none"/>
      <path d="M -3912.00048828125 -927.0006713867188 C -3909.630615234375 -927.0006713867188 -3907.28662109375 -927.258056640625 -3905.000244140625 -927.767822265625 L -3905.000244140625 -944.0001220703125 C -3905.000244140625 -948.4114990234375 -3901.411376953125 -952.0004272460938 -3897 -952.0004272460938 L -3880.766845703125 -952.0004272460938 C -3880.257080078125 -954.2869873046875 -3879.99951171875 -956.6312866210938 -3879.99951171875 -959.0005493164063 C -3879.99951171875 -961.3701171875 -3880.2568359375 -963.71435546875 -3880.766845703125 -966.000732421875 L -3897 -966.000732421875 C -3901.411376953125 -966.000732421875 -3905.000244140625 -969.5892333984375 -3905.000244140625 -974.0000610351563 L -3905.000244140625 -990.2332763671875 C -3907.28662109375 -990.7431030273438 -3909.630615234375 -991.00048828125 -3912.00048828125 -991.00048828125 C -3914.369873046875 -991.00048828125 -3916.713623046875 -990.7431030273438 -3918.99951171875 -990.2334594726563 L -3918.99951171875 -974.0000610351563 C -3918.99951171875 -969.5892333984375 -3922.58837890625 -966.000732421875 -3926.999755859375 -966.000732421875 L -3943.23291015625 -966.000732421875 C -3943.742919921875 -963.7144165039063 -3944.000244140625 -961.3703002929688 -3944.000244140625 -959.0005493164063 C -3944.000244140625 -956.6306762695313 -3943.742919921875 -954.2863159179688 -3943.233154296875 -952.0004272460938 L -3926.999755859375 -952.0004272460938 C -3922.58837890625 -952.0004272460938 -3918.99951171875 -948.4114990234375 -3918.99951171875 -944.0001220703125 L -3918.99951171875 -927.7676391601563 C -3916.713623046875 -927.2579956054688 -3914.369873046875 -927.0006713867188 -3912.00048828125 -927.0006713867188 M -3912.00048828125 -923.0006713867188 C -3915.756103515625 -923.0006713867188 -3919.45654296875 -923.576416015625 -3922.99951171875 -924.7119750976563 L -3922.99951171875 -944.0001220703125 C -3922.99951171875 -946.2058715820313 -3924.7939453125 -948.0004272460938 -3926.999755859375 -948.0004272460938 L -3946.28857421875 -948.0004272460938 C -3947.4248046875 -951.5447387695313 -3948.000244140625 -955.2454833984375 -3948.000244140625 -959.0005493164063 C -3948.000244140625 -962.75634765625 -3947.42431640625 -966.4573364257813 -3946.28857421875 -970.000732421875 L -3926.999755859375 -970.000732421875 C -3924.7939453125 -970.000732421875 -3922.99951171875 -971.7948608398438 -3922.99951171875 -974.0000610351563 L -3922.99951171875 -993.2891235351563 C -3919.455322265625 -994.425048828125 -3915.755126953125 -995.00048828125 -3912.00048828125 -995.00048828125 C -3908.244873046875 -995.00048828125 -3904.543701171875 -994.4246215820313 -3901.000244140625 -993.2889404296875 L -3901.000244140625 -974.0000610351563 C -3901.000244140625 -971.7948608398438 -3899.205810546875 -970.000732421875 -3897 -970.000732421875 L -3877.711181640625 -970.000732421875 C -3876.574951171875 -966.45556640625 -3875.99951171875 -962.7547607421875 -3875.99951171875 -959.0005493164063 C -3875.99951171875 -955.2454833984375 -3876.575439453125 -951.5444946289063 -3877.711181640625 -948.0004272460938 L -3897 -948.0004272460938 C -3899.205810546875 -948.0004272460938 -3901.000244140625 -946.2058715820313 -3901.000244140625 -944.0001220703125 L -3901.000244140625 -924.712158203125 C -3904.544677734375 -923.576171875 -3908.245361328125 -923.0006713867188 -3912.00048828125 -923.0006713867188 Z" stroke="none" fill="#404040"/>
    </g>
    <path id="Subtraction_46" data-name="Subtraction 46" d="M-3912-927a37.932,37.932,0,0,1-11-1.616V-947a4,4,0,0,0-4-4h-19.418A32.272,32.272,0,0,1-3948-961a32.31,32.31,0,0,1,1.275-9H-3927a4,4,0,0,0,4-4v-19.384A37.927,37.927,0,0,1-3912-995a37.936,37.936,0,0,1,11,1.617V-974a4,4,0,0,0,4,4h19.726a32.312,32.312,0,0,1,1.275,9,32.278,32.278,0,0,1-1.582,10H-3897a4,4,0,0,0-4,4v18.384A37.934,37.934,0,0,1-3912-927Z" transform="translate(3972 1009)" fill="#5b5b5b"/>
    <path id="Polygon_6" data-name="Polygon 6" d="M16,0,32,16H0Z" transform="translate(76 114) rotate(180)" fill="#fff"/>
    <path id="Subtraction_48" data-name="Subtraction 48" d="M-4966-996a36.917,36.917,0,0,1-11-1.663V-1015a4,4,0,0,0-1.358-3h24.714a4,4,0,0,0-1.357,3v17.336A36.933,36.933,0,0,1-4966-996Z" transform="translate(5026 1080)" fill="#404040"/>
    <rect id="Rectangle_196" data-name="Rectangle 196" width="22" height="2" rx="1" transform="translate(49 61)" fill="#5b5b5b"/>
  </g>
</svg>
