<svg xmlns="http://www.w3.org/2000/svg" xmlns:xlink="http://www.w3.org/1999/xlink" width="120" height="120" viewBox="0 0 120 120">
  <defs>
    <clipPath id="clip-button_xbox_analog_trigger_dark_1">
      <rect width="120" height="120"/>
    </clipPath>
  </defs>
  <g id="button_xbox_analog_trigger_dark_1" clip-path="url(#clip-button_xbox_analog_trigger_dark_1)">
    <g id="Rectangle_49" data-name="Rectangle 49" transform="translate(30 105) rotate(-90)" fill="#2a2a2a" stroke="#fff" stroke-width="4">
      <path d="M20,0H82a4,4,0,0,1,4,4V56a4,4,0,0,1-4,4H20A20,20,0,0,1,0,40V20A20,20,0,0,1,20,0Z" stroke="none"/>
      <path d="M20-2H82a6,6,0,0,1,6,6V56a6,6,0,0,1-6,6H20A22,22,0,0,1-2,40V20A22,22,0,0,1,20-2Z" fill="none"/>
    </g>
    <path id="Rectangle_50" data-name="Rectangle 50" d="M20,0H78a4,4,0,0,1,4,4V52a4,4,0,0,1-4,4H20A20,20,0,0,1,0,36V20A20,20,0,0,1,20,0Z" transform="translate(30 101) rotate(-90)" fill="#404040"/>
    <path id="Path_146" data-name="Path 146" d="M-8.97-3.93h6.84V0H-14.1V-21.21h5.13ZM15.48-21.21v4.08H9.72V0H4.56V-17.13h-5.7v-4.08Z" transform="translate(58 57)" fill="#fff" opacity="0.5"/>
  </g>
</svg>
