<svg xmlns="http://www.w3.org/2000/svg" xmlns:xlink="http://www.w3.org/1999/xlink" width="120" height="120" viewBox="0 0 120 120">
  <defs>
    <clipPath id="clip-button_xbox_dpad_light_3">
      <rect width="120" height="120"/>
    </clipPath>
  </defs>
  <g id="button_xbox_dpad_light_3" clip-path="url(#clip-button_xbox_dpad_light_3)">
    <circle id="Ellipse_45" data-name="Ellipse 45" cx="42" cy="42" r="42" transform="translate(18 8)" fill="#2a2a2a" stroke="#fff" stroke-width="4"/>
    <g id="Subtraction_45" data-name="Subtraction 45" transform="translate(3972 1009)" fill="#404040">
      <path d="M -3912.00048828125 -925.0006713867188 C -3915.060302734375 -925.0006713867188 -3918.08056640625 -925.4049682617188 -3920.99951171875 -926.2039184570313 L -3920.99951171875 -944.0001220703125 C -3920.99951171875 -947.3087158203125 -3923.691162109375 -950.0004272460938 -3926.999755859375 -950.0004272460938 L -3944.796630859375 -950.0004272460938 C -3945.595703125 -952.9193725585938 -3946.000244140625 -955.9403076171875 -3946.000244140625 -959.0005493164063 C -3946.000244140625 -962.0603637695313 -3945.595703125 -965.0813598632813 -3944.796630859375 -968.000732421875 L -3926.999755859375 -968.000732421875 C -3923.691162109375 -968.000732421875 -3920.99951171875 -970.6920166015625 -3920.99951171875 -974.0000610351563 L -3920.99951171875 -991.7971801757813 C -3918.08056640625 -992.5961303710938 -3915.06005859375 -993.00048828125 -3912.00048828125 -993.00048828125 C -3908.940673828125 -993.00048828125 -3905.919677734375 -992.5960693359375 -3903.000244140625 -991.7969970703125 L -3903.000244140625 -974.0000610351563 C -3903.000244140625 -970.6920166015625 -3900.30859375 -968.000732421875 -3897 -968.000732421875 L -3879.203125 -968.000732421875 C -3878.404052734375 -965.0812377929688 -3877.99951171875 -962.0601806640625 -3877.99951171875 -959.0005493164063 C -3877.99951171875 -955.9411010742188 -3878.40380859375 -952.92041015625 -3879.203125 -950.0004272460938 L -3897 -950.0004272460938 C -3900.30859375 -950.0004272460938 -3903.000244140625 -947.3087158203125 -3903.000244140625 -944.0001220703125 L -3903.000244140625 -926.2041015625 C -3905.919677734375 -925.4050903320313 -3908.9404296875 -925.0006713867188 -3912.00048828125 -925.0006713867188 Z" stroke="none"/>
      <path d="M -3912.00048828125 -927.0006713867188 C -3909.630615234375 -927.0006713867188 -3907.28662109375 -927.258056640625 -3905.000244140625 -927.767822265625 L -3905.000244140625 -944.0001220703125 C -3905.000244140625 -948.4114990234375 -3901.411376953125 -952.0004272460938 -3897 -952.0004272460938 L -3880.766845703125 -952.0004272460938 C -3880.257080078125 -954.2869873046875 -3879.99951171875 -956.6312866210938 -3879.99951171875 -959.0005493164063 C -3879.99951171875 -961.3701171875 -3880.2568359375 -963.71435546875 -3880.766845703125 -966.000732421875 L -3897 -966.000732421875 C -3901.411376953125 -966.000732421875 -3905.000244140625 -969.5892333984375 -3905.000244140625 -974.0000610351563 L -3905.000244140625 -990.2332763671875 C -3907.28662109375 -990.7431030273438 -3909.630615234375 -991.00048828125 -3912.00048828125 -991.00048828125 C -3914.369873046875 -991.00048828125 -3916.713623046875 -990.7431030273438 -3918.99951171875 -990.2334594726563 L -3918.99951171875 -974.0000610351563 C -3918.99951171875 -969.5892333984375 -3922.58837890625 -966.000732421875 -3926.999755859375 -966.000732421875 L -3943.23291015625 -966.000732421875 C -3943.742919921875 -963.7144165039063 -3944.000244140625 -961.3703002929688 -3944.000244140625 -959.0005493164063 C -3944.000244140625 -956.6306762695313 -3943.742919921875 -954.2863159179688 -3943.233154296875 -952.0004272460938 L -3926.999755859375 -952.0004272460938 C -3922.58837890625 -952.0004272460938 -3918.99951171875 -948.4114990234375 -3918.99951171875 -944.0001220703125 L -3918.99951171875 -927.7676391601563 C -3916.713623046875 -927.2579956054688 -3914.369873046875 -927.0006713867188 -3912.00048828125 -927.0006713867188 M -3912.00048828125 -923.0006713867188 C -3915.756103515625 -923.0006713867188 -3919.45654296875 -923.576416015625 -3922.99951171875 -924.7119750976563 L -3922.99951171875 -944.0001220703125 C -3922.99951171875 -946.2058715820313 -3924.7939453125 -948.0004272460938 -3926.999755859375 -948.0004272460938 L -3946.28857421875 -948.0004272460938 C -3947.4248046875 -951.5447387695313 -3948.000244140625 -955.2454833984375 -3948.000244140625 -959.0005493164063 C -3948.000244140625 -962.75634765625 -3947.42431640625 -966.4573364257813 -3946.28857421875 -970.000732421875 L -3926.999755859375 -970.000732421875 C -3924.7939453125 -970.000732421875 -3922.99951171875 -971.7948608398438 -3922.99951171875 -974.0000610351563 L -3922.99951171875 -993.2891235351563 C -3919.455322265625 -994.425048828125 -3915.755126953125 -995.00048828125 -3912.00048828125 -995.00048828125 C -3908.244873046875 -995.00048828125 -3904.543701171875 -994.4246215820313 -3901.000244140625 -993.2889404296875 L -3901.000244140625 -974.0000610351563 C -3901.000244140625 -971.7948608398438 -3899.205810546875 -970.000732421875 -3897 -970.000732421875 L -3877.711181640625 -970.000732421875 C -3876.574951171875 -966.45556640625 -3875.99951171875 -962.7547607421875 -3875.99951171875 -959.0005493164063 C -3875.99951171875 -955.2454833984375 -3876.575439453125 -951.5444946289063 -3877.711181640625 -948.0004272460938 L -3897 -948.0004272460938 C -3899.205810546875 -948.0004272460938 -3901.000244140625 -946.2058715820313 -3901.000244140625 -944.0001220703125 L -3901.000244140625 -924.712158203125 C -3904.544677734375 -923.576171875 -3908.245361328125 -923.0006713867188 -3912.00048828125 -923.0006713867188 Z" stroke="none" fill="#404040"/>
    </g>
    <path id="Subtraction_46" data-name="Subtraction 46" d="M-3912-927a37.932,37.932,0,0,1-11-1.616V-947a4,4,0,0,0-4-4h-19.418A32.272,32.272,0,0,1-3948-961a32.31,32.31,0,0,1,1.275-9H-3927a4,4,0,0,0,4-4v-19.384A37.927,37.927,0,0,1-3912-995a37.936,37.936,0,0,1,11,1.617V-974a4,4,0,0,0,4,4h19.726a32.312,32.312,0,0,1,1.275,9,32.278,32.278,0,0,1-1.582,10H-3897a4,4,0,0,0-4,4v18.384A37.934,37.934,0,0,1-3912-927Z" transform="translate(3972 1009)" fill="#5b5b5b"/>
    <path id="Polygon_6" data-name="Polygon 6" d="M16,0,32,16H0Z" transform="translate(76 114) rotate(180)" fill="#fff"/>
    <path id="Subtraction_48" data-name="Subtraction 48" d="M-4966-996a36.917,36.917,0,0,1-11-1.663V-1015a4,4,0,0,0-1.358-3h24.714a4,4,0,0,0-1.357,3v17.336A36.933,36.933,0,0,1-4966-996Z" transform="translate(5026 1080)" fill="#404040"/>
    <rect id="Rectangle_196" data-name="Rectangle 196" width="22" height="2" rx="1" transform="translate(49 61)" fill="#5b5b5b"/>
  </g>
</svg>
