<?xml version="1.0" encoding="utf-8"?>
<!-- Generator: Adobe Illustrator 16.0.5, SVG Export Plug-In . SVG Version: 6.00 Build 0)  -->
<!DOCTYPE svg PUBLIC "-//W3C//DTD SVG 1.1//EN" "http://www.w3.org/Graphics/SVG/1.1/DTD/svg11.dtd">
<svg version="1.1" id="Layer_1" xmlns="http://www.w3.org/2000/svg" xmlns:xlink="http://www.w3.org/1999/xlink" x="0px" y="0px"
	 width="16px" height="16px" viewBox="0 0 16 16" enable-background="new 0 0 16 16" xml:space="preserve">
<g>
	<path fill="none" stroke="#CCCCCC" stroke-width="0.5275" stroke-linecap="round" stroke-miterlimit="10" d="M15.691,1.19
		c0-0.275-0.225-0.5-0.5-0.5H5.482c-0.275,0-0.644,0.173-0.818,0.385L1.127,5.354c-0.175,0.212-0.318,0.61-0.318,0.885v8.571
		c0,0.275,0.225,0.5,0.5,0.5h9.71c0.275,0,0.644-0.174,0.818-0.386l3.535-4.278c0.175-0.212,0.318-0.61,0.318-0.886V1.19z"/>
</g>
<polyline fill="none" stroke="#CCCCCC" stroke-width="0.5275" stroke-miterlimit="10" points="15.691,0.69 11.52,5.739 0.809,5.739 
	"/>
<line fill="none" stroke="#CCCCCC" stroke-width="0.5275" stroke-miterlimit="10" x1="11.52" y1="5.739" x2="11.52" y2="15.311"/>
<g>
	<path fill="#87FF8A" d="M3.351,7.75c0-0.608,0.431-0.857,0.958-0.553l4.808,2.774c0.527,0.305,0.527,0.803,0,1.107l-4.808,2.773
		c-0.527,0.306-0.958,0.057-0.958-0.553V7.75z"/>
</g>
<g>
	<polygon fill="none" points="10.227,5.739 0.761,5.739 6.226,0.69 15.691,0.69 	"/>
	<path fill="#CCCCCC" d="M8.581,1.832C8.152,2.227,7.205,2.547,6.463,2.547c-0.742,0-0.996-0.32-0.567-0.716
		c0.428-0.396,1.375-0.716,2.117-0.716C8.754,1.115,9.008,1.436,8.581,1.832z"/>
	<path fill="#CCCCCC" d="M13.365,1.832c-0.428,0.396-1.375,0.716-2.115,0.716c-0.742,0-0.996-0.32-0.568-0.716
		s1.375-0.716,2.117-0.716S13.795,1.436,13.365,1.832z"/>
	<path fill="#CCCCCC" d="M10.543,4.439c-0.428,0.396-1.375,0.716-2.117,0.716c-0.741,0-0.996-0.32-0.567-0.716
		c0.429-0.396,1.375-0.716,2.118-0.716C10.717,3.724,10.973,4.044,10.543,4.439z"/>
	<path fill="#CCCCCC" d="M5.757,4.439C5.33,4.835,4.382,5.155,3.64,5.155c-0.741,0-0.995-0.32-0.567-0.716
		C3.501,4.044,4.449,3.724,5.19,3.724C5.932,3.724,6.186,4.044,5.757,4.439z"/>
</g>
<g>
	<polygon fill="none" points="15.691,0.72 11.52,6.06 11.52,15.311 15.691,9.971 	"/>
	<path fill="#CCCCCC" d="M15.211,8.494c0-0.725-0.266-0.974-0.592-0.555c-0.327,0.418-0.592,1.344-0.592,2.068
		s0.265,0.974,0.592,0.556C14.945,10.145,15.211,9.219,15.211,8.494z"/>
	<path fill="#CCCCCC" d="M14.197,7.258c0-0.725-0.266-0.974-0.592-0.555c-0.328,0.418-0.592,1.345-0.592,2.068
		c0,0.725,0.264,0.974,0.592,0.556C13.932,8.908,14.197,7.982,14.197,7.258z"/>
	<path fill="#CCCCCC" d="M13.102,6.416c0-0.725-0.266-0.973-0.592-0.554c-0.328,0.417-0.592,1.343-0.592,2.067
		c0,0.723,0.264,0.973,0.592,0.556C12.836,8.066,13.102,7.141,13.102,6.416z"/>
</g>
</svg>
