<?xml version="1.0" encoding="UTF-8" standalone="no"?>
<!-- Created with Inkscape (http://www.inkscape.org/) -->

<svg
   xmlns:dc="http://purl.org/dc/elements/1.1/"
   xmlns:cc="http://creativecommons.org/ns#"
   xmlns:rdf="http://www.w3.org/1999/02/22-rdf-syntax-ns#"
   xmlns:svg="http://www.w3.org/2000/svg"
   xmlns="http://www.w3.org/2000/svg"
   xmlns:xlink="http://www.w3.org/1999/xlink"
   xmlns:sodipodi="http://sodipodi.sourceforge.net/DTD/sodipodi-0.dtd"
   xmlns:inkscape="http://www.inkscape.org/namespaces/inkscape"
   width="210mm"
   height="297mm"
   viewBox="0 0 210 297"
   version="1.1"
   id="svg877"
   inkscape:version="0.92.3 (2405546, 2018-03-11)"
   sodipodi:docname="a4IntermageBookwhat.svg"
   inkscape:export-filename="C:\Users\ASUS\Documents\starring codes\Unity Projects\JOELwindows7_GeoGon-ProofConcept_2DgameProg_Unity\Assets\Sprites\IntermageBookBorderA4.png"
   inkscape:export-xdpi="300"
   inkscape:export-ydpi="300">
  <defs
     id="defs871">
    <linearGradient
       inkscape:collect="always"
       xlink:href="#linearGradient825"
       id="linearGradient827"
       x1="132.29167"
       y1="32.41666"
       x2="132.29167"
       y2="297"
       gradientUnits="userSpaceOnUse"
       gradientTransform="matrix(0.79370082,0,0,1.1225197,0,-36.388337)" />
    <linearGradient
       inkscape:collect="always"
       id="linearGradient825">
      <stop
         style="stop-color:#00ff00;stop-opacity:1;"
         offset="0"
         id="stop821" />
      <stop
         style="stop-color:#ff0000;stop-opacity:1"
         offset="1"
         id="stop823" />
    </linearGradient>
  </defs>
  <sodipodi:namedview
     id="base"
     pagecolor="#ffffff"
     bordercolor="#666666"
     borderopacity="1.0"
     inkscape:pageopacity="0.0"
     inkscape:pageshadow="2"
     inkscape:zoom="1.4142136"
     inkscape:cx="451.45114"
     inkscape:cy="528.68152"
     inkscape:document-units="mm"
     inkscape:current-layer="layer1"
     showgrid="true"
     inkscape:window-width="1920"
     inkscape:window-height="1051"
     inkscape:window-x="-9"
     inkscape:window-y="-9"
     inkscape:window-maximized="1"
     inkscape:snap-page="true"
     inkscape:snap-nodes="true"
     inkscape:snap-others="true"
     inkscape:snap-grids="true"
     inkscape:snap-bbox="true">
    <inkscape:grid
       type="xygrid"
       id="grid1422"
       units="px"
       spacingx="0.26458333"
       spacingy="0.26458333"
       enabled="false" />
    <inkscape:grid
       type="xygrid"
       id="grid2005"
       units="mm"
       spacingx="1"
       spacingy="1"
       color="#00c600"
       opacity="0.1254902"
       empcolor="#00d600"
       empopacity="0.25098039"
       enabled="false" />
    <inkscape:grid
       type="xygrid"
       id="grid1405"
       color="#ff3fff"
       opacity="0.1254902"
       empspacing="4"
       empcolor="#ff3fff"
       empopacity="0.25098039" />
  </sodipodi:namedview>
  <metadata
     id="metadata874">
    <rdf:RDF>
      <cc:Work
         rdf:about="">
        <dc:format>image/svg+xml</dc:format>
        <dc:type
           rdf:resource="http://purl.org/dc/dcmitype/StillImage" />
        <dc:title></dc:title>
        <cc:license
           rdf:resource="http://creativecommons.org/licenses/by-sa/4.0/" />
      </cc:Work>
      <cc:License
         rdf:about="http://creativecommons.org/licenses/by-sa/4.0/">
        <cc:permits
           rdf:resource="http://creativecommons.org/ns#Reproduction" />
        <cc:permits
           rdf:resource="http://creativecommons.org/ns#Distribution" />
        <cc:requires
           rdf:resource="http://creativecommons.org/ns#Notice" />
        <cc:requires
           rdf:resource="http://creativecommons.org/ns#Attribution" />
        <cc:permits
           rdf:resource="http://creativecommons.org/ns#DerivativeWorks" />
        <cc:requires
           rdf:resource="http://creativecommons.org/ns#ShareAlike" />
      </cc:License>
    </rdf:RDF>
  </metadata>
  <g
     inkscape:label="Layer 1"
     inkscape:groupmode="layer"
     id="layer1">
    <path
       inkscape:connector-curvature="0"
       style="opacity:1;fill:url(#linearGradient827);fill-opacity:1;stroke:none;stroke-width:0.24973986;stroke-linecap:round;stroke-linejoin:round;stroke-miterlimit:4;stroke-dasharray:none;stroke-opacity:1"
       d="M 0,0 V 297 H 210 V 0 Z m 63.812114,11.265124 c 9.001008,0.03177 19.203522,1.264564 30.687893,3.58488 0,0 5.249995,0 5.249995,7.424997 h 5.250018 5.24998 c 0,-7.424997 5.25,-7.424997 5.25,-7.424997 C 189.00001,0 210,29.700009 199.50001,133.65 c 0,0 0,7.42499 -5.25001,7.42499 v 7.42503 7.42499 c 5.25001,0 5.25001,7.42501 5.25001,7.42501 C 210,267.29999 189.00001,297 115.5,282.15 c 0,0 -5.25,0 -5.25,-7.425 h -5.24998 -5.250018 c 0,7.425 -5.249995,7.425 -5.249995,7.425 C 20.999993,297 0,267.29999 10.500002,163.35002 c 0,0 0,-7.42501 5.249998,-7.42501 v -7.42499 -7.42503 c -5.249998,0 -5.249998,-7.42499 -5.249998,-7.42499 C 1.6406248,45.942194 15.206671,11.093817 63.812114,11.265124 Z"
       id="rect819" />
    <path
       sodipodi:nodetypes="ccccccccccccccccc"
       inkscape:connector-curvature="0"
       id="path869"
       d="m 11.46528,146.1875 c -4.4097302,0 -4.4097302,2.64584 -4.4097302,2.64584 0,0 0,2.64584 4.4097302,2.64584 2.645831,-0.88195 4.40972,-2.64584 4.40972,-2.64584 0,0 -1.763889,1.76389 -2.645829,4.40973 0,4.40972 2.645829,4.40972 2.645829,4.40972 0,0 2.64584,0 2.64584,-4.40972 -0.88194,-2.64584 -2.64584,-4.40973 -2.64584,-4.40973 0,0 1.7639,1.76389 4.40973,2.64584 4.40973,0 4.40973,-2.64584 4.40973,-2.64584 0,0 0,-2.64584 -4.40973,-2.64584 -2.64583,0.88195 -4.40973,2.64584 -4.40973,2.64584 0,0 1.7639,-1.76389 2.64584,-4.40973 0,-4.40972 -2.64584,-4.40972 -2.64584,-4.40972 0,0 -2.645829,0 -2.645829,4.40972 0.88194,2.64584 2.645829,4.40973 2.645829,4.40973 0,0 -1.763889,-1.76389 -4.40972,-2.64584 z"
       style="fill:#005aff;fill-opacity:1;stroke:#000000;stroke-width:0.17638905px;stroke-linecap:butt;stroke-linejoin:miter;stroke-opacity:1" />
    <path
       style="fill:#005aff;fill-opacity:1;stroke:#000000;stroke-width:0.17638905px;stroke-linecap:butt;stroke-linejoin:miter;stroke-opacity:1"
       d="m 189.26528,146.18749 c -4.40973,0 -4.40973,2.64584 -4.40973,2.64584 0,0 0,2.64584 4.40973,2.64584 2.64584,-0.88195 4.40972,-2.64584 4.40972,-2.64584 0,0 -1.76388,1.76389 -2.64582,4.40973 0,4.40972 2.64582,4.40972 2.64582,4.40972 0,0 2.64584,0 2.64584,-4.40972 -0.88194,-2.64584 -2.64584,-4.40973 -2.64584,-4.40973 0,0 1.7639,1.76389 4.40973,2.64584 4.40973,0 4.40973,-2.64584 4.40973,-2.64584 0,0 0,-2.64584 -4.40973,-2.64584 -2.64583,0.88195 -4.40973,2.64584 -4.40973,2.64584 0,0 1.7639,-1.76389 2.64584,-4.40973 0,-4.40972 -2.64584,-4.40972 -2.64584,-4.40972 0,0 -2.64582,0 -2.64582,4.40972 0.88194,2.64584 2.64582,4.40973 2.64582,4.40973 0,0 -1.76388,-1.76389 -4.40972,-2.64584 z"
       id="path1401"
       inkscape:connector-curvature="0"
       sodipodi:nodetypes="ccccccccccccccccc" />
    <path
       style="fill:#005aff;fill-opacity:1;stroke:#000000;stroke-width:0.17638905px;stroke-linecap:butt;stroke-linejoin:miter;stroke-opacity:1"
       d="m 100.36528,19.099307 c -4.409733,0 -4.409733,2.64584 -4.409733,2.64584 0,0 0,2.64584 4.409733,2.64584 2.64583,-0.88195 4.40972,-2.64584 4.40972,-2.64584 0,0 -1.76389,1.76389 -2.64583,4.40973 0,4.40972 2.64583,4.40972 2.64583,4.40972 0,0 2.64584,0 2.64584,-4.40972 -0.88194,-2.64584 -2.64584,-4.40973 -2.64584,-4.40973 0,0 1.7639,1.76389 4.40973,2.64584 4.40973,0 4.40973,-2.64584 4.40973,-2.64584 0,0 0,-2.64584 -4.40973,-2.64584 -2.64583,0.88195 -4.40973,2.64584 -4.40973,2.64584 0,0 1.7639,-1.76389 2.64584,-4.40973 0,-4.40972 -2.64584,-4.40972 -2.64584,-4.40972 0,0 -2.64583,0 -2.64583,4.40972 0.88194,2.64584 2.64583,4.40973 2.64583,4.40973 0,0 -1.76389,-1.76389 -4.40972,-2.64584 z"
       id="path1409"
       inkscape:connector-curvature="0"
       sodipodi:nodetypes="ccccccccccccccccc" />
    <path
       sodipodi:nodetypes="ccccccccccccccccc"
       inkscape:connector-curvature="0"
       id="path1411"
       d="m 100.36528,272.12916 c -4.409733,0 -4.409733,2.64584 -4.409733,2.64584 0,0 0,2.64584 4.409733,2.64584 2.64583,-0.88195 4.40972,-2.64584 4.40972,-2.64584 0,0 -1.76389,1.76389 -2.64583,4.40973 0,4.40972 2.64583,4.40972 2.64583,4.40972 0,0 2.64584,0 2.64584,-4.40972 -0.88194,-2.64584 -2.64584,-4.40973 -2.64584,-4.40973 0,0 1.7639,1.76389 4.40973,2.64584 4.40973,0 4.40973,-2.64584 4.40973,-2.64584 0,0 0,-2.64584 -4.40973,-2.64584 -2.64583,0.88195 -4.40973,2.64584 -4.40973,2.64584 0,0 1.7639,-1.76389 2.64584,-4.40973 0,-4.40972 -2.64584,-4.40972 -2.64584,-4.40972 0,0 -2.64583,0 -2.64583,4.40972 0.88194,2.64584 2.64583,4.40973 2.64583,4.40973 0,0 -1.76389,-1.76389 -4.40972,-2.64584 z"
       style="fill:#005aff;fill-opacity:1;stroke:#000000;stroke-width:0.17638905px;stroke-linecap:butt;stroke-linejoin:miter;stroke-opacity:1" />
  </g>
</svg>
