<?xml version="1.0" encoding="UTF-8" standalone="no"?>
<!-- Created with Inkscape (http://www.inkscape.org/) -->

<svg
   xmlns:dc="http://purl.org/dc/elements/1.1/"
   xmlns:cc="http://creativecommons.org/ns#"
   xmlns:rdf="http://www.w3.org/1999/02/22-rdf-syntax-ns#"
   xmlns:svg="http://www.w3.org/2000/svg"
   xmlns="http://www.w3.org/2000/svg"
   xmlns:sodipodi="http://sodipodi.sourceforge.net/DTD/sodipodi-0.dtd"
   xmlns:inkscape="http://www.inkscape.org/namespaces/inkscape"
   width="1270"
   height="720"
   viewBox="0 0 336.02083 190.50001"
   version="1.1"
   id="svg8"
   inkscape:version="0.92.3 (2405546, 2018-03-11)"
   sodipodi:docname="LevelThumbnails.svg"
   inkscape:export-filename="C:\Users\ASUS\Documents\starring codes\Unity Projects\JOELwindows7_GeoGon-ProofConcept_2DgameProg_Unity\Assets\Sprites\LevelThumbnail\UnderConstruction.png"
   inkscape:export-xdpi="300"
   inkscape:export-ydpi="300">
  <sodipodi:namedview
     id="base"
     pagecolor="#ffffff"
     bordercolor="#666666"
     borderopacity="1.0"
     inkscape:pageopacity="0.0"
     inkscape:pageshadow="2"
     inkscape:zoom="0.7289405"
     inkscape:cx="603.84222"
     inkscape:cy="298.46558"
     inkscape:document-units="px"
     inkscape:current-layer="layer5"
     showgrid="true"
     inkscape:window-width="1920"
     inkscape:window-height="1051"
     inkscape:window-x="-9"
     inkscape:window-y="-9"
     inkscape:window-maximized="1"
     units="px"
     inkscape:snap-bbox="true"
     inkscape:bbox-nodes="true"
     inkscape:snap-bbox-edge-midpoints="true">
    <inkscape:grid
       empopacity="0.25098039"
       empcolor="#3f4bff"
       opacity="0.1254902"
       color="#3f44ff"
       empspacing="5"
       id="grid815"
       type="xygrid" />
    <inkscape:grid
       empspacing="10"
       empopacity="0.25098039"
       empcolor="#ffb53f"
       opacity="0.1254902"
       color="#ff3f3f"
       id="grid817"
       type="xygrid" />
    <inkscape:grid
       opacity="0.1254902"
       color="#3fff8f"
       empopacity="0.25098039"
       empcolor="#3fff4e"
       empspacing="20"
       id="grid821"
       type="xygrid" />
    <inkscape:grid
       empopacity="0.25098039"
       empcolor="#3ff6ff"
       opacity="0.1254902"
       color="#3ffaff"
       empspacing="40"
       id="grid823"
       type="xygrid" />
    <inkscape:grid
       empopacity="0.25098039"
       empcolor="#e23fff"
       opacity="0.1254902"
       color="#ff3ff1"
       empspacing="80"
       id="grid825"
       type="xygrid" />
    <inkscape:grid
       empopacity="0.25098039"
       empcolor="#feff3f"
       opacity="0.1254902"
       color="#fffc3f"
       empspacing="160"
       id="grid827"
       type="xygrid" />
  </sodipodi:namedview>
  <defs
     id="defs2" />
  <metadata
     id="metadata5">
    <rdf:RDF>
      <cc:Work
         rdf:about="">
        <dc:format>image/svg+xml</dc:format>
        <dc:type
           rdf:resource="http://purl.org/dc/dcmitype/StillImage" />
        <dc:title />
        <cc:license
           rdf:resource="http://creativecommons.org/licenses/by-sa/4.0/" />
      </cc:Work>
      <cc:License
         rdf:about="http://creativecommons.org/licenses/by-sa/4.0/">
        <cc:permits
           rdf:resource="http://creativecommons.org/ns#Reproduction" />
        <cc:permits
           rdf:resource="http://creativecommons.org/ns#Distribution" />
        <cc:requires
           rdf:resource="http://creativecommons.org/ns#Notice" />
        <cc:requires
           rdf:resource="http://creativecommons.org/ns#Attribution" />
        <cc:permits
           rdf:resource="http://creativecommons.org/ns#DerivativeWorks" />
        <cc:requires
           rdf:resource="http://creativecommons.org/ns#ShareAlike" />
      </cc:License>
    </rdf:RDF>
  </metadata>
  <g
     transform="translate(0,-529.49994)"
     sodipodi:insensitive="true"
     style="display:none"
     inkscape:label="DrawFav"
     id="layer2"
     inkscape:groupmode="layer">
    <rect
       y="0.33331299"
       x="0"
       height="719.66669"
       width="1270"
       id="rect829-5"
       style="opacity:1;fill:#002e7d;fill-opacity:1;stroke:#000000;stroke-width:0.26458332;stroke-linecap:round;stroke-linejoin:round;stroke-miterlimit:4;stroke-dasharray:none;stroke-opacity:1" />
  </g>
  <g
     style="display:none"
     transform="translate(0,-106.49994)"
     id="layer1"
     inkscape:groupmode="layer"
     inkscape:label="Level1">
    <rect
       y="106.49994"
       x="0"
       height="190.50006"
       width="336.17657"
       id="rect829"
       style="opacity:1;fill:#1b92ff;fill-opacity:1;stroke:#000000;stroke-width:0.07003678;stroke-linecap:round;stroke-linejoin:round;stroke-miterlimit:4;stroke-dasharray:none;stroke-opacity:1" />
    <g
       style="display:inline"
       transform="translate(0,-423)"
       inkscape:label="Mangkok"
       id="layer3"
       inkscape:groupmode="layer">
      <path
         inkscape:connector-curvature="0"
         id="path853"
         d="m 52.916668,627.39578 c 0,0 31.750001,15.875 111.125002,15.875 79.375,0 121.70834,-15.875 121.70834,-15.875 0,0 -52.91667,-2.64584 -116.41667,-2.64584 -63.5,0 -116.416672,2.64584 -116.416672,2.64584 z"
         style="fill:#00ff4b;fill-opacity:1;stroke:#000000;stroke-width:0.26458335px;stroke-linecap:butt;stroke-linejoin:miter;stroke-opacity:1" />
      <path
         sodipodi:nodetypes="ccccscscssssscc"
         inkscape:connector-curvature="0"
         id="path1685"
         d="m 56.39349,630.04161 20.335678,26.45833 187.854172,-2.64583 18.52083,-23.8125 c 0,0 -8.09507,0.23401 -10.19176,-1.91989 -8.33373,-8.56108 -12.95928,1.91989 -12.95928,1.91989 0,0 -23.8125,13.22917 -44.64845,0 -20.83593,-13.22916 -32.74218,5.29167 -32.74218,5.29167 0,0 -5.95313,2.64583 -26.78906,-7.9375 -20.83594,-10.58333 -14.88281,-2.64583 -26.78906,2.64583 -11.90626,5.29167 -17.85938,5.29167 -26.78907,-2.64583 -8.929677,-7.9375 -5.953115,-10.58333 -14.882802,-2.64583 -8.929687,7.9375 -8.929687,13.22916 -14.882812,5.29166 -5.953126,-7.9375 -8.929688,-7.9375 -11.906251,-5.29166 z"
         style="fill:#00fffe;fill-opacity:1;stroke:#000000;stroke-width:0.28063303px;stroke-linecap:butt;stroke-linejoin:miter;stroke-opacity:1" />
      <g
         id="g926"
         transform="translate(-38.966116,158.75008)">
        <path
           id="path902"
           style="fill:none;stroke:#ff7d00;stroke-width:2.64583349;stroke-linecap:butt;stroke-linejoin:miter;stroke-miterlimit:4;stroke-dasharray:none;stroke-opacity:1"
           d="m 158.75,510.97911 c 0,0 -2.64583,-23.8125 31.75,-34.39584 0,0 0,0 0,0 34.39584,-10.58333 42.33334,-31.75 42.33334,-31.75"
           inkscape:connector-curvature="0" />
        <path
           id="path904"
           style="fill:none;stroke:#ff7d00;stroke-width:2.64583349;stroke-linecap:butt;stroke-linejoin:miter;stroke-miterlimit:4;stroke-dasharray:none;stroke-opacity:1"
           d="m 166.44697,510.97911 c 0,0 -2.64583,-23.8125 31.75,-34.39584 2e-5,-1e-5 5e-5,-1e-5 7e-5,-2e-5 34.39578,-10.58334 42.33327,-31.74998 42.33327,-31.74998"
           inkscape:connector-curvature="0" />
        <path
           id="path906"
           style="fill:none;stroke:#ff7d00;stroke-width:2.64583349;stroke-linecap:butt;stroke-linejoin:miter;stroke-miterlimit:4;stroke-dasharray:none;stroke-opacity:1"
           d="m 174.14394,510.97911 c 0,0 -2.64583,-23.8125 31.75,-34.39584 5e-5,-1e-5 1e-4,-3e-5 1.4e-4,-4e-5 34.39572,-10.58335 42.3332,-31.74996 42.3332,-31.74996"
           inkscape:connector-curvature="0" />
        <path
           id="path908"
           style="fill:none;stroke:#ff7d00;stroke-width:2.64583349;stroke-linecap:butt;stroke-linejoin:miter;stroke-miterlimit:4;stroke-dasharray:none;stroke-opacity:1"
           d="m 181.84091,510.97911 c 0,0 -2.64583,-23.8125 31.75,-34.39584 7e-5,-2e-5 1.4e-4,-4e-5 2.1e-4,-7e-5 34.39566,-10.58335 42.33313,-31.74993 42.33313,-31.74993"
           inkscape:connector-curvature="0" />
        <path
           id="path910"
           style="fill:none;stroke:#ff7d00;stroke-width:2.64583349;stroke-linecap:butt;stroke-linejoin:miter;stroke-miterlimit:4;stroke-dasharray:none;stroke-opacity:1"
           d="m 189.53788,510.97911 c 0,0 -2.64583,-23.8125 31.75,-34.39584 1e-4,-3e-5 1.9e-4,-6e-5 2.9e-4,-9e-5 34.39559,-10.58336 42.33305,-31.74991 42.33305,-31.74991"
           inkscape:connector-curvature="0" />
        <path
           id="path912"
           style="fill:none;stroke:#ff7d00;stroke-width:2.64583349;stroke-linecap:butt;stroke-linejoin:miter;stroke-miterlimit:4;stroke-dasharray:none;stroke-opacity:1"
           d="m 197.23485,510.97911 c 0,0 -2.64583,-23.8125 31.75,-34.39584 1.2e-4,-4e-5 2.4e-4,-7e-5 3.6e-4,-1.1e-4 34.39554,-10.58337 42.33298,-31.74989 42.33298,-31.74989"
           inkscape:connector-curvature="0" />
        <path
           id="path914"
           style="fill:none;stroke:#ff7d00;stroke-width:2.64583349;stroke-linecap:butt;stroke-linejoin:miter;stroke-miterlimit:4;stroke-dasharray:none;stroke-opacity:1"
           d="m 204.93182,510.97911 c 0,0 -2.64583,-23.8125 31.75,-34.39584 1.4e-4,-4e-5 2.9e-4,-9e-5 4.3e-4,-1.3e-4 34.39548,-10.58338 42.33291,-31.74987 42.33291,-31.74987"
           inkscape:connector-curvature="0" />
        <path
           id="path916"
           style="fill:none;stroke:#ff7d00;stroke-width:2.64583349;stroke-linecap:butt;stroke-linejoin:miter;stroke-miterlimit:4;stroke-dasharray:none;stroke-opacity:1"
           d="m 212.62879,510.97911 c 0,0 -2.64583,-23.8125 31.75,-34.39584 1.7e-4,-5e-5 3.3e-4,-1e-4 5e-4,-1.5e-4 34.39542,-10.58339 42.33284,-31.74985 42.33284,-31.74985"
           inkscape:connector-curvature="0" />
        <path
           id="path918"
           style="fill:none;stroke:#ff7d00;stroke-width:2.64583349;stroke-linecap:butt;stroke-linejoin:miter;stroke-miterlimit:4;stroke-dasharray:none;stroke-opacity:1"
           d="m 220.32576,510.97911 c 0,0 -2.64583,-23.8125 31.75,-34.39584 1.9e-4,-6e-5 3.8e-4,-1.2e-4 5.7e-4,-1.8e-4 34.39536,-10.58338 42.33277,-31.74982 42.33277,-31.74982"
           inkscape:connector-curvature="0" />
        <path
           id="path920"
           style="fill:none;stroke:#ff7d00;stroke-width:2.64583349;stroke-linecap:butt;stroke-linejoin:miter;stroke-miterlimit:4;stroke-dasharray:none;stroke-opacity:1"
           d="m 228.02273,510.97911 c 0,0 -2.64583,-23.8125 31.75,-34.39584 2.1e-4,-7e-5 4.3e-4,-1.3e-4 6.4e-4,-2e-4 34.3953,-10.58339 42.3327,-31.7498 42.3327,-31.7498"
           inkscape:connector-curvature="0" />
        <path
           id="path922"
           style="fill:none;stroke:#ff7d00;stroke-width:2.64583349;stroke-linecap:butt;stroke-linejoin:miter;stroke-miterlimit:4;stroke-dasharray:none;stroke-opacity:1"
           d="m 235.7197,510.97911 c 0,0 -2.64583,-23.8125 31.75,-34.39584 2.4e-4,-7e-5 4.8e-4,-1.5e-4 7.2e-4,-2.2e-4 34.39523,-10.5834 42.33262,-31.74978 42.33262,-31.74978"
           inkscape:connector-curvature="0" />
        <path
           id="path924"
           style="fill:none;stroke:#ff7d00;stroke-width:2.64583349;stroke-linecap:butt;stroke-linejoin:miter;stroke-miterlimit:4;stroke-dasharray:none;stroke-opacity:1"
           d="m 243.41667,510.97911 c 0,0 -2.64583,-23.8125 31.75,-34.39584 2.6e-4,-8e-5 5.2e-4,-1.6e-4 7.9e-4,-2.4e-4 34.39517,-10.58341 42.33255,-31.74976 42.33255,-31.74976"
           inkscape:connector-curvature="0" />
      </g>
      <g
         transform="matrix(0.05133959,-0.26509454,0.26509454,0.05133959,65.275474,658.01976)"
         id="g961">
        <circle
           style="fill:#006fff;fill-opacity:1;stroke-width:0.2834821"
           id="path819"
           cx="135.46666"
           cy="161.53333"
           r="127" />
        <g
           id="g935">
          <g
             id="g899">
            <g
               id="g869"
               transform="rotate(45,169.33333,195.39998)">
              <circle
                 style="opacity:1;fill:#ff0000;fill-opacity:1;stroke-width:0.26458332"
                 id="circle827"
                 cx="169.33333"
                 cy="195.39998"
                 r="33.866665" />
              <g
                 id="g851">
                <path
                   style="fill:none;stroke:#00ffff;stroke-width:1.32291663;stroke-linecap:round;stroke-linejoin:miter;stroke-miterlimit:4;stroke-dasharray:none;stroke-opacity:1"
                   d="m 152.40943,178.46665 h 33.86666 v 33.86667 h -33.86667"
                   id="path833"
                   inkscape:connector-curvature="0"
                   sodipodi:nodetypes="cccc" />
                <path
                   style="fill:none;stroke:#00ffff;stroke-width:1.05833328;stroke-linecap:round;stroke-linejoin:round;stroke-miterlimit:4;stroke-dasharray:none;stroke-opacity:1"
                   d="M 154.51548,180.58332 H 184.15 v 14.81726 c 0,0 0,14.81726 -14.81726,14.81726 -14.81726,0 -14.81726,-14.81726 -14.81726,-14.81726"
                   id="path835"
                   inkscape:connector-curvature="0" />
              </g>
            </g>
            <g
               id="g875"
               transform="rotate(45,101.6,195.39998)">
              <circle
                 r="33.866665"
                 cy="195.39998"
                 cx="101.6"
                 id="path825"
                 style="opacity:1;fill:#0000ff;fill-opacity:1;stroke-width:0.26458332" />
              <g
                 id="g855">
                <path
                   sodipodi:nodetypes="cccc"
                   inkscape:connector-curvature="0"
                   id="path837"
                   d="m 118.53805,178.47137 v 33.86666 H 84.671378 v -33.86667"
                   style="fill:none;stroke:#ffff00;stroke-width:1.32291663;stroke-linecap:round;stroke-linejoin:miter;stroke-miterlimit:4;stroke-dasharray:none;stroke-opacity:1" />
                <path
                   style="fill:none;stroke:#ffff00;stroke-width:1.05833328;stroke-linecap:round;stroke-linejoin:round;stroke-miterlimit:4;stroke-dasharray:none;stroke-opacity:1"
                   d="m 86.784501,180.58449 v 29.63216 h 29.632169"
                   id="path843"
                   inkscape:connector-curvature="0" />
              </g>
            </g>
          </g>
          <g
             id="g911">
            <g
               id="g887"
               transform="rotate(45,169.33333,127.66665)">
              <circle
                 r="33.866665"
                 cy="127.66665"
                 cx="169.33333"
                 id="circle829"
                 style="opacity:1;fill:#00ff00;fill-opacity:1;stroke-width:0.26458332" />
              <g
                 id="g859">
                <path
                   style="fill:none;stroke:#ff00ff;stroke-width:1.32291663;stroke-linecap:round;stroke-linejoin:miter;stroke-miterlimit:4;stroke-dasharray:none;stroke-opacity:1"
                   d="m 152.39999,144.59998 v -33.86666 h 33.86668 v 33.86667"
                   id="path839"
                   inkscape:connector-curvature="0"
                   sodipodi:nodetypes="cccc" />
                <path
                   style="fill:none;stroke:#ff00ff;stroke-width:1.05833328;stroke-linecap:round;stroke-linejoin:round;stroke-miterlimit:4;stroke-dasharray:none;stroke-opacity:1"
                   d="m 154.51667,142.51588 v -29.69847 h 14.84923 7.42462 c 0,0 7.42462,0 7.42462,7.42462 0,7.42462 -7.42462,7.42462 -7.42462,7.42462 h -7.42462 -14.84923 z"
                   id="path845"
                   inkscape:connector-curvature="0" />
              </g>
            </g>
            <g
               id="g881"
               transform="rotate(45,101.6,127.66665)">
              <circle
                 style="opacity:1;fill:#ffffff;fill-opacity:1;stroke-width:0.26458332"
                 id="circle831"
                 cx="101.6"
                 cy="127.66665"
                 r="33.866665" />
              <g
                 id="g863">
                <path
                   sodipodi:nodetypes="cccc"
                   inkscape:connector-curvature="0"
                   id="path841"
                   d="M 118.52862,144.59528 H 84.661962 v -33.86669 h 33.866668"
                   style="fill:none;stroke:#000000;stroke-width:1.32291663;stroke-linecap:round;stroke-linejoin:miter;stroke-miterlimit:4;stroke-dasharray:none;stroke-opacity:1" />
                <path
                   style="fill:none;stroke:#000000;stroke-width:1.05833328;stroke-linecap:round;stroke-linejoin:round;stroke-miterlimit:4;stroke-dasharray:none;stroke-opacity:1"
                   d="M 116.41666,112.84999 H 101.6 94.191667 c 0,0 -7.408332,0 -7.408332,7.40832 0,7.40834 7.408332,7.40834 7.408332,7.40834 H 101.6 h 7.40834 c 0,0 7.40832,0 7.40832,7.40834 0,7.40832 -6.48229,7.40832 -6.48229,7.40832 H 101.6 86.783335"
                   id="path847"
                   inkscape:connector-curvature="0" />
              </g>
            </g>
          </g>
        </g>
      </g>
      <g
         transform="rotate(-180,218.57955,557.12202)"
         id="g1011">
        <path
           inkscape:connector-curvature="0"
           d="m 158.75,510.97911 c 0,0 -2.64583,-23.8125 31.75,-34.39584 0,0 0,0 0,0 34.39584,-10.58333 42.33334,-31.75 42.33334,-31.75"
           style="fill:none;stroke:#ff7d00;stroke-width:2.64583349;stroke-linecap:butt;stroke-linejoin:miter;stroke-miterlimit:4;stroke-dasharray:none;stroke-opacity:1"
           id="path987" />
        <path
           inkscape:connector-curvature="0"
           d="m 166.44697,510.97911 c 0,0 -2.64583,-23.8125 31.75,-34.39584 2e-5,-1e-5 5e-5,-1e-5 7e-5,-2e-5 34.39578,-10.58334 42.33327,-31.74998 42.33327,-31.74998"
           style="fill:none;stroke:#ff7d00;stroke-width:2.64583349;stroke-linecap:butt;stroke-linejoin:miter;stroke-miterlimit:4;stroke-dasharray:none;stroke-opacity:1"
           id="path989" />
        <path
           inkscape:connector-curvature="0"
           d="m 174.14394,510.97911 c 0,0 -2.64583,-23.8125 31.75,-34.39584 5e-5,-1e-5 1e-4,-3e-5 1.4e-4,-4e-5 34.39572,-10.58335 42.3332,-31.74996 42.3332,-31.74996"
           style="fill:none;stroke:#ff7d00;stroke-width:2.64583349;stroke-linecap:butt;stroke-linejoin:miter;stroke-miterlimit:4;stroke-dasharray:none;stroke-opacity:1"
           id="path991" />
        <path
           inkscape:connector-curvature="0"
           d="m 181.84091,510.97911 c 0,0 -2.64583,-23.8125 31.75,-34.39584 7e-5,-2e-5 1.4e-4,-4e-5 2.1e-4,-7e-5 34.39566,-10.58335 42.33313,-31.74993 42.33313,-31.74993"
           style="fill:none;stroke:#ff7d00;stroke-width:2.64583349;stroke-linecap:butt;stroke-linejoin:miter;stroke-miterlimit:4;stroke-dasharray:none;stroke-opacity:1"
           id="path993" />
        <path
           inkscape:connector-curvature="0"
           d="m 189.53788,510.97911 c 0,0 -2.64583,-23.8125 31.75,-34.39584 1e-4,-3e-5 1.9e-4,-6e-5 2.9e-4,-9e-5 34.39559,-10.58336 42.33305,-31.74991 42.33305,-31.74991"
           style="fill:none;stroke:#ff7d00;stroke-width:2.64583349;stroke-linecap:butt;stroke-linejoin:miter;stroke-miterlimit:4;stroke-dasharray:none;stroke-opacity:1"
           id="path995" />
        <path
           inkscape:connector-curvature="0"
           d="m 197.23485,510.97911 c 0,0 -2.64583,-23.8125 31.75,-34.39584 1.2e-4,-4e-5 2.4e-4,-7e-5 3.6e-4,-1.1e-4 34.39554,-10.58337 42.33298,-31.74989 42.33298,-31.74989"
           style="fill:none;stroke:#ff7d00;stroke-width:2.64583349;stroke-linecap:butt;stroke-linejoin:miter;stroke-miterlimit:4;stroke-dasharray:none;stroke-opacity:1"
           id="path997" />
        <path
           inkscape:connector-curvature="0"
           d="m 204.93182,510.97911 c 0,0 -2.64583,-23.8125 31.75,-34.39584 1.4e-4,-4e-5 2.9e-4,-9e-5 4.3e-4,-1.3e-4 34.39548,-10.58338 42.33291,-31.74987 42.33291,-31.74987"
           style="fill:none;stroke:#ff7d00;stroke-width:2.64583349;stroke-linecap:butt;stroke-linejoin:miter;stroke-miterlimit:4;stroke-dasharray:none;stroke-opacity:1"
           id="path999" />
        <path
           inkscape:connector-curvature="0"
           d="m 212.62879,510.97911 c 0,0 -2.64583,-23.8125 31.75,-34.39584 1.7e-4,-5e-5 3.3e-4,-1e-4 5e-4,-1.5e-4 34.39542,-10.58339 42.33284,-31.74985 42.33284,-31.74985"
           style="fill:none;stroke:#ff7d00;stroke-width:2.64583349;stroke-linecap:butt;stroke-linejoin:miter;stroke-miterlimit:4;stroke-dasharray:none;stroke-opacity:1"
           id="path1001" />
        <path
           inkscape:connector-curvature="0"
           d="m 220.32576,510.97911 c 0,0 -2.64583,-23.8125 31.75,-34.39584 1.9e-4,-6e-5 3.8e-4,-1.2e-4 5.7e-4,-1.8e-4 34.39536,-10.58338 42.33277,-31.74982 42.33277,-31.74982"
           style="fill:none;stroke:#ff7d00;stroke-width:2.64583349;stroke-linecap:butt;stroke-linejoin:miter;stroke-miterlimit:4;stroke-dasharray:none;stroke-opacity:1"
           id="path1003" />
        <path
           inkscape:connector-curvature="0"
           d="m 228.02273,510.97911 c 0,0 -2.64583,-23.8125 31.75,-34.39584 2.1e-4,-7e-5 4.3e-4,-1.3e-4 6.4e-4,-2e-4 34.3953,-10.58339 42.3327,-31.7498 42.3327,-31.7498"
           style="fill:none;stroke:#ff7d00;stroke-width:2.64583349;stroke-linecap:butt;stroke-linejoin:miter;stroke-miterlimit:4;stroke-dasharray:none;stroke-opacity:1"
           id="path1005" />
        <path
           inkscape:connector-curvature="0"
           d="m 235.7197,510.97911 c 0,0 -2.64583,-23.8125 31.75,-34.39584 2.4e-4,-7e-5 4.8e-4,-1.5e-4 7.2e-4,-2.2e-4 34.39523,-10.5834 42.33262,-31.74978 42.33262,-31.74978"
           style="fill:none;stroke:#ff7d00;stroke-width:2.64583349;stroke-linecap:butt;stroke-linejoin:miter;stroke-miterlimit:4;stroke-dasharray:none;stroke-opacity:1"
           id="path1007" />
        <path
           inkscape:connector-curvature="0"
           d="m 243.41667,510.97911 c 0,0 -2.64583,-23.8125 31.75,-34.39584 2.6e-4,-8e-5 5.2e-4,-1.6e-4 7.9e-4,-2.4e-4 34.39517,-10.58341 42.33255,-31.74976 42.33255,-31.74976"
           style="fill:none;stroke:#ff7d00;stroke-width:2.64583349;stroke-linecap:butt;stroke-linejoin:miter;stroke-miterlimit:4;stroke-dasharray:none;stroke-opacity:1"
           id="path1009" />
      </g>
      <path
         inkscape:connector-curvature="0"
         id="path851"
         d="m 51.152765,626.51378 58.649325,77.61116 c 0,0 58.6493,19.40283 117.2986,0 l 58.64932,-77.61116 c 0,0 -117.29862,38.80551 -234.597245,0 z"
         style="fill:#0000ff;fill-opacity:1;stroke:#000000;stroke-width:1.32291675;stroke-linecap:butt;stroke-linejoin:miter;stroke-miterlimit:4;stroke-dasharray:none;stroke-opacity:1" />
      <text
         xml:space="preserve"
         style="font-style:normal;font-weight:normal;font-size:41.59886169px;line-height:1.25;font-family:sans-serif;letter-spacing:0px;word-spacing:0px;fill:#ffffff;fill-opacity:1;stroke:none;stroke-width:1.03997159"
         x="103.58845"
         y="692.91193"
         id="text1015"><tspan
           sodipodi:role="line"
           id="tspan1013"
           x="103.58845"
           y="692.91193"
           style="fill:#ffffff;fill-opacity:1;stroke-width:1.03997159">P'TOK</tspan></text>
      <text
         xml:space="preserve"
         style="font-style:normal;font-weight:normal;font-size:70.72766113px;line-height:1.25;font-family:sans-serif;letter-spacing:0px;word-spacing:0px;fill:#000000;fill-opacity:1;stroke:#047d00;stroke-width:1.32291675;stroke-miterlimit:4;stroke-dasharray:none;stroke-opacity:1"
         x="38.432365"
         y="591.72217"
         id="text1019"><tspan
           sodipodi:role="line"
           id="tspan1017"
           x="38.432365"
           y="591.72217"
           style="font-style:normal;font-variant:normal;font-weight:normal;font-stretch:normal;font-family:'Vladimir Script';-inkscape-font-specification:'Vladimir Script';fill:#ffffff;fill-opacity:1;stroke:#047d00;stroke-width:1.32291675;stroke-miterlimit:4;stroke-dasharray:none;stroke-opacity:1">Soto Rial</tspan></text>
    </g>
  </g>
  <g
     inkscape:groupmode="layer"
     id="layer4"
     inkscape:label="Level2"
     style="display:none">
    <rect
       style="opacity:1;fill:#004daa;fill-opacity:1;stroke:none;stroke-width:1.34541464;stroke-linecap:round;stroke-linejoin:round;stroke-miterlimit:4;stroke-dasharray:none;stroke-opacity:1"
       id="rect1022"
       width="336.01144"
       height="190.49062"
       x="0.0093950806"
       y="1.4432899e-015"
       ry="0" />
    <g
       id="g1120"
       transform="matrix(5.3447204,0,0,5.3447204,-62.218174,406.17651)">
      <path
         inkscape:connector-curvature="0"
         id="path1024"
         d="m 21.166667,-42.333334 h 42.333335 c 0,0 0,-13.229167 -6.614584,-14.552084 0,0 0,-6.614583 -3.96875,-6.614583 0,0 -7.9375,-13.229167 -18.520834,0 0,0 -5.291667,0 -5.291667,6.614583 0,0 -7.9375,1e-6 -7.9375,14.552084 z"
         style="fill:#848484;fill-opacity:1;stroke:#000000;stroke-width:0.26458335px;stroke-linecap:butt;stroke-linejoin:miter;stroke-opacity:1" />
      <g
         id="g1099">
        <g
           id="g1044">
          <rect
             y="-54.239586"
             x="26.458334"
             height="11.90625"
             width="15.875"
             id="rect1037"
             style="opacity:1;fill:#213f63;fill-opacity:1;stroke:none;stroke-width:0.26458335;stroke-linecap:round;stroke-linejoin:round;stroke-miterlimit:4;stroke-dasharray:none;stroke-opacity:1" />
          <g
             id="g1035">
            <rect
               style="opacity:1;fill:#9d6e47;fill-opacity:1;stroke:#744e04;stroke-width:0.26458335;stroke-linecap:round;stroke-linejoin:round;stroke-miterlimit:4;stroke-dasharray:none;stroke-opacity:1"
               id="rect1026"
               width="1.3229167"
               height="10.583334"
               x="26.458334"
               y="-52.916668" />
            <rect
               style="opacity:1;fill:#9d6e47;fill-opacity:1;stroke:#744e04;stroke-width:0.26458335;stroke-linecap:round;stroke-linejoin:round;stroke-miterlimit:4;stroke-dasharray:none;stroke-opacity:1"
               id="rect1028"
               width="14.552084"
               height="1.3229167"
               x="26.458334"
               y="-54.239586" />
            <rect
               style="opacity:1;fill:#9d6e47;fill-opacity:1;stroke:#744e04;stroke-width:0.26458335;stroke-linecap:round;stroke-linejoin:round;stroke-miterlimit:4;stroke-dasharray:none;stroke-opacity:1"
               id="rect1030"
               width="1.3229167"
               height="11.90625"
               x="41.010418"
               y="-54.239586" />
          </g>
        </g>
        <g
           id="g1080">
          <g
             id="g1058">
            <text
               xml:space="preserve"
               style="font-style:normal;font-weight:normal;font-size:2.08361006px;line-height:1.25;font-family:sans-serif;letter-spacing:0px;word-spacing:0px;fill:#ff7800;fill-opacity:1;stroke:#744e04;stroke-width:0.05209026;stroke-opacity:1"
               x="45.417381"
               y="44.696594"
               id="text1048"
               transform="rotate(-90)"><tspan
                 sodipodi:role="line"
                 id="tspan1046"
                 x="45.417381"
                 y="44.696594"
                 style="fill:#ff7800;fill-opacity:1;stroke:#744e04;stroke-width:0.05209026;stroke-opacity:1">Obor</tspan></text>
            <text
               xml:space="preserve"
               style="font-style:normal;font-weight:normal;font-size:1.53178239px;line-height:1.25;font-family:sans-serif;letter-spacing:0px;word-spacing:0px;fill:#ff0000;fill-opacity:1;stroke:#ff6d04;stroke-width:0.03829456;stroke-opacity:1"
               x="43.030224"
               y="-50.598133"
               id="text1052"><tspan
                 sodipodi:role="line"
                 id="tspan1050"
                 x="43.030224"
                 y="-50.598133"
                 style="fill:#ff0000;fill-opacity:1;stroke:#ff6d04;stroke-width:0.03829456;stroke-opacity:1">Api</tspan></text>
          </g>
          <g
             transform="translate(-19.050001,-0.2645819)"
             id="g1068">
            <text
               transform="rotate(-90)"
               id="text1062"
               y="44.696594"
               x="45.417381"
               style="font-style:normal;font-weight:normal;font-size:2.08361006px;line-height:1.25;font-family:sans-serif;letter-spacing:0px;word-spacing:0px;fill:#ff7800;fill-opacity:1;stroke:#744e04;stroke-width:0.05209026;stroke-opacity:1"
               xml:space="preserve"><tspan
                 style="fill:#ff7800;fill-opacity:1;stroke:#744e04;stroke-width:0.05209026;stroke-opacity:1"
                 y="44.696594"
                 x="45.417381"
                 id="tspan1060"
                 sodipodi:role="line">Obor</tspan></text>
            <text
               id="text1066"
               y="-50.598133"
               x="43.030224"
               style="font-style:normal;font-weight:normal;font-size:1.53178239px;line-height:1.25;font-family:sans-serif;letter-spacing:0px;word-spacing:0px;fill:#ff0000;fill-opacity:1;stroke:#ff6d04;stroke-width:0.03829456;stroke-opacity:1"
               xml:space="preserve"><tspan
                 style="fill:#ff0000;fill-opacity:1;stroke:#ff6d04;stroke-width:0.03829456;stroke-opacity:1"
                 y="-50.598133"
                 x="43.030224"
                 id="tspan1064"
                 sodipodi:role="line">Api</tspan></text>
          </g>
        </g>
      </g>
    </g>
    <text
       xml:space="preserve"
       style="font-style:normal;font-weight:normal;font-size:53.51140594px;line-height:1.25;font-family:sans-serif;letter-spacing:0px;word-spacing:0px;fill:#d97061;fill-opacity:1;stroke:#000000;stroke-width:1.33778512;stroke-opacity:1"
       x="36.678352"
       y="59.114002"
       id="text1124"><tspan
         sodipodi:role="line"
         id="tspan1122"
         x="36.678352"
         y="59.114002"
         style="font-style:normal;font-variant:normal;font-weight:normal;font-stretch:normal;font-family:'Calisto MT';-inkscape-font-specification:'Calisto MT';fill:#d97061;fill-opacity:1;stroke:#000000;stroke-width:1.33778512;stroke-opacity:1">ACTIVITY</tspan></text>
    <text
       xml:space="preserve"
       style="font-style:normal;font-weight:normal;font-size:21.9895649px;line-height:1.25;font-family:sans-serif;letter-spacing:0px;word-spacing:0px;fill:#43d100;fill-opacity:1;stroke:#000000;stroke-width:0.5291667;stroke-miterlimit:4;stroke-dasharray:none;stroke-opacity:1"
       x="10.286553"
       y="23.53763"
       id="text1128"><tspan
         sodipodi:role="line"
         id="tspan1126"
         x="10.286553"
         y="23.53763"
         style="font-style:normal;font-variant:normal;font-weight:normal;font-stretch:normal;font-family:'Times New Roman';-inkscape-font-specification:'Times New Roman, ';fill:#43d100;fill-opacity:1;stroke:#000000;stroke-width:0.5291667;stroke-miterlimit:4;stroke-dasharray:none;stroke-opacity:1">THE</tspan></text>
  </g>
  <g
     inkscape:groupmode="layer"
     id="layer5"
     inkscape:label="Level3"
     style="display:inline">
    <rect
       style="opacity:1;fill:#43d100;fill-opacity:1;stroke:none;stroke-width:0.52709556;stroke-linecap:round;stroke-linejoin:round;stroke-miterlimit:4;stroke-dasharray:none;stroke-opacity:1"
       id="rect1131"
       width="336.02084"
       height="190.5"
       x="0"
       y="0" />
    <text
       xml:space="preserve"
       style="font-style:normal;font-weight:normal;font-size:27.52868652px;line-height:1.25;font-family:sans-serif;letter-spacing:0px;word-spacing:0px;fill:#ffff00;fill-opacity:1;stroke:#000000;stroke-width:0.68821722;stroke-opacity:1"
       x="195.58713"
       y="-0.91496891"
       id="text1135"
       transform="rotate(19.101251)"><tspan
         sodipodi:role="line"
         id="tspan1133"
         x="195.58713"
         y="-0.91496891"
         style="fill:#ffff00;fill-opacity:1;stroke:#000000;stroke-width:0.68821722;stroke-opacity:1">Crane Arm</tspan></text>
    <text
       transform="rotate(-57.066268)"
       id="text1139"
       y="196.49573"
       x="-39.372986"
       style="font-style:normal;font-weight:normal;font-size:27.52868652px;line-height:1.25;font-family:sans-serif;letter-spacing:0px;word-spacing:0px;fill:#ffff00;fill-opacity:1;stroke:#000000;stroke-width:0.68821722;stroke-opacity:1"
       xml:space="preserve"><tspan
         style="fill:#ffff00;fill-opacity:1;stroke:#000000;stroke-width:0.68821722;stroke-opacity:1"
         y="196.49573"
         x="-39.372986"
         id="tspan1137"
         sodipodi:role="line">Fore Arm</tspan></text>
    <text
       xml:space="preserve"
       style="font-style:normal;font-weight:normal;font-size:17.28806877px;line-height:1.25;font-family:sans-serif;letter-spacing:0px;word-spacing:0px;fill:#000000;fill-opacity:1;stroke:none;stroke-width:0.43220174"
       x="119.74998"
       y="-112.06156"
       id="text1143"
       transform="matrix(1.4305438,0.78862306,-0.29554354,0.53610909,0,0)"><tspan
         sodipodi:role="line"
         id="tspan1141"
         x="119.74998"
         y="-112.06156"
         style="stroke-width:0.43220174">Hydraulic</tspan></text>
    <path
       style="fill:#ffff00;fill-opacity:1;stroke:#000000;stroke-width:0.27976698px;stroke-linecap:butt;stroke-linejoin:miter;stroke-opacity:1"
       d="m 144.84165,133.10511 c 0,0 -76.815792,68.01903 22.73279,38.56063 0,0 -53.3263,8.70408 -22.73279,-38.56063 z"
       id="path1145"
       inkscape:connector-curvature="0" />
    <rect
       style="opacity:1;fill:#ffff00;fill-opacity:1;stroke:#000000;stroke-width:0.5291667;stroke-linecap:round;stroke-linejoin:round;stroke-miterlimit:4;stroke-dasharray:none;stroke-opacity:1"
       id="rect1147"
       width="103.1875"
       height="84.666672"
       x="317.5"
       y="105.83334" />
    <path
       style="fill:#000097;fill-opacity:1;stroke:#000000;stroke-width:0.26458335px;stroke-linecap:butt;stroke-linejoin:miter;stroke-opacity:1"
       d="m 275.16667,127 -29.10416,63.5 h 71.4375 V 127 Z"
       id="path1149"
       inkscape:connector-curvature="0" />
    <path
       inkscape:connector-curvature="0"
       id="path1151"
       d="m 276.28569,132.40145 -24.15283,52.6971 h 59.28424 v -52.6971 z"
       style="fill:#00ff97;fill-opacity:1;stroke:#000000;stroke-width:0.21957128px;stroke-linecap:butt;stroke-linejoin:miter;stroke-opacity:1" />
    <text
       transform="matrix(0.76986911,-1.4407233,0.53992392,0.28851533,0,0)"
       id="text1155"
       y="297.06818"
       x="-44.901264"
       style="font-style:normal;font-weight:normal;font-size:17.28806877px;line-height:1.25;font-family:sans-serif;letter-spacing:0px;word-spacing:0px;fill:#000000;fill-opacity:1;stroke:none;stroke-width:0.43220174"
       xml:space="preserve"><tspan
         style="stroke-width:0.43220174"
         y="297.06818"
         x="-44.901264"
         id="tspan1153"
         sodipodi:role="line">Hydraulic</tspan></text>
    <text
       xml:space="preserve"
       style="font-style:normal;font-weight:normal;font-size:29.91671753px;line-height:1.25;font-family:sans-serif;letter-spacing:0px;word-spacing:0px;fill:#ff0000;fill-opacity:1;stroke:#000000;stroke-width:0.74791801;stroke-opacity:1"
       x="4.9277716"
       y="26.272133"
       id="text1159"><tspan
         sodipodi:role="line"
         id="tspan1157"
         x="4.9277716"
         y="26.272133"
         style="font-style:normal;font-variant:normal;font-weight:normal;font-stretch:normal;font-family:Ubuntu;-inkscape-font-specification:Ubuntu;fill:#ff0000;fill-opacity:1;stroke:#000000;stroke-width:0.74791801;stroke-opacity:1">UNDER CONSTRUCTION</tspan></text>
    <g
       id="g1170"
       transform="translate(132.02708,-26.458331)">
      <circle
         r="42.333336"
         cy="127"
         cx="-63.5"
         id="path1161"
         style="opacity:1;fill:#8f3eff;fill-opacity:1;stroke:#0000fd;stroke-width:0.5291667;stroke-linecap:round;stroke-linejoin:round;stroke-miterlimit:4;stroke-dasharray:none;stroke-opacity:1" />
      <text
         id="text1165"
         y="157.60437"
         x="-80.948845"
         style="font-style:normal;font-weight:normal;font-size:88.12547302px;line-height:1.25;font-family:sans-serif;letter-spacing:0px;word-spacing:0px;fill:#313184;fill-opacity:1;stroke:#93c9fd;stroke-width:2.20313692;stroke-opacity:1"
         xml:space="preserve"><tspan
           style="font-style:normal;font-variant:normal;font-weight:normal;font-stretch:normal;font-family:Ubuntu;-inkscape-font-specification:Ubuntu;fill:#313184;fill-opacity:1;stroke:#93c9fd;stroke-width:2.20313692;stroke-opacity:1"
           y="157.60437"
           x="-80.948845"
           id="tspan1163"
           sodipodi:role="line">?</tspan></text>
    </g>
    <text
       xml:space="preserve"
       style="font-style:normal;font-weight:normal;font-size:10.58333397px;line-height:1.25;font-family:sans-serif;letter-spacing:0px;word-spacing:0px;fill:#000000;fill-opacity:1;stroke:none;stroke-width:0.26458335"
       x="216.95834"
       y="142.875"
       id="text1174"><tspan
         sodipodi:role="line"
         id="tspan1172"
         x="216.95834"
         y="142.875"
         style="stroke-width:0.26458335">*pffffsch*</tspan></text>
  </g>
</svg>
