<?xml version="1.0" encoding="UTF-8" standalone="no"?>
<!-- Created with Inkscape (http://www.inkscape.org/) -->

<svg
   xmlns:dc="http://purl.org/dc/elements/1.1/"
   xmlns:cc="http://creativecommons.org/ns#"
   xmlns:rdf="http://www.w3.org/1999/02/22-rdf-syntax-ns#"
   xmlns:svg="http://www.w3.org/2000/svg"
   xmlns="http://www.w3.org/2000/svg"
   xmlns:sodipodi="http://sodipodi.sourceforge.net/DTD/sodipodi-0.dtd"
   xmlns:inkscape="http://www.inkscape.org/namespaces/inkscape"
   width="1920"
   height="1080"
   viewBox="0 0 1920 1080"
   version="1.1"
   id="svg8"
   inkscape:version="0.92.3 (2405546, 2018-03-11)"
   sodipodi:docname="NewJobListImage.svg"
   inkscape:export-filename="C:\Users\ASUS\Documents\starring codes\Unity Projects\JOELwindows7_GeoGon-ProofConcept_2DgameProg_Unity\Assets\Sprites\Joblist\JoblistNewJob.png"
   inkscape:export-xdpi="300"
   inkscape:export-ydpi="300">
  <defs
     id="defs2" />
  <sodipodi:namedview
     id="base"
     pagecolor="#ffffff"
     bordercolor="#666666"
     borderopacity="1.0"
     inkscape:pageopacity="0.0"
     inkscape:pageshadow="2"
     inkscape:zoom="0.7"
     inkscape:cx="931.50588"
     inkscape:cy="530.35507"
     inkscape:document-units="px"
     inkscape:current-layer="layer1"
     showgrid="true"
     units="px"
     inkscape:snap-bbox="true"
     inkscape:bbox-nodes="true"
     inkscape:window-width="1920"
     inkscape:window-height="1051"
     inkscape:window-x="-9"
     inkscape:window-y="-9"
     inkscape:window-maximized="1">
    <inkscape:grid
       type="xygrid"
       id="grid815"
       empspacing="4" />
    <inkscape:grid
       type="xygrid"
       id="grid817"
       empspacing="64"
       color="#ff3fff"
       opacity="0.1254902"
       empcolor="#ff3fff"
       empopacity="0.25098039" />
  </sodipodi:namedview>
  <metadata
     id="metadata5">
    <rdf:RDF>
      <cc:Work
         rdf:about="">
        <dc:format>image/svg+xml</dc:format>
        <dc:type
           rdf:resource="http://purl.org/dc/dcmitype/StillImage" />
        <dc:title></dc:title>
        <cc:license
           rdf:resource="http://creativecommons.org/licenses/by-sa/4.0/" />
      </cc:Work>
      <cc:License
         rdf:about="http://creativecommons.org/licenses/by-sa/4.0/">
        <cc:permits
           rdf:resource="http://creativecommons.org/ns#Reproduction" />
        <cc:permits
           rdf:resource="http://creativecommons.org/ns#Distribution" />
        <cc:requires
           rdf:resource="http://creativecommons.org/ns#Notice" />
        <cc:requires
           rdf:resource="http://creativecommons.org/ns#Attribution" />
        <cc:permits
           rdf:resource="http://creativecommons.org/ns#DerivativeWorks" />
        <cc:requires
           rdf:resource="http://creativecommons.org/ns#ShareAlike" />
      </cc:License>
    </rdf:RDF>
  </metadata>
  <g
     inkscape:label="Layer 1"
     inkscape:groupmode="layer"
     id="layer1"
     transform="translate(0,-11.249993)">
    <rect
       style="opacity:1;fill:#f2f2f2;fill-opacity:1;stroke:none;stroke-width:1;stroke-linecap:round;stroke-linejoin:round;stroke-miterlimit:4;stroke-dasharray:none;stroke-opacity:1"
       id="rect897"
       width="1936"
       height="1088"
       x="0"
       y="3.2499931" />
    <text
       xml:space="preserve"
       style="font-style:normal;font-weight:normal;font-size:40px;line-height:1.25;font-family:sans-serif;letter-spacing:0px;word-spacing:0px;fill:#000000;fill-opacity:1;stroke:none"
       x="4.09375"
       y="58.988274"
       id="text821"><tspan
         sodipodi:role="line"
         id="tspan819"
         x="4.09375"
         y="58.988274">Daftar Kerjaan Baru!!!</tspan></text>
    <path
       style="fill:none;stroke:#000000;stroke-width:2.42432427px;stroke-linecap:butt;stroke-linejoin:miter;stroke-opacity:1"
       d="M 375.02568,442.27567 H 219.86892 c 0,0 -155.156758,0 -155.156758,-77.57838 0,-77.57838 96.972978,-116.36757 96.972978,-116.36757 0,0 38.78918,-116.36757 135.76216,-116.36757 96.97297,0 116.36756,116.36757 116.36756,116.36757 0,0 96.97298,19.39459 96.97298,96.97297 0,77.57838 -135.76216,96.97298 -135.76216,96.97298 z"
       id="path823"
       inkscape:connector-curvature="0" />
    <path
       style="fill:none;stroke:#000000;stroke-width:1px;stroke-linecap:butt;stroke-linejoin:miter;stroke-opacity:1"
       d="m 768,323.24999 v -64 h 64 v 64 c 0,0 528,-16 640,80 112,96 80,240 192,240 112,0 192,16 192,128 0,112 -128,128 -128,128 v 64 h -64 v -64 h -128 c 0,0 -48,64 -128,64 -80,0 -576,-64 -640,-128 -64,-64 -192,-80 -192,-240 0,-160 16,-272 128,-272 112,0 64,0 64,0 z"
       id="path825"
       inkscape:connector-curvature="0" />
    <text
       xml:space="preserve"
       style="font-style:normal;font-weight:normal;font-size:40px;line-height:1.25;font-family:sans-serif;letter-spacing:0px;word-spacing:0px;fill:#000000;fill-opacity:1;stroke:none"
       x="960"
       y="643.25"
       id="text829"><tspan
         sodipodi:role="line"
         id="tspan827"
         x="960"
         y="643.25">subModul Level!</tspan></text>
    <path
       style="fill:none;stroke:#000000;stroke-width:1px;stroke-linecap:butt;stroke-linejoin:miter;stroke-opacity:1"
       d="m 192,835.24999 c 0,0 -64,0 -64,32 0,32 64,32 64,32 h 256 c 0,0 64,0 64,-32 0,-32 -64,-32 -64,-32 z"
       id="path831"
       inkscape:connector-curvature="0" />
    <path
       style="fill:none;stroke:#000000;stroke-width:1px;stroke-linecap:butt;stroke-linejoin:miter;stroke-opacity:1"
       d="m 192,835.24999 -64,-32 v -32 h 384 v 40 l -64,24 z"
       id="path833"
       inkscape:connector-curvature="0" />
    <path
       style="fill:none;stroke:#000000;stroke-width:1px;stroke-linecap:butt;stroke-linejoin:miter;stroke-opacity:1"
       d="m 320,771.24999 v -64 h 192 v 64 z"
       id="path835"
       inkscape:connector-curvature="0" />
    <path
       style="fill:none;stroke:#000000;stroke-width:1px;stroke-linecap:butt;stroke-linejoin:miter;stroke-opacity:1"
       d="m 192,771.24999 c 0,0 0,-128 64,-128 64,0 64,0 64,0 v 128 z"
       id="path837"
       inkscape:connector-curvature="0" />
    <path
       style="fill:none;stroke:#000000;stroke-width:1px;stroke-linecap:butt;stroke-linejoin:miter;stroke-opacity:1"
       d="m 320,643.24999 -128,-128 -128,64 24,32 104,-56 80,88 z"
       id="path839"
       inkscape:connector-curvature="0" />
    <path
       style="fill:none;stroke:#000000;stroke-width:1px;stroke-linecap:butt;stroke-linejoin:miter;stroke-opacity:1"
       d="m 64,579.24999 c 0,0 -44,20 -24,64 20,44 40,32 40,32 l 8,-64 z"
       id="path841"
       inkscape:connector-curvature="0" />
    <path
       style="fill:none;stroke:#000000;stroke-width:1px;stroke-linecap:butt;stroke-linejoin:miter;stroke-opacity:1"
       d="m 448,707.24999 v -64 h 24 v 64 z"
       id="path843"
       inkscape:connector-curvature="0" />
    <text
       xml:space="preserve"
       style="font-style:normal;font-weight:normal;font-size:40px;line-height:1.25;font-family:sans-serif;letter-spacing:0px;word-spacing:0px;fill:#000000;fill-opacity:1;stroke:none"
       x="208"
       y="371.25"
       id="text847"><tspan
         sodipodi:role="line"
         id="tspan845"
         x="208"
         y="371.25">Awhan baru!</tspan></text>
    <text
       xml:space="preserve"
       style="font-style:normal;font-weight:normal;font-size:40px;line-height:1.25;font-family:sans-serif;letter-spacing:0px;word-spacing:0px;fill:#000000;fill-opacity:1;stroke:none"
       x="208"
       y="819.25"
       id="text851"><tspan
         sodipodi:role="line"
         id="tspan849"
         x="208"
         y="819.25">Alat bheratt</tspan></text>
    <text
       xml:space="preserve"
       style="font-style:normal;font-weight:normal;font-size:40px;line-height:1.25;font-family:sans-serif;letter-spacing:0px;word-spacing:0px;fill:#000000;fill-opacity:1;stroke:none"
       x="172"
       y="415.25"
       id="text855"><tspan
         sodipodi:role="line"
         id="tspan853"
         x="172"
         y="415.25">Edisi acakadul</tspan></text>
    <text
       xml:space="preserve"
       style="font-style:normal;font-weight:normal;font-size:61.57963181px;line-height:1.25;font-family:sans-serif;letter-spacing:0px;word-spacing:0px;fill:#ff0000;fill-opacity:1;stroke:none;stroke-width:1.53949082"
       x="337.87869"
       y="576.41229"
       id="text859"
       transform="scale(0.5687261,1.7583156)"><tspan
         sodipodi:role="line"
         id="tspan857"
         x="337.87869"
         y="576.41229"
         style="font-style:normal;font-variant:normal;font-weight:bold;font-stretch:normal;font-family:sans-serif;-inkscape-font-specification:'sans-serif Bold';stroke-width:1.53949082">WAJIB: FILE SUMBER (PSD, AI, SVG, IMAGE SCANNER, dsb.)</tspan></text>
    <text
       xml:space="preserve"
       style="font-style:normal;font-weight:normal;font-size:40px;line-height:1.25;font-family:sans-serif;letter-spacing:0px;word-spacing:0px;fill:#000000;fill-opacity:1;stroke:none"
       x="208"
       y="1075.25"
       id="text863"><tspan
         sodipodi:role="line"
         id="tspan861"
         x="208"
         y="1075.25">Opsional: PNG, JPG, foto sembarang</tspan></text>
    <text
       xml:space="preserve"
       style="font-style:normal;font-weight:normal;font-size:40px;line-height:1.25;font-family:sans-serif;letter-spacing:0px;word-spacing:0px;fill:#000000;fill-opacity:1;stroke:none"
       x="928"
       y="771.25"
       id="text867"><tspan
         sodipodi:role="line"
         id="tspan865"
         x="928"
         y="771.25">Aneka ragam design kecil sederhana</tspan></text>
    <text
       xml:space="preserve"
       style="font-style:normal;font-weight:normal;font-size:40px;line-height:1.25;font-family:sans-serif;letter-spacing:0px;word-spacing:0px;fill:#000000;fill-opacity:1;stroke:none"
       x="784"
       y="339.25"
       id="text871"><tspan
         sodipodi:role="line"
         id="tspan869"
         x="784"
         y="339.25">start</tspan></text>
    <text
       xml:space="preserve"
       style="font-style:normal;font-weight:normal;font-size:40px;line-height:1.25;font-family:sans-serif;letter-spacing:0px;word-spacing:0px;fill:#000000;fill-opacity:1;stroke:none"
       x="1672"
       y="891.25"
       id="text875"><tspan
         sodipodi:role="line"
         id="tspan873"
         x="1672"
         y="891.25">finis</tspan></text>
    <path
       style="opacity:1;fill:#000000;fill-opacity:1;stroke:none;stroke-width:1;stroke-linecap:round;stroke-linejoin:round;stroke-miterlimit:4;stroke-dasharray:none;stroke-opacity:1"
       id="path881"
       d="m 906.77596,319.66869 c 21.93092,-8.57887 44.92099,-14.07049 67.73786,-19.71015 29.56468,-6.50442 59.28478,-12.97001 89.44438,-16.05875 7.8456,-0.80349 15.7215,-1.27723 23.5823,-1.91584 9.4254,-0.44619 18.8461,-1.00431 28.2761,-1.33856 37.4627,-1.32785 74.9737,-1.49889 112.4543,-1.77106 27.3632,-0.1987 54.7267,-0.3508 82.09,-0.53629 48.8402,-0.30864 97.6802,-0.69102 146.516,-1.42461 7.9876,-0.065 16.027,-0.38969 23.9951,0.41665 10.5659,1.06921 21.1282,2.9429 31.6146,4.56611 17.9306,2.72761 36.0033,4.28247 54.0399,6.09549 0,0 -15.9366,11.31035 -15.9366,11.31035 v 0 c -17.9237,-2.20203 -35.8943,-3.99759 -53.8018,-6.33746 -18.4475,-2.42669 -36.9385,-4.89803 -55.5904,-4.6639 -47.5636,-0.92911 -95.136,-1.31695 -142.7084,-1.32961 -74.9892,0.13113 -150.0828,0.20416 -224.9283,5.361 -8.0063,0.77813 -16.0281,1.41045 -24.0189,2.33438 -30.2521,3.4979 -60.11013,9.89981 -89.78784,16.57757 -23.50062,5.9295 -47.33666,11.65661 -69.51039,21.64879 0,0 16.53209,-13.22411 16.53209,-13.22411 z"
       inkscape:connector-curvature="0" />
    <path
       style="opacity:1;fill:#000000;fill-opacity:1;stroke:none;stroke-width:1;stroke-linecap:round;stroke-linejoin:round;stroke-miterlimit:4;stroke-dasharray:none;stroke-opacity:1"
       id="path883"
       d="m 1714.8967,845.58279 c 0.7566,-16.7228 -1.6139,-33.4089 -3.3697,-50.00535 -1.8534,-21.65977 -5.0083,-43.16086 -8.7013,-64.57249 -3.0442,-15.798 -5.7855,-31.67013 -7.4764,-47.67421 -1.1413,-14.47223 -1.5244,-28.99599 -2.041,-43.5018 -0.1315,-17.67158 -0.9476,-35.30381 -1.8758,-52.94742 -0.6898,-14.58388 -1.3012,-29.15084 -2.8541,-43.6714 -1.2456,-10.65401 -3.0287,-21.23031 -4.5821,-31.84105 -2.2045,-12.71659 -3.809,-25.51439 -6.2589,-38.18658 -2.8934,-11.90617 -5.2581,-23.92015 -7.6974,-35.92373 -1.5722,-8.44242 -3.6986,-16.72286 -6.3295,-24.88835 -2.288,-6.49198 -4.3853,-13.04741 -6.5841,-19.56872 -1.2812,-4.83986 -3.494,-9.32558 -5.6871,-13.79593 -1.8095,-3.99915 -4.2097,-7.67118 -6.6411,-11.30721 -2.0102,-1.95074 -2.902,-4.42368 -3.902,-6.94502 -1.0655,-2.36272 -2.0097,-4.7218 -2.5728,-7.25816 -0.25,-1.09679 -0.079,-0.69932 -0.3474,-1.25062 0,0 18.6907,-10.31785 18.6907,-10.31785 v 0 c 0.2499,0.88462 0.1255,0.36488 0.3232,1.57031 0.47,2.4445 1.3856,4.66599 2.4284,6.91586 0.9575,2.39095 1.7055,4.73843 3.5923,6.63799 2.3897,3.75751 4.7467,7.54466 6.6906,11.55918 2.3024,4.54266 4.3568,9.22014 5.6316,14.16856 2.1356,6.55691 4.3599,13.07765 6.606,19.59791 2.5116,8.30879 4.5695,16.70452 6.1142,25.25361 2.349,12.05366 4.4803,24.1447 7.4155,36.07731 2.5582,12.65925 4.2468,25.44166 6.5081,38.15611 1.6706,10.62446 3.5151,21.22364 4.6486,31.92414 1.3565,14.66886 1.6522,29.36648 2.259,44.08147 0.9941,17.60469 1.9785,35.19396 2.1777,52.83068 0.5564,14.44313 1.1302,28.89423 2.1192,43.31339 1.6059,16.03413 3.9456,31.9904 6.8882,47.83418 3.6465,21.48643 6.5894,43.07929 8.5331,64.79256 1.8768,16.43365 4.3432,32.83909 5.0723,49.37477 0,0 -18.778,9.56786 -18.778,9.56786 z"
       inkscape:connector-curvature="0" />
    <text
       xml:space="preserve"
       style="font-style:normal;font-weight:normal;font-size:40px;line-height:1.25;font-family:sans-serif;letter-spacing:0px;word-spacing:0px;fill:#000000;fill-opacity:1;stroke:none"
       x="1584"
       y="323.25"
       id="text887"><tspan
         sodipodi:role="line"
         id="tspan885"
         x="1584"
         y="323.25">Opsional.</tspan></text>
    <text
       xml:space="preserve"
       style="font-style:normal;font-weight:normal;font-size:80.71916199px;line-height:1.25;font-family:sans-serif;letter-spacing:0px;word-spacing:0px;fill:#008000;fill-opacity:1;stroke:none;stroke-width:2.01797891"
       x="855.539"
       y="115.32211"
       id="text891"
       transform="scale(0.64858222,1.5418246)"><tspan
         sodipodi:role="line"
         id="tspan889"
         x="855.539"
         y="115.32211"
         style="stroke-width:2.01797891">Hasil kerjaan kalian akan dipoles ketua proyek!</tspan></text>
    <text
       xml:space="preserve"
       style="font-style:normal;font-weight:normal;font-size:40px;line-height:1.25;font-family:sans-serif;letter-spacing:0px;word-spacing:0px;fill:#000000;fill-opacity:1;stroke:none"
       x="176"
       y="883.25"
       id="text895"><tspan
         sodipodi:role="line"
         id="tspan893"
         x="176"
         y="883.25">aneka macam</tspan></text>
  </g>
</svg>
