<?xml version="1.0" encoding="UTF-8" standalone="no"?>
<!-- Created with Inkscape (http://www.inkscape.org/) -->

<svg
   xmlns:dc="http://purl.org/dc/elements/1.1/"
   xmlns:cc="http://creativecommons.org/ns#"
   xmlns:rdf="http://www.w3.org/1999/02/22-rdf-syntax-ns#"
   xmlns:svg="http://www.w3.org/2000/svg"
   xmlns="http://www.w3.org/2000/svg"
   xmlns:sodipodi="http://sodipodi.sourceforge.net/DTD/sodipodi-0.dtd"
   xmlns:inkscape="http://www.inkscape.org/namespaces/inkscape"
   width="100"
   height="100"
   viewBox="0 0 26.458333 26.458333"
   version="1.1"
   id="svg8"
   inkscape:version="0.92.3 (2405546, 2018-03-11)"
   sodipodi:docname="TidakSemudahItuFerguso.svg">
  <defs
     id="defs2" />
  <sodipodi:namedview
     id="base"
     pagecolor="#ffffff"
     bordercolor="#666666"
     borderopacity="1.0"
     inkscape:pageopacity="0.0"
     inkscape:pageshadow="2"
     inkscape:zoom="5.6"
     inkscape:cx="42.779617"
     inkscape:cy="51.658085"
     inkscape:document-units="px"
     inkscape:current-layer="layer1"
     showgrid="true"
     units="px"
     inkscape:window-width="1920"
     inkscape:window-height="1051"
     inkscape:window-x="-9"
     inkscape:window-y="-9"
     inkscape:window-maximized="1">
    <inkscape:grid
       type="xygrid"
       id="grid815"
       empspacing="4" />
    <inkscape:grid
       type="xygrid"
       id="grid817"
       color="#ff3fff"
       opacity="0.1254902"
       empcolor="#ff3fff"
       empopacity="0.25098039"
       empspacing="32" />
  </sodipodi:namedview>
  <metadata
     id="metadata5">
    <rdf:RDF>
      <cc:Work
         rdf:about="">
        <dc:format>image/svg+xml</dc:format>
        <dc:type
           rdf:resource="http://purl.org/dc/dcmitype/StillImage" />
        <dc:title></dc:title>
        <cc:license
           rdf:resource="http://creativecommons.org/licenses/by-sa/4.0/" />
      </cc:Work>
      <cc:License
         rdf:about="http://creativecommons.org/licenses/by-sa/4.0/">
        <cc:permits
           rdf:resource="http://creativecommons.org/ns#Reproduction" />
        <cc:permits
           rdf:resource="http://creativecommons.org/ns#Distribution" />
        <cc:requires
           rdf:resource="http://creativecommons.org/ns#Notice" />
        <cc:requires
           rdf:resource="http://creativecommons.org/ns#Attribution" />
        <cc:permits
           rdf:resource="http://creativecommons.org/ns#DerivativeWorks" />
        <cc:requires
           rdf:resource="http://creativecommons.org/ns#ShareAlike" />
      </cc:License>
    </rdf:RDF>
  </metadata>
  <g
     inkscape:label="Layer 1"
     inkscape:groupmode="layer"
     id="layer1"
     transform="translate(0,-270.54167)">
    <g
       id="g894"
       inkscape:export-filename="C:\Users\ASUS\Documents\starring codes\Unity Projects\JOELwindows7_GeoGon-ProofConcept_2DgameProg_Unity\Assets\Sprites\BarangSatu1\TidakSemudahItuFerguso.png"
       inkscape:export-xdpi="600"
       inkscape:export-ydpi="600">
      <path
         inkscape:connector-curvature="0"
         id="path819"
         d="m -2.8e-7,271.6 c 0,0 4.23333338,2.11667 8.46666638,2.11667 C 12.7,273.71667 16.933333,271.6 16.933333,271.6 v 14.81667 c 0,0 -4.233333,2.11667 -8.4666669,2.11667 -4.233333,0 -8.46666638,-2.11667 -8.46666638,-2.11667 z"
         style="fill:#00ff00;fill-opacity:1;stroke:none;stroke-width:0.26458332px;stroke-linecap:butt;stroke-linejoin:miter;stroke-opacity:1" />
      <g
         id="g880">
        <g
           id="g868">
          <g
             id="g856">
            <path
               style="fill:#ffff00;stroke:none;stroke-width:0.26458332px;stroke-linecap:butt;stroke-linejoin:miter;stroke-opacity:1;fill-opacity:1"
               d="m 2.1166666,276.89167 c 0,0 1.0583334,-1.05833 2.1166667,-1.05833 1.0583333,0 2.1166666,1.05833 2.1166666,1.05833 0,0 -1.0583333,1.05833 -2.1166666,1.05833 -1.0583333,0 -2.1166667,-1.05833 -2.1166667,-1.05833 z"
               id="path821"
               inkscape:connector-curvature="0" />
            <path
               style="fill:#ffff00;fill-opacity:1;stroke:none;stroke-width:0.26458332px;stroke-linecap:butt;stroke-linejoin:miter;stroke-opacity:1"
               d="m 10.583333,276.89167 c 0,0 1.058334,-1.05833 2.116667,-1.05833 1.058333,0 2.116666,1.05833 2.116666,1.05833 0,0 -1.058333,1.05833 -2.116666,1.05833 -1.058333,0 -2.116667,-1.05833 -2.116667,-1.05833 z"
               id="path821-5"
               inkscape:connector-curvature="0" />
          </g>
          <g
             id="g852">
            <path
               style="fill:#ff0000;fill-opacity:1;stroke:none;stroke-width:0.26458332px;stroke-linecap:butt;stroke-linejoin:miter;stroke-opacity:1"
               d="m 2.1166666,274.775 v 0.52917 h 2.1166667 c 1.0583333,0 2.1166666,1.05833 2.1166666,1.05833 v -0.52916 c 0,0 -1.0583333,-1.05834 -2.1166666,-1.05834 z"
               id="path844"
               inkscape:connector-curvature="0"
               sodipodi:nodetypes="ccsccsc" />
            <path
               inkscape:connector-curvature="0"
               id="path846"
               d="m 14.816666,274.775 v 0.52917 h -2.116667 c -1.058333,0 -2.116666,1.05833 -2.116666,1.05833 v -0.52916 c 0,0 1.058333,-1.05834 2.116666,-1.05834 z"
               style="fill:#ff0000;fill-opacity:1;stroke:none;stroke-width:0.26458332px;stroke-linecap:butt;stroke-linejoin:miter;stroke-opacity:1"
               sodipodi:nodetypes="ccsccsc" />
          </g>
        </g>
        <g
           id="g860">
          <path
             inkscape:connector-curvature="0"
             id="path838"
             d="m 4.2333333,283.24167 c 0,0 1.0583333,2.11667 4.2333333,2.11667 3.1750004,0 4.2333334,-2.11667 4.2333334,-2.11667 0,0 -1.058333,1.05833 -1.5875,0.52917 -0.529167,-0.52917 -2.6458334,-0.52917 -2.6458334,-0.52917 0,0 -2.1166667,0 -2.6458333,0.52917 -0.5291667,0.52916 -1.5875,-0.52917 -1.5875,-0.52917 z"
             style="fill:#ffff00;stroke:none;stroke-width:0.26458332px;stroke-linecap:butt;stroke-linejoin:miter;stroke-opacity:1;fill-opacity:1" />
          <path
             inkscape:connector-curvature="0"
             id="path848"
             d="m 8.4666666,279.00834 -1.0583334,1.05833 c 0,0 1.0583334,0 1.0583334,1.05833 0,-1.05834 1.0583333,-1.05833 1.0583333,-1.05833 z"
             style="fill:#0082ff;stroke:none;stroke-width:0.26458332px;stroke-linecap:butt;stroke-linejoin:miter;stroke-opacity:1;fill-opacity:1" />
        </g>
      </g>
    </g>
  </g>
</svg>
