<?xml version="1.0" encoding="UTF-8"?>
<!-- Created with Inkscape (http://www.inkscape.org/) -->
<svg width="2960" height="1440" inkscape:export-filename="C:\Users\ASUS\Documents\starring codes\Unity Projects\JOELwindows7_GeoGon-ProofConcept_2DgameProg_Unity\Assets\Sprites\VeryDefaultBG.png" inkscape:export-xdpi="96" inkscape:export-ydpi="96" inkscape:version="0.92.3 (2405546, 2018-03-11)" sodipodi:docname="VeryDefaultBGrender.svg" version="1.1" viewBox="0 0 2960 1440" xmlns="http://www.w3.org/2000/svg" xmlns:cc="http://creativecommons.org/ns#" xmlns:dc="http://purl.org/dc/elements/1.1/" xmlns:inkscape="http://www.inkscape.org/namespaces/inkscape" xmlns:rdf="http://www.w3.org/1999/02/22-rdf-syntax-ns#" xmlns:sodipodi="http://sodipodi.sourceforge.net/DTD/sodipodi-0.dtd" xmlns:xlink="http://www.w3.org/1999/xlink">
 <defs>
  <linearGradient id="linearGradient827" x1="1472" x2="1472" y1="652" y2="1356" gradientUnits="userSpaceOnUse" inkscape:collect="always">
   <stop stop-color="#006fff" offset="0"/>
   <stop stop-color="#1fffa5" offset="1"/>
  </linearGradient>
 </defs>
 <sodipodi:namedview id="base" bordercolor="#666666" borderopacity="1.0" inkscape:bbox-nodes="true" inkscape:current-layer="layer2" inkscape:cx="692.82057" inkscape:cy="49.99249" inkscape:document-units="px" inkscape:pageopacity="0.0" inkscape:pageshadow="2" inkscape:snap-bbox="true" inkscape:snap-page="true" inkscape:window-height="1051" inkscape:window-maximized="1" inkscape:window-width="1920" inkscape:window-x="-9" inkscape:window-y="-9" inkscape:zoom="0.9899495" pagecolor="#ffffff" showgrid="true" units="px">
  <inkscape:grid empspacing="4" type="xygrid"/>
  <inkscape:grid color="#ff3f3f" opacity=".1254902" empcolor="#ff3f3f" empopacity="0.25098039" empspacing="64" type="xygrid"/>
 </sodipodi:namedview>
 <metadata>
  <rdf:RDF>
   <cc:Work rdf:about="">
    <dc:format>image/svg+xml</dc:format>
    <dc:type rdf:resource="http://purl.org/dc/dcmitype/StillImage"/>
    <dc:title/>
    <cc:license rdf:resource="http://creativecommons.org/licenses/by-sa/4.0/"/>
   </cc:Work>
   <cc:License rdf:about="http://creativecommons.org/licenses/by-sa/4.0/">
    <cc:permits rdf:resource="http://creativecommons.org/ns#Reproduction"/>
    <cc:permits rdf:resource="http://creativecommons.org/ns#Distribution"/>
    <cc:requires rdf:resource="http://creativecommons.org/ns#Notice"/>
    <cc:requires rdf:resource="http://creativecommons.org/ns#Attribution"/>
    <cc:permits rdf:resource="http://creativecommons.org/ns#DerivativeWorks"/>
    <cc:requires rdf:resource="http://creativecommons.org/ns#ShareAlike"/>
   </cc:License>
  </rdf:RDF>
 </metadata>
 <g transform="translate(0,84.000013)" inkscape:groupmode="layer" inkscape:label="BG">
  <rect transform="translate(0,2.1270264e-6)" y="-84.000015" width="2960" height="1440" fill="url(#linearGradient827)" stroke-width=".99730819"/>
  <g inkscape:groupmode="layer" inkscape:label="Watermark" sodipodi:insensitive="true">
   <g transform="translate(0,785.49999)">
    <g>
     <g transform="translate(-128,64)">
      <path transform="translate(0,106.5)" d="m256 208a64 64 0 0 0-64 64 64 64 0 0 0 64 64h64a64 64 0 0 0 64-64 64 64 0 0 0-64-64z" fill="#ffc800" inkscape:connector-curvature="0"/>
      <path transform="translate(0,106.5)" d="m288 224a4 4 0 0 0-4 4v40h-40a4 4 0 0 0-4 4 4 4 0 0 0 4 4h40v40a4 4 0 0 0 4 4 4 4 0 0 0 4-4v-40h40a4 4 0 0 0 4-4 4 4 0 0 0-4-4h-40v-40a4 4 0 0 0-4-4z" fill="#fffe00" inkscape:connector-curvature="0"/>
     </g>
     <g transform="translate(-108.256,129.20475)" aria-label="Perkedel Technologies">
      <path d="m409.92 282.31925q14.016 0 21.504 5.376 7.584 5.28 7.584 15.84 0 5.76-2.112 9.888-2.016 4.032-5.952 6.624-3.84 2.496-9.408 3.648t-12.576 1.152h-7.392v24.672h-9.312v-65.568q3.936-0.96 8.736-1.248 4.896-0.384 8.928-0.384zm0.768 8.16q-5.952 0-9.12 0.288v26.112h7.008q4.8 0 8.64-0.576 3.84-0.672 6.432-2.112 2.688-1.536 4.128-4.128t1.44-6.624q0-3.84-1.536-6.336-1.44-2.496-4.032-3.936-2.496-1.536-5.856-2.112t-7.104-0.576z" inkscape:connector-curvature="0"/>
      <path d="m444.2085 324.65525q0-6.624 1.92-11.52 1.92-4.992 5.088-8.256t7.296-4.896 8.448-1.632q10.08 0 15.456 6.336 5.376 6.24 5.376 19.104 0 0.576 0 1.536 0 0.864-0.096 1.632h-34.176q0.576 7.776 4.512 11.808t12.288 4.032q4.704 0 7.872-0.768 3.264-0.864 4.896-1.632l1.248 7.488q-1.632 0.864-5.76 1.824-4.032 0.96-9.216 0.96-6.528 0-11.328-1.92-4.704-2.016-7.776-5.472t-4.608-8.16q-1.44-4.8-1.44-10.464zm34.272-4.896q0.096-6.048-3.072-9.888-3.072-3.936-8.544-3.936-3.072 0-5.472 1.248-2.304 1.152-3.936 3.072t-2.592 4.416q-0.864 2.496-1.152 5.088z" inkscape:connector-curvature="0"/>
      <path d="m519.0495 298.54325q1.152 0 2.592 0.192 1.536 0.096 2.976 0.384 1.44 0.192 2.592 0.48 1.248 0.192 1.824 0.384l-1.536 7.776q-1.056-0.384-3.552-0.864-2.4-0.576-6.24-0.576-2.496 0-4.992 0.576-2.4 0.48-3.168 0.672v41.952h-8.928v-47.808q3.168-1.152 7.872-2.112 4.704-1.056 10.56-1.056z" inkscape:connector-curvature="0"/>
      <path d="m555.7905 322.06325q2.88 2.208 6.048 5.472 3.264 3.264 6.336 7.104 3.168 3.744 5.952 7.68 2.784 3.84 4.704 7.2h-10.464q-2.016-3.36-4.704-6.816-2.592-3.552-5.472-6.72-2.88-3.264-5.856-5.952t-5.664-4.512v24h-8.928v-72.96l8.928-1.536v45.504q2.304-2.304 5.088-5.088t5.472-5.664 5.088-5.472q2.4-2.688 4.128-4.704h10.464q-2.208 2.4-4.8 5.28t-5.376 5.856q-2.784 2.88-5.664 5.856-2.784 2.88-5.28 5.472z" inkscape:connector-curvature="0"/>
      <path d="m582.5835 324.65525q0-6.624 1.92-11.52 1.92-4.992 5.088-8.256t7.296-4.896 8.448-1.632q10.08 0 15.456 6.336 5.376 6.24 5.376 19.104 0 0.576 0 1.536 0 0.864-0.096 1.632h-34.176q0.576 7.776 4.512 11.808t12.288 4.032q4.704 0 7.872-0.768 3.264-0.864 4.896-1.632l1.248 7.488q-1.632 0.864-5.76 1.824-4.032 0.96-9.216 0.96-6.528 0-11.328-1.92-4.704-2.016-7.776-5.472t-4.608-8.16q-1.44-4.8-1.44-10.464zm34.272-4.896q0.096-6.048-3.072-9.888-3.072-3.936-8.544-3.936-3.072 0-5.472 1.248-2.304 1.152-3.936 3.072t-2.592 4.416q-0.864 2.496-1.152 5.088z" inkscape:connector-curvature="0"/>
      <path d="m671.2485 310.15925q-1.632-1.344-4.704-2.592t-6.72-1.248q-3.84 0-6.624 1.44-2.688 1.344-4.416 3.84-1.728 2.4-2.496 5.76t-0.768 7.2q0 8.736 4.32 13.536 4.32 4.704 11.52 4.704 3.648 0 6.048-0.288 2.496-0.384 3.84-0.768zm0-33.6 8.928-1.536v73.056q-3.072 0.864-7.872 1.728t-11.04 0.864q-5.76 0-10.368-1.824t-7.872-5.184-5.088-8.16q-1.728-4.896-1.728-10.944 0-5.76 1.44-10.56 1.536-4.8 4.416-8.256t7.008-5.376q4.224-1.92 9.6-1.92 4.32 0 7.584 1.152 3.36 1.152 4.992 2.208z" inkscape:connector-curvature="0"/>
      <path d="m692.8335 324.65525q0-6.624 1.92-11.52 1.92-4.992 5.088-8.256t7.296-4.896 8.448-1.632q10.08 0 15.456 6.336 5.376 6.24 5.376 19.104 0 0.576 0 1.536 0 0.864-0.096 1.632h-34.176q0.576 7.776 4.512 11.808t12.288 4.032q4.704 0 7.872-0.768 3.264-0.864 4.896-1.632l1.248 7.488q-1.632 0.864-5.76 1.824-4.032 0.96-9.216 0.96-6.528 0-11.328-1.92-4.704-2.016-7.776-5.472t-4.608-8.16q-1.44-4.8-1.44-10.464zm34.272-4.896q0.096-6.048-3.072-9.888-3.072-3.936-8.544-3.936-3.072 0-5.472 1.248-2.304 1.152-3.936 3.072t-2.592 4.416q-0.864 2.496-1.152 5.088z" inkscape:connector-curvature="0"/>
      <path d="m764.2185 350.47925q-8.256-0.192-11.712-3.552t-3.456-10.464v-59.904l8.928-1.536v60q0 2.208 0.384 3.648t1.248 2.304 2.304 1.344q1.44 0.384 3.552 0.672z" inkscape:connector-curvature="0"/>
      <path d="m842.6415 282.99125v8.064h-20.928v58.464h-9.312v-58.464h-20.928v-8.064z" inkscape:connector-curvature="0"/>
      <path d="m843.771 324.65525q0-6.624 1.92-11.52 1.92-4.992 5.088-8.256t7.296-4.896 8.448-1.632q10.08 0 15.456 6.336 5.376 6.24 5.376 19.104 0 0.576 0 1.536 0 0.864-0.096 1.632h-34.176q0.576 7.776 4.512 11.808t12.288 4.032q4.704 0 7.872-0.768 3.264-0.864 4.896-1.632l1.248 7.488q-1.632 0.864-5.76 1.824-4.032 0.96-9.216 0.96-6.528 0-11.328-1.92-4.704-2.016-7.776-5.472t-4.608-8.16q-1.44-4.8-1.44-10.464zm34.272-4.896q0.096-6.048-3.072-9.888-3.072-3.936-8.544-3.936-3.072 0-5.472 1.248-2.304 1.152-3.936 3.072t-2.592 4.416q-0.864 2.496-1.152 5.088z" inkscape:connector-curvature="0"/>
      <path d="m921.876 350.67125q-6.048 0-10.656-1.92-4.512-1.92-7.68-5.376-3.072-3.456-4.608-8.16-1.536-4.8-1.536-10.56t1.632-10.56q1.728-4.8 4.8-8.256 3.072-3.552 7.488-5.472 4.512-2.016 9.984-2.016 3.36 0 6.72 0.576t6.432 1.824l-2.016 7.584q-2.016-0.96-4.704-1.536-2.592-0.576-5.568-0.576-7.488 0-11.52 4.704-3.936 4.704-3.936 13.728 0 4.032 0.864 7.392 0.96 3.36 2.88 5.76 2.016 2.4 5.088 3.744 3.072 1.248 7.488 1.248 3.552 0 6.432-0.672t4.512-1.44l1.248 7.488q-0.768 0.48-2.208 0.96-1.44 0.384-3.264 0.672-1.824 0.384-3.936 0.576-2.016 0.288-3.936 0.288z" inkscape:connector-curvature="0"/>
      <path d="m944.805 349.51925v-72.96l8.928-1.536v25.536q2.496-0.96 5.28-1.44 2.88-0.576 5.664-0.576 5.952 0 9.888 1.728 3.936 1.632 6.24 4.704 2.4 2.976 3.36 7.2t0.96 9.312v28.032h-8.928v-26.112q0-4.608-0.672-7.872-0.576-3.264-2.016-5.28t-3.84-2.88q-2.4-0.96-5.952-0.96-1.44 0-2.976 0.192t-2.976 0.48q-1.344 0.192-2.496 0.48-1.056 0.288-1.536 0.48v41.472z" inkscape:connector-curvature="0"/>
      <path d="m999.555 301.03925q3.072-0.768 8.16-1.632t11.712-0.864q5.952 0 9.888 1.728 3.936 1.632 6.24 4.704 2.4 2.976 3.36 7.2t0.96 9.312v28.032h-8.928v-26.112q0-4.608-0.672-7.872-0.576-3.264-2.016-5.28t-3.84-2.88q-2.4-0.96-5.952-0.96-1.44 0-2.976 0.096t-2.976 0.288q-1.344 0.096-2.496 0.288-1.056 0.192-1.536 0.288v42.144h-8.928z" inkscape:connector-curvature="0"/>
      <path d="m1098.744 324.55925q0 5.952-1.728 10.752t-4.896 8.256q-3.072 3.456-7.392 5.376-4.32 1.824-9.408 1.824t-9.408-1.824q-4.32-1.92-7.488-5.376-3.072-3.456-4.8-8.256t-1.728-10.752q0-5.856 1.728-10.656 1.728-4.896 4.8-8.352 3.168-3.456 7.488-5.28 4.32-1.92 9.408-1.92t9.408 1.92q4.32 1.824 7.392 5.28 3.168 3.456 4.896 8.352 1.728 4.8 1.728 10.656zm-9.312 0q0-8.448-3.84-13.344-3.744-4.992-10.272-4.992t-10.368 4.992q-3.744 4.896-3.744 13.344t3.744 13.44q3.84 4.896 10.368 4.896t10.272-4.896q3.84-4.992 3.84-13.44z" inkscape:connector-curvature="0"/>
      <path d="m1126.281 350.47925q-8.256-0.192-11.712-3.552t-3.456-10.464v-59.904l8.928-1.536v60q0 2.208 0.384 3.648t1.248 2.304 2.304 1.344q1.44 0.384 3.552 0.672z" inkscape:connector-curvature="0"/>
      <path d="m1181.619 324.55925q0 5.952-1.728 10.752t-4.896 8.256q-3.072 3.456-7.392 5.376-4.32 1.824-9.408 1.824t-9.408-1.824q-4.32-1.92-7.488-5.376-3.072-3.456-4.8-8.256t-1.728-10.752q0-5.856 1.728-10.656 1.728-4.896 4.8-8.352 3.168-3.456 7.488-5.28 4.32-1.92 9.408-1.92t9.408 1.92q4.32 1.824 7.392 5.28 3.168 3.456 4.896 8.352 1.728 4.8 1.728 10.656zm-9.312 0q0-8.448-3.84-13.344-3.744-4.992-10.272-4.992t-10.368 4.992q-3.744 4.896-3.744 13.344t3.744 13.44q3.84 4.896 10.368 4.896t10.272-4.896q3.84-4.992 3.84-13.44z" inkscape:connector-curvature="0"/>
      <path d="m1225.476 344.52725q-1.152 0.768-4.512 2.016-3.264 1.152-7.68 1.152-4.512 0-8.544-1.44-3.936-1.44-6.912-4.416-2.976-3.072-4.704-7.584t-1.728-10.752q0-5.472 1.632-9.984 1.632-4.608 4.704-7.872 3.168-3.36 7.68-5.184 4.512-1.92 10.176-1.92 6.24 0 10.848 0.96 4.704 0.864 7.872 1.632v44.544q0 11.52-5.952 16.704t-18.048 5.184q-4.704 0-8.928-0.768-4.128-0.768-7.2-1.824l1.632-7.776q2.688 1.056 6.528 1.824 3.936 0.864 8.16 0.864 7.968 0 11.424-3.168 3.552-3.168 3.552-10.08zm-0.096-37.056q-1.344-0.384-3.648-0.672-2.208-0.384-6.048-0.384-7.2 0-11.136 4.704-3.84 4.704-3.84 12.48 0 4.32 1.056 7.392 1.152 3.072 2.976 5.088 1.92 2.016 4.32 2.976 2.496 0.96 5.088 0.96 3.552 0 6.528-0.96 2.976-1.056 4.704-2.4z" inkscape:connector-curvature="0"/>
      <path d="m1258.608 349.51925h-8.928v-49.92h8.928zm-4.512-58.944q-2.4 0-4.128-1.536-1.632-1.632-1.632-4.32t1.632-4.224q1.728-1.632 4.128-1.632t4.032 1.632q1.728 1.536 1.728 4.224t-1.728 4.32q-1.632 1.536-4.032 1.536z" inkscape:connector-curvature="0"/>
      <path d="m1271.271 324.65525q0-6.624 1.92-11.52 1.92-4.992 5.088-8.256t7.296-4.896 8.448-1.632q10.08 0 15.456 6.336 5.376 6.24 5.376 19.104 0 0.576 0 1.536 0 0.864-0.096 1.632h-34.176q0.576 7.776 4.512 11.808t12.288 4.032q4.704 0 7.872-0.768 3.264-0.864 4.896-1.632l1.248 7.488q-1.632 0.864-5.76 1.824-4.032 0.96-9.216 0.96-6.528 0-11.328-1.92-4.704-2.016-7.776-5.472t-4.608-8.16q-1.44-4.8-1.44-10.464zm34.272-4.896q0.096-6.048-3.072-9.888-3.072-3.936-8.544-3.936-3.072 0-5.472 1.248-2.304 1.152-3.936 3.072t-2.592 4.416q-0.864 2.496-1.152 5.088z" inkscape:connector-curvature="0"/>
      <path d="m1339.296 343.08725q5.472 0 8.064-1.44 2.688-1.44 2.688-4.608 0-3.264-2.592-5.184t-8.544-4.32q-2.88-1.152-5.568-2.304-2.592-1.248-4.512-2.88t-3.072-3.936-1.152-5.664q0-6.624 4.896-10.464 4.896-3.936 13.344-3.936 2.112 0 4.224 0.288 2.112 0.192 3.936 0.576 1.824 0.288 3.168 0.672 1.44 0.384 2.208 0.672l-1.632 7.68q-1.44-0.768-4.512-1.536-3.072-0.864-7.392-0.864-3.744 0-6.528 1.536-2.784 1.44-2.784 4.608 0 1.632 0.576 2.88 0.672 1.248 1.92 2.304 1.344 0.96 3.264 1.824t4.608 1.824q3.552 1.344 6.336 2.688 2.784 1.248 4.704 2.976 2.016 1.728 3.072 4.224 1.056 2.4 1.056 5.952 0 6.912-5.184 10.464-5.088 3.552-14.592 3.552-6.624 0-10.368-1.152-3.744-1.056-5.088-1.632l1.632-7.68q1.536 0.576 4.896 1.728t8.928 1.152z" inkscape:connector-curvature="0"/>
     </g>
    </g>
   </g>
  </g>
 </g>
</svg>
