<?xml version="1.0" encoding="utf-8"?>
<!-- Generator: Adobe Illustrator 16.0.5, SVG Export Plug-In . SVG Version: 6.00 Build 0)  -->
<!DOCTYPE svg PUBLIC "-//W3C//DTD SVG 1.1//EN" "http://www.w3.org/Graphics/SVG/1.1/DTD/svg11.dtd">
<svg version="1.1" id="Layer_1" xmlns="http://www.w3.org/2000/svg" xmlns:xlink="http://www.w3.org/1999/xlink" x="0px" y="0px"
	 width="16px" height="16px" viewBox="0 0 16 16" enable-background="new 0 0 16 16" xml:space="preserve">
<path fill="#E0E0E0" fill-opacity="0.9961" d="M3,1C1.896,1,1,1.896,1,3v10c0,1.104,0.896,2,2,2h10c1.104,0,2-0.896,2-2V3
	c0-1.104-0.896-2-2-2H3z M3,3h10v10H3V3z"/>
<rect x="4" y="4" fill="#EFA5A5" width="5" height="2"/>
<rect x="10" y="4" fill="#E0E0E0" fill-opacity="0.9961" width="2" height="2"/>
<rect x="4" y="7" fill="#A5EFAC" width="5" height="2"/>
<rect x="10" y="7" fill="#E0E0E0" fill-opacity="0.9961" width="2" height="2"/>
<rect x="4" y="10" fill="#A5C1EF" width="5" height="2"/>
<rect x="10" y="10" fill="#E0E0E0" fill-opacity="0.9961" width="2" height="2"/>
</svg>
