<svg xmlns="http://www.w3.org/2000/svg" xmlns:xlink="http://www.w3.org/1999/xlink" width="120" height="120" viewBox="0 0 120 120">
  <defs>
    <clipPath id="clip-Button_-_PS_Directional_Arrow_Up_2">
      <rect width="120" height="120"/>
    </clipPath>
  </defs>
  <g id="Button_-_PS_Directional_Arrow_Up_2" data-name="Button - PS Directional Arrow Up 2" clip-path="url(#clip-Button_-_PS_Directional_Arrow_Up_2)">
    <g id="Union_2" data-name="Union 2" transform="translate(96 1775)" fill="#2a2a2a">
      <path d="M -36.00090026855469 -1659.802856445313 L -36.03888702392578 -1659.803588867188 C -37.93188858032227 -1659.839599609375 -39.71126174926758 -1660.591430664063 -41.04923629760742 -1661.920776367188 L -65.85839080810547 -1686.530151367188 C -67.23922729492188 -1687.89990234375 -67.99970245361328 -1689.722900390625 -67.99970245361328 -1691.663452148438 L -67.99970245361328 -1726.466430664063 L -67.99970245361328 -1739.999755859375 C -67.99970245361328 -1744.4111328125 -64.41118621826172 -1748 -60.00030136108398 -1748 L -11.99969959259033 -1748 C -7.588812351226807 -1748 -4.00029993057251 -1744.4111328125 -4.00029993057251 -1739.999755859375 L -4.00029993057251 -1723.11669921875 L -4.00029993057251 -1691.663452148438 C -4.00029993057251 -1689.723510742188 -4.761087417602539 -1687.900390625 -6.142537593841553 -1686.530151367188 L -30.9518871307373 -1661.919677734375 C -32.29169845581055 -1660.590942382813 -34.07125091552734 -1659.839477539063 -35.96291351318359 -1659.803588867188 L -36.00090026855469 -1659.802856445313 Z" stroke="none"/>
      <path d="M -36.00090026855469 -1661.80322265625 C -34.62570190429688 -1661.829345703125 -33.33330154418945 -1662.374755859375 -32.36040115356445 -1663.339599609375 L -7.551000118255615 -1687.950073242188 C -6.55109977722168 -1688.94189453125 -6.00029993057251 -1690.260375976563 -6.00029993057251 -1691.663452148438 L -6.00029993057251 -1723.11669921875 L -6.00029993057251 -1739.999755859375 C -6.00029993057251 -1743.313598632813 -8.68589973449707 -1746 -11.99969959259033 -1746 L -60.00030136108398 -1746 C -63.3140983581543 -1746 -65.99970245361328 -1743.313598632813 -65.99970245361328 -1739.999755859375 L -65.99970245361328 -1726.466430664063 L -65.99970245361328 -1691.663452148438 C -65.99970245361328 -1690.260375976563 -65.44979858398438 -1688.94189453125 -64.44989776611328 -1687.950073242188 L -39.63959884643555 -1663.339599609375 C -38.66849899291992 -1662.374755859375 -37.3760986328125 -1661.829345703125 -36.00090026855469 -1661.80322265625 M -36.00090026855469 -1657.802490234375 L -36.07684326171875 -1657.803955078125 C -38.48724365234375 -1657.849731445313 -40.75375747680664 -1658.807983398438 -42.45886993408203 -1660.502075195313 L -67.26686859130859 -1685.110229492188 C -69.02915954589844 -1686.858276367188 -69.99970245361328 -1689.185668945313 -69.99970245361328 -1691.663452148438 L -69.99970245361328 -1726.466430664063 L -69.99970245361328 -1739.999755859375 C -69.99970245361328 -1745.513916015625 -65.51398468017578 -1750 -60.00030136108398 -1750 L -11.99969959259033 -1750 C -6.486014366149902 -1750 -2.00029993057251 -1745.513916015625 -2.00029993057251 -1739.999755859375 L -2.00029993057251 -1723.11669921875 L -2.00029993057251 -1691.663452148438 C -2.00029993057251 -1689.186157226563 -2.971171379089355 -1686.85888671875 -4.734056949615479 -1685.110229492188 L -29.54338645935059 -1660.499755859375 C -31.2503719329834 -1658.807006835938 -33.51658630371094 -1657.849731445313 -35.92495727539063 -1657.803955078125 L -36.00090026855469 -1657.802490234375 Z" stroke="none" fill="#fff"/>
    </g>
    <path id="Union_3" data-name="Union 3" d="M-43.155-1671.194l-21.5-22.271A4.811,4.811,0,0,1-66-1696.826V-1740a6,6,0,0,1,6-6h40a6,6,0,0,1,6,6v43.174a4.808,4.808,0,0,1-1.344,3.361l-21.5,22.271A4.487,4.487,0,0,1-40-1669.8,4.487,4.487,0,0,1-43.155-1671.194Z" transform="translate(100 1775)" fill="#404040"/>
    <path id="Polygon_3" data-name="Polygon 3" d="M19,0,38,18H0Z" transform="translate(41 3)" fill="#fff"/>
  </g>
</svg>
