<svg xmlns="http://www.w3.org/2000/svg" xmlns:xlink="http://www.w3.org/1999/xlink" width="120" height="120" viewBox="0 0 120 120">
  <defs>
    <clipPath id="clip-Button_-_PS_Directional_Arrow_Right">
      <rect width="120" height="120"/>
    </clipPath>
  </defs>
  <g id="Button_-_PS_Directional_Arrow_Right" data-name="Button - PS Directional Arrow Right" clip-path="url(#clip-Button_-_PS_Directional_Arrow_Right)">
    <g id="Union_2" data-name="Union 2" transform="translate(-1654.902 95.098) rotate(90)" fill="#2a2a2a">
      <path d="M -36.00090026855469 -1659.802856445313 L -36.03888702392578 -1659.803588867188 C -37.93188858032227 -1659.839599609375 -39.71126174926758 -1660.591430664063 -41.04923629760742 -1661.920776367188 L -65.85839080810547 -1686.530151367188 C -67.23922729492188 -1687.89990234375 -67.99970245361328 -1689.722900390625 -67.99970245361328 -1691.663452148438 L -67.99970245361328 -1726.466430664063 L -67.99970245361328 -1739.999755859375 C -67.99970245361328 -1744.4111328125 -64.41118621826172 -1748 -60.00030136108398 -1748 L -11.99969959259033 -1748 C -7.588812351226807 -1748 -4.00029993057251 -1744.4111328125 -4.00029993057251 -1739.999755859375 L -4.00029993057251 -1723.11669921875 L -4.00029993057251 -1691.663452148438 C -4.00029993057251 -1689.723510742188 -4.761087417602539 -1687.900390625 -6.142537593841553 -1686.530151367188 L -30.9518871307373 -1661.919677734375 C -32.29169845581055 -1660.590942382813 -34.07125091552734 -1659.839477539063 -35.96291351318359 -1659.803588867188 L -36.00090026855469 -1659.802856445313 Z" stroke="none"/>
      <path d="M -36.00090026855469 -1661.80322265625 C -34.62570190429688 -1661.829345703125 -33.33330154418945 -1662.374755859375 -32.36040115356445 -1663.339599609375 L -7.551000118255615 -1687.950073242188 C -6.55109977722168 -1688.94189453125 -6.00029993057251 -1690.260375976563 -6.00029993057251 -1691.663452148438 L -6.00029993057251 -1723.11669921875 L -6.00029993057251 -1739.999755859375 C -6.00029993057251 -1743.313598632813 -8.68589973449707 -1746 -11.99969959259033 -1746 L -60.00030136108398 -1746 C -63.3140983581543 -1746 -65.99970245361328 -1743.313598632813 -65.99970245361328 -1739.999755859375 L -65.99970245361328 -1726.466430664063 L -65.99970245361328 -1691.663452148438 C -65.99970245361328 -1690.260375976563 -65.44979858398438 -1688.94189453125 -64.44989776611328 -1687.950073242188 L -39.63959884643555 -1663.339599609375 C -38.66849899291992 -1662.374755859375 -37.3760986328125 -1661.829345703125 -36.00090026855469 -1661.80322265625 M -36.00090026855469 -1657.802490234375 L -36.07684326171875 -1657.803955078125 C -38.48724365234375 -1657.849731445313 -40.75375747680664 -1658.807983398438 -42.45886993408203 -1660.502075195313 L -67.26686859130859 -1685.110229492188 C -69.02915954589844 -1686.858276367188 -69.99970245361328 -1689.185668945313 -69.99970245361328 -1691.663452148438 L -69.99970245361328 -1726.466430664063 L -69.99970245361328 -1739.999755859375 C -69.99970245361328 -1745.513916015625 -65.51398468017578 -1750 -60.00030136108398 -1750 L -11.99969959259033 -1750 C -6.486014366149902 -1750 -2.00029993057251 -1745.513916015625 -2.00029993057251 -1739.999755859375 L -2.00029993057251 -1723.11669921875 L -2.00029993057251 -1691.663452148438 C -2.00029993057251 -1689.186157226563 -2.971171379089355 -1686.85888671875 -4.734056949615479 -1685.110229492188 L -29.54338645935059 -1660.499755859375 C -31.2503719329834 -1658.807006835938 -33.51658630371094 -1657.849731445313 -35.92495727539063 -1657.803955078125 L -36.00090026855469 -1657.802490234375 Z" stroke="none" fill="#fff"/>
    </g>
    <g id="Union_3" data-name="Union 3" transform="translate(-1654.902 95.098) rotate(90)" fill="#404040">
      <path d="M -40.00050354003906 -1672.804321289063 C -40.37617111206055 -1672.8271484375 -40.71896362304688 -1672.989379882813 -40.9951171875 -1673.27587890625 L -62.49862670898438 -1695.548950195313 C -62.82152938842773 -1695.883544921875 -62.99970245361328 -1696.337280273438 -62.99970245361328 -1696.825805664063 L -62.99970245361328 -1728.322265625 L -62.99970245361328 -1739.999755859375 C -62.99970245361328 -1741.654052734375 -61.65417861938477 -1743 -60.00030517578125 -1743 L -19.99980354309082 -1743 C -18.34592819213867 -1743 -17.00040435791016 -1741.654052734375 -17.00040435791016 -1739.999755859375 L -17.00040435791016 -1725.860717773438 L -17.00040435791016 -1696.825805664063 C -17.00040435791016 -1696.330444335938 -17.173828125 -1695.889038085938 -17.5019416809082 -1695.54931640625 L -39.00428009033203 -1673.277587890625 C -39.28195953369141 -1672.989501953125 -39.62483215332031 -1672.8271484375 -40.00050354003906 -1672.804321289063 Z" stroke="none"/>
      <path d="M -39.98831939697266 -1676.55224609375 L -20.00040435791016 -1696.825805664063 L -20.00040435791016 -1725.860717773438 L -19.99980354309082 -1740 L -59.99970245361328 -1739.999755859375 L -59.99970245361328 -1728.322265625 L -60.34035491943359 -1697.632568359375 L -39.98831939697266 -1676.55224609375 M -40.00050354003906 -1669.802490234375 C -41.19210433959961 -1669.826782226563 -42.31260299682617 -1670.319946289063 -43.15500259399414 -1671.19384765625 L -64.65690612792969 -1693.465209960938 C -65.522705078125 -1694.362548828125 -65.99970245361328 -1695.556884765625 -65.99970245361328 -1696.825805664063 L -65.99970245361328 -1728.322265625 L -65.99970245361328 -1739.999755859375 C -65.99970245361328 -1743.313598632813 -63.31320190429688 -1746 -60.00030517578125 -1746 L -19.99980354309082 -1746 C -16.68600273132324 -1746 -14.00040340423584 -1743.313598632813 -14.00040340423584 -1739.999755859375 L -14.00040340423584 -1725.860717773438 L -14.00040340423584 -1696.825805664063 C -14.00040340423584 -1695.556884765625 -14.47740364074707 -1694.362548828125 -15.34410381317139 -1693.465209960938 L -36.84600448608398 -1671.19384765625 C -37.68840408325195 -1670.319946289063 -38.80890274047852 -1669.826782226563 -40.00050354003906 -1669.802490234375 Z" stroke="none" fill="#5b5b5b"/>
    </g>
    <path id="Polygon_3" data-name="Polygon 3" d="M19,0,38,18H0Z" transform="translate(117.098 40.098) rotate(90)" fill="#fff"/>
  </g>
</svg>
