<svg xmlns="http://www.w3.org/2000/svg" xmlns:xlink="http://www.w3.org/1999/xlink" width="120" height="120" viewBox="0 0 120 120">
  <defs>
    <clipPath id="clip-Button_-_PS_Directional_Arrow_Left_2">
      <rect width="120" height="120"/>
    </clipPath>
  </defs>
  <g id="Button_-_PS_Directional_Arrow_Left_2" data-name="Button - PS Directional Arrow Left 2" clip-path="url(#clip-Button_-_PS_Directional_Arrow_Left_2)">
    <g id="Union_2" data-name="Union 2" transform="translate(113.098 29.099) rotate(90)" fill="#2a2a2a">
      <path d="M 54 86.19680023193359 L 5.999400615692139 86.19680023193359 C 1.588513016700745 86.19680023193359 -1.999999403953552 82.60787200927734 -1.999999403953552 78.19650268554688 L -1.999999403953552 64.66320037841797 L -1.999999403953552 29.86020088195801 C -1.999999403953552 27.91958808898926 -1.239524483680725 26.09652519226074 0.1413505524396896 24.72685050964355 L 24.95161247253418 0.1163751184940338 C 26.28849983215332 -1.211837410926819 28.06787490844727 -1.963712334632874 29.96084976196289 -1.999637365341187 L 29.99880027770996 -2.000362396240234 L 30.03675079345703 -1.999637365341187 C 31.92837524414063 -1.963737368583679 33.70792388916016 -1.212324857711792 35.04758834838867 0.1161876171827316 L 59.85808944702148 24.72687530517578 C 61.23915100097656 26.09798812866211 61.9994010925293 27.92082595825195 61.9994010925293 29.86020088195801 L 61.9994010925293 61.31340026855469 L 61.9994010925293 78.19650268554688 C 61.9994010925293 82.60787200927734 58.410888671875 86.19680023193359 54 86.19680023193359 Z" stroke="none"/>
      <path d="M 54 84.19680023193359 C 57.31380081176758 84.19680023193359 59.9994010925293 81.51029968261719 59.9994010925293 78.19650268554688 L 59.9994010925293 61.31340026855469 L 59.9994010925293 29.86020088195801 C 59.9994010925293 28.45709991455078 59.44860076904297 27.13859939575195 58.44960021972656 26.14680099487305 L 33.63930130004883 1.53630006313324 C 32.66640090942383 0.5715001225471497 31.37400054931641 0.02610011585056782 29.99880027770996 1.159667988304136e-07 C 28.62360000610352 0.02610011585056782 27.33119964599609 0.5715001225471497 26.36009979248047 1.53630006313324 L 1.549800515174866 26.14680099487305 C 0.5499005317687988 27.13859939575195 5.462646299747576e-07 28.45709991455078 5.462646299747576e-07 29.86020088195801 L 5.462646299747576e-07 64.66320037841797 L 5.462646299747576e-07 78.19650268554688 C 5.462646299747576e-07 81.51029968261719 2.685600519180298 84.19680023193359 5.999400615692139 84.19680023193359 L 54 84.19680023193359 M 54 88.19680023193359 L 5.999400615692139 88.19680023193359 C 0.4857148230075836 88.19680023193359 -3.999999523162842 83.71068572998047 -3.999999523162842 78.19650268554688 L -3.999999523162842 64.66320037841797 L -3.999999523162842 29.86020088195801 C -3.999999523162842 27.38229942321777 -3.029442310333252 25.05495643615723 -1.267099499702454 23.30690002441406 L 23.54312896728516 -1.303542733192444 C 25.24601554870605 -2.995371341705322 27.51252937316895 -3.95352840423584 29.92290115356445 -3.999285697937012 L 29.99880027770996 -4.000714302062988 L 30.0747013092041 -3.999285697937012 C 32.4830436706543 -3.953571319580078 34.7492561340332 -2.996342658996582 36.45588684082031 -1.30392849445343 L 61.26657104492188 23.30695724487305 C 63.0292854309082 25.05698585510254 63.9994010925293 27.38387107849121 63.9994010925293 29.86020088195801 L 63.9994010925293 61.31340026855469 L 63.9994010925293 78.19650268554688 C 63.9994010925293 83.71068572998047 59.51368713378906 88.19680023193359 54 88.19680023193359 Z" stroke="none" fill="#fff"/>
    </g>
    <path id="Union_3" data-name="Union 3" d="M6,76.2a6,6,0,0,1-6-6V27.023a4.81,4.81,0,0,1,1.343-3.361l21.5-22.271a4.272,4.272,0,0,1,6.309,0l21.5,22.271A4.807,4.807,0,0,1,52,27.023V70.2a6,6,0,0,1-6,6Z" transform="translate(105.099 29.099) rotate(90)" fill="#404040"/>
    <path id="Polygon_3" data-name="Polygon 3" d="M19,0,38,18H0Z" transform="translate(2.902 78.099) rotate(-90)" fill="#fff"/>
  </g>
</svg>
