<svg xmlns="http://www.w3.org/2000/svg" xmlns:xlink="http://www.w3.org/1999/xlink" width="120" height="120" viewBox="0 0 120 120">
  <defs>
    <clipPath id="clip-Button_-_PS_Directional_Arrows_Down">
      <rect width="120" height="120"/>
    </clipPath>
  </defs>
  <g id="Button_-_PS_Directional_Arrows_Down" data-name="Button - PS Directional Arrows Down" clip-path="url(#clip-Button_-_PS_Directional_Arrows_Down)">
    <g id="Group_23" data-name="Group 23" transform="translate(0 -1)">
      <g id="Union_2" data-name="Union 2" transform="translate(109 1752)" fill="#2a2a2a">
        <path d="M -49.00050354003906 -1693.802001953125 L -49.04216384887695 -1693.802856445313 C -50.35608291625977 -1693.830322265625 -51.58650207519531 -1694.37451171875 -52.50676345825195 -1695.335327148438 L -66.56540679931641 -1710.0078125 C -67.49014282226563 -1710.97216796875 -67.99970245361328 -1712.25 -67.99970245361328 -1713.60546875 L -67.99970245361328 -1734.35498046875 C -67.99970245361328 -1734.417114257813 -67.99854278564453 -1734.480224609375 -67.99623107910156 -1734.54345703125 C -67.99853515625 -1734.622436523438 -67.99970245361328 -1734.70166015625 -67.99970245361328 -1734.77978515625 L -67.99970245361328 -1739.999755859375 C -67.99970245361328 -1744.4111328125 -64.41118621826172 -1748 -60.00030517578125 -1748 L -37.99980163574219 -1748 C -33.58892440795898 -1748 -30.00040435791016 -1744.4111328125 -30.00040435791016 -1739.999755859375 L -30.00040435791016 -1734.77978515625 C -30.00040435791016 -1734.701171875 -30.00157165527344 -1734.621704101563 -30.00388717651367 -1734.542724609375 C -30.0015697479248 -1734.4794921875 -30.00040435791016 -1734.416625976563 -30.00040435791016 -1734.35498046875 L -30.00040435791016 -1713.60546875 C -30.00040435791016 -1712.251586914063 -30.50957298278809 -1710.97412109375 -31.43413352966309 -1710.008422851563 L -45.49360275268555 -1695.335083007813 C -46.41359329223633 -1694.37451171875 -47.64433288574219 -1693.830322265625 -48.95884323120117 -1693.802856445313 L -49.00050354003906 -1693.802001953125 Z" stroke="none"/>
        <path d="M -49.00050354003906 -1695.802490234375 C -48.22110366821289 -1695.818725585938 -47.48850250244141 -1696.143676757813 -46.93770217895508 -1696.71875 L -32.87880325317383 -1711.391479492188 C -32.31270217895508 -1711.982788085938 -32.00040435791016 -1712.768432617188 -32.00040435791016 -1713.60546875 L -32.00040435791016 -1734.35498046875 C -32.00040435791016 -1734.413330078125 -32.00212478637695 -1734.472534179688 -32.00544357299805 -1734.5322265625 C -32.00210189819336 -1734.6142578125 -32.00040435791016 -1734.696899414063 -32.00040435791016 -1734.77978515625 L -32.00040435791016 -1739.999755859375 C -32.00040435791016 -1743.313598632813 -34.68600463867188 -1746 -37.99980163574219 -1746 L -60.00030517578125 -1746 C -63.31320190429688 -1746 -65.99970245361328 -1743.313598632813 -65.99970245361328 -1739.999755859375 L -65.99970245361328 -1734.77978515625 C -65.99970245361328 -1734.697021484375 -65.99800109863281 -1734.614990234375 -65.99468231201172 -1734.533081054688 C -65.99798583984375 -1734.4736328125 -65.99970245361328 -1734.414184570313 -65.99970245361328 -1734.35498046875 L -65.99970245361328 -1713.60546875 C -65.99970245361328 -1712.768432617188 -65.68830108642578 -1711.982788085938 -65.12129974365234 -1711.391479492188 L -51.06240463256836 -1696.71875 C -50.51160430908203 -1696.143676757813 -49.77990341186523 -1695.818725585938 -49.00050354003906 -1695.802490234375 M -49.00050354003906 -1691.801635742188 L -49.08383178710938 -1691.803344726563 C -50.93239212036133 -1691.841918945313 -52.66096496582031 -1692.604858398438 -53.95113372802734 -1693.951904296875 L -68.00950622558594 -1708.624145507813 C -69.29253387451172 -1709.962158203125 -69.99970245361328 -1711.731567382813 -69.99970245361328 -1713.60546875 L -69.99970245361328 -1734.35498046875 C -69.99970245361328 -1734.419189453125 -69.99880981445313 -1734.48388671875 -69.99703979492188 -1734.548950195313 C -69.99880981445313 -1734.626098632813 -69.99970245361328 -1734.703369140625 -69.99970245361328 -1734.77978515625 L -69.99970245361328 -1739.999755859375 C -69.99970245361328 -1745.513916015625 -65.51399230957031 -1750 -60.00030517578125 -1750 L -37.99980163574219 -1750 C -32.48611450195313 -1750 -28.00040435791016 -1745.513916015625 -28.00040435791016 -1739.999755859375 L -28.00040435791016 -1734.77978515625 C -28.00040435791016 -1734.703002929688 -28.00129699707031 -1734.625610351563 -28.0030689239502 -1734.54833984375 C -28.00129699707031 -1734.4833984375 -28.00040435791016 -1734.418823242188 -28.00040435791016 -1734.35498046875 L -28.00040435791016 -1713.60546875 C -28.00040435791016 -1711.733764648438 -28.7067928314209 -1709.965087890625 -29.98945426940918 -1708.625366210938 L -44.04950332641602 -1693.951416015625 C -45.33913421630859 -1692.60498046875 -47.06802368164063 -1691.841918945313 -48.91717529296875 -1691.803344726563 L -49.00050354003906 -1691.801635742188 Z" stroke="none" fill="#fff"/>
      </g>
      <g id="Union_7" data-name="Union 7" transform="translate(11.099 -1630.001) rotate(180)" fill="#2a2a2a">
        <path d="M -49.00050354003906 -1693.802001953125 L -49.04216384887695 -1693.802856445313 C -50.35608291625977 -1693.830322265625 -51.58650207519531 -1694.37451171875 -52.50676345825195 -1695.335327148438 L -66.56540679931641 -1710.0078125 C -67.49014282226563 -1710.97216796875 -67.99970245361328 -1712.25 -67.99970245361328 -1713.60546875 L -67.99970245361328 -1734.35498046875 C -67.99970245361328 -1734.417114257813 -67.99854278564453 -1734.480224609375 -67.99623107910156 -1734.54345703125 C -67.99853515625 -1734.622436523438 -67.99970245361328 -1734.70166015625 -67.99970245361328 -1734.77978515625 L -67.99970245361328 -1739.999755859375 C -67.99970245361328 -1744.4111328125 -64.41118621826172 -1748 -60.00030517578125 -1748 L -37.99980163574219 -1748 C -33.58892440795898 -1748 -30.00040435791016 -1744.4111328125 -30.00040435791016 -1739.999755859375 L -30.00040435791016 -1734.77978515625 C -30.00040435791016 -1734.701171875 -30.00157165527344 -1734.621704101563 -30.00388717651367 -1734.542724609375 C -30.0015697479248 -1734.4794921875 -30.00040435791016 -1734.416625976563 -30.00040435791016 -1734.35498046875 L -30.00040435791016 -1713.60546875 C -30.00040435791016 -1712.251586914063 -30.50957298278809 -1710.97412109375 -31.43413352966309 -1710.008422851563 L -45.49360275268555 -1695.335083007813 C -46.41359329223633 -1694.37451171875 -47.64433288574219 -1693.830322265625 -48.95884323120117 -1693.802856445313 L -49.00050354003906 -1693.802001953125 Z" stroke="none"/>
        <path d="M -49.00050354003906 -1695.802490234375 C -48.22110366821289 -1695.818725585938 -47.48850250244141 -1696.143676757813 -46.93770217895508 -1696.71875 L -32.87880325317383 -1711.391479492188 C -32.31270217895508 -1711.982788085938 -32.00040435791016 -1712.768432617188 -32.00040435791016 -1713.60546875 L -32.00040435791016 -1734.35498046875 C -32.00040435791016 -1734.413330078125 -32.00212478637695 -1734.472534179688 -32.00544357299805 -1734.5322265625 C -32.00210189819336 -1734.6142578125 -32.00040435791016 -1734.696899414063 -32.00040435791016 -1734.77978515625 L -32.00040435791016 -1739.999755859375 C -32.00040435791016 -1743.313598632813 -34.68600463867188 -1746 -37.99980163574219 -1746 L -60.00030517578125 -1746 C -63.31320190429688 -1746 -65.99970245361328 -1743.313598632813 -65.99970245361328 -1739.999755859375 L -65.99970245361328 -1734.77978515625 C -65.99970245361328 -1734.697021484375 -65.99800109863281 -1734.614990234375 -65.99468231201172 -1734.533081054688 C -65.99798583984375 -1734.4736328125 -65.99970245361328 -1734.414184570313 -65.99970245361328 -1734.35498046875 L -65.99970245361328 -1713.60546875 C -65.99970245361328 -1712.768432617188 -65.68830108642578 -1711.982788085938 -65.12129974365234 -1711.391479492188 L -51.06240463256836 -1696.71875 C -50.51160430908203 -1696.143676757813 -49.77990341186523 -1695.818725585938 -49.00050354003906 -1695.802490234375 M -49.00050354003906 -1691.801635742188 L -49.08383178710938 -1691.803344726563 C -50.93239212036133 -1691.841918945313 -52.66096496582031 -1692.604858398438 -53.95113372802734 -1693.951904296875 L -68.00950622558594 -1708.624145507813 C -69.29253387451172 -1709.962158203125 -69.99970245361328 -1711.731567382813 -69.99970245361328 -1713.60546875 L -69.99970245361328 -1734.35498046875 C -69.99970245361328 -1734.419189453125 -69.99880981445313 -1734.48388671875 -69.99703979492188 -1734.548950195313 C -69.99880981445313 -1734.626098632813 -69.99970245361328 -1734.703369140625 -69.99970245361328 -1734.77978515625 L -69.99970245361328 -1739.999755859375 C -69.99970245361328 -1745.513916015625 -65.51399230957031 -1750 -60.00030517578125 -1750 L -37.99980163574219 -1750 C -32.48611450195313 -1750 -28.00040435791016 -1745.513916015625 -28.00040435791016 -1739.999755859375 L -28.00040435791016 -1734.77978515625 C -28.00040435791016 -1734.703002929688 -28.00129699707031 -1734.625610351563 -28.0030689239502 -1734.54833984375 C -28.00129699707031 -1734.4833984375 -28.00040435791016 -1734.418823242188 -28.00040435791016 -1734.35498046875 L -28.00040435791016 -1713.60546875 C -28.00040435791016 -1711.733764648438 -28.7067928314209 -1709.965087890625 -29.98945426940918 -1708.625366210938 L -44.04950332641602 -1693.951416015625 C -45.33913421630859 -1692.60498046875 -47.06802368164063 -1691.841918945313 -48.91717529296875 -1691.803344726563 L -49.00050354003906 -1691.801635742188 Z" stroke="none" fill="#fff"/>
      </g>
      <g id="Union_4" data-name="Union 4" transform="translate(-1630.901 110) rotate(90)" fill="#2a2a2a">
        <path d="M -49.00050354003906 -1693.802001953125 L -49.04216384887695 -1693.802856445313 C -50.35608291625977 -1693.830322265625 -51.58650207519531 -1694.37451171875 -52.50676345825195 -1695.335327148438 L -66.56540679931641 -1710.0078125 C -67.49014282226563 -1710.97216796875 -67.99970245361328 -1712.25 -67.99970245361328 -1713.60546875 L -67.99970245361328 -1734.35498046875 C -67.99970245361328 -1734.417114257813 -67.99854278564453 -1734.480224609375 -67.99623107910156 -1734.54345703125 C -67.99853515625 -1734.622436523438 -67.99970245361328 -1734.70166015625 -67.99970245361328 -1734.77978515625 L -67.99970245361328 -1739.999755859375 C -67.99970245361328 -1744.4111328125 -64.41118621826172 -1748 -60.00030517578125 -1748 L -37.99980163574219 -1748 C -33.58892440795898 -1748 -30.00040435791016 -1744.4111328125 -30.00040435791016 -1739.999755859375 L -30.00040435791016 -1734.77978515625 C -30.00040435791016 -1734.701171875 -30.00157165527344 -1734.621704101563 -30.00388717651367 -1734.542724609375 C -30.0015697479248 -1734.4794921875 -30.00040435791016 -1734.416625976563 -30.00040435791016 -1734.35498046875 L -30.00040435791016 -1713.60546875 C -30.00040435791016 -1712.251586914063 -30.50957298278809 -1710.97412109375 -31.43413352966309 -1710.008422851563 L -45.49360275268555 -1695.335083007813 C -46.41359329223633 -1694.37451171875 -47.64433288574219 -1693.830322265625 -48.95884323120117 -1693.802856445313 L -49.00050354003906 -1693.802001953125 Z" stroke="none"/>
        <path d="M -49.00050354003906 -1695.802490234375 C -48.22110366821289 -1695.818725585938 -47.48850250244141 -1696.143676757813 -46.93770217895508 -1696.71875 L -32.87880325317383 -1711.391479492188 C -32.31270217895508 -1711.982788085938 -32.00040435791016 -1712.768432617188 -32.00040435791016 -1713.60546875 L -32.00040435791016 -1734.35498046875 C -32.00040435791016 -1734.413330078125 -32.00212478637695 -1734.472534179688 -32.00544357299805 -1734.5322265625 C -32.00210189819336 -1734.6142578125 -32.00040435791016 -1734.696899414063 -32.00040435791016 -1734.77978515625 L -32.00040435791016 -1739.999755859375 C -32.00040435791016 -1743.313598632813 -34.68600463867188 -1746 -37.99980163574219 -1746 L -60.00030517578125 -1746 C -63.31320190429688 -1746 -65.99970245361328 -1743.313598632813 -65.99970245361328 -1739.999755859375 L -65.99970245361328 -1734.77978515625 C -65.99970245361328 -1734.697021484375 -65.99800109863281 -1734.614990234375 -65.99468231201172 -1734.533081054688 C -65.99798583984375 -1734.4736328125 -65.99970245361328 -1734.414184570313 -65.99970245361328 -1734.35498046875 L -65.99970245361328 -1713.60546875 C -65.99970245361328 -1712.768432617188 -65.68830108642578 -1711.982788085938 -65.12129974365234 -1711.391479492188 L -51.06240463256836 -1696.71875 C -50.51160430908203 -1696.143676757813 -49.77990341186523 -1695.818725585938 -49.00050354003906 -1695.802490234375 M -49.00050354003906 -1691.801635742188 L -49.08383178710938 -1691.803344726563 C -50.93239212036133 -1691.841918945313 -52.66096496582031 -1692.604858398438 -53.95113372802734 -1693.951904296875 L -68.00950622558594 -1708.624145507813 C -69.29253387451172 -1709.962158203125 -69.99970245361328 -1711.731567382813 -69.99970245361328 -1713.60546875 L -69.99970245361328 -1734.35498046875 C -69.99970245361328 -1734.419189453125 -69.99880981445313 -1734.48388671875 -69.99703979492188 -1734.548950195313 C -69.99880981445313 -1734.626098632813 -69.99970245361328 -1734.703369140625 -69.99970245361328 -1734.77978515625 L -69.99970245361328 -1739.999755859375 C -69.99970245361328 -1745.513916015625 -65.51399230957031 -1750 -60.00030517578125 -1750 L -37.99980163574219 -1750 C -32.48611450195313 -1750 -28.00040435791016 -1745.513916015625 -28.00040435791016 -1739.999755859375 L -28.00040435791016 -1734.77978515625 C -28.00040435791016 -1734.703002929688 -28.00129699707031 -1734.625610351563 -28.0030689239502 -1734.54833984375 C -28.00129699707031 -1734.4833984375 -28.00040435791016 -1734.418823242188 -28.00040435791016 -1734.35498046875 L -28.00040435791016 -1713.60546875 C -28.00040435791016 -1711.733764648438 -28.7067928314209 -1709.965087890625 -29.98945426940918 -1708.625366210938 L -44.04950332641602 -1693.951416015625 C -45.33913421630859 -1692.60498046875 -47.06802368164063 -1691.841918945313 -48.91717529296875 -1691.803344726563 L -49.00050354003906 -1691.801635742188 Z" stroke="none" fill="#fff"/>
      </g>
      <g id="Union_6" data-name="Union 6" transform="translate(1751 12) rotate(-90)" fill="#2a2a2a">
        <path d="M -49.00050354003906 -1693.802001953125 L -49.04216384887695 -1693.802856445313 C -50.35608291625977 -1693.830322265625 -51.58650207519531 -1694.37451171875 -52.50676345825195 -1695.335327148438 L -66.56540679931641 -1710.0078125 C -67.49014282226563 -1710.97216796875 -67.99970245361328 -1712.25 -67.99970245361328 -1713.60546875 L -67.99970245361328 -1734.35498046875 C -67.99970245361328 -1734.417114257813 -67.99854278564453 -1734.480224609375 -67.99623107910156 -1734.54345703125 C -67.99853515625 -1734.622436523438 -67.99970245361328 -1734.70166015625 -67.99970245361328 -1734.77978515625 L -67.99970245361328 -1739.999755859375 C -67.99970245361328 -1744.4111328125 -64.41118621826172 -1748 -60.00030517578125 -1748 L -37.99980163574219 -1748 C -33.58892440795898 -1748 -30.00040435791016 -1744.4111328125 -30.00040435791016 -1739.999755859375 L -30.00040435791016 -1734.77978515625 C -30.00040435791016 -1734.701171875 -30.00157165527344 -1734.621704101563 -30.00388717651367 -1734.542724609375 C -30.0015697479248 -1734.4794921875 -30.00040435791016 -1734.416625976563 -30.00040435791016 -1734.35498046875 L -30.00040435791016 -1713.60546875 C -30.00040435791016 -1712.251586914063 -30.50957298278809 -1710.97412109375 -31.43413352966309 -1710.008422851563 L -45.49360275268555 -1695.335083007813 C -46.41359329223633 -1694.37451171875 -47.64433288574219 -1693.830322265625 -48.95884323120117 -1693.802856445313 L -49.00050354003906 -1693.802001953125 Z" stroke="none"/>
        <path d="M -49.00050354003906 -1695.802490234375 C -48.22110366821289 -1695.818725585938 -47.48850250244141 -1696.143676757813 -46.93770217895508 -1696.71875 L -32.87880325317383 -1711.391479492188 C -32.31270217895508 -1711.982788085938 -32.00040435791016 -1712.768432617188 -32.00040435791016 -1713.60546875 L -32.00040435791016 -1734.35498046875 C -32.00040435791016 -1734.413330078125 -32.00212478637695 -1734.472534179688 -32.00544357299805 -1734.5322265625 C -32.00210189819336 -1734.6142578125 -32.00040435791016 -1734.696899414063 -32.00040435791016 -1734.77978515625 L -32.00040435791016 -1739.999755859375 C -32.00040435791016 -1743.313598632813 -34.68600463867188 -1746 -37.99980163574219 -1746 L -60.00030517578125 -1746 C -63.31320190429688 -1746 -65.99970245361328 -1743.313598632813 -65.99970245361328 -1739.999755859375 L -65.99970245361328 -1734.77978515625 C -65.99970245361328 -1734.697021484375 -65.99800109863281 -1734.614990234375 -65.99468231201172 -1734.533081054688 C -65.99798583984375 -1734.4736328125 -65.99970245361328 -1734.414184570313 -65.99970245361328 -1734.35498046875 L -65.99970245361328 -1713.60546875 C -65.99970245361328 -1712.768432617188 -65.68830108642578 -1711.982788085938 -65.12129974365234 -1711.391479492188 L -51.06240463256836 -1696.71875 C -50.51160430908203 -1696.143676757813 -49.77990341186523 -1695.818725585938 -49.00050354003906 -1695.802490234375 M -49.00050354003906 -1691.801635742188 L -49.08383178710938 -1691.803344726563 C -50.93239212036133 -1691.841918945313 -52.66096496582031 -1692.604858398438 -53.95113372802734 -1693.951904296875 L -68.00950622558594 -1708.624145507813 C -69.29253387451172 -1709.962158203125 -69.99970245361328 -1711.731567382813 -69.99970245361328 -1713.60546875 L -69.99970245361328 -1734.35498046875 C -69.99970245361328 -1734.419189453125 -69.99880981445313 -1734.48388671875 -69.99703979492188 -1734.548950195313 C -69.99880981445313 -1734.626098632813 -69.99970245361328 -1734.703369140625 -69.99970245361328 -1734.77978515625 L -69.99970245361328 -1739.999755859375 C -69.99970245361328 -1745.513916015625 -65.51399230957031 -1750 -60.00030517578125 -1750 L -37.99980163574219 -1750 C -32.48611450195313 -1750 -28.00040435791016 -1745.513916015625 -28.00040435791016 -1739.999755859375 L -28.00040435791016 -1734.77978515625 C -28.00040435791016 -1734.703002929688 -28.00129699707031 -1734.625610351563 -28.0030689239502 -1734.54833984375 C -28.00129699707031 -1734.4833984375 -28.00040435791016 -1734.418823242188 -28.00040435791016 -1734.35498046875 L -28.00040435791016 -1713.60546875 C -28.00040435791016 -1711.733764648438 -28.7067928314209 -1709.965087890625 -29.98945426940918 -1708.625366210938 L -44.04950332641602 -1693.951416015625 C -45.33913421630859 -1692.60498046875 -47.06802368164063 -1691.841918945313 -48.91717529296875 -1691.803344726563 L -49.00050354003906 -1691.801635742188 Z" stroke="none" fill="#fff"/>
      </g>
      <g id="Union_9" data-name="Union 9" transform="translate(7.099 -1638.001) rotate(180)" fill="#404040">
        <path d="M -52.99990463256836 -1705.805541992188 C -53.05950927734375 -1705.814575195313 -53.11214065551758 -1705.841796875 -53.15678024291992 -1705.886840820313 L -63.90930938720703 -1716.712280273438 C -63.96976852416992 -1716.773193359375 -63.99969863891602 -1716.846923828125 -63.99969863891602 -1716.936401367188 L -63.99969863891602 -1732.243530273438 L -63.99969863891602 -1739.999755859375 C -63.99969863891602 -1742.205444335938 -62.20516967773438 -1744 -59.99939727783203 -1744 L -45.99990081787109 -1744 C -43.79462051391602 -1744 -42.0004997253418 -1742.205444335938 -42.0004997253418 -1739.999755859375 L -42.0004997253418 -1731.5244140625 L -42.0004997253418 -1716.936401367188 C -42.0004997253418 -1716.846923828125 -42.03042984008789 -1716.773193359375 -42.09198760986328 -1716.711181640625 L -52.84144973754883 -1705.887939453125 C -52.88702774047852 -1705.842163085938 -52.93951034545898 -1705.814575195313 -52.99990463256836 -1705.805541992188 Z" stroke="none"/>
        <path d="M -52.99970626831055 -1708.566650390625 L -44.0004997253418 -1717.627685546875 L -44.0004997253418 -1731.5244140625 L -44.0004997253418 -1739.999755859375 C -44.0004997253418 -1741.102661132813 -44.89743041992188 -1742 -45.99990081787109 -1742 L -59.99939727783203 -1742 C -61.10236740112305 -1742 -61.99969863891602 -1741.102661132813 -61.99969863891602 -1739.999755859375 L -61.99969863891602 -1732.243530273438 L -61.99969863891602 -1717.627807617188 L -52.99970626831055 -1708.566650390625 M -53.00009918212891 -1703.802612304688 C -53.59589767456055 -1703.814331054688 -54.15660095214844 -1704.0546875 -54.57690048217773 -1704.478515625 L -65.32830047607422 -1715.302856445313 C -65.76119995117188 -1715.739379882813 -65.99970245361328 -1716.318969726563 -65.99970245361328 -1716.936401367188 L -65.99970245361328 -1732.243530273438 L -65.99970245361328 -1739.999755859375 C -65.99970245361328 -1743.313598632813 -63.31319808959961 -1746 -59.99939727783203 -1746 L -45.99990081787109 -1746 C -42.68610000610352 -1746 -40.0004997253418 -1743.313598632813 -40.0004997253418 -1739.999755859375 L -40.0004997253418 -1731.5244140625 L -40.0004997253418 -1716.936401367188 C -40.0004997253418 -1716.318969726563 -40.23899841308594 -1715.739379882813 -40.67189788818359 -1715.302856445313 L -51.42239761352539 -1704.478515625 C -51.84449768066406 -1704.0546875 -52.40430068969727 -1703.814331054688 -53.00009918212891 -1703.802612304688 Z" stroke="none" fill="#5b5b5b"/>
      </g>
      <circle id="Ellipse_24" data-name="Ellipse 24" cx="4" cy="4" r="4" transform="translate(56 57)" fill="#fff"/>
    </g>
  </g>
</svg>
