<svg xmlns="http://www.w3.org/2000/svg" xmlns:xlink="http://www.w3.org/1999/xlink" width="120" height="120" viewBox="0 0 120 120">
  <defs>
    <clipPath id="clip-Button_-_PS_Directional_Arrows_Down_2">
      <rect width="120" height="120"/>
    </clipPath>
  </defs>
  <g id="Button_-_PS_Directional_Arrows_Down_2" data-name="Button - PS Directional Arrows Down 2" clip-path="url(#clip-Button_-_PS_Directional_Arrows_Down_2)">
    <g id="Group_20" data-name="Group 20" transform="translate(120.197 120.197) rotate(180)">
      <g id="Union_2" data-name="Union 2" transform="translate(114.099 1774)" fill="#2a2a2a">
        <path d="M -54 -1707.802612304688 L -54.0390510559082 -1707.803344726563 C -55.13296890258789 -1707.82470703125 -56.15454864501953 -1708.283813476563 -56.91559982299805 -1709.095947265625 L -66.83837890625 -1719.67578125 C -67.58704376220703 -1720.473266601563 -67.99970245361328 -1721.526000976563 -67.99970245361328 -1722.6396484375 L -67.99970245361328 -1737.602172851563 L -67.99970245361328 -1739.999755859375 C -67.99970245361328 -1744.4111328125 -64.41078186035156 -1748 -59.9994010925293 -1748 L -48.0005989074707 -1748 C -43.58921813964844 -1748 -40.00030136108398 -1744.4111328125 -40.00030136108398 -1739.999755859375 L -40.00030136108398 -1733.582763671875 L -40.00030136108398 -1722.6396484375 C -40.00030136108398 -1721.526000976563 -40.41296005249023 -1720.473266601563 -41.16226959228516 -1719.675048828125 L -51.08501815795898 -1709.095336914063 C -51.84780883789063 -1708.283203125 -52.86883163452148 -1707.82470703125 -53.9609489440918 -1707.803344726563 L -54 -1707.802612304688 Z" stroke="none"/>
        <path d="M -54 -1709.802978515625 C -53.45009994506836 -1709.813720703125 -52.93349838256836 -1710.048583984375 -52.54380035400391 -1710.463500976563 L -42.62039947509766 -1721.0439453125 C -42.22079849243164 -1721.469604492188 -42.00030136108398 -1722.03662109375 -42.00030136108398 -1722.6396484375 L -42.00030136108398 -1733.582763671875 L -42.00030136108398 -1739.999755859375 C -42.00030136108398 -1743.313598632813 -44.68679809570313 -1746 -48.0005989074707 -1746 L -59.9994010925293 -1746 C -63.31320190429688 -1746 -65.99970245361328 -1743.313598632813 -65.99970245361328 -1739.999755859375 L -65.99970245361328 -1737.602172851563 L -65.99970245361328 -1722.6396484375 C -65.99970245361328 -1722.03662109375 -65.77919769287109 -1721.469604492188 -65.37960052490234 -1721.0439453125 L -55.45619964599609 -1710.463500976563 C -55.06740188598633 -1710.048583984375 -54.54990005493164 -1709.813720703125 -54 -1709.802978515625 M -54 -1705.80224609375 L -54.07810974121094 -1705.8037109375 C -55.71596145629883 -1705.835693359375 -57.24195861816406 -1706.519287109375 -58.3750114440918 -1707.728393554688 L -68.29717254638672 -1718.3076171875 C -69.39459991455078 -1719.4765625 -69.99970245361328 -1721.015502929688 -69.99970245361328 -1722.6396484375 L -69.99970245361328 -1737.602172851563 L -69.99970245361328 -1739.999755859375 C -69.99970245361328 -1745.513916015625 -65.51358032226563 -1750 -59.9994010925293 -1750 L -48.0005989074707 -1750 C -42.48641967773438 -1750 -38.00030136108398 -1745.513916015625 -38.00030136108398 -1739.999755859375 L -38.00030136108398 -1733.582763671875 L -38.00030136108398 -1722.6396484375 C -38.00030136108398 -1721.015502929688 -38.60540008544922 -1719.4765625 -39.70413970947266 -1718.30615234375 L -49.62622833251953 -1707.727172851563 C -50.7618293762207 -1706.51806640625 -52.28670883178711 -1705.835693359375 -53.92189025878906 -1705.8037109375 L -54 -1705.80224609375 Z" stroke="none" fill="#fff"/>
      </g>
      <g id="Union_13" data-name="Union 13" transform="translate(114.099 1774)" fill="#2a2a2a">
        <path d="M -54 -1707.802612304688 L -54.0390510559082 -1707.803344726563 C -55.13296890258789 -1707.82470703125 -56.15454864501953 -1708.283813476563 -56.91559982299805 -1709.095947265625 L -66.83837890625 -1719.67578125 C -67.58704376220703 -1720.473266601563 -67.99970245361328 -1721.526000976563 -67.99970245361328 -1722.6396484375 L -67.99970245361328 -1737.602172851563 L -67.99970245361328 -1739.999755859375 C -67.99970245361328 -1744.4111328125 -64.41078186035156 -1748 -59.9994010925293 -1748 L -48.0005989074707 -1748 C -43.58921813964844 -1748 -40.00030136108398 -1744.4111328125 -40.00030136108398 -1739.999755859375 L -40.00030136108398 -1733.582763671875 L -40.00030136108398 -1722.6396484375 C -40.00030136108398 -1721.526000976563 -40.41296005249023 -1720.473266601563 -41.16226959228516 -1719.675048828125 L -51.08501815795898 -1709.095336914063 C -51.84780883789063 -1708.283203125 -52.86883163452148 -1707.82470703125 -53.9609489440918 -1707.803344726563 L -54 -1707.802612304688 Z" stroke="none"/>
        <path d="M -54 -1709.802978515625 C -53.45009994506836 -1709.813720703125 -52.93349838256836 -1710.048583984375 -52.54380035400391 -1710.463500976563 L -42.62039947509766 -1721.0439453125 C -42.22079849243164 -1721.469604492188 -42.00030136108398 -1722.03662109375 -42.00030136108398 -1722.6396484375 L -42.00030136108398 -1733.582763671875 L -42.00030136108398 -1739.999755859375 C -42.00030136108398 -1743.313598632813 -44.68679809570313 -1746 -48.0005989074707 -1746 L -59.9994010925293 -1746 C -63.31320190429688 -1746 -65.99970245361328 -1743.313598632813 -65.99970245361328 -1739.999755859375 L -65.99970245361328 -1737.602172851563 L -65.99970245361328 -1722.6396484375 C -65.99970245361328 -1722.03662109375 -65.77919769287109 -1721.469604492188 -65.37960052490234 -1721.0439453125 L -55.45619964599609 -1710.463500976563 C -55.06740188598633 -1710.048583984375 -54.54990005493164 -1709.813720703125 -54 -1709.802978515625 M -54 -1705.80224609375 L -54.07810974121094 -1705.8037109375 C -55.71596145629883 -1705.835693359375 -57.24195861816406 -1706.519287109375 -58.3750114440918 -1707.728393554688 L -68.29717254638672 -1718.3076171875 C -69.39459991455078 -1719.4765625 -69.99970245361328 -1721.015502929688 -69.99970245361328 -1722.6396484375 L -69.99970245361328 -1737.602172851563 L -69.99970245361328 -1739.999755859375 C -69.99970245361328 -1745.513916015625 -65.51358032226563 -1750 -59.9994010925293 -1750 L -48.0005989074707 -1750 C -42.48641967773438 -1750 -38.00030136108398 -1745.513916015625 -38.00030136108398 -1739.999755859375 L -38.00030136108398 -1733.582763671875 L -38.00030136108398 -1722.6396484375 C -38.00030136108398 -1721.015502929688 -38.60540008544922 -1719.4765625 -39.70413970947266 -1718.30615234375 L -49.62622833251953 -1707.727172851563 C -50.7618293762207 -1706.51806640625 -52.28670883178711 -1705.835693359375 -53.92189025878906 -1705.8037109375 L -54 -1705.80224609375 Z" stroke="none" fill="#fff"/>
      </g>
      <circle id="Ellipse_24" data-name="Ellipse 24" cx="4" cy="4" r="4" transform="translate(56 65)" fill="#fff"/>
      <g id="Union_11" data-name="Union 11" transform="translate(-1644.803 123.099) rotate(90)" fill="#2a2a2a">
        <path d="M -54 -1707.802612304688 L -54.0390510559082 -1707.803344726563 C -55.13296890258789 -1707.82470703125 -56.15454864501953 -1708.283813476563 -56.91559982299805 -1709.095947265625 L -66.83837890625 -1719.67578125 C -67.58704376220703 -1720.473266601563 -67.99970245361328 -1721.526000976563 -67.99970245361328 -1722.6396484375 L -67.99970245361328 -1737.602172851563 L -67.99970245361328 -1739.999755859375 C -67.99970245361328 -1744.4111328125 -64.41078186035156 -1748 -59.9994010925293 -1748 L -48.0005989074707 -1748 C -43.58921813964844 -1748 -40.00030136108398 -1744.4111328125 -40.00030136108398 -1739.999755859375 L -40.00030136108398 -1733.582763671875 L -40.00030136108398 -1722.6396484375 C -40.00030136108398 -1721.526000976563 -40.41296005249023 -1720.473266601563 -41.16226959228516 -1719.675048828125 L -51.08501815795898 -1709.095336914063 C -51.84780883789063 -1708.283203125 -52.86883163452148 -1707.82470703125 -53.9609489440918 -1707.803344726563 L -54 -1707.802612304688 Z" stroke="none"/>
        <path d="M -54 -1709.802978515625 C -53.45009994506836 -1709.813720703125 -52.93349838256836 -1710.048583984375 -52.54380035400391 -1710.463500976563 L -42.62039947509766 -1721.0439453125 C -42.22079849243164 -1721.469604492188 -42.00030136108398 -1722.03662109375 -42.00030136108398 -1722.6396484375 L -42.00030136108398 -1733.582763671875 L -42.00030136108398 -1739.999755859375 C -42.00030136108398 -1743.313598632813 -44.68679809570313 -1746 -48.0005989074707 -1746 L -59.9994010925293 -1746 C -63.31320190429688 -1746 -65.99970245361328 -1743.313598632813 -65.99970245361328 -1739.999755859375 L -65.99970245361328 -1737.602172851563 L -65.99970245361328 -1722.6396484375 C -65.99970245361328 -1722.03662109375 -65.77919769287109 -1721.469604492188 -65.37960052490234 -1721.0439453125 L -55.45619964599609 -1710.463500976563 C -55.06740188598633 -1710.048583984375 -54.54990005493164 -1709.813720703125 -54 -1709.802978515625 M -54 -1705.80224609375 L -54.07810974121094 -1705.8037109375 C -55.71596145629883 -1705.835693359375 -57.24195861816406 -1706.519287109375 -58.3750114440918 -1707.728393554688 L -68.29717254638672 -1718.3076171875 C -69.39459991455078 -1719.4765625 -69.99970245361328 -1721.015502929688 -69.99970245361328 -1722.6396484375 L -69.99970245361328 -1737.602172851563 L -69.99970245361328 -1739.999755859375 C -69.99970245361328 -1745.513916015625 -65.51358032226563 -1750 -59.9994010925293 -1750 L -48.0005989074707 -1750 C -42.48641967773438 -1750 -38.00030136108398 -1745.513916015625 -38.00030136108398 -1739.999755859375 L -38.00030136108398 -1733.582763671875 L -38.00030136108398 -1722.6396484375 C -38.00030136108398 -1721.015502929688 -38.60540008544922 -1719.4765625 -39.70413970947266 -1718.30615234375 L -49.62622833251953 -1707.727172851563 C -50.7618293762207 -1706.51806640625 -52.28670883178711 -1705.835693359375 -53.92189025878906 -1705.8037109375 L -54 -1705.80224609375 Z" stroke="none" fill="#fff"/>
      </g>
      <g id="Union_10" data-name="Union 10" transform="translate(6.099 -1635.803) rotate(180)" fill="#2a2a2a">
        <path d="M -54 -1707.802612304688 L -54.0390510559082 -1707.803344726563 C -55.13296890258789 -1707.82470703125 -56.15454864501953 -1708.283813476563 -56.91559982299805 -1709.095947265625 L -66.83837890625 -1719.67578125 C -67.58704376220703 -1720.473266601563 -67.99970245361328 -1721.526000976563 -67.99970245361328 -1722.6396484375 L -67.99970245361328 -1737.602172851563 L -67.99970245361328 -1739.999755859375 C -67.99970245361328 -1744.4111328125 -64.41078186035156 -1748 -59.9994010925293 -1748 L -48.0005989074707 -1748 C -43.58921813964844 -1748 -40.00030136108398 -1744.4111328125 -40.00030136108398 -1739.999755859375 L -40.00030136108398 -1733.582763671875 L -40.00030136108398 -1722.6396484375 C -40.00030136108398 -1721.526000976563 -40.41296005249023 -1720.473266601563 -41.16226959228516 -1719.675048828125 L -51.08501815795898 -1709.095336914063 C -51.84780883789063 -1708.283203125 -52.86883163452148 -1707.82470703125 -53.9609489440918 -1707.803344726563 L -54 -1707.802612304688 Z" stroke="none"/>
        <path d="M -54 -1709.802978515625 C -53.45009994506836 -1709.813720703125 -52.93349838256836 -1710.048583984375 -52.54380035400391 -1710.463500976563 L -42.62039947509766 -1721.0439453125 C -42.22079849243164 -1721.469604492188 -42.00030136108398 -1722.03662109375 -42.00030136108398 -1722.6396484375 L -42.00030136108398 -1733.582763671875 L -42.00030136108398 -1739.999755859375 C -42.00030136108398 -1743.313598632813 -44.68679809570313 -1746 -48.0005989074707 -1746 L -59.9994010925293 -1746 C -63.31320190429688 -1746 -65.99970245361328 -1743.313598632813 -65.99970245361328 -1739.999755859375 L -65.99970245361328 -1737.602172851563 L -65.99970245361328 -1722.6396484375 C -65.99970245361328 -1722.03662109375 -65.77919769287109 -1721.469604492188 -65.37960052490234 -1721.0439453125 L -55.45619964599609 -1710.463500976563 C -55.06740188598633 -1710.048583984375 -54.54990005493164 -1709.813720703125 -54 -1709.802978515625 M -54 -1705.80224609375 L -54.07810974121094 -1705.8037109375 C -55.71596145629883 -1705.835693359375 -57.24195861816406 -1706.519287109375 -58.3750114440918 -1707.728393554688 L -68.29717254638672 -1718.3076171875 C -69.39459991455078 -1719.4765625 -69.99970245361328 -1721.015502929688 -69.99970245361328 -1722.6396484375 L -69.99970245361328 -1737.602172851563 L -69.99970245361328 -1739.999755859375 C -69.99970245361328 -1745.513916015625 -65.51358032226563 -1750 -59.9994010925293 -1750 L -48.0005989074707 -1750 C -42.48641967773438 -1750 -38.00030136108398 -1745.513916015625 -38.00030136108398 -1739.999755859375 L -38.00030136108398 -1733.582763671875 L -38.00030136108398 -1722.6396484375 C -38.00030136108398 -1721.015502929688 -38.60540008544922 -1719.4765625 -39.70413970947266 -1718.30615234375 L -49.62622833251953 -1707.727172851563 C -50.7618293762207 -1706.51806640625 -52.28670883178711 -1705.835693359375 -53.92189025878906 -1705.8037109375 L -54 -1705.80224609375 Z" stroke="none" fill="#fff"/>
      </g>
      <g id="Union_15" data-name="Union 15" transform="translate(6.099 -1635.803) rotate(180)" fill="#2a2a2a">
        <path d="M -54 -1707.802612304688 L -54.0390510559082 -1707.803344726563 C -55.13296890258789 -1707.82470703125 -56.15454864501953 -1708.283813476563 -56.91559982299805 -1709.095947265625 L -66.83837890625 -1719.67578125 C -67.58704376220703 -1720.473266601563 -67.99970245361328 -1721.526000976563 -67.99970245361328 -1722.6396484375 L -67.99970245361328 -1737.602172851563 L -67.99970245361328 -1739.999755859375 C -67.99970245361328 -1744.4111328125 -64.41078186035156 -1748 -59.9994010925293 -1748 L -48.0005989074707 -1748 C -43.58921813964844 -1748 -40.00030136108398 -1744.4111328125 -40.00030136108398 -1739.999755859375 L -40.00030136108398 -1733.582763671875 L -40.00030136108398 -1722.6396484375 C -40.00030136108398 -1721.526000976563 -40.41296005249023 -1720.473266601563 -41.16226959228516 -1719.675048828125 L -51.08501815795898 -1709.095336914063 C -51.84780883789063 -1708.283203125 -52.86883163452148 -1707.82470703125 -53.9609489440918 -1707.803344726563 L -54 -1707.802612304688 Z" stroke="none"/>
        <path d="M -54 -1709.802978515625 C -53.45009994506836 -1709.813720703125 -52.93349838256836 -1710.048583984375 -52.54380035400391 -1710.463500976563 L -42.62039947509766 -1721.0439453125 C -42.22079849243164 -1721.469604492188 -42.00030136108398 -1722.03662109375 -42.00030136108398 -1722.6396484375 L -42.00030136108398 -1733.582763671875 L -42.00030136108398 -1739.999755859375 C -42.00030136108398 -1743.313598632813 -44.68679809570313 -1746 -48.0005989074707 -1746 L -59.9994010925293 -1746 C -63.31320190429688 -1746 -65.99970245361328 -1743.313598632813 -65.99970245361328 -1739.999755859375 L -65.99970245361328 -1737.602172851563 L -65.99970245361328 -1722.6396484375 C -65.99970245361328 -1722.03662109375 -65.77919769287109 -1721.469604492188 -65.37960052490234 -1721.0439453125 L -55.45619964599609 -1710.463500976563 C -55.06740188598633 -1710.048583984375 -54.54990005493164 -1709.813720703125 -54 -1709.802978515625 M -54 -1705.80224609375 L -54.07810974121094 -1705.8037109375 C -55.71596145629883 -1705.835693359375 -57.24195861816406 -1706.519287109375 -58.3750114440918 -1707.728393554688 L -68.29717254638672 -1718.3076171875 C -69.39459991455078 -1719.4765625 -69.99970245361328 -1721.015502929688 -69.99970245361328 -1722.6396484375 L -69.99970245361328 -1737.602172851563 L -69.99970245361328 -1739.999755859375 C -69.99970245361328 -1745.513916015625 -65.51358032226563 -1750 -59.9994010925293 -1750 L -48.0005989074707 -1750 C -42.48641967773438 -1750 -38.00030136108398 -1745.513916015625 -38.00030136108398 -1739.999755859375 L -38.00030136108398 -1733.582763671875 L -38.00030136108398 -1722.6396484375 C -38.00030136108398 -1721.015502929688 -38.60540008544922 -1719.4765625 -39.70413970947266 -1718.30615234375 L -49.62622833251953 -1707.727172851563 C -50.7618293762207 -1706.51806640625 -52.28670883178711 -1705.835693359375 -53.92189025878906 -1705.8037109375 L -54 -1705.80224609375 Z" stroke="none" fill="#fff"/>
      </g>
      <g id="Union_12" data-name="Union 12" transform="translate(1765 15.099) rotate(-90)" fill="#2a2a2a">
        <path d="M -54 -1707.802612304688 L -54.0390510559082 -1707.803344726563 C -55.13296890258789 -1707.82470703125 -56.15454864501953 -1708.283813476563 -56.91559982299805 -1709.095947265625 L -66.83837890625 -1719.67578125 C -67.58704376220703 -1720.473266601563 -67.99970245361328 -1721.526000976563 -67.99970245361328 -1722.6396484375 L -67.99970245361328 -1737.602172851563 L -67.99970245361328 -1739.999755859375 C -67.99970245361328 -1744.4111328125 -64.41078186035156 -1748 -59.9994010925293 -1748 L -48.0005989074707 -1748 C -43.58921813964844 -1748 -40.00030136108398 -1744.4111328125 -40.00030136108398 -1739.999755859375 L -40.00030136108398 -1733.582763671875 L -40.00030136108398 -1722.6396484375 C -40.00030136108398 -1721.526000976563 -40.41296005249023 -1720.473266601563 -41.16226959228516 -1719.675048828125 L -51.08501815795898 -1709.095336914063 C -51.84780883789063 -1708.283203125 -52.86883163452148 -1707.82470703125 -53.9609489440918 -1707.803344726563 L -54 -1707.802612304688 Z" stroke="none"/>
        <path d="M -54 -1709.802978515625 C -53.45009994506836 -1709.813720703125 -52.93349838256836 -1710.048583984375 -52.54380035400391 -1710.463500976563 L -42.62039947509766 -1721.0439453125 C -42.22079849243164 -1721.469604492188 -42.00030136108398 -1722.03662109375 -42.00030136108398 -1722.6396484375 L -42.00030136108398 -1733.582763671875 L -42.00030136108398 -1739.999755859375 C -42.00030136108398 -1743.313598632813 -44.68679809570313 -1746 -48.0005989074707 -1746 L -59.9994010925293 -1746 C -63.31320190429688 -1746 -65.99970245361328 -1743.313598632813 -65.99970245361328 -1739.999755859375 L -65.99970245361328 -1737.602172851563 L -65.99970245361328 -1722.6396484375 C -65.99970245361328 -1722.03662109375 -65.77919769287109 -1721.469604492188 -65.37960052490234 -1721.0439453125 L -55.45619964599609 -1710.463500976563 C -55.06740188598633 -1710.048583984375 -54.54990005493164 -1709.813720703125 -54 -1709.802978515625 M -54 -1705.80224609375 L -54.07810974121094 -1705.8037109375 C -55.71596145629883 -1705.835693359375 -57.24195861816406 -1706.519287109375 -58.3750114440918 -1707.728393554688 L -68.29717254638672 -1718.3076171875 C -69.39459991455078 -1719.4765625 -69.99970245361328 -1721.015502929688 -69.99970245361328 -1722.6396484375 L -69.99970245361328 -1737.602172851563 L -69.99970245361328 -1739.999755859375 C -69.99970245361328 -1745.513916015625 -65.51358032226563 -1750 -59.9994010925293 -1750 L -48.0005989074707 -1750 C -42.48641967773438 -1750 -38.00030136108398 -1745.513916015625 -38.00030136108398 -1739.999755859375 L -38.00030136108398 -1733.582763671875 L -38.00030136108398 -1722.6396484375 C -38.00030136108398 -1721.015502929688 -38.60540008544922 -1719.4765625 -39.70413970947266 -1718.30615234375 L -49.62622833251953 -1707.727172851563 C -50.7618293762207 -1706.51806640625 -52.28670883178711 -1705.835693359375 -53.92189025878906 -1705.8037109375 L -54 -1705.80224609375 Z" stroke="none" fill="#fff"/>
      </g>
      <g id="Group_19" data-name="Group 19" transform="translate(0.099 1)">
        <g id="Union_14" data-name="Union 14" transform="translate(-1644.901 122.099) rotate(90)" fill="#2a2a2a">
          <path d="M -54 -1707.802612304688 L -54.0390510559082 -1707.803344726563 C -55.13296890258789 -1707.82470703125 -56.15454864501953 -1708.283813476563 -56.91559982299805 -1709.095947265625 L -66.83837890625 -1719.67578125 C -67.58704376220703 -1720.473266601563 -67.99970245361328 -1721.526000976563 -67.99970245361328 -1722.6396484375 L -67.99970245361328 -1737.602172851563 L -67.99970245361328 -1739.999755859375 C -67.99970245361328 -1744.4111328125 -64.41078186035156 -1748 -59.9994010925293 -1748 L -48.0005989074707 -1748 C -43.58921813964844 -1748 -40.00030136108398 -1744.4111328125 -40.00030136108398 -1739.999755859375 L -40.00030136108398 -1733.582763671875 L -40.00030136108398 -1722.6396484375 C -40.00030136108398 -1721.526000976563 -40.41296005249023 -1720.473266601563 -41.16226959228516 -1719.675048828125 L -51.08501815795898 -1709.095336914063 C -51.84780883789063 -1708.283203125 -52.86883163452148 -1707.82470703125 -53.9609489440918 -1707.803344726563 L -54 -1707.802612304688 Z" stroke="none"/>
          <path d="M -54 -1709.802978515625 C -53.45009994506836 -1709.813720703125 -52.93349838256836 -1710.048583984375 -52.54380035400391 -1710.463500976563 L -42.62039947509766 -1721.0439453125 C -42.22079849243164 -1721.469604492188 -42.00030136108398 -1722.03662109375 -42.00030136108398 -1722.6396484375 L -42.00030136108398 -1733.582763671875 L -42.00030136108398 -1739.999755859375 C -42.00030136108398 -1743.313598632813 -44.68679809570313 -1746 -48.0005989074707 -1746 L -59.9994010925293 -1746 C -63.31320190429688 -1746 -65.99970245361328 -1743.313598632813 -65.99970245361328 -1739.999755859375 L -65.99970245361328 -1737.602172851563 L -65.99970245361328 -1722.6396484375 C -65.99970245361328 -1722.03662109375 -65.77919769287109 -1721.469604492188 -65.37960052490234 -1721.0439453125 L -55.45619964599609 -1710.463500976563 C -55.06740188598633 -1710.048583984375 -54.54990005493164 -1709.813720703125 -54 -1709.802978515625 M -54 -1705.80224609375 L -54.07810974121094 -1705.8037109375 C -55.71596145629883 -1705.835693359375 -57.24195861816406 -1706.519287109375 -58.3750114440918 -1707.728393554688 L -68.29717254638672 -1718.3076171875 C -69.39459991455078 -1719.4765625 -69.99970245361328 -1721.015502929688 -69.99970245361328 -1722.6396484375 L -69.99970245361328 -1737.602172851563 L -69.99970245361328 -1739.999755859375 C -69.99970245361328 -1745.513916015625 -65.51358032226563 -1750 -59.9994010925293 -1750 L -48.0005989074707 -1750 C -42.48641967773438 -1750 -38.00030136108398 -1745.513916015625 -38.00030136108398 -1739.999755859375 L -38.00030136108398 -1733.582763671875 L -38.00030136108398 -1722.6396484375 C -38.00030136108398 -1721.015502929688 -38.60540008544922 -1719.4765625 -39.70413970947266 -1718.30615234375 L -49.62622833251953 -1707.727172851563 C -50.7618293762207 -1706.51806640625 -52.28670883178711 -1705.835693359375 -53.92189025878906 -1705.8037109375 L -54 -1705.80224609375 Z" stroke="none" fill="#fff"/>
        </g>
        <g id="Union_16" data-name="Union 16" transform="translate(1764.901 14.099) rotate(-90)" fill="#2a2a2a">
          <path d="M -54 -1707.802612304688 L -54.0390510559082 -1707.803344726563 C -55.13296890258789 -1707.82470703125 -56.15454864501953 -1708.283813476563 -56.91559982299805 -1709.095947265625 L -66.83837890625 -1719.67578125 C -67.58704376220703 -1720.473266601563 -67.99970245361328 -1721.526000976563 -67.99970245361328 -1722.6396484375 L -67.99970245361328 -1737.602172851563 L -67.99970245361328 -1739.999755859375 C -67.99970245361328 -1744.4111328125 -64.41078186035156 -1748 -59.9994010925293 -1748 L -48.0005989074707 -1748 C -43.58921813964844 -1748 -40.00030136108398 -1744.4111328125 -40.00030136108398 -1739.999755859375 L -40.00030136108398 -1733.582763671875 L -40.00030136108398 -1722.6396484375 C -40.00030136108398 -1721.526000976563 -40.41296005249023 -1720.473266601563 -41.16226959228516 -1719.675048828125 L -51.08501815795898 -1709.095336914063 C -51.84780883789063 -1708.283203125 -52.86883163452148 -1707.82470703125 -53.9609489440918 -1707.803344726563 L -54 -1707.802612304688 Z" stroke="none"/>
          <path d="M -54 -1709.802978515625 C -53.45009994506836 -1709.813720703125 -52.93349838256836 -1710.048583984375 -52.54380035400391 -1710.463500976563 L -42.62039947509766 -1721.0439453125 C -42.22079849243164 -1721.469604492188 -42.00030136108398 -1722.03662109375 -42.00030136108398 -1722.6396484375 L -42.00030136108398 -1733.582763671875 L -42.00030136108398 -1739.999755859375 C -42.00030136108398 -1743.313598632813 -44.68679809570313 -1746 -48.0005989074707 -1746 L -59.9994010925293 -1746 C -63.31320190429688 -1746 -65.99970245361328 -1743.313598632813 -65.99970245361328 -1739.999755859375 L -65.99970245361328 -1737.602172851563 L -65.99970245361328 -1722.6396484375 C -65.99970245361328 -1722.03662109375 -65.77919769287109 -1721.469604492188 -65.37960052490234 -1721.0439453125 L -55.45619964599609 -1710.463500976563 C -55.06740188598633 -1710.048583984375 -54.54990005493164 -1709.813720703125 -54 -1709.802978515625 M -54 -1705.80224609375 L -54.07810974121094 -1705.8037109375 C -55.71596145629883 -1705.835693359375 -57.24195861816406 -1706.519287109375 -58.3750114440918 -1707.728393554688 L -68.29717254638672 -1718.3076171875 C -69.39459991455078 -1719.4765625 -69.99970245361328 -1721.015502929688 -69.99970245361328 -1722.6396484375 L -69.99970245361328 -1737.602172851563 L -69.99970245361328 -1739.999755859375 C -69.99970245361328 -1745.513916015625 -65.51358032226563 -1750 -59.9994010925293 -1750 L -48.0005989074707 -1750 C -42.48641967773438 -1750 -38.00030136108398 -1745.513916015625 -38.00030136108398 -1739.999755859375 L -38.00030136108398 -1733.582763671875 L -38.00030136108398 -1722.6396484375 C -38.00030136108398 -1721.015502929688 -38.60540008544922 -1719.4765625 -39.70413970947266 -1718.30615234375 L -49.62622833251953 -1707.727172851563 C -50.7618293762207 -1706.51806640625 -52.28670883178711 -1705.835693359375 -53.92189025878906 -1705.8037109375 L -54 -1705.80224609375 Z" stroke="none" fill="#fff"/>
        </g>
      </g>
      <path id="Polygon_3" data-name="Polygon 3" d="M14,0,28,14H0Z" transform="translate(46.099 6)" fill="#fff"/>
    </g>
    <g id="Union_18" data-name="Union 18" transform="translate(50 64)" fill="#5b5b5b">
      <path d="M 13.9995002746582 26.19700050354004 L 6.00029993057251 26.19700050354004 C 3.794529914855957 26.19700050354004 1.99999988079071 24.40246963500977 1.99999988079071 22.19670104980469 L 1.99999988079071 21.65489959716797 L 1.99999988079071 10.10136985778809 L 9.999884605407715 2.128465175628662 L 17.99979972839355 10.10225105285645 L 17.99979972839355 18.52379989624023 L 17.99979972839355 22.19670104980469 C 17.99979972839355 24.40246963500977 16.20527076721191 26.19700050354004 13.9995002746582 26.19700050354004 Z" stroke="none"/>
      <path d="M 13.9995002746582 24.19700050354004 C 15.1024694442749 24.19700050354004 15.99979972839355 23.2996711730957 15.99979972839355 22.19670104980469 L 15.99979972839355 18.52379989624023 L 15.99979972839355 10.93260097503662 L 9.999809265136719 4.95219898223877 L 3.999999761581421 10.93177223205566 L 3.999999761581421 21.65489959716797 L 3.999999761581421 22.19670104980469 C 3.999999761581421 23.2996711730957 4.897329807281494 24.19700050354004 6.00029993057251 24.19700050354004 L 13.9995002746582 24.19700050354004 M 13.9995002746582 28.19700050354004 L 6.00029993057251 28.19700050354004 C 2.686499834060669 28.19700050354004 -1.358032193365943e-07 25.51049995422363 -1.358032193365943e-07 22.19670104980469 L -1.358032193365943e-07 21.65489959716797 L -1.358032193365943e-07 9.999899864196777 C -1.358032193365943e-07 9.530099868774414 0.1835998594760895 9.088200569152832 0.5165998935699463 8.756100654602051 L 8.786700248718262 0.5139002799987793 C 9.110699653625488 0.1908002495765686 9.540900230407715 0.008100251667201519 9.999899864196777 2.517700181670079e-07 C 10.45800018310547 0.008100251667201519 10.88910007476807 0.1908002495765686 11.21309947967529 0.5139002799987793 L 19.4822998046875 8.756100654602051 C 19.81620025634766 9.088200569152832 19.99979972839355 9.530099868774414 19.99979972839355 9.999899864196777 L 19.99979972839355 18.52379989624023 L 19.99979972839355 22.19670104980469 C 19.99979972839355 25.51049995422363 17.31329917907715 28.19700050354004 13.9995002746582 28.19700050354004 Z" stroke="none" fill="#5b5b5b"/>
    </g>
  </g>
</svg>
