<svg xmlns="http://www.w3.org/2000/svg" xmlns:xlink="http://www.w3.org/1999/xlink" width="120" height="120" viewBox="0 0 120 120">
  <defs>
    <clipPath id="clip-Button_-_PS_Directional_Arrows_Left_2">
      <rect width="120" height="120"/>
    </clipPath>
  </defs>
  <g id="Button_-_PS_Directional_Arrows_Left_2" data-name="Button - PS Directional Arrows Left 2" clip-path="url(#clip-Button_-_PS_Directional_Arrows_Left_2)">
    <g id="Group_20" data-name="Group 20" transform="translate(110.197 17) rotate(90)">
      <g id="Union_2" data-name="Union 2" transform="translate(29.099 46)" fill="#2a2a2a">
        <path d="M 17.99909973144531 38.19710159301758 L 6.000300407409668 38.19710159301758 C 1.588920593261719 38.19710159301758 -1.999999403953552 34.60818099975586 -1.999999403953552 30.19680023193359 L -1.999999403953552 27.7992000579834 L -1.999999403953552 12.83670043945313 C -1.999999403953552 11.72320079803467 -1.587369441986084 10.67039108276367 -0.8381094336509705 9.872200965881348 L 9.084720611572266 -0.7075992226600647 C 9.84514045715332 -1.519059181213379 10.86663055419922 -1.978129148483276 11.96043014526367 -1.999609231948853 L 11.99970054626465 -2.000389099121094 L 12.03897094726563 -1.999609231948853 C 13.13098049163818 -1.978169202804565 14.15191078186035 -1.519689202308655 14.9136905670166 -0.708649218082428 L 24.83808135986328 9.872800827026367 C 25.58677101135254 10.67039108276367 25.9994010925293 11.72320079803467 25.9994010925293 12.83670043945313 L 25.9994010925293 23.77980041503906 L 25.9994010925293 30.19680023193359 C 25.9994010925293 34.60818099975586 22.41048049926758 38.19710159301758 17.99909973144531 38.19710159301758 Z" stroke="none"/>
        <path d="M 17.99909973144531 36.19710159301758 C 21.31290054321289 36.19710159301758 23.9994010925293 33.51060104370117 23.9994010925293 30.19680023193359 L 23.9994010925293 23.77980041503906 L 23.9994010925293 12.83670043945313 C 23.9994010925293 12.2337007522583 23.77890014648438 11.66670036315918 23.37930107116699 11.24100112915039 L 13.45590019226074 0.6606007814407349 C 13.06620025634766 0.245700791478157 12.54960060119629 0.01080079656094313 11.99970054626465 7.965088002492848e-07 C 11.44980049133301 0.01080079656094313 10.93230056762695 0.245700791478157 10.54350090026855 0.6606007814407349 L 0.6201005578041077 11.24100112915039 C 0.2205005437135696 11.66670036315918 5.462646299747576e-07 12.2337007522583 5.462646299747576e-07 12.83670043945313 L 5.462646299747576e-07 27.7992000579834 L 5.462646299747576e-07 30.19680023193359 C 5.462646299747576e-07 33.51060104370117 2.686500549316406 36.19710159301758 6.000300407409668 36.19710159301758 L 17.99909973144531 36.19710159301758 M 17.99909973144531 40.19710159301758 L 6.000300407409668 40.19710159301758 C 0.4861205518245697 40.19710159301758 -3.999999523162842 35.71097946166992 -3.999999523162842 30.19680023193359 L -3.999999523162842 27.7992000579834 L -3.999999523162842 12.83670043945313 C -3.999999523162842 11.21272087097168 -3.394949436187744 9.67378044128418 -2.296319484710693 8.503391265869141 L 7.625940322875977 -2.075789213180542 C 8.75770092010498 -3.283529281616211 10.28352069854736 -3.967069149017334 11.92116069793701 -3.999229192733765 L 11.99970054626465 -4.000769138336182 L 12.07824039459229 -3.999229192733765 C 13.713210105896 -3.967119216918945 15.23791027069092 -3.28477931022644 16.37148094177246 -2.077899217605591 L 26.29685974121094 8.504611015319824 C 27.39435005187988 9.67378044128418 27.9994010925293 11.21272087097168 27.9994010925293 12.83670043945313 L 27.9994010925293 23.77980041503906 L 27.9994010925293 30.19680023193359 C 27.9994010925293 35.71097946166992 23.51328086853027 40.19710159301758 17.99909973144531 40.19710159301758 Z" stroke="none" fill="#fff"/>
      </g>
      <g id="Union_13" data-name="Union 13" transform="translate(29.099 46)" fill="#2a2a2a">
        <path d="M 17.99909973144531 38.19710159301758 L 6.000300407409668 38.19710159301758 C 1.588920593261719 38.19710159301758 -1.999999403953552 34.60818099975586 -1.999999403953552 30.19680023193359 L -1.999999403953552 27.7992000579834 L -1.999999403953552 12.83670043945313 C -1.999999403953552 11.72320079803467 -1.587369441986084 10.67039108276367 -0.8381094336509705 9.872200965881348 L 9.084720611572266 -0.7075992226600647 C 9.84514045715332 -1.519059181213379 10.86663055419922 -1.978129148483276 11.96043014526367 -1.999609231948853 L 11.99970054626465 -2.000389099121094 L 12.03897094726563 -1.999609231948853 C 13.13098049163818 -1.978169202804565 14.15191078186035 -1.519689202308655 14.9136905670166 -0.708649218082428 L 24.83808135986328 9.872800827026367 C 25.58677101135254 10.67039108276367 25.9994010925293 11.72320079803467 25.9994010925293 12.83670043945313 L 25.9994010925293 23.77980041503906 L 25.9994010925293 30.19680023193359 C 25.9994010925293 34.60818099975586 22.41048049926758 38.19710159301758 17.99909973144531 38.19710159301758 Z" stroke="none"/>
        <path d="M 17.99909973144531 36.19710159301758 C 21.31290054321289 36.19710159301758 23.9994010925293 33.51060104370117 23.9994010925293 30.19680023193359 L 23.9994010925293 23.77980041503906 L 23.9994010925293 12.83670043945313 C 23.9994010925293 12.2337007522583 23.77890014648438 11.66670036315918 23.37930107116699 11.24100112915039 L 13.45590019226074 0.6606007814407349 C 13.06620025634766 0.245700791478157 12.54960060119629 0.01080079656094313 11.99970054626465 7.965088002492848e-07 C 11.44980049133301 0.01080079656094313 10.93230056762695 0.245700791478157 10.54350090026855 0.6606007814407349 L 0.6201005578041077 11.24100112915039 C 0.2205005437135696 11.66670036315918 5.462646299747576e-07 12.2337007522583 5.462646299747576e-07 12.83670043945313 L 5.462646299747576e-07 27.7992000579834 L 5.462646299747576e-07 30.19680023193359 C 5.462646299747576e-07 33.51060104370117 2.686500549316406 36.19710159301758 6.000300407409668 36.19710159301758 L 17.99909973144531 36.19710159301758 M 17.99909973144531 40.19710159301758 L 6.000300407409668 40.19710159301758 C 0.4861205518245697 40.19710159301758 -3.999999523162842 35.71097946166992 -3.999999523162842 30.19680023193359 L -3.999999523162842 27.7992000579834 L -3.999999523162842 12.83670043945313 C -3.999999523162842 11.21272087097168 -3.394949436187744 9.67378044128418 -2.296319484710693 8.503391265869141 L 7.625940322875977 -2.075789213180542 C 8.75770092010498 -3.283529281616211 10.28352069854736 -3.967069149017334 11.92116069793701 -3.999229192733765 L 11.99970054626465 -4.000769138336182 L 12.07824039459229 -3.999229192733765 C 13.713210105896 -3.967119216918945 15.23791027069092 -3.28477931022644 16.37148094177246 -2.077899217605591 L 26.29685974121094 8.504611015319824 C 27.39435005187988 9.67378044128418 27.9994010925293 11.21272087097168 27.9994010925293 12.83670043945313 L 27.9994010925293 23.77980041503906 L 27.9994010925293 30.19680023193359 C 27.9994010925293 35.71097946166992 23.51328086853027 40.19710159301758 17.99909973144531 40.19710159301758 Z" stroke="none" fill="#fff"/>
      </g>
      <circle id="Ellipse_24" data-name="Ellipse 24" cx="4" cy="4" r="4" transform="translate(37 37.197)" fill="#fff"/>
      <g id="Union_11" data-name="Union 11" transform="translate(46 53.098) rotate(-90)" fill="#2a2a2a">
        <path d="M 17.99909973144531 38.19710159301758 L 6.000300407409668 38.19710159301758 C 1.588920593261719 38.19710159301758 -1.999999403953552 34.60818099975586 -1.999999403953552 30.19680023193359 L -1.999999403953552 27.7992000579834 L -1.999999403953552 12.83670043945313 C -1.999999403953552 11.72320079803467 -1.587369441986084 10.67039108276367 -0.8381094336509705 9.872200965881348 L 9.084720611572266 -0.7075992226600647 C 9.84514045715332 -1.519059181213379 10.86663055419922 -1.978129148483276 11.96043014526367 -1.999609231948853 L 11.99970054626465 -2.000389099121094 L 12.03897094726563 -1.999609231948853 C 13.13098049163818 -1.978169202804565 14.15191078186035 -1.519689202308655 14.9136905670166 -0.708649218082428 L 24.83808135986328 9.872800827026367 C 25.58677101135254 10.67039108276367 25.9994010925293 11.72320079803467 25.9994010925293 12.83670043945313 L 25.9994010925293 23.77980041503906 L 25.9994010925293 30.19680023193359 C 25.9994010925293 34.60818099975586 22.41048049926758 38.19710159301758 17.99909973144531 38.19710159301758 Z" stroke="none"/>
        <path d="M 17.99909973144531 36.19710159301758 C 21.31290054321289 36.19710159301758 23.9994010925293 33.51060104370117 23.9994010925293 30.19680023193359 L 23.9994010925293 23.77980041503906 L 23.9994010925293 12.83670043945313 C 23.9994010925293 12.2337007522583 23.77890014648438 11.66670036315918 23.37930107116699 11.24100112915039 L 13.45590019226074 0.6606007814407349 C 13.06620025634766 0.245700791478157 12.54960060119629 0.01080079656094313 11.99970054626465 7.965088002492848e-07 C 11.44980049133301 0.01080079656094313 10.93230056762695 0.245700791478157 10.54350090026855 0.6606007814407349 L 0.6201005578041077 11.24100112915039 C 0.2205005437135696 11.66670036315918 5.462646299747576e-07 12.2337007522583 5.462646299747576e-07 12.83670043945313 L 5.462646299747576e-07 27.7992000579834 L 5.462646299747576e-07 30.19680023193359 C 5.462646299747576e-07 33.51060104370117 2.686500549316406 36.19710159301758 6.000300407409668 36.19710159301758 L 17.99909973144531 36.19710159301758 M 17.99909973144531 40.19710159301758 L 6.000300407409668 40.19710159301758 C 0.4861205518245697 40.19710159301758 -3.999999523162842 35.71097946166992 -3.999999523162842 30.19680023193359 L -3.999999523162842 27.7992000579834 L -3.999999523162842 12.83670043945313 C -3.999999523162842 11.21272087097168 -3.394949436187744 9.67378044128418 -2.296319484710693 8.503391265869141 L 7.625940322875977 -2.075789213180542 C 8.75770092010498 -3.283529281616211 10.28352069854736 -3.967069149017334 11.92116069793701 -3.999229192733765 L 11.99970054626465 -4.000769138336182 L 12.07824039459229 -3.999229192733765 C 13.713210105896 -3.967119216918945 15.23791027069092 -3.28477931022644 16.37148094177246 -2.077899217605591 L 26.29685974121094 8.504611015319824 C 27.39435005187988 9.67378044128418 27.9994010925293 11.21272087097168 27.9994010925293 12.83670043945313 L 27.9994010925293 23.77980041503906 L 27.9994010925293 30.19680023193359 C 27.9994010925293 35.71097946166992 23.51328086853027 40.19710159301758 17.99909973144531 40.19710159301758 Z" stroke="none" fill="#fff"/>
      </g>
      <g id="Union_10" data-name="Union 10" transform="translate(53.098 36.197) rotate(180)" fill="#2a2a2a">
        <path d="M 17.99909973144531 38.19710159301758 L 6.000300407409668 38.19710159301758 C 1.588920593261719 38.19710159301758 -1.999999403953552 34.60818099975586 -1.999999403953552 30.19680023193359 L -1.999999403953552 27.7992000579834 L -1.999999403953552 12.83670043945313 C -1.999999403953552 11.72320079803467 -1.587369441986084 10.67039108276367 -0.8381094336509705 9.872200965881348 L 9.084720611572266 -0.7075992226600647 C 9.84514045715332 -1.519059181213379 10.86663055419922 -1.978129148483276 11.96043014526367 -1.999609231948853 L 11.99970054626465 -2.000389099121094 L 12.03897094726563 -1.999609231948853 C 13.13098049163818 -1.978169202804565 14.15191078186035 -1.519689202308655 14.9136905670166 -0.708649218082428 L 24.83808135986328 9.872800827026367 C 25.58677101135254 10.67039108276367 25.9994010925293 11.72320079803467 25.9994010925293 12.83670043945313 L 25.9994010925293 23.77980041503906 L 25.9994010925293 30.19680023193359 C 25.9994010925293 34.60818099975586 22.41048049926758 38.19710159301758 17.99909973144531 38.19710159301758 Z" stroke="none"/>
        <path d="M 17.99909973144531 36.19710159301758 C 21.31290054321289 36.19710159301758 23.9994010925293 33.51060104370117 23.9994010925293 30.19680023193359 L 23.9994010925293 23.77980041503906 L 23.9994010925293 12.83670043945313 C 23.9994010925293 12.2337007522583 23.77890014648438 11.66670036315918 23.37930107116699 11.24100112915039 L 13.45590019226074 0.6606007814407349 C 13.06620025634766 0.245700791478157 12.54960060119629 0.01080079656094313 11.99970054626465 7.965088002492848e-07 C 11.44980049133301 0.01080079656094313 10.93230056762695 0.245700791478157 10.54350090026855 0.6606007814407349 L 0.6201005578041077 11.24100112915039 C 0.2205005437135696 11.66670036315918 5.462646299747576e-07 12.2337007522583 5.462646299747576e-07 12.83670043945313 L 5.462646299747576e-07 27.7992000579834 L 5.462646299747576e-07 30.19680023193359 C 5.462646299747576e-07 33.51060104370117 2.686500549316406 36.19710159301758 6.000300407409668 36.19710159301758 L 17.99909973144531 36.19710159301758 M 17.99909973144531 40.19710159301758 L 6.000300407409668 40.19710159301758 C 0.4861205518245697 40.19710159301758 -3.999999523162842 35.71097946166992 -3.999999523162842 30.19680023193359 L -3.999999523162842 27.7992000579834 L -3.999999523162842 12.83670043945313 C -3.999999523162842 11.21272087097168 -3.394949436187744 9.67378044128418 -2.296319484710693 8.503391265869141 L 7.625940322875977 -2.075789213180542 C 8.75770092010498 -3.283529281616211 10.28352069854736 -3.967069149017334 11.92116069793701 -3.999229192733765 L 11.99970054626465 -4.000769138336182 L 12.07824039459229 -3.999229192733765 C 13.713210105896 -3.967119216918945 15.23791027069092 -3.28477931022644 16.37148094177246 -2.077899217605591 L 26.29685974121094 8.504611015319824 C 27.39435005187988 9.67378044128418 27.9994010925293 11.21272087097168 27.9994010925293 12.83670043945313 L 27.9994010925293 23.77980041503906 L 27.9994010925293 30.19680023193359 C 27.9994010925293 35.71097946166992 23.51328086853027 40.19710159301758 17.99909973144531 40.19710159301758 Z" stroke="none" fill="#fff"/>
      </g>
      <g id="Union_15" data-name="Union 15" transform="translate(53.098 36.197) rotate(180)" fill="#2a2a2a">
        <path d="M 17.99909973144531 38.19710159301758 L 6.000300407409668 38.19710159301758 C 1.588920593261719 38.19710159301758 -1.999999403953552 34.60818099975586 -1.999999403953552 30.19680023193359 L -1.999999403953552 27.7992000579834 L -1.999999403953552 12.83670043945313 C -1.999999403953552 11.72320079803467 -1.587369441986084 10.67039108276367 -0.8381094336509705 9.872200965881348 L 9.084720611572266 -0.7075992226600647 C 9.84514045715332 -1.519059181213379 10.86663055419922 -1.978129148483276 11.96043014526367 -1.999609231948853 L 11.99970054626465 -2.000389099121094 L 12.03897094726563 -1.999609231948853 C 13.13098049163818 -1.978169202804565 14.15191078186035 -1.519689202308655 14.9136905670166 -0.708649218082428 L 24.83808135986328 9.872800827026367 C 25.58677101135254 10.67039108276367 25.9994010925293 11.72320079803467 25.9994010925293 12.83670043945313 L 25.9994010925293 23.77980041503906 L 25.9994010925293 30.19680023193359 C 25.9994010925293 34.60818099975586 22.41048049926758 38.19710159301758 17.99909973144531 38.19710159301758 Z" stroke="none"/>
        <path d="M 17.99909973144531 36.19710159301758 C 21.31290054321289 36.19710159301758 23.9994010925293 33.51060104370117 23.9994010925293 30.19680023193359 L 23.9994010925293 23.77980041503906 L 23.9994010925293 12.83670043945313 C 23.9994010925293 12.2337007522583 23.77890014648438 11.66670036315918 23.37930107116699 11.24100112915039 L 13.45590019226074 0.6606007814407349 C 13.06620025634766 0.245700791478157 12.54960060119629 0.01080079656094313 11.99970054626465 7.965088002492848e-07 C 11.44980049133301 0.01080079656094313 10.93230056762695 0.245700791478157 10.54350090026855 0.6606007814407349 L 0.6201005578041077 11.24100112915039 C 0.2205005437135696 11.66670036315918 5.462646299747576e-07 12.2337007522583 5.462646299747576e-07 12.83670043945313 L 5.462646299747576e-07 27.7992000579834 L 5.462646299747576e-07 30.19680023193359 C 5.462646299747576e-07 33.51060104370117 2.686500549316406 36.19710159301758 6.000300407409668 36.19710159301758 L 17.99909973144531 36.19710159301758 M 17.99909973144531 40.19710159301758 L 6.000300407409668 40.19710159301758 C 0.4861205518245697 40.19710159301758 -3.999999523162842 35.71097946166992 -3.999999523162842 30.19680023193359 L -3.999999523162842 27.7992000579834 L -3.999999523162842 12.83670043945313 C -3.999999523162842 11.21272087097168 -3.394949436187744 9.67378044128418 -2.296319484710693 8.503391265869141 L 7.625940322875977 -2.075789213180542 C 8.75770092010498 -3.283529281616211 10.28352069854736 -3.967069149017334 11.92116069793701 -3.999229192733765 L 11.99970054626465 -4.000769138336182 L 12.07824039459229 -3.999229192733765 C 13.713210105896 -3.967119216918945 15.23791027069092 -3.28477931022644 16.37148094177246 -2.077899217605591 L 26.29685974121094 8.504611015319824 C 27.39435005187988 9.67378044128418 27.9994010925293 11.21272087097168 27.9994010925293 12.83670043945313 L 27.9994010925293 23.77980041503906 L 27.9994010925293 30.19680023193359 C 27.9994010925293 35.71097946166992 23.51328086853027 40.19710159301758 17.99909973144531 40.19710159301758 Z" stroke="none" fill="#fff"/>
      </g>
      <g id="Union_12" data-name="Union 12" transform="translate(36.197 29.099) rotate(90)" fill="#2a2a2a">
        <path d="M 17.99909973144531 38.19710159301758 L 6.000300407409668 38.19710159301758 C 1.588920593261719 38.19710159301758 -1.999999403953552 34.60818099975586 -1.999999403953552 30.19680023193359 L -1.999999403953552 27.7992000579834 L -1.999999403953552 12.83670043945313 C -1.999999403953552 11.72320079803467 -1.587369441986084 10.67039108276367 -0.8381094336509705 9.872200965881348 L 9.084720611572266 -0.7075992226600647 C 9.84514045715332 -1.519059181213379 10.86663055419922 -1.978129148483276 11.96043014526367 -1.999609231948853 L 11.99970054626465 -2.000389099121094 L 12.03897094726563 -1.999609231948853 C 13.13098049163818 -1.978169202804565 14.15191078186035 -1.519689202308655 14.9136905670166 -0.708649218082428 L 24.83808135986328 9.872800827026367 C 25.58677101135254 10.67039108276367 25.9994010925293 11.72320079803467 25.9994010925293 12.83670043945313 L 25.9994010925293 23.77980041503906 L 25.9994010925293 30.19680023193359 C 25.9994010925293 34.60818099975586 22.41048049926758 38.19710159301758 17.99909973144531 38.19710159301758 Z" stroke="none"/>
        <path d="M 17.99909973144531 36.19710159301758 C 21.31290054321289 36.19710159301758 23.9994010925293 33.51060104370117 23.9994010925293 30.19680023193359 L 23.9994010925293 23.77980041503906 L 23.9994010925293 12.83670043945313 C 23.9994010925293 12.2337007522583 23.77890014648438 11.66670036315918 23.37930107116699 11.24100112915039 L 13.45590019226074 0.6606007814407349 C 13.06620025634766 0.245700791478157 12.54960060119629 0.01080079656094313 11.99970054626465 7.965088002492848e-07 C 11.44980049133301 0.01080079656094313 10.93230056762695 0.245700791478157 10.54350090026855 0.6606007814407349 L 0.6201005578041077 11.24100112915039 C 0.2205005437135696 11.66670036315918 5.462646299747576e-07 12.2337007522583 5.462646299747576e-07 12.83670043945313 L 5.462646299747576e-07 27.7992000579834 L 5.462646299747576e-07 30.19680023193359 C 5.462646299747576e-07 33.51060104370117 2.686500549316406 36.19710159301758 6.000300407409668 36.19710159301758 L 17.99909973144531 36.19710159301758 M 17.99909973144531 40.19710159301758 L 6.000300407409668 40.19710159301758 C 0.4861205518245697 40.19710159301758 -3.999999523162842 35.71097946166992 -3.999999523162842 30.19680023193359 L -3.999999523162842 27.7992000579834 L -3.999999523162842 12.83670043945313 C -3.999999523162842 11.21272087097168 -3.394949436187744 9.67378044128418 -2.296319484710693 8.503391265869141 L 7.625940322875977 -2.075789213180542 C 8.75770092010498 -3.283529281616211 10.28352069854736 -3.967069149017334 11.92116069793701 -3.999229192733765 L 11.99970054626465 -4.000769138336182 L 12.07824039459229 -3.999229192733765 C 13.713210105896 -3.967119216918945 15.23791027069092 -3.28477931022644 16.37148094177246 -2.077899217605591 L 26.29685974121094 8.504611015319824 C 27.39435005187988 9.67378044128418 27.9994010925293 11.21272087097168 27.9994010925293 12.83670043945313 L 27.9994010925293 23.77980041503906 L 27.9994010925293 30.19680023193359 C 27.9994010925293 35.71097946166992 23.51328086853027 40.19710159301758 17.99909973144531 40.19710159301758 Z" stroke="none" fill="#fff"/>
      </g>
      <g id="Group_19" data-name="Group 19" transform="translate(0 29.099)">
        <g id="Union_14" data-name="Union 14" transform="translate(46 23.999) rotate(-90)" fill="#2a2a2a">
          <path d="M 17.99909973144531 38.19710159301758 L 6.000300407409668 38.19710159301758 C 1.588920593261719 38.19710159301758 -1.999999403953552 34.60818099975586 -1.999999403953552 30.19680023193359 L -1.999999403953552 27.7992000579834 L -1.999999403953552 12.83670043945313 C -1.999999403953552 11.72320079803467 -1.587369441986084 10.67039108276367 -0.8381094336509705 9.872200965881348 L 9.084720611572266 -0.7075992226600647 C 9.84514045715332 -1.519059181213379 10.86663055419922 -1.978129148483276 11.96043014526367 -1.999609231948853 L 11.99970054626465 -2.000389099121094 L 12.03897094726563 -1.999609231948853 C 13.13098049163818 -1.978169202804565 14.15191078186035 -1.519689202308655 14.9136905670166 -0.708649218082428 L 24.83808135986328 9.872800827026367 C 25.58677101135254 10.67039108276367 25.9994010925293 11.72320079803467 25.9994010925293 12.83670043945313 L 25.9994010925293 23.77980041503906 L 25.9994010925293 30.19680023193359 C 25.9994010925293 34.60818099975586 22.41048049926758 38.19710159301758 17.99909973144531 38.19710159301758 Z" stroke="none"/>
          <path d="M 17.99909973144531 36.19710159301758 C 21.31290054321289 36.19710159301758 23.9994010925293 33.51060104370117 23.9994010925293 30.19680023193359 L 23.9994010925293 23.77980041503906 L 23.9994010925293 12.83670043945313 C 23.9994010925293 12.2337007522583 23.77890014648438 11.66670036315918 23.37930107116699 11.24100112915039 L 13.45590019226074 0.6606007814407349 C 13.06620025634766 0.245700791478157 12.54960060119629 0.01080079656094313 11.99970054626465 7.965088002492848e-07 C 11.44980049133301 0.01080079656094313 10.93230056762695 0.245700791478157 10.54350090026855 0.6606007814407349 L 0.6201005578041077 11.24100112915039 C 0.2205005437135696 11.66670036315918 5.462646299747576e-07 12.2337007522583 5.462646299747576e-07 12.83670043945313 L 5.462646299747576e-07 27.7992000579834 L 5.462646299747576e-07 30.19680023193359 C 5.462646299747576e-07 33.51060104370117 2.686500549316406 36.19710159301758 6.000300407409668 36.19710159301758 L 17.99909973144531 36.19710159301758 M 17.99909973144531 40.19710159301758 L 6.000300407409668 40.19710159301758 C 0.4861205518245697 40.19710159301758 -3.999999523162842 35.71097946166992 -3.999999523162842 30.19680023193359 L -3.999999523162842 27.7992000579834 L -3.999999523162842 12.83670043945313 C -3.999999523162842 11.21272087097168 -3.394949436187744 9.67378044128418 -2.296319484710693 8.503391265869141 L 7.625940322875977 -2.075789213180542 C 8.75770092010498 -3.283529281616211 10.28352069854736 -3.967069149017334 11.92116069793701 -3.999229192733765 L 11.99970054626465 -4.000769138336182 L 12.07824039459229 -3.999229192733765 C 13.713210105896 -3.967119216918945 15.23791027069092 -3.28477931022644 16.37148094177246 -2.077899217605591 L 26.29685974121094 8.504611015319824 C 27.39435005187988 9.67378044128418 27.9994010925293 11.21272087097168 27.9994010925293 12.83670043945313 L 27.9994010925293 23.77980041503906 L 27.9994010925293 30.19680023193359 C 27.9994010925293 35.71097946166992 23.51328086853027 40.19710159301758 17.99909973144531 40.19710159301758 Z" stroke="none" fill="#fff"/>
        </g>
        <g id="Union_16" data-name="Union 16" transform="translate(36.197 0) rotate(90)" fill="#2a2a2a">
          <path d="M 17.99909973144531 38.19710159301758 L 6.000300407409668 38.19710159301758 C 1.588920593261719 38.19710159301758 -1.999999403953552 34.60818099975586 -1.999999403953552 30.19680023193359 L -1.999999403953552 27.7992000579834 L -1.999999403953552 12.83670043945313 C -1.999999403953552 11.72320079803467 -1.587369441986084 10.67039108276367 -0.8381094336509705 9.872200965881348 L 9.084720611572266 -0.7075992226600647 C 9.84514045715332 -1.519059181213379 10.86663055419922 -1.978129148483276 11.96043014526367 -1.999609231948853 L 11.99970054626465 -2.000389099121094 L 12.03897094726563 -1.999609231948853 C 13.13098049163818 -1.978169202804565 14.15191078186035 -1.519689202308655 14.9136905670166 -0.708649218082428 L 24.83808135986328 9.872800827026367 C 25.58677101135254 10.67039108276367 25.9994010925293 11.72320079803467 25.9994010925293 12.83670043945313 L 25.9994010925293 23.77980041503906 L 25.9994010925293 30.19680023193359 C 25.9994010925293 34.60818099975586 22.41048049926758 38.19710159301758 17.99909973144531 38.19710159301758 Z" stroke="none"/>
          <path d="M 17.99909973144531 36.19710159301758 C 21.31290054321289 36.19710159301758 23.9994010925293 33.51060104370117 23.9994010925293 30.19680023193359 L 23.9994010925293 23.77980041503906 L 23.9994010925293 12.83670043945313 C 23.9994010925293 12.2337007522583 23.77890014648438 11.66670036315918 23.37930107116699 11.24100112915039 L 13.45590019226074 0.6606007814407349 C 13.06620025634766 0.245700791478157 12.54960060119629 0.01080079656094313 11.99970054626465 7.965088002492848e-07 C 11.44980049133301 0.01080079656094313 10.93230056762695 0.245700791478157 10.54350090026855 0.6606007814407349 L 0.6201005578041077 11.24100112915039 C 0.2205005437135696 11.66670036315918 5.462646299747576e-07 12.2337007522583 5.462646299747576e-07 12.83670043945313 L 5.462646299747576e-07 27.7992000579834 L 5.462646299747576e-07 30.19680023193359 C 5.462646299747576e-07 33.51060104370117 2.686500549316406 36.19710159301758 6.000300407409668 36.19710159301758 L 17.99909973144531 36.19710159301758 M 17.99909973144531 40.19710159301758 L 6.000300407409668 40.19710159301758 C 0.4861205518245697 40.19710159301758 -3.999999523162842 35.71097946166992 -3.999999523162842 30.19680023193359 L -3.999999523162842 27.7992000579834 L -3.999999523162842 12.83670043945313 C -3.999999523162842 11.21272087097168 -3.394949436187744 9.67378044128418 -2.296319484710693 8.503391265869141 L 7.625940322875977 -2.075789213180542 C 8.75770092010498 -3.283529281616211 10.28352069854736 -3.967069149017334 11.92116069793701 -3.999229192733765 L 11.99970054626465 -4.000769138336182 L 12.07824039459229 -3.999229192733765 C 13.713210105896 -3.967119216918945 15.23791027069092 -3.28477931022644 16.37148094177246 -2.077899217605591 L 26.29685974121094 8.504611015319824 C 27.39435005187988 9.67378044128418 27.9994010925293 11.21272087097168 27.9994010925293 12.83670043945313 L 27.9994010925293 23.77980041503906 L 27.9994010925293 30.19680023193359 C 27.9994010925293 35.71097946166992 23.51328086853027 40.19710159301758 17.99909973144531 40.19710159301758 Z" stroke="none" fill="#fff"/>
        </g>
      </g>
      <path id="Polygon_3" data-name="Polygon 3" d="M14,0,28,14H0Z" transform="translate(55.099 104.197) rotate(180)" fill="#fff"/>
    </g>
    <g id="Union_3" data-name="Union 3" transform="translate(1773.902 0.099) rotate(-90)" fill="#5b5b5b">
      <path d="M -55.99981307983398 -1719.931518554688 L -63.99970245361328 -1727.904296875 L -63.99970245361328 -1739.458862304688 L -63.99970245361328 -1739.999755859375 C -63.99970245361328 -1742.205444335938 -62.20517349243164 -1744 -59.9994010925293 -1744 L -52.00020217895508 -1744 C -49.79442977905273 -1744 -47.99990081787109 -1742.205444335938 -47.99990081787109 -1739.999755859375 L -47.99990081787109 -1736.326782226563 L -47.99990081787109 -1727.9052734375 L -55.99981307983398 -1719.931518554688 Z" stroke="none"/>
      <path d="M -55.9998893737793 -1722.755249023438 L -49.99990081787109 -1728.735595703125 L -49.99990081787109 -1736.326782226563 L -49.99990081787109 -1739.999755859375 C -49.99990081787109 -1741.102661132813 -50.89723205566406 -1742 -52.00020217895508 -1742 L -59.9994010925293 -1742 C -61.10237121582031 -1742 -61.99970245361328 -1741.102661132813 -61.99970245361328 -1739.999755859375 L -61.99970245361328 -1739.458862304688 L -61.99970245361328 -1728.734741210938 L -55.9998893737793 -1722.755249023438 M -55.99980163574219 -1717.803100585938 C -56.45880126953125 -1717.811157226563 -56.88899993896484 -1717.993896484375 -57.2130012512207 -1718.31689453125 L -65.48310089111328 -1726.55908203125 C -65.81610107421875 -1726.891235351563 -65.99970245361328 -1727.333129882813 -65.99970245361328 -1727.802978515625 L -65.99970245361328 -1739.458862304688 L -65.99970245361328 -1739.999755859375 C -65.99970245361328 -1743.313598632813 -63.31320190429688 -1746 -59.9994010925293 -1746 L -52.00020217895508 -1746 C -48.6864013671875 -1746 -45.99990081787109 -1743.313598632813 -45.99990081787109 -1739.999755859375 L -45.99990081787109 -1736.326782226563 L -45.99990081787109 -1727.802978515625 C -45.99990081787109 -1727.333129882813 -46.18350219726563 -1726.891235351563 -46.51740264892578 -1726.55908203125 L -54.78660202026367 -1718.31689453125 C -55.11060333251953 -1717.993896484375 -55.54170227050781 -1717.811157226563 -55.99980163574219 -1717.803100585938 Z" stroke="none" fill="#5b5b5b"/>
    </g>
  </g>
</svg>
