<svg xmlns="http://www.w3.org/2000/svg" xmlns:xlink="http://www.w3.org/1999/xlink" width="120" height="120" viewBox="0 0 120 120">
  <defs>
    <clipPath id="clip-Button_-_PS_Directional_Arrow_Down">
      <rect width="120" height="120"/>
    </clipPath>
  </defs>
  <g id="Button_-_PS_Directional_Arrow_Down" data-name="Button - PS Directional Arrow Down" clip-path="url(#clip-Button_-_PS_Directional_Arrow_Down)">
    <g id="Union_2" data-name="Union 2" transform="translate(24 -1654.803) rotate(180)" fill="#2a2a2a">
      <path d="M -36.00090026855469 -1659.802856445313 L -36.03888702392578 -1659.803588867188 C -37.93188858032227 -1659.839599609375 -39.71126174926758 -1660.591430664063 -41.04923629760742 -1661.920776367188 L -65.85839080810547 -1686.530151367188 C -67.23922729492188 -1687.89990234375 -67.99970245361328 -1689.722900390625 -67.99970245361328 -1691.663452148438 L -67.99970245361328 -1726.466430664063 L -67.99970245361328 -1739.999755859375 C -67.99970245361328 -1744.4111328125 -64.41118621826172 -1748 -60.00030136108398 -1748 L -11.99969959259033 -1748 C -7.588812351226807 -1748 -4.00029993057251 -1744.4111328125 -4.00029993057251 -1739.999755859375 L -4.00029993057251 -1723.11669921875 L -4.00029993057251 -1691.663452148438 C -4.00029993057251 -1689.723510742188 -4.761087417602539 -1687.900390625 -6.142537593841553 -1686.530151367188 L -30.9518871307373 -1661.919677734375 C -32.29169845581055 -1660.590942382813 -34.07125091552734 -1659.839477539063 -35.96291351318359 -1659.803588867188 L -36.00090026855469 -1659.802856445313 Z" stroke="none"/>
      <path d="M -36.00090026855469 -1661.80322265625 C -34.62570190429688 -1661.829345703125 -33.33330154418945 -1662.374755859375 -32.36040115356445 -1663.339599609375 L -7.551000118255615 -1687.950073242188 C -6.55109977722168 -1688.94189453125 -6.00029993057251 -1690.260375976563 -6.00029993057251 -1691.663452148438 L -6.00029993057251 -1723.11669921875 L -6.00029993057251 -1739.999755859375 C -6.00029993057251 -1743.313598632813 -8.68589973449707 -1746 -11.99969959259033 -1746 L -60.00030136108398 -1746 C -63.3140983581543 -1746 -65.99970245361328 -1743.313598632813 -65.99970245361328 -1739.999755859375 L -65.99970245361328 -1726.466430664063 L -65.99970245361328 -1691.663452148438 C -65.99970245361328 -1690.260375976563 -65.44979858398438 -1688.94189453125 -64.44989776611328 -1687.950073242188 L -39.63959884643555 -1663.339599609375 C -38.66849899291992 -1662.374755859375 -37.3760986328125 -1661.829345703125 -36.00090026855469 -1661.80322265625 M -36.00090026855469 -1657.802490234375 L -36.07684326171875 -1657.803955078125 C -38.48724365234375 -1657.849731445313 -40.75375747680664 -1658.807983398438 -42.45886993408203 -1660.502075195313 L -67.26686859130859 -1685.110229492188 C -69.02915954589844 -1686.858276367188 -69.99970245361328 -1689.185668945313 -69.99970245361328 -1691.663452148438 L -69.99970245361328 -1726.466430664063 L -69.99970245361328 -1739.999755859375 C -69.99970245361328 -1745.513916015625 -65.51398468017578 -1750 -60.00030136108398 -1750 L -11.99969959259033 -1750 C -6.486014366149902 -1750 -2.00029993057251 -1745.513916015625 -2.00029993057251 -1739.999755859375 L -2.00029993057251 -1723.11669921875 L -2.00029993057251 -1691.663452148438 C -2.00029993057251 -1689.186157226563 -2.971171379089355 -1686.85888671875 -4.734056949615479 -1685.110229492188 L -29.54338645935059 -1660.499755859375 C -31.2503719329834 -1658.807006835938 -33.51658630371094 -1657.849731445313 -35.92495727539063 -1657.803955078125 L -36.00090026855469 -1657.802490234375 Z" stroke="none" fill="#fff"/>
    </g>
    <g id="Union_3" data-name="Union 3" transform="translate(20 -1662.803) rotate(180)" fill="#404040">
      <path d="M -40.00050354003906 -1672.803955078125 C -40.40482330322266 -1672.824340820313 -40.76698303222656 -1672.981689453125 -41.05094146728516 -1673.261108398438 L -62.55365371704102 -1694.402099609375 C -62.84537887573242 -1694.68896484375 -62.99970245361328 -1695.05224609375 -62.99970245361328 -1695.452392578125 L -62.99970245361328 -1725.347778320313 C -62.99970245361328 -1725.372802734375 -62.99898910522461 -1725.39892578125 -62.99758911132813 -1725.425537109375 L -62.98980331420898 -1725.57275390625 L -62.99650192260742 -1725.72021484375 C -62.99862670898438 -1725.766845703125 -62.99970245361328 -1725.814208984375 -62.99970245361328 -1725.860717773438 L -62.99970245361328 -1739.999755859375 C -62.99970245361328 -1741.654052734375 -61.65417861938477 -1743 -60.00030517578125 -1743 L -19.99980354309082 -1743 C -18.34592819213867 -1743 -17.00040435791016 -1741.654052734375 -17.00040435791016 -1739.999755859375 L -17.00040435791016 -1725.860717773438 C -17.00040435791016 -1725.813842773438 -17.00149154663086 -1725.766235351563 -17.00362777709961 -1725.71923828125 L -17.01035308837891 -1725.571411132813 L -17.00249099731445 -1725.423583984375 C -17.0011043548584 -1725.3974609375 -17.00040435791016 -1725.371948242188 -17.00040435791016 -1725.347778320313 L -17.00040435791016 -1695.452392578125 C -17.00040435791016 -1695.052490234375 -17.15466499328613 -1694.689575195313 -17.44649124145508 -1694.402954101563 L -38.94925308227539 -1673.261962890625 C -39.23398971557617 -1672.981811523438 -39.5961799621582 -1672.824340820313 -40.00050354003906 -1672.803955078125 Z" stroke="none"/>
      <path d="M -40.00050735473633 -1676.435424804688 L -20.00040435791016 -1696.098999023438 L -20.00040435791016 -1725.860717773438 L -19.99980354309082 -1740 L -59.99970245361328 -1739.999755859375 L -59.99970245361328 -1725.347778320313 L -59.99970245361328 -1696.09814453125 L -40.00050735473633 -1676.435424804688 M -40.00050354003906 -1669.802490234375 C -41.19210433959961 -1669.824951171875 -42.31260299682617 -1670.293823242188 -43.15500259399414 -1671.122680664063 L -64.65690612792969 -1692.262817382813 C -65.522705078125 -1693.1142578125 -65.99970245361328 -1694.247314453125 -65.99970245361328 -1695.452392578125 L -65.99970245361328 -1725.347778320313 C -65.99970245361328 -1725.426025390625 -65.99758911132813 -1725.5048828125 -65.99340057373047 -1725.583862304688 C -65.99757385253906 -1725.675659179688 -65.99970245361328 -1725.767944335938 -65.99970245361328 -1725.860717773438 L -65.99970245361328 -1739.999755859375 C -65.99970245361328 -1743.313598632813 -63.31320190429688 -1746 -60.00030517578125 -1746 L -19.99980354309082 -1746 C -16.68600273132324 -1746 -14.00040340423584 -1743.313598632813 -14.00040340423584 -1739.999755859375 L -14.00040340423584 -1725.860717773438 C -14.00040340423584 -1725.767700195313 -14.00253677368164 -1725.674926757813 -14.00672054290771 -1725.582885742188 C -14.00251960754395 -1725.50390625 -14.00040340423584 -1725.425170898438 -14.00040340423584 -1725.347778320313 L -14.00040340423584 -1695.452392578125 C -14.00040340423584 -1694.247314453125 -14.47740364074707 -1693.1142578125 -15.34410381317139 -1692.262817382813 L -36.84600448608398 -1671.122680664063 C -37.68840408325195 -1670.293823242188 -38.80890274047852 -1669.824951171875 -40.00050354003906 -1669.802490234375 Z" stroke="none" fill="#5b5b5b"/>
    </g>
    <path id="Polygon_3" data-name="Polygon 3" d="M19,0,38,18H0Z" transform="translate(79 117.197) rotate(180)" fill="#fff"/>
  </g>
</svg>
