<svg xmlns="http://www.w3.org/2000/svg" xmlns:xlink="http://www.w3.org/1999/xlink" width="120" height="120" viewBox="0 0 120 120">
  <defs>
    <clipPath id="clip-Button_-_PS_Share">
      <rect width="120" height="120"/>
    </clipPath>
  </defs>
  <g id="Button_-_PS_Share" data-name="Button - PS Share" clip-path="url(#clip-Button_-_PS_Share)">
    <path id="Path_86" data-name="Path 86" d="M-21.475-3.877A3.593,3.593,0,0,1-22.852-.889,5.993,5.993,0,0,1-26.65.2a9.064,9.064,0,0,1-3.965-.752V-2.764a10.776,10.776,0,0,0,2.075.723,8.8,8.8,0,0,0,2.046.264A3.255,3.255,0,0,0-24.448-2.3a1.72,1.72,0,0,0,.659-1.416,1.775,1.775,0,0,0-.605-1.357,9.115,9.115,0,0,0-2.5-1.318A6.614,6.614,0,0,1-29.648-8.2a3.823,3.823,0,0,1-.8-2.441,3.419,3.419,0,0,1,1.27-2.812,5.266,5.266,0,0,1,3.408-1.025,10.014,10.014,0,0,1,4.082.9l-.742,1.9a8.918,8.918,0,0,0-3.4-.8,2.608,2.608,0,0,0-1.719.493,1.62,1.62,0,0,0-.586,1.3,1.835,1.835,0,0,0,.234.952,2.394,2.394,0,0,0,.771.747,13.05,13.05,0,0,0,1.934.928,10.58,10.58,0,0,1,2.3,1.221,3.59,3.59,0,0,1,1.074,1.279A3.848,3.848,0,0,1-21.475-3.877ZM-7.451,0H-9.795V-6.436h-6.582V0h-2.334V-14.277h2.334v5.84h6.582v-5.84h2.344ZM5.166,0,3.74-3.965H-1.719L-3.115,0H-5.576L-.234-14.336H2.3L7.646,0ZM3.125-5.977,1.787-9.863q-.146-.391-.405-1.23t-.356-1.23A21.886,21.886,0,0,1,.254-9.7L-1.035-5.977Zm8.74-1.66h1.621a3.7,3.7,0,0,0,2.363-.605,2.2,2.2,0,0,0,.732-1.8,1.934,1.934,0,0,0-.791-1.738,4.337,4.337,0,0,0-2.383-.527H11.865Zm0,1.934V0H9.531V-14.277h4.033a6.627,6.627,0,0,1,4.092,1.035,3.717,3.717,0,0,1,1.328,3.125,3.906,3.906,0,0,1-2.773,3.8L20.244,0H17.588L14.17-5.7ZM30.391,0H22.314V-14.277h8.076V-12.3H24.648v3.887h5.381v1.953H24.648v4.482h5.742Z" transform="translate(60 27)" fill="#fff"/>
    <g id="Rectangle_57" data-name="Rectangle 57" transform="translate(45 36)" fill="#2a2a2a" stroke="#fff" stroke-width="4">
      <rect width="30" height="68" rx="15" stroke="none"/>
      <rect x="-2" y="-2" width="34" height="72" rx="17" fill="none"/>
    </g>
    <g id="Rectangle_58" data-name="Rectangle 58" transform="translate(49 40)" fill="#404040" stroke="#5b5b5b" stroke-width="4">
      <rect width="22" height="51" rx="11" stroke="none"/>
      <rect x="-2" y="-2" width="26" height="55" rx="13" fill="none"/>
    </g>
    <rect id="Rectangle_59" data-name="Rectangle 59" width="22" height="58" rx="11" transform="translate(49 42)" fill="#404040"/>
  </g>
</svg>
