# Blender v3.4.1 OBJ File: 'SpaceBits_export.blend'
# www.blender.org
mtllib basemodule_garage_door.mtl
o basemodule_garage_door_Cylinder.2719
v -0.350000 0.350000 0.850000
v -0.350000 0.450000 0.850000
v -0.350000 0.550000 0.850000
v -0.350000 0.650000 0.850000
v 0.350000 0.150000 0.950000
v 0.350000 0.850000 0.950000
v -0.350000 0.150000 0.950000
v -0.350000 0.850000 0.950000
v -0.350000 0.750000 0.850000
v 0.350000 0.350000 0.850000
v 0.350000 0.450000 0.850000
v 0.350000 0.550000 0.850000
v 0.350000 0.650000 0.850000
v 0.350000 0.750000 0.850000
v -0.350000 0.250000 0.850000
v 0.350000 0.250000 0.850000
v 0.350000 0.850000 0.850000
v -0.350000 0.850000 0.850000
v -0.350000 0.150000 0.850000
v 0.350000 0.150000 0.850000
v 0.350000 0.750000 0.950000
v 0.350000 0.650000 0.950000
v 0.350000 0.550000 0.950000
v 0.350000 0.450000 0.950000
v 0.350000 0.350000 0.950000
v 0.350000 0.250000 0.950000
v -0.350000 0.750000 0.950000
v -0.350000 0.650000 0.950000
v -0.350000 0.550000 0.950000
v -0.350000 0.450000 0.950000
v -0.350000 0.350000 0.950000
v -0.350000 0.250000 0.950000
vt 0.330249 0.822436
vt 0.330249 0.822436
vt 0.277003 0.822436
vt 0.277003 0.822436
vt 0.330249 0.812461
vt 0.330249 0.886341
vt 0.277003 0.886341
vt 0.277003 0.812461
vt 0.330249 0.806498
vt 0.330249 0.806498
vt 0.330249 0.816475
vt 0.330249 0.816475
vt 0.277003 0.814486
vt 0.277003 0.814486
vt 0.277003 0.804511
vt 0.277003 0.804511
vt 0.277003 0.800536
vt 0.277003 0.800536
vt 0.330249 0.800536
vt 0.330249 0.800536
vt 0.330249 0.808486
vt 0.330249 0.808486
vt 0.330249 0.818462
vt 0.330249 0.818462
vt 0.277003 0.816475
vt 0.277003 0.816475
vt 0.277003 0.806498
vt 0.277003 0.806498
vt 0.330249 0.810474
vt 0.330249 0.810474
vt 0.330249 0.820449
vt 0.330249 0.820449
vt 0.277003 0.818462
vt 0.277003 0.818462
vt 0.277003 0.808486
vt 0.277003 0.808486
vt 0.330249 0.812461
vt 0.277003 0.820449
vt 0.277003 0.820449
vt 0.277003 0.810474
vt 0.277003 0.810474
vt 0.277003 0.812461
vt 0.277003 0.810512
vt 0.277003 0.810512
vt 0.330249 0.802524
vt 0.330249 0.802524
vt 0.330249 0.812499
vt 0.330249 0.812499
vt 0.330249 0.810512
vt 0.330249 0.810512
vt 0.330249 0.804511
vt 0.330249 0.804511
vt 0.330249 0.814486
vt 0.330249 0.814486
vt 0.277003 0.812499
vt 0.277003 0.812499
vt 0.277003 0.802524
vt 0.277003 0.802524
vt 0.277003 0.884354
vt 0.330249 0.884354
vt 0.330249 0.874417
vt 0.277003 0.874417
vt 0.330249 0.876404
vt 0.277003 0.876404
vt 0.330249 0.878391
vt 0.277003 0.878391
vt 0.330249 0.880380
vt 0.277003 0.880380
vt 0.330249 0.882367
vt 0.277003 0.882367
vt 0.330249 0.884354
vt 0.277003 0.884354
vt 0.277003 0.882367
vt 0.330249 0.882367
vt 0.277003 0.880380
vt 0.330249 0.880380
vt 0.277003 0.878391
vt 0.330249 0.878391
vt 0.277003 0.876404
vt 0.330249 0.876404
vt 0.277003 0.874417
vt 0.330249 0.874417
vt 0.277003 0.886341
vt 0.330249 0.886341
vn 0.0000 1.0000 0.0000
vn -0.0000 0.0000 1.0000
vn 1.0000 0.0000 0.0000
vn -1.0000 0.0000 -0.0000
vn 0.0000 -1.0000 -0.0000
vn 0.0000 0.0000 -1.0000
usemtl spacebits_texture
s 1
f 6/1/1 17/2/1 18/3/1 8/4/1
f 21/5/2 6/6/2 8/7/2 27/8/2
f 24/9/3 11/10/3 12/11/3 23/12/3
f 30/13/4 2/14/4 1/15/4 31/16/4
f 7/17/5 19/18/5 20/19/5 5/20/5
f 23/21/3 12/22/3 13/23/3 22/24/3
f 29/25/4 3/26/4 2/27/4 30/28/4
f 22/29/3 13/30/3 14/31/3 21/32/3
f 28/33/4 4/34/4 3/35/4 29/36/4
f 21/5/3 14/37/3 17/2/3 6/1/3
f 27/38/4 9/39/4 4/40/4 28/41/4
f 8/4/4 18/3/4 9/42/4 27/8/4
f 32/43/4 15/44/4 19/18/4 7/17/4
f 26/45/3 16/46/3 10/47/3 25/48/3
f 5/20/3 20/19/3 16/49/3 26/50/3
f 25/51/3 10/52/3 11/53/3 24/54/3
f 31/55/4 1/56/4 15/57/4 32/58/4
f 13/30/6 4/40/6 9/59/6 14/60/6
f 5/20/2 26/61/2 32/62/2 7/17/2
f 26/45/2 25/63/2 31/64/2 32/58/2
f 25/51/2 24/65/2 30/66/2 31/16/2
f 24/9/2 23/67/2 29/68/2 30/28/2
f 23/21/2 22/69/2 28/70/2 29/36/2
f 22/29/2 21/71/2 27/72/2 28/41/2
f 12/22/6 3/35/6 4/73/6 13/74/6
f 11/10/6 2/27/6 3/75/6 12/76/6
f 10/52/6 1/15/6 2/77/6 11/78/6
f 16/46/6 15/57/6 1/79/6 10/80/6
f 20/19/6 19/18/6 15/81/6 16/82/6
f 14/37/6 9/42/6 18/83/6 17/84/6
