# Blender v3.4.1 OBJ File: 'SpaceBits_export.blend'
# www.blender.org
mtllib containers_B.mtl
o containers_B_Cylinder.2724
v 0.125001 -0.001985 -0.125000
v 0.176777 0.027427 -0.250000
v 0.176777 0.168603 -0.250000
v 0.250000 0.027427 -0.176777
v 0.250000 0.168603 -0.176777
v 0.250000 0.027427 -0.073224
v 0.250000 0.168603 -0.073224
v 0.073225 0.027427 -0.250000
v 0.073225 0.168603 -0.250000
v 0.162767 0.198015 -0.216175
v 0.216176 0.198015 -0.162766
v 0.216176 0.198015 -0.087234
v 0.162767 0.198015 -0.033825
v 0.087236 0.198015 -0.033825
v 0.033827 0.198015 -0.087234
v 0.033827 0.198015 -0.162766
v 0.087236 0.198015 -0.216175
v 0.216176 -0.001985 -0.162766
v 0.162767 -0.001985 -0.216175
v 0.216176 -0.001985 -0.087234
v 0.162767 -0.001985 -0.033825
v 0.087236 -0.001985 -0.033825
v 0.033827 -0.001985 -0.087234
v 0.033827 -0.001985 -0.162766
v 0.087236 -0.001985 -0.216175
v 0.125001 -0.001985 0.125000
v 0.176777 0.027427 0.000000
v 0.176777 0.168603 0.000000
v 0.250000 0.027427 0.073224
v 0.250000 0.168603 0.073224
v 0.250000 0.027427 0.176777
v 0.250000 0.168603 0.176777
v 0.176777 0.027427 0.250000
v 0.176777 0.168603 0.250000
v 0.073225 0.027427 0.250000
v 0.073225 0.168603 0.250000
v 0.073225 0.027427 0.000000
v 0.073225 0.168603 0.000000
v 0.162767 0.198015 0.033825
v 0.216176 0.198015 0.087234
v 0.216176 0.198015 0.162766
v 0.162767 0.198015 0.216175
v 0.087236 0.198015 0.216175
v 0.033827 0.198015 0.162766
v 0.033827 0.198015 0.087234
v 0.087236 0.198015 0.033825
v 0.216176 -0.001985 0.087234
v 0.162767 -0.001985 0.033825
v 0.216176 -0.001985 0.162766
v 0.162767 -0.001985 0.216175
v 0.087236 -0.001985 0.216175
v 0.033827 -0.001985 0.162766
v 0.033827 -0.001985 0.087234
v 0.087236 -0.001985 0.033825
v -0.125001 -0.001985 -0.125000
v -0.176778 0.027427 -0.250000
v -0.176778 0.168603 -0.250000
v -0.250000 0.027427 -0.176777
v -0.250000 0.168603 -0.176777
v -0.250000 0.027427 -0.073224
v -0.250000 0.168603 -0.073224
v -0.000003 0.027427 -0.073224
v -0.000003 0.168603 -0.073224
v -0.000003 0.027427 -0.176777
v -0.000003 0.168603 -0.176777
v -0.073225 0.027427 -0.250000
v -0.073225 0.168603 -0.250000
v -0.162767 0.198015 -0.216175
v -0.216176 0.198015 -0.162766
v -0.216176 0.198015 -0.087234
v -0.162767 0.198015 -0.033825
v -0.087236 0.198015 -0.033825
v -0.033827 0.198015 -0.087234
v -0.033827 0.198015 -0.162766
v -0.087236 0.198015 -0.216175
v -0.216176 -0.001985 -0.162766
v -0.162767 -0.001985 -0.216175
v -0.216176 -0.001985 -0.087234
v -0.162767 -0.001985 -0.033825
v -0.087236 -0.001985 -0.033825
v -0.033827 -0.001985 -0.087234
v -0.033827 -0.001985 -0.162766
v -0.087236 -0.001985 -0.216175
v -0.125001 -0.001985 0.125000
v -0.176778 0.027427 0.000000
v -0.176778 0.168603 0.000000
v -0.250000 0.027427 0.073224
v -0.250000 0.168603 0.073224
v -0.250000 0.027427 0.176777
v -0.250000 0.168603 0.176777
v -0.176778 0.027427 0.250000
v -0.176778 0.168603 0.250000
v -0.073225 0.027427 0.250000
v -0.073225 0.168603 0.250000
v -0.000003 0.027427 0.176777
v -0.000003 0.168603 0.176777
v -0.000003 0.027427 0.073224
v -0.000003 0.168603 0.073224
v -0.073225 0.027427 0.000000
v -0.073225 0.168603 0.000000
v -0.162767 0.198015 0.033825
v -0.216176 0.198015 0.087234
v -0.216176 0.198015 0.162766
v -0.162767 0.198015 0.216175
v -0.087236 0.198015 0.216175
v -0.033827 0.198015 0.162766
v -0.033827 0.198015 0.087234
v -0.087236 0.198015 0.033825
v -0.216176 -0.001985 0.087234
v -0.162767 -0.001985 0.033825
v -0.216176 -0.001985 0.162766
v -0.162767 -0.001985 0.216175
v -0.087236 -0.001985 0.216175
v -0.033827 -0.001985 0.162766
v -0.033827 -0.001985 0.087234
v -0.087236 -0.001985 0.033825
v 0.176777 0.098015 0.250000
v 0.073225 0.098015 0.250000
v -0.176778 0.098015 -0.250000
v -0.073225 0.098015 -0.250000
v 0.125001 0.198015 -0.166778
v 0.083224 0.198015 -0.125000
v 0.125001 0.174517 -0.125000
v 0.125001 0.198015 -0.083223
v 0.125001 0.174517 0.125000
v 0.166779 0.198015 -0.125000
v -0.125001 0.174517 0.125000
v 0.125001 0.198015 0.083223
v 0.083224 0.198015 0.125000
v -0.125001 0.174517 -0.125000
v 0.125001 0.198015 0.166778
v 0.166779 0.198015 0.125000
v -0.125001 0.198015 -0.166778
v -0.166779 0.198015 -0.125000
v -0.125001 0.198015 -0.083223
v -0.083224 0.198015 -0.125000
v -0.125001 0.198015 0.083223
v -0.166779 0.198015 0.125000
v -0.125001 0.198015 0.166778
v -0.083224 0.198015 0.125000
vt 0.432001 0.583210
vt 0.441814 0.611075
vt 0.441814 0.664024
vt 0.432001 0.636159
vt 0.418125 0.611075
vt 0.418125 0.664024
vt 0.432001 0.664024
vt 0.432001 0.611075
vt 0.408311 0.611075
vt 0.418125 0.611075
vt 0.418125 0.664024
vt 0.408311 0.664024
vt 0.441814 0.611075
vt 0.441814 0.664024
vt 0.432001 0.636159
vt 0.432001 0.583210
vt 0.441814 0.611075
vt 0.441814 0.664024
vt 0.432001 0.574998
vt 0.441814 0.574998
vt 0.437281 0.565646
vt 0.430124 0.565646
vt 0.441814 0.684476
vt 0.432001 0.684476
vt 0.430124 0.693828
vt 0.437281 0.693828
vt 0.441814 0.574998
vt 0.437281 0.565646
vt 0.441814 0.684476
vt 0.437281 0.693828
vt 0.432001 0.574998
vt 0.430124 0.565646
vt 0.432001 0.684476
vt 0.430124 0.693828
vt 0.418125 0.574998
vt 0.420002 0.565646
vt 0.418125 0.656611
vt 0.432001 0.656611
vt 0.420002 0.693828
vt 0.408311 0.574998
vt 0.412844 0.565646
vt 0.408311 0.684476
vt 0.418125 0.684476
vt 0.412844 0.693828
vt 0.408311 0.574998
vt 0.412844 0.565646
vt 0.408311 0.684476
vt 0.412844 0.693828
vt 0.418125 0.574998
vt 0.420002 0.565646
vt 0.418125 0.684476
vt 0.420002 0.693828
vt 0.315056 0.911094
vt 0.323345 0.911094
vt 0.323345 0.911094
vt 0.315056 0.903281
vt 0.310950 0.903281
vt 0.314384 0.903281
vt 0.323345 0.903281
vt 0.305143 0.903281
vt 0.301710 0.903281
vt 0.305143 0.911094
vt 0.301036 0.911094
vt 0.292747 0.911094
vt 0.301710 0.911094
vt 0.292747 0.911094
vt 0.301036 0.903281
vt 0.305143 0.903281
vt 0.301710 0.903281
vt 0.292747 0.903281
vt 0.310950 0.903281
vt 0.314384 0.903281
vt 0.301710 0.903281
vt 0.310950 0.911094
vt 0.314384 0.911094
vt 0.425063 0.545194
vt 0.430124 0.545194
vt 0.437281 0.545194
vt 0.437281 0.545194
vt 0.430124 0.545194
vt 0.420002 0.545194
vt 0.412844 0.545194
vt 0.412844 0.545194
vt 0.420002 0.545194
vt 0.441814 0.611075
vt 0.441814 0.664024
vt 0.432001 0.664024
vt 0.432001 0.637549
vt 0.408311 0.611075
vt 0.408311 0.664024
vt 0.418125 0.611075
vt 0.418125 0.664024
vt 0.408311 0.664024
vt 0.408311 0.611075
vt 0.432001 0.611075
vt 0.441814 0.611075
vt 0.441814 0.664024
vt 0.441814 0.574998
vt 0.437281 0.565646
vt 0.430124 0.565646
vt 0.441814 0.684476
vt 0.430124 0.693828
vt 0.437281 0.693828
vt 0.441814 0.574998
vt 0.437281 0.565646
vt 0.441814 0.684476
vt 0.437281 0.693828
vt 0.432001 0.574998
vt 0.430124 0.565646
vt 0.432001 0.684476
vt 0.430124 0.693828
vt 0.418125 0.574998
vt 0.420002 0.565646
vt 0.418125 0.684476
vt 0.420002 0.693828
vt 0.408311 0.574998
vt 0.412844 0.565646
vt 0.408311 0.684476
vt 0.412844 0.693828
vt 0.408311 0.574998
vt 0.412844 0.565646
vt 0.408311 0.656611
vt 0.408311 0.656611
vt 0.412844 0.693828
vt 0.420002 0.565646
vt 0.408311 0.684476
vt 0.420002 0.693828
vt 0.315056 0.911094
vt 0.323345 0.911094
vt 0.323345 0.911094
vt 0.315056 0.903281
vt 0.310950 0.903281
vt 0.314384 0.903281
vt 0.323345 0.903281
vt 0.305143 0.903281
vt 0.301710 0.903281
vt 0.305143 0.911094
vt 0.301036 0.911094
vt 0.292747 0.911094
vt 0.301710 0.911094
vt 0.292747 0.911094
vt 0.301036 0.903281
vt 0.305143 0.903281
vt 0.292747 0.903281
vt 0.305143 0.903281
vt 0.301710 0.903281
vt 0.314384 0.903281
vt 0.310950 0.911094
vt 0.314384 0.911094
vt 0.425063 0.545194
vt 0.430124 0.545194
vt 0.437281 0.545194
vt 0.437281 0.545194
vt 0.430124 0.545194
vt 0.420002 0.545194
vt 0.412844 0.545194
vt 0.412844 0.545194
vt 0.420002 0.545194
vt 0.418125 0.637549
vt 0.418125 0.664024
vt 0.408311 0.636159
vt 0.408311 0.583210
vt 0.441814 0.611075
vt 0.432001 0.611075
vt 0.432001 0.664024
vt 0.441814 0.664024
vt 0.408311 0.583210
vt 0.418125 0.611075
vt 0.418125 0.637549
vt 0.441814 0.611075
vt 0.441814 0.664024
vt 0.432001 0.574998
vt 0.430124 0.565646
vt 0.437281 0.565646
vt 0.441814 0.574998
vt 0.441814 0.684476
vt 0.437281 0.693828
vt 0.430124 0.693828
vt 0.432001 0.684476
vt 0.437281 0.565646
vt 0.441814 0.574998
vt 0.441814 0.684476
vt 0.437281 0.693828
vt 0.430124 0.565646
vt 0.432001 0.574998
vt 0.432001 0.684476
vt 0.430124 0.693828
vt 0.420002 0.565646
vt 0.418125 0.574998
vt 0.418125 0.684476
vt 0.420002 0.693828
vt 0.412844 0.565646
vt 0.412844 0.693828
vt 0.412844 0.565646
vt 0.408311 0.656611
vt 0.412844 0.693828
vt 0.408311 0.656611
vt 0.420002 0.565646
vt 0.418125 0.574998
vt 0.418125 0.684476
vt 0.420002 0.693828
vt 0.315056 0.911094
vt 0.323345 0.911094
vt 0.323345 0.911094
vt 0.310950 0.911094
vt 0.323345 0.926719
vt 0.314384 0.926719
vt 0.310950 0.903281
vt 0.314384 0.903281
vt 0.301710 0.903281
vt 0.301036 0.903281
vt 0.305143 0.903281
vt 0.301710 0.918906
vt 0.292747 0.918906
vt 0.301036 0.911094
vt 0.292747 0.911094
vt 0.292747 0.911094
vt 0.305143 0.911094
vt 0.292747 0.926719
vt 0.301710 0.926719
vt 0.305143 0.903281
vt 0.301710 0.903281
vt 0.314384 0.903281
vt 0.315056 0.903281
vt 0.310950 0.903281
vt 0.314384 0.918906
vt 0.323345 0.918906
vt 0.425063 0.545194
vt 0.437281 0.545194
vt 0.430124 0.545194
vt 0.437281 0.545194
vt 0.430124 0.545194
vt 0.420002 0.545194
vt 0.412844 0.545194
vt 0.412844 0.545194
vt 0.420002 0.545194
vt 0.432001 0.664024
vt 0.432001 0.637549
vt 0.441814 0.611075
vt 0.432001 0.611075
vt 0.432001 0.664024
vt 0.441814 0.664024
vt 0.418125 0.611075
vt 0.418125 0.664024
vt 0.408311 0.611075
vt 0.408311 0.664024
vt 0.430124 0.565646
vt 0.437281 0.565646
vt 0.441814 0.574998
vt 0.441814 0.684476
vt 0.437281 0.693828
vt 0.430124 0.693828
vt 0.437281 0.565646
vt 0.441814 0.574998
vt 0.441814 0.684476
vt 0.437281 0.693828
vt 0.430124 0.565646
vt 0.432001 0.574998
vt 0.432001 0.684476
vt 0.430124 0.693828
vt 0.420002 0.565646
vt 0.418125 0.574998
vt 0.418125 0.684476
vt 0.420002 0.693828
vt 0.412844 0.565646
vt 0.412844 0.693828
vt 0.412844 0.565646
vt 0.412844 0.693828
vt 0.420002 0.565646
vt 0.420002 0.693828
vt 0.432001 0.656611
vt 0.418125 0.656611
vt 0.315056 0.911094
vt 0.323345 0.911094
vt 0.323345 0.911094
vt 0.310950 0.911094
vt 0.314384 0.911094
vt 0.310950 0.903281
vt 0.314384 0.903281
vt 0.301710 0.903281
vt 0.301036 0.903281
vt 0.305143 0.903281
vt 0.292747 0.903281
vt 0.301036 0.911094
vt 0.292747 0.911094
vt 0.292747 0.911094
vt 0.305143 0.911094
vt 0.301710 0.911094
vt 0.315056 0.903281
vt 0.310950 0.903281
vt 0.323345 0.903281
vt 0.425063 0.545194
vt 0.437281 0.545194
vt 0.430124 0.545194
vt 0.437281 0.545194
vt 0.430124 0.545194
vt 0.420002 0.545194
vt 0.412844 0.545194
vt 0.412844 0.545194
vt 0.420002 0.545194
vt 0.432001 0.611075
vt 0.432001 0.664024
vt 0.301109 0.943316
vt 0.301109 0.958161
vt 0.283734 0.958161
vt 0.283734 0.943316
vt 0.301109 0.943316
vt 0.301109 0.958161
vt 0.283734 0.958161
vt 0.283734 0.943316
vt 0.408311 0.636159
vt 0.418125 0.664024
vt 0.432001 0.611075
vt 0.418125 0.611075
vt 0.310950 0.887656
vt 0.315056 0.887656
vt 0.310950 0.856406
vt 0.305143 0.887656
vt 0.301036 0.887656
vt 0.305143 0.887656
vt 0.301036 0.887656
vt 0.305143 0.887656
vt 0.301036 0.856406
vt 0.305143 0.887656
vt 0.301036 0.887656
vt 0.305143 0.887656
vt 0.310950 0.903281
vt 0.314384 0.903281
vt 0.315056 0.887656
vt 0.310950 0.887656
vt 0.315056 0.887656
vt 0.310950 0.887656
vt 0.315056 0.887656
vt 0.310950 0.887656
vt 0.310950 0.887656
vt 0.310950 0.887656
vt 0.310950 0.887656
vt 0.315056 0.856406
vt 0.310950 0.887656
vt 0.315056 0.887656
vt 0.305143 0.887656
vt 0.301036 0.887656
vt 0.310950 0.887656
vt 0.315056 0.887656
vt 0.310950 0.856406
vt 0.305143 0.887656
vt 0.305143 0.856406
vt 0.305143 0.887656
vt 0.301036 0.887656
vt 0.305143 0.887656
vt 0.301036 0.887656
vt 0.305143 0.856406
vt 0.310950 0.887656
vt 0.315056 0.856406
vt 0.305143 0.887656
vt 0.301036 0.856406
vn -0.7071 0.0000 -0.7071
vn -0.9239 0.0000 -0.3827
vn -0.3827 0.0000 -0.9239
vn 0.0000 0.0000 -1.0000
vn 0.7071 0.0000 -0.7071
vn 0.9239 0.0000 0.3827
vn 0.7071 0.0000 0.7071
vn 0.9239 0.0000 -0.3827
vn 0.2397 -0.7796 -0.5786
vn 0.5786 -0.7796 -0.2397
vn 0.3708 -0.9159 -0.1536
vn 0.1536 -0.9159 -0.3708
vn 0.5786 0.7796 -0.2397
vn 0.2397 0.7796 -0.5786
vn 0.1536 0.9159 -0.3708
vn 0.3708 0.9159 -0.1536
vn 0.5786 -0.7796 0.2397
vn 0.3708 -0.9159 0.1536
vn 0.5786 0.7796 0.2397
vn 0.3708 0.9159 0.1536
vn 0.2397 -0.7796 0.5786
vn 0.1536 -0.9159 0.3708
vn 0.2397 0.7796 0.5786
vn 0.1536 0.9159 0.3708
vn -0.2397 -0.7796 0.5786
vn -0.1536 -0.9159 0.3708
vn -0.2397 0.7796 0.5786
vn -0.1536 0.9159 0.3708
vn -0.5786 -0.7796 0.2397
vn -0.3708 -0.9159 0.1536
vn -0.5786 0.7796 0.2397
vn -0.3708 0.9159 0.1536
vn -0.5786 -0.7796 -0.2397
vn -0.3708 -0.9159 -0.1536
vn -0.5786 0.7796 -0.2397
vn -0.3708 0.9159 -0.1536
vn -0.2397 -0.7796 -0.5786
vn -0.1536 -0.9159 -0.3708
vn -0.2397 0.7796 -0.5786
vn -0.1536 0.9159 -0.3708
vn -0.1291 0.9916 -0.0000
vn 0.0000 0.9916 -0.1291
vn 0.1291 0.9916 0.0000
vn -0.0000 0.9916 0.1291
vn -0.0000 -1.0000 0.0000
vn -0.7071 0.0000 0.7071
vn -0.3827 0.0000 0.9239
vn -0.9239 0.0000 0.3827
vn 0.0000 0.0000 1.0000
vn -0.4402 0.7826 -0.4402
vn 0.4402 0.7826 0.4402
vn -0.4402 0.7826 0.4402
vn 0.4402 0.7826 -0.4402
usemtl spacebits_texture
s 1
f 85/1/1 87/2/2 88/3/2 86/4/1
f 8/5/3 9/6/3 3/7/4 2/8/4
f 97/9/5 99/10/5 100/11/5 98/12/5
f 6/13/6 7/14/6 28/15/7 27/16/7
f 4/17/8 5/18/8 7/14/6 6/13/6
f 2/19/9 4/20/10 18/21/11 19/22/12
f 5/23/13 3/24/14 10/25/15 11/26/16
f 4/20/10 6/27/17 20/28/18 18/21/11
f 7/29/19 5/23/13 11/26/16 12/30/20
f 6/27/17 27/31/21 21/32/22 20/28/18
f 28/33/23 7/29/19 12/30/20 13/34/24
f 27/31/21 37/35/25 22/36/26 21/32/22
f 38/37/27 28/38/23 13/34/24 14/39/28
f 37/35/25 62/40/29 23/41/30 22/36/26
f 63/42/31 38/43/27 14/39/28 15/44/32
f 62/40/29 64/45/33 24/46/34 23/41/30
f 65/47/35 63/42/31 15/44/32 16/48/36
f 64/45/33 8/49/37 25/50/38 24/46/34
f 9/51/39 65/47/35 16/48/36 17/52/40
f 8/49/37 2/19/9 19/22/12 25/50/38
f 3/24/14 9/51/39 17/52/40 10/25/15
f 126/53/41 12/54/20 11/55/16
f 126/56/41 124/57/42 13/58/24 12/59/20
f 124/60/42 14/61/28 13/58/24
f 124/62/42 122/63/43 15/64/32 14/65/28
f 122/63/43 16/66/36 15/64/32
f 122/67/43 121/68/44 17/69/40 16/70/36
f 128/71/44 39/72/15 46/73/40
f 121/74/44 126/53/41 11/55/16 10/75/15
f 1/76/45 19/77/12 18/78/11
f 1/76/45 18/78/11 20/79/18
f 1/76/45 20/79/18 21/80/22
f 1/76/45 21/80/22 22/81/26
f 1/76/45 22/81/26 23/82/30
f 1/76/45 23/82/30 24/83/34
f 1/76/45 24/83/34 25/84/38
f 1/76/45 25/84/38 19/77/12
f 2/8/5 3/7/5 5/18/8 4/17/8
f 31/85/6 32/86/6 34/87/7 117/88/7
f 64/89/1 65/90/1 9/6/3 8/5/3
f 37/91/46 38/92/46 63/93/46 62/94/46
f 33/95/7 31/85/6 117/88/7
f 29/96/8 30/97/8 32/86/6 31/85/6
f 27/31/9 29/98/10 47/99/11 48/100/12
f 30/101/13 28/33/14 39/102/15 40/103/16
f 29/98/10 31/104/17 49/105/18 47/99/11
f 32/106/19 30/101/13 40/103/16 41/107/20
f 31/104/17 33/108/21 50/109/22 49/105/18
f 34/110/23 32/106/19 41/107/20 42/111/24
f 33/108/21 35/112/25 51/113/26 50/109/22
f 36/114/27 34/110/23 42/111/24 43/115/28
f 35/112/25 95/116/29 52/117/30 51/113/26
f 96/118/31 36/114/27 43/115/28 44/119/32
f 95/116/29 97/120/33 53/121/34 52/117/30
f 98/122/35 96/123/31 44/119/32 45/124/36
f 97/120/33 37/35/37 54/125/38 53/121/34
f 38/43/39 98/126/35 45/124/36 46/127/40
f 37/35/37 27/31/9 48/100/12 54/125/38
f 28/33/14 38/43/39 46/127/40 39/102/15
f 132/128/41 41/129/20 40/130/16
f 132/131/41 131/132/42 42/133/24 41/134/20
f 131/135/42 43/136/28 42/133/24
f 131/137/42 129/138/43 44/139/32 43/140/28
f 129/138/43 45/141/36 44/139/32
f 129/142/43 128/143/44 46/73/40 45/144/36
f 133/145/44 75/146/15 68/147/40
f 128/148/44 132/128/41 40/130/16 39/149/15
f 26/150/45 48/151/12 47/152/11
f 26/150/45 47/152/11 49/153/18
f 26/150/45 49/153/18 50/154/22
f 26/150/45 50/154/22 51/155/26
f 26/150/45 51/155/26 52/156/30
f 26/150/45 52/156/30 53/157/34
f 26/150/45 53/157/34 54/158/38
f 26/150/45 54/158/38 48/151/12
f 118/159/47 36/160/47 96/161/46 95/162/46
f 97/9/1 98/12/1 38/92/1 37/91/1
f 60/163/48 85/164/46 86/165/46 61/166/48
f 64/167/5 66/168/5 120/169/5
f 58/170/2 60/163/48 61/166/48 59/171/2
f 56/172/37 77/173/38 76/174/34 58/175/33
f 59/176/35 69/177/36 68/178/40 57/179/39
f 58/175/33 76/174/34 78/180/30 60/181/29
f 61/182/31 70/183/32 69/177/36 59/176/35
f 60/181/29 78/180/30 79/184/26 85/185/25
f 86/186/27 71/187/28 70/183/32 61/182/31
f 85/185/25 79/184/26 80/188/22 99/189/21
f 100/190/23 72/191/24 71/187/28 86/186/27
f 99/189/21 80/188/22 81/192/18 62/40/17
f 63/42/19 73/193/20 72/191/24 100/190/23
f 62/40/17 81/192/18 82/194/11 64/45/10
f 65/195/13 74/196/16 73/193/20 63/197/19
f 64/45/10 82/194/11 83/198/12 66/199/9
f 67/200/14 75/201/15 74/196/16 65/47/13
f 66/199/9 83/198/12 77/173/38 56/172/37
f 57/179/39 68/178/40 75/201/15 67/200/14
f 134/202/43 69/203/36 70/204/32
f 135/205/42 134/202/43 70/206/32 71/207/28
f 135/208/42 71/209/28 72/210/24
f 136/211/41 135/212/42 72/213/24 73/214/20
f 136/215/41 73/216/20 74/217/16
f 133/218/44 136/215/41 74/219/16 75/220/15
f 137/221/44 108/222/15 101/223/40
f 134/224/43 133/225/44 68/226/40 69/227/36
f 55/228/45 76/229/34 77/230/38
f 55/228/45 78/231/30 76/229/34
f 55/228/45 79/232/26 78/231/30
f 55/228/45 80/233/22 79/232/26
f 55/228/45 81/234/18 80/233/22
f 55/228/45 82/235/11 81/234/18
f 55/228/45 83/236/12 82/235/11
f 55/228/45 77/230/38 83/236/12
f 58/170/2 59/171/2 57/237/1 119/238/1
f 89/239/48 91/240/46 92/241/46 90/242/48
f 91/240/49 93/243/49 94/244/49 92/241/49
f 99/10/7 62/94/7 63/93/7 100/11/7
f 93/243/7 95/245/7 96/246/7 94/244/7
f 87/2/2 89/239/48 90/242/48 88/3/2
f 85/185/37 110/247/38 109/248/34 87/249/33
f 88/250/35 102/251/36 101/252/40 86/186/39
f 87/249/33 109/248/34 111/253/30 89/254/29
f 90/255/31 103/256/32 102/251/36 88/250/35
f 89/254/29 111/253/30 112/257/26 91/258/25
f 92/259/27 104/260/28 103/256/32 90/255/31
f 91/258/25 112/257/26 113/261/22 93/262/21
f 94/263/23 105/264/24 104/260/28 92/259/27
f 93/262/21 113/261/22 114/265/18 95/116/17
f 96/118/19 106/266/20 105/264/24 94/263/23
f 95/116/17 114/265/18 115/267/11 97/120/10
f 98/126/13 107/268/16 106/266/20 96/118/19
f 97/120/10 115/267/11 116/269/12 99/189/9
f 100/190/14 108/270/15 107/268/16 98/126/13
f 99/189/9 116/269/12 110/247/38 85/185/37
f 86/271/39 101/252/40 108/270/15 100/272/14
f 138/273/43 102/274/36 103/275/32
f 139/276/42 138/273/43 103/275/32 104/277/28
f 139/278/42 104/279/28 105/280/24
f 140/281/41 139/282/42 105/280/24 106/283/20
f 140/284/41 106/285/20 107/286/16
f 137/287/44 140/284/41 107/286/16 108/288/15
f 138/289/43 137/290/44 101/223/40 102/291/36
f 84/292/45 109/293/34 110/294/38
f 84/292/45 111/295/30 109/293/34
f 84/292/45 112/296/26 111/295/30
f 84/292/45 113/297/22 112/296/26
f 84/292/45 114/298/18 113/297/22
f 84/292/45 115/299/11 114/298/18
f 84/292/45 116/300/12 115/299/11
f 84/292/45 110/294/38 116/300/12
f 27/301/5 28/302/5 30/97/8 29/96/8
f 56/303/4 119/304/4 120/305/4 66/306/4
f 33/307/49 117/308/49 118/309/47 35/310/47
f 65/311/5 64/167/5 120/169/5 67/312/5
f 117/88/49 34/87/49 36/160/47 118/159/47
f 56/313/1 58/170/2 119/238/1
f 35/314/47 118/159/47 95/162/46
f 120/169/4 119/238/4 57/237/4 67/312/4
f 124/315/42 126/316/41 123/317/50
f 128/318/44 129/319/43 125/320/51
f 136/321/41 133/322/44 130/323/52
f 121/324/44 122/325/43 123/326/51
f 121/327/44 10/328/15 17/69/40
f 138/329/43 139/330/42 127/331/53
f 133/332/44 134/333/43 130/334/51
f 137/335/44 138/329/43 127/336/51
f 126/316/41 121/337/44 123/338/52
f 134/333/43 135/339/42 130/340/53
f 122/325/43 124/341/42 123/342/53
f 131/343/42 132/344/41 125/345/50
f 135/346/42 136/321/41 130/347/50
f 129/319/43 131/348/42 125/349/53
f 139/350/42 140/351/41 127/352/50
f 132/344/41 128/353/44 125/354/52
f 140/351/41 137/355/44 127/356/52
