# Blender v3.4.1 OBJ File: 'SpaceBits_export.blend'
# www.blender.org
mtllib rock_A.mtl
o rock_A_Cylinder.2733
v 0.000000 0.000000 -0.250000
v 0.000004 0.250000 -0.125000
v -0.000000 0.000000 0.250000
v -0.216506 0.000000 0.125000
v -0.108249 0.250000 -0.062500
v 0.000000 0.075000 -0.250000
v 0.216506 0.075000 -0.125000
v 0.316506 0.000000 -0.067095
v 0.000003 0.201144 0.149428
v 0.000004 0.250000 0.068522
v -0.108249 0.250000 0.005394
v -0.129492 0.200943 0.074764
v -0.203824 0.000000 -0.117872
v 0.174319 0.100643 0.149357
v 0.206777 0.122272 0.072037
v -0.203880 0.079195 -0.111755
v 0.298474 0.000000 0.061942
vt 0.926053 0.870178
vt 0.926053 0.908626
vt 0.941922 0.870178
vt 0.918119 0.908626
vt 0.918119 0.908626
vt 0.911109 0.871100
vt 0.926053 0.931914
vt 0.926053 0.931914
vt 0.941209 0.903853
vt 0.910184 0.853700
vt 0.916562 0.897847
vt 0.941922 0.893466
vt 0.911113 0.838075
vt 0.911109 0.855475
vt 0.926053 0.854553
vt 0.926053 0.838075
vt 0.910184 0.838075
vt 0.926053 0.838075
vt 0.926053 0.861363
vt 0.926053 0.905556
vt 0.916562 0.905511
vt 0.910184 0.861363
vt 0.949253 0.876988
vt 0.938830 0.883475
vt 0.949253 0.838075
vt 0.947931 0.838075
vt 0.926053 0.845738
vt 0.947931 0.845738
vt 0.938830 0.867850
vt 0.941922 0.854553
vt 0.938830 0.899100
vt 0.926053 0.921181
vt 0.947931 0.876988
vt 0.918119 0.931914
vt 0.918119 0.931914
vt 0.916562 0.921136
vn 0.4849 0.2446 -0.8397
vn 0.4061 0.8749 -0.2637
vn 0.6341 0.4709 -0.6133
vn -0.8811 0.4718 0.0314
vn -0.8725 0.4885 0.0000
vn -0.9681 0.2504 0.0133
vn 0.1578 0.9433 0.2919
vn 0.6588 0.7248 0.2017
vn -0.9448 0.3225 0.0575
vn -0.8958 0.4388 0.0709
vn -0.4586 0.5020 -0.7333
vn -0.4252 0.5261 -0.7365
vn -0.5291 0.2425 -0.8132
vn -0.5521 0.0328 -0.8331
vn -0.5353 0.2498 -0.8068
vn 0.0000 -1.0000 0.0000
vn -0.9986 0.0033 -0.0521
vn -0.0566 0.3688 0.9278
vn -0.0059 0.6863 0.7273
vn -0.3888 0.6306 0.6717
vn -0.4588 0.3974 0.7947
vn 0.7185 0.6942 -0.0434
vn 0.5440 0.4081 0.7331
vn 0.8023 0.4788 0.3564
vn 0.5002 -0.0008 -0.8659
vn 0.0000 1.0000 0.0000
vn -0.1191 0.9715 0.2050
usemtl spacebits_texture
s 1
f 6/1/1 2/2/2 7/3/3
f 11/4/4 5/5/5 16/6/6
f 2/7/2 10/8/7 15/9/8
f 4/10/9 12/11/10 16/6/6
f 5/5/11 2/2/12 6/1/13
f 7/12/3 2/7/2 15/9/8
f 13/13/14 16/14/15 6/15/13 1/16/14
f 4/17/16 13/13/16 1/16/16 3/18/16
f 16/6/15 5/5/11 6/1/13
f 4/17/9 16/14/6 13/13/17
f 3/19/18 9/20/19 12/21/20 4/22/21
f 8/23/22 7/12/3 15/9/8
f 3/19/18 14/24/23 9/20/19
f 1/16/16 8/25/16 17/26/16 3/18/16
f 3/27/18 17/28/24 14/29/23
f 1/16/25 6/15/1 7/30/3 8/25/25
f 14/31/23 15/9/8 10/8/7 9/32/19
f 16/6/6 12/11/10 11/4/4
f 14/31/23 17/33/24 15/9/8
f 2/7/2 5/34/26 11/35/27 10/8/7
f 17/33/24 8/23/22 15/9/8
f 9/32/19 10/8/7 11/35/27 12/36/20
