# Blender v3.4.1 OBJ File: 'SpaceBits_export.blend'
# www.blender.org
mtllib rocks_A.mtl
o rocks_A_Cylinder.2731
v -0.380519 0.133837 -0.199174
v -0.531609 0.133837 -0.318518
v 0.476963 0.127830 -0.042336
v -0.237234 0.127830 -0.787548
v -0.219674 0.315213 -0.292736
v 0.319172 0.127830 -0.652219
v -0.362437 0.133837 0.140774
v 0.110647 0.275838 -0.044419
v -0.059162 0.166518 0.259529
v -0.514911 0.133837 0.059553
v 0.219410 0.315228 -0.425053
v -0.048873 0.333065 -0.417044
v 0.175506 0.343339 -0.118408
v 0.348138 0.191746 -0.082353
v 0.231220 0.191746 -0.517098
v 0.320047 0.286145 -0.135538
v -0.154420 0.255661 -0.465830
v -0.368685 0.255661 -0.257029
v -0.174548 0.280860 0.013914
v 0.130069 0.162744 0.226751
v -0.072036 0.000000 -0.159251
v 0.368048 0.000000 -0.649981
v 0.523918 0.000000 -0.036500
v -0.538662 0.000000 0.233474
v -0.694532 0.000000 -0.380007
v -0.241177 0.000000 -0.821735
v 0.195653 0.000000 0.283345
v -0.089503 0.000000 0.360102
v -0.766252 0.000000 0.106515
v -0.102522 0.000000 0.040982
v -0.790187 0.000000 0.536791
v 0.045020 0.000000 0.621548
v -0.387803 0.000000 0.821080
v -0.217140 0.171612 0.186178
v -0.565805 0.353983 0.296223
v -0.091598 0.171612 0.541286
v -0.395076 0.171612 0.672743
v -0.574595 0.353983 0.454242
v -0.322050 0.353983 0.272156
v -0.426820 0.353983 0.558647
v 0.138799 0.000015 0.374240
v 0.373087 0.000015 0.266508
v 0.184366 0.000015 0.534505
v 0.500291 0.000015 0.460052
v 0.367303 0.000015 0.587606
v 0.349528 0.114851 0.334038
v 0.203398 0.114851 0.401233
v 0.440233 0.060879 0.447965
v 0.345921 0.114851 0.534314
v 0.231819 0.114851 0.501194
vt 0.898790 0.893242
vt 0.902959 0.893242
vt 0.901348 0.882212
vt 0.895621 0.882730
vt 0.892451 0.839932
vt 0.901348 0.850962
vt 0.901273 0.839932
vt 0.904223 0.871182
vt 0.904813 0.885550
vt 0.895484 0.871182
vt 0.902568 0.895416
vt 0.898913 0.882730
vt 0.895946 0.882730
vt 0.892451 0.871182
vt 0.912738 0.887727
vt 0.908117 0.894983
vt 0.908495 0.885225
vt 0.898790 0.877617
vt 0.895621 0.867105
vt 0.898561 0.867105
vt 0.898913 0.851480
vt 0.898790 0.861992
vt 0.898561 0.851480
vt 0.905013 0.931170
vt 0.909378 0.932056
vt 0.910233 0.929632
vt 0.910233 0.898382
vt 0.909378 0.900806
vt 0.912192 0.895872
vt 0.902959 0.924492
vt 0.910463 0.918977
vt 0.912174 0.913462
vt 0.902568 0.926666
vt 0.908117 0.926233
vt 0.901691 0.929630
vt 0.910233 0.867132
vt 0.912192 0.864622
vt 0.912738 0.856477
vt 0.910463 0.856477
vt 0.901691 0.898380
vt 0.898790 0.924492
vt 0.901691 0.914005
vt 0.908117 0.910608
vt 0.902959 0.908867
vt 0.901348 0.897837
vt 0.912174 0.897837
vt 0.915245 0.882212
vt 0.912174 0.882212
vt 0.916159 0.871182
vt 0.905013 0.868670
vt 0.902959 0.861992
vt 0.908117 0.863733
vt 0.909378 0.869556
vt 0.912174 0.850962
vt 0.913126 0.839932
vt 0.909772 0.871182
vt 0.898561 0.913980
vt 0.895621 0.913980
vt 0.895946 0.913980
vt 0.898913 0.913980
vt 0.910463 0.887727
vt 0.905013 0.899920
vt 0.904563 0.871182
vt 0.913126 0.871182
vt 0.901273 0.871182
vt 0.891056 0.871182
vt 0.903969 0.871182
vt 0.898418 0.871182
vt 0.890590 0.871182
vt 0.906841 0.871182
vt 0.898277 0.854740
vt 0.901739 0.854740
vt 0.899699 0.870475
vt 0.897660 0.870475
vt 0.898277 0.917240
vt 0.904182 0.917240
vt 0.901739 0.917240
vt 0.898277 0.885990
vt 0.901739 0.885990
vt 0.904182 0.885990
vt 0.891056 0.855557
vt 0.890590 0.855557
vt 0.894785 0.886100
vt 0.894956 0.901725
vt 0.894956 0.932975
vt 0.894785 0.932975
vt 0.897660 0.932975
vt 0.899699 0.932975
vt 0.894785 0.901725
vt 0.897660 0.901725
vt 0.899699 0.901725
vt 0.894956 0.886100
vt 0.908664 0.871184
vt 0.913224 0.871184
vt 0.913111 0.871184
vt 0.909552 0.871184
vt 0.915698 0.871184
vt 0.909921 0.912342
vt 0.910474 0.912342
vt 0.912695 0.912342
vt 0.912765 0.912342
vt 0.914530 0.907685
vt 0.912695 0.881092
vt 0.910474 0.881092
vt 0.915698 0.839934
vt 0.913224 0.839934
vt 0.912765 0.849842
vt 0.914530 0.845185
vt 0.909921 0.881092
vt 0.913111 0.839934
vt 0.912695 0.849842
vt 0.912765 0.881092
vt 0.916159 0.839932
vn -0.4269 0.8964 -0.1189
vn -0.0682 0.9051 -0.4197
vn -0.4294 0.7083 -0.5602
vn -0.4948 0.8517 -0.1723
vn -0.6595 0.7289 -0.1837
vn -0.6825 0.2084 -0.7005
vn -0.0353 0.5040 0.8630
vn -0.0193 0.7270 0.6863
vn -0.4958 0.6848 0.5341
vn -0.1806 0.9352 0.3045
vn -0.2845 0.8578 0.4281
vn -0.4809 0.8457 0.2313
vn 0.4078 0.8716 0.2721
vn 0.2341 0.8905 0.3900
vn 0.3198 0.6909 0.6484
vn -0.5688 0.3973 0.7202
vn -0.9912 0.1213 0.0527
vn 0.0637 0.9946 -0.0821
vn 0.2536 0.9659 -0.0522
vn 0.1457 0.9869 -0.0696
vn 0.3643 0.9307 -0.0332
vn 0.2345 0.8864 -0.3992
vn 0.5832 0.7595 -0.2881
vn -0.1425 0.9749 -0.1709
vn 0.9366 0.2201 -0.2725
vn 0.7347 0.6404 0.2237
vn 0.9147 0.3281 -0.2360
vn -0.5734 0.7366 0.3586
vn 0.2513 0.1634 -0.9540
vn 0.4448 0.4211 0.7904
vn 0.6176 0.3864 0.6851
vn 0.0000 1.0000 0.0000
vn 0.3128 0.5418 0.7802
vn -0.0023 0.5748 -0.8183
vn 0.0000 -1.0000 0.0000
vn 0.8784 0.3539 0.3212
vn -0.4677 0.4987 0.7298
vn -0.4768 0.5632 0.6749
vn -0.4822 0.4979 0.7209
vn 0.7399 0.6312 -0.2327
vn 0.6967 0.6737 -0.2463
vn 0.7880 0.5769 -0.2151
vn -0.8580 0.5114 -0.0477
vn 0.3184 0.6198 0.7173
vn 0.3336 0.6041 0.7237
vn 0.3271 0.6108 0.7210
vn -0.0417 0.5275 -0.8486
vn -0.0409 0.4578 -0.8881
vn -0.0653 0.5397 -0.8393
vn -0.4855 0.4324 0.7598
vn -0.5338 0.3798 0.7555
vn -0.0908 0.3814 -0.9199
vn 0.3089 0.6294 0.7130
vn 0.8102 0.5487 -0.2059
vn -0.0776 0.6132 -0.7861
vn 0.4207 0.8735 0.2450
vn 0.5037 0.8350 -0.2215
vn 0.7413 0.6699 0.0417
vn -0.2594 0.3664 0.8936
vn 0.7474 0.4954 -0.4427
vn -0.8682 0.4304 0.2469
vn 0.6504 0.5107 0.5623
vn -0.3812 0.4093 -0.8290
vn 0.9101 0.3439 -0.2312
usemtl spacebits_texture
s 1
f 18/1/1 17/2/2 4/3/3
f 18/1/1 4/3/3 2/4/4
f 25/5/5 4/6/3 26/7/6
f 28/8/7 9/9/8 24/10/9
f 19/11/10 18/1/1 7/12/11
f 9/9/8 19/11/10 7/12/11
f 24/10/9 9/9/8 7/12/11
f 24/10/9 7/12/11 10/13/12
f 4/3/3 25/14/5 2/4/4
f 14/15/13 8/16/14 20/17/15
f 2/4/4 25/14/5 10/13/12
f 25/14/5 24/10/9 10/13/12
f 18/18/16 2/19/16 1/20/16
f 7/21/17 18/22/17 1/23/17
f 12/24/18 13/25/19 11/26/20
f 11/27/20 13/28/19 16/29/21
f 17/30/2 15/31/22 6/32/23
f 19/33/10 8/34/14 5/35/24
f 11/36/25 16/37/25 14/38/25 15/39/25
f 5/40/24 17/2/2 18/1/1
f 5/35/24 18/41/1 19/33/10
f 8/16/14 19/11/10 9/9/8
f 20/17/15 8/16/14 9/9/8
f 5/42/24 8/43/14 17/44/2
f 4/45/3 17/44/2 6/46/23
f 3/47/26 14/15/13 20/17/15
f 6/48/23 3/47/26 23/49/27
f 12/50/28 17/51/28 8/52/28 13/53/28
f 6/54/29 22/55/29 26/7/29 4/6/29
f 27/56/30 23/49/31 3/47/26 20/17/15
f 27/56/30 20/17/15 9/9/8 28/8/7
f 1/57/32 2/58/4 10/59/12 7/60/11
f 16/29/33 13/28/33 8/16/14 14/15/13
f 3/47/26 6/48/23 15/61/22 14/15/13
f 12/62/34 11/27/34 15/61/22 17/2/2
f 21/63/35 22/64/35 23/49/35
f 21/63/35 24/10/35 25/14/35
f 21/63/35 25/14/35 26/65/35
f 21/63/35 26/65/35 22/64/35
f 21/63/35 27/56/35 28/8/35
f 21/63/35 23/49/35 27/56/35
f 21/63/35 28/8/35 24/10/35
f 29/66/35 30/67/35 33/68/35 31/69/35
f 33/68/35 30/67/35 32/70/35
f 37/71/36 34/72/36 39/73/36 40/74/36
f 37/75/32 36/76/32 34/77/32
f 31/69/37 33/68/38 37/78/39
f 30/67/40 34/79/41 36/80/42
f 29/81/43 31/82/43 38/83/43
f 33/68/44 32/70/45 36/80/46
f 29/66/47 35/84/48 34/79/49
f 35/85/32 38/86/32 40/87/32 39/88/32
f 38/89/50 37/78/39 40/90/51
f 38/89/50 31/69/37 37/78/39
f 34/79/49 35/84/48 39/91/52
f 37/78/53 33/68/44 36/80/46
f 32/70/54 30/67/40 36/80/42
f 30/67/55 29/66/47 34/79/49
f 35/92/43 29/81/43 38/83/43
f 41/93/35 42/94/35 45/95/35 43/96/35
f 45/95/35 42/94/35 44/97/35
f 47/98/32 50/99/32 49/100/56 46/101/57
f 49/100/56 48/102/58 46/101/57
f 43/96/59 45/95/59 49/103/59 50/104/59
f 44/105/60 42/106/60 46/107/57 48/108/58
f 41/93/61 43/96/61 50/104/61 47/109/61
f 45/110/62 44/105/62 48/108/58 49/111/56
f 42/94/63 41/93/63 47/109/63 46/112/63
f 22/55/64 6/54/23 23/113/27
