# Blender v3.4.1 OBJ File: 'SpaceBits_export.blend'
# www.blender.org
mtllib rock_B.mtl
o rock_B_Cylinder.2734
v 0.000000 0.000000 -0.401397
v 0.347620 0.000000 -0.200698
v 0.173816 0.401397 -0.100349
v 0.347620 0.000000 0.200698
v 0.173816 0.401397 0.100349
v -0.000000 0.000000 0.401397
v 0.000006 0.401397 0.200698
v -0.347620 0.000000 0.200698
v -0.347620 0.000000 -0.200698
v 0.347620 0.200698 -0.200698
v 0.347620 0.200698 0.200698
v -0.330347 0.200698 -0.187360
v -0.045924 0.363896 -0.211682
v 0.022250 0.401397 -0.180699
v -0.206281 0.363896 0.044098
v -0.147561 0.401397 0.107124
v -0.206281 0.363896 -0.119100
v -0.147576 0.401397 -0.082599
v -0.045929 0.200698 -0.374879
v 0.000637 0.200698 -0.385495
vt 0.912220 0.880349
vt 0.917801 0.902351
vt 0.925013 0.902351
vt 0.925013 0.880349
vt 0.942714 0.888013
vt 0.934897 0.915070
vt 0.934897 0.915070
vt 0.942714 0.888013
vt 0.927079 0.915070
vt 0.911443 0.853291
vt 0.917801 0.902351
vt 0.927108 0.864724
vt 0.942714 0.864724
vt 0.942714 0.837666
vt 0.927079 0.837666
vt 0.934897 0.930695
vt 0.928079 0.930695
vt 0.920441 0.930695
vt 0.934897 0.930695
vt 0.911443 0.837666
vt 0.942714 0.837666
vt 0.927079 0.837666
vt 0.911443 0.837666
vt 0.912220 0.864724
vt 0.927108 0.880349
vt 0.928079 0.907407
vt 0.934897 0.907407
vt 0.942714 0.880349
vt 0.942714 0.845330
vt 0.942714 0.872388
vt 0.927079 0.845330
vt 0.942714 0.845330
vt 0.942714 0.872388
vt 0.925013 0.864724
vt 0.927079 0.860955
vt 0.920442 0.930695
vt 0.927079 0.930695
vt 0.920442 0.915070
vt 0.917801 0.910015
vt 0.911443 0.860955
vt 0.917801 0.925640
vt 0.917801 0.925640
vt 0.925013 0.917976
vt 0.917801 0.917976
vt 0.920441 0.923032
vt 0.928079 0.923032
vn -0.8297 0.3705 -0.4176
vn -0.5700 0.7572 -0.3189
vn -0.2605 0.7455 -0.6135
vn -0.3425 0.3827 -0.8580
vn 0.9528 0.3036 0.0000
vn 0.7559 0.6546 0.0000
vn 0.6124 0.7071 0.3536
vn 0.7869 0.3575 0.5029
vn -0.0891 0.5062 0.8578
vn -0.7692 0.3953 0.5021
vn -0.7418 0.6475 0.1743
vn 0.1313 0.3810 -0.9152
vn 0.4551 0.3151 -0.8328
vn 0.4850 0.0338 -0.8739
vn 0.0014 0.0491 -0.9988
vn 0.0000 1.0000 0.0000
vn 0.0630 0.8959 -0.4399
vn -0.2793 0.9475 -0.1554
vn 0.0000 -1.0000 0.0000
vn -0.9963 0.0857 0.0000
vn 0.3579 0.6473 -0.6730
vn 0.5000 0.0000 0.8660
vn -0.0671 0.3849 0.9205
vn 1.0000 0.0000 0.0000
vn -0.5228 0.0472 -0.8511
vn -0.4254 0.8212 0.3803
usemtl spacebits_texture
s 1
f 12/1/1 17/2/2 13/3/3 19/4/4
f 10/5/5 3/6/6 5/7/7 11/8/8
f 11/8/8 5/7/7 7/9/9
f 8/10/10 15/11/11 12/1/1
f 15/11/11 17/2/2 12/1/1
f 20/12/12 10/13/13 2/14/14 1/15/15
f 3/16/16 14/17/17 18/18/18 5/19/16
f 9/20/19 4/21/19 6/22/19 8/23/19
f 8/23/10 12/24/1 9/20/20
f 20/25/12 14/26/17 3/27/21 10/28/13
f 4/29/22 11/30/8 6/31/23
f 2/32/24 10/33/5 11/30/8 4/29/24
f 9/20/25 12/24/1 19/34/4 1/15/15
f 6/35/23 11/8/8 7/9/9
f 18/18/18 16/36/26 7/37/16 5/19/16
f 1/15/19 2/14/19 4/21/19 9/20/19
f 16/38/26 15/39/11 8/40/10
f 19/34/4 20/12/12 1/15/15
f 19/4/4 13/3/3 14/26/17 20/25/12
f 17/41/2 15/42/11 16/36/26 18/18/18
f 13/43/3 17/44/2 18/45/18 14/46/17
f 16/38/26 8/40/10 6/35/23 7/9/9
