# Blender v3.4.1 OBJ File: 'SpaceBits_export.blend'
# www.blender.org
mtllib roofmodule_base.mtl
o roofmodule_base_Cylinder.2713
v -0.000000 -0.100000 0.000000
v 0.288963 0.050000 -0.697618
v 0.278306 0.100000 -0.647618
v 0.637362 0.100000 -0.288963
v 0.697617 0.050000 -0.288963
v 0.637362 0.100000 0.288963
v 0.697617 0.050000 0.288963
v 0.278306 0.100000 0.647618
v 0.288963 0.050000 0.697618
v -0.278306 0.100000 0.647618
v -0.288963 0.050000 0.697618
v -0.637362 0.100000 0.288963
v -0.697617 0.050000 0.288963
v -0.637363 0.100000 -0.288963
v -0.697617 0.050000 -0.288963
v -0.278306 0.100000 -0.647618
v -0.288963 0.050000 -0.697618
v -0.000000 0.099998 0.000000
v 0.288963 -0.100000 -0.697618
v 0.697617 -0.100000 -0.288963
v 0.697617 -0.100000 0.288963
v 0.288963 -0.100000 0.697618
v -0.288963 -0.100000 0.697618
v -0.697617 -0.100000 0.288963
v -0.697617 -0.100000 -0.288963
v -0.288963 -0.100000 -0.697618
vt 0.322395 0.844634
vt 0.295075 0.844634
vt 0.295075 0.863762
vt 0.322395 0.863762
vt 0.322395 0.844634
vt 0.341711 0.844634
vt 0.341711 0.863762
vt 0.322395 0.863762
vt 0.295075 0.844634
vt 0.295075 0.863762
vt 0.295578 0.878415
vt 0.295579 0.878415
vt 0.278605 0.878415
vt 0.341711 0.854991
vt 0.341711 0.854991
vt 0.341711 0.874119
vt 0.341711 0.874119
vt 0.275757 0.844634
vt 0.275757 0.863762
vt 0.275757 0.844634
vt 0.275757 0.863762
vt 0.275757 0.854991
vt 0.275757 0.854991
vt 0.275757 0.874119
vt 0.275757 0.874119
vt 0.295579 0.878415
vt 0.278605 0.878415
vt 0.321891 0.888951
vt 0.338863 0.888951
vt 0.341711 0.888951
vt 0.322395 0.888951
vt 0.338863 0.899308
vt 0.338863 0.899308
vt 0.341711 0.899308
vt 0.341711 0.899308
vt 0.338863 0.888951
vt 0.321891 0.888951
vt 0.322395 0.888951
vt 0.341711 0.888951
vt 0.295579 0.888951
vt 0.295075 0.888951
vt 0.278605 0.888951
vt 0.275757 0.888951
vt 0.278605 0.899308
vt 0.278605 0.899308
vt 0.275757 0.899308
vt 0.275757 0.899308
vt 0.278605 0.888951
vt 0.295579 0.888951
vt 0.295075 0.888951
vt 0.275757 0.888951
vt 0.341711 0.844634
vt 0.341711 0.863762
vt 0.321891 0.878415
vt 0.338863 0.878415
vt 0.321890 0.878415
vt 0.338863 0.878415
vt 0.321891 0.878415
vt 0.313119 0.878415
vt 0.304349 0.878415
vt 0.321284 0.829644
vt 0.322395 0.829009
vt 0.341711 0.839366
vt 0.339029 0.837921
vt 0.341711 0.829009
vt 0.339029 0.829644
vt 0.322395 0.829009
vt 0.321284 0.829183
vt 0.295075 0.829009
vt 0.296186 0.829644
vt 0.275757 0.839366
vt 0.278440 0.837921
vt 0.275757 0.829009
vt 0.278440 0.829644
vt 0.295075 0.829009
vt 0.296186 0.829183
vn 0.0000 0.0000 -1.0000
vn 0.7071 0.0000 0.7071
vn 0.9239 0.0000 0.3827
vn -0.0000 0.0000 1.0000
vn 0.0000 1.0000 0.0000
vn 0.9239 0.0000 -0.3827
vn -0.7071 0.0000 -0.7071
vn -0.9239 0.0000 -0.3827
vn -0.9239 0.0000 0.3827
vn -0.7071 0.0000 0.7071
vn 0.2990 0.7053 -0.6428
vn 0.6037 0.7289 -0.3230
vn 0.6229 0.7516 -0.2168
vn 0.2530 0.7100 -0.6572
vn 0.6037 0.7289 0.3230
vn 0.6229 0.7516 0.2168
vn 0.2990 0.7053 0.6428
vn 0.2530 0.7100 0.6572
vn -0.2990 0.7053 0.6428
vn -0.2530 0.7100 0.6572
vn -0.6037 0.7289 0.3230
vn -0.6229 0.7516 0.2168
vn -0.6037 0.7289 -0.3230
vn -0.6229 0.7516 -0.2168
vn -0.2990 0.7053 -0.6428
vn -0.2530 0.7100 -0.6572
vn 0.7071 0.0000 -0.7071
vn 0.0000 -1.0000 0.0000
usemtl spacebits_texture
s 1
f 19/1/1 26/2/1 17/3/1 2/4/1
f 22/5/2 21/6/3 7/7/3 9/8/2
f 23/9/4 22/5/4 9/8/4 11/10/4
f 18/11/5 16/12/5 14/13/5
f 21/14/3 20/15/6 5/16/6 7/17/3
f 26/2/7 25/18/8 15/19/8 17/3/7
f 24/20/9 23/9/10 11/10/10 13/21/9
f 25/22/8 24/23/9 13/24/9 15/25/8
f 10/26/5 18/11/5 12/27/5
f 3/28/11 4/29/12 5/30/13 2/31/14
f 4/32/12 6/33/15 7/34/16 5/35/13
f 6/36/15 8/37/17 9/38/18 7/39/16
f 8/37/17 10/40/19 11/41/20 9/38/18
f 10/40/19 12/42/21 13/43/22 11/41/20
f 12/44/21 14/45/23 15/46/24 13/47/22
f 14/48/23 16/49/25 17/50/26 15/51/24
f 16/49/25 3/28/11 2/31/14 17/50/26
f 20/52/6 19/1/27 2/4/27 5/53/6
f 8/54/5 6/55/5 18/56/5
f 4/57/5 3/58/5 18/56/5
f 3/58/5 16/12/5 18/59/5
f 18/11/5 14/13/5 12/27/5
f 10/26/5 8/54/5 18/60/5
f 6/55/5 4/57/5 18/56/5
f 1/61/28 19/62/28 20/63/28
f 1/64/28 20/63/28 21/65/28
f 1/66/28 21/65/28 22/67/28
f 1/68/28 22/67/28 23/69/28
f 1/70/28 23/69/28 24/71/28
f 1/72/28 24/71/28 25/73/28
f 1/74/28 25/73/28 26/75/28
f 1/76/28 26/75/28 19/62/28
