# Blender v3.4.1 OBJ File: 'SpaceBits_export.blend'
# www.blender.org
mtllib roofmodule_solarpanels.mtl
o roofmodule_solarpanels_Cylinder.2715
v -0.000000 -0.100000 0.000000
v 0.288963 0.050000 -0.697618
v 0.278306 0.100000 -0.647618
v 0.637362 0.100000 -0.288963
v 0.697617 0.050000 -0.288963
v 0.637362 0.100000 0.288963
v 0.697617 0.050000 0.288963
v 0.278306 0.100000 0.647618
v 0.288963 0.050000 0.697618
v -0.278306 0.100000 0.647618
v -0.288963 0.050000 0.697618
v -0.637362 0.100000 0.288963
v -0.697617 0.050000 0.288963
v -0.637363 0.100000 -0.288963
v -0.697617 0.050000 -0.288963
v -0.278306 0.100000 -0.647618
v -0.288963 0.050000 -0.697618
v -0.000000 0.099998 0.000000
v -0.270000 0.326604 -0.328501
v -0.270000 0.326604 -0.382145
v -0.360000 0.326604 -0.382145
v -0.360000 0.326604 -0.328501
v -0.270000 0.155225 -0.422470
v -0.360000 0.155225 -0.422470
v -0.270000 0.155225 -0.152394
v -0.360000 0.155225 -0.152394
v -0.270000 0.377258 -0.421094
v -0.270000 0.377258 -0.312361
v -0.360000 0.377258 -0.312361
v -0.360000 0.377258 -0.421094
v -0.360000 0.177876 -0.475001
v -0.360000 0.099988 -0.439001
v -0.270000 0.099988 -0.439001
v -0.270000 0.177876 -0.475001
v -0.270000 0.163628 -0.097639
v -0.270000 0.099988 -0.123999
v -0.360000 0.099988 -0.123999
v -0.360000 0.163628 -0.097639
v -0.450000 0.439087 -0.375021
v -0.450000 0.470907 -0.343201
v -0.225000 0.470907 -0.343201
v -0.450000 0.120889 -0.056821
v -0.450000 0.152709 -0.025001
v -0.450000 0.311808 -0.184101
v -0.225000 0.152709 -0.025001
v -0.225000 0.311808 -0.184101
v 0.000000 0.311808 -0.184101
v 0.000000 0.439087 -0.375021
v 0.000000 0.470907 -0.343201
v 0.225000 0.311808 -0.184101
v 0.225000 0.470907 -0.343201
v 0.450000 0.439087 -0.375021
v 0.450000 0.470907 -0.343201
v 0.000000 0.120889 -0.056821
v 0.000000 0.152709 -0.025001
v 0.225000 0.152709 -0.025001
v 0.450000 0.311808 -0.184101
v 0.450000 0.120889 -0.056821
v 0.450000 0.152709 -0.025001
v 0.360000 0.326604 -0.328501
v 0.360000 0.326604 -0.382145
v 0.270000 0.326604 -0.382145
v 0.270000 0.326604 -0.328501
v 0.360000 0.155225 -0.422470
v 0.270000 0.155225 -0.422470
v 0.360000 0.155225 -0.152394
v 0.270000 0.155225 -0.152394
v 0.360000 0.377258 -0.421094
v 0.360000 0.377258 -0.312361
v 0.270000 0.377258 -0.312361
v 0.270000 0.377258 -0.421094
v 0.270000 0.177876 -0.475001
v 0.270000 0.099988 -0.439001
v 0.360000 0.099988 -0.439001
v 0.360000 0.177876 -0.475001
v 0.360000 0.163628 -0.097639
v 0.360000 0.099988 -0.123999
v 0.270000 0.099988 -0.123999
v 0.270000 0.163628 -0.097639
v -0.270000 0.326604 0.171499
v -0.270000 0.326604 0.117855
v -0.360000 0.326604 0.117855
v -0.360000 0.326604 0.171499
v -0.270000 0.155225 0.077530
v -0.360000 0.155225 0.077530
v -0.270000 0.155225 0.347606
v -0.360000 0.155225 0.347606
v -0.270000 0.377258 0.078906
v -0.270000 0.377258 0.187639
v -0.360000 0.377258 0.187639
v -0.360000 0.377258 0.078906
v -0.360000 0.177876 0.024999
v -0.360000 0.099988 0.060999
v -0.270000 0.099988 0.060999
v -0.270000 0.177876 0.024999
v -0.270000 0.163628 0.402361
v -0.270000 0.099988 0.376001
v -0.360000 0.099988 0.376001
v -0.360000 0.163628 0.402361
v -0.450000 0.439087 0.124979
v -0.450000 0.470907 0.156799
v -0.225000 0.470907 0.156799
v -0.450000 0.120889 0.443179
v -0.450000 0.152709 0.474999
v -0.450000 0.311808 0.315899
v -0.225000 0.152709 0.474999
v -0.225000 0.311808 0.315899
v 0.000000 0.311808 0.315899
v 0.000000 0.439087 0.124979
v 0.000000 0.470907 0.156799
v 0.225000 0.311808 0.315899
v 0.225000 0.470907 0.156799
v 0.450000 0.439087 0.124979
v 0.450000 0.470907 0.156799
v 0.000000 0.120889 0.443179
v 0.000000 0.152709 0.474999
v 0.225000 0.152709 0.474999
v 0.450000 0.311808 0.315899
v 0.450000 0.120889 0.443179
v 0.450000 0.152709 0.474999
v 0.360000 0.326604 0.171499
v 0.360000 0.326604 0.117855
v 0.270000 0.326604 0.117855
v 0.270000 0.326604 0.171499
v 0.360000 0.155225 0.077530
v 0.270000 0.155225 0.077530
v 0.360000 0.155225 0.347606
v 0.270000 0.155225 0.347606
v 0.360000 0.377258 0.078906
v 0.360000 0.377258 0.187639
v 0.270000 0.377258 0.187639
v 0.270000 0.377258 0.078906
v 0.270000 0.177876 0.024999
v 0.270000 0.099988 0.060999
v 0.360000 0.099988 0.060999
v 0.360000 0.177876 0.024999
v 0.360000 0.163628 0.402361
v 0.360000 0.099988 0.376001
v 0.270000 0.099988 0.376001
v 0.270000 0.163628 0.402361
v 0.288963 -0.100000 -0.697618
v 0.697617 -0.100000 -0.288963
v 0.697617 -0.100000 0.288963
v 0.288963 -0.100000 0.697618
v -0.288963 -0.100000 0.697618
v -0.697617 -0.100000 0.288963
v -0.697617 -0.100000 -0.288963
v -0.288963 -0.100000 -0.697618
vt 0.322395 0.844634
vt 0.295075 0.844634
vt 0.295075 0.863762
vt 0.322395 0.863762
vt 0.322395 0.844634
vt 0.341711 0.844634
vt 0.341711 0.863762
vt 0.322395 0.863762
vt 0.295075 0.844634
vt 0.295075 0.863762
vt 0.295578 0.878415
vt 0.295579 0.878415
vt 0.278605 0.878415
vt 0.341711 0.854991
vt 0.341711 0.854991
vt 0.341711 0.874119
vt 0.341711 0.874119
vt 0.275757 0.844634
vt 0.275757 0.863762
vt 0.275757 0.844634
vt 0.275757 0.863762
vt 0.275757 0.854991
vt 0.275757 0.854991
vt 0.275757 0.874119
vt 0.275757 0.874119
vt 0.295579 0.878415
vt 0.278605 0.878415
vt 0.321891 0.888951
vt 0.338863 0.888951
vt 0.341711 0.888951
vt 0.322395 0.888951
vt 0.338863 0.899308
vt 0.338863 0.899308
vt 0.341711 0.899308
vt 0.341711 0.899308
vt 0.338863 0.888951
vt 0.321891 0.888951
vt 0.322395 0.888951
vt 0.341711 0.888951
vt 0.295579 0.888951
vt 0.295075 0.888951
vt 0.278605 0.888951
vt 0.275757 0.888951
vt 0.278605 0.899308
vt 0.278605 0.899308
vt 0.275757 0.899308
vt 0.275757 0.899308
vt 0.278605 0.888951
vt 0.295579 0.888951
vt 0.295075 0.888951
vt 0.275757 0.888951
vt 0.341711 0.844634
vt 0.341711 0.863762
vt 0.321891 0.878415
vt 0.338863 0.878415
vt 0.321890 0.878415
vt 0.338863 0.878415
vt 0.321891 0.878415
vt 0.313119 0.878415
vt 0.304349 0.878415
vt 0.292120 0.909478
vt 0.292120 0.830808
vt 0.330711 0.830808
vt 0.330711 0.909478
vt 0.292120 0.776123
vt 0.292120 0.776123
vt 0.330711 0.776123
vt 0.330711 0.776123
vt 0.292120 0.859576
vt 0.330711 0.859576
vt 0.330711 0.796462
vt 0.292120 0.796462
vt 0.330711 0.940728
vt 0.330711 0.940728
vt 0.292120 0.940728
vt 0.292120 0.940728
vt 0.292120 0.807373
vt 0.292120 0.836053
vt 0.330711 0.836053
vt 0.330711 0.807373
vt 0.330711 0.799558
vt 0.292120 0.799558
vt 0.330711 0.867303
vt 0.292120 0.867303
vt 0.330711 0.890826
vt 0.330711 0.909478
vt 0.330711 0.890826
vt 0.292120 0.890826
vt 0.292120 0.909478
vt 0.292120 0.890826
vt 0.292120 0.827712
vt 0.330711 0.827712
vt 0.330711 0.827712
vt 0.330711 0.807373
vt 0.292120 0.827712
vt 0.292120 0.807373
vt 0.330711 0.796462
vt 0.292120 0.796462
vt 0.330711 0.859576
vt 0.292120 0.859576
vt 0.274560 0.843750
vt 0.336338 0.843750
vt 0.305450 0.856319
vt 0.523404 0.226596
vt 0.523404 0.023404
vt 0.726596 0.023404
vt 0.726596 0.226596
vt 0.305450 0.918819
vt 0.336338 0.918819
vt 0.336338 0.906250
vt 0.523404 0.226596
vt 0.523404 0.023404
vt 0.726596 0.023404
vt 0.726596 0.226596
vt 0.274560 0.887569
vt 0.274560 0.887569
vt 0.274560 0.875000
vt 0.523404 0.226596
vt 0.523404 0.023404
vt 0.726596 0.023404
vt 0.726596 0.226596
vt 0.274560 0.856319
vt 0.523404 0.226596
vt 0.523404 0.023404
vt 0.726596 0.023404
vt 0.726596 0.226596
vt 0.336338 0.856319
vt 0.274560 0.875000
vt 0.274560 0.887569
vt 0.336338 0.843750
vt 0.305450 0.856319
vt 0.274560 0.843750
vt 0.523404 0.226596
vt 0.523404 0.023404
vt 0.726596 0.023404
vt 0.726596 0.226596
vt 0.336338 0.875000
vt 0.336338 0.875000
vt 0.336338 0.887569
vt 0.305450 0.918819
vt 0.336338 0.918819
vt 0.336338 0.906250
vt 0.523404 0.226596
vt 0.523404 0.023404
vt 0.726596 0.023404
vt 0.726596 0.226596
vt 0.336338 0.828125
vt 0.274560 0.828125
vt 0.274560 0.828125
vt 0.336338 0.828125
vt 0.523404 0.226596
vt 0.523404 0.023404
vt 0.726596 0.023404
vt 0.726596 0.226596
vt 0.274560 0.856319
vt 0.523404 0.226596
vt 0.523404 0.023404
vt 0.726596 0.023404
vt 0.726596 0.226596
vt 0.336338 0.856319
vt 0.336338 0.887569
vt 0.336338 0.887569
vt 0.274560 0.828125
vt 0.274560 0.828125
vt 0.336338 0.828125
vt 0.336338 0.828125
vt 0.274560 0.906250
vt 0.274560 0.918819
vt 0.274560 0.906250
vt 0.274560 0.918819
vt 0.293614 0.909478
vt 0.293614 0.830808
vt 0.332218 0.830808
vt 0.332218 0.909478
vt 0.293614 0.776123
vt 0.293614 0.776123
vt 0.332218 0.776123
vt 0.332218 0.776123
vt 0.293614 0.859576
vt 0.332218 0.859576
vt 0.332218 0.796462
vt 0.293614 0.796462
vt 0.332218 0.940728
vt 0.332218 0.940728
vt 0.293614 0.940728
vt 0.293614 0.940728
vt 0.293614 0.807373
vt 0.293614 0.836053
vt 0.332218 0.836053
vt 0.332218 0.807373
vt 0.332218 0.799558
vt 0.293614 0.799558
vt 0.332218 0.867303
vt 0.293614 0.867303
vt 0.332218 0.890826
vt 0.332218 0.909478
vt 0.332218 0.890826
vt 0.293614 0.890826
vt 0.293614 0.909478
vt 0.293614 0.890826
vt 0.293614 0.827712
vt 0.332218 0.827712
vt 0.332218 0.827712
vt 0.332218 0.807373
vt 0.293614 0.827712
vt 0.293614 0.807373
vt 0.332218 0.796462
vt 0.293614 0.796462
vt 0.332218 0.859576
vt 0.293614 0.859576
vt 0.292120 0.909478
vt 0.292120 0.830808
vt 0.330711 0.830808
vt 0.330711 0.909478
vt 0.292120 0.776123
vt 0.292120 0.776123
vt 0.330711 0.776123
vt 0.330711 0.776123
vt 0.292120 0.859576
vt 0.330711 0.859576
vt 0.330711 0.796462
vt 0.292120 0.796462
vt 0.330711 0.940728
vt 0.330711 0.940728
vt 0.292120 0.940728
vt 0.292120 0.940728
vt 0.292120 0.807373
vt 0.292120 0.836053
vt 0.330711 0.836053
vt 0.330711 0.807373
vt 0.330711 0.799558
vt 0.292120 0.799558
vt 0.330711 0.867303
vt 0.292120 0.867303
vt 0.330711 0.890826
vt 0.330711 0.909478
vt 0.330711 0.890826
vt 0.292120 0.890826
vt 0.292120 0.909478
vt 0.292120 0.890826
vt 0.292120 0.827712
vt 0.330711 0.827712
vt 0.330711 0.827712
vt 0.330711 0.807373
vt 0.292120 0.827712
vt 0.292120 0.807373
vt 0.330711 0.796462
vt 0.292120 0.796462
vt 0.330711 0.859576
vt 0.292120 0.859576
vt 0.274560 0.843750
vt 0.336338 0.843750
vt 0.305450 0.856319
vt 0.523404 0.226596
vt 0.523404 0.023404
vt 0.726596 0.023404
vt 0.726596 0.226596
vt 0.305450 0.918819
vt 0.336338 0.918819
vt 0.336338 0.906250
vt 0.523404 0.226596
vt 0.523404 0.023404
vt 0.726596 0.023404
vt 0.726596 0.226596
vt 0.274560 0.887569
vt 0.274560 0.887569
vt 0.274560 0.875000
vt 0.523404 0.226596
vt 0.523404 0.023404
vt 0.726596 0.023404
vt 0.726596 0.226596
vt 0.274560 0.856319
vt 0.523404 0.226596
vt 0.523404 0.023404
vt 0.726596 0.023404
vt 0.726596 0.226596
vt 0.336338 0.856319
vt 0.274560 0.875000
vt 0.274560 0.887569
vt 0.336338 0.843750
vt 0.305450 0.856319
vt 0.274560 0.843750
vt 0.523404 0.226596
vt 0.523404 0.023404
vt 0.726596 0.023404
vt 0.726596 0.226596
vt 0.336338 0.875000
vt 0.336338 0.875000
vt 0.336338 0.887569
vt 0.305450 0.918819
vt 0.336338 0.918819
vt 0.336338 0.906250
vt 0.523404 0.226596
vt 0.523404 0.023404
vt 0.726596 0.023404
vt 0.726596 0.226596
vt 0.336338 0.828125
vt 0.274560 0.828125
vt 0.274560 0.828125
vt 0.336338 0.828125
vt 0.523404 0.226596
vt 0.523404 0.023404
vt 0.726596 0.023404
vt 0.726596 0.226596
vt 0.274560 0.856319
vt 0.523404 0.226596
vt 0.523404 0.023404
vt 0.726596 0.023404
vt 0.726596 0.226596
vt 0.336338 0.856319
vt 0.336338 0.887569
vt 0.336338 0.887569
vt 0.274560 0.828125
vt 0.274560 0.828125
vt 0.336338 0.828125
vt 0.336338 0.828125
vt 0.274560 0.906250
vt 0.274560 0.918819
vt 0.274560 0.906250
vt 0.274560 0.918819
vt 0.293614 0.909478
vt 0.293614 0.830808
vt 0.332218 0.830808
vt 0.332218 0.909478
vt 0.293614 0.776123
vt 0.293614 0.776123
vt 0.332218 0.776123
vt 0.332218 0.776123
vt 0.293614 0.859576
vt 0.332218 0.859576
vt 0.332218 0.796462
vt 0.293614 0.796462
vt 0.332218 0.940728
vt 0.332218 0.940728
vt 0.293614 0.940728
vt 0.293614 0.940728
vt 0.293614 0.807373
vt 0.293614 0.836053
vt 0.332218 0.836053
vt 0.332218 0.807373
vt 0.332218 0.799558
vt 0.293614 0.799558
vt 0.332218 0.867303
vt 0.293614 0.867303
vt 0.332218 0.890826
vt 0.332218 0.909478
vt 0.332218 0.890826
vt 0.293614 0.890826
vt 0.293614 0.909478
vt 0.293614 0.890826
vt 0.293614 0.827712
vt 0.332218 0.827712
vt 0.332218 0.827712
vt 0.332218 0.807373
vt 0.293614 0.827712
vt 0.293614 0.807373
vt 0.332218 0.796462
vt 0.293614 0.796462
vt 0.332218 0.859576
vt 0.293614 0.859576
vt 0.321284 0.829644
vt 0.322395 0.829009
vt 0.341711 0.839366
vt 0.339029 0.837921
vt 0.341711 0.829009
vt 0.339029 0.829644
vt 0.322395 0.829009
vt 0.321284 0.829183
vt 0.295075 0.829009
vt 0.296186 0.829644
vt 0.275757 0.839366
vt 0.278440 0.837921
vt 0.275757 0.829009
vt 0.278440 0.829644
vt 0.295075 0.829009
vt 0.296186 0.829183
vn 0.0000 0.0000 -1.0000
vn 0.7071 0.0000 0.7071
vn 0.9239 0.0000 0.3827
vn -0.0000 0.0000 1.0000
vn 0.0000 1.0000 0.0000
vn 0.9239 0.0000 -0.3827
vn -0.7071 0.0000 -0.7071
vn -0.9239 0.0000 -0.3827
vn -0.9239 0.0000 0.3827
vn -0.7071 0.0000 0.7071
vn 0.2990 0.7053 -0.6428
vn 0.6037 0.7289 -0.3230
vn 0.6229 0.7516 -0.2168
vn 0.2530 0.7100 -0.6572
vn 0.6037 0.7289 0.3230
vn 0.6229 0.7516 0.2168
vn 0.2990 0.7053 0.6428
vn 0.2530 0.7100 0.6572
vn -0.2990 0.7053 0.6428
vn -0.2530 0.7100 0.6572
vn -0.6037 0.7289 0.3230
vn -0.6229 0.7516 0.2168
vn -0.6037 0.7289 -0.3230
vn -0.6229 0.7516 -0.2168
vn -0.2990 0.7053 -0.6428
vn -0.2530 0.7100 -0.6572
vn 0.7071 0.0000 -0.7071
vn 0.0000 0.9244 0.3815
vn 0.0000 0.7089 0.7053
vn 0.0000 -1.0000 0.0000
vn 0.0000 -0.9265 -0.3764
vn 0.0000 -0.7167 -0.6974
vn 0.0000 -0.4196 -0.9077
vn 0.0000 -0.0843 -0.9964
vn 0.0000 -0.3827 0.9239
vn 0.0000 0.2610 -0.9653
vn 1.0000 -0.0000 0.0000
vn -1.0000 -0.0000 0.0000
vn 0.0000 -0.2290 0.9734
vn 0.0000 -0.7071 0.7071
vn 0.0000 0.7071 0.7071
vn 0.0000 0.7071 -0.7071
vn 0.0000 -0.7071 -0.7071
usemtl spacebits_texture
s 1
f 141/1/1 148/2/1 17/3/1 2/4/1
f 144/5/2 143/6/3 7/7/3 9/8/2
f 145/9/4 144/5/4 9/8/4 11/10/4
f 18/11/5 16/12/5 14/13/5
f 143/14/3 142/15/6 5/16/6 7/17/3
f 148/2/7 147/18/8 15/19/8 17/3/7
f 146/20/9 145/9/10 11/10/10 13/21/9
f 147/22/8 146/23/9 13/24/9 15/25/8
f 10/26/5 18/11/5 12/27/5
f 3/28/11 4/29/12 5/30/13 2/31/14
f 4/32/12 6/33/15 7/34/16 5/35/13
f 6/36/15 8/37/17 9/38/18 7/39/16
f 8/37/17 10/40/19 11/41/20 9/38/18
f 10/40/19 12/42/21 13/43/22 11/41/20
f 12/44/21 14/45/23 15/46/24 13/47/22
f 14/48/23 16/49/25 17/50/26 15/51/24
f 16/49/25 3/28/11 2/31/14 17/50/26
f 142/52/6 141/1/27 2/4/27 5/53/6
f 8/54/5 6/55/5 18/56/5
f 4/57/5 3/58/5 18/56/5
f 3/58/5 16/12/5 18/59/5
f 18/11/5 14/13/5 12/27/5
f 10/26/5 8/54/5 18/60/5
f 6/55/5 4/57/5 18/56/5
f 29/61/28 38/62/29 35/63/29 28/64/28
f 37/65/30 32/66/30 33/67/30 36/68/30
f 22/69/31 19/70/31 25/71/32 26/72/32
f 28/73/28 27/74/5 30/75/5 29/76/28
f 32/77/33 31/78/34 34/79/34 33/80/33
f 36/68/35 35/81/35 38/82/35 37/65/35
f 30/75/36 27/74/36 34/83/34 31/84/34
f 20/85/37 27/86/37 28/64/37 19/87/37
f 22/88/38 29/61/38 30/89/38 21/90/38
f 24/91/38 31/78/38 32/77/38
f 23/92/37 33/80/37 34/79/37
f 25/93/37 35/63/37 36/94/37
f 26/95/38 37/96/38 38/62/38
f 21/90/38 30/89/38 31/78/38 24/91/38
f 23/92/37 34/79/37 27/86/37 20/85/37
f 19/87/37 28/64/37 35/63/37 25/93/37
f 25/93/37 36/94/37 33/80/37 23/92/37
f 26/95/38 38/62/38 29/61/38 22/88/38
f 24/91/38 32/77/38 37/96/38 26/95/38
f 26/72/5 25/71/5 23/97/5 24/98/5
f 24/98/39 23/97/39 20/99/39 21/100/39
f 21/100/30 20/99/30 19/70/31 22/69/31
f 42/101/40 54/102/40 45/103/40
f 40/104/41 44/105/41 46/106/41 41/107/41
f 41/108/42 49/109/42 48/110/42
f 41/111/41 46/112/41 47/113/41 49/114/41
f 44/115/38 40/116/38 39/117/38
f 44/118/41 43/119/41 45/120/41 46/121/41
f 45/103/40 43/122/40 42/101/40
f 46/123/41 45/124/41 55/125/41 47/126/41
f 54/102/40 55/127/40 45/103/40
f 42/128/38 43/129/38 44/115/38
f 58/130/40 56/131/40 54/132/40
f 49/133/41 47/134/41 50/135/41 51/136/41
f 58/137/37 52/138/37 57/139/37
f 51/140/42 53/141/42 52/142/42
f 51/143/41 50/144/41 57/145/41 53/146/41
f 58/147/43 54/148/43 48/149/43 52/150/43
f 47/151/41 55/152/41 56/153/41 50/154/41
f 56/131/40 55/155/40 54/132/40
f 50/156/41 56/157/41 59/158/41 57/159/41
f 58/130/40 59/160/40 56/131/40
f 59/161/37 58/137/37 57/139/37
f 53/162/37 57/139/37 52/138/37
f 42/128/38 44/115/38 39/117/38
f 42/163/43 39/164/43 48/165/43 54/166/43
f 51/140/42 52/142/42 48/167/42
f 40/168/42 41/108/42 39/169/42
f 49/170/42 51/140/42 48/167/42
f 41/108/42 48/110/42 39/169/42
f 70/171/28 79/172/29 76/173/29 69/174/28
f 78/175/30 73/176/30 74/177/30 77/178/30
f 63/179/31 60/180/31 66/181/32 67/182/32
f 69/183/28 68/184/5 71/185/5 70/186/28
f 73/187/33 72/188/34 75/189/34 74/190/33
f 77/178/35 76/191/35 79/192/35 78/175/35
f 71/185/36 68/184/36 75/193/34 72/194/34
f 61/195/37 68/196/37 69/174/37 60/197/37
f 63/198/38 70/171/38 71/199/38 62/200/38
f 65/201/38 72/188/38 73/187/38
f 64/202/37 74/190/37 75/189/37
f 66/203/37 76/173/37 77/204/37
f 67/205/38 78/206/38 79/172/38
f 62/200/38 71/199/38 72/188/38 65/201/38
f 64/202/37 75/189/37 68/196/37 61/195/37
f 60/197/37 69/174/37 76/173/37 66/203/37
f 66/203/37 77/204/37 74/190/37 64/202/37
f 67/205/38 79/172/38 70/171/38 63/198/38
f 65/201/38 73/187/38 78/206/38 67/205/38
f 67/182/5 66/181/5 64/207/5 65/208/5
f 65/208/39 64/207/39 61/209/39 62/210/39
f 62/210/30 61/209/30 60/180/31 63/179/31
f 90/211/28 99/212/29 96/213/29 89/214/28
f 98/215/30 93/216/30 94/217/30 97/218/30
f 83/219/31 80/220/31 86/221/32 87/222/32
f 89/223/28 88/224/5 91/225/5 90/226/28
f 93/227/33 92/228/34 95/229/34 94/230/33
f 97/218/35 96/231/35 99/232/35 98/215/35
f 91/225/36 88/224/36 95/233/34 92/234/34
f 81/235/37 88/236/37 89/214/37 80/237/37
f 83/238/38 90/211/38 91/239/38 82/240/38
f 85/241/38 92/228/38 93/227/38
f 84/242/37 94/230/37 95/229/37
f 86/243/37 96/213/37 97/244/37
f 87/245/38 98/246/38 99/212/38
f 82/240/38 91/239/38 92/228/38 85/241/38
f 84/242/37 95/229/37 88/236/37 81/235/37
f 80/237/37 89/214/37 96/213/37 86/243/37
f 86/243/37 97/244/37 94/230/37 84/242/37
f 87/245/38 99/212/38 90/211/38 83/238/38
f 85/241/38 93/227/38 98/246/38 87/245/38
f 87/222/5 86/221/5 84/247/5 85/248/5
f 85/248/39 84/247/39 81/249/39 82/250/39
f 82/250/30 81/249/30 80/220/31 83/219/31
f 103/251/40 115/252/40 106/253/40
f 101/254/41 105/255/41 107/256/41 102/257/41
f 102/258/42 110/259/42 109/260/42
f 102/261/41 107/262/41 108/263/41 110/264/41
f 105/265/38 101/266/38 100/267/38
f 105/268/41 104/269/41 106/270/41 107/271/41
f 106/253/40 104/272/40 103/251/40
f 107/273/41 106/274/41 116/275/41 108/276/41
f 115/252/40 116/277/40 106/253/40
f 103/278/38 104/279/38 105/265/38
f 119/280/40 117/281/40 115/282/40
f 110/283/41 108/284/41 111/285/41 112/286/41
f 119/287/37 113/288/37 118/289/37
f 112/290/42 114/291/42 113/292/42
f 112/293/41 111/294/41 118/295/41 114/296/41
f 119/297/43 115/298/43 109/299/43 113/300/43
f 108/301/41 116/302/41 117/303/41 111/304/41
f 117/281/40 116/305/40 115/282/40
f 111/306/41 117/307/41 120/308/41 118/309/41
f 119/280/40 120/310/40 117/281/40
f 120/311/37 119/287/37 118/289/37
f 114/312/37 118/289/37 113/288/37
f 103/278/38 105/265/38 100/267/38
f 103/313/43 100/314/43 109/315/43 115/316/43
f 112/290/42 113/292/42 109/317/42
f 101/318/42 102/258/42 100/319/42
f 110/320/42 112/290/42 109/317/42
f 102/258/42 109/260/42 100/319/42
f 131/321/28 140/322/29 137/323/29 130/324/28
f 139/325/30 134/326/30 135/327/30 138/328/30
f 124/329/31 121/330/31 127/331/32 128/332/32
f 130/333/28 129/334/5 132/335/5 131/336/28
f 134/337/33 133/338/34 136/339/34 135/340/33
f 138/328/35 137/341/35 140/342/35 139/325/35
f 132/335/36 129/334/36 136/343/34 133/344/34
f 122/345/37 129/346/37 130/324/37 121/347/37
f 124/348/38 131/321/38 132/349/38 123/350/38
f 126/351/38 133/338/38 134/337/38
f 125/352/37 135/340/37 136/339/37
f 127/353/37 137/323/37 138/354/37
f 128/355/38 139/356/38 140/322/38
f 123/350/38 132/349/38 133/338/38 126/351/38
f 125/352/37 136/339/37 129/346/37 122/345/37
f 121/347/37 130/324/37 137/323/37 127/353/37
f 127/353/37 138/354/37 135/340/37 125/352/37
f 128/355/38 140/322/38 131/321/38 124/348/38
f 126/351/38 134/337/38 139/356/38 128/355/38
f 128/332/5 127/331/5 125/357/5 126/358/5
f 126/358/39 125/357/39 122/359/39 123/360/39
f 123/360/30 122/359/30 121/330/31 124/329/31
f 1/361/30 141/362/30 142/363/30
f 1/364/30 142/363/30 143/365/30
f 1/366/30 143/365/30 144/367/30
f 1/368/30 144/367/30 145/369/30
f 1/370/30 145/369/30 146/371/30
f 1/372/30 146/371/30 147/373/30
f 1/374/30 147/373/30 148/375/30
f 1/376/30 148/375/30 141/362/30
