# Blender v3.4.1 OBJ File: 'SpaceBits_export.blend'
# www.blender.org
mtllib solarpanel.mtl
o solarpanel_Cube.15124
v -0.270000 0.226614 -0.078501
v -0.270000 0.226614 -0.132145
v -0.360000 0.226614 -0.132145
v -0.360000 0.226614 -0.078501
v -0.270000 0.055234 -0.172470
v -0.360000 0.055234 -0.172470
v -0.270000 0.055234 0.097606
v -0.360000 0.055234 0.097606
v -0.270000 0.277267 -0.171094
v -0.270000 0.277267 -0.062361
v -0.360000 0.277267 -0.062361
v -0.360000 0.277267 -0.171094
v -0.360000 0.077886 -0.225001
v -0.360000 -0.000003 -0.189001
v -0.270000 -0.000003 -0.189001
v -0.270000 0.077886 -0.225001
v -0.270000 0.063637 0.152361
v -0.270000 -0.000003 0.126001
v -0.360000 -0.000003 0.126001
v -0.360000 0.063637 0.152361
v -0.450000 0.339096 -0.125021
v -0.450000 0.370916 -0.093201
v -0.225000 0.370916 -0.093201
v -0.450000 0.020898 0.193179
v -0.450000 0.052718 0.224999
v -0.450000 0.211817 0.065899
v -0.225000 0.052718 0.224999
v -0.225000 0.211817 0.065899
v 0.000000 0.211817 0.065899
v 0.000000 0.339096 -0.125021
v 0.000000 0.370916 -0.093201
v 0.225000 0.211817 0.065899
v 0.225000 0.370916 -0.093201
v 0.450000 0.339096 -0.125021
v 0.450000 0.370916 -0.093201
v 0.000000 0.020898 0.193179
v 0.000000 0.052718 0.224999
v 0.225000 0.052718 0.224999
v 0.450000 0.211817 0.065899
v 0.450000 0.020898 0.193179
v 0.450000 0.052718 0.224999
v 0.360000 0.226614 -0.078501
v 0.360000 0.226614 -0.132145
v 0.270000 0.226614 -0.132145
v 0.270000 0.226614 -0.078501
v 0.360000 0.055234 -0.172470
v 0.270000 0.055234 -0.172470
v 0.360000 0.055234 0.097606
v 0.270000 0.055234 0.097606
v 0.360000 0.277267 -0.171094
v 0.360000 0.277267 -0.062361
v 0.270000 0.277267 -0.062361
v 0.270000 0.277267 -0.171094
v 0.270000 0.077886 -0.225001
v 0.270000 -0.000003 -0.189001
v 0.360000 -0.000003 -0.189001
v 0.360000 0.077886 -0.225001
v 0.360000 0.063637 0.152361
v 0.360000 -0.000003 0.126001
v 0.270000 -0.000003 0.126001
v 0.270000 0.063637 0.152361
vt 0.292120 0.909478
vt 0.292120 0.830808
vt 0.330711 0.830808
vt 0.330711 0.909478
vt 0.292120 0.776123
vt 0.292120 0.776123
vt 0.330711 0.776123
vt 0.330711 0.776123
vt 0.292120 0.859576
vt 0.330711 0.859576
vt 0.330711 0.796462
vt 0.292120 0.796462
vt 0.330711 0.940728
vt 0.330711 0.940728
vt 0.292120 0.940728
vt 0.292120 0.940728
vt 0.292120 0.807373
vt 0.292120 0.836053
vt 0.330711 0.836053
vt 0.330711 0.807373
vt 0.330711 0.799558
vt 0.292120 0.799558
vt 0.330711 0.867303
vt 0.292120 0.867303
vt 0.330711 0.890826
vt 0.330711 0.909478
vt 0.330711 0.890826
vt 0.292120 0.890826
vt 0.292120 0.909478
vt 0.292120 0.890826
vt 0.292120 0.827712
vt 0.330711 0.827712
vt 0.330711 0.827712
vt 0.330711 0.807373
vt 0.292120 0.827712
vt 0.292120 0.807373
vt 0.330711 0.796462
vt 0.292120 0.796462
vt 0.330711 0.859576
vt 0.292120 0.859576
vt 0.274560 0.843750
vt 0.336338 0.843750
vt 0.305450 0.856319
vt 0.523404 0.226596
vt 0.523404 0.023404
vt 0.726596 0.023404
vt 0.726596 0.226596
vt 0.305450 0.918819
vt 0.336338 0.918819
vt 0.336338 0.906250
vt 0.523404 0.226596
vt 0.523404 0.023404
vt 0.726596 0.023404
vt 0.726596 0.226596
vt 0.274560 0.887569
vt 0.274560 0.887569
vt 0.274560 0.875000
vt 0.523404 0.226596
vt 0.523404 0.023404
vt 0.726596 0.023404
vt 0.726596 0.226596
vt 0.274560 0.856319
vt 0.523404 0.226596
vt 0.523404 0.023404
vt 0.726596 0.023404
vt 0.726596 0.226596
vt 0.336338 0.856319
vt 0.274560 0.875000
vt 0.274560 0.887569
vt 0.336338 0.843750
vt 0.305450 0.856319
vt 0.274560 0.843750
vt 0.523404 0.226596
vt 0.523404 0.023404
vt 0.726596 0.023404
vt 0.726596 0.226596
vt 0.336338 0.875000
vt 0.336338 0.875000
vt 0.336338 0.887569
vt 0.305450 0.918819
vt 0.336338 0.918819
vt 0.336338 0.906250
vt 0.523404 0.226596
vt 0.523404 0.023404
vt 0.726596 0.023404
vt 0.726596 0.226596
vt 0.336338 0.828125
vt 0.274560 0.828125
vt 0.274560 0.828125
vt 0.336338 0.828125
vt 0.523404 0.226596
vt 0.523404 0.023404
vt 0.726596 0.023404
vt 0.726596 0.226596
vt 0.274560 0.856319
vt 0.523404 0.226596
vt 0.523404 0.023404
vt 0.726596 0.023404
vt 0.726596 0.226596
vt 0.336338 0.856319
vt 0.336338 0.887569
vt 0.336338 0.887569
vt 0.274560 0.828125
vt 0.274560 0.828125
vt 0.336338 0.828125
vt 0.336338 0.828125
vt 0.274560 0.906250
vt 0.274560 0.918819
vt 0.274560 0.906250
vt 0.274560 0.918819
vt 0.293614 0.909478
vt 0.293614 0.830808
vt 0.332218 0.830808
vt 0.332218 0.909478
vt 0.293614 0.776123
vt 0.293614 0.776123
vt 0.332218 0.776123
vt 0.332218 0.776123
vt 0.293614 0.859576
vt 0.332218 0.859576
vt 0.332218 0.796462
vt 0.293614 0.796462
vt 0.332218 0.940728
vt 0.332218 0.940728
vt 0.293614 0.940728
vt 0.293614 0.940728
vt 0.293614 0.807373
vt 0.293614 0.836053
vt 0.332218 0.836053
vt 0.332218 0.807373
vt 0.332218 0.799558
vt 0.293614 0.799558
vt 0.332218 0.867303
vt 0.293614 0.867303
vt 0.332218 0.890826
vt 0.332218 0.909478
vt 0.332218 0.890826
vt 0.293614 0.890826
vt 0.293614 0.909478
vt 0.293614 0.890826
vt 0.293614 0.827712
vt 0.332218 0.827712
vt 0.332218 0.827712
vt 0.332218 0.807373
vt 0.293614 0.827712
vt 0.293614 0.807373
vt 0.332218 0.796462
vt 0.293614 0.796462
vt 0.332218 0.859576
vt 0.293614 0.859576
vn 0.0000 0.9244 0.3815
vn 0.0000 0.7089 0.7053
vn 0.0000 -1.0000 0.0000
vn 0.0000 -0.9265 -0.3764
vn 0.0000 -0.7167 -0.6974
vn 0.0000 1.0000 0.0000
vn 0.0000 -0.4196 -0.9077
vn -0.0000 -0.0843 -0.9964
vn 0.0000 -0.3827 0.9239
vn -0.0000 0.2610 -0.9653
vn 1.0000 0.0000 0.0000
vn -1.0000 -0.0000 0.0000
vn 0.0000 -0.2290 0.9734
vn 0.0000 -0.7071 0.7071
vn 0.0000 0.7071 0.7071
vn 0.0000 0.7071 -0.7071
vn 0.0000 -0.7071 -0.7071
usemtl spacebits_texture
s 1
f 11/1/1 20/2/2 17/3/2 10/4/1
f 19/5/3 14/6/3 15/7/3 18/8/3
f 4/9/4 1/10/4 7/11/5 8/12/5
f 10/13/1 9/14/6 12/15/6 11/16/1
f 14/17/7 13/18/8 16/19/8 15/20/7
f 18/8/9 17/21/9 20/22/9 19/5/9
f 12/15/10 9/14/10 16/23/8 13/24/8
f 2/25/11 9/26/11 10/4/11 1/27/11
f 4/28/12 11/1/12 12/29/12 3/30/12
f 6/31/12 13/18/12 14/17/12
f 5/32/11 15/20/11 16/19/11
f 7/33/11 17/3/11 18/34/11
f 8/35/12 19/36/12 20/2/12
f 3/30/12 12/29/12 13/18/12 6/31/12
f 5/32/11 16/19/11 9/26/11 2/25/11
f 1/27/11 10/4/11 17/3/11 7/33/11
f 7/33/11 18/34/11 15/20/11 5/32/11
f 8/35/12 20/2/12 11/1/12 4/28/12
f 6/31/12 14/17/12 19/36/12 8/35/12
f 8/12/6 7/11/6 5/37/6 6/38/6
f 6/38/13 5/37/13 2/39/13 3/40/13
f 3/40/3 2/39/3 1/10/4 4/9/4
f 24/41/14 36/42/14 27/43/14
f 22/44/15 26/45/15 28/46/15 23/47/15
f 23/48/16 31/49/16 30/50/16
f 23/51/15 28/52/15 29/53/15 31/54/15
f 26/55/12 22/56/12 21/57/12
f 26/58/15 25/59/15 27/60/15 28/61/15
f 27/43/14 25/62/14 24/41/14
f 28/63/15 27/64/15 37/65/15 29/66/15
f 36/42/14 37/67/14 27/43/14
f 24/68/12 25/69/12 26/55/12
f 40/70/14 38/71/14 36/72/14
f 31/73/15 29/74/15 32/75/15 33/76/15
f 40/77/11 34/78/11 39/79/11
f 33/80/16 35/81/16 34/82/16
f 33/83/15 32/84/15 39/85/15 35/86/15
f 40/87/17 36/88/17 30/89/17 34/90/17
f 29/91/15 37/92/15 38/93/15 32/94/15
f 38/71/14 37/95/14 36/72/14
f 32/96/15 38/97/15 41/98/15 39/99/15
f 40/70/14 41/100/14 38/71/14
f 41/101/11 40/77/11 39/79/11
f 35/102/11 39/79/11 34/78/11
f 24/68/12 26/55/12 21/57/12
f 24/103/17 21/104/17 30/105/17 36/106/17
f 33/80/16 34/82/16 30/107/16
f 22/108/16 23/48/16 21/109/16
f 31/110/16 33/80/16 30/107/16
f 23/48/16 30/50/16 21/109/16
f 52/111/1 61/112/2 58/113/2 51/114/1
f 60/115/3 55/116/3 56/117/3 59/118/3
f 45/119/4 42/120/4 48/121/5 49/122/5
f 51/123/1 50/124/6 53/125/6 52/126/1
f 55/127/7 54/128/8 57/129/8 56/130/7
f 59/118/9 58/131/9 61/132/9 60/115/9
f 53/125/10 50/124/10 57/133/8 54/134/8
f 43/135/11 50/136/11 51/114/11 42/137/11
f 45/138/12 52/111/12 53/139/12 44/140/12
f 47/141/12 54/128/12 55/127/12
f 46/142/11 56/130/11 57/129/11
f 48/143/11 58/113/11 59/144/11
f 49/145/12 60/146/12 61/112/12
f 44/140/12 53/139/12 54/128/12 47/141/12
f 46/142/11 57/129/11 50/136/11 43/135/11
f 42/137/11 51/114/11 58/113/11 48/143/11
f 48/143/11 59/144/11 56/130/11 46/142/11
f 49/145/12 61/112/12 52/111/12 45/138/12
f 47/141/12 55/127/12 60/146/12 49/145/12
f 49/122/6 48/121/6 46/147/6 47/148/6
f 47/148/13 46/147/13 43/149/13 44/150/13
f 44/150/3 43/149/3 42/120/4 45/119/4
