# Blender v3.4.1 OBJ File: 'SpaceBits_export.blend'
# www.blender.org
mtllib spacetruck_large_wheel_front_left.mtl
o spacetruck_large_wheel_front_left_Cylinder.2691
v 0.092776 -0.019568 0.119155
v 0.119781 -0.019568 0.099592
v 0.251167 -0.019568 0.119155
v 0.224162 -0.019568 0.099592
v 0.092776 -0.066777 0.131805
v 0.119781 -0.076559 0.114863
v 0.251167 -0.066777 0.131805
v 0.224162 -0.076559 0.114863
v 0.092776 -0.101336 0.166364
v 0.119781 -0.118278 0.156582
v 0.251167 -0.101336 0.166364
v 0.224162 -0.118278 0.156582
v 0.092776 -0.113986 0.213573
v 0.119781 -0.133549 0.213573
v 0.251167 -0.113986 0.213573
v 0.224162 -0.133549 0.213573
v 0.092776 -0.101336 0.260781
v 0.119781 -0.118278 0.270563
v 0.251167 -0.101336 0.260781
v 0.224162 -0.118278 0.270563
v 0.092776 -0.066777 0.295340
v 0.119781 -0.076559 0.312283
v 0.251167 -0.066777 0.295340
v 0.224162 -0.076559 0.312283
v 0.092776 -0.019568 0.307990
v 0.119781 -0.019568 0.327553
v 0.251167 -0.019568 0.307990
v 0.224162 -0.019568 0.327553
v 0.092776 0.027640 0.295340
v 0.119781 0.037422 0.312283
v 0.251167 0.027640 0.295340
v 0.224162 0.037422 0.312283
v 0.092776 0.062199 0.260781
v 0.119781 0.079142 0.270563
v 0.251167 0.062199 0.260781
v 0.224162 0.079142 0.270563
v 0.092776 0.074849 0.213573
v 0.119781 0.094412 0.213573
v 0.251167 0.074849 0.213573
v 0.224162 0.094412 0.213573
v 0.092776 0.062199 0.166364
v 0.119781 0.079142 0.156582
v 0.251167 0.062199 0.166364
v 0.224162 0.079142 0.156582
v 0.092776 0.027640 0.131805
v 0.119781 0.037422 0.114863
v 0.251167 0.027640 0.131805
v 0.224162 0.037422 0.114863
v 0.090256 -0.019568 0.213573
v 0.252282 -0.043048 0.172905
v 0.252282 -0.019568 0.166613
v 0.252282 0.003911 0.172905
v 0.252282 0.021099 0.190093
v 0.252282 0.027391 0.213573
v 0.252282 0.021100 0.237052
v 0.252282 0.003911 0.254241
v 0.252282 -0.019568 0.260532
v 0.252282 -0.043048 0.254241
v 0.252282 -0.060237 0.237052
v 0.252282 -0.066528 0.213573
v 0.252282 -0.060236 0.190093
v 0.236926 -0.019568 0.178583
v 0.236926 -0.037063 0.183270
v 0.236926 -0.049870 0.196077
v 0.236926 -0.002073 0.183270
v 0.236926 0.010734 0.196077
v 0.236926 0.015421 0.213572
v 0.236926 0.010734 0.231067
v 0.236926 -0.002073 0.243874
v 0.236927 -0.019568 0.248562
v 0.236927 -0.037063 0.243874
v 0.236926 -0.049870 0.231067
v 0.236926 -0.054558 0.213572
v 0.249494 -0.019568 0.213572
vt 0.789064 0.633872
vt 0.838376 0.652865
vt 0.838376 0.614954
vt 0.789064 0.595961
vt 0.789064 0.530303
vt 0.838376 0.549296
vt 0.838376 0.539136
vt 0.789064 0.520143
vt 0.838376 0.549296
vt 0.789064 0.530303
vt 0.838376 0.577047
vt 0.789064 0.558054
vt 0.838376 0.614954
vt 0.789064 0.595961
vt 0.838376 0.652865
vt 0.789064 0.633872
vt 0.838376 0.680616
vt 0.789064 0.661623
vt 0.838376 0.690773
vt 0.789064 0.671780
vt 0.838376 0.680616
vt 0.789064 0.661623
vt 0.789064 0.558054
vt 0.838376 0.577047
vt 0.557767 0.935938
vt 0.557767 0.944852
vt 0.549036 0.930742
vt 0.549036 0.923717
vt 0.789064 0.620890
vt 0.789064 0.582982
vt 0.781613 0.586838
vt 0.781613 0.620890
vt 0.838376 0.601975
vt 0.838376 0.639883
vt 0.845826 0.620890
vt 0.845826 0.586838
vt 0.789064 0.555231
vt 0.781613 0.561911
vt 0.838376 0.574224
vt 0.845826 0.561911
vt 0.789064 0.545071
vt 0.781613 0.552787
vt 0.838376 0.564064
vt 0.845826 0.552787
vt 0.789064 0.555231
vt 0.781613 0.561911
vt 0.838376 0.574224
vt 0.845826 0.561911
vt 0.789064 0.582982
vt 0.781613 0.586838
vt 0.838376 0.601975
vt 0.845826 0.586838
vt 0.789064 0.620890
vt 0.781613 0.620890
vt 0.838376 0.639883
vt 0.845826 0.620890
vt 0.789064 0.658800
vt 0.781613 0.654944
vt 0.838376 0.677794
vt 0.845826 0.654944
vt 0.789064 0.686551
vt 0.781613 0.679871
vt 0.838376 0.705544
vt 0.845826 0.679871
vt 0.789064 0.696708
vt 0.781613 0.688996
vt 0.838376 0.715701
vt 0.845826 0.688996
vt 0.789064 0.686551
vt 0.781613 0.679871
vt 0.838376 0.705544
vt 0.845826 0.679871
vt 0.789064 0.658800
vt 0.781613 0.654944
vt 0.838376 0.677794
vt 0.845826 0.654944
vt 0.781613 0.587652
vt 0.781613 0.553600
vt 0.781613 0.587652
vt 0.781613 0.528674
vt 0.781613 0.519549
vt 0.781613 0.528674
vt 0.781613 0.553600
vt 0.781613 0.587652
vt 0.781613 0.621706
vt 0.781613 0.646633
vt 0.781613 0.655758
vt 0.781613 0.646633
vt 0.781613 0.621706
vt 0.845826 0.620890
vt 0.845826 0.599848
vt 0.845826 0.641931
vt 0.845826 0.657336
vt 0.845826 0.662973
vt 0.845826 0.657336
vt 0.845826 0.641931
vt 0.845826 0.620890
vt 0.845826 0.599848
vt 0.845826 0.584446
vt 0.845826 0.578807
vt 0.845826 0.584446
vt 0.557767 0.811737
vt 0.557767 0.820656
vt 0.549036 0.832877
vt 0.549036 0.825847
vt 0.557767 0.845016
vt 0.549036 0.852073
vt 0.557767 0.878295
vt 0.557767 0.845016
vt 0.549036 0.852073
vt 0.549036 0.878295
vt 0.557767 0.935938
vt 0.549036 0.923717
vt 0.557767 0.878295
vt 0.557767 0.911574
vt 0.549036 0.904521
vt 0.549036 0.878295
vt 0.557767 0.820656
vt 0.549036 0.832877
vt 0.557767 0.911574
vt 0.549036 0.904521
vt 0.571470 0.828705
vt 0.577761 0.870890
vt 0.571470 0.797823
vt 0.571470 0.943964
vt 0.571470 0.913082
vt 0.571470 0.955266
vt 0.571470 0.943964
vt 0.571470 0.913082
vt 0.571470 0.870890
vt 0.571470 0.828705
vt 0.571470 0.797823
vt 0.571470 0.786513
vt 0.571470 0.870890
vn -0.2944 0.4778 -0.8276
vn 0.2944 0.4778 -0.8276
vn 0.2944 0.0000 -0.9557
vn -0.2944 -0.0000 -0.9557
vn -0.2944 -0.8276 -0.4778
vn 0.2944 -0.8276 -0.4778
vn 0.2944 -0.9557 -0.0000
vn -0.2944 -0.9557 -0.0000
vn 0.2944 -0.8276 0.4778
vn -0.2944 -0.8276 0.4778
vn 0.2944 -0.4778 0.8276
vn -0.2944 -0.4778 0.8276
vn 0.2944 -0.0000 0.9557
vn -0.2944 -0.0000 0.9557
vn 0.2944 0.4778 0.8276
vn -0.2944 0.4778 0.8276
vn 0.2944 0.8276 0.4778
vn -0.2944 0.8276 0.4778
vn 0.2944 0.9557 0.0000
vn -0.2944 0.9557 0.0000
vn 0.2944 0.8276 -0.4778
vn -0.2944 0.8276 -0.4778
vn -0.2944 -0.4778 -0.8276
vn 0.2944 -0.4778 -0.8276
vn 0.6148 -0.6830 0.3944
vn 0.6148 -0.7887 -0.0000
vn -0.5867 -0.4049 -0.7013
vn -0.5867 -0.0000 -0.8098
vn 0.5867 0.0000 -0.8098
vn 0.5867 -0.4049 -0.7013
vn -0.5867 -0.7013 -0.4049
vn 0.5867 -0.7013 -0.4049
vn -0.5867 -0.8098 -0.0000
vn 0.5867 -0.8098 -0.0000
vn -0.5867 -0.7013 0.4049
vn 0.5867 -0.7013 0.4049
vn -0.5867 -0.4049 0.7013
vn 0.5867 -0.4049 0.7013
vn -0.5867 -0.0000 0.8098
vn 0.5867 0.0000 0.8098
vn -0.5867 0.4049 0.7013
vn 0.5867 0.4049 0.7013
vn -0.5867 0.7013 0.4049
vn 0.5867 0.7013 0.4049
vn -0.5867 0.8098 -0.0000
vn 0.5867 0.8098 0.0000
vn -0.5867 0.7013 -0.4049
vn 0.5867 0.7013 -0.4049
vn -0.5867 0.4049 -0.7013
vn 0.5867 0.4049 -0.7013
vn -0.9996 0.0000 -0.0267
vn -0.9996 -0.0133 -0.0231
vn -1.0000 -0.0000 0.0000
vn -0.9996 -0.0231 -0.0133
vn -0.9996 -0.0267 -0.0000
vn -0.9996 -0.0231 0.0133
vn -0.9996 -0.0133 0.0231
vn -0.9996 -0.0000 0.0267
vn -0.9996 0.0133 0.0231
vn -0.9996 0.0231 0.0133
vn -0.9996 0.0267 -0.0000
vn -0.9996 0.0231 -0.0133
vn -0.9996 0.0133 -0.0231
vn 0.9997 -0.0117 -0.0203
vn 0.9997 -0.0000 -0.0235
vn 0.9997 0.0117 -0.0203
vn 0.9997 0.0203 -0.0117
vn 0.9997 0.0235 -0.0000
vn 0.9997 0.0204 0.0117
vn 0.9997 0.0118 0.0204
vn 0.9997 0.0000 0.0235
vn 0.9997 -0.0118 0.0204
vn 0.9997 -0.0204 0.0118
vn 0.9997 -0.0235 -0.0000
vn 0.9997 -0.0203 -0.0117
vn 0.6148 0.7887 -0.0000
vn 0.6148 0.6830 0.3944
vn 0.6148 0.3944 0.6830
vn 0.6148 0.0000 -0.7887
vn 0.6148 0.3943 -0.6830
vn 0.6148 -0.6830 -0.3943
vn 0.6148 0.0000 0.7887
vn 0.6148 -0.3944 0.6830
vn 0.6148 -0.3944 0.6831
vn 0.6148 0.6830 -0.3943
vn 0.6148 -0.3943 -0.6830
vn 0.9411 -0.1690 -0.2927
vn 1.0000 0.0000 -0.0000
vn 0.9411 -0.2927 -0.1690
vn 0.9411 0.2927 -0.1690
vn 0.9411 0.1690 -0.2927
vn 0.9411 0.3380 -0.0000
vn 0.9411 0.2927 0.1690
vn 0.9411 0.1690 0.2927
vn 0.9411 0.0000 0.3380
vn 0.9411 -0.1690 0.2927
vn 0.9411 -0.2927 0.1690
vn 0.9411 -0.3380 -0.0000
vn 0.9411 0.0000 -0.3380
usemtl spacebits_texture
s 1
f 46/1/1 48/2/2 4/3/3 2/4/4
f 10/5/5 12/6/6 16/7/7 14/8/8
f 14/8/8 16/7/7 20/9/9 18/10/10
f 18/10/10 20/9/9 24/11/11 22/12/12
f 22/12/12 24/11/11 28/13/13 26/14/14
f 26/14/14 28/13/13 32/15/15 30/16/16
f 30/16/16 32/15/15 36/17/17 34/18/18
f 34/18/18 36/17/17 40/19/19 38/20/20
f 38/20/20 40/19/19 44/21/21 42/22/22
f 42/22/22 44/21/21 48/2/2 46/1/1
f 6/23/23 8/24/24 12/6/6 10/5/5
f 53/25/25 54/26/26 67/27/26 66/28/25
f 2/4/4 4/3/3 8/24/24 6/23/23
f 2/29/4 6/30/23 5/31/27 1/32/28
f 8/33/24 4/34/3 3/35/29 7/36/30
f 6/30/23 10/37/5 9/38/31 5/31/27
f 12/39/6 8/33/24 7/36/30 11/40/32
f 10/37/5 14/41/8 13/42/33 9/38/31
f 16/43/7 12/39/6 11/40/32 15/44/34
f 14/41/8 18/45/10 17/46/35 13/42/33
f 20/47/9 16/43/7 15/44/34 19/48/36
f 18/45/10 22/49/12 21/50/37 17/46/35
f 24/51/11 20/47/9 19/48/36 23/52/38
f 22/49/12 26/53/14 25/54/39 21/50/37
f 28/55/13 24/51/11 23/52/38 27/56/40
f 26/53/14 30/57/16 29/58/41 25/54/39
f 32/59/15 28/55/13 27/56/40 31/60/42
f 30/57/16 34/61/18 33/62/43 29/58/41
f 36/63/17 32/59/15 31/60/42 35/64/44
f 34/61/18 38/65/20 37/66/45 33/62/43
f 40/67/19 36/63/17 35/64/44 39/68/46
f 38/65/20 42/69/22 41/70/47 37/66/45
f 44/71/21 40/67/19 39/68/46 43/72/48
f 42/69/22 46/73/1 45/74/49 41/70/47
f 48/75/2 44/71/21 43/72/48 47/76/50
f 46/73/1 2/29/4 1/32/28 45/74/49
f 4/34/3 48/75/2 47/76/50 3/35/29
f 1/77/51 5/78/52 49/79/53
f 5/78/52 9/80/54 49/79/53
f 9/80/54 13/81/55 49/79/53
f 13/81/55 17/82/56 49/79/53
f 17/82/56 21/83/57 49/79/53
f 21/83/57 25/84/58 49/79/53
f 25/84/58 29/85/59 49/79/53
f 29/85/59 33/86/60 49/79/53
f 33/86/60 37/87/61 49/79/53
f 37/87/61 41/88/62 49/79/53
f 41/88/62 45/89/63 49/79/53
f 45/89/63 1/77/51 49/79/53
f 7/36/64 3/35/65 51/90/65 50/91/64
f 3/35/65 47/76/66 52/92/66 51/90/65
f 47/76/66 43/72/67 53/93/67 52/92/66
f 43/72/67 39/68/68 54/94/68 53/93/67
f 39/68/68 35/64/69 55/95/69 54/94/68
f 35/64/69 31/60/70 56/96/70 55/95/69
f 31/60/70 27/56/71 57/97/71 56/96/70
f 27/56/71 23/52/72 58/98/72 57/97/71
f 23/52/72 19/48/73 59/99/73 58/98/72
f 19/48/73 15/44/74 60/100/74 59/99/73
f 15/44/74 11/40/75 61/101/75 60/100/74
f 11/40/75 7/36/64 50/91/64 61/101/75
f 60/102/76 61/103/77 64/104/77 73/105/76
f 61/103/77 50/106/78 63/107/78 64/104/77
f 57/108/79 58/109/80 71/110/80 70/111/79
f 54/26/26 55/112/81 68/113/81 67/27/26
f 51/114/82 52/115/83 65/116/84 62/117/82
f 58/109/80 59/118/85 72/119/85 71/110/80
f 55/112/81 56/120/86 69/121/86 68/113/81
f 52/115/83 53/25/25 66/28/25 65/116/84
f 59/118/85 60/102/76 73/105/76 72/119/85
f 50/106/78 51/114/82 62/117/82 63/107/78
f 56/120/86 57/108/79 70/111/79 69/121/86
f 63/122/87 74/123/88 64/124/89
f 66/125/90 74/123/88 65/126/91
f 67/127/92 74/123/88 66/125/90
f 68/128/93 74/123/88 67/127/92
f 69/129/94 74/123/88 68/128/93
f 70/130/95 74/123/88 69/129/94
f 71/131/96 74/123/88 70/130/95
f 72/132/97 74/123/88 71/131/96
f 73/133/98 74/123/88 72/132/97
f 64/124/89 74/123/88 73/133/98
f 65/126/91 74/123/88 62/134/99
f 62/134/99 74/123/88 63/122/87
