# Blender v3.4.1 OBJ File: 'SpaceBits_export.blend'
# www.blender.org
mtllib spacetruck_wheel_rear_left.mtl
o spacetruck_wheel_rear_left_Cylinder.2703
v 0.127194 0.009782 -0.286235
v 0.142467 0.009782 -0.301284
v 0.216771 0.009782 -0.286235
v 0.201499 0.009782 -0.301284
v 0.127194 -0.026532 -0.276505
v 0.142467 -0.034057 -0.289537
v 0.216771 -0.026532 -0.276505
v 0.201499 -0.034057 -0.289537
v 0.127194 -0.053116 -0.249921
v 0.142467 -0.066149 -0.257445
v 0.216771 -0.053116 -0.249921
v 0.201499 -0.066149 -0.257445
v 0.127194 -0.062847 -0.213606
v 0.142467 -0.077895 -0.213606
v 0.216771 -0.062847 -0.213606
v 0.201499 -0.077895 -0.213606
v 0.127194 -0.053116 -0.177292
v 0.142467 -0.066149 -0.169768
v 0.216771 -0.053116 -0.177292
v 0.201499 -0.066149 -0.169768
v 0.127194 -0.026532 -0.150708
v 0.142467 -0.034057 -0.137676
v 0.216771 -0.026532 -0.150708
v 0.201499 -0.034057 -0.137676
v 0.127194 0.009782 -0.140978
v 0.142467 0.009782 -0.125929
v 0.216771 0.009782 -0.140978
v 0.201499 0.009782 -0.125929
v 0.127194 0.046096 -0.150708
v 0.142467 0.053621 -0.137676
v 0.216771 0.046096 -0.150708
v 0.201499 0.053621 -0.137676
v 0.127194 0.072680 -0.177292
v 0.142467 0.085713 -0.169768
v 0.216771 0.072680 -0.177292
v 0.201499 0.085713 -0.169768
v 0.127194 0.082411 -0.213606
v 0.142467 0.097459 -0.213606
v 0.216771 0.082411 -0.213606
v 0.201499 0.097459 -0.213606
v 0.127194 0.072680 -0.249921
v 0.142467 0.085713 -0.257445
v 0.216771 0.072680 -0.249921
v 0.201499 0.085713 -0.257445
v 0.127194 0.046096 -0.276505
v 0.142467 0.053621 -0.289537
v 0.216771 0.046096 -0.276505
v 0.201499 0.053621 -0.289537
v 0.125769 0.009782 -0.213606
v 0.217402 -0.008279 -0.244889
v 0.217402 0.009782 -0.249729
v 0.217402 0.027843 -0.244889
v 0.217402 0.041065 -0.231668
v 0.217402 0.045905 -0.213606
v 0.217402 0.041065 -0.195545
v 0.217402 0.027843 -0.182323
v 0.217402 0.009782 -0.177484
v 0.217402 -0.008279 -0.182323
v 0.217402 -0.021501 -0.195545
v 0.217402 -0.026341 -0.213606
v 0.217402 -0.021501 -0.231668
v 0.208717 0.009782 -0.240522
v 0.208718 -0.003675 -0.236916
v 0.208718 -0.013527 -0.227064
v 0.208717 0.023240 -0.236916
v 0.208718 0.033091 -0.227064
v 0.208718 0.036697 -0.213607
v 0.208718 0.033091 -0.200149
v 0.208718 0.023240 -0.190297
v 0.208718 0.009782 -0.186691
v 0.208718 -0.003676 -0.190297
v 0.208718 -0.013527 -0.200149
v 0.208718 -0.017133 -0.213607
v 0.215825 0.009782 -0.213607
vt 0.789064 0.633872
vt 0.838376 0.652865
vt 0.838376 0.614954
vt 0.789064 0.595961
vt 0.789064 0.530303
vt 0.838376 0.549296
vt 0.838376 0.539136
vt 0.789064 0.520143
vt 0.838376 0.549296
vt 0.789064 0.530303
vt 0.838376 0.577047
vt 0.789064 0.558054
vt 0.838376 0.614954
vt 0.789064 0.595961
vt 0.838376 0.652865
vt 0.789064 0.633872
vt 0.838376 0.680616
vt 0.789064 0.661623
vt 0.838376 0.690773
vt 0.789064 0.671780
vt 0.838376 0.680616
vt 0.789064 0.661623
vt 0.789064 0.558054
vt 0.838376 0.577047
vt 0.557767 0.935938
vt 0.557767 0.944852
vt 0.549036 0.930742
vt 0.549036 0.923717
vt 0.789064 0.620890
vt 0.789064 0.582982
vt 0.781613 0.586838
vt 0.781613 0.620890
vt 0.838376 0.601975
vt 0.838376 0.639883
vt 0.845826 0.620890
vt 0.845826 0.586838
vt 0.789064 0.555231
vt 0.781613 0.561911
vt 0.838376 0.574224
vt 0.845826 0.561911
vt 0.789064 0.545071
vt 0.781613 0.552787
vt 0.838376 0.564064
vt 0.845826 0.552787
vt 0.789064 0.555231
vt 0.781613 0.561911
vt 0.838376 0.574224
vt 0.845826 0.561911
vt 0.789064 0.582982
vt 0.781613 0.586838
vt 0.838376 0.601975
vt 0.845826 0.586838
vt 0.789064 0.620890
vt 0.781613 0.620890
vt 0.838376 0.639883
vt 0.845826 0.620890
vt 0.789064 0.658800
vt 0.781613 0.654944
vt 0.838376 0.677794
vt 0.845826 0.654944
vt 0.789064 0.686551
vt 0.781613 0.679871
vt 0.838376 0.705544
vt 0.845826 0.679871
vt 0.789064 0.696708
vt 0.781613 0.688996
vt 0.838376 0.715701
vt 0.845826 0.688996
vt 0.789064 0.686551
vt 0.781613 0.679871
vt 0.838376 0.705544
vt 0.845826 0.679871
vt 0.789064 0.658800
vt 0.781613 0.654944
vt 0.838376 0.677794
vt 0.845826 0.654944
vt 0.781613 0.587652
vt 0.781613 0.553600
vt 0.781613 0.587652
vt 0.781613 0.528674
vt 0.781613 0.519549
vt 0.781613 0.528674
vt 0.781613 0.553600
vt 0.781613 0.587652
vt 0.781613 0.621706
vt 0.781613 0.646633
vt 0.781613 0.655758
vt 0.781613 0.646633
vt 0.781613 0.621706
vt 0.845826 0.620890
vt 0.845826 0.599848
vt 0.845826 0.641931
vt 0.845826 0.657336
vt 0.845826 0.662973
vt 0.845826 0.657336
vt 0.845826 0.641931
vt 0.845826 0.620890
vt 0.845826 0.599848
vt 0.845826 0.584446
vt 0.845826 0.578807
vt 0.845826 0.584446
vt 0.557767 0.811737
vt 0.557767 0.820656
vt 0.549036 0.832877
vt 0.549036 0.825847
vt 0.557767 0.845016
vt 0.549036 0.852073
vt 0.557767 0.878295
vt 0.557767 0.845016
vt 0.549036 0.852073
vt 0.549036 0.878295
vt 0.557767 0.935938
vt 0.549036 0.923717
vt 0.557767 0.878295
vt 0.557767 0.911574
vt 0.549036 0.904521
vt 0.549036 0.878295
vt 0.557767 0.820656
vt 0.549036 0.832877
vt 0.557767 0.911574
vt 0.549036 0.904521
vt 0.571470 0.828705
vt 0.577761 0.870890
vt 0.571470 0.797823
vt 0.571470 0.943964
vt 0.571470 0.913082
vt 0.571470 0.955266
vt 0.571470 0.943964
vt 0.571470 0.913082
vt 0.571470 0.870890
vt 0.571470 0.828705
vt 0.571470 0.797823
vt 0.571470 0.786513
vt 0.571470 0.870890
vn -0.0000 0.5000 -0.8660
vn -0.0000 -0.0000 -1.0000
vn -0.0000 -0.8660 -0.5000
vn 0.0000 -1.0000 -0.0000
vn 0.0000 -0.8660 0.5000
vn 0.0000 -0.5000 0.8660
vn 0.0000 -0.0000 1.0000
vn 0.0000 0.5000 0.8660
vn 0.0000 0.8660 0.5000
vn 0.0000 1.0000 0.0000
vn -0.0000 0.8660 -0.5000
vn -0.0000 -0.5000 -0.8660
vn 0.7274 -0.5942 0.3431
vn 0.7275 -0.6862 -0.0000
vn -0.7019 -0.0000 -0.7123
vn -0.7019 -0.3562 -0.6169
vn 0.7019 -0.3562 -0.6169
vn 0.7019 0.0000 -0.7123
vn -0.7019 -0.6169 -0.3562
vn 0.7019 -0.6169 -0.3562
vn -0.7019 -0.7123 -0.0000
vn 0.7019 -0.7123 -0.0000
vn -0.7019 -0.6169 0.3562
vn 0.7019 -0.6169 0.3562
vn -0.7019 -0.3562 0.6169
vn 0.7019 -0.3562 0.6169
vn -0.7019 -0.0000 0.7123
vn 0.7019 -0.0000 0.7123
vn -0.7019 0.3562 0.6169
vn 0.7019 0.3562 0.6169
vn -0.7019 0.6169 0.3562
vn 0.7019 0.6169 0.3562
vn -0.7019 0.7123 -0.0000
vn 0.7019 0.7123 0.0000
vn -0.7019 0.6169 -0.3562
vn 0.7019 0.6169 -0.3562
vn -0.7019 0.3562 -0.6169
vn 0.7019 0.3562 -0.6169
vn -0.9998 0.0000 -0.0196
vn -0.9998 -0.0098 -0.0170
vn -1.0000 -0.0000 -0.0000
vn -0.9998 -0.0170 -0.0098
vn -0.9998 -0.0196 -0.0000
vn -0.9998 -0.0170 0.0098
vn -0.9998 -0.0098 0.0170
vn -0.9998 -0.0000 0.0196
vn -0.9998 0.0098 0.0170
vn -0.9998 0.0170 0.0098
vn -0.9998 0.0196 -0.0000
vn -0.9998 0.0170 -0.0098
vn -0.9998 0.0098 -0.0170
vn 0.9999 -0.0086 -0.0150
vn 0.9999 -0.0000 -0.0173
vn 0.9999 0.0086 -0.0150
vn 0.9999 0.0150 -0.0086
vn 0.9999 0.0173 -0.0000
vn 0.9999 0.0150 0.0086
vn 0.9999 0.0086 0.0150
vn 0.9999 0.0000 0.0173
vn 0.9999 -0.0086 0.0150
vn 0.9999 -0.0150 0.0086
vn 0.9999 -0.0173 -0.0000
vn 0.9999 -0.0150 -0.0086
vn 0.7275 0.6861 -0.0000
vn 0.7275 0.5942 0.3431
vn 0.7274 0.3431 0.5942
vn 0.7275 0.0000 -0.6861
vn 0.7275 0.3431 -0.5942
vn 0.7275 -0.5942 -0.3431
vn 0.7274 0.0000 0.6862
vn 0.7274 -0.3431 0.5942
vn 0.7275 0.5942 -0.3431
vn 0.7275 -0.3431 -0.5942
vn 0.9669 -0.1277 -0.2211
vn 1.0000 0.0000 -0.0000
vn 0.9669 -0.2211 -0.1277
vn 0.9669 0.2211 -0.1277
vn 0.9669 0.1277 -0.2211
vn 0.9669 0.2553 -0.0000
vn 0.9669 0.2211 0.1277
vn 0.9669 0.1277 0.2211
vn 0.9669 0.0000 0.2553
vn 0.9669 -0.1277 0.2211
vn 0.9669 -0.2211 0.1277
vn 0.9669 -0.2553 -0.0000
vn 0.9669 0.0000 -0.2553
usemtl spacebits_texture
s 1
f 46/1/1 48/2/1 4/3/2 2/4/2
f 10/5/3 12/6/3 16/7/4 14/8/4
f 14/8/4 16/7/4 20/9/5 18/10/5
f 18/10/5 20/9/5 24/11/6 22/12/6
f 22/12/6 24/11/6 28/13/7 26/14/7
f 26/14/7 28/13/7 32/15/8 30/16/8
f 30/16/8 32/15/8 36/17/9 34/18/9
f 34/18/9 36/17/9 40/19/10 38/20/10
f 38/20/10 40/19/10 44/21/11 42/22/11
f 42/22/11 44/21/11 48/2/1 46/1/1
f 6/23/12 8/24/12 12/6/3 10/5/3
f 53/25/13 54/26/14 67/27/14 66/28/13
f 2/4/2 4/3/2 8/24/12 6/23/12
f 2/29/15 6/30/16 5/31/16 1/32/15
f 8/33/17 4/34/18 3/35/18 7/36/17
f 6/30/16 10/37/19 9/38/19 5/31/16
f 12/39/20 8/33/17 7/36/17 11/40/20
f 10/37/19 14/41/21 13/42/21 9/38/19
f 16/43/22 12/39/20 11/40/20 15/44/22
f 14/41/21 18/45/23 17/46/23 13/42/21
f 20/47/24 16/43/22 15/44/22 19/48/24
f 18/45/23 22/49/25 21/50/25 17/46/23
f 24/51/26 20/47/24 19/48/24 23/52/26
f 22/49/25 26/53/27 25/54/27 21/50/25
f 28/55/28 24/51/26 23/52/26 27/56/28
f 26/53/27 30/57/29 29/58/29 25/54/27
f 32/59/30 28/55/28 27/56/28 31/60/30
f 30/57/29 34/61/31 33/62/31 29/58/29
f 36/63/32 32/59/30 31/60/30 35/64/32
f 34/61/31 38/65/33 37/66/33 33/62/31
f 40/67/34 36/63/32 35/64/32 39/68/34
f 38/65/33 42/69/35 41/70/35 37/66/33
f 44/71/36 40/67/34 39/68/34 43/72/36
f 42/69/35 46/73/37 45/74/37 41/70/35
f 48/75/38 44/71/36 43/72/36 47/76/38
f 46/73/37 2/29/15 1/32/15 45/74/37
f 4/34/18 48/75/38 47/76/38 3/35/18
f 1/77/39 5/78/40 49/79/41
f 5/78/40 9/80/42 49/79/41
f 9/80/42 13/81/43 49/79/41
f 13/81/43 17/82/44 49/79/41
f 17/82/44 21/83/45 49/79/41
f 21/83/45 25/84/46 49/79/41
f 25/84/46 29/85/47 49/79/41
f 29/85/47 33/86/48 49/79/41
f 33/86/48 37/87/49 49/79/41
f 37/87/49 41/88/50 49/79/41
f 41/88/50 45/89/51 49/79/41
f 45/89/51 1/77/39 49/79/41
f 7/36/52 3/35/53 51/90/53 50/91/52
f 3/35/53 47/76/54 52/92/54 51/90/53
f 47/76/54 43/72/55 53/93/55 52/92/54
f 43/72/55 39/68/56 54/94/56 53/93/55
f 39/68/56 35/64/57 55/95/57 54/94/56
f 35/64/57 31/60/58 56/96/58 55/95/57
f 31/60/58 27/56/59 57/97/59 56/96/58
f 27/56/59 23/52/60 58/98/60 57/97/59
f 23/52/60 19/48/61 59/99/61 58/98/60
f 19/48/61 15/44/62 60/100/62 59/99/61
f 15/44/62 11/40/63 61/101/63 60/100/62
f 11/40/63 7/36/52 50/91/52 61/101/63
f 60/102/64 61/103/65 64/104/65 73/105/64
f 61/103/65 50/106/66 63/107/66 64/104/65
f 57/108/67 58/109/68 71/110/68 70/111/67
f 54/26/14 55/112/69 68/113/69 67/27/14
f 51/114/70 52/115/71 65/116/71 62/117/70
f 58/109/68 59/118/72 72/119/72 71/110/68
f 55/112/69 56/120/73 69/121/73 68/113/69
f 52/115/71 53/25/13 66/28/13 65/116/71
f 59/118/72 60/102/64 73/105/64 72/119/72
f 50/106/66 51/114/70 62/117/70 63/107/66
f 56/120/73 57/108/67 70/111/67 69/121/73
f 63/122/74 74/123/75 64/124/76
f 66/125/77 74/123/75 65/126/78
f 67/127/79 74/123/75 66/125/77
f 68/128/80 74/123/75 67/127/79
f 69/129/81 74/123/75 68/128/80
f 70/130/82 74/123/75 69/129/81
f 71/131/83 74/123/75 70/130/82
f 72/132/84 74/123/75 71/131/83
f 73/133/85 74/123/75 72/132/84
f 64/124/76 74/123/75 73/133/85
f 65/126/78 74/123/75 62/134/86
f 62/134/86 74/123/75 63/122/74
