# Blender v3.4.1 OBJ File: 'SpaceBits_export.blend'
# www.blender.org
mtllib terrain_slope_inner_corner.mtl
o terrain_slope_inner_corner_Cube.15118
v -1.000000 -1.000000 1.000000
v -1.000000 0.000000 1.000000
v -1.000000 -1.000000 -1.000000
v -1.000000 1.000000 -1.000000
v 1.000000 -1.000000 1.000000
v 1.000000 1.000000 1.000000
v 1.000000 -1.000000 -1.000000
v 1.000000 1.000000 -1.000000
v -1.000000 0.929289 0.070711
v -1.000000 1.000000 -0.100000
v -1.000000 0.900000 0.000000
v -1.000000 0.979289 -0.008579
v 0.100000 1.000000 -0.100000
v -0.070711 0.929289 0.070711
v 0.008579 0.979289 -0.008579
v 0.100000 1.000000 1.000000
v -0.070711 0.929289 1.000000
v 0.000000 0.900000 1.000000
v 0.008579 0.979289 1.000000
vt 0.934094 0.959670
vt 0.934094 0.959670
vt 0.961462 0.959670
vt 0.961462 0.959670
vt 0.961462 0.888040
vt 0.934094 0.888040
vt 0.931053 0.884143
vt 0.900644 0.849070
vt 0.900644 0.885284
vt 0.900644 0.884143
vt 0.928903 0.885284
vt 0.900644 0.880320
vt 0.928903 0.916534
vt 0.928903 0.916534
vt 0.961462 0.888040
vt 0.961462 0.810100
vt 0.961462 0.810100
vt 0.900644 0.916534
vt 0.928903 0.885284
vt 0.900644 0.959670
vt 0.900644 0.959670
vt 0.900644 0.888040
vt 0.900644 0.810100
vt 0.900644 0.887233
vt 0.900644 0.888040
vt 0.931314 0.887233
vt 0.934094 0.919290
vt 0.934094 0.919290
vt 0.931314 0.918483
vt 0.931314 0.918483
vt 0.931314 0.887233
vt 0.900644 0.918483
vt 0.934094 0.888040
vt 0.900644 0.919290
vt 0.900644 0.810100
vt 0.900644 0.794475
vt 0.900644 0.794475
vt 0.961462 0.794475
vt 0.961462 0.794475
vn -0.0281 0.9992 0.0281
vn -0.1112 0.9938 0.0000
vn 0.0000 1.0000 0.0000
vn 0.0000 0.0000 1.0000
vn -1.0000 -0.0000 0.0000
vn -0.7071 0.7071 0.0000
vn -0.6241 0.7813 0.0000
vn -0.3232 0.8895 0.3232
vn 1.0000 0.0000 0.0000
vn -0.0000 0.7813 0.6241
vn 0.0000 0.7071 0.7071
vn -0.0000 0.9938 0.1112
vn 0.0000 0.0000 -1.0000
vn -0.1583 0.9746 0.1583
vn -0.3827 0.9239 0.0000
vn -0.0000 0.9239 0.3827
vn 0.0000 -1.0000 0.0000
usemtl spacebits_texture
s 1
f 13/1/1 16/2/2 6/3/3 8/4/3
f 6/5/4 16/6/4 18/7/4
f 2/8/5 9/9/5 11/10/5
f 18/7/4 17/11/4 2/8/4
f 2/12/6 17/13/7 14/14/8
f 8/15/9 6/5/9 5/16/9 7/17/9
f 9/18/10 2/12/11 14/19/8
f 4/20/3 10/21/12 13/1/1 8/4/3
f 4/22/13 8/15/13 7/17/13 3/23/13
f 9/9/5 12/24/5 11/10/5
f 12/24/5 10/25/5 11/10/5
f 16/6/4 19/26/4 18/7/4
f 19/26/4 17/11/4 18/7/4
f 16/27/2 13/28/1 15/29/14 19/30/15
f 19/30/15 15/29/14 14/14/8 17/13/7
f 9/18/10 14/19/8 15/31/14 12/32/16
f 12/32/16 15/31/14 13/33/1 10/34/12
f 11/10/5 10/25/5 4/22/5
f 1/35/4 18/7/4 2/8/4
f 5/16/4 6/5/4 18/7/4
f 1/35/5 2/8/5 11/10/5
f 11/10/5 4/22/5 3/23/5
f 1/35/4 5/16/4 18/7/4
f 1/35/5 11/10/5 3/23/5
f 1/36/17 3/37/17 7/38/17 5/39/17
