# Blender v3.4.1 OBJ File: 'SpaceBits_export.blend'
# www.blender.org
mtllib terrain_mining.mtl
o terrain_mining_Cube.15121
v -1.000000 -1.000000 1.000000
v -0.843785 1.000000 0.002495
v -1.000000 -1.000000 -1.000000
v 0.004743 1.000000 -0.846033
v 1.000000 -1.000000 1.000000
v 0.004743 1.000000 0.851024
v 1.000000 -1.000000 -1.000000
v 0.853271 1.000000 0.002495
v -1.000000 1.000000 1.000000
v -1.000000 1.000000 -1.000000
v 1.000000 1.000000 1.000000
v 1.000000 1.000000 -1.000000
v -0.490232 1.000000 -0.492479
v -0.490232 1.000000 0.497470
v 0.499718 1.000000 -0.492479
v 0.499718 1.000000 0.497470
v -0.245644 0.000000 -0.247892
v 0.004737 0.000000 -0.398120
v -0.245644 0.000000 0.252870
v -0.395873 0.000000 0.002489
v 0.255117 0.000000 -0.247892
v 0.405346 0.000000 0.002489
v 0.255117 0.000000 0.252870
v 0.004737 0.000000 0.403099
v -0.560943 0.750000 0.002495
v -0.419521 0.750000 0.426760
v 0.004743 0.750000 0.568181
v 0.358296 0.750000 0.356049
v 0.004743 0.750000 -0.563190
v 0.358296 0.750000 -0.351058
v -0.419521 0.750000 -0.421769
v 0.711850 0.750000 0.002495
v 0.017996 1.072528 -0.592816
v 0.288065 1.072528 -0.399909
v 0.210902 0.936123 -0.322747
v 0.017996 0.936123 -0.438491
v -0.021422 1.038138 0.647684
v -0.336182 1.038138 0.422856
v -0.021422 0.879160 0.467822
v -0.291216 0.879160 0.377890
vt 0.961462 0.888040
vt 0.961462 0.888040
vt 0.961462 0.810100
vt 0.961462 0.810100
vt 0.900644 0.888040
vt 0.900644 0.810100
vt 0.900644 0.794475
vt 0.961462 0.794475
vt 0.961462 0.794475
vt 0.900644 0.794475
vt 0.900644 0.888040
vt 0.900644 0.810100
vt 0.899412 0.837685
vt 0.903798 0.837685
vt 0.903798 0.779429
vt 0.899412 0.779429
vt 0.958167 0.959786
vt 0.956052 0.959786
vt 0.958167 0.959786
vt 0.950955 0.959786
vt 0.943819 0.959786
vt 0.929335 0.959786
vt 0.930105 0.837685
vt 0.903798 0.837685
vt 0.903798 0.779429
vt 0.930105 0.779429
vt 0.930105 0.837685
vt 0.930105 0.779429
vt 0.956412 0.837685
vt 0.960798 0.837685
vt 0.960798 0.779429
vt 0.956412 0.779429
vt 0.929335 0.959786
vt 0.943819 0.959786
vt 0.936684 0.959786
vt 0.931587 0.959786
vt 0.950955 0.959786
vt 0.936684 0.959786
vt 0.948496 0.803420
vt 0.948496 0.803420
vt 0.931053 0.803420
vt 0.931053 0.803420
vt 0.913609 0.803420
vt 0.948496 0.803420
vt 0.956412 0.837685
vt 0.956412 0.779429
vt 0.930105 0.900185
vt 0.930105 0.919603
vt 0.956412 0.919603
vt 0.956412 0.900185
vt 0.903798 0.888353
vt 0.899412 0.919603
vt 0.899412 0.900185
vt 0.903798 0.868935
vt 0.960798 0.900185
vt 0.960798 0.919603
vt 0.956412 0.900185
vt 0.956412 0.888353
vt 0.930105 0.919603
vt 0.930105 0.900185
vt 0.956412 0.868935
vt 0.903798 0.888353
vt 0.930105 0.919603
vt 0.930105 0.900185
vt 0.903798 0.868935
vt 0.931053 0.959670
vt 0.913609 0.959670
vt 0.913609 0.959670
vt 0.931053 0.959670
vt 0.903798 0.919603
vt 0.903798 0.900185
vt 0.930105 0.837685
vt 0.956412 0.837685
vt 0.956412 0.868935
vt 0.956412 0.888353
vt 0.930105 0.919603
vt 0.903798 0.919603
vt 0.903798 0.900185
vt 0.930105 0.900185
vt 0.930105 0.837685
vt 0.903798 0.837685
vt 0.903798 0.868935
vt 0.903798 0.888353
vt 0.956412 0.919603
vt 0.931053 0.959670
vt 0.948496 0.959670
vt 0.948496 0.959670
vt 0.931053 0.959670
vt 0.956412 0.868935
vt 0.956412 0.888353
vt 0.913609 0.803420
vt 0.913609 0.803420
vn 1.0000 0.0000 0.0000
vn 0.0000 0.0000 1.0000
vn 0.0000 -1.0000 0.0000
vn -1.0000 0.0000 0.0000
vn 0.6822 0.2630 0.6822
vn 0.8898 0.2456 0.3847
vn 0.0000 0.0000 -1.0000
vn 0.0000 1.0000 0.0000
vn -0.6355 0.2192 0.7403
vn -0.5056 0.1855 0.8426
vn -0.6337 0.2187 0.7420
vn 0.8898 0.2457 -0.3847
vn 0.6822 0.2630 -0.6822
vn -0.5056 0.1855 -0.8426
vn -0.6355 0.2192 -0.7403
vn -0.6337 0.2188 -0.7420
vn -0.7443 0.2460 0.6209
vn -0.7443 0.2460 -0.6209
vn 0.3847 0.2456 0.8898
vn 0.3847 0.2457 -0.8898
vn 0.3903 0.5677 -0.7248
vn 0.3903 0.5677 0.7248
vn 0.6149 0.5510 0.5642
vn 0.6850 0.4827 0.5457
vn -0.4782 0.6215 -0.6206
vn -0.5211 0.6067 -0.6003
vn -0.6901 0.4824 -0.5394
vn -0.6576 0.4737 0.5857
vn -0.6388 0.6195 0.4563
vn -0.6500 0.5592 0.5145
vn -0.4216 0.6585 -0.6234
vn 0.7248 0.5677 -0.3903
vn 0.1996 0.9392 -0.2795
vn 0.5987 0.6773 0.4276
vn 0.6919 0.5998 0.4018
vn 0.2623 -0.5584 -0.7870
vn -0.6565 0.3714 0.6565
vn -0.4276 0.6773 -0.5987
vn -0.4200 0.6533 0.6299
vn -0.4531 -0.4737 0.7552
vn 0.4549 0.2294 0.8605
vn -0.9982 0.0446 0.0395
vn -0.7392 0.4181 -0.5280
vn -0.4567 0.1201 -0.8815
vn -0.1430 0.9693 0.2002
vn 0.9874 0.1186 -0.1048
usemtl spacebits_texture
s 1
f 12/1/1 11/2/1 5/3/1 7/4/1
f 9/5/2 1/6/2 5/3/2 11/2/2
f 3/7/3 7/8/3 5/9/3 1/10/3
f 9/5/4 10/11/4 3/12/4 1/6/4
f 31/13/5 25/14/6 20/15/6 17/16/5
f 10/11/7 12/1/7 7/4/7 3/12/7
f 12/17/8 8/18/8 11/19/8
f 11/19/8 8/18/8 16/20/8
f 6/21/8 11/19/8 16/20/8
f 9/22/8 11/19/8 6/21/8
f 30/23/9 29/24/10 18/25/10 21/26/11
f 25/14/12 26/27/13 19/28/13 20/15/12
f 27/29/14 28/30/15 23/31/16 24/32/14
f 12/17/8 10/33/8 4/34/8
f 14/35/8 9/22/8 6/21/8
f 2/36/8 9/22/8 14/35/8
f 10/33/8 9/22/8 2/36/8
f 15/37/8 12/17/8 4/34/8
f 10/33/8 2/36/8 13/38/8
f 8/18/8 12/17/8 15/37/8
f 4/34/8 10/33/8 13/38/8
f 23/39/8 22/40/8 21/41/8
f 19/42/8 23/39/8 21/41/8 17/43/8
f 19/42/8 24/44/8 23/39/8
f 32/45/17 30/23/9 21/26/11 22/46/17
f 28/30/15 32/45/18 22/46/18 23/31/16
f 29/24/19 31/13/5 17/16/5 18/25/19
f 26/27/13 27/29/20 24/32/20 19/28/13
f 40/47/21 38/48/21 37/49/21 39/50/21
f 4/51/22 13/52/23 31/53/24 29/54/22
f 28/55/25 16/56/26 32/57/27
f 8/58/28 15/59/29 30/60/30
f 16/56/26 28/55/25 27/61/31
f 2/62/32 14/63/32 26/64/32 25/65/32
f 15/66/33 4/67/33 33/68/33 34/69/33
f 13/52/23 2/70/34 25/71/35
f 31/53/24 13/52/23 25/71/35
f 27/29/36 26/27/36 40/72/36 39/73/36
f 32/74/37 8/58/28 30/60/30
f 6/75/38 16/56/26 27/61/31
f 34/76/39 33/77/39 36/78/39 35/79/39
f 29/24/40 30/23/40 35/80/40 36/81/40
f 30/60/41 15/59/41 34/76/41 35/79/41
f 4/51/42 29/54/42 36/82/42 33/83/42
f 16/56/26 8/84/43 32/57/27
f 26/64/44 14/63/44 38/48/44 40/47/44
f 14/85/45 6/86/45 37/87/45 38/88/45
f 6/75/46 27/61/46 39/89/46 37/90/46
f 18/91/8 17/43/8 21/41/8
f 20/92/8 19/42/8 17/43/8
