# Blender v3.4.1 OBJ File: 'SpaceBits_export.blend'
# www.blender.org
mtllib tunnel_diagonal_short_B.mtl
o tunnel_diagonal_short_B_Cylinder.2697
v -0.328098 0.250000 -0.115966
v -0.398808 0.350000 -0.045255
v -0.398808 0.650000 -0.045255
v -0.328098 0.750000 -0.115966
v -0.045255 0.350000 -0.398808
v -0.115966 0.250000 -0.328098
v -0.115966 0.750000 -0.328098
v -0.045255 0.650000 -0.398808
v -0.451992 0.350000 -0.098439
v -0.381282 0.250000 -0.169150
v -0.381282 0.750000 -0.169150
v -0.451992 0.650000 -0.098439
v -0.169150 0.250000 -0.381282
v -0.098439 0.350000 -0.451992
v -0.098439 0.650000 -0.451992
v -0.169150 0.750000 -0.381282
v -0.133794 0.360355 -0.451992
v -0.194150 0.275000 -0.391637
v -0.194150 0.725000 -0.391637
v -0.133794 0.639645 -0.451992
v -0.391637 0.275000 -0.194150
v -0.451992 0.360355 -0.133794
v -0.451992 0.639645 -0.133794
v -0.391637 0.725000 -0.194150
v -0.377103 0.346847 -0.208684
v -0.334996 0.440458 -0.250791
v -0.401189 0.380910 -0.184598
v -0.334996 0.559542 -0.250791
v -0.377103 0.653153 -0.208684
v -0.401189 0.619090 -0.184598
v -0.250791 0.440458 -0.334996
v -0.208684 0.346847 -0.377103
v -0.184598 0.380910 -0.401189
v -0.250791 0.559542 -0.334996
v -0.184598 0.619090 -0.401189
v -0.208684 0.653153 -0.377103
v -0.346639 0.396064 -0.199652
v -0.346639 0.603935 -0.199652
v -0.199651 0.396064 -0.346639
v -0.199651 0.603936 -0.346639
v -0.363453 0.200000 -0.009899
v -0.469519 0.350000 0.096167
v -0.469519 0.650000 0.096167
v -0.363453 0.800000 -0.009899
v 0.096167 0.350000 -0.469519
v -0.009899 0.200000 -0.363453
v -0.009899 0.800000 -0.363453
v 0.096167 0.650000 -0.469519
v 0.115966 0.250000 0.328098
v 0.045255 0.350000 0.398808
v 0.045255 0.650000 0.398808
v 0.115966 0.750000 0.328098
v 0.398808 0.350000 0.045255
v 0.328098 0.250000 0.115966
v 0.328098 0.750000 0.115966
v 0.398808 0.650000 0.045255
v 0.098439 0.350000 0.451992
v 0.169150 0.250000 0.381282
v 0.169150 0.750000 0.381282
v 0.098439 0.650000 0.451992
v 0.381282 0.250000 0.169150
v 0.451992 0.350000 0.098439
v 0.451992 0.650000 0.098439
v 0.381282 0.750000 0.169150
v 0.451992 0.360355 0.133794
v 0.391637 0.275000 0.194150
v 0.391637 0.725000 0.194150
v 0.451992 0.639645 0.133794
v 0.194150 0.275000 0.391637
v 0.133794 0.360355 0.451992
v 0.133794 0.639645 0.451992
v 0.194150 0.725000 0.391637
v 0.208684 0.346847 0.377103
v 0.250791 0.440458 0.334996
v 0.184598 0.380910 0.401189
v 0.250791 0.559542 0.334996
v 0.208684 0.653153 0.377103
v 0.184598 0.619090 0.401189
v 0.334996 0.440458 0.250791
v 0.377103 0.346847 0.208684
v 0.401189 0.380910 0.184598
v 0.334996 0.559542 0.250791
v 0.401189 0.619090 0.184598
v 0.377103 0.653153 0.208684
v 0.199652 0.396064 0.346639
v 0.199652 0.603935 0.346639
v 0.346639 0.396064 0.199651
v 0.346639 0.603936 0.199651
v 0.009899 0.200000 0.363453
v -0.096167 0.350000 0.469519
v -0.096167 0.650000 0.469519
v 0.009899 0.800000 0.363453
v 0.469519 0.350000 -0.096167
v 0.363453 0.200000 0.009899
v 0.363453 0.800000 0.009899
v 0.469519 0.650000 -0.096167
vt 0.274647 0.807807
vt 0.280716 0.807807
vt 0.280716 0.807807
vt 0.274647 0.807807
vt 0.272624 0.818153
vt 0.272624 0.818153
vt 0.280091 0.827896
vt 0.280507 0.820462
vt 0.282234 0.829294
vt 0.280780 0.831421
vt 0.274647 0.879681
vt 0.272624 0.869333
vt 0.272624 0.869333
vt 0.274647 0.879681
vt 0.272624 0.828223
vt 0.272624 0.828223
vt 0.272624 0.859264
vt 0.272624 0.859264
vt 0.282739 0.828223
vt 0.282739 0.828223
vt 0.282739 0.859264
vt 0.282739 0.859264
vt 0.280716 0.879681
vt 0.280716 0.879681
vt 0.282739 0.869333
vt 0.282739 0.869333
vt 0.273130 0.839364
vt 0.272624 0.838292
vt 0.274647 0.827945
vt 0.274857 0.830532
vt 0.274857 0.897232
vt 0.274647 0.899819
vt 0.272624 0.889472
vt 0.273130 0.888401
vt 0.280507 0.830532
vt 0.280716 0.827945
vt 0.282739 0.838292
vt 0.282234 0.839364
vt 0.282234 0.888401
vt 0.282739 0.889472
vt 0.280716 0.899819
vt 0.280507 0.897232
vt 0.282234 0.849433
vt 0.282739 0.848361
vt 0.282739 0.879402
vt 0.282234 0.878331
vt 0.273130 0.878331
vt 0.272624 0.879402
vt 0.272624 0.848361
vt 0.273130 0.849433
vt 0.282739 0.818153
vt 0.282739 0.818153
vt 0.275273 0.859590
vt 0.274857 0.867024
vt 0.273130 0.858193
vt 0.274584 0.856066
vt 0.329362 0.781635
vt 0.329362 0.806280
vt 0.326966 0.803036
vt 0.326966 0.784878
vt 0.307143 0.806280
vt 0.307143 0.781635
vt 0.309539 0.784878
vt 0.309539 0.803036
vt 0.402860 0.800372
vt 0.454358 0.800372
vt 0.454358 0.851869
vt 0.402860 0.851869
vt 0.326891 0.809804
vt 0.309614 0.809804
vt 0.311888 0.806387
vt 0.324618 0.806387
vt 0.280780 0.856066
vt 0.282234 0.858193
vt 0.280507 0.867024
vt 0.280091 0.859590
vt 0.274584 0.831421
vt 0.273130 0.829294
vt 0.274857 0.820462
vt 0.275273 0.827896
vt 0.326891 0.801142
vt 0.329362 0.804667
vt 0.326966 0.807910
vt 0.324618 0.829418
vt 0.329362 0.829311
vt 0.326891 0.832836
vt 0.311888 0.804559
vt 0.307143 0.804667
vt 0.309614 0.801142
vt 0.309539 0.826068
vt 0.309614 0.832836
vt 0.307143 0.829311
vt 0.309614 0.778110
vt 0.326891 0.778110
vt 0.324618 0.781527
vt 0.311888 0.781527
vt 0.400642 0.787833
vt 0.456576 0.787833
vt 0.390322 0.854087
vt 0.390322 0.798153
vt 0.456576 0.864408
vt 0.400642 0.864408
vt 0.466896 0.798153
vt 0.466896 0.854087
vt 0.926351 0.888735
vt 0.926351 0.896728
vt 0.926351 0.896728
vt 0.926351 0.884737
vt 0.926351 0.937525
vt 0.926351 0.945519
vt 0.926351 0.949515
vt 0.926351 0.937525
vt 0.926351 0.896728
vt 0.926351 0.888735
vt 0.926351 0.884737
vt 0.926351 0.896728
vt 0.926351 0.945519
vt 0.926351 0.937525
vt 0.926351 0.937525
vt 0.926351 0.949515
vt 0.926351 0.880327
vt 0.926351 0.880327
vt 0.926351 0.876330
vt 0.926351 0.876330
vt 0.926351 0.905136
vt 0.926351 0.929117
vt 0.926351 0.929117
vt 0.926351 0.905136
vt 0.926351 0.957923
vt 0.926351 0.957923
vt 0.926351 0.953926
vt 0.926351 0.953926
vt 0.926351 0.929117
vt 0.926351 0.905136
vt 0.926351 0.905136
vt 0.926351 0.929117
vt 0.274647 0.807807
vt 0.274647 0.807807
vt 0.280716 0.807807
vt 0.280716 0.807807
vt 0.272624 0.818153
vt 0.272624 0.818153
vt 0.280091 0.827896
vt 0.280780 0.831421
vt 0.282234 0.829294
vt 0.280507 0.820462
vt 0.274647 0.879681
vt 0.274647 0.879681
vt 0.272624 0.869333
vt 0.272624 0.869333
vt 0.272624 0.828223
vt 0.272624 0.859264
vt 0.272624 0.859264
vt 0.272624 0.828223
vt 0.282739 0.828223
vt 0.282739 0.859264
vt 0.282739 0.859264
vt 0.282739 0.828223
vt 0.280716 0.879681
vt 0.280716 0.879681
vt 0.282739 0.869333
vt 0.282739 0.869333
vt 0.273130 0.839364
vt 0.274857 0.830532
vt 0.274647 0.827945
vt 0.272624 0.838292
vt 0.274857 0.897232
vt 0.273130 0.888401
vt 0.272624 0.889472
vt 0.274647 0.899819
vt 0.280507 0.830532
vt 0.282234 0.839364
vt 0.282739 0.838292
vt 0.280716 0.827945
vt 0.282234 0.888401
vt 0.280507 0.897232
vt 0.280716 0.899819
vt 0.282739 0.889472
vt 0.282234 0.849433
vt 0.282234 0.878331
vt 0.282739 0.879402
vt 0.282739 0.848361
vt 0.273130 0.878331
vt 0.273130 0.849433
vt 0.272624 0.848361
vt 0.272624 0.879402
vt 0.282739 0.818153
vt 0.282739 0.818153
vt 0.275273 0.859590
vt 0.274584 0.856066
vt 0.273130 0.858193
vt 0.274857 0.867024
vt 0.329362 0.781635
vt 0.326966 0.784878
vt 0.326966 0.803036
vt 0.329362 0.806280
vt 0.307143 0.806280
vt 0.309539 0.803036
vt 0.309539 0.784878
vt 0.307143 0.781635
vt 0.402860 0.800372
vt 0.402860 0.851869
vt 0.454358 0.851869
vt 0.454358 0.800372
vt 0.326891 0.809804
vt 0.324618 0.806387
vt 0.311888 0.806387
vt 0.309614 0.809804
vt 0.280780 0.856066
vt 0.280091 0.859590
vt 0.280507 0.867024
vt 0.282234 0.858193
vt 0.274584 0.831421
vt 0.275273 0.827896
vt 0.274857 0.820462
vt 0.273130 0.829294
vt 0.326891 0.801142
vt 0.326966 0.807910
vt 0.329362 0.804667
vt 0.324618 0.829418
vt 0.326891 0.832836
vt 0.329362 0.829311
vt 0.311888 0.804559
vt 0.309614 0.801142
vt 0.307143 0.804667
vt 0.309539 0.826068
vt 0.307143 0.829311
vt 0.309614 0.832836
vt 0.309614 0.778110
vt 0.311888 0.781527
vt 0.324618 0.781527
vt 0.326891 0.778110
vt 0.456576 0.787833
vt 0.400642 0.787833
vt 0.390322 0.798153
vt 0.390322 0.854087
vt 0.400642 0.864408
vt 0.456576 0.864408
vt 0.466896 0.854087
vt 0.466896 0.798153
vt 0.926351 0.888735
vt 0.926351 0.884737
vt 0.926351 0.896728
vt 0.926351 0.896728
vt 0.926351 0.937525
vt 0.926351 0.937525
vt 0.926351 0.949515
vt 0.926351 0.945519
vt 0.926351 0.896728
vt 0.926351 0.896728
vt 0.926351 0.884737
vt 0.926351 0.888735
vt 0.926351 0.945519
vt 0.926351 0.949515
vt 0.926351 0.937525
vt 0.926351 0.937525
vt 0.926351 0.880327
vt 0.926351 0.876330
vt 0.926351 0.876330
vt 0.926351 0.880327
vt 0.926351 0.905136
vt 0.926351 0.905136
vt 0.926351 0.929117
vt 0.926351 0.929117
vt 0.926351 0.957923
vt 0.926351 0.953926
vt 0.926351 0.953926
vt 0.926351 0.957923
vt 0.926351 0.929117
vt 0.926351 0.929117
vt 0.926351 0.905136
vt 0.926351 0.905136
vt 0.900485 0.920710
vt 0.900485 0.920710
vt 0.900485 0.932701
vt 0.900485 0.932701
vt 0.900485 0.879914
vt 0.900485 0.879914
vt 0.900485 0.867923
vt 0.900485 0.867923
vt 0.900485 0.859515
vt 0.900485 0.859515
vt 0.900485 0.859515
vt 0.900485 0.859515
vt 0.900485 0.888321
vt 0.900485 0.888321
vt 0.900485 0.912302
vt 0.900485 0.912302
vt 0.900485 0.912302
vt 0.900485 0.888321
vt 0.900485 0.888321
vt 0.900485 0.912302
vt 0.900485 0.941108
vt 0.900485 0.941108
vt 0.900485 0.941108
vt 0.900485 0.941108
vt 0.900485 0.867923
vt 0.900485 0.867923
vt 0.900485 0.879914
vt 0.900485 0.879914
vt 0.900485 0.920710
vt 0.900485 0.920710
vt 0.900485 0.932701
vt 0.900485 0.932701
vn 0.0000 -1.0000 0.0000
vn 0.5000 -0.7071 -0.5000
vn -0.7071 0.0000 -0.7071
vn 0.5000 0.7071 -0.5000
vn 0.7071 0.0000 -0.7071
vn -0.7071 0.0000 0.7071
vn 0.0000 1.0000 -0.0000
vn -0.5000 0.7071 0.5000
vn -0.0761 -0.2597 -0.9627
vn -0.3357 -0.6269 -0.7030
vn -0.3357 0.6269 -0.7030
vn -0.0761 0.2597 -0.9627
vn -0.7030 -0.6269 -0.3357
vn -0.9627 -0.2597 -0.0761
vn -0.9627 0.2597 -0.0761
vn -0.7030 0.6269 -0.3357
vn -0.5000 -0.7071 0.5000
vn -0.3070 0.1761 -0.9353
vn -0.3070 -0.1761 -0.9353
vn -0.4456 -0.2850 -0.8487
vn -0.4456 0.2850 -0.8487
vn -0.9353 -0.1761 -0.3070
vn -0.9353 0.1761 -0.3070
vn -0.8487 0.2850 -0.4456
vn -0.8487 -0.2850 -0.4456
vn -0.5237 -0.2130 -0.8249
vn -0.8249 -0.2130 -0.5237
vn -0.8249 0.2130 -0.5237
vn -0.5237 0.2130 -0.8249
vn -0.4966 -0.4442 -0.7456
vn -0.7456 -0.4442 -0.4966
vn -0.4966 0.4442 -0.7456
vn -0.7456 0.4442 -0.4966
vn -0.4428 -0.2874 -0.8493
vn -0.8493 -0.2874 -0.4428
vn -0.4428 0.2874 -0.8493
vn -0.8493 0.2874 -0.4428
vn -0.4264 -0.3015 -0.8528
vn -0.4264 0.3015 -0.8528
vn -0.8528 -0.3015 -0.4264
vn -0.8528 0.3015 -0.4264
vn -0.5000 -0.7071 -0.5000
vn -0.8944 0.0000 -0.4472
vn -0.5000 0.7071 -0.5000
vn -0.4472 0.0000 -0.8944
vn 0.7071 0.0000 0.7071
vn 0.9627 -0.2597 0.0761
vn 0.7030 -0.6269 0.3357
vn 0.7030 0.6269 0.3357
vn 0.9627 0.2597 0.0761
vn 0.3357 -0.6269 0.7030
vn 0.0761 -0.2597 0.9627
vn 0.0761 0.2597 0.9627
vn 0.3357 0.6269 0.7030
vn 0.9353 0.1761 0.3070
vn 0.8487 0.2850 0.4456
vn 0.8487 -0.2850 0.4456
vn 0.9353 -0.1761 0.3070
vn 0.3070 -0.1761 0.9353
vn 0.4456 -0.2850 0.8487
vn 0.4456 0.2850 0.8487
vn 0.3070 0.1761 0.9353
vn 0.8249 -0.2130 0.5237
vn 0.8249 0.2130 0.5237
vn 0.5237 0.2130 0.8249
vn 0.5237 -0.2130 0.8249
vn 0.7456 -0.4442 0.4966
vn 0.4966 -0.4442 0.7456
vn 0.7456 0.4442 0.4966
vn 0.4966 0.4442 0.7456
vn 0.4428 -0.2874 0.8493
vn 0.8493 -0.2874 0.4428
vn 0.8493 0.2874 0.4428
vn 0.4428 0.2874 0.8493
vn 0.8528 -0.3015 0.4264
vn 0.8528 0.3015 0.4264
vn 0.4264 -0.3015 0.8528
vn 0.4264 0.3015 0.8528
vn 0.5000 -0.7071 0.5000
vn 0.4472 0.0000 0.8944
vn 0.5000 0.7071 0.5000
vn 0.8944 0.0000 0.4472
usemtl spacebits_texture
s 1
f 6/1/1 1/2/1 10/3/1 13/4/1
f 13/4/2 14/5/2 5/6/2 6/1/2
f 25/7/3 21/8/3 22/9/3 27/10/3
f 7/11/4 8/12/4 15/13/4 16/14/4
f 5/15/5 14/16/5 15/17/5 8/18/5
f 9/19/6 2/20/6 3/21/6 12/22/6
f 16/14/7 11/23/7 4/24/7 7/11/7
f 11/23/8 12/25/8 3/26/8 4/24/8
f 17/27/9 14/28/9 13/29/10 18/30/10
f 19/31/11 16/32/11 15/33/12 20/34/12
f 21/35/13 10/36/13 9/37/14 22/38/14
f 23/39/15 12/40/15 11/41/16 24/42/16
f 18/30/10 13/29/10 10/36/13 21/35/13
f 22/43/14 9/44/14 12/45/15 23/46/15
f 24/42/16 11/41/16 16/32/11 19/31/11
f 20/47/12 15/48/12 14/49/9 17/50/9
f 1/2/17 2/51/17 9/52/17 10/3/17
f 36/53/3 19/54/3 20/55/3 35/56/3
f 27/57/18 30/58/19 38/59/20 37/60/21
f 35/61/22 33/62/23 39/63/24 40/64/25
f 31/65/26 26/66/27 28/67/28 34/68/29
f 29/69/30 36/70/31 40/71/25 38/72/20
f 30/73/3 23/74/3 24/75/3 29/76/3
f 33/77/3 17/78/3 18/79/3 32/80/3
f 25/81/32 27/82/18 37/83/21
f 38/84/20 30/85/19 29/86/30
f 39/87/24 33/88/23 32/89/33
f 40/90/25 36/91/31 35/92/22
f 32/93/33 25/94/32 37/95/21 39/96/24
f 20/55/3 17/78/3 33/77/3 35/56/3
f 18/79/3 21/8/3 25/7/3 32/80/3
f 22/9/3 23/74/3 30/73/3 27/10/3
f 24/75/3 19/54/3 36/53/3 29/76/3
f 31/65/26 39/97/34 37/98/35 26/66/27
f 34/68/29 40/99/36 39/100/34 31/65/26
f 28/67/28 38/101/37 40/102/36 34/68/29
f 26/66/27 37/103/35 38/104/37 28/67/28
f 6/105/38 5/106/38 45/107/38 46/108/38
f 8/109/39 7/110/39 47/111/39 48/112/39
f 2/113/40 1/114/40 41/115/40 42/116/40
f 4/117/41 3/118/41 43/119/41 44/120/41
f 1/121/42 6/122/42 46/123/42 41/124/42
f 42/125/43 43/126/43 3/127/43 2/128/43
f 44/129/44 47/130/44 7/131/44 4/132/44
f 48/133/45 45/134/45 5/135/45 8/136/45
f 54/137/1 61/138/1 58/139/1 49/140/1
f 61/138/2 54/137/2 53/141/2 62/142/2
f 73/143/46 75/144/46 70/145/46 69/146/46
f 55/147/4 64/148/4 63/149/4 56/150/4
f 53/151/5 56/152/5 63/153/5 62/154/5
f 57/155/6 60/156/6 51/157/6 50/158/6
f 64/148/7 55/147/7 52/159/7 59/160/7
f 59/160/8 52/159/8 51/161/8 60/162/8
f 65/163/47 66/164/48 61/165/48 62/166/47
f 67/167/49 68/168/50 63/169/50 64/170/49
f 69/171/51 70/172/52 57/173/52 58/174/51
f 71/175/53 72/176/54 59/177/54 60/178/53
f 66/164/48 69/171/51 58/174/51 61/165/48
f 70/179/52 71/180/53 60/181/53 57/182/52
f 72/176/54 67/167/49 64/170/49 59/177/54
f 68/183/50 65/184/47 62/185/47 63/186/50
f 49/140/17 58/139/17 57/187/17 50/188/17
f 84/189/46 83/190/46 68/191/46 67/192/46
f 75/193/55 85/194/56 86/195/57 78/196/58
f 83/197/59 88/198/60 87/199/61 81/200/62
f 79/201/63 82/202/64 76/203/65 74/204/66
f 77/205/67 86/206/57 88/207/60 84/208/68
f 78/209/46 77/210/46 72/211/46 71/212/46
f 81/213/46 80/214/46 66/215/46 65/216/46
f 73/217/69 85/218/56 75/219/55
f 86/220/57 77/221/67 78/222/58
f 87/223/61 80/224/70 81/225/62
f 88/226/60 83/227/59 84/228/68
f 80/229/70 87/230/61 85/231/56 73/232/69
f 68/191/46 83/190/46 81/213/46 65/216/46
f 66/215/46 80/214/46 73/143/46 69/146/46
f 70/145/46 75/144/46 78/209/46 71/212/46
f 72/211/46 77/210/46 84/189/46 67/192/46
f 79/201/63 74/204/66 85/233/71 87/234/72
f 82/202/64 79/201/63 87/235/72 88/236/73
f 76/203/65 82/202/64 88/237/73 86/238/74
f 74/204/66 76/203/65 86/239/74 85/240/71
f 54/241/75 94/242/75 93/243/75 53/244/75
f 56/245/76 96/246/76 95/247/76 55/248/76
f 50/249/77 90/250/77 89/251/77 49/252/77
f 52/253/78 92/254/78 91/255/78 51/256/78
f 49/257/79 89/258/79 94/259/79 54/260/79
f 90/261/80 50/262/80 51/263/80 91/264/80
f 92/265/81 52/266/81 55/267/81 95/268/81
f 96/269/82 56/270/82 53/271/82 93/272/82
f 43/273/8 91/274/8 92/275/8 44/276/8
f 90/277/17 42/278/17 41/279/17 89/280/17
f 89/281/1 41/282/1 46/283/1 94/284/1
f 93/285/5 45/286/5 48/287/5 96/288/5
f 43/289/6 42/290/6 90/291/6 91/292/6
f 44/293/7 92/294/7 95/295/7 47/296/7
f 94/297/2 46/298/2 45/299/2 93/300/2
f 96/301/4 48/302/4 47/303/4 95/304/4
