# Blender v3.4.1 OBJ File: 'SpaceBits_export.blend'
# www.blender.org
mtllib windturbine_tall.mtl
o windturbine_tall_Cube.15108
v 0.118255 -0.000003 -0.118255
v -0.118255 -0.000003 -0.118255
v 0.050000 -0.000002 -0.340000
v 0.050000 0.049999 -0.340000
v -0.050000 0.049999 -0.340000
v -0.050000 -0.000002 -0.340000
v 0.106510 0.101452 -0.106511
v -0.106526 0.101450 -0.106525
v -0.000002 0.120558 -0.150638
v -0.118255 -0.000003 0.118255
v 0.118255 -0.000003 0.118255
v -0.050000 -0.000002 0.340000
v -0.050000 0.049999 0.340000
v 0.050000 0.049999 0.340000
v 0.050000 -0.000002 0.340000
v -0.106526 0.101450 0.106525
v 0.106510 0.101452 0.106511
v 0.000002 0.120558 0.150638
v 0.340000 -0.000002 0.050000
v 0.340000 0.049999 0.050000
v 0.340000 0.049999 -0.050000
v 0.340000 -0.000002 -0.050000
v 0.150623 0.120557 -0.000002
v -0.340000 -0.000002 -0.050000
v -0.340000 0.049999 -0.050000
v -0.340000 0.049999 0.050000
v -0.340000 -0.000002 0.050000
v -0.150654 0.120559 0.000002
v -0.000001 0.511093 -0.150873
v 0.106677 0.511093 -0.106685
v 0.150865 0.511093 -0.000007
v 0.106677 0.511093 0.106671
v -0.000001 0.511093 0.150859
v -0.106680 0.511093 0.106671
v -0.150867 0.511093 -0.000007
v -0.106680 0.511093 -0.106685
v -0.000001 0.545938 -0.110049
v 0.077810 0.545938 -0.077819
v 0.110041 0.545938 -0.000007
v 0.077810 0.545938 0.077804
v -0.000001 0.545938 0.110035
v -0.077813 0.545938 0.077804
v -0.110043 0.545938 -0.000007
v -0.077813 0.545938 -0.077819
v -0.053877 0.546000 -0.053862
v -0.053848 0.546000 0.053862
v 0.053877 0.546000 0.053862
v 0.053848 0.546000 -0.053862
v -0.000001 1.410766 -0.150873
v 0.106677 1.410766 -0.106685
v 0.150865 1.410766 -0.000007
v 0.106677 1.410766 0.106671
v -0.000001 1.410766 0.150859
v -0.106680 1.410766 0.106671
v -0.150867 1.410766 -0.000007
v -0.106680 1.410766 -0.106685
v -0.000001 1.445611 -0.110049
v 0.077810 1.445611 -0.077819
v 0.110041 1.445611 -0.000007
v 0.077810 1.445611 0.077804
v -0.000001 1.445611 0.110035
v -0.077813 1.445611 0.077804
v -0.110043 1.445611 -0.000007
v -0.077813 1.445611 -0.077819
v -0.053877 1.445673 -0.053862
v -0.053848 1.445673 0.053862
v 0.053877 1.445673 0.053862
v 0.053848 1.445673 -0.053862
v -0.000001 1.140580 -0.150873
v -0.106679 1.140580 -0.106685
v -0.150867 1.140580 -0.000007
v -0.106679 1.140580 0.106671
v -0.000001 1.140580 0.150859
v 0.106678 1.140580 0.106671
v 0.150865 1.140580 -0.000007
v 0.106678 1.140580 -0.106685
v -0.000001 1.105735 -0.110049
v -0.077812 1.105735 -0.077819
v -0.110043 1.105735 -0.000007
v -0.077812 1.105735 0.077804
v -0.000001 1.105735 0.110035
v 0.077811 1.105735 0.077804
v 0.110041 1.105735 -0.000007
v 0.077811 1.105735 -0.077819
v 0.053875 1.105673 -0.053862
v 0.053846 1.105673 0.053862
v -0.053879 1.105673 0.053862
v -0.053850 1.105673 -0.053862
v -0.027408 1.722706 -0.027401
v -0.053877 1.696245 -0.053862
v -0.053848 1.696245 0.053862
v -0.027393 1.722706 0.027401
v 0.027408 1.722706 0.027401
v 0.053877 1.696245 0.053862
v 0.053848 1.696245 -0.053862
v 0.027393 1.722706 -0.027401
vt 0.201757 0.761204
vt 0.196802 0.761204
vt 0.189541 0.761204
vt 0.184587 0.761204
vt 0.184587 0.761204
vt 0.185439 0.780158
vt 0.189541 0.770545
vt 0.189541 0.761204
vt 0.196802 0.814290
vt 0.193174 0.827471
vt 0.200909 0.823902
vt 0.189541 0.814290
vt 0.196802 0.770545
vt 0.196802 0.761204
vt 0.201757 0.761204
vt 0.185439 0.823902
vt 0.184587 0.783076
vt 0.189541 0.783076
vt 0.189541 0.792417
vt 0.185439 0.802030
vt 0.217868 0.761204
vt 0.217868 0.761204
vt 0.200909 0.780158
vt 0.196802 0.770545
vt 0.189541 0.814290
vt 0.193174 0.827471
vt 0.185439 0.823902
vt 0.196802 0.814290
vt 0.189541 0.770545
vt 0.200909 0.823902
vt 0.217868 0.783076
vt 0.217868 0.792417
vt 0.200909 0.802030
vt 0.201757 0.783076
vt 0.168480 0.761204
vt 0.168480 0.761204
vt 0.217868 0.770545
vt 0.200909 0.780158
vt 0.217868 0.814290
vt 0.204111 0.827471
vt 0.217868 0.814290
vt 0.217868 0.770545
vt 0.184587 0.783076
vt 0.168480 0.783076
vt 0.168480 0.792417
vt 0.185439 0.802030
vt 0.168480 0.770545
vt 0.185439 0.780158
vt 0.168480 0.814290
vt 0.182232 0.827471
vt 0.168480 0.814290
vt 0.168480 0.770545
vt 0.201757 0.783076
vt 0.196802 0.783076
vt 0.196802 0.792417
vt 0.200909 0.802030
vt 0.193174 0.856683
vt 0.193174 0.783727
vt 0.200922 0.856683
vt 0.185426 0.856683
vt 0.182215 0.856683
vt 0.182232 0.783727
vt 0.185426 0.856683
vt 0.193174 0.856683
vt 0.193174 0.783727
vt 0.204111 0.783727
vt 0.204128 0.856683
vt 0.200922 0.856683
vt 0.200922 0.900427
vt 0.193174 0.900427
vt 0.193174 0.906938
vt 0.198825 0.906938
vt 0.204128 0.900427
vt 0.201163 0.906938
vt 0.200922 0.900427
vt 0.198825 0.906938
vt 0.193174 0.900427
vt 0.193174 0.906938
vt 0.185426 0.900427
vt 0.187522 0.906938
vt 0.182215 0.900427
vt 0.185181 0.906938
vt 0.185426 0.900427
vt 0.187522 0.906938
vt 0.196088 0.928821
vt 0.201163 0.928810
vt 0.198825 0.928810
vt 0.196092 0.928821
vt 0.198825 0.928810
vt 0.193174 0.928810
vt 0.190255 0.928821
vt 0.187522 0.928810
vt 0.185181 0.928810
vt 0.190251 0.928821
vt 0.187522 0.928810
vt 0.193174 0.928810
vt 0.300085 0.848957
vt 0.300075 0.848957
vt 0.300085 0.768781
vt 0.300075 0.768781
vt 0.284646 0.880207
vt 0.300085 0.880207
vt 0.300075 0.800031
vt 0.284636 0.800031
vt 0.284636 0.848957
vt 0.284646 0.848957
vt 0.284636 0.768781
vt 0.284646 0.768781
vt 0.300075 0.880207
vt 0.284636 0.880207
vt 0.284646 0.800031
vt 0.300085 0.800031
vt 0.439339 0.650427
vt 0.433151 0.650427
vt 0.433151 0.656938
vt 0.437665 0.656938
vt 0.441900 0.650427
vt 0.439532 0.656938
vt 0.439339 0.650427
vt 0.437665 0.656938
vt 0.433151 0.650427
vt 0.433151 0.656938
vt 0.426963 0.650427
vt 0.428638 0.656938
vt 0.424399 0.650427
vt 0.426767 0.656938
vt 0.426963 0.650427
vt 0.428638 0.656938
vt 0.435479 0.678821
vt 0.439532 0.678810
vt 0.437665 0.678810
vt 0.435482 0.678821
vt 0.437665 0.678810
vt 0.433151 0.678810
vt 0.430820 0.678821
vt 0.428638 0.678810
vt 0.426767 0.678810
vt 0.430817 0.678821
vt 0.428638 0.678810
vt 0.433151 0.678810
vt 0.439339 0.619177
vt 0.433151 0.619177
vt 0.433151 0.594438
vt 0.437665 0.594438
vt 0.441900 0.619177
vt 0.439532 0.594438
vt 0.439339 0.619177
vt 0.437665 0.594438
vt 0.433151 0.619177
vt 0.433151 0.594438
vt 0.426963 0.619177
vt 0.428638 0.594438
vt 0.424399 0.619177
vt 0.426767 0.594438
vt 0.426963 0.619177
vt 0.428638 0.594438
vt 0.435479 0.647571
vt 0.439532 0.647560
vt 0.437665 0.647560
vt 0.435482 0.647571
vt 0.437665 0.647560
vt 0.433151 0.647560
vt 0.430820 0.647571
vt 0.428638 0.647560
vt 0.426767 0.647560
vt 0.430817 0.647571
vt 0.428638 0.647560
vt 0.433151 0.647560
vt 0.433151 0.650427
vt 0.439339 0.650427
vt 0.441900 0.650427
vt 0.439339 0.650427
vt 0.433151 0.650427
vt 0.426963 0.650427
vt 0.424399 0.650427
vt 0.426963 0.650427
vt 0.287217 0.855423
vt 0.287228 0.855423
vt 0.287228 0.890028
vt 0.287217 0.890028
vt 0.287228 0.871048
vt 0.302104 0.871048
vt 0.302104 0.905653
vt 0.287228 0.905653
vt 0.302104 0.855423
vt 0.302094 0.855423
vt 0.302094 0.890028
vt 0.302104 0.890028
vt 0.302094 0.871048
vt 0.287217 0.871048
vt 0.287217 0.905653
vt 0.302094 0.905653
vt 0.298440 0.909307
vt 0.298440 0.909307
vt 0.290871 0.909307
vt 0.290871 0.909307
vt 0.302094 0.921278
vt 0.287217 0.921278
vt 0.290871 0.924932
vt 0.298440 0.924932
vt 0.287228 0.921278
vt 0.302104 0.921278
vt 0.298440 0.924932
vt 0.290871 0.924932
vt 0.298440 0.940557
vt 0.298440 0.940557
vt 0.290871 0.940557
vt 0.290871 0.940557
vn 0.0000 -1.0000 0.0000
vn -0.9572 0.0953 -0.2732
vn 0.0759 0.9407 -0.3305
vn 0.0000 0.9569 -0.2905
vn 0.2774 0.9220 -0.2703
vn -0.0759 0.9407 -0.3305
vn -0.0000 0.0000 -1.0000
vn -0.2773 0.9220 -0.2703
vn -0.9572 0.0953 0.2732
vn 0.9572 0.0954 0.2731
vn -0.0759 0.9407 0.3305
vn 0.0000 0.9569 0.2905
vn -0.2773 0.9220 0.2703
vn 0.0759 0.9407 0.3305
vn 0.0000 0.0000 1.0000
vn 0.2774 0.9220 0.2703
vn 0.2731 0.0954 0.9572
vn 0.2731 0.0954 -0.9572
vn 0.3305 0.9408 0.0759
vn 0.2905 0.9569 -0.0000
vn 0.2703 0.9220 0.2773
vn 0.3305 0.9408 -0.0759
vn 1.0000 0.0000 -0.0000
vn 0.2703 0.9220 -0.2773
vn -0.2732 0.0953 -0.9572
vn -0.2732 0.0953 0.9572
vn -0.3305 0.9407 -0.0759
vn -0.2905 0.9569 0.0000
vn -0.2703 0.9220 -0.2774
vn -0.3305 0.9407 0.0759
vn -1.0000 0.0000 0.0000
vn -0.2703 0.9220 0.2774
vn 0.9572 0.0954 -0.2731
vn 0.0000 -0.0005 1.0000
vn 0.3827 -0.0005 0.9239
vn -0.3826 -0.0005 0.9239
vn -1.0000 -0.0005 -0.0000
vn -0.9239 -0.0005 0.3827
vn -0.9239 -0.0005 -0.3827
vn 0.0000 -0.0006 -1.0000
vn -0.3826 -0.0005 -0.9239
vn 0.9239 -0.0005 0.3826
vn 1.0000 -0.0006 -0.0000
vn 0.9239 -0.0006 -0.3826
vn 0.4591 0.7606 -0.4591
vn -0.0000 0.7606 -0.6492
vn 0.6492 0.7606 0.0000
vn 0.4591 0.7606 0.4591
vn -0.0000 0.7606 0.6492
vn -0.4591 0.7606 0.4591
vn -0.6492 0.7606 -0.0000
vn -0.4591 0.7606 -0.4591
vn 0.0010 1.0000 -0.0010
vn 0.0014 1.0000 0.0000
vn 0.0013 1.0000 -0.0013
vn 0.0010 1.0000 0.0010
vn 0.0013 1.0000 0.0013
vn -0.0000 1.0000 0.0014
vn -0.0010 1.0000 0.0010
vn -0.0013 1.0000 0.0013
vn -0.0014 1.0000 0.0000
vn -0.0010 1.0000 -0.0010
vn -0.0013 1.0000 -0.0013
vn 0.0000 1.0000 -0.0014
vn 0.3827 -0.0006 -0.9239
vn -0.4591 -0.7606 -0.4591
vn -0.0000 -0.7606 -0.6492
vn -0.6492 -0.7606 -0.0000
vn -0.4591 -0.7606 0.4591
vn -0.0000 -0.7606 0.6492
vn 0.4591 -0.7606 0.4591
vn 0.6492 -0.7606 0.0000
vn 0.4591 -0.7606 -0.4591
vn -0.0010 -1.0000 -0.0010
vn -0.0014 -1.0000 -0.0000
vn -0.0013 -1.0000 -0.0013
vn -0.0010 -1.0000 0.0010
vn -0.0013 -1.0000 0.0013
vn 0.0000 -1.0000 0.0014
vn 0.0010 -1.0000 0.0010
vn 0.0013 -1.0000 0.0013
vn 0.0014 -1.0000 -0.0000
vn 0.0010 -1.0000 -0.0010
vn 0.0013 -1.0000 -0.0013
vn -0.0000 -1.0000 -0.0014
vn -0.3827 -0.0000 -0.9239
vn -0.9239 -0.0000 -0.3827
vn -0.7071 -0.0000 0.7071
vn -0.3827 -0.0000 0.9239
vn 0.3827 0.0000 0.9239
vn 0.7071 0.0000 0.7071
vn 0.9239 0.0000 0.3827
vn 0.9239 0.0000 -0.3827
vn 0.7071 0.0000 -0.7071
vn 0.3827 0.0000 -0.9239
vn -1.0000 0.0000 0.0003
vn 1.0000 0.0000 -0.0003
vn 0.7071 0.7071 -0.0002
vn 0.3002 0.9054 -0.3002
vn 0.3002 0.9054 0.3001
vn -0.7071 0.7071 0.0002
vn -0.3002 0.9054 0.3002
vn -0.3002 0.9054 -0.3001
vn -0.0000 0.7071 -0.7071
vn 0.0000 0.7071 0.7071
usemtl spacebits_texture
s 1
f 11/1/1 15/2/1 12/3/1 10/4/1
f 2/5/2 8/6/2 5/7/2 6/8/2
f 4/9/3 9/10/4 7/11/5
f 4/9/3 5/12/6 9/10/4
f 6/8/7 5/7/7 4/13/7 3/14/7
f 2/5/1 6/8/1 3/14/1 1/15/1
f 8/16/8 9/10/4 5/12/6
f 10/17/9 12/18/9 13/19/9 16/20/9
f 22/21/1 19/22/1 11/1/1 1/15/1
f 17/23/10 14/24/10 15/2/10 11/1/10
f 13/25/11 18/26/12 16/27/13
f 13/25/11 14/28/14 18/26/12
f 15/2/15 14/24/15 13/29/15 12/3/15
f 17/30/16 18/26/12 14/28/14
f 19/31/17 20/32/17 17/33/17 11/34/17
f 10/4/1 27/35/1 24/36/1 2/5/1
f 21/37/18 22/21/18 1/15/18 7/38/18
f 20/39/19 23/40/20 17/30/21
f 20/39/19 21/41/22 23/40/20
f 22/21/23 21/37/23 20/42/23 19/22/23
f 21/41/22 7/11/24 23/40/20
f 2/43/25 24/44/25 25/45/25 8/46/25
f 26/47/26 27/35/26 10/4/26 16/48/26
f 25/49/27 28/50/28 8/16/29
f 25/49/27 26/51/30 28/50/28
f 27/35/31 26/47/31 25/52/31 24/36/31
f 2/5/1 1/15/1 11/1/1 10/4/1
f 26/51/30 16/27/32 28/50/28
f 1/53/33 3/54/33 4/55/33 7/56/33
f 33/57/34 18/58/34 17/23/35 32/59/35
f 34/60/36 16/48/36 18/58/34 33/57/34
f 35/61/37 28/62/37 16/48/38 34/60/38
f 36/63/39 8/6/39 28/62/37 35/61/37
f 29/64/40 9/65/40 8/6/41 36/63/41
f 32/59/42 17/23/42 23/66/43 31/67/43
f 31/67/43 23/66/43 7/38/44 30/68/44
f 30/69/45 29/70/46 37/71/46 38/72/45
f 31/73/47 30/69/45 38/72/45 39/74/47
f 32/75/48 31/73/47 39/74/47 40/76/48
f 33/77/49 32/75/48 40/76/48 41/78/49
f 34/79/50 33/77/49 41/78/49 42/80/50
f 35/81/51 34/79/50 42/80/50 43/82/51
f 36/83/52 35/81/51 43/82/51 44/84/52
f 29/70/46 36/83/52 44/84/52 37/71/46
f 48/85/53 39/86/54 38/87/55
f 47/88/56 40/89/57 39/86/54
f 47/88/56 41/90/58 40/89/57
f 46/91/59 42/92/60 41/90/58
f 46/91/59 43/93/61 42/92/60
f 45/94/62 44/95/63 43/93/61
f 48/85/53 38/87/55 37/96/64
f 30/68/65 7/38/65 9/65/40 29/64/40
f 45/94/62 48/85/53 37/96/64
f 45/94/62 37/96/64 44/95/63
f 48/85/53 47/88/56 39/86/54
f 47/88/56 46/91/59 41/90/58
f 46/91/59 45/94/62 43/93/61
f 85/97/23 86/98/23 47/99/23 48/100/23
f 88/101/7 85/102/7 48/103/7 45/104/7
f 87/105/31 88/106/31 45/107/31 46/108/31
f 86/109/15 87/110/15 46/111/15 47/112/15
f 50/113/45 49/114/46 57/115/46 58/116/45
f 51/117/47 50/113/45 58/116/45 59/118/47
f 52/119/48 51/117/47 59/118/47 60/120/48
f 53/121/49 52/119/48 60/120/48 61/122/49
f 54/123/50 53/121/49 61/122/49 62/124/50
f 55/125/51 54/123/50 62/124/50 63/126/51
f 56/127/52 55/125/51 63/126/51 64/128/52
f 49/114/46 56/127/52 64/128/52 57/115/46
f 68/129/53 59/130/54 58/131/55
f 67/132/56 60/133/57 59/130/54
f 67/132/56 61/134/58 60/133/57
f 66/135/59 62/136/60 61/134/58
f 66/135/59 63/137/61 62/136/60
f 65/138/62 64/139/63 63/137/61
f 68/129/53 58/131/55 57/140/64
f 65/138/62 68/129/53 57/140/64
f 65/138/62 57/140/64 64/139/63
f 68/129/53 67/132/56 59/130/54
f 67/132/56 66/135/59 61/134/58
f 66/135/59 65/138/62 63/137/61
f 70/141/66 69/142/67 77/143/67 78/144/66
f 71/145/68 70/141/66 78/144/66 79/146/68
f 72/147/69 71/145/68 79/146/68 80/148/69
f 73/149/70 72/147/69 80/148/69 81/150/70
f 74/151/71 73/149/70 81/150/70 82/152/71
f 75/153/72 74/151/71 82/152/71 83/154/72
f 76/155/73 75/153/72 83/154/72 84/156/73
f 69/142/67 76/155/73 84/156/73 77/143/67
f 88/157/74 79/158/75 78/159/76
f 87/160/77 80/161/78 79/158/75
f 87/160/77 81/162/79 80/161/78
f 86/163/80 82/164/81 81/162/79
f 86/163/80 83/165/82 82/164/81
f 85/166/83 84/167/84 83/165/82
f 88/157/74 78/159/76 77/168/85
f 85/166/83 88/157/74 77/168/85
f 85/166/83 77/168/85 84/167/84
f 88/157/74 87/160/77 79/158/75
f 87/160/77 86/163/80 81/162/79
f 86/163/80 85/166/83 83/165/82
f 69/169/86 70/170/86 56/127/86 49/114/86
f 70/170/87 71/171/31 55/125/31 56/127/87
f 71/171/31 72/172/88 54/123/88 55/125/31
f 72/172/88 73/173/89 53/121/89 54/123/88
f 73/173/90 74/174/91 52/119/91 53/121/90
f 74/174/91 75/175/92 51/117/92 52/119/91
f 75/175/93 76/176/94 50/113/94 51/117/93
f 76/176/94 69/169/95 49/114/95 50/113/94
f 65/177/96 66/178/96 91/179/96 90/180/96
f 66/181/15 67/182/15 94/183/15 91/184/15
f 67/185/97 68/186/97 95/187/97 94/188/97
f 68/189/7 65/190/7 90/191/7 95/192/7
f 94/183/98 95/192/98 96/193/99 93/194/100
f 90/191/101 91/184/101 92/195/102 89/196/103
f 95/197/104 90/198/104 89/199/103 96/200/99
f 91/201/105 94/202/105 93/203/100 92/204/102
f 93/205/100 96/206/99 89/207/103 92/208/102
