# Blender v3.4.1 OBJ File: 'SpaceBits_export.blend'
# www.blender.org
mtllib windturbine_low.mtl
o windturbine_low_Cylinder.2723
v 0.107107 0.049998 -0.400000
v 0.087185 0.499999 -0.325578
v 0.400000 0.049998 -0.107107
v 0.325584 0.499999 -0.087179
v 0.400000 0.049998 0.107107
v 0.325584 0.499999 0.087179
v 0.107107 0.049998 0.400000
v 0.087185 0.499999 0.325578
v -0.107107 0.049998 0.400000
v -0.087173 0.499999 0.325578
v -0.400000 0.049998 0.107107
v -0.325572 0.499999 0.087179
v -0.400000 0.049998 -0.107107
v -0.325572 0.499999 -0.087179
v -0.107107 0.049998 -0.400000
v -0.087173 0.499999 -0.325578
v 0.000006 0.499999 0.000000
v 0.303150 0.000000 0.000000
v 0.000000 0.000000 -0.303150
v 0.000000 0.000000 0.303150
v -0.303150 0.000000 0.000000
v 0.107107 0.299998 -0.400000
v 0.400000 0.299998 -0.107107
v -0.107107 0.299998 -0.400000
v 0.400000 0.299998 0.107107
v 0.107107 0.299998 0.400000
v -0.107107 0.299998 0.400000
v -0.400000 0.299998 0.107107
v -0.400000 0.299998 -0.107107
v 0.394975 0.000000 0.536396
v 0.324264 0.000000 0.394975
v 0.536396 0.000000 0.394975
v 0.394975 0.000000 0.324264
v 0.501040 0.000000 0.571752
v 0.501040 0.049997 0.571752
v 0.571751 0.049997 0.501041
v 0.571751 0.000000 0.501041
v 0.394975 0.099997 0.536396
v 0.366693 0.120002 0.423259
v 0.423261 0.120002 0.366690
v 0.536396 0.099997 0.394975
v 0.437403 0.120002 0.493970
v 0.278556 0.375356 0.335122
v 0.242698 0.324646 0.299264
v 0.493972 0.120002 0.437401
v 0.335125 0.375356 0.278554
v 0.299267 0.324646 0.242696
v 0.377613 0.222839 0.448319
v 0.332161 0.299444 0.402867
v 0.323445 0.158561 0.394151
v 0.277993 0.235165 0.348699
v 0.448324 0.222839 0.377608
v 0.402872 0.299444 0.332156
v 0.394156 0.158561 0.323440
v 0.348704 0.235165 0.277988
v 0.247682 0.376450 0.391502
v 0.391501 0.376450 0.247683
v 0.369029 0.281142 0.439735
v 0.439740 0.281142 0.369024
v -0.394975 0.000000 -0.536396
v -0.324264 0.000000 -0.394975
v -0.536396 0.000000 -0.394975
v -0.394975 0.000000 -0.324264
v -0.501041 0.000000 -0.571751
v -0.501041 0.049997 -0.571751
v -0.571751 0.049997 -0.501041
v -0.571751 0.000000 -0.501041
v -0.394975 0.099997 -0.536396
v -0.366693 0.120002 -0.423259
v -0.423261 0.120002 -0.366690
v -0.536396 0.099997 -0.394975
v -0.437404 0.120002 -0.493969
v -0.278556 0.375356 -0.335122
v -0.242698 0.324646 -0.299264
v -0.493972 0.120002 -0.437401
v -0.335125 0.375356 -0.278553
v -0.299267 0.324646 -0.242696
v -0.377613 0.222839 -0.448318
v -0.332161 0.299444 -0.402866
v -0.323446 0.158561 -0.394151
v -0.277994 0.235165 -0.348699
v -0.448324 0.222839 -0.377608
v -0.402872 0.299444 -0.332156
v -0.394156 0.158561 -0.323440
v -0.348704 0.235165 -0.277988
v -0.247683 0.376450 -0.391502
v -0.391502 0.376450 -0.247682
v -0.369029 0.281142 -0.439735
v -0.439740 0.281142 -0.369024
v -0.536396 0.000000 0.394975
v -0.394975 0.000000 0.324264
v -0.394975 0.000000 0.536396
v -0.324264 0.000000 0.394975
v -0.571751 0.000000 0.501041
v -0.571751 0.049997 0.501041
v -0.501041 0.049997 0.571751
v -0.501041 0.000000 0.571751
v -0.536396 0.099997 0.394975
v -0.423259 0.120002 0.366693
v -0.366690 0.120002 0.423261
v -0.394975 0.099997 0.536396
v -0.493969 0.120002 0.437404
v -0.335122 0.375356 0.278556
v -0.299264 0.324646 0.242698
v -0.437401 0.120002 0.493972
v -0.278553 0.375356 0.335125
v -0.242696 0.324646 0.299267
v -0.448318 0.222839 0.377613
v -0.402866 0.299444 0.332161
v -0.394151 0.158561 0.323446
v -0.348699 0.235165 0.277994
v -0.377608 0.222839 0.448324
v -0.332156 0.299444 0.402872
v -0.323440 0.158561 0.394156
v -0.277988 0.235165 0.348704
v -0.391501 0.376450 0.247683
v -0.247682 0.376450 0.391502
v -0.439734 0.281142 0.369029
v -0.369024 0.281142 0.439740
v 0.536396 0.000000 -0.394975
v 0.394975 0.000000 -0.324264
v 0.394975 0.000000 -0.536396
v 0.324264 0.000000 -0.394975
v 0.571752 0.000000 -0.501041
v 0.571752 0.049997 -0.501041
v 0.501041 0.049997 -0.571751
v 0.501041 0.000000 -0.571751
v 0.536396 0.099997 -0.394975
v 0.423259 0.120002 -0.366693
v 0.366690 0.120002 -0.423261
v 0.394975 0.099997 -0.536396
v 0.493970 0.120002 -0.437403
v 0.335122 0.375356 -0.278556
v 0.299264 0.324646 -0.242698
v 0.437401 0.120002 -0.493972
v 0.278554 0.375356 -0.335125
v 0.242696 0.324646 -0.299267
v 0.448319 0.222839 -0.377613
v 0.402867 0.299444 -0.332161
v 0.394151 0.158561 -0.323445
v 0.348699 0.235165 -0.277994
v 0.377608 0.222839 -0.448324
v 0.332156 0.299444 -0.402872
v 0.323440 0.158561 -0.394156
v 0.277988 0.235165 -0.348704
v 0.391502 0.376450 -0.247682
v 0.247683 0.376450 -0.391501
v 0.439735 0.281142 -0.369029
v 0.369024 0.281142 -0.439740
vt 0.298970 0.839204
vt 0.298970 0.875571
vt 0.326030 0.875571
vt 0.326030 0.839204
vt 0.326030 0.839204
vt 0.326030 0.875571
vt 0.298970 0.875571
vt 0.298970 0.839204
vt 0.279836 0.839204
vt 0.279836 0.875571
vt 0.279836 0.875571
vt 0.279836 0.839204
vt 0.345164 0.839204
vt 0.345164 0.875571
vt 0.345164 0.875571
vt 0.345164 0.839204
vt 0.435405 0.930396
vt 0.454539 0.930396
vt 0.451273 0.925850
vt 0.434052 0.925850
vt 0.345164 0.891196
vt 0.326030 0.891196
vt 0.341898 0.895742
vt 0.454539 0.930396
vt 0.345164 0.891196
vt 0.435405 0.930396
vt 0.434052 0.925850
vt 0.326030 0.891196
vt 0.324677 0.895742
vt 0.408345 0.930396
vt 0.298970 0.891196
vt 0.300323 0.895742
vt 0.389211 0.930396
vt 0.392477 0.925850
vt 0.409698 0.925850
vt 0.279836 0.891196
vt 0.283102 0.895742
vt 0.389211 0.930396
vt 0.279836 0.891196
vt 0.408345 0.930396
vt 0.409698 0.925850
vt 0.298970 0.891196
vt 0.435405 0.961646
vt 0.435405 0.979829
vt 0.454539 0.979829
vt 0.454539 0.961646
vt 0.454539 0.979829
vt 0.454539 0.961646
vt 0.389211 0.961646
vt 0.389211 0.979829
vt 0.408345 0.979829
vt 0.408345 0.961646
vt 0.389211 0.961646
vt 0.389211 0.979829
vt 0.408345 0.961646
vt 0.408345 0.979829
vt 0.435405 0.961646
vt 0.435405 0.979829
vt 0.346360 0.909888
vt 0.284499 0.909888
vt 0.284499 0.890993
vt 0.346360 0.890993
vt 0.346360 0.828012
vt 0.346360 0.872028
vt 0.346360 0.846908
vt 0.284499 0.853133
vt 0.284499 0.872028
vt 0.284499 0.828012
vt 0.580895 0.824487
vt 0.596360 0.846495
vt 0.596360 0.846495
vt 0.549964 0.824487
vt 0.534499 0.824487
vt 0.534499 0.846495
vt 0.577803 0.873133
vt 0.580895 0.857726
vt 0.596360 0.868730
vt 0.580895 0.824487
vt 0.596360 0.824487
vt 0.580895 0.824487
vt 0.580895 0.835490
vt 0.549964 0.835490
vt 0.549964 0.824487
vt 0.596360 0.846495
vt 0.428059 0.788398
vt 0.428059 0.844596
vt 0.428059 0.833436
vt 0.428059 0.788398
vt 0.428059 0.772773
vt 0.428059 0.817811
vt 0.452803 0.817811
vt 0.452803 0.772773
vt 0.452803 0.788398
vt 0.452803 0.833436
vt 0.452803 0.844596
vt 0.452803 0.788398
vt 0.452803 0.810633
vt 0.452803 0.866831
vt 0.428059 0.866831
vt 0.428059 0.810633
vt 0.393716 0.906259
vt 0.393716 0.920405
vt 0.393716 0.937264
vt 0.393716 0.923118
vt 0.393716 0.928835
vt 0.393716 0.890634
vt 0.393716 0.907493
vt 0.424647 0.907493
vt 0.424647 0.890634
vt 0.424647 0.966695
vt 0.424647 0.975124
vt 0.393716 0.975124
vt 0.393716 0.966695
vt 0.424647 0.906259
vt 0.424647 0.920405
vt 0.424647 0.923118
vt 0.424647 0.937264
vt 0.577803 0.873133
vt 0.534499 0.868730
vt 0.534499 0.868730
vt 0.553059 0.873133
vt 0.549964 0.857726
vt 0.577803 0.850898
vt 0.553059 0.850898
vt 0.284499 0.796762
vt 0.346360 0.796762
vt 0.346360 0.815658
vt 0.284499 0.815658
vt 0.424647 0.927015
vt 0.424647 0.935445
vt 0.393716 0.935445
vt 0.393716 0.927015
vt 0.424647 0.928835
vt 0.346360 0.909888
vt 0.284499 0.909888
vt 0.284499 0.890993
vt 0.346360 0.890993
vt 0.346360 0.828012
vt 0.346360 0.872028
vt 0.346360 0.846908
vt 0.284499 0.853133
vt 0.284499 0.872028
vt 0.284499 0.828012
vt 0.580895 0.824487
vt 0.596360 0.846495
vt 0.596360 0.846495
vt 0.596360 0.846495
vt 0.549964 0.824487
vt 0.534499 0.824487
vt 0.534499 0.846495
vt 0.577803 0.873133
vt 0.580895 0.857726
vt 0.596360 0.868730
vt 0.596360 0.824487
vt 0.580895 0.824487
vt 0.580895 0.835490
vt 0.549964 0.835490
vt 0.549964 0.824487
vt 0.428059 0.788398
vt 0.428059 0.844596
vt 0.428059 0.833436
vt 0.428059 0.788398
vt 0.428059 0.772773
vt 0.428059 0.817811
vt 0.452803 0.817811
vt 0.452803 0.772773
vt 0.452803 0.788398
vt 0.452803 0.833436
vt 0.452803 0.844596
vt 0.452803 0.788398
vt 0.452803 0.810633
vt 0.452803 0.866831
vt 0.428059 0.866831
vt 0.428059 0.810633
vt 0.393716 0.906259
vt 0.393716 0.920405
vt 0.393716 0.937264
vt 0.393716 0.923118
vt 0.393716 0.928835
vt 0.393716 0.890634
vt 0.393716 0.907493
vt 0.424647 0.907493
vt 0.424647 0.890634
vt 0.424647 0.966695
vt 0.424647 0.975124
vt 0.393716 0.975124
vt 0.393716 0.966695
vt 0.424647 0.906259
vt 0.424647 0.920405
vt 0.424647 0.923118
vt 0.424647 0.937264
vt 0.577803 0.873133
vt 0.534499 0.868730
vt 0.534499 0.868730
vt 0.553059 0.873133
vt 0.549964 0.857726
vt 0.577803 0.850898
vt 0.553059 0.850898
vt 0.284499 0.796762
vt 0.346360 0.796762
vt 0.346360 0.815658
vt 0.284499 0.815658
vt 0.424647 0.927015
vt 0.424647 0.935445
vt 0.393716 0.935445
vt 0.393716 0.927015
vt 0.424647 0.928835
vt 0.346360 0.909888
vt 0.284499 0.909888
vt 0.284499 0.890993
vt 0.346360 0.890993
vt 0.346360 0.828012
vt 0.346360 0.872028
vt 0.346360 0.846908
vt 0.284499 0.853133
vt 0.284499 0.872028
vt 0.284499 0.828012
vt 0.580895 0.824487
vt 0.596360 0.846495
vt 0.596360 0.846495
vt 0.549964 0.824487
vt 0.534499 0.824487
vt 0.534499 0.846495
vt 0.577803 0.873133
vt 0.580895 0.857726
vt 0.596360 0.868730
vt 0.596360 0.824487
vt 0.580895 0.824487
vt 0.580895 0.835490
vt 0.549964 0.835490
vt 0.549964 0.824487
vt 0.428059 0.788398
vt 0.428059 0.844596
vt 0.428059 0.833436
vt 0.428059 0.788398
vt 0.428059 0.772773
vt 0.428059 0.817811
vt 0.452803 0.817811
vt 0.452803 0.772773
vt 0.452803 0.788398
vt 0.452803 0.833436
vt 0.452803 0.844596
vt 0.452803 0.788398
vt 0.452803 0.810633
vt 0.452803 0.866831
vt 0.428059 0.866831
vt 0.428059 0.810633
vt 0.393716 0.906259
vt 0.393716 0.920405
vt 0.393716 0.937264
vt 0.393716 0.923118
vt 0.393716 0.928835
vt 0.393716 0.890634
vt 0.393716 0.907493
vt 0.424647 0.907493
vt 0.424647 0.890634
vt 0.424647 0.966695
vt 0.424647 0.975124
vt 0.393716 0.975124
vt 0.393716 0.966695
vt 0.424647 0.906259
vt 0.424647 0.920405
vt 0.424647 0.923118
vt 0.424647 0.937264
vt 0.577803 0.873133
vt 0.534499 0.868730
vt 0.534499 0.868730
vt 0.553059 0.873133
vt 0.549964 0.857726
vt 0.577803 0.850898
vt 0.553059 0.850898
vt 0.284499 0.796762
vt 0.346360 0.796762
vt 0.346360 0.815658
vt 0.284499 0.815658
vt 0.424647 0.927015
vt 0.424647 0.935445
vt 0.393716 0.935445
vt 0.393716 0.927015
vt 0.424647 0.928835
vt 0.346360 0.909888
vt 0.284499 0.909888
vt 0.284499 0.890993
vt 0.346360 0.890993
vt 0.346360 0.828012
vt 0.346360 0.872028
vt 0.346360 0.846908
vt 0.284499 0.853133
vt 0.284499 0.872028
vt 0.284499 0.828012
vt 0.549964 0.824487
vt 0.534499 0.824487
vt 0.534499 0.846495
vt 0.577803 0.873133
vt 0.580895 0.857726
vt 0.596360 0.868730
vt 0.596360 0.824487
vt 0.580895 0.824487
vt 0.580895 0.835490
vt 0.549964 0.835490
vt 0.549964 0.824487
vt 0.428059 0.788398
vt 0.428059 0.844596
vt 0.428059 0.833436
vt 0.428059 0.788398
vt 0.428059 0.772773
vt 0.428059 0.817811
vt 0.452803 0.817811
vt 0.452803 0.772773
vt 0.452803 0.788398
vt 0.452803 0.833436
vt 0.452803 0.844596
vt 0.452803 0.788398
vt 0.452803 0.810633
vt 0.452803 0.866831
vt 0.428059 0.866831
vt 0.428059 0.810633
vt 0.393716 0.906259
vt 0.393716 0.920405
vt 0.393716 0.937264
vt 0.393716 0.923118
vt 0.393716 0.928835
vt 0.393716 0.890634
vt 0.393716 0.907493
vt 0.424647 0.907493
vt 0.424647 0.890634
vt 0.424647 0.966695
vt 0.424647 0.975124
vt 0.393716 0.975124
vt 0.393716 0.966695
vt 0.424647 0.906259
vt 0.424647 0.920405
vt 0.424647 0.923118
vt 0.424647 0.937264
vt 0.577803 0.873133
vt 0.534499 0.868730
vt 0.534499 0.868730
vt 0.553059 0.873133
vt 0.549964 0.857726
vt 0.577803 0.850898
vt 0.553059 0.850898
vt 0.284499 0.796762
vt 0.346360 0.796762
vt 0.346360 0.815658
vt 0.284499 0.815658
vt 0.424647 0.927015
vt 0.424647 0.935445
vt 0.393716 0.935445
vt 0.393716 0.927015
vt 0.424647 0.928835
vt 0.534499 0.846495
vt 0.534499 0.846495
vt 0.534499 0.846495
vt 0.534499 0.846495
vn 0.0356 0.2188 -0.9751
vn 0.0398 0.3450 -0.9378
vn -0.0398 0.3450 -0.9378
vn -0.0356 0.2188 -0.9751
vn -0.0356 0.2188 0.9751
vn -0.0398 0.3450 0.9378
vn 0.0398 0.3450 0.9378
vn 0.0356 0.2188 0.9751
vn -0.9751 0.2188 -0.0356
vn -0.9378 0.3450 -0.0398
vn -0.9378 0.3450 0.0398
vn -0.9751 0.2188 0.0356
vn 0.9751 0.2188 0.0356
vn 0.9378 0.3450 0.0398
vn 0.9378 0.3450 -0.0398
vn 0.9751 0.2188 -0.0356
vn 0.2316 -0.9448 -0.2316
vn 0.0000 1.0000 0.0000
vn 0.4587 -0.8886 0.0000
vn 0.2316 -0.9448 0.2316
vn -0.0000 -0.8886 0.4587
vn -0.2316 -0.9448 0.2316
vn -0.4587 -0.8886 0.0000
vn -0.2316 -0.9448 -0.2316
vn 0.0000 -0.8886 -0.4587
vn 0.0000 -1.0000 0.0000
vn 0.7071 0.0000 -0.7071
vn 1.0000 0.0000 0.0000
vn -0.7071 0.0000 -0.7071
vn -1.0000 0.0000 0.0000
vn -0.7071 0.0000 0.7071
vn -0.0000 0.0000 1.0000
vn 0.7071 0.0000 0.7071
vn 0.0000 0.0000 -1.0000
vn 0.4320 0.7917 0.4320
vn 0.9338 0.3349 -0.1257
vn -0.1257 0.3350 0.9338
vn -0.3589 0.1445 0.9221
vn -0.2774 0.2615 0.9245
vn -0.3786 0.1141 0.9185
vn -0.9221 0.1445 0.3589
vn -0.6552 0.0000 0.7555
vn -0.7448 0.0755 0.6630
vn 0.4521 0.8581 0.2436
vn 0.4506 0.8205 0.3518
vn 0.4346 0.9005 0.0100
vn 0.9487 0.0000 -0.3162
vn -0.3162 0.0000 0.9487
vn -0.5369 -0.6507 -0.5369
vn 0.5309 0.6605 0.5309
vn 0.2436 0.8581 0.4520
vn -0.5417 -0.6428 -0.5417
vn 0.2342 0.9436 0.2342
vn 0.4545 -0.7660 0.4545
vn -0.4545 0.7660 -0.4545
vn 0.2237 0.9487 -0.2237
vn -0.2237 0.9487 0.2237
vn 0.0100 0.9006 0.4346
vn 0.3518 0.8205 0.4506
vn -0.6527 0.3846 -0.6527
vn 0.4479 -0.7738 0.4479
vn 0.6923 0.2038 0.6923
vn -0.4320 0.7917 -0.4320
vn -0.9338 0.3350 0.1257
vn 0.1257 0.3350 -0.9338
vn 0.9221 0.1445 0.3589
vn 0.9245 0.2615 0.2774
vn 0.7448 0.0754 0.6630
vn 0.3589 0.1445 -0.9221
vn 0.2774 0.2615 -0.9245
vn 0.3786 0.1141 -0.9185
vn 0.9221 0.1445 -0.3589
vn 0.6552 0.0000 -0.7555
vn 0.7448 0.0755 -0.6630
vn -0.4521 0.8581 -0.2436
vn -0.4506 0.8205 -0.3518
vn -0.4346 0.9005 -0.0100
vn -0.9487 0.0000 0.3162
vn 0.3162 0.0000 -0.9487
vn 0.5369 -0.6507 0.5369
vn -0.5309 0.6605 -0.5309
vn -0.2436 0.8581 -0.4520
vn 0.5417 -0.6428 0.5417
vn -0.2342 0.9436 -0.2342
vn -0.4545 -0.7660 -0.4545
vn 0.4545 0.7660 0.4545
vn -0.0100 0.9006 -0.4346
vn -0.3518 0.8205 -0.4506
vn 0.6527 0.3846 0.6527
vn -0.4479 -0.7738 -0.4479
vn -0.6923 0.2038 -0.6923
vn -0.4320 0.7917 0.4320
vn 0.1257 0.3350 0.9338
vn -0.9338 0.3350 -0.1257
vn -0.9221 0.1445 -0.3589
vn -0.9245 0.2615 -0.2774
vn -0.9185 0.1141 -0.3786
vn -0.3589 0.1445 -0.9221
vn -0.4472 0.0000 -0.8944
vn -0.3786 0.1141 -0.9185
vn -0.2436 0.8581 0.4521
vn -0.3518 0.8205 0.4506
vn -0.0100 0.9005 0.4346
vn 0.6552 0.0000 0.7555
vn 0.3162 0.0000 0.9487
vn -0.9487 0.0000 -0.3162
vn 0.5369 -0.6507 -0.5369
vn -0.5309 0.6605 0.5309
vn -0.4520 0.8581 0.2436
vn 0.5417 -0.6428 -0.5417
vn -0.2342 0.9436 0.2342
vn -0.4545 -0.7660 0.4545
vn 0.4545 0.7660 -0.4545
vn 0.2237 0.9487 0.2237
vn -0.2237 0.9487 -0.2237
vn -0.4346 0.9006 0.0100
vn -0.4506 0.8205 0.3518
vn 0.6527 0.3846 -0.6527
vn -0.4479 -0.7738 0.4479
vn -0.6923 0.2038 0.6923
vn 0.4320 0.7917 -0.4320
vn -0.1257 0.3350 -0.9338
vn 0.9338 0.3349 0.1257
vn 0.3589 0.1445 0.9221
vn 0.4472 0.0000 0.8944
vn 0.3786 0.1141 0.9185
vn 0.2436 0.8581 -0.4521
vn 0.3518 0.8205 -0.4506
vn 0.0100 0.9005 -0.4346
vn -0.3162 0.0000 -0.9487
vn 0.9487 0.0000 0.3162
vn -0.5369 -0.6507 0.5369
vn 0.5309 0.6605 -0.5309
vn 0.4520 0.8581 -0.2436
vn -0.5417 -0.6428 0.5417
vn 0.2342 0.9436 -0.2342
vn 0.4545 -0.7660 -0.4545
vn -0.4545 0.7660 0.4545
vn 0.4346 0.9006 -0.0100
vn 0.4506 0.8205 -0.3518
vn -0.6527 0.3846 0.6527
vn 0.4479 -0.7738 -0.4479
vn 0.6923 0.2038 -0.6923
vn -0.8944 0.0000 -0.4472
vn 0.9245 0.2615 -0.2773
vn -0.4472 0.0000 0.8944
vn -0.9245 0.2615 0.2773
vn -0.2773 0.2615 -0.9245
vn 0.2773 0.2615 0.9245
vn 0.4472 0.0000 -0.8944
usemtl spacebits_texture
s 1
f 24/1/1 16/2/2 2/3/3 22/4/4
f 26/5/5 8/6/6 10/7/7 27/8/8
f 28/9/9 12/10/10 14/11/11 29/12/12
f 23/13/13 4/14/14 6/15/15 25/16/16
f 1/17/17 3/18/17 18/19/17 19/20/17
f 4/21/18 2/22/18 17/23/18
f 3/18/19 5/24/19 18/19/19
f 6/25/18 4/21/18 17/23/18
f 5/24/20 7/26/20 20/27/20 18/19/20
f 8/28/18 6/25/18 17/29/18
f 7/26/21 9/30/21 20/27/21
f 10/31/18 8/28/18 17/32/18
f 9/30/22 11/33/22 21/34/22 20/35/22
f 12/36/18 10/31/18 17/37/18
f 11/33/23 13/38/23 21/34/23
f 14/39/18 12/36/18 17/37/18
f 13/38/24 15/40/24 19/41/24 21/34/24
f 16/42/18 14/39/18 17/32/18
f 15/40/25 1/17/25 19/41/25
f 2/22/18 16/42/18 17/29/18
f 21/34/26 19/20/26 18/19/26 20/35/26
f 1/43/27 22/44/27 23/45/27 3/46/27
f 3/46/28 23/45/13 25/47/16 5/48/28
f 13/49/29 29/50/29 24/51/29 15/52/29
f 11/53/30 28/54/9 29/50/12 13/49/30
f 9/55/31 27/56/31 28/54/31 11/53/31
f 7/57/32 26/58/5 27/56/8 9/55/32
f 5/48/33 25/47/33 26/58/33 7/57/33
f 15/52/34 24/51/1 22/44/4 1/43/34
f 6/59/35 8/60/35 56/61/35 57/62/35
f 25/63/16 6/64/15 57/65/36
f 56/66/37 8/67/6 26/68/5
f 63/69/38 70/70/39 71/71/40
f 31/72/41 30/73/42 38/74/43
f 45/75/44 36/76/45 41/77/46
f 31/72/26 33/78/26 32/79/26 30/73/26
f 37/80/33 36/81/33 35/82/33 34/83/33
f 32/79/47 41/84/47 36/81/47 37/80/47
f 38/74/43 30/73/42 34/83/48 35/82/48
f 30/73/26 32/79/26 37/80/26 34/83/26
f 42/85/31 43/86/31 44/87/31 39/88/31
f 39/89/49 44/90/49 47/91/49 40/92/49
f 40/93/27 47/94/27 46/95/27 45/96/27
f 45/97/44 46/98/50 43/99/50 42/100/51
f 50/101/31 48/102/31 49/103/31 51/104/31
f 48/102/31 58/105/31 49/103/31
f 50/106/52 51/107/52 55/108/52 54/109/52
f 59/110/53 53/111/53 49/112/53 58/113/53
f 50/101/54 54/114/54 52/115/54 48/102/54
f 55/116/55 51/104/55 49/103/55 53/117/55
f 41/77/46 40/118/56 45/75/44
f 39/119/57 38/120/58 42/121/51
f 35/122/59 42/121/51 38/120/58
f 35/122/59 36/76/45 45/75/44 42/121/51
f 40/123/60 33/78/60 31/72/60 39/124/60
f 26/125/61 25/126/61 57/127/61 56/128/61
f 52/129/62 59/130/62 58/131/62 48/132/62
f 54/114/27 55/116/27 53/117/27 52/115/27
f 52/115/27 53/117/27 59/133/27
f 14/134/63 16/135/63 86/136/63 87/137/63
f 29/138/12 14/139/11 87/140/64
f 86/141/65 16/142/2 24/143/1
f 93/144/66 100/145/67 101/146/68
f 33/78/69 40/147/70 41/84/71
f 61/148/72 60/149/73 68/150/74
f 75/151/75 66/152/76 71/153/77
f 61/148/26 63/69/26 62/154/26 60/149/26
f 67/155/29 66/156/29 65/157/29 64/158/29
f 62/154/78 71/71/78 66/156/78 67/155/78
f 68/150/74 60/149/73 64/158/79 65/157/79
f 60/149/26 62/154/26 67/155/26 64/158/26
f 72/159/27 73/160/27 74/161/27 69/162/27
f 69/163/80 74/164/80 77/165/80 70/166/80
f 70/167/31 77/168/31 76/169/31 75/170/31
f 75/171/75 76/172/81 73/173/81 72/174/82
f 80/175/27 78/176/27 79/177/27 81/178/27
f 78/176/27 88/179/27 79/177/27
f 80/180/83 81/181/83 85/182/83 84/183/83
f 89/184/84 83/185/84 79/186/84 88/187/84
f 80/175/85 84/188/85 82/189/85 78/176/85
f 85/190/86 81/178/86 79/177/86 83/191/86
f 71/153/77 70/192/57 75/151/75
f 69/193/56 68/194/87 72/195/82
f 65/196/88 72/195/82 68/194/87
f 65/196/88 66/152/76 75/151/75 72/195/82
f 70/197/89 63/69/89 61/148/89 69/198/89
f 24/199/90 29/200/90 87/201/90 86/202/90
f 82/203/91 89/204/91 88/205/91 78/206/91
f 84/188/31 85/190/31 83/191/31 82/189/31
f 82/189/31 83/191/31 89/207/31
f 10/208/92 12/209/92 116/210/92 117/211/92
f 27/212/8 10/213/7 117/214/93
f 116/215/94 12/216/10 28/217/9
f 123/218/95 130/219/96 131/220/97
f 91/221/98 90/222/99 98/223/100
f 105/224/101 96/225/102 101/226/103
f 91/221/26 93/144/26 92/227/26 90/222/26
f 97/228/31 96/229/31 95/230/31 94/231/31
f 92/227/104 101/146/68 96/229/105 97/228/105
f 98/223/106 90/222/106 94/231/106 95/230/106
f 90/222/26 92/227/26 97/228/26 94/231/26
f 102/232/29 103/233/29 104/234/29 99/235/29
f 99/236/107 104/237/107 107/238/107 100/239/107
f 100/240/33 107/241/33 106/242/33 105/243/33
f 105/244/101 106/245/108 103/246/108 102/247/109
f 110/248/29 108/249/29 109/250/29 111/251/29
f 108/249/29 118/252/29 109/250/29
f 110/253/110 111/254/110 115/255/110 114/256/110
f 119/257/111 113/258/111 109/259/111 118/260/111
f 110/248/112 114/261/112 112/262/112 108/249/112
f 115/263/113 111/251/113 109/250/113 113/264/113
f 101/226/103 100/265/114 105/224/101
f 99/266/115 98/267/116 102/268/109
f 95/269/117 102/268/109 98/267/116
f 95/269/117 96/225/102 105/224/101 102/268/109
f 100/270/118 93/144/118 91/221/118 99/271/118
f 28/272/119 27/273/119 117/274/119 116/275/119
f 112/276/120 119/277/120 118/278/120 108/279/120
f 114/261/33 115/263/33 113/264/33 112/262/33
f 112/262/33 113/264/33 119/280/33
f 2/281/121 4/282/121 146/283/121 147/284/121
f 22/285/4 2/286/3 147/287/122
f 146/288/123 4/289/14 23/290/13
f 121/291/124 120/292/125 128/293/126
f 135/294/127 126/295/128 131/296/129
f 121/291/26 123/218/26 122/297/26 120/292/26
f 127/298/27 126/299/27 125/300/27 124/301/27
f 122/297/130 131/220/130 126/299/130 127/298/130
f 128/293/131 120/292/131 124/301/131 125/300/131
f 120/292/26 122/297/26 127/298/26 124/301/26
f 132/302/33 133/303/33 134/304/33 129/305/33
f 129/306/132 134/307/132 137/308/132 130/309/132
f 130/310/29 137/311/29 136/312/29 135/313/29
f 135/314/127 136/315/133 133/316/133 132/317/134
f 140/318/33 138/319/33 139/320/33 141/321/33
f 138/319/33 148/322/33 139/320/33
f 140/323/135 141/324/135 145/325/135 144/326/135
f 149/327/136 143/328/136 139/329/136 148/330/136
f 140/318/137 144/331/137 142/332/137 138/319/137
f 145/333/138 141/321/138 139/320/138 143/334/138
f 131/296/129 130/335/115 135/294/127
f 129/336/114 128/337/139 132/338/134
f 125/339/140 132/338/134 128/337/139
f 125/339/140 126/295/128 135/294/127 132/338/134
f 130/340/141 123/218/141 121/291/141 129/341/141
f 23/342/142 22/343/142 147/344/142 146/345/142
f 142/346/143 149/347/143 148/348/143 138/349/143
f 144/331/29 145/333/29 143/334/29 142/332/29
f 142/332/29 143/334/29 149/350/29
f 122/297/144 123/218/95 131/220/97
f 69/351/145 61/148/72 68/150/74
f 62/154/146 63/69/38 71/71/40
f 39/352/147 31/72/41 38/74/43
f 99/353/148 91/221/98 98/223/100
f 92/227/104 93/144/66 101/146/68
f 129/354/149 121/291/124 128/293/126
f 32/79/150 33/78/69 41/84/71
