<?xml version="1.0" encoding="UTF-8" standalone="no"?>
<svg
   xmlns:dc="http://purl.org/dc/elements/1.1/"
   xmlns:cc="http://creativecommons.org/ns#"
   xmlns:rdf="http://www.w3.org/1999/02/22-rdf-syntax-ns#"
   xmlns:svg="http://www.w3.org/2000/svg"
   xmlns="http://www.w3.org/2000/svg"
   xmlns:sodipodi="http://sodipodi.sourceforge.net/DTD/sodipodi-0.dtd"
   xmlns:inkscape="http://www.inkscape.org/namespaces/inkscape"
   inkscape:export-ydpi="96"
   inkscape:export-xdpi="96"
   inkscape:export-filename="C:\Users\joelr\Documents\starring codes\Godot Projects\Tebenge\GameDVDCardtridge\Tebenge\Assets\images\TebengeFeature.png"
   sodipodi:docname="TebengeFeature.svg"
   inkscape:version="1.0 (4035a4fb49, 2020-05-01)"
   id="svg8"
   version="1.1"
   viewBox="0 0 1024 500.00002"
   height="500"
   width="1024">
  <defs
     id="defs2">
    <inkscape:path-effect
       hide_knots="false"
       only_selected="false"
       apply_with_radius="true"
       apply_no_radius="true"
       use_knot_distance="true"
       flexible="false"
       chamfer_steps="1"
       radius="25"
       mode="F"
       method="auto"
       unit="px"
       satellites_param="F,0,0,1,0,25,0,1 @ F,0,0,1,0,25,0,1 @ F,0,0,1,0,25,0,1 @ F,0,0,1,0,25,0,1 @ F,0,0,1,0,25,0,1 @ F,0,0,1,0,25,0,1 @ F,0,0,1,0,25,0,1 @ F,0,0,1,0,25,0,1"
       lpeversion="1"
       is_visible="true"
       id="path-effect1656"
       effect="fillet_chamfer" />
    <inkscape:path-effect
       effect="fillet_chamfer"
       id="path-effect1648"
       is_visible="true"
       lpeversion="1"
       satellites_param="F,0,0,1,0,25,0,1 @ F,0,0,1,0,25,0,1 @ F,0,0,1,0,25,0,1 @ F,0,0,1,0,25,0,1 @ F,0,0,1,0,25,0,1 @ F,0,0,1,0,25,0,1 @ F,0,0,1,0,25,0,1 @ F,0,0,1,0,25,0,1"
       unit="px"
       method="auto"
       mode="F"
       radius="25"
       chamfer_steps="1"
       flexible="false"
       use_knot_distance="true"
       apply_no_radius="true"
       apply_with_radius="true"
       only_selected="false"
       hide_knots="false" />
    <inkscape:path-effect
       hide_knots="false"
       only_selected="false"
       apply_with_radius="true"
       apply_no_radius="true"
       use_knot_distance="true"
       flexible="false"
       chamfer_steps="1"
       radius="25"
       mode="F"
       method="auto"
       unit="px"
       satellites_param="F,0,0,1,0,25,0,1 @ F,0,0,1,0,25,0,1 @ F,0,0,1,0,25,0,1 @ F,0,0,1,0,25,0,1 @ F,0,0,1,0,25,0,1 @ F,0,0,1,0,25,0,1 @ F,0,0,1,0,25,0,1 @ F,0,0,1,0,25,0,1"
       lpeversion="1"
       is_visible="true"
       id="path-effect1640"
       effect="fillet_chamfer" />
    <inkscape:path-effect
       effect="fillet_chamfer"
       id="path-effect1632"
       is_visible="true"
       lpeversion="1"
       satellites_param="F,0,0,1,0,25,0,1 @ F,0,0,1,0,25,0,1 @ F,0,0,1,0,25,0,1 @ F,0,0,1,0,25,0,1 @ F,0,0,1,0,25,0,1 @ F,0,0,1,0,25,0,1 @ F,0,0,1,0,25,0,1 @ F,0,0,1,0,25,0,1"
       unit="px"
       method="auto"
       mode="F"
       radius="25"
       chamfer_steps="1"
       flexible="false"
       use_knot_distance="true"
       apply_no_radius="true"
       apply_with_radius="true"
       only_selected="false"
       hide_knots="false" />
    <inkscape:path-effect
       hide_knots="false"
       only_selected="false"
       apply_with_radius="true"
       apply_no_radius="true"
       use_knot_distance="true"
       flexible="false"
       chamfer_steps="1"
       radius="25"
       mode="F"
       method="auto"
       unit="px"
       satellites_param="F,0,0,1,0,25,0,1 @ F,0,0,1,0,25,0,1 @ F,0,0,1,0,25,0,1 @ F,0,0,1,0,25,0,1 @ F,0,0,1,0,25,0,1 @ F,0,0,1,0,25,0,1 @ F,0,0,1,0,25,0,1 @ F,0,0,1,0,25,0,1"
       lpeversion="1"
       is_visible="true"
       id="path-effect918"
       effect="fillet_chamfer" />
  </defs>
  <sodipodi:namedview
     inkscape:snap-bbox-midpoints="true"
     inkscape:snap-bbox-edge-midpoints="true"
     inkscape:bbox-nodes="true"
     inkscape:bbox-paths="true"
     inkscape:snap-bbox="true"
     inkscape:window-maximized="1"
     inkscape:window-y="-9"
     inkscape:window-x="-9"
     inkscape:window-height="1051"
     inkscape:window-width="1920"
     units="px"
     showgrid="true"
     inkscape:document-rotation="0"
     inkscape:current-layer="layer1"
     inkscape:document-units="px"
     inkscape:cy="199.6357"
     inkscape:cx="516.23007"
     inkscape:zoom="0.98994949"
     inkscape:pageshadow="2"
     inkscape:pageopacity="0"
     borderopacity="1.0"
     bordercolor="#666666"
     pagecolor="#26292b"
     id="base">
    <inkscape:grid
       empspacing="4"
       id="grid1558"
       type="xygrid" />
  </sodipodi:namedview>
  <metadata
     id="metadata5">
    <rdf:RDF>
      <cc:Work
         rdf:about="">
        <dc:format>image/svg+xml</dc:format>
        <dc:type
           rdf:resource="http://purl.org/dc/dcmitype/StillImage" />
        <dc:title></dc:title>
        <cc:license
           rdf:resource="http://creativecommons.org/licenses/by-sa/4.0/" />
      </cc:Work>
      <cc:License
         rdf:about="http://creativecommons.org/licenses/by-sa/4.0/">
        <cc:permits
           rdf:resource="http://creativecommons.org/ns#Reproduction" />
        <cc:permits
           rdf:resource="http://creativecommons.org/ns#Distribution" />
        <cc:requires
           rdf:resource="http://creativecommons.org/ns#Notice" />
        <cc:requires
           rdf:resource="http://creativecommons.org/ns#Attribution" />
        <cc:permits
           rdf:resource="http://creativecommons.org/ns#DerivativeWorks" />
        <cc:requires
           rdf:resource="http://creativecommons.org/ns#ShareAlike" />
      </cc:License>
    </rdf:RDF>
  </metadata>
  <g
     id="layer1"
     inkscape:groupmode="layer"
     inkscape:label="Lapis 1">
    <g
       id="g3888">
      <g
         id="g897"
         transform="matrix(0.29583845,0,0,0.29583845,135.19902,143.53194)"
         style="display:inline">
        <g
           id="g885">
          <g
             id="g873">
            <path
               id="path860"
               d="m 320,296 h -16 l 8,-32 h -8 l 8,-16 h 72 l -8,16 h -48 z"
               style="fill:#999999;stroke:#000000;stroke-width:1px;stroke-linecap:butt;stroke-linejoin:miter;stroke-opacity:1" />
            <g
               id="g867">
              <path
                 style="fill:#008080;stroke:#000000;stroke-width:1px;stroke-linecap:butt;stroke-linejoin:miter;stroke-opacity:1"
                 d="m 176,272 -32,104 h 16 l 32,-88 z"
                 id="path856"
                 sodipodi:nodetypes="ccccc" />
              <path
                 id="rect848"
                 style="fill:#008080;stroke:#000000;stroke-width:1;stroke-linecap:round;stroke-linejoin:round;stroke-miterlimit:4;stroke-dasharray:none;stroke-opacity:1;paint-order:fill markers stroke"
                 d="m 160,256 v 112 h 48 V 288 H 320 V 272 H 208 v -16 z" />
            </g>
          </g>
          <path
             style="fill:#00ff00;stroke:#000000;stroke-width:1px;stroke-linecap:butt;stroke-linejoin:miter;stroke-opacity:1"
             d="m 160,368 -16,64 -80,-16 v 32 l 112,16 16,-64 16,64 -32,112 h 48 l 16,-112 -32,-96 z"
             id="path852"
             sodipodi:nodetypes="cccccccccccc" />
        </g>
        <g
           id="g877">
          <rect
             style="fill:#0000ff;stroke:#000000;stroke-width:1;stroke-linecap:round;stroke-linejoin:round;stroke-miterlimit:4;stroke-dasharray:none;stroke-opacity:1;paint-order:fill markers stroke"
             id="rect846"
             width="128"
             height="128"
             x="128"
             y="128" />
          <path
             style="fill:#000000;stroke:#00ffff;stroke-width:1px;stroke-linecap:butt;stroke-linejoin:miter;stroke-opacity:1"
             d="m 192,144 96,16 -16,-48 -160,-16 -16,96 48,16 z"
             id="path854" />
        </g>
      </g>
      <g
         id="g900"
         style="display:inline"
         transform="matrix(0.47509579,0,0,0.47509579,693.42529,123.92337)">
        <g
           id="g889">
          <rect
             style="fill:#ff00ff;stroke:#808000;stroke-width:1;stroke-linecap:round;stroke-linejoin:round;stroke-miterlimit:4;stroke-dasharray:none;stroke-opacity:1;paint-order:fill markers stroke"
             id="rect900"
             width="224"
             height="128"
             x="128"
             y="192" />
          <g
             id="g878">
            <circle
               style="fill:#000000;stroke:#808000;stroke-width:1;stroke-linecap:round;stroke-linejoin:round;stroke-miterlimit:4;stroke-dasharray:none;stroke-opacity:1;paint-order:fill markers stroke"
               id="circle914"
               cx="152"
               cy="200"
               r="6" />
            <circle
               r="6"
               cy="208"
               cx="168"
               id="circle916"
               style="fill:#000000;stroke:#808000;stroke-width:1;stroke-linecap:round;stroke-linejoin:round;stroke-miterlimit:4;stroke-dasharray:none;stroke-opacity:1;paint-order:fill markers stroke" />
            <path
               style="fill:none;stroke:#000000;stroke-width:5;stroke-linecap:round;stroke-linejoin:round;stroke-miterlimit:4;stroke-dasharray:none;stroke-opacity:1"
               d="m 149,211 c 0,0 -4,15 10,5"
               id="path918"
               sodipodi:nodetypes="cc" />
          </g>
        </g>
        <g
           id="g882">
          <circle
             style="fill:#ff0000;stroke:#808000;stroke-width:1;stroke-linecap:round;stroke-linejoin:round;stroke-miterlimit:4;stroke-dasharray:none;stroke-opacity:1;paint-order:fill markers stroke"
             id="path902"
             cx="336"
             cy="312"
             r="52" />
          <circle
             r="52"
             cy="312"
             cx="208"
             id="circle904"
             style="fill:#ff0000;stroke:#808000;stroke-width:1;stroke-linecap:round;stroke-linejoin:round;stroke-miterlimit:4;stroke-dasharray:none;stroke-opacity:1;paint-order:fill markers stroke" />
        </g>
      </g>
      <g
         id="g1637"
         style="display:inline"
         transform="matrix(0.16452442,0,0,0.16452442,261.88175,197.88175)">
        <circle
           style="fill:#00ff00;stroke:#ff0000;stroke-width:5;stroke-linecap:round;stroke-linejoin:round;stroke-miterlimit:4;stroke-dasharray:none;paint-order:fill markers stroke"
           id="path863"
           cx="256"
           cy="256"
           r="192" />
        <path
           inkscape:path-effect="#path-effect918"
           inkscape:transform-center-y="-6.3379927"
           inkscape:randomized="0"
           inkscape:rounded="0"
           inkscape:flatsided="true"
           sodipodi:arg2="-1.1780972"
           sodipodi:arg1="-1.5707963"
           sodipodi:r2="115.32402"
           sodipodi:r1="152"
           sodipodi:cy="256"
           sodipodi:cx="256"
           sodipodi:sides="8"
           id="path916"
           style="fill:#0000ff;stroke:#008000;stroke-width:5;stroke-linecap:round;stroke-linejoin:round;paint-order:fill markers stroke"
           sodipodi:type="star"
           d="m 279.09699,113.56709 61.28626,25.3856 a 60.355339,60.355339 45.000002 0 1 32.66407,32.66407 l 25.38559,61.28626 a 60.355339,60.355339 90.000002 0 1 0,46.19397 l -25.3856,61.28626 a 60.355339,60.355339 135 0 1 -32.66407,32.66407 l -61.28626,25.38559 a 60.355339,60.355339 1.5352345e-6 0 1 -46.19397,0 l -61.28626,-25.3856 a 60.355339,60.355339 45.000002 0 1 -32.66407,-32.66407 l -25.38559,-61.28626 a 60.355339,60.355339 90.000002 0 1 0,-46.19397 l 25.3856,-61.28626 a 60.355339,60.355339 135 0 1 32.66407,-32.66407 l 61.28626,-25.38559 a 60.355339,60.355339 1.5352345e-6 0 1 46.19397,0 z" />
      </g>
      <g
         transform="matrix(0.16452442,0,0,0.16452442,341.88175,197.88175)"
         style="display:inline"
         id="g1630">
        <circle
           r="192"
           cy="256"
           cx="256"
           id="circle1626"
           style="fill:#00ff00;stroke:#ff0000;stroke-width:5;stroke-linecap:round;stroke-linejoin:round;stroke-miterlimit:4;stroke-dasharray:none;paint-order:fill markers stroke" />
        <path
           d="m 279.09699,113.56709 61.28626,25.3856 a 60.355339,60.355339 45.000002 0 1 32.66407,32.66407 l 25.38559,61.28626 a 60.355339,60.355339 90.000002 0 1 0,46.19397 l -25.3856,61.28626 a 60.355339,60.355339 135 0 1 -32.66407,32.66407 l -61.28626,25.38559 a 60.355339,60.355339 1.5352345e-6 0 1 -46.19397,0 l -61.28626,-25.3856 a 60.355339,60.355339 45.000002 0 1 -32.66407,-32.66407 l -25.38559,-61.28626 a 60.355339,60.355339 90.000002 0 1 0,-46.19397 l 25.3856,-61.28626 a 60.355339,60.355339 135 0 1 32.66407,-32.66407 l 61.28626,-25.38559 a 60.355339,60.355339 1.5352345e-6 0 1 46.19397,0 z"
           sodipodi:type="star"
           style="fill:#0000ff;stroke:#008000;stroke-width:5;stroke-linecap:round;stroke-linejoin:round;paint-order:fill markers stroke"
           id="path1628"
           sodipodi:sides="8"
           sodipodi:cx="256"
           sodipodi:cy="256"
           sodipodi:r1="152"
           sodipodi:r2="115.32402"
           sodipodi:arg1="-1.5707963"
           sodipodi:arg2="-1.1780972"
           inkscape:flatsided="true"
           inkscape:rounded="0"
           inkscape:randomized="0"
           inkscape:transform-center-y="-6.3379927"
           inkscape:path-effect="#path-effect1632" />
      </g>
      <g
         id="g1638"
         style="display:inline"
         transform="matrix(0.16452442,0,0,0.16452442,421.88175,197.88175)">
        <circle
           style="fill:#00ff00;stroke:#ff0000;stroke-width:5;stroke-linecap:round;stroke-linejoin:round;stroke-miterlimit:4;stroke-dasharray:none;paint-order:fill markers stroke"
           id="circle1634"
           cx="256"
           cy="256"
           r="192" />
        <path
           inkscape:path-effect="#path-effect1640"
           inkscape:transform-center-y="-6.3379927"
           inkscape:randomized="0"
           inkscape:rounded="0"
           inkscape:flatsided="true"
           sodipodi:arg2="-1.1780972"
           sodipodi:arg1="-1.5707963"
           sodipodi:r2="115.32402"
           sodipodi:r1="152"
           sodipodi:cy="256"
           sodipodi:cx="256"
           sodipodi:sides="8"
           id="path1636"
           style="fill:#0000ff;stroke:#008000;stroke-width:5;stroke-linecap:round;stroke-linejoin:round;paint-order:fill markers stroke"
           sodipodi:type="star"
           d="m 279.09699,113.56709 61.28626,25.3856 a 60.355339,60.355339 45.000002 0 1 32.66407,32.66407 l 25.38559,61.28626 a 60.355339,60.355339 90.000002 0 1 0,46.19397 l -25.3856,61.28626 a 60.355339,60.355339 135 0 1 -32.66407,32.66407 l -61.28626,25.38559 a 60.355339,60.355339 1.5352345e-6 0 1 -46.19397,0 l -61.28626,-25.3856 a 60.355339,60.355339 45.000002 0 1 -32.66407,-32.66407 l -25.38559,-61.28626 a 60.355339,60.355339 90.000002 0 1 0,-46.19397 l 25.3856,-61.28626 a 60.355339,60.355339 135 0 1 32.66407,-32.66407 l 61.28626,-25.38559 a 60.355339,60.355339 1.5352345e-6 0 1 46.19397,0 z" />
      </g>
      <g
         transform="matrix(0.16452442,0,0,0.16452442,501.88175,197.88175)"
         style="display:inline"
         id="g1646">
        <circle
           r="192"
           cy="256"
           cx="256"
           id="circle1642"
           style="fill:#00ff00;stroke:#ff0000;stroke-width:5;stroke-linecap:round;stroke-linejoin:round;stroke-miterlimit:4;stroke-dasharray:none;paint-order:fill markers stroke" />
        <path
           d="m 279.09699,113.56709 61.28626,25.3856 a 60.355339,60.355339 45.000002 0 1 32.66407,32.66407 l 25.38559,61.28626 a 60.355339,60.355339 90.000002 0 1 0,46.19397 l -25.3856,61.28626 a 60.355339,60.355339 135 0 1 -32.66407,32.66407 l -61.28626,25.38559 a 60.355339,60.355339 1.5352345e-6 0 1 -46.19397,0 l -61.28626,-25.3856 a 60.355339,60.355339 45.000002 0 1 -32.66407,-32.66407 l -25.38559,-61.28626 a 60.355339,60.355339 90.000002 0 1 0,-46.19397 l 25.3856,-61.28626 a 60.355339,60.355339 135 0 1 32.66407,-32.66407 l 61.28626,-25.38559 a 60.355339,60.355339 1.5352345e-6 0 1 46.19397,0 z"
           sodipodi:type="star"
           style="fill:#0000ff;stroke:#008000;stroke-width:5;stroke-linecap:round;stroke-linejoin:round;paint-order:fill markers stroke"
           id="path1644"
           sodipodi:sides="8"
           sodipodi:cx="256"
           sodipodi:cy="256"
           sodipodi:r1="152"
           sodipodi:r2="115.32402"
           sodipodi:arg1="-1.5707963"
           sodipodi:arg2="-1.1780972"
           inkscape:flatsided="true"
           inkscape:rounded="0"
           inkscape:randomized="0"
           inkscape:transform-center-y="-6.3379927"
           inkscape:path-effect="#path-effect1648" />
      </g>
      <g
         id="g1654"
         style="display:inline"
         transform="matrix(0.16452442,0,0,0.16452442,581.88175,197.88175)">
        <circle
           style="fill:#00ff00;stroke:#ff0000;stroke-width:5;stroke-linecap:round;stroke-linejoin:round;stroke-miterlimit:4;stroke-dasharray:none;paint-order:fill markers stroke"
           id="circle1650"
           cx="256"
           cy="256"
           r="192" />
        <path
           inkscape:path-effect="#path-effect1656"
           inkscape:transform-center-y="-6.3379927"
           inkscape:randomized="0"
           inkscape:rounded="0"
           inkscape:flatsided="true"
           sodipodi:arg2="-1.1780972"
           sodipodi:arg1="-1.5707963"
           sodipodi:r2="115.32402"
           sodipodi:r1="152"
           sodipodi:cy="256"
           sodipodi:cx="256"
           sodipodi:sides="8"
           id="path1652"
           style="fill:#0000ff;stroke:#008000;stroke-width:5;stroke-linecap:round;stroke-linejoin:round;paint-order:fill markers stroke"
           sodipodi:type="star"
           d="m 279.09699,113.56709 61.28626,25.3856 a 60.355339,60.355339 45.000002 0 1 32.66407,32.66407 l 25.38559,61.28626 a 60.355339,60.355339 90.000002 0 1 0,46.19397 l -25.3856,61.28626 a 60.355339,60.355339 135 0 1 -32.66407,32.66407 l -61.28626,25.38559 a 60.355339,60.355339 1.5352345e-6 0 1 -46.19397,0 l -61.28626,-25.3856 a 60.355339,60.355339 45.000002 0 1 -32.66407,-32.66407 l -25.38559,-61.28626 a 60.355339,60.355339 90.000002 0 1 0,-46.19397 l 25.3856,-61.28626 a 60.355339,60.355339 135 0 1 32.66407,-32.66407 l 61.28626,-25.38559 a 60.355339,60.355339 1.5352345e-6 0 1 46.19397,0 z" />
      </g>
      <text
         xml:space="preserve"
         style="font-size:43.5759px;line-height:1.25;font-family:Ubuntu;-inkscape-font-specification:Ubuntu;text-align:center;letter-spacing:0px;word-spacing:0px;text-anchor:middle;fill:#ffffff;stroke:#000000;stroke-width:0.226957"
         x="339.38071"
         y="191.14262"
         id="text1660"><tspan
           sodipodi:role="line"
           id="tspan1658"
           x="339.38071"
           y="191.14262"
           style="fill:#ffffff;stroke:#000000;stroke-width:0.226957">TEBENGE</tspan></text>
      <g
         inkscape:export-ydpi="300"
         inkscape:export-xdpi="300"
         id="g1536-6-4"
         transform="matrix(0.26992788,0,0,0.26992788,238.72462,183.28153)">
        <g
           id="g1492-8-7"
           transform="translate(-128,64)">
          <path
             id="path1451-5-8"
             transform="translate(0,106.5)"
             d="m 256,208 a 64,64 0 0 0 -64,64 64,64 0 0 0 64,64 h 64 a 64,64 0 0 0 64,-64 64,64 0 0 0 -64,-64 z"
             style="opacity:1;fill:#ffc800;fill-opacity:1;fill-rule:nonzero;stroke:none;stroke-opacity:1"
             inkscape:connector-curvature="0" />
          <path
             id="rect1461-3-4"
             transform="translate(0,106.5)"
             d="m 288,224 a 4,4 0 0 0 -4,4 v 40 h -40 a 4,4 0 0 0 -4,4 4,4 0 0 0 4,4 h 40 v 40 a 4,4 0 0 0 4,4 4,4 0 0 0 4,-4 v -40 h 40 a 4,4 0 0 0 4,-4 4,4 0 0 0 -4,-4 h -40 v -40 a 4,4 0 0 0 -4,-4 z"
             style="opacity:1;fill:#fffe00;fill-opacity:1;fill-rule:nonzero;stroke:none;stroke-width:1.04447;stroke-opacity:1"
             inkscape:connector-curvature="0" />
        </g>
        <flowRoot
           xml:space="preserve"
           id="flowRoot1482-6-4"
           style="font-style:normal;font-weight:normal;font-size:40px;line-height:0;font-family:sans-serif;letter-spacing:0px;word-spacing:0px;fill:#fffff6;fill-opacity:1;stroke:#000000;stroke-opacity:1"
           transform="translate(-108.256,129.20475)"><flowRegion
             id="flowRegion1484-4-7"
             style="line-height:0;fill:#fffff6;fill-opacity:1;stroke:#000000;stroke-opacity:1"><rect
               id="rect1486-8-8"
               width="1024"
               height="128"
               x="384"
               y="272"
               style="line-height:0;fill:#fffff6;fill-opacity:1;stroke:#000000;stroke-opacity:1;" /></flowRegion><flowPara
             id="flowPara1488-6-3"
             style="font-style:normal;font-variant:normal;font-weight:normal;font-stretch:normal;font-size:96px;line-height:1;font-family:Ubuntu;-inkscape-font-specification:Ubuntu;fill:#fffff6;fill-opacity:1;stroke:#000000;stroke-opacity:1">Perkedel </flowPara></flowRoot>
      </g>
    </g>
  </g>
</svg>
