<svg xmlns="http://www.w3.org/2000/svg" xmlns:xlink="http://www.w3.org/1999/xlink" width="120" height="120" viewBox="0 0 120 120">
  <defs>
    <clipPath id="clip-Button_-_PS_L3_2">
      <rect width="120" height="120"/>
    </clipPath>
  </defs>
  <g id="Button_-_PS_L3_2" data-name="Button - PS L3 – 2" clip-path="url(#clip-Button_-_PS_L3_2)">
    <g id="Border_white_-_outer" data-name="Border white - outer" transform="translate(10 10)">
      <g id="Border_white_-_outer-2" data-name="Border white - outer" fill="none" stroke="#fff" stroke-width="4">
        <circle cx="50" cy="50" r="50" stroke="none"/>
        <circle cx="50" cy="50" r="48" fill="none"/>
      </g>
    </g>
    <g id="Border_white_-_inner" data-name="Border white - inner" transform="translate(18 18)">
      <g id="Border_white_-_inner-2" data-name="Border white - inner" fill="none" stroke="#fff" stroke-width="4">
        <circle cx="42" cy="42" r="42" stroke="none"/>
        <circle cx="42" cy="42" r="44" fill="none"/>
      </g>
    </g>
    <g id="Button_-_Base" data-name="Button - Base" transform="translate(14 14)">
      <g id="Button_-_Base-2" data-name="Button - Base" fill="#404040" stroke="#2a2a2a" stroke-width="8">
        <circle cx="46" cy="46" r="46" stroke="none"/>
        <circle cx="46" cy="46" r="42" fill="none"/>
      </g>
    </g>
    <g id="Button_-_Top" data-name="Button - Top" transform="translate(18 18)">
      <path id="Button_-_Top-2" data-name="Button - Top" d="M42,0A42,42,0,1,1,12.3,12.3,42,42,0,0,1,42,0Z" fill="#404040"/>
    </g>
    <path id="Path_83" data-name="Path 83" d="M-19.121,0V-28.555h6.055V-5H-1.484V0ZM20.332-22.168a6.719,6.719,0,0,1-1.621,4.551,8.4,8.4,0,0,1-4.551,2.578v.117a9.094,9.094,0,0,1,5.234,2.1,5.882,5.882,0,0,1,1.777,4.5A7.628,7.628,0,0,1,18.184-1.9Q15.2.391,9.648.391A20.725,20.725,0,0,1,1.406-1.152V-6.289A18.628,18.628,0,0,0,5.059-4.922,15.369,15.369,0,0,0,9-4.395,7.672,7.672,0,0,0,13.418-5.41a3.727,3.727,0,0,0,1.426-3.262A2.946,2.946,0,0,0,13.2-11.523a12.138,12.138,0,0,0-5.234-.84H5.8v-4.629H8.008a10.264,10.264,0,0,0,4.854-.869,3.139,3.139,0,0,0,1.533-2.979q0-3.242-4.062-3.242a9.3,9.3,0,0,0-2.861.469,13.977,13.977,0,0,0-3.232,1.621l-2.793-4.16a15.519,15.519,0,0,1,9.316-2.812,12.03,12.03,0,0,1,7,1.8A5.763,5.763,0,0,1,20.332-22.168Z" transform="translate(60 74)" fill="#fff" opacity="0.5"/>
  </g>
</svg>
