<svg xmlns="http://www.w3.org/2000/svg" xmlns:xlink="http://www.w3.org/1999/xlink" width="120" height="120" viewBox="0 0 120 120">
  <defs>
    <clipPath id="clip-Button_-_PS_R2">
      <rect width="120" height="120"/>
    </clipPath>
  </defs>
  <g id="Button_-_PS_R2" data-name="Button - PS R2" clip-path="url(#clip-Button_-_PS_R2)">
    <g id="Rectangle_49" data-name="Rectangle 49" transform="translate(14 30)" fill="#2a2a2a" stroke="#fff" stroke-width="4">
      <path d="M4,0H90a4,4,0,0,1,4,4V51A14,14,0,0,1,80,65H34A34,34,0,0,1,0,31V4A4,4,0,0,1,4,0Z" stroke="none"/>
      <path d="M4-2H90a6,6,0,0,1,6,6V51A16,16,0,0,1,80,67H34A36,36,0,0,1-2,31V4A6,6,0,0,1,4-2Z" fill="none"/>
    </g>
    <path id="Rectangle_50" data-name="Rectangle 50" d="M4,0H86a4,4,0,0,1,4,4V51A10,10,0,0,1,80,61H30A30,30,0,0,1,0,31V4A4,4,0,0,1,4,0Z" transform="translate(18 30)" fill="#404040"/>
    <path id="Rectangle_52" data-name="Rectangle 52" d="M2.824,0H82a0,0,0,0,1,0,0V16.941A7.059,7.059,0,0,1,74.941,24H21.176A21.176,21.176,0,0,1,0,2.824v0A2.824,2.824,0,0,1,2.824,0Z" transform="translate(26 63)" fill="#5b5b5b"/>
    <path id="Path_76" data-name="Path 76" d="M-5.37,0-9.96-8.01h-1.17V0h-5.13V-21.21H-7.5a9.457,9.457,0,0,1,4.26.87A6.008,6.008,0,0,1-.63-17.955,6.832,6.832,0,0,1,.24-14.49a6.159,6.159,0,0,1-1.275,3.93,6.517,6.517,0,0,1-3.7,2.22L.3,0Zm-5.76-11.52h3.18A3.2,3.2,0,0,0-5.7-12.2a2.605,2.605,0,0,0,.72-1.995,2.645,2.645,0,0,0-.735-1.98,3.08,3.08,0,0,0-2.235-.72h-3.18ZM2.07-4.08q9.54-6.81,9.54-10.83,0-2.46-2.13-2.46a1.951,1.951,0,0,0-1.755.84,5.15,5.15,0,0,0-.615,2.61H2.1a7.975,7.975,0,0,1,2.34-5.82A7.84,7.84,0,0,1,9.9-21.69a7.1,7.1,0,0,1,5.2,1.74,6.1,6.1,0,0,1,1.755,4.53,9.6,9.6,0,0,1-2.37,6.045A22.1,22.1,0,0,1,8.82-4.38h8.37V-.24H2.07Z" transform="translate(67 57)" fill="#fff"/>
  </g>
</svg>
