<?xml version="1.0" encoding="UTF-8" standalone="no"?>
<svg
   xmlns:dc="http://purl.org/dc/elements/1.1/"
   xmlns:cc="http://creativecommons.org/ns#"
   xmlns:rdf="http://www.w3.org/1999/02/22-rdf-syntax-ns#"
   xmlns:svg="http://www.w3.org/2000/svg"
   xmlns="http://www.w3.org/2000/svg"
   xmlns:sodipodi="http://sodipodi.sourceforge.net/DTD/sodipodi-0.dtd"
   xmlns:inkscape="http://www.inkscape.org/namespaces/inkscape"
   width="16"
   height="16"
   version="1.1"
   viewBox="0 0 16 16"
   id="svg6"
   sodipodi:docname="loop_active.svg"
   inkscape:version="0.92.4 (5da689c313, 2019-01-14)">
  <metadata
     id="metadata12">
    <rdf:RDF>
      <cc:Work
         rdf:about="">
        <dc:format>image/svg+xml</dc:format>
        <dc:type
           rdf:resource="http://purl.org/dc/dcmitype/StillImage" />
        <dc:title />
      </cc:Work>
    </rdf:RDF>
  </metadata>
  <defs
     id="defs10" />
  <sodipodi:namedview
     pagecolor="#ffffff"
     bordercolor="#666666"
     borderopacity="1"
     objecttolerance="10"
     gridtolerance="10"
     guidetolerance="10"
     inkscape:pageopacity="0"
     inkscape:pageshadow="2"
     inkscape:window-width="1920"
     inkscape:window-height="1017"
     id="namedview8"
     showgrid="false"
     inkscape:zoom="14.75"
     inkscape:cx="-12.305085"
     inkscape:cy="8"
     inkscape:window-x="-8"
     inkscape:window-y="-8"
     inkscape:window-maximized="1"
     inkscape:current-layer="svg6" />
  <g
     transform="translate(0 -1036.4)"
     id="g4">
    <path
       transform="translate(0 1036.4)"
       d="m8 1v2h-2a5 5 0 0 0 -5 5 5 5 0 0 0 1.0039 2.9961l1.4355-1.4355a3 3 0 0 1 -0.43945 -1.5605 3 3 0 0 1 3 -3h2v2l2-1.5 2-1.5-2-1.5-2-1.5zm5.9961 4.0039l-1.4355 1.4355a3 3 0 0 1 0.43945 1.5605 3 3 0 0 1 -3 3h-2v-2l-2 1.5-2 1.5 2 1.5 2 1.5v-2h2a5 5 0 0 0 5 -5 5 5 0 0 0 -1.0039 -2.9961z"
       fill="#e0e0e0"
       fill-opacity=".99608"
       id="path2"
       style="fill:#699ce8;fill-opacity:1" />
  </g>
</svg>
