<?xml version="1.0" encoding="UTF-8" standalone="no"?>
<svg
   xmlns:dc="http://purl.org/dc/elements/1.1/"
   xmlns:cc="http://creativecommons.org/ns#"
   xmlns:rdf="http://www.w3.org/1999/02/22-rdf-syntax-ns#"
   xmlns:svg="http://www.w3.org/2000/svg"
   xmlns="http://www.w3.org/2000/svg"
   xmlns:sodipodi="http://sodipodi.sourceforge.net/DTD/sodipodi-0.dtd"
   xmlns:inkscape="http://www.inkscape.org/namespaces/inkscape"
   width="16"
   height="16"
   version="1.1"
   viewBox="0 0 16 16"
   id="svg4"
   sodipodi:docname="outline_pixel.svg"
   inkscape:version="0.92.4 (5da689c313, 2019-01-14)">
  <metadata
     id="metadata10">
    <rdf:RDF>
      <cc:Work
         rdf:about="">
        <dc:format>image/svg+xml</dc:format>
        <dc:type
           rdf:resource="http://purl.org/dc/dcmitype/StillImage" />
        <dc:title />
      </cc:Work>
    </rdf:RDF>
  </metadata>
  <defs
     id="defs8" />
  <sodipodi:namedview
     pagecolor="#ffffff"
     bordercolor="#666666"
     borderopacity="1"
     objecttolerance="10"
     gridtolerance="10"
     guidetolerance="10"
     inkscape:pageopacity="0"
     inkscape:pageshadow="2"
     inkscape:window-width="1920"
     inkscape:window-height="1017"
     id="namedview6"
     showgrid="false"
     inkscape:zoom="20.85965"
     inkscape:cx="12.362598"
     inkscape:cy="9.743349"
     inkscape:window-x="-8"
     inkscape:window-y="-8"
     inkscape:window-maximized="1"
     inkscape:current-layer="svg4" />
  <circle
     r="7"
     cy="8"
     cx="8"
     id="circle819"
     style="opacity:1;fill:none;fill-opacity:0.99607843;stroke:none;stroke-width:1;stroke-linecap:round;stroke-miterlimit:4;stroke-dasharray:none;stroke-dashoffset:0;stroke-opacity:1" />
  <path
     style="opacity:1;fill:#fcfcfc;fill-opacity:1;stroke:none;stroke-width:1;stroke-linecap:square;stroke-miterlimit:4;stroke-dasharray:none;stroke-dashoffset:0;stroke-opacity:0.99607843"
     d="m 6,0 v 2 h 2 2 V 0 H 8 Z m 4,2 v 2 h 2 V 2 Z m 2,2 v 2 h 2 V 4 Z m 2,2 v 2 2 h 2 V 8 6 Z m 0,4 h -2 v 2 h 2 z m -2,2 h -2 v 2 h 2 z m -2,2 H 8 6 v 2 h 2 2 z M 6,14 V 12 H 4 v 2 z M 4,12 V 10 H 2 v 2 z M 2,10 V 8 6 H 0 v 2 2 z M 2,6 H 4 V 4 H 2 Z M 4,4 H 6 V 2 H 4 Z"
     id="rect820"
     inkscape:connector-curvature="0" />
  <path
     style="opacity:1;fill:#854747;fill-opacity:1;stroke:none;stroke-width:1;stroke-linecap:square;stroke-miterlimit:4;stroke-dasharray:none;stroke-dashoffset:0;stroke-opacity:0.99607843"
     d="M 6 2 L 6 4 L 4 4 L 4 6 L 2 6 L 2 8 L 2 10 L 4 10 L 4 12 L 6 12 L 6 14 L 8 14 L 10 14 L 10 12 L 12 12 L 12 10 L 14 10 L 14 8 L 14 6 L 12 6 L 12 4 L 10 4 L 10 2 L 8 2 L 6 2 z "
     id="rect828" />
</svg>
