<?xml version="1.0" encoding="UTF-8" standalone="no"?>
<!-- Created with Inkscape (http://www.inkscape.org/) -->

<svg
   width="197.77866mm"
   height="148.74893mm"
   viewBox="0 0 197.77866 148.74893"
   version="1.1"
   id="svg5"
   inkscape:version="1.1.2 (0a00cf5339, 2022-02-04)"
   sodipodi:docname="Icon.svg"
   xmlns:inkscape="http://www.inkscape.org/namespaces/inkscape"
   xmlns:sodipodi="http://sodipodi.sourceforge.net/DTD/sodipodi-0.dtd"
   xmlns="http://www.w3.org/2000/svg"
   xmlns:svg="http://www.w3.org/2000/svg">
  <sodipodi:namedview
     id="namedview7"
     pagecolor="#505050"
     bordercolor="#ffffff"
     borderopacity="1"
     inkscape:pageshadow="0"
     inkscape:pageopacity="0"
     inkscape:pagecheckerboard="1"
     inkscape:document-units="mm"
     showgrid="false"
     inkscape:zoom="0.85520833"
     inkscape:cx="146.16322"
     inkscape:cy="261.92448"
     inkscape:window-width="1920"
     inkscape:window-height="1007"
     inkscape:window-x="1440"
     inkscape:window-y="0"
     inkscape:window-maximized="1"
     inkscape:current-layer="layer1" />
  <defs
     id="defs2" />
  <g
     inkscape:label="Layer 1"
     inkscape:groupmode="layer"
     id="layer1"
     transform="translate(-3.5170124,-37.501621)">
    <path
       style="fill:#000000;fill-opacity:1;fill-rule:nonzero;stroke:none;stroke-width:0.264583"
       id="path101"
       d="m 58.964078,57.087126 c -2.578219,-0.543454 -5.23857,-0.893736 -7.880337,-0.688054 -0.96783,0.07535 -1.982808,0.0813 -2.875153,0.463526 -1.949148,0.834896 -3.861855,1.833428 -5.533355,3.138154 -0.765779,0.597744 -1.069409,1.622103 -1.604113,2.433154 -0.653635,2.420374 -1.388666,4.112085 -0.912734,6.709529 0.530339,2.894372 2.114516,4.956214 3.925668,7.170705 0.948733,1.160013 2.029032,2.205916 3.035337,3.316354 0.960126,1.059479 1.909252,2.128874 2.863879,3.193312 1.206548,1.774883 2.816262,3.461755 2.834545,5.7981 0.01535,1.96092 -1.389663,3.434053 -3.09249,4.161435 -0.346514,0.148019 -0.695412,-0.39575 -1.070742,-0.362426 -1.789544,0.158893 -3.539405,0.61926 -5.309108,0.928889 -4.646583,0.679622 -9.352216,0.621376 -14.018924,1.044389 -0.617386,0.05596 -1.227246,0.176231 -1.840867,0.264348 0,0 -3.008174,2.267763 -3.008174,2.267763 v 0 c 0.661712,-0.139383 1.314559,-0.33087 1.985136,-0.418145 4.709691,-0.612984 9.492464,-0.464998 14.197872,-1.139717 6.155835,-0.953868 6.099725,-0.489524 12.438083,-3.946213 0.903492,-0.492728 1.754606,-1.181846 2.310175,-2.048113 1.901439,-2.964799 -0.812982,-6.166974 -2.443956,-8.356189 -0.961186,-1.061302 -1.921137,-2.123726 -2.883556,-3.183909 -0.997371,-1.098688 -2.063427,-2.138352 -2.995814,-3.292697 -1.734417,-2.147306 -3.272932,-4.209566 -3.733,-7.015012 -0.429282,-2.61774 0.33324,-4.151357 1.070295,-6.551125 0.560067,-0.764143 1.289103,-1.429507 1.680199,-2.29243 0.123137,-0.271695 -1.109385,0.397735 -0.811847,0.376473 0.963707,-0.06886 1.888889,-0.434498 2.851065,-0.522192 2.54826,-0.232256 5.123995,0.115694 7.591883,0.728914 0,0 3.230033,-2.178823 3.230033,-2.178823 z" />
    <path
       style="fill:#000000;fill-opacity:1;fill-rule:nonzero;stroke:none;stroke-width:0.264583"
       id="path103"
       d="m 62.586565,77.029788 c -0.223935,2.369484 -0.706049,4.720214 -1.226778,7.039181 -0.435009,1.937229 -0.871783,3.809339 -1.578274,5.663428 -0.175024,0.459335 -0.425974,0.88602 -0.63896,1.329028 0,0 3.478471,-1.596697 3.478471,-1.596697 v 0 c 0.168979,-0.438065 0.363329,-0.867169 0.506939,-1.314193 0.583459,-1.81618 1.032484,-3.79915 1.461514,-5.641621 0.211846,-0.90978 1.117761,-4.912373 1.343683,-6.069417 0.07801,-0.39951 0.121238,-0.805029 0.181856,-1.207545 0,0 -3.528451,1.797836 -3.528451,1.797836 z" />
    <path
       style="fill:#000000;fill-opacity:1;fill-rule:nonzero;stroke:none;stroke-width:0.264583"
       id="path107"
       d="m 63.641721,62.104275 c -0.418275,1.315008 -0.724186,2.657011 -0.977337,4.011956 0,0 3.475342,-1.689037 3.475342,-1.689037 v 0 c 0.262813,-1.349472 0.56637,-2.696646 1.099108,-3.970094 0,0 -3.597113,1.647175 -3.597113,1.647175 z" />
    <path
       style="fill:#000000;fill-opacity:1;fill-rule:nonzero;stroke:none;stroke-width:0.264583"
       id="path109"
       d="m 76.406731,63.786868 c -0.581482,5.615157 -1.664983,11.16325 -2.798193,16.68847 -0.608285,2.534795 -0.748134,3.206707 -1.415653,5.658469 -0.197115,0.723982 -0.372134,1.455592 -0.617871,2.164545 -0.16043,0.462839 -0.327782,0.933757 -0.59775,1.342507 -0.130646,0.197805 -0.76522,0.559747 -0.569907,0.425399 1.011695,-0.695896 2.01294,-1.406866 3.019412,-2.1103 -0.485143,-0.8503 -0.645192,-1.82729 -0.864571,-2.76777 0,0 -3.405934,1.835354 -3.405934,1.835354 v 0 c 0.244578,1.038969 0.431051,2.106427 0.955106,3.052003 1.305788,-0.500893 2.651551,-0.907952 3.917358,-1.502682 0.458822,-0.215572 0.886214,-1.781157 0.915982,-1.879764 0.772348,-2.558553 1.260311,-5.202142 1.911638,-7.791 1.137394,-5.591228 2.158511,-11.204144 3.060552,-16.838409 0,0 -3.510169,1.723178 -3.510169,1.723178 z" />
    <path
       style="fill:#000000;fill-opacity:1;fill-rule:nonzero;stroke:none;stroke-width:0.264583"
       id="path111"
       d="m 79.638707,65.022801 c -0.191416,-0.13366 1.958728,-1.704631 1.590656,-1.161082 -0.380391,0.561742 -1.811057,0.662059 -1.569326,1.29595 0.239416,0.627822 1.345592,-0.230417 2.011069,-0.137567 2.266733,0.316267 2.031399,0.888315 3.199389,2.753058 1.078953,3.411522 0.939499,6.955348 0.810464,10.478 -0.04398,1.200513 -0.193622,2.398818 -0.170503,3.599913 0.0218,1.13202 -0.09124,2.322311 0.304914,3.38297 0.410702,1.099598 1.355093,1.916999 2.03264,2.8755 0.946896,0.728625 1.893792,1.457253 2.840689,2.185879 0,0 3.02464,-1.90945 3.02464,-1.90945 v 0 c -0.924571,-0.700072 -1.849142,-1.400146 -2.77371,-2.100218 -0.644935,-0.90452 -1.54818,-1.672114 -1.934807,-2.713564 -0.387599,-1.044069 -0.282644,-2.213477 -0.307647,-3.326892 -0.02696,-1.200203 0.112072,-2.398464 0.152122,-3.598299 0.120248,-3.602553 0.262675,-7.226927 -0.785254,-10.728184 -0.458896,-0.768816 -0.720252,-1.697554 -1.376688,-2.30645 -0.524682,-0.486682 -1.283999,-0.678799 -1.986857,-0.813498 -2.635501,-0.505082 -4.862692,1.315032 -7.053374,2.451094 -0.40409,0.209558 -0.785749,0.469302 -1.128889,0.768393 -0.19939,0.173794 -0.319141,0.421888 -0.478711,0.63283 0,0 3.599183,-1.628383 3.599183,-1.628383 z" />
    <path
       style="fill:#000000;fill-opacity:1;fill-rule:nonzero;stroke:none;stroke-width:0.264583"
       id="path119"
       d="m 89.091364,73.249628 c 0.390792,-2.309456 1.304115,-4.54623 2.630321,-6.480868 0.266081,-0.388152 0.587073,-0.735651 0.880607,-1.103477 0.357037,-0.200644 1.336972,-0.913463 1.07111,-0.601935 -0.610849,0.715775 -1.846934,0.951677 -2.13428,1.847726 -0.151971,0.473908 0.945759,0.373361 1.315019,0.707025 0.55535,0.501811 1.000297,1.121867 1.405469,1.751202 1.257724,1.953562 1.684425,3.375163 2.542212,5.5518 1.164662,4.032168 0.800169,2.531343 1.683383,6.494674 0.27101,1.216128 0.553717,3.631637 1.567115,4.670862 0.53304,0.546621 1.34294,0.726778 2.01441,1.090168 0,0 3.12372,-2.052548 3.12372,-2.052548 v 0 c -0.62996,-0.29736 -1.38637,-0.410673 -1.88988,-0.892077 -1.02266,-0.977762 -1.35831,-3.3705 -1.63548,-4.529582 -1.02976,-4.306385 -0.45594,-2.101022 -1.710823,-6.537409 -0.923415,-2.424274 -2.01312,-5.720591 -3.901292,-7.619638 -0.389014,-0.391255 -0.847244,-0.978125 -1.392624,-0.894609 -2.833963,0.43397 -3.77643,1.233601 -5.577771,2.52662 -0.279329,0.379087 -0.582676,0.741595 -0.837983,1.137258 -1.307875,2.026878 -2.213131,4.309743 -2.69829,6.667966 0,0 3.545057,-1.733158 3.545057,-1.733158 z" />
    <path
       style="fill:#000000;fill-opacity:1;fill-rule:nonzero;stroke:none;stroke-width:0.264583"
       id="path121"
       d="m 108.06722,66.237532 c -0.2344,7.305963 -0.39012,14.614443 -0.53801,21.923073 -0.13463,5.724157 -0.0668,3.02895 -0.20056,8.085696 0,0 3.19072,-1.621163 3.19072,-1.621163 v 0 c -0.0191,-4.98669 -0.0195,-2.32459 0.0104,-7.986292 0.12929,-7.409714 0.35822,-14.816188 1.06193,-22.197139 0,0 -3.5245,1.795825 -3.5245,1.795825 z" />
    <path
       style="fill:#000000;fill-opacity:1;fill-rule:nonzero;stroke:none;stroke-width:0.264583"
       id="path129"
       d="m 108.74314,68.52759 c 2.27137,-0.37443 4.60557,-0.23305 6.88031,0.04688 0.62375,0.07676 1.253,0.136985 1.86354,0.285938 0.50525,0.123266 0.97902,0.351316 1.46852,0.526975 0.36676,0.243385 0.78091,0.427239 1.10026,0.730153 1.1039,1.047075 1.43711,2.859643 1.14133,4.29682 -0.0808,0.392403 -0.24305,0.763502 -0.36458,1.145256 -0.20096,0.363829 -0.36644,0.74965 -0.60288,1.091483 -0.89229,1.290008 -2.29799,2.430505 -3.72499,3.063055 -0.41282,0.182991 0.74327,-0.512992 1.11491,-0.76949 -0.73689,0.355018 -1.47378,0.710033 -2.21066,1.065048 -2.66142,1.228585 -1.37496,0.649436 -3.85701,1.742713 0,0 -2.95042,2.337011 -2.95042,2.337011 v 0 c 2.52128,-1.116144 1.21766,-0.527798 3.9089,-1.769409 3.47169,-1.649864 2.86451,-1.307187 7.4979,-3.964524 1.87578,-1.075799 3.47332,-2.401128 4.30527,-4.445344 0.11182,-0.407805 0.26657,-0.806204 0.33545,-1.223412 0.26006,-1.575369 -0.17906,-3.499482 -1.36228,-4.63717 -0.34024,-0.327157 -0.78271,-0.52779 -1.17407,-0.791686 -0.51356,-0.18946 -1.00948,-0.436221 -1.54068,-0.568375 -0.62012,-0.154273 -1.26163,-0.205727 -1.89552,-0.286499 -2.24875,-0.286533 -4.53486,-0.465092 -6.79845,-0.263485 0,0 -3.13485,2.388065 -3.13485,2.388065 z" />
    <path
       style="fill:#000000;fill-opacity:1;fill-rule:nonzero;stroke:none;stroke-width:0.264583"
       id="path147"
       d="m 132.68603,68.082241 c -0.97022,3.0465 -1.81124,6.122339 -2.41787,9.261573 -0.51673,3.33629 -0.57949,6.714156 -0.26677,10.070245 0.28569,1.943193 0.87355,3.980254 2.37358,5.358667 0.31151,0.28625 0.67748,0.506892 1.01621,0.760339 1.63411,0.917199 3.43122,1.0209 5.25056,1.167 0,0 3.06054,-2.189395 3.06054,-2.189395 v 0 c -1.7465,-0.116959 -3.47529,-0.187145 -5.05661,-1.039871 -0.32031,-0.232243 -0.66657,-0.432369 -0.96094,-0.696727 -1.456,-1.307587 -2.00454,-3.272415 -2.28764,-5.131655 -0.33261,-3.31538 -0.26075,-6.654218 0.27068,-9.948865 0.62686,-3.165856 1.48144,-6.274429 2.58372,-9.309997 0,0 -3.56546,1.698686 -3.56546,1.698686 z" />
    <path
       style="fill:#000000;fill-opacity:1;fill-rule:nonzero;stroke:none;stroke-width:0.264583"
       id="path153"
       d="m 163.30571,64.117695 c -1.86284,0.09517 -3.7611,0.009 -5.60836,0.317516 -0.33624,0.05616 -0.66456,0.152355 -0.99683,0.228534 -2.11392,0.966679 -2.20399,0.960647 -5.14338,3.023547 -0.37222,0.261231 -0.62993,0.656781 -0.92428,1.003417 -1.10737,1.304118 -1.96253,2.7144 -2.79871,4.199932 -0.8993,1.992323 -2.0239,4.137663 -2.16444,6.366936 -0.099,1.570212 0.15781,2.029179 0.55914,3.54833 0.28052,0.615611 0.52056,1.251323 0.84155,1.846828 1.1634,2.15831 2.97344,4.475136 5.00656,5.881503 0.50708,0.350763 1.07199,0.609507 1.60798,0.914259 0.67289,0.202965 1.32833,0.476957 2.01867,0.608896 3.97161,0.759072 8.02023,-0.128225 11.9094,-0.891124 0,0 2.87951,-2.18013 2.87951,-2.18013 v 0 c -3.81721,0.776841 -7.78297,1.655387 -11.6914,0.953201 -0.66431,-0.11935 -1.29814,-0.370189 -1.94722,-0.555281 -0.52279,-0.286382 -1.07326,-0.527198 -1.56837,-0.859144 -2.00741,-1.345864 -3.81616,-3.599979 -4.93926,-5.719125 -0.30695,-0.579173 -0.52862,-1.199668 -0.79293,-1.799502 -0.36764,-1.504432 -0.59109,-1.871343 -0.4611,-3.413028 0.18684,-2.216136 1.28379,-4.271462 2.20328,-6.245156 0.85507,-1.467212 1.72692,-2.871983 2.87936,-4.131198 0.30781,-0.336336 1.42203,-1.051852 0.97576,-0.958507 -0.89106,0.186381 -1.60772,0.854933 -2.42243,1.2611 -0.30507,0.152093 0.59527,-0.332372 0.8929,-0.49856 0.32528,-0.09179 0.64458,-0.208319 0.97585,-0.275386 1.80302,-0.365019 3.68589,-0.268801 5.51216,-0.305395 0,0 3.19659,-2.322463 3.19659,-2.322463 z" />
    <path
       style="fill:#000000;fill-opacity:1;fill-rule:nonzero;stroke:none;stroke-width:0.264583"
       id="path155"
       d="m 147.59037,80.120381 c 0.38873,0.04998 0.77521,0.122774 1.16621,0.149936 2.77679,0.192892 5.59775,-0.0011 8.36766,-0.178477 2.6338,-0.168693 5.71049,-0.436782 8.33306,-0.654301 1.3567,-0.134115 2.71339,-0.268227 4.07009,-0.402342 0,0 2.81813,-2.091094 2.81813,-2.091094 v 0 c -1.3609,0.139988 -2.72181,0.279976 -4.08271,0.419962 -2.81944,0.226777 -5.43395,0.45552 -8.25474,0.611677 -2.67913,0.148318 -5.41258,0.294817 -8.09403,0.06567 -0.35845,-0.03063 -0.7119,-0.104378 -1.06785,-0.156567 0,0 -3.25582,2.235531 -3.25582,2.235531 z" />
    <path
       style="fill:#000000;fill-opacity:1;fill-rule:nonzero;stroke:none;stroke-width:0.264583"
       id="path157"
       d="m 26.700599,112.33497 c 0.0455,2.51966 0.06425,5.03788 0.153035,7.55664 0.124849,2.72505 0.42377,5.43685 0.624967,8.15642 0.09497,1.95448 0.182552,3.90712 0.319188,5.85931 0.0836,1.1303 0.126195,2.26279 0.142406,3.39588 0.0092,0.88228 0.0047,1.76458 5.3e-4,2.64687 0.0052,0.72367 -0.03686,1.4483 0.0447,2.1682 0.03331,0.13181 0.01744,0.28737 0.09993,0.39542 0.671396,0.87937 2.670363,1.03115 3.566734,1.14466 2.54313,0.32205 3.313044,0.2874 6.012781,0.39469 1.102799,0.0116 2.205598,0.0231 3.308397,0.0347 0,0 2.917595,-2.11585 2.917595,-2.11585 v 0 c -1.100675,-0.008 -2.201352,-0.0156 -3.302029,-0.0233 -2.733744,-0.13629 -3.294779,-0.0945 -5.844558,-0.45648 -0.319096,-0.0453 -2.778673,-0.36154 -3.178376,-0.8554 -0.07402,-0.0914 -0.05068,-0.22978 -0.07602,-0.34468 -0.049,-0.71121 -0.014,-1.42438 -0.02543,-2.13693 -0.0024,-0.88199 -0.004,-1.76405 -0.0182,-2.64594 -0.02304,-1.13547 -0.07292,-2.26965 -0.183094,-3.40053 -0.157729,-1.94519 -0.246047,-3.89218 -0.357976,-5.84027 -0.222197,-2.70661 -0.545608,-5.40549 -0.656918,-8.12066 -0.07973,-2.53581 -0.110723,-5.0722 -0.02315,-7.60854 0,0 -3.524504,1.79582 -3.524504,1.79582 z" />
    <path
       style="fill:#000000;fill-opacity:1;fill-rule:nonzero;stroke:none;stroke-width:0.264583"
       id="path159"
       d="m 49.598579,112.71635 c 0.139457,1.31448 0.101481,2.98026 1.142807,3.97818 0.17598,0.16864 0.413756,0.25776 0.620633,0.38665 2.701468,0.29528 4.475692,-1.76759 5.701507,-3.74499 0,0 -3.557345,1.5587 -3.557345,1.5587 v 0 c -0.183975,0.26269 -0.348046,0.54051 -0.551923,0.78808 -0.172313,0.20923 -0.823529,0.67986 -0.57259,0.57739 6.352204,-2.59398 3.21686,-1.61309 2.261724,-1.32605 -0.179636,-0.077 -0.388154,-0.10674 -0.538903,-0.23116 -0.986192,-0.81391 -0.935937,-2.63534 -0.989306,-3.7786 0,0 -3.516604,1.7918 -3.516604,1.7918 z" />
    <path
       style="fill:#000000;fill-opacity:1;fill-rule:nonzero;stroke:none;stroke-width:0.264583"
       id="path161"
       d="m 50.52079,123.12723 c 0.05505,2.32113 0.06083,4.64318 0.06407,6.96486 0.0064,2.32607 -0.02207,4.652 -0.0388,6.97797 -0.0055,1.2076 -0.0021,2.41521 -0.0074,3.62281 0,0 3.492762,-1.77965 3.492762,-1.77965 v 0 c -0.0053,-1.20508 -0.0019,-2.41017 -0.0074,-3.61525 -0.01677,-2.31278 -0.04529,-4.62553 -0.0388,-6.93843 0.0033,-2.34344 0.0095,-4.68724 0.06407,-7.03015 0,0 -3.528454,1.79784 -3.528454,1.79784 z" />
    <path
       style="fill:#000000;fill-opacity:1;fill-rule:nonzero;stroke:none;stroke-width:0.264583"
       id="path165"
       d="m 71.587843,120.50663 c -0.362468,0.11449 -0.735512,0.19973 -1.087403,0.34348 -0.572889,0.23402 -1.144518,0.47944 -1.681231,0.78751 -3.288321,1.88748 -4.645136,2.42422 -6.884612,4.74266 -1.529601,1.58352 -1.675794,1.99055 -2.853277,3.79671 -0.263856,0.67236 -0.683805,1.30289 -0.791565,2.01709 -0.39761,2.63522 1.367536,4.60418 3.481155,5.84203 1.868159,1.0941 2.985027,1.19101 5.0371,1.66203 0,0 3.032962,-2.10571 3.032962,-2.10571 v 0 c -2.021047,-0.41628 -3.108243,-0.47816 -4.950042,-1.5255 -1.374416,-0.78155 -2.63216,-1.82833 -3.114834,-3.40951 -0.530537,-1.73798 0.07892,-2.435 0.717714,-3.97492 1.174308,-1.74839 1.344898,-2.18281 2.875111,-3.70247 0.575159,-0.57119 1.469178,-0.8746 1.83157,-1.59969 0.219697,-0.43957 -1.750071,0.8857 -1.339646,0.61544 0.92547,-0.60942 1.612913,-0.78548 2.59185,-1.10863 0,0 3.135148,-2.38052 3.135148,-2.38052 z" />
    <path
       style="fill:#000000;fill-opacity:1;fill-rule:nonzero;stroke:none;stroke-width:0.264583"
       id="path177"
       d="m 74.606586,131.40971 c 2.583772,-0.0225 5.163312,-0.0109 7.741676,-0.19497 1.372386,-0.11677 2.741761,-0.2647 4.111263,-0.41051 0.799517,-0.0851 1.508754,-0.18053 2.270738,-0.43325 3.184303,-1.51184 4.477055,-1.93088 5.235816,-4.80944 0.208389,-1.11309 0.386186,-2.28321 -0.175982,-3.32712 -0.122214,-0.22695 -0.286002,-0.42891 -0.429004,-0.64336 -1.506804,-1.65381 -3.610469,-1.79628 -5.717082,-1.79596 -1.479587,0.11173 -2.977962,0.2557 -4.377367,0.78396 -1.556403,0.58751 -4.36653,2.4058 -4.9637,2.75063 -1.628383,1.19756 -2.747113,2.89927 -3.629734,4.68886 -0.655809,1.61402 -1.10269,3.36964 -0.748694,5.11502 0.07366,0.36319 0.207992,0.71138 0.311986,1.06707 0.15997,0.32197 0.288095,0.66184 0.47991,0.96591 1.176329,1.86474 3.339671,2.42497 5.353851,2.86215 3.330583,0.51191 6.710029,0.30769 10.058789,0.13599 1.192779,-0.0754 2.382308,-0.19146 3.57196,-0.30398 0,0 3.114344,-2.31069 3.114344,-2.31069 v 0 c -1.203328,0.12782 -2.405968,0.2643 -3.612774,0.35625 -3.323553,0.18756 -6.676729,0.42871 -9.9865,-0.0652 -1.889649,-0.3821 -4.012845,-0.84161 -5.131826,-2.59115 -0.180909,-0.28285 -0.299342,-0.60111 -0.449014,-0.90167 -0.09322,-0.33576 -0.21739,-0.66444 -0.27967,-1.0073 -0.306779,-1.68884 0.1866,-3.38555 0.856049,-4.92101 0.909185,-1.74662 2.051256,-3.39308 3.722854,-4.49064 -0.854906,0.48304 -1.721625,0.94575 -2.564717,1.44912 -0.26651,0.15913 0.548118,-0.29309 0.8334,-0.41541 1.37274,-0.5886 2.857945,-0.75863 4.330652,-0.90207 1.921449,-0.0498 4.035732,0.0275 5.451539,1.5074 0.12728,0.19261 0.274645,0.37336 0.381844,0.57782 0.507566,0.96809 0.269301,2.08791 0.05244,3.09912 -0.178366,0.57028 -0.359672,1.108 -0.7161,1.59742 -0.102402,0.14062 -0.49862,0.4684 -0.340847,0.39516 1.719644,-0.79842 4.099478,-2.35274 2.4534,-1.28926 -0.837642,0.37865 -1.339112,0.43942 -2.258063,0.55033 -1.382469,0.16686 -2.764626,0.33866 -4.15218,0.45912 -2.531272,0.20023 -5.064922,0.1846 -7.602662,0.12923 0,0 -3.196595,2.32247 -3.196595,2.32247 z" />
    <path
       style="fill:#000000;fill-opacity:1;fill-rule:nonzero;stroke:none;stroke-width:0.264583"
       id="path179"
       d="m 100.29493,121.40141 c -0.0409,3.19456 -0.28225,6.37371 -0.752331,9.53275 -0.469884,2.66094 -1.225698,5.25901 -1.980406,7.84994 -0.111213,0.3125 -0.297337,0.89439 -0.47597,1.2118 -0.04859,0.0863 -0.124944,0.15379 -0.187415,0.23069 1.156454,-0.70097 2.400427,-1.27458 3.469362,-2.1029 0.16476,-0.12767 0.021,-0.41682 0.0489,-0.62337 0.0431,-0.31914 0.10924,-0.63474 0.16386,-0.95211 0.52366,-2.43986 1.36166,-4.84704 2.48414,-7.08002 0.27267,-0.54243 0.59205,-1.06008 0.88808,-1.59013 1.06308,-1.65054 2.33664,-3.82363 3.92816,-5.02951 0.30377,-0.23016 1.29814,-0.79513 0.99276,-0.56713 -0.76548,0.57151 -1.58478,1.06716 -2.37716,1.60073 0.27937,-0.007 0.56475,-0.0802 0.83813,-0.0222 2.08106,0.44182 1.91224,4.16903 1.90943,5.66947 -0.06,1.61928 -0.21539,3.23255 -0.38862,4.84288 -0.0665,0.61859 -0.23761,1.50534 -0.0793,2.1471 0.0699,0.28352 0.25466,0.5256 0.38198,0.7884 0.25777,0.19865 0.48301,0.44888 0.77331,0.59597 0.79541,0.40303 1.71526,0.47056 2.58378,0.49587 1.81649,0.0529 3.56753,-0.2447 5.34437,-0.57275 2.53867,-0.74865 1.29685,-0.32011 3.72691,-1.28135 0,0 2.95999,-2.32996 2.95999,-2.32996 v 0 c -2.40118,0.99864 -1.1759,0.55227 -3.67678,1.33651 -1.74662,0.34339 -3.45144,0.63705 -5.23971,0.62027 -0.79442,-0.007 -1.66074,-0.042 -2.412,-0.3568 -0.24491,-0.10263 -0.44379,-0.29176 -0.66568,-0.43763 -0.10748,-0.21405 -0.26646,-0.40925 -0.32245,-0.64213 -0.13775,-0.57293 0.007,-1.53419 0.0541,-2.07005 0.14063,-1.61582 0.27596,-3.23284 0.33326,-4.85427 0.003,-1.81028 0.1254,-5.49267 -2.12612,-6.23283 -0.29272,-0.0962 -0.61468,-0.044 -0.92201,-0.066 -1.43261,0.72184 -2.88338,1.40872 -4.29783,2.16553 -0.3329,0.17812 -0.64962,0.39134 -0.93748,0.63565 -1.62671,1.38061 -2.70358,3.33982 -3.83128,5.10839 -0.29528,0.54153 -0.612119,1.07184 -0.885836,1.62458 -1.128479,2.27884 -1.975355,4.72397 -2.523728,7.20336 -0.05917,0.33629 -0.137358,0.66978 -0.177498,1.00886 -0.02903,0.24525 -0.272836,0.78286 -0.02957,0.74029 3.413332,-0.59724 3.524342,-0.69156 4.185642,-2.88358 0.70849,-2.59618 1.42875,-5.19575 1.87145,-7.85355 0.44419,-3.19564 0.64731,-6.40682 0.87778,-9.62348 0,0 -3.52614,1.76269 -3.52614,1.76269 z" />
    <path
       style="fill:#000000;fill-opacity:1;fill-rule:nonzero;stroke:none;stroke-width:0.264583"
       id="path183"
       d="m 138.53525,121.3068 c -2.7092,-0.36032 -5.47184,-0.5969 -8.17124,-0.0104 -0.62738,0.13631 -1.23139,0.3639 -1.84708,0.54585 -2.19524,1.13987 -3.65291,1.82404 -5.82567,3.69392 -0.34423,0.29625 -0.42745,0.81365 -0.52529,1.25715 -0.33275,1.50823 0.32931,2.54606 1.0582,3.77011 1.73101,2.17245 4.36859,3.1528 6.75014,4.41405 0.36719,0.34145 1.21692,0.52975 1.40996,1.07137 0.12826,0.35983 -0.51757,0.7293 -0.70561,0.88159 -0.17961,0.12647 -0.72898,0.48945 -0.53885,0.37941 0.85447,-0.49453 1.73868,-0.94847 2.53363,-1.53391 0.31163,-0.2295 -0.7051,0.3211 -1.0683,0.45477 -1.73277,0.63772 -3.5397,0.90797 -5.35085,1.22117 -2.52562,0.41385 -1.30546,0.19362 -3.66175,0.65359 0,0 -3.02127,2.28868 -3.02127,2.28868 v 0 c 2.37185,-0.49751 1.14402,-0.26533 3.68527,-0.68701 0.80407,-0.13142 3.08163,-0.4888 3.91634,-0.68112 2.6021,-0.59953 5.0719,-1.95778 7.14266,-3.598 0.12363,-0.14437 0.27462,-0.26921 0.37088,-0.4331 0.64604,-1.09993 -0.7193,-1.70351 -1.4671,-2.14453 -2.34508,-1.20565 -4.96088,-2.08833 -6.6719,-4.21043 -0.65751,-1.1182 -1.28236,-2.07208 -0.88451,-3.44207 0.11608,-0.39974 0.98084,-1.06341 0.56748,-1.11235 -0.78226,-0.0926 -1.39149,0.85006 -2.17593,0.9219 -0.56821,0.052 0.98735,-0.57217 1.48103,-0.85826 0.60766,-0.19941 1.20133,-0.44804 1.82299,-0.59823 2.61472,-0.6317 5.32486,-0.43102 7.94648,0.0222 0,0 3.23029,-2.26639 3.23029,-2.26639 z" />
    <path
       style="fill:#000000;fill-opacity:1;fill-rule:nonzero;stroke:none;stroke-width:0.264583"
       id="path185"
       d="m 139.93787,132.09999 c 3.18522,0.33625 6.4101,0.60531 9.61664,0.46869 0.62097,-0.0265 1.23932,-0.0966 1.85897,-0.14491 0.51609,-0.0971 1.04148,-0.1536 1.54826,-0.29124 0.43069,-0.11697 0.86236,-0.25533 1.25376,-0.46977 1.98379,-1.08688 4.53615,-1.94401 5.36588,-4.25413 0.10813,-0.30104 0.14223,-0.62372 0.21335,-0.93559 -0.004,-0.32902 0.0354,-0.66147 -0.012,-0.98708 -0.2435,-1.67112 -1.65762,-2.76334 -3.17514,-3.2822 -0.50052,-0.17113 -1.02974,-0.24258 -1.54461,-0.36387 -2.1789,-0.2504 -4.51559,-0.2598 -6.58878,0.57773 -1.52846,0.61747 -5.58181,3.5729 -5.66046,3.62592 -0.28943,0.43734 -0.63376,0.84294 -0.8683,1.31201 -1.31094,2.6218 -0.84449,5.22613 0.83525,7.57439 0.47427,0.66302 1.09855,1.20471 1.64782,1.80706 0.71187,0.49231 1.37243,1.06868 2.13562,1.47694 4.00921,2.14467 8.70755,1.95813 13.10375,1.9551 0,0 2.88562,-2.09838 2.88562,-2.09838 v 0 c -4.3073,0.0333 -8.93179,0.2253 -12.87565,-1.84436 -0.74127,-0.389 -1.38334,-0.94319 -2.07502,-1.41479 -1.3215,-1.44493 -1.94053,-1.82939 -2.62265,-3.694 -0.65834,-1.79959 -0.46528,-3.62623 0.46234,-5.28351 0.2502,-0.447 0.60605,-0.82604 0.90907,-1.23907 -0.72277,0.30789 -1.39457,0.78764 -2.16832,0.92366 -0.4883,0.0858 0.82383,-0.56014 1.2746,-0.76654 2.00377,-0.91749 4.32658,-0.94324 6.47095,-0.73833 0.49403,0.10332 1.00044,0.1591 1.48209,0.30995 1.37795,0.43158 2.74253,1.38274 2.90687,2.92312 0.032,0.29989 -0.0215,0.6028 -0.0322,0.9042 -0.22634,0.77965 -0.21424,0.9968 -0.72847,1.67001 -0.20024,0.26214 -1.00303,0.81067 -0.68872,0.71061 0.84832,-0.27008 1.60699,-0.77449 2.36352,-1.2438 0.82768,-0.51345 -3.79514,1.94065 -2.78327,0.88972 -0.62248,0.0613 -1.24304,0.14714 -1.86745,0.18391 -3.13588,0.18466 -6.29756,-0.0889 -9.40339,-0.50492 0,0 -3.23991,2.24347 -3.23991,2.24347 z" />
    <path
       style="fill:#000000;fill-opacity:1;fill-rule:nonzero;stroke:none;stroke-width:0.264583"
       id="path191"
       d="m 179.17431,51.41142 c -7.41117,-0.317506 -14.81315,-0.851758 -22.21422,-1.349502 -2.10096,-0.1392 -4.2019,-0.278667 -6.30289,-0.4176 -6.38025,-0.421913 -7.18206,-0.441785 -13.61105,-0.995886 C 129.45252,47.99395 121.88195,47.164246 114.30959,46.30331 98.136579,44.2835 82.027039,41.793969 65.887636,39.526522 60.260203,38.75732 54.624636,37.998079 48.950824,37.664506 46.35365,37.511812 43.514629,37.429339 40.90775,37.585552 c -1.221393,0.07319 -2.434685,0.246864 -3.652028,0.370297 -4.601517,0.739011 -9.537353,1.84335 -13.655952,4.127765 -1.632414,0.90543 -3.222684,1.884841 -4.834025,2.827263 -1.966916,1.430065 -3.287641,3.201384 -3.724931,5.622115 -0.06254,0.3462 -0.07609,0.699477 -0.114134,1.049216 0.03888,1.148509 0.214356,2.367547 1.085359,3.209351 0.539192,0.521121 0.897144,0.616223 1.572258,0.931032 0.895504,0.237016 1.138463,0.362947 2.090385,0.356417 0.653444,-0.0045 1.571307,-0.14197 2.160015,-0.447355 4.06791,-2.110181 3.256361,-1.502058 5.259623,-3.282375 1.456394,-1.685177 2.538553,-3.720965 2.896928,-5.938412 0.05639,-0.348914 0.05978,-0.70435 0.08967,-1.056526 -0.03001,-0.483836 0.0045,-1.176184 -0.299339,-1.616226 -0.847182,-1.226889 -2.664896,-0.897641 -3.884737,-0.741595 -0.411186,0.123573 -0.834863,0.211389 -1.233558,0.370721 -0.394794,0.157773 -0.774184,0.35614 -1.137552,0.576863 -2.757522,1.675011 -3.682191,1.85615 -5.276414,3.746241 -0.845446,1.002352 -1.001072,1.37469 -1.688242,2.524635 -1.839205,3.550232 -3.064207,7.376062 -4.131712,11.216735 -1.116149,4.795311 -1.827401,9.672122 -2.7752937,14.502617 -1.3920009,6.936957 -2.71577,13.883193 -3.8528648,20.866819 -1.2404275,7.79301 -1.9365142,15.65879 -2.2228228,23.54117 -0.1530863,4.31544 -0.01632,8.63464 0.3716782,12.93479 0.2240884,2.48357 0.4238231,3.70706 0.7663797,6.17897 0.8500827,5.7986 2.057556,11.53958 3.6844517,17.16904 1.0208429,3.1834 2.3589407,6.25204 4.0143097,9.1564 0.867511,1.52206 1.40526,2.2948 2.355659,3.74426 1.052134,1.56244 2.233446,3.04851 3.623561,4.32639 0.59451,0.54651 1.500898,1.28764 2.265077,1.63162 0.330722,0.14887 0.697284,0.19989 1.045926,0.29983 0.339903,-0.0209 0.688976,0.0184 1.019708,-0.0628 0.340145,-0.0835 0.664575,-0.23788 0.961602,-0.42346 1.408723,-0.88018 2.843576,-1.73409 4.144545,-2.7669 0.704633,-0.5594 1.376392,-2.75222 1.644645,-3.59652 0.472344,-1.78895 0.632925,-3.64109 0.187682,-5.45429 -0.227325,-0.92577 -0.596715,-1.75086 -0.952056,-2.62956 -0.673496,-1.51618 -1.621951,-2.81119 -2.895098,-3.87291 -0.24124,-0.20118 -0.484282,-0.40411 -0.753579,-0.56581 -0.223952,-0.13448 -0.477788,-0.21136 -0.716682,-0.31703 -0.231423,-0.0273 -0.46188,-0.0989 -0.69427,-0.0817 -0.236554,0.0174 -0.482416,0.0644 -0.687483,0.18365 -2.366364,1.37554 -3.486907,1.5321 -4.562721,3.37092 -0.494587,0.84537 -0.608984,1.30485 -0.94072,2.23079 -0.666373,2.61287 -0.800398,5.52755 -0.0091,8.13534 0.17214,0.5673 0.43339,1.10364 0.650084,1.65546 1.432426,2.65098 3.771394,4.41575 6.571464,5.44243 0.623517,0.22862 1.26775,0.3962 1.901624,0.5943 3.302746,0.8392 6.699459,1.14116 10.079337,1.47891 3.753278,0.37505 3.084359,0.31113 6.98501,0.73424 11.071455,1.39619 22.175184,2.48716 33.289314,3.47681 11.723706,1.09152 23.473649,1.95077 35.237309,2.47404 7.23873,0.322 9.41659,0.31537 16.52614,0.44199 8.66453,0.07 17.34999,-0.0121 25.97274,-0.95819 4.02701,-0.44182 5.90977,-0.80762 9.86262,-1.46253 5.39389,-1.11427 10.95067,-2.05286 15.99966,-4.36686 2.48492,-1.13886 5.46684,-3.30828 7.52131,-4.66114 0.44686,-0.53246 0.98041,-1.00284 1.34059,-1.59738 1.28421,-2.11977 1.46432,-5.36059 -0.25993,-7.31316 -0.43318,-0.49053 -1.04268,-0.79112 -1.56403,-1.18669 -0.63647,-0.23342 -1.25003,-0.54279 -1.90941,-0.70028 -1.77006,-0.42279 -3.73637,-0.28571 -5.42694,0.38915 -1.45976,0.58273 -5.43938,3.57517 -5.47708,3.60132 -0.22053,0.40452 -0.50143,0.78157 -0.66159,1.21356 -0.73954,1.99482 0.15068,4.05413 1.36823,5.64885 0.34125,0.44695 0.75417,0.83433 1.13125,1.25149 1.69345,1.56116 3.73481,2.57594 6.06069,2.69151 1.71794,0.0854 2.07966,-0.11882 3.76873,-0.49605 0.62701,-0.24838 1.27102,-0.45749 1.88102,-0.74513 0.62614,-0.29525 1.23059,-0.63721 1.82011,-1.0001 2.53808,-1.56233 4.7505,-2.58318 6.59487,-4.77117 1.41305,-1.6763 1.66022,-2.47892 2.64072,-4.44935 2.21503,-6.24768 2.04697,-12.93993 1.80317,-19.4688 -0.24915,-5.58551 -0.83689,-11.14591 -1.30103,-16.71537 -1.57312,-18.87677 0.80372,9.21113 -0.79019,-9.56744 -0.13979,-1.66177 -0.2772,-3.32375 -0.41936,-4.98532 -0.25998,-3.0386 -0.56859,-6.79558 -0.93359,-9.83107 -0.5843,-4.85927 -1.40698,-9.688078 -2.21375,-14.513755 -1.69521,-9.410147 -2.93266,-18.891239 -4.23458,-28.361158 -0.62779,-4.032634 -1.04526,-8.183819 -2.63916,-11.984704 -0.77625,-1.851052 -1.02941,-2.067362 -2.10417,-3.656492 -1.18612,-1.514432 -2.72068,-2.809335 -4.76588,-2.732569 -0.41885,0.01572 -0.85686,0.05842 -1.23413,0.241054 -1.52539,0.738426 -2.95153,1.666386 -4.4273,2.49958 -0.29715,0.362741 -0.63692,0.694402 -0.89146,1.088221 -1.2929,2.000377 -1.39151,4.559969 -1.13336,6.854089 0.0728,0.64711 0.2108,1.285213 0.31621,1.92782 0.39476,1.510813 0.78609,3.130735 1.89373,4.309224 0.241,0.256418 0.51333,0.511754 0.84252,0.636124 0.3029,0.114438 0.67725,0.186722 0.97017,0.04872 1.50608,-0.709562 2.86948,-1.689108 4.30422,-2.533663 1.83335,-2.532139 2.58881,-5.627023 2.6371,-8.723971 0.0102,-0.653256 -0.0461,-1.305857 -0.0692,-1.958785 -0.0891,-1.611347 -0.41984,-3.184358 -0.78123,-4.750787 0,0 -3.37469,1.819881 -3.37469,1.819881 v 0 c 0.37491,1.531832 0.71967,3.070331 0.80469,4.652402 0.0197,0.640051 0.0744,1.279985 0.059,1.92015 -0.0601,2.491663 -0.5953,5.142447 -1.93657,7.282452 -0.26557,0.423733 -0.62058,0.784344 -0.93087,1.176518 0.80666,-0.397923 1.66276,-0.708316 2.41999,-1.193766 0.23837,-0.152818 -0.55379,0.231968 -0.8312,0.175207 -0.3116,-0.06376 -0.5769,-0.289912 -0.80626,-0.510251 -1.12318,-1.078977 -1.48211,-2.678192 -1.87159,-4.113726 -0.1,-0.630179 -0.23663,-1.25562 -0.29986,-1.890538 -0.22145,-2.223833 -0.0659,-4.754443 1.32087,-6.614962 0.27184,-0.364696 0.6328,-0.653573 0.9492,-0.98036 -0.74188,0.406167 -1.5729,0.680643 -2.22563,1.218501 -0.31187,0.256987 0.76148,-0.295915 1.16287,-0.342778 1.96203,-0.229074 3.48116,0.994431 4.65143,2.406287 1.08088,1.530054 1.33642,1.737128 2.12007,3.537241 1.62813,3.739928 2.07836,7.852312 2.76816,11.830675 1.41132,9.446178 2.67864,18.914871 4.31884,28.32546 0.80106,4.822412 1.61963,9.640779 2.20297,14.495929 0.40509,3.37156 0.66441,6.42912 0.94568,9.81601 0.13833,1.66576 0.26399,3.33255 0.39598,4.99882 0.74987,8.7695 1.4894,17.54351 1.95466,26.33308 0.1615,5.49053 0.37594,11.17814 -1.04608,16.54229 -0.25282,0.95367 -0.62297,1.87229 -0.93445,2.80844 -1.0507,2.002 -1.24272,2.67171 -2.73475,4.3556 -0.49853,0.56264 -1.4739,0.81282 -1.64243,1.54542 -0.11345,0.49317 1.72439,-0.95232 1.41404,-0.5526 -0.4113,0.52973 -3.04771,1.57172 -3.62544,1.81899 -0.62411,0.15894 -1.23648,0.37446 -1.87232,0.47683 -2.95295,0.47538 -5.48989,-0.41361 -7.69992,-2.35846 -0.36365,-0.3997 -0.76303,-0.7696 -1.09095,-1.19909 -1.14936,-1.50538 -1.9585,-3.43699 -1.15334,-5.29074 0.17606,-0.40534 0.46525,-0.75149 0.69788,-1.12724 -0.7704,0.32155 -1.49052,0.81171 -2.3112,0.96465 -0.47688,0.0889 0.79785,-0.56118 1.2382,-0.76468 1.62638,-0.75162 3.5641,-0.96677 5.31786,-0.60911 0.63271,0.12904 1.22526,0.40819 1.83789,0.61228 0.49109,0.35245 1.06595,0.61071 1.47325,1.05735 1.68607,1.84894 1.35435,4.92699 0.0811,6.88592 -0.36631,0.56358 -0.88775,1.00951 -1.33163,1.51426 0.42342,-0.1226 1.60628,-0.6531 1.27026,-0.36778 -1.14119,0.96903 -4.45667,2.28656 -5.71212,2.73307 -2.61609,0.93045 -5.48519,1.66538 -8.18468,2.27061 -1.56447,0.35075 -3.14253,0.63783 -4.7138,0.95675 -3.96579,0.67923 -5.87854,1.05797 -9.91929,1.53564 -8.68739,1.02697 -17.44247,1.1843 -26.18114,1.15369 -7.14964,-0.0813 -9.35081,-0.0546 -16.62527,-0.35649 -11.72227,-0.48648 -23.422843,-1.41129 -35.097288,-2.55934 -10.984847,-1.07077 -21.948968,-2.3269 -32.89382,-3.75021 -2.732977,-0.31905 -4.221276,-0.49958 -6.915348,-0.78893 -3.332933,-0.35795 -6.681013,-0.66532 -9.942359,-1.48393 -0.622118,-0.19104 -1.253781,-0.35339 -1.866353,-0.57312 -2.709729,-0.97199 -5.012132,-2.62725 -6.405752,-5.18936 -0.207623,-0.5335 -0.460311,-1.05157 -0.622869,-1.60048 -0.765488,-2.58479 -0.574077,-5.40952 0.163623,-7.9688 0.358139,-0.90612 0.469036,-1.33307 1.008873,-2.14056 0.188491,-0.28194 0.966621,-0.88217 0.639975,-0.79095 -0.978281,0.27322 -1.811671,0.91905 -2.720761,1.37208 -0.19862,0.099 0.375476,-0.25028 0.589243,-0.30987 0.202264,-0.0564 0.419481,-0.0199 0.629221,-0.0298 0.226591,0.0737 0.468218,0.11157 0.679774,0.22123 0.270325,0.14013 0.511654,0.33183 0.750781,0.52032 1.258663,0.99214 2.169594,2.25008 2.831189,3.70602 0.351588,0.86709 0.701782,1.6349 0.915839,2.55208 0.412057,1.76557 0.201745,3.56586 -0.277774,5.29313 -0.335048,0.97836 -0.467113,1.53114 -1.003196,2.42681 -0.213127,0.35609 -1.147147,1.0359 -0.733215,1.00618 0.895791,-0.0643 1.607075,-0.80924 2.446257,-1.12917 0.607796,-0.23171 -2.191903,1.33908 -1.817679,0.70994 -0.334712,-0.0647 -0.685279,-0.0734 -1.004135,-0.194 -0.766174,-0.28978 -1.671111,-1.00016 -2.25874,-1.51914 -1.399345,-1.23587 -2.576256,-2.69815 -3.627272,-4.23438 -0.95419,-1.42951 -1.498242,-2.19526 -2.364798,-3.70029 -1.654176,-2.87295 -2.99085,-5.91607 -4.003616,-9.07255 -1.6370856,-5.60437 -2.8843163,-11.31274 -3.7090797,-17.09527 -0.3359957,-2.4609 -0.5315181,-3.6868 -0.7570293,-6.15752 -0.3908753,-4.28245 -0.5225727,-8.58455 -0.3894272,-12.88281 0.2426171,-7.8548 0.9024421,-15.69293 2.1548182,-23.455755 1.182894,-7.009238 2.613113,-13.967697 4.018336,-20.934894 0.968855,-4.834686 1.70521,-9.717219 2.861329,-14.512165 1.079932,-3.826632 2.318318,-7.644254 4.231888,-11.146425 0.701999,-1.102264 0.891056,-1.506069 1.746778,-2.457458 0.304427,-0.33846 1.424739,-1.008814 0.972237,-0.959082 -0.824995,0.09067 -1.466467,0.783971 -2.234792,1.09784 -0.774814,0.316524 2.918983,-1.645253 2.281416,-1.048739 0.88274,-0.147659 2.867779,-0.591741 3.543073,0.318971 0.270045,0.364186 0.236033,1.06575 0.258144,1.455613 -0.03127,0.332206 -0.03592,0.668002 -0.09382,0.996614 -0.381459,2.165056 -1.487336,4.140168 -2.99733,5.714016 -0.136378,0.108646 -4.565378,3.554238 1.363663,-0.540637 0.300644,-0.207639 -0.667342,0.305293 -1.019538,0.402548 -0.683375,0.188706 -1.390763,0.21441 -2.090743,0.125698 -0.321728,-0.04078 -0.633066,-0.141115 -0.949599,-0.211672 -0.604622,-0.255024 -0.967352,-0.3434 -1.456092,-0.784685 -0.823736,-0.743754 -0.94547,-1.883418 -0.9669,-2.923101 0.0409,-0.331292 0.05651,-0.666699 0.12271,-0.993878 0.459906,-2.273022 1.877334,-4.025712 3.761756,-5.317635 -0.533879,0.287469 -2.171383,1.069908 -1.601639,0.862406 0.706836,-0.257431 1.330531,-0.704487 2.016404,-1.013465 3.712201,-1.672304 7.682561,-2.703121 11.697703,-3.320844 1.217631,-0.135395 2.430758,-0.320484 3.652893,-0.406185 2.603201,-0.182547 5.526844,-0.133707 8.12084,-0.01828 5.751809,0.255932 11.471701,0.931622 17.179044,1.663184 16.166912,2.157069 32.284426,4.662898 48.459677,6.758294 7.54464,0.876155 15.09023,1.731233 22.65532,2.415556 5.74853,0.519999 7.83709,0.638847 13.55287,1.042644 2.08851,0.147545 4.177,0.295397 6.2655,0.443095 7.22227,0.54996 14.44386,1.120984 21.6611,1.726306 0,0 3.22913,-2.29194 3.22913,-2.29194 z" />
    <path
       style="fill:#a0a0a0;stroke:none;stroke-width:1.16931"
       d="M 447.84409,695.66227 C 390.07122,693.8755 310.68861,687.43418 232.69184,678.20423 117.1019,664.5256 115.43133,664.288 103.72552,659.86128 l -5.01991,-1.89834 4.26362,-3.51444 c 7.74511,-6.38418 12.42178,-23.00336 9.89638,-35.16816 -3.03407,-14.615 -14.551104,-29.95026 -22.493151,-29.95026 -4.008277,0 -12.739533,4.70372 -18.201892,9.80577 -4.050811,3.7836 -8.409836,15.18464 -8.480593,22.18099 -0.03605,3.56417 -0.09435,3.60526 -1.898745,1.33846 C 57.518257,617.28731 47.059005,593.16101 43.196708,579.76342 38.279609,562.70693 31.902204,531.4174 29.178672,510.9866 26.5697,491.41518 25.705474,449.74693 27.384014,424.45798 c 2.633592,-39.67782 5.252949,-57.78437 17.169326,-118.68453 13.911781,-71.09793 15.641311,-79.476 18.02272,-87.30448 l 2.370218,-7.79168 4.229771,1.1679 c 5.612627,1.54972 10.917609,0.42509 20.197712,-4.28182 14.279079,-7.24241 23.202639,-19.70704 24.351069,-34.01414 0.50922,-6.34375 0.26388,-7.52641 -2.039,-9.82929 -3.83758,-3.83758 -13.752541,-2.9249 -23.450525,2.15865 -7.730451,4.0522 -11.023553,4.22398 -4.469494,0.23315 5.942148,-3.61823 21.307769,-8.88185 33.878799,-11.60547 37.10732,-8.03961 62.41832,-6.33522 204.49912,13.7705 125.69739,17.78733 154.41077,21.04466 242.63093,27.5248 21.2229,1.55891 50.502,3.76358 65.06468,4.89926 l 26.47758,2.06487 0.75688,7.07026 c 1.58527,14.8088 6.53923,26.71402 11.97631,28.7812 3.0939,1.1763 8.45844,-1.03258 17.43014,-7.17697 5.25121,-3.59637 10.26839,-12.98843 11.69109,-21.88555 0.43781,-2.73788 1.18052,-5.21561 1.65049,-5.50606 1.23466,-0.76307 5.65732,14.87365 8.20911,29.02404 1.20724,6.69449 4.34191,26.84321 6.96595,44.77493 2.62404,17.93171 7.90916,52.07206 11.74471,75.86743 8.29229,51.44452 9.40772,60.73369 13.97057,116.34592 9.02768,110.02989 9.32491,138.25703 1.70127,161.56823 -5.04238,15.41833 -17.26579,30.00836 -27.74896,33.12154 -3.24776,0.96447 -6.99344,1.726 -8.32373,1.69226 -2.25923,-0.0573 -2.22596,-0.19221 0.50456,-2.04628 9.09998,-6.17907 13.42461,-15.05269 12.63774,-25.93111 -0.60508,-8.36528 -3.05134,-12.24683 -10.25311,-16.2689 -6.11444,-3.41483 -18.56849,-4.62793 -25.31299,-2.46564 -6.64468,2.1303 -23.70155,13.87364 -25.66449,17.66952 -5.33862,10.32377 2.41542,26.00675 16.90164,34.18448 l 5.14192,2.90271 -8.06519,2.39834 c -55.08129,16.37954 -121.68262,21.9526 -224.38674,18.77622 z m -286.35572,-155.1507 5.72235,-4.3849 -17.53959,-0.7407 c -9.64677,-0.40739 -20.30207,-1.37182 -23.67844,-2.14318 l -6.13885,-1.40248 -0.0418,-8.96521 c -0.023,-4.93088 -0.84575,-19.48899 -1.82836,-32.35135 -0.98261,-12.86236 -2.08068,-34.5676 -2.44015,-48.23386 -0.35947,-13.66626 -0.86718,-24.84775 -1.12824,-24.84775 -0.26107,0 -3.64733,1.60157 -7.52504,3.55903 l -7.050386,3.55902 0.724806,17.19616 c 0.39864,9.45788 1.23458,22.98421 1.85765,30.05851 0.62306,7.0743 1.41235,24.1754 1.75398,38.00244 0.34162,13.82704 0.84501,26.25737 1.11863,27.62298 0.96184,4.80033 12.16579,7.05496 36.31525,7.30792 l 14.15585,0.14827 z m 37.4095,-12.05169 6.24711,-3.57423 -0.16467,-33.2589 c -0.11366,-22.95346 -0.55597,-33.25044 -1.42753,-33.23159 -0.6946,0.015 -3.89383,1.46382 -7.10942,3.21954 l -5.84653,3.19222 -0.27722,33.6136 c -0.19886,24.11283 0.0914,33.61358 1.02697,33.61358 0.71731,0 4.11539,-1.6084 7.55129,-3.57422 z m 174.99649,-0.41908 c 2.66705,-0.48149 5.07716,-1.83623 6.13277,-3.4473 0.95646,-1.45975 3.56835,-9.91737 5.80419,-18.79471 3.33696,-13.24928 5.01245,-17.63406 9.35325,-24.47762 7.31693,-11.53559 8.33381,-12.6911 10.76855,-12.23656 5.65972,1.05661 7.74969,16.03943 5.10341,36.58595 -1.4398,11.17903 0.24896,15.19714 7.17415,17.06967 8.61973,2.33073 30.71821,-0.75502 40.08532,-5.59737 4.23473,-2.18916 12.51799,-8.6962 11.88093,-9.33326 -0.24625,-0.24625 -3.59182,0.61145 -7.43461,1.90599 -11.00412,3.70701 -26.7532,5.37042 -32.45781,3.42817 l -4.67723,-1.59245 v -21.62219 c 0,-23.62486 -0.73837,-27.00065 -6.62782,-30.30186 -2.87783,-1.6131 -3.59932,-1.52566 -9.29802,1.12683 -3.39794,1.58159 -8.9059,4.51117 -12.23989,6.51018 l -6.0618,3.63456 0.41563,-4.21921 c 1.07029,-10.86468 1.33071,-15.32761 0.89437,-15.32761 -0.26091,0 -3.61649,1.58614 -7.45686,3.52475 l -6.98249,3.52475 v 7.09204 c 0,12.77429 -2.50082,29.43263 -5.49917,36.63081 -3.04438,7.30871 -7.36319,22.92826 -7.36319,26.63002 0,1.71124 0.4493,1.96071 2.04628,1.13616 1.12546,-0.58109 4.02348,-1.41348 6.44004,-1.84974 z m 94.99723,0.008 c 17.25032,-3.16422 22.69885,-5.06334 32.97595,-11.49393 7.55547,-4.72762 9.7288,-7.98264 7.29109,-10.91991 -0.7901,-0.95201 -6.19833,-4.19028 -12.01829,-7.19618 -5.81996,-3.00589 -12.34742,-7.01552 -14.50544,-8.9103 -7.33619,-6.44126 -9.26599,-13.93466 -5.01369,-19.46816 2.19955,-2.86225 2.58888,-2.92549 18.65533,-3.03052 l 16.40891,-0.10723 5.95933,-4.17178 c 5.3863,-3.77063 5.71721,-4.24863 3.44115,-4.97102 -4.21647,-1.33826 -25.96391,-0.9795 -31.56218,0.52065 -6.07797,1.62871 -19.32527,9.14994 -25.19816,14.30642 -3.46115,3.03892 -4.03448,4.27947 -4.03448,8.72964 0,6.45376 3.43166,13.37955 8.57219,17.30042 2.15409,1.64302 8.56873,5.51183 14.25473,8.59737 5.686,3.08553 10.52631,6.17444 10.75624,6.86423 0.44811,1.34434 -0.77903,1.66494 -19.39614,5.06753 -11.69842,2.13809 -18.38052,5.13462 -22.48899,10.08503 -1.71156,2.0623 -2.02305,2.08585 15.90245,-1.20222 z m 140.13806,-1.56948 5.98122,-4.38489 -14.73472,-0.77045 c -22.94405,-1.19967 -33.83299,-4.74409 -43.342,-14.10809 l -5.02185,-4.94526 12.44793,-0.73407 c 11.17762,-0.65915 13.4204,-1.19042 21.97747,-5.20601 10.64468,-4.99524 17.5295,-11.4487 17.73814,-16.62682 0.37627,-9.33831 -1.60526,-13.17684 -8.78551,-17.01893 -4.09809,-2.19244 -6.65106,-2.56318 -17.6533,-2.56318 -14.32537,0 -15.5603,0.42819 -31.16898,10.80726 -8.69941,5.78472 -12.26727,11.20091 -12.90774,19.59469 -0.21051,2.7588 -1.19622,5.30392 -2.40319,6.20516 -2.83512,2.11695 -2.55707,3.73394 0.64208,3.73394 1.99374,0 3.05827,1.02297 4.11999,3.95909 3.35246,9.27107 16.33537,19.40892 29.44013,22.98869 5.30085,1.448 19.80452,2.96322 31.41459,3.28193 5.54398,0.15218 6.97091,-0.33829 12.25574,-4.21266 z m -350.03022,-2.2625 6.39818,-4.30878 -7.60855,-1.8549 c -18.50597,-4.51158 -27.58463,-15.22489 -22.87545,-26.99428 4.09771,-10.24117 11.48139,-18.14479 25.93623,-27.76257 8.25213,-5.49071 10.30943,-7.19241 9.57875,-7.9231 -0.99947,-0.99945 -9.97612,3.1426 -21.00419,9.69186 -17.10856,10.16031 -31.53315,29.50199 -29.63527,39.73743 1.83215,9.88092 10.47479,17.8369 23.39745,21.53855 9.33413,2.67373 8.52741,2.78211 15.81285,-2.12421 z m 79.94833,-1.48423 c 14.73242,-1.0072 15.18283,-1.12034 21.33983,-5.36082 3.45937,-2.38256 6.28975,-4.59888 6.28975,-4.92517 0,-0.32628 -4.1459,-0.23159 -9.21312,0.21043 -16.99714,1.48268 -41.10647,0.89915 -48.08286,-1.16376 -7.94583,-2.34959 -13.38883,-6.33531 -15.01258,-10.99321 l -1.23604,-3.54531 h 7.58574 c 12.51761,0 29.87437,-2.25698 36.84747,-4.79144 12.46941,-4.53217 18.58764,-11.96934 18.58764,-22.59467 0,-6.88326 -1.55838,-10.03648 -6.70208,-13.56101 -3.88973,-2.66528 -5.30387,-2.90184 -17.34665,-2.90184 h -13.11169 l -11.27409,5.70899 c -18.8184,9.52931 -27.7331,21.33056 -28.56553,37.81494 -0.3759,7.4438 -0.0617,9.08125 2.62109,13.65906 6.6166,11.29037 22.78006,14.80234 57.27312,12.44421 z m -131.67664,-83.8847 c 4.79592,-3.88165 9.20071,-9.36771 8.26926,-10.29917 -0.34352,-0.34351 -2.9386,0.41147 -5.76687,1.67772 -3.01439,1.34958 -5.57405,1.87053 -6.18567,1.25891 -0.57385,-0.57385 -1.29913,-3.70527 -1.61176,-6.95873 -0.31261,-3.25344 -0.77954,-5.91535 -1.03762,-5.91535 -0.25806,0 -3.65606,1.60872 -7.5511,3.57492 -5.13603,2.59266 -6.89392,4.06471 -6.39784,5.35751 0.37623,0.98043 0.68601,3.18657 0.68842,4.90255 0.002,1.71597 1.08649,4.89492 2.40908,7.06432 2.27684,3.73466 2.68536,3.91275 7.68346,3.34939 3.45691,-0.38965 6.73583,-1.77432 9.50064,-4.01207 z M 98.845698,365.55793 c 1.629442,-0.35867 14.784132,-1.47456 29.232642,-2.47977 36.17258,-2.51659 48.51355,-4.79889 62.35285,-11.53131 16.7985,-8.17199 21.7978,-13.3746 21.7978,-22.68429 0,-6.55121 -4.58052,-14.72845 -14.57097,-26.01238 -28.49239,-32.18135 -32.29658,-38.03932 -33.15477,-51.054 -0.34818,-5.28036 0.1959,-9.18479 2.03682,-14.61632 3.63278,-10.71824 6.44219,-13.6674 14.22667,-14.93436 5.98391,-0.97391 19.84275,-0.10811 26.99211,1.68627 2.30266,0.57793 4.4911,-0.18362 8.99732,-3.13094 3.275,-2.14204 5.96401,-4.26542 5.97556,-4.71861 0.0424,-1.66139 -9.12315,-2.68393 -24.0573,-2.68393 h -15.30851 l -9.0051,4.57075 c -12.8401,6.5173 -17.55168,11.49393 -20.81205,21.9828 -1.72711,5.55624 -2.61273,11.24063 -2.54277,16.32086 0.18415,13.3745 5.83453,22.78445 28.31937,47.16214 20.1353,21.83035 23.99973,32.79669 14.79936,41.99707 -3.39696,3.39695 -4.60307,3.85818 -10.12334,3.87132 -3.4468,0.008 -10.47642,0.86974 -15.62137,1.91454 -5.14494,1.0448 -21.68669,2.70289 -36.75942,3.68463 l -27.40498,1.78499 -6.212562,4.69053 c -6.503372,4.9101 -7.590027,6.31512 -4.166274,5.3869 1.125457,-0.30512 3.379468,-0.84823 5.008914,-1.20689 z m 313.887942,-4.47547 5.29316,-2.57161 v -21.80839 -21.80838 l 7.30816,-3.10852 c 10.94747,-4.65649 33.59596,-17.81016 37.9761,-22.05555 6.09927,-5.91165 8.87774,-12.75667 8.25012,-20.32493 -0.99302,-11.97467 -7.9062,-17.152 -25.70567,-19.25121 -6.16713,-0.72733 -14.17585,-1.13897 -17.79716,-0.91476 l -6.58418,0.40766 0.70784,-3.21559 c 0.3893,-1.76857 0.38791,-3.21559 -0.004,-3.21559 -0.39101,0 -3.77968,1.54911 -7.53039,3.44246 l -6.81947,3.44246 -0.75851,32.51369 c -0.41718,17.88253 -1.08867,43.43208 -1.49218,56.77679 -0.52733,17.439 -0.36864,24.26309 0.56421,24.26309 0.71384,0 3.67982,-1.15723 6.59105,-2.57162 z m 122.64448,-11.72525 c -0.30732,-0.49726 -2.50092,-0.90704 -4.87466,-0.91063 -10.68917,-0.0161 -18.77697,-4.96625 -22.85208,-13.98652 -1.93664,-4.28673 -2.48785,-8.40365 -2.88202,-21.52535 -0.56357,-18.76067 0.68445,-28.1887 6.33913,-47.88815 2.18388,-7.60807 3.97068,-14.01448 3.97068,-14.23647 0,-0.22198 -3.16099,0.9603 -7.02444,2.62728 l -7.02444,3.03089 -2.28741,7.69766 c -6.85841,23.08012 -7.56845,27.79285 -7.60217,50.45788 l -0.0323,21.71271 3.52583,6.89634 c 4.52056,8.84195 10.97825,13.1221 21.71508,14.39272 7.29724,0.86358 7.66277,0.77619 13.54361,-3.23835 3.32419,-2.26924 5.79252,-4.53275 5.48519,-5.03001 z m 89.3696,-2.49067 c 8.13689,-1.59161 15.60751,-5.43224 19.22106,-9.88154 1.24918,-1.53809 1.18464,-1.71866 -0.40219,-1.12514 -1.03958,0.38884 -7.61693,1.60544 -14.61632,2.70359 -24.85919,3.90016 -37.49846,0.83052 -49.83517,-12.10324 -5.06045,-5.30535 -13.75578,-18.98418 -13.75578,-21.63954 0,-0.23914 8.28745,-0.77281 18.41656,-1.18593 10.12911,-0.41312 27.08547,-1.55838 37.6808,-2.54503 17.2491,-1.60627 19.72321,-2.112 23.65208,-4.83472 2.41333,-1.67243 5.04713,-3.83516 5.85291,-4.80605 1.26644,-1.52597 0.99262,-1.66849 -2.01994,-1.05129 -8.15144,1.66999 -51.44554,4.39534 -65.15722,4.10161 -10.45819,-0.22404 -15.3209,0.10173 -16.31181,1.0926 -7.62296,7.62296 -0.97061,-16.91237 8.38156,-30.91301 2.51549,-3.76581 5.35316,-7.81426 6.30592,-8.99655 2.12253,-2.63384 8.53227,-4.21664 17.22589,-4.25367 5.43334,-0.0232 7.42393,-0.65055 11.69305,-3.68543 8.47381,-6.02395 8.47138,-6.02664 -4.88143,-5.39 -10.32346,0.49221 -13.43196,1.11197 -18.82706,3.75369 -15.06236,7.37532 -24.18296,17.51767 -32.02902,35.61714 -7.65133,17.65025 -6.60127,28.76634 4.2499,44.99017 11.93243,17.84048 22.98118,23.33441 44.93955,22.34595 6.43118,-0.2895 15.52868,-1.27662 20.21666,-2.19361 z m -393.80904,-5.42967 c 6.54882,-3.30583 7.05414,-3.86675 8.75528,-9.71848 3.04876,-10.48739 11.06227,-46.8574 10.45748,-47.46219 -0.906,-0.906 -13.40178,5.58864 -13.85249,7.19978 -0.22388,0.8003 -1.78558,8.73017 -3.47044,17.62194 -2.63605,13.91153 -6.04769,26.15448 -9.42463,33.82098 -1.21024,2.74757 -0.55095,2.61965 7.5348,-1.46203 z m 50.39554,-8.09729 c 2.93933,-3.53651 14.94368,-56.87265 18.04721,-80.18489 l 0.77833,-5.84653 5.73718,-0.32968 c 7.12579,-0.40948 9.78401,0.96346 12.59971,6.50763 4.08664,8.04665 5.01034,16.6176 4.61173,42.79228 l -0.38,24.95347 4.06199,5.95596 c 2.2341,3.27577 6.66051,7.89592 9.83646,10.26699 l 5.77446,4.31104 5.15633,-2.79523 c 7.79598,-4.22617 7.94984,-4.87452 2.14584,-9.04264 -2.83476,-2.03577 -6.9067,-5.91229 -9.04876,-8.61448 l -3.89465,-4.91309 -0.37809,-18.11999 c -0.24647,-11.81297 0.1216,-19.97095 1.05749,-23.43773 2.11004,-7.81616 7.74114,-19.93404 9.26324,-19.93404 2.85742,0 5.76816,2.54643 9.00065,7.87412 6.99932,11.53606 11.26159,23.90119 16.70514,48.46269 1.8876,8.51687 3.25833,12.06834 5.53767,14.34768 4.8303,4.83031 7.52159,4.87843 14.3837,0.25722 l 6.08135,-4.09543 -3.6282,-1.87622 c -5.40829,-2.79673 -6.61058,-5.40604 -11.6177,-25.21367 -6.86205,-27.14547 -13.15774,-41.52479 -21.11073,-48.21679 -3.23279,-2.72022 -4.04557,-2.89857 -8.58614,-1.88416 -4.73904,1.05875 -8.23118,2.74051 -15.27722,7.35724 l -3.04415,1.9946 -2.57155,-5.97774 c -5.19783,-12.08269 -13.79637,-14.36281 -29.23786,-7.75315 -1.5171,0.64939 -1.7545,0.13398 -1.31563,-2.85629 l 0.53552,-3.64867 -7.16185,3.61528 c -3.939,1.98841 -7.16183,3.85271 -7.16183,4.1429 0,6.52158 -10.7533,65.46338 -13.99405,76.70523 -0.99189,3.44076 -2.26547,4.68092 -7.16249,6.97458 -5.9451,2.78453 -5.95474,2.79811 -5.2249,7.36227 1.41897,8.87379 1.9588,9.18555 10.29906,5.94799 4.02192,-1.56124 8.15416,-3.85119 9.18274,-5.08875 z m -37.2137,-86.15805 c 6.07887,-2.98135 6.26371,-3.22188 8.22603,-10.70364 1.10408,-4.20957 1.79084,-7.87035 1.5261,-8.13508 -0.26473,-0.26472 -3.59138,1.08864 -7.39256,3.00747 -6.60752,3.33547 -6.97241,3.75383 -8.30346,9.52021 -1.48071,6.41481 -1.74304,9.36093 -0.83347,9.36093 0.30731,0 3.35713,-1.37245 6.77736,-3.04989 z"
       id="path610"
       transform="scale(0.26458333)" />
    <path
       style="fill:#a0a0a0;stroke:none;stroke-width:1.16931"
       d="m 294.02057,484.30115 c 1.51447,-5.28063 6.94545,-14.87959 10.09031,-17.83402 2.93661,-2.75881 9.71772,-4.46376 18.03285,-4.53392 15.47309,-0.13058 22.81264,7.54609 18.645,19.50139 -1.48356,4.25574 -3.38526,4.62047 -30.0143,5.7565 l -17.80048,0.75939 z"
       id="path688"
       transform="scale(0.26458333)" />
    <path
       style="fill:#a0a0a0;stroke:none;stroke-width:1.16931"
       d="m 551.55293,491.46851 c -2.12701,-0.28505 -4.14572,-1.24386 -4.48603,-2.13068 -0.92422,-2.40848 2.75591,-13.59471 5.57249,-16.93832 2.3321,-2.76848 3.09005,-2.92161 14.31472,-2.89204 12.73709,0.0336 17.563,1.55274 21.13569,6.65346 2.89677,4.13572 1.86144,12.56943 -1.84224,15.00672 -1.18879,0.78232 -29.28414,1.02594 -34.69463,0.30086 z"
       id="path727"
       transform="scale(0.26458333)" />
    <path
       style="fill:#a0a0a0;stroke:none;stroke-width:1.16931"
       d="m 419.20084,300.12962 c 0.007,-14.8674 1.42444,-39.07226 2.37778,-40.61479 1.27715,-2.06647 21.13727,0.53039 27.45841,3.5904 8.09689,3.91964 10.83687,12.59824 6.93017,21.9506 -2.90737,6.96003 -7.38035,10.74567 -19.23151,16.27632 -6.10962,2.85121 -12.55542,5.89741 -14.324,6.76932 l -3.21559,1.5853 0.005,-9.55715 z"
       id="path766"
       transform="scale(0.26458333)" />
    <path
       style="fill:#a0a0a0;stroke:none;stroke-width:1.16931"
       d="m 87.83455,649.29703 c -7.717185,-7.94061 -9.494065,-13.15913 -9.469514,-27.81104 0.01653,-9.86218 0.514239,-13.95334 2.133794,-17.53958 l 2.112242,-4.67723 5.668818,6.12232 c 7.266112,7.84739 10.88432,16.93665 10.828797,27.2029 -0.04232,7.82543 -3.378437,19.98457 -5.684319,20.71764 -0.709169,0.22546 -3.224586,-1.5813 -5.589818,-4.01501 z"
       id="path873"
       transform="scale(0.26458333)" />
    <path
       style="fill:#a0a0a0;stroke:none;stroke-width:1.16931"
       d="m 80.426171,202.00716 c -3.058767,-0.62612 -5.82102,-2.13855 -7.269927,-3.98054 l -2.336781,-2.97073 3.503977,-6.94134 c 6.897821,-13.66451 15.403409,-19.7771 22.818417,-16.3986 2.210092,1.00699 2.833782,2.18842 2.833782,5.36793 0,8.52486 -7.74854,24.25266 -12.524119,25.42117 -1.150711,0.28156 -4.312119,0.0575 -7.025349,-0.49789 z"
       id="path912"
       transform="scale(0.26458333)" />
    <path
       style="fill:#a0a0a0;stroke:none;stroke-width:1.16931"
       d="m 677.03946,225.27293 c -2.44749,-3.73534 -4.72987,-11.22408 -5.79949,-19.02876 -0.79316,-5.78741 -0.69195,-6.08588 3.06857,-9.04915 3.60077,-2.83739 3.69121,-3.0653 1.22114,-3.0773 -3.73362,-0.0181 -4.41572,-2.86225 -1.98123,-8.26099 1.68442,-3.73538 2.68789,-4.61434 5.26793,-4.61434 5.56696,0 6.39677,2.41225 6.39677,18.59536 0,11.56947 -0.47203,15.98426 -2.20004,20.57638 -2.93019,7.78687 -3.66402,8.38374 -5.97365,4.8588 z"
       id="path951"
       transform="scale(0.26458333)" />
    <path
       style="fill:#a0a0a0;stroke:none;stroke-width:1.16931"
       d="m 689.77091,663.70345 c -9.92752,-4.62257 -19.17408,-15.90024 -19.17408,-23.38586 0,-3.78253 1.66293,-8.04977 4.07817,-10.46501 5.16355,-5.16355 24.49636,-0.30835 28.97732,7.27731 2.78235,4.71014 2.64287,14.27405 -0.28839,19.77418 -2.17226,4.07596 -6.34796,9.61413 -7.2298,9.58877 -0.21848,-0.006 -3.08193,-1.26151 -6.36322,-2.78939 z"
       id="path990"
       transform="scale(0.26458333)" />
  </g>
</svg>
